<?xml version="1.0" encoding="utf-8" standalone="no"?>
<!DOCTYPE svg PUBLIC "-//W3C//DTD SVG 1.1//EN"
  "http://www.w3.org/Graphics/SVG/1.1/DTD/svg11.dtd">
<!-- Created with matplotlib (https://matplotlib.org/) -->
<svg height="639.622799pt" version="1.1" viewBox="0 0 925.684375 639.622799" width="925.684375pt" xmlns="http://www.w3.org/2000/svg" xmlns:xlink="http://www.w3.org/1999/xlink">
 <defs>
  <style type="text/css">
*{stroke-linecap:butt;stroke-linejoin:round;}
  </style>
 </defs>
 <g id="figure_1">
  <g id="patch_1">
   <path d="M 0 639.622799 
L 925.684375 639.622799 
L 925.684375 0 
L 0 0 
z
" style="fill:#ffffff;"/>
  </g>
  <g id="axes_1">
   <g id="patch_2">
    <path d="M 81.484375 578.526236 
L 918.484375 578.526236 
L 918.484375 7.746236 
L 81.484375 7.746236 
z
" style="fill:#ffffff;"/>
   </g>
   <g id="patch_3">
    <path clip-path="url(#p8f77c4e6e7)" d="M 93.760375 374.240199 
L 125.008375 374.240199 
L 125.008375 313.331351 
L 93.760375 313.331351 
L 93.760375 374.240199 
z
" style="fill:#525252;stroke:#313131;stroke-linejoin:miter;stroke-width:1.5;"/>
   </g>
   <g id="patch_4">
    <path clip-path="url(#p8f77c4e6e7)" d="M 125.646089 474.496896 
L 156.894089 474.496896 
L 156.894089 416.546678 
L 125.646089 416.546678 
L 125.646089 474.496896 
z
" style="fill:#979797;stroke:#313131;stroke-linejoin:miter;stroke-width:1.5;"/>
   </g>
   <g id="patch_5">
    <path clip-path="url(#p8f77c4e6e7)" d="M 157.531804 547.663624 
L 188.779804 547.663624 
L 188.779804 540.10718 
L 157.531804 540.10718 
L 157.531804 547.663624 
z
" style="fill:#dadada;stroke:#313131;stroke-linejoin:miter;stroke-width:1.5;"/>
   </g>
   <g id="patch_6">
    <path clip-path="url(#p8f77c4e6e7)" d="M 213.331804 242.197922 
L 244.579804 242.197922 
L 244.579804 196.937297 
L 213.331804 196.937297 
L 213.331804 242.197922 
z
" style="fill:#525252;stroke:#313131;stroke-linejoin:miter;stroke-width:1.5;"/>
   </g>
   <g id="patch_7">
    <path clip-path="url(#p8f77c4e6e7)" d="M 245.217518 196.229829 
L 276.465518 196.229829 
L 276.465518 124.371874 
L 245.217518 124.371874 
L 245.217518 196.229829 
z
" style="fill:#979797;stroke:#313131;stroke-linejoin:miter;stroke-width:1.5;"/>
   </g>
   <g id="patch_8">
    <path clip-path="url(#p8f77c4e6e7)" d="M 277.103232 547.663624 
L 308.351232 547.663624 
L 308.351232 540.10718 
L 277.103232 540.10718 
L 277.103232 547.663624 
z
" style="fill:#dadada;stroke:#313131;stroke-linejoin:miter;stroke-width:1.5;"/>
   </g>
   <g id="patch_9">
    <path clip-path="url(#p8f77c4e6e7)" d="M 332.903232 177.632763 
L 364.151232 177.632763 
L 364.151232 130.265323 
L 332.903232 130.265323 
L 332.903232 177.632763 
z
" style="fill:#525252;stroke:#313131;stroke-linejoin:miter;stroke-width:1.5;"/>
   </g>
   <g id="patch_10">
    <path clip-path="url(#p8f77c4e6e7)" d="M 364.788946 104.922101 
L 396.036946 104.922101 
L 396.036946 59.455978 
L 364.788946 59.455978 
L 364.788946 104.922101 
z
" style="fill:#979797;stroke:#313131;stroke-linejoin:miter;stroke-width:1.5;"/>
   </g>
   <g id="patch_11">
    <path clip-path="url(#p8f77c4e6e7)" d="M 396.674661 524.113516 
L 427.922661 524.113516 
L 427.922661 499.416338 
L 396.674661 499.416338 
L 396.674661 524.113516 
z
" style="fill:#dadada;stroke:#313131;stroke-linejoin:miter;stroke-width:1.5;"/>
   </g>
   <g id="patch_12">
    <path clip-path="url(#p8f77c4e6e7)" d="M 452.474661 150.924929 
L 483.722661 150.924929 
L 483.722661 96.561903 
L 452.474661 96.561903 
L 452.474661 150.924929 
z
" style="fill:#525252;stroke:#313131;stroke-linejoin:miter;stroke-width:1.5;"/>
   </g>
   <g id="patch_13">
    <path clip-path="url(#p8f77c4e6e7)" d="M 484.360375 84.530361 
L 515.608375 84.530361 
L 515.608375 47.010738 
L 484.360375 47.010738 
L 484.360375 84.530361 
z
" style="fill:#979797;stroke:#313131;stroke-linejoin:miter;stroke-width:1.5;"/>
   </g>
   <g id="patch_14">
    <path clip-path="url(#p8f77c4e6e7)" d="M 516.246089 407.541412 
L 547.494089 407.541412 
L 547.494089 297.912441 
L 516.246089 297.912441 
L 516.246089 407.541412 
z
" style="fill:#dadada;stroke:#313131;stroke-linejoin:miter;stroke-width:1.5;"/>
   </g>
   <g id="patch_15">
    <path clip-path="url(#p8f77c4e6e7)" d="M 572.046089 126.568183 
L 603.294089 126.568183 
L 603.294089 81.654286 
L 572.046089 81.654286 
L 572.046089 126.568183 
z
" style="fill:#525252;stroke:#313131;stroke-linejoin:miter;stroke-width:1.5;"/>
   </g>
   <g id="patch_16">
    <path clip-path="url(#p8f77c4e6e7)" d="M 603.931804 81.977293 
L 635.179804 81.977293 
L 635.179804 42.74184 
L 603.931804 42.74184 
L 603.931804 81.977293 
z
" style="fill:#979797;stroke:#313131;stroke-linejoin:miter;stroke-width:1.5;"/>
   </g>
   <g id="patch_17">
    <path clip-path="url(#p8f77c4e6e7)" d="M 635.817518 209.377905 
L 667.065518 209.377905 
L 667.065518 73.957043 
L 635.817518 73.957043 
L 635.817518 209.377905 
z
" style="fill:#dadada;stroke:#313131;stroke-linejoin:miter;stroke-width:1.5;"/>
   </g>
   <g id="patch_18">
    <path clip-path="url(#p8f77c4e6e7)" d="M 691.617518 118.108772 
L 722.865518 118.108772 
L 722.865518 74.267898 
L 691.617518 74.267898 
L 691.617518 118.108772 
z
" style="fill:#525252;stroke:#313131;stroke-linejoin:miter;stroke-width:1.5;"/>
   </g>
   <g id="patch_19">
    <path clip-path="url(#p8f77c4e6e7)" d="M 723.503232 83.259938 
L 754.751232 83.259938 
L 754.751232 44.925357 
L 723.503232 44.925357 
L 723.503232 83.259938 
z
" style="fill:#979797;stroke:#313131;stroke-linejoin:miter;stroke-width:1.5;"/>
   </g>
   <g id="patch_20">
    <path clip-path="url(#p8f77c4e6e7)" d="M 755.388946 131.141706 
L 786.636946 131.141706 
L 786.636946 66.043197 
L 755.388946 66.043197 
L 755.388946 131.141706 
z
" style="fill:#dadada;stroke:#313131;stroke-linejoin:miter;stroke-width:1.5;"/>
   </g>
   <g id="patch_21">
    <path clip-path="url(#p8f77c4e6e7)" d="M 811.188946 106.866009 
L 842.436946 106.866009 
L 842.436946 70.856092 
L 811.188946 70.856092 
L 811.188946 106.866009 
z
" style="fill:#525252;stroke:#313131;stroke-linejoin:miter;stroke-width:1.5;"/>
   </g>
   <g id="patch_22">
    <path clip-path="url(#p8f77c4e6e7)" d="M 843.074661 87.857905 
L 874.322661 87.857905 
L 874.322661 47.010738 
L 843.074661 47.010738 
L 843.074661 87.857905 
z
" style="fill:#979797;stroke:#313131;stroke-linejoin:miter;stroke-width:1.5;"/>
   </g>
   <g id="patch_23">
    <path clip-path="url(#p8f77c4e6e7)" d="M 874.960375 196.64923 
L 906.208375 196.64923 
L 906.208375 130.270637 
L 874.960375 130.270637 
L 874.960375 196.64923 
z
" style="fill:#dadada;stroke:#313131;stroke-linejoin:miter;stroke-width:1.5;"/>
   </g>
   <g id="patch_24">
    <path clip-path="url(#p8f77c4e6e7)" d="M 141.270089 557.266737 
L 141.270089 557.266737 
L 141.270089 557.266737 
L 141.270089 557.266737 
z
" style="fill:#525252;stroke:#313131;stroke-linejoin:miter;stroke-width:0.75;"/>
   </g>
   <g id="patch_25">
    <path clip-path="url(#p8f77c4e6e7)" d="M 141.270089 557.266737 
L 141.270089 557.266737 
L 141.270089 557.266737 
L 141.270089 557.266737 
z
" style="fill:#979797;stroke:#313131;stroke-linejoin:miter;stroke-width:0.75;"/>
   </g>
   <g id="patch_26">
    <path clip-path="url(#p8f77c4e6e7)" d="M 141.270089 557.266737 
L 141.270089 557.266737 
L 141.270089 557.266737 
L 141.270089 557.266737 
z
" style="fill:#dadada;stroke:#313131;stroke-linejoin:miter;stroke-width:0.75;"/>
   </g>
   <g id="matplotlib.axis_1">
    <g id="xtick_1">
     <g id="line2d_1">
      <defs>
       <path d="M 0 0 
L 0 3.5 
" id="m15e6397914" style="stroke:#000000;stroke-width:0.8;"/>
      </defs>
      <g>
       <use style="stroke:#000000;stroke-width:0.8;" x="141.270089" xlink:href="#m15e6397914" y="578.526236"/>
      </g>
     </g>
     <g id="text_1">
      <!-- k=1 -->
      <defs>
       <path d="M 28.609375 0 
L 3.421875 0 
L 3.421875 5.171875 
L 11.53125 5.171875 
L 11.53125 70.796875 
L 2.875 70.796875 
L 2.875 75.984375 
L 20.515625 75.984375 
L 20.515625 26.515625 
L 42.390625 46.6875 
L 34.90625 46.6875 
L 34.90625 51.90625 
L 58.40625 51.90625 
L 58.40625 46.6875 
L 49.515625 46.6875 
L 34.078125 32.421875 
L 53.8125 5.171875 
L 61.28125 5.171875 
L 61.28125 0 
L 35.6875 0 
L 35.6875 5.171875 
L 43.109375 5.171875 
L 27.59375 26.515625 
L 20.515625 19.921875 
L 20.515625 5.171875 
L 28.609375 5.171875 
z
" id="DejaVuSerif-107"/>
       <path d="M 10.59375 45.21875 
L 73.1875 45.21875 
L 73.1875 37.40625 
L 10.59375 37.40625 
z
M 10.59375 25.296875 
L 73.1875 25.296875 
L 73.1875 17.484375 
L 10.59375 17.484375 
z
" id="DejaVuSerif-61"/>
       <path d="M 14.203125 0 
L 14.203125 5.171875 
L 26.90625 5.171875 
L 26.90625 65.828125 
L 12.203125 56.296875 
L 12.203125 62.703125 
L 29.984375 74.21875 
L 36.71875 74.21875 
L 36.71875 5.171875 
L 49.421875 5.171875 
L 49.421875 0 
z
" id="DejaVuSerif-49"/>
      </defs>
      <g transform="translate(118.388371 602.242799)scale(0.22 -0.22)">
       <use xlink:href="#DejaVuSerif-107"/>
       <use x="60.595703" xlink:href="#DejaVuSerif-61"/>
       <use x="144.384766" xlink:href="#DejaVuSerif-49"/>
      </g>
     </g>
    </g>
    <g id="xtick_2">
     <g id="line2d_2">
      <g>
       <use style="stroke:#000000;stroke-width:0.8;" x="260.841518" xlink:href="#m15e6397914" y="578.526236"/>
      </g>
     </g>
     <g id="text_2">
      <!-- k=2 -->
      <defs>
       <path d="M 12.796875 55.515625 
L 7.328125 55.515625 
L 7.328125 68.5 
Q 12.546875 71.296875 17.84375 72.75 
Q 23.140625 74.21875 28.21875 74.21875 
Q 39.59375 74.21875 46.1875 68.703125 
Q 52.78125 63.1875 52.78125 53.71875 
Q 52.78125 43.015625 37.84375 28.125 
Q 36.671875 27 36.078125 26.421875 
L 17.671875 8.015625 
L 48.09375 8.015625 
L 48.09375 17 
L 53.8125 17 
L 53.8125 0 
L 6.78125 0 
L 6.78125 5.328125 
L 28.90625 27.390625 
Q 36.234375 34.71875 39.359375 40.84375 
Q 42.484375 46.96875 42.484375 53.71875 
Q 42.484375 61.078125 38.640625 65.234375 
Q 34.8125 69.390625 28.078125 69.390625 
Q 21.09375 69.390625 17.28125 65.921875 
Q 13.484375 62.453125 12.796875 55.515625 
z
" id="DejaVuSerif-50"/>
      </defs>
      <g transform="translate(237.959799 602.242799)scale(0.22 -0.22)">
       <use xlink:href="#DejaVuSerif-107"/>
       <use x="60.595703" xlink:href="#DejaVuSerif-61"/>
       <use x="144.384766" xlink:href="#DejaVuSerif-50"/>
      </g>
     </g>
    </g>
    <g id="xtick_3">
     <g id="line2d_3">
      <g>
       <use style="stroke:#000000;stroke-width:0.8;" x="380.412946" xlink:href="#m15e6397914" y="578.526236"/>
      </g>
     </g>
     <g id="text_3">
      <!-- k=3 -->
      <defs>
       <path d="M 9.71875 69.828125 
Q 15.4375 71.96875 20.671875 73.09375 
Q 25.921875 74.21875 30.515625 74.21875 
Q 41.21875 74.21875 47.21875 69.59375 
Q 53.21875 64.984375 53.21875 56.78125 
Q 53.21875 50.203125 49.0625 45.78125 
Q 44.921875 41.359375 37.3125 39.796875 
Q 46.296875 38.53125 51.25 33.28125 
Q 56.203125 28.03125 56.203125 19.671875 
Q 56.203125 9.46875 49.34375 4.015625 
Q 42.484375 -1.421875 29.59375 -1.421875 
Q 23.875 -1.421875 18.421875 -0.1875 
Q 12.984375 1.03125 7.625 3.515625 
L 7.625 17.671875 
L 13.09375 17.671875 
Q 13.578125 10.640625 17.828125 7.03125 
Q 22.078125 3.421875 29.78125 3.421875 
Q 37.25 3.421875 41.578125 7.734375 
Q 45.90625 12.0625 45.90625 19.578125 
Q 45.90625 28.171875 41.453125 32.59375 
Q 37.015625 37.015625 28.421875 37.015625 
L 23.78125 37.015625 
L 23.78125 42 
L 26.21875 42 
Q 34.765625 42 39.03125 45.53125 
Q 43.3125 49.078125 43.3125 56.203125 
Q 43.3125 62.59375 39.796875 65.984375 
Q 36.28125 69.390625 29.6875 69.390625 
Q 23.09375 69.390625 19.453125 66.265625 
Q 15.828125 63.140625 15.1875 56.984375 
L 9.71875 56.984375 
z
" id="DejaVuSerif-51"/>
      </defs>
      <g transform="translate(357.531228 602.242799)scale(0.22 -0.22)">
       <use xlink:href="#DejaVuSerif-107"/>
       <use x="60.595703" xlink:href="#DejaVuSerif-61"/>
       <use x="144.384766" xlink:href="#DejaVuSerif-51"/>
      </g>
     </g>
    </g>
    <g id="xtick_4">
     <g id="line2d_4">
      <g>
       <use style="stroke:#000000;stroke-width:0.8;" x="499.984375" xlink:href="#m15e6397914" y="578.526236"/>
      </g>
     </g>
     <g id="text_4">
      <!-- k=4 -->
      <defs>
       <path d="M 34.90625 24.703125 
L 34.90625 63.484375 
L 10.015625 24.703125 
z
M 56.390625 0 
L 23.1875 0 
L 23.1875 5.171875 
L 34.90625 5.171875 
L 34.90625 19.484375 
L 3.078125 19.484375 
L 3.078125 24.8125 
L 35.015625 74.21875 
L 44.671875 74.21875 
L 44.671875 24.703125 
L 58.59375 24.703125 
L 58.59375 19.484375 
L 44.671875 19.484375 
L 44.671875 5.171875 
L 56.390625 5.171875 
z
" id="DejaVuSerif-52"/>
      </defs>
      <g transform="translate(477.102656 602.242799)scale(0.22 -0.22)">
       <use xlink:href="#DejaVuSerif-107"/>
       <use x="60.595703" xlink:href="#DejaVuSerif-61"/>
       <use x="144.384766" xlink:href="#DejaVuSerif-52"/>
      </g>
     </g>
    </g>
    <g id="xtick_5">
     <g id="line2d_5">
      <g>
       <use style="stroke:#000000;stroke-width:0.8;" x="619.555804" xlink:href="#m15e6397914" y="578.526236"/>
      </g>
     </g>
     <g id="text_5">
      <!-- k=5 -->
      <defs>
       <path d="M 50.296875 72.90625 
L 50.296875 64.890625 
L 16.890625 64.890625 
L 16.890625 44 
Q 19.4375 45.75 22.828125 46.625 
Q 26.21875 47.515625 30.421875 47.515625 
Q 42.234375 47.515625 49.0625 40.96875 
Q 55.90625 34.421875 55.90625 23.09375 
Q 55.90625 11.53125 49 5.046875 
Q 42.09375 -1.421875 29.59375 -1.421875 
Q 24.5625 -1.421875 19.28125 -0.1875 
Q 14.015625 1.03125 8.5 3.515625 
L 8.5 17.671875 
L 14.015625 17.671875 
Q 14.453125 10.75 18.421875 7.078125 
Q 22.40625 3.421875 29.59375 3.421875 
Q 37.3125 3.421875 41.453125 8.5 
Q 45.609375 13.578125 45.609375 23.09375 
Q 45.609375 32.5625 41.484375 37.609375 
Q 37.359375 42.671875 29.59375 42.671875 
Q 25.203125 42.671875 21.84375 41.109375 
Q 18.5 39.546875 15.921875 36.28125 
L 11.71875 36.28125 
L 11.71875 72.90625 
z
" id="DejaVuSerif-53"/>
      </defs>
      <g transform="translate(596.674085 602.242799)scale(0.22 -0.22)">
       <use xlink:href="#DejaVuSerif-107"/>
       <use x="60.595703" xlink:href="#DejaVuSerif-61"/>
       <use x="144.384766" xlink:href="#DejaVuSerif-53"/>
      </g>
     </g>
    </g>
    <g id="xtick_6">
     <g id="line2d_6">
      <g>
       <use style="stroke:#000000;stroke-width:0.8;" x="739.127232" xlink:href="#m15e6397914" y="578.526236"/>
      </g>
     </g>
     <g id="text_6">
      <!-- k=6 -->
      <defs>
       <path d="M 32.71875 3.421875 
Q 39.59375 3.421875 43.296875 8.46875 
Q 47.015625 13.53125 47.015625 23 
Q 47.015625 32.46875 43.296875 37.515625 
Q 39.59375 42.578125 32.71875 42.578125 
Q 25.734375 42.578125 22.0625 37.6875 
Q 18.40625 32.8125 18.40625 23.578125 
Q 18.40625 13.875 22.109375 8.640625 
Q 25.828125 3.421875 32.71875 3.421875 
z
M 16.796875 40.140625 
Q 20.125 43.796875 24.3125 45.59375 
Q 28.515625 47.40625 33.796875 47.40625 
Q 44.671875 47.40625 51 40.859375 
Q 57.328125 34.328125 57.328125 23 
Q 57.328125 11.921875 50.515625 5.25 
Q 43.703125 -1.421875 32.328125 -1.421875 
Q 19.96875 -1.421875 13.328125 7.78125 
Q 6.6875 17 6.6875 34.078125 
Q 6.6875 53.21875 14.546875 63.71875 
Q 22.40625 74.21875 36.71875 74.21875 
Q 40.578125 74.21875 44.828125 73.484375 
Q 49.078125 72.75 53.515625 71.296875 
L 53.515625 59.28125 
L 48 59.28125 
Q 47.40625 64.203125 44.234375 66.796875 
Q 41.0625 69.390625 35.6875 69.390625 
Q 26.21875 69.390625 21.578125 62.203125 
Q 16.9375 55.03125 16.796875 40.140625 
z
" id="DejaVuSerif-54"/>
      </defs>
      <g transform="translate(716.245513 602.242799)scale(0.22 -0.22)">
       <use xlink:href="#DejaVuSerif-107"/>
       <use x="60.595703" xlink:href="#DejaVuSerif-61"/>
       <use x="144.384766" xlink:href="#DejaVuSerif-54"/>
      </g>
     </g>
    </g>
    <g id="xtick_7">
     <g id="line2d_7">
      <g>
       <use style="stroke:#000000;stroke-width:0.8;" x="858.698661" xlink:href="#m15e6397914" y="578.526236"/>
      </g>
     </g>
     <g id="text_7">
      <!-- k=7 -->
      <defs>
       <path d="M 56.390625 67.921875 
L 27.875 0 
L 20.609375 0 
L 47.796875 64.890625 
L 14.109375 64.890625 
L 14.109375 55.90625 
L 8.40625 55.90625 
L 8.40625 72.90625 
L 56.390625 72.90625 
z
" id="DejaVuSerif-55"/>
      </defs>
      <g transform="translate(835.816942 602.242799)scale(0.22 -0.22)">
       <use xlink:href="#DejaVuSerif-107"/>
       <use x="60.595703" xlink:href="#DejaVuSerif-61"/>
       <use x="144.384766" xlink:href="#DejaVuSerif-55"/>
      </g>
     </g>
    </g>
    <g id="text_8">
     <!-- k-mer length -->
     <defs>
      <path d="M 4.390625 30.609375 
L 29.390625 30.609375 
L 29.390625 23 
L 4.390625 23 
z
" id="DejaVuSerif-45"/>
      <path d="M 51.8125 41.796875 
Q 54.390625 47.515625 58.421875 50.421875 
Q 62.453125 53.328125 67.828125 53.328125 
Q 75.984375 53.328125 79.984375 48.265625 
Q 83.984375 43.21875 83.984375 33.015625 
L 83.984375 5.171875 
L 92.09375 5.171875 
L 92.09375 0 
L 67.1875 0 
L 67.1875 5.171875 
L 75 5.171875 
L 75 31.984375 
Q 75 39.9375 72.65625 43.3125 
Q 70.3125 46.6875 64.890625 46.6875 
Q 58.890625 46.6875 55.734375 42.140625 
Q 52.59375 37.59375 52.59375 28.90625 
L 52.59375 5.171875 
L 60.40625 5.171875 
L 60.40625 0 
L 35.796875 0 
L 35.796875 5.171875 
L 43.609375 5.171875 
L 43.609375 32.328125 
Q 43.609375 40.09375 41.265625 43.390625 
Q 38.921875 46.6875 33.5 46.6875 
Q 27.484375 46.6875 24.328125 42.140625 
Q 21.1875 37.59375 21.1875 28.90625 
L 21.1875 5.171875 
L 29 5.171875 
L 29 0 
L 4.109375 0 
L 4.109375 5.171875 
L 12.203125 5.171875 
L 12.203125 46.78125 
L 3.609375 46.78125 
L 3.609375 51.90625 
L 21.1875 51.90625 
L 21.1875 42.671875 
Q 23.6875 47.859375 27.53125 50.59375 
Q 31.390625 53.328125 36.28125 53.328125 
Q 42.328125 53.328125 46.375 50.3125 
Q 50.4375 47.3125 51.8125 41.796875 
z
" id="DejaVuSerif-109"/>
      <path d="M 54.203125 25 
L 15.484375 25 
L 15.484375 24.609375 
Q 15.484375 14.109375 19.4375 8.765625 
Q 23.390625 3.421875 31.109375 3.421875 
Q 37.015625 3.421875 40.796875 6.515625 
Q 44.578125 9.625 46.09375 15.71875 
L 53.328125 15.71875 
Q 51.171875 7.171875 45.375 2.875 
Q 39.59375 -1.421875 30.171875 -1.421875 
Q 18.796875 -1.421875 11.890625 6.078125 
Q 4.984375 13.578125 4.984375 25.984375 
Q 4.984375 38.28125 11.765625 45.796875 
Q 18.5625 53.328125 29.59375 53.328125 
Q 41.359375 53.328125 47.65625 46.0625 
Q 53.953125 38.8125 54.203125 25 
z
M 43.609375 30.171875 
Q 43.3125 39.265625 39.765625 43.875 
Q 36.234375 48.484375 29.59375 48.484375 
Q 23.390625 48.484375 19.828125 43.84375 
Q 16.265625 39.203125 15.484375 30.171875 
z
" id="DejaVuSerif-101"/>
      <path d="M 47.796875 52 
L 47.796875 39.015625 
L 42.625 39.015625 
Q 42.390625 42.875 40.484375 44.78125 
Q 38.578125 46.6875 34.90625 46.6875 
Q 28.265625 46.6875 24.71875 42.09375 
Q 21.1875 37.5 21.1875 28.90625 
L 21.1875 5.171875 
L 31.59375 5.171875 
L 31.59375 0 
L 4.109375 0 
L 4.109375 5.171875 
L 12.203125 5.171875 
L 12.203125 46.78125 
L 3.609375 46.78125 
L 3.609375 51.90625 
L 21.1875 51.90625 
L 21.1875 42.671875 
Q 23.828125 48.09375 27.96875 50.703125 
Q 32.125 53.328125 38.09375 53.328125 
Q 40.28125 53.328125 42.703125 52.984375 
Q 45.125 52.640625 47.796875 52 
z
" id="DejaVuSerif-114"/>
      <path id="DejaVuSerif-32"/>
      <path d="M 20.515625 5.171875 
L 29 5.171875 
L 29 0 
L 2.875 0 
L 2.875 5.171875 
L 11.53125 5.171875 
L 11.53125 70.796875 
L 2.875 70.796875 
L 2.875 75.984375 
L 20.515625 75.984375 
z
" id="DejaVuSerif-108"/>
      <path d="M 4.109375 0 
L 4.109375 5.171875 
L 12.203125 5.171875 
L 12.203125 46.6875 
L 3.609375 46.6875 
L 3.609375 51.90625 
L 21.1875 51.90625 
L 21.1875 42.671875 
Q 23.6875 47.953125 27.65625 50.640625 
Q 31.640625 53.328125 36.921875 53.328125 
Q 45.515625 53.328125 49.5625 48.390625 
Q 53.609375 43.453125 53.609375 33.015625 
L 53.609375 5.171875 
L 61.625 5.171875 
L 61.625 0 
L 36.8125 0 
L 36.8125 5.171875 
L 44.578125 5.171875 
L 44.578125 30.171875 
Q 44.578125 39.703125 42.234375 43.234375 
Q 39.890625 46.78125 33.984375 46.78125 
Q 27.734375 46.78125 24.453125 42.203125 
Q 21.1875 37.640625 21.1875 28.90625 
L 21.1875 5.171875 
L 29 5.171875 
L 29 0 
z
" id="DejaVuSerif-110"/>
      <path d="M 52.484375 46.6875 
L 52.484375 1.125 
Q 52.484375 -10.0625 46.328125 -16.140625 
Q 40.1875 -22.21875 28.8125 -22.21875 
Q 23.6875 -22.21875 19 -21.28125 
Q 14.3125 -20.359375 10.015625 -18.5 
L 10.015625 -7.625 
L 14.703125 -7.625 
Q 15.578125 -12.703125 18.84375 -15.046875 
Q 22.125 -17.390625 28.21875 -17.390625 
Q 36.140625 -17.390625 39.8125 -12.921875 
Q 43.5 -8.453125 43.5 1.125 
L 43.5 8.109375 
Q 40.875 3.21875 36.796875 0.890625 
Q 32.71875 -1.421875 26.703125 -1.421875 
Q 17.140625 -1.421875 11.0625 6.171875 
Q 4.984375 13.765625 4.984375 25.984375 
Q 4.984375 38.1875 11.03125 45.75 
Q 17.09375 53.328125 26.703125 53.328125 
Q 32.71875 53.328125 36.796875 51 
Q 40.875 48.6875 43.5 43.796875 
L 43.5 51.90625 
L 61.078125 51.90625 
L 61.078125 46.6875 
z
M 43.5 28.515625 
Q 43.5 37.84375 39.90625 42.765625 
Q 36.328125 47.703125 29.5 47.703125 
Q 22.5625 47.703125 19.015625 42.234375 
Q 15.484375 36.765625 15.484375 25.984375 
Q 15.484375 15.234375 19.015625 9.71875 
Q 22.5625 4.203125 29.5 4.203125 
Q 36.328125 4.203125 39.90625 9.109375 
Q 43.5 14.015625 43.5 23.390625 
z
" id="DejaVuSerif-103"/>
      <path d="M 10.796875 46.6875 
L 2.875 46.6875 
L 2.875 51.90625 
L 10.796875 51.90625 
L 10.796875 68.015625 
L 19.828125 68.015625 
L 19.828125 51.90625 
L 36.71875 51.90625 
L 36.71875 46.6875 
L 19.828125 46.6875 
L 19.828125 13.71875 
Q 19.828125 7.125 21.09375 5.265625 
Q 22.359375 3.421875 25.78125 3.421875 
Q 29.296875 3.421875 30.90625 5.484375 
Q 32.515625 7.5625 32.625 12.203125 
L 39.40625 12.203125 
Q 39.015625 5.125 35.546875 1.84375 
Q 32.078125 -1.421875 25 -1.421875 
Q 17.234375 -1.421875 14.015625 2.015625 
Q 10.796875 5.46875 10.796875 13.71875 
z
" id="DejaVuSerif-116"/>
      <path d="M 4.109375 0 
L 4.109375 5.171875 
L 12.203125 5.171875 
L 12.203125 70.796875 
L 3.609375 70.796875 
L 3.609375 75.984375 
L 21.1875 75.984375 
L 21.1875 42.671875 
Q 23.6875 47.953125 27.65625 50.640625 
Q 31.640625 53.328125 36.921875 53.328125 
Q 45.515625 53.328125 49.5625 48.390625 
Q 53.609375 43.453125 53.609375 33.015625 
L 53.609375 5.171875 
L 61.625 5.171875 
L 61.625 0 
L 36.8125 0 
L 36.8125 5.171875 
L 44.578125 5.171875 
L 44.578125 30.171875 
Q 44.578125 39.703125 42.25 43.1875 
Q 39.9375 46.6875 33.984375 46.6875 
Q 27.734375 46.6875 24.453125 42.140625 
Q 21.1875 37.59375 21.1875 28.90625 
L 21.1875 5.171875 
L 29 5.171875 
L 29 0 
z
" id="DejaVuSerif-104"/>
     </defs>
     <g transform="translate(428.437969 627.534674)scale(0.22 -0.22)">
      <use xlink:href="#DejaVuSerif-107"/>
      <use x="58.845703" xlink:href="#DejaVuSerif-45"/>
      <use x="92.634766" xlink:href="#DejaVuSerif-109"/>
      <use x="187.458984" xlink:href="#DejaVuSerif-101"/>
      <use x="246.638672" xlink:href="#DejaVuSerif-114"/>
      <use x="294.441406" xlink:href="#DejaVuSerif-32"/>
      <use x="326.228516" xlink:href="#DejaVuSerif-108"/>
      <use x="358.210938" xlink:href="#DejaVuSerif-101"/>
      <use x="417.390625" xlink:href="#DejaVuSerif-110"/>
      <use x="481.794922" xlink:href="#DejaVuSerif-103"/>
      <use x="545.808594" xlink:href="#DejaVuSerif-116"/>
      <use x="585.994141" xlink:href="#DejaVuSerif-104"/>
     </g>
    </g>
   </g>
   <g id="matplotlib.axis_2">
    <g id="ytick_1">
     <g id="line2d_8">
      <defs>
       <path d="M 0 0 
L -3.5 0 
" id="md02ecc2e63" style="stroke:#000000;stroke-width:0.8;"/>
      </defs>
      <g>
       <use style="stroke:#000000;stroke-width:0.8;" x="81.484375" xlink:href="#md02ecc2e63" y="557.266737"/>
      </g>
     </g>
     <g id="text_9">
      <!-- 0 -->
      <defs>
       <path d="M 31.78125 3.421875 
Q 39.265625 3.421875 42.96875 11.625 
Q 46.6875 19.828125 46.6875 36.375 
Q 46.6875 52.984375 42.96875 61.1875 
Q 39.265625 69.390625 31.78125 69.390625 
Q 24.3125 69.390625 20.59375 61.1875 
Q 16.890625 52.984375 16.890625 36.375 
Q 16.890625 19.828125 20.59375 11.625 
Q 24.3125 3.421875 31.78125 3.421875 
z
M 31.78125 -1.421875 
Q 19.921875 -1.421875 13.25 8.53125 
Q 6.59375 18.5 6.59375 36.375 
Q 6.59375 54.296875 13.25 64.25 
Q 19.921875 74.21875 31.78125 74.21875 
Q 43.703125 74.21875 50.34375 64.25 
Q 56.984375 54.296875 56.984375 36.375 
Q 56.984375 18.5 50.34375 8.53125 
Q 43.703125 -1.421875 31.78125 -1.421875 
z
" id="DejaVuSerif-48"/>
      </defs>
      <g transform="translate(60.486875 565.625018)scale(0.22 -0.22)">
       <use xlink:href="#DejaVuSerif-48"/>
      </g>
     </g>
    </g>
    <g id="ytick_2">
     <g id="line2d_9">
      <g>
       <use style="stroke:#000000;stroke-width:0.8;" x="81.484375" xlink:href="#md02ecc2e63" y="448.925046"/>
      </g>
     </g>
     <g id="text_10">
      <!-- 20 -->
      <g transform="translate(46.489375 457.283327)scale(0.22 -0.22)">
       <use xlink:href="#DejaVuSerif-50"/>
       <use x="63.623047" xlink:href="#DejaVuSerif-48"/>
      </g>
     </g>
    </g>
    <g id="ytick_3">
     <g id="line2d_10">
      <g>
       <use style="stroke:#000000;stroke-width:0.8;" x="81.484375" xlink:href="#md02ecc2e63" y="340.583355"/>
      </g>
     </g>
     <g id="text_11">
      <!-- 40 -->
      <g transform="translate(46.489375 348.941636)scale(0.22 -0.22)">
       <use xlink:href="#DejaVuSerif-52"/>
       <use x="63.623047" xlink:href="#DejaVuSerif-48"/>
      </g>
     </g>
    </g>
    <g id="ytick_4">
     <g id="line2d_11">
      <g>
       <use style="stroke:#000000;stroke-width:0.8;" x="81.484375" xlink:href="#md02ecc2e63" y="232.241664"/>
      </g>
     </g>
     <g id="text_12">
      <!-- 60 -->
      <g transform="translate(46.489375 240.599945)scale(0.22 -0.22)">
       <use xlink:href="#DejaVuSerif-54"/>
       <use x="63.623047" xlink:href="#DejaVuSerif-48"/>
      </g>
     </g>
    </g>
    <g id="ytick_5">
     <g id="line2d_12">
      <g>
       <use style="stroke:#000000;stroke-width:0.8;" x="81.484375" xlink:href="#md02ecc2e63" y="123.899972"/>
      </g>
     </g>
     <g id="text_13">
      <!-- 80 -->
      <defs>
       <path d="M 46.578125 19.921875 
Q 46.578125 27.734375 42.6875 32.046875 
Q 38.8125 36.375 31.78125 36.375 
Q 24.75 36.375 20.875 32.046875 
Q 17 27.734375 17 19.921875 
Q 17 12.0625 20.875 7.734375 
Q 24.75 3.421875 31.78125 3.421875 
Q 38.8125 3.421875 42.6875 7.734375 
Q 46.578125 12.0625 46.578125 19.921875 
z
M 44.578125 55.328125 
Q 44.578125 61.96875 41.203125 65.671875 
Q 37.84375 69.390625 31.78125 69.390625 
Q 25.78125 69.390625 22.390625 65.671875 
Q 19 61.96875 19 55.328125 
Q 19 48.640625 22.390625 44.921875 
Q 25.78125 41.21875 31.78125 41.21875 
Q 37.84375 41.21875 41.203125 44.921875 
Q 44.578125 48.640625 44.578125 55.328125 
z
M 39.3125 38.8125 
Q 47.609375 37.703125 52.25 32.6875 
Q 56.890625 27.6875 56.890625 19.921875 
Q 56.890625 9.671875 50.390625 4.125 
Q 43.890625 -1.421875 31.78125 -1.421875 
Q 19.734375 -1.421875 13.203125 4.125 
Q 6.6875 9.671875 6.6875 19.921875 
Q 6.6875 27.6875 11.328125 32.6875 
Q 15.96875 37.703125 24.3125 38.8125 
Q 16.9375 40.140625 13 44.40625 
Q 9.078125 48.6875 9.078125 55.328125 
Q 9.078125 64.109375 15.125 69.15625 
Q 21.1875 74.21875 31.78125 74.21875 
Q 42.390625 74.21875 48.4375 69.15625 
Q 54.5 64.109375 54.5 55.328125 
Q 54.5 48.6875 50.5625 44.40625 
Q 46.625 40.140625 39.3125 38.8125 
z
" id="DejaVuSerif-56"/>
      </defs>
      <g transform="translate(46.489375 132.258254)scale(0.22 -0.22)">
       <use xlink:href="#DejaVuSerif-56"/>
       <use x="63.623047" xlink:href="#DejaVuSerif-48"/>
      </g>
     </g>
    </g>
    <g id="ytick_6">
     <g id="line2d_13">
      <g>
       <use style="stroke:#000000;stroke-width:0.8;" x="81.484375" xlink:href="#md02ecc2e63" y="15.558281"/>
      </g>
     </g>
     <g id="text_14">
      <!-- 100 -->
      <g transform="translate(32.491875 23.916562)scale(0.22 -0.22)">
       <use xlink:href="#DejaVuSerif-49"/>
       <use x="63.623047" xlink:href="#DejaVuSerif-48"/>
       <use x="127.246094" xlink:href="#DejaVuSerif-48"/>
      </g>
     </g>
    </g>
    <g id="text_15">
     <!-- f1 score (%) -->
     <defs>
      <path d="M 43.015625 63.71875 
L 38.28125 63.71875 
Q 38.234375 67.390625 36.203125 69.28125 
Q 34.1875 71.1875 30.328125 71.1875 
Q 25.296875 71.1875 23.234375 68.421875 
Q 21.1875 65.671875 21.1875 58.59375 
L 21.1875 51.90625 
L 35.6875 51.90625 
L 35.6875 46.6875 
L 21.1875 46.6875 
L 21.1875 5.171875 
L 32.71875 5.171875 
L 32.71875 0 
L 3.609375 0 
L 3.609375 5.171875 
L 12.203125 5.171875 
L 12.203125 46.6875 
L 3.609375 46.6875 
L 3.609375 51.90625 
L 12.203125 51.90625 
L 12.203125 58.40625 
Q 12.203125 67.09375 16.71875 71.53125 
Q 21.234375 75.984375 29.984375 75.984375 
Q 33.25 75.984375 36.515625 75.390625 
Q 39.796875 74.8125 43.015625 73.578125 
z
" id="DejaVuSerif-102"/>
      <path d="M 5.609375 2.875 
L 5.609375 14.984375 
L 10.796875 14.984375 
Q 10.984375 9.1875 14.421875 6.296875 
Q 17.875 3.421875 24.609375 3.421875 
Q 30.671875 3.421875 33.84375 5.6875 
Q 37.015625 7.953125 37.015625 12.3125 
Q 37.015625 15.71875 34.6875 17.8125 
Q 32.375 19.921875 24.90625 22.3125 
L 18.40625 24.515625 
Q 11.71875 26.65625 8.71875 29.875 
Q 5.71875 33.109375 5.71875 38.09375 
Q 5.71875 45.21875 10.9375 49.265625 
Q 16.15625 53.328125 25.390625 53.328125 
Q 29.5 53.328125 34.03125 52.25 
Q 38.578125 51.171875 43.40625 49.125 
L 43.40625 37.796875 
L 38.234375 37.796875 
Q 38.03125 42.828125 34.703125 45.65625 
Q 31.390625 48.484375 25.6875 48.484375 
Q 20.015625 48.484375 17.109375 46.484375 
Q 14.203125 44.484375 14.203125 40.484375 
Q 14.203125 37.203125 16.40625 35.21875 
Q 18.609375 33.25 25.203125 31.203125 
L 32.328125 29 
Q 39.703125 26.703125 42.9375 23.265625 
Q 46.1875 19.828125 46.1875 14.40625 
Q 46.1875 7.03125 40.546875 2.796875 
Q 34.90625 -1.421875 25 -1.421875 
Q 19.96875 -1.421875 15.1875 -0.34375 
Q 10.40625 0.734375 5.609375 2.875 
z
" id="DejaVuSerif-115"/>
      <path d="M 51.421875 15.578125 
Q 49.515625 7.28125 44.09375 2.921875 
Q 38.671875 -1.421875 30.078125 -1.421875 
Q 18.75 -1.421875 11.859375 6.078125 
Q 4.984375 13.578125 4.984375 25.984375 
Q 4.984375 38.421875 11.859375 45.875 
Q 18.75 53.328125 30.078125 53.328125 
Q 35.015625 53.328125 39.890625 52.171875 
Q 44.78125 51.03125 49.703125 48.6875 
L 49.703125 35.40625 
L 44.484375 35.40625 
Q 43.453125 42.234375 40.015625 45.359375 
Q 36.578125 48.484375 30.171875 48.484375 
Q 22.90625 48.484375 19.1875 42.84375 
Q 15.484375 37.203125 15.484375 25.984375 
Q 15.484375 14.75 19.171875 9.078125 
Q 22.859375 3.421875 30.171875 3.421875 
Q 35.984375 3.421875 39.453125 6.4375 
Q 42.921875 9.46875 44.1875 15.578125 
z
" id="DejaVuSerif-99"/>
      <path d="M 30.078125 3.421875 
Q 37.3125 3.421875 40.984375 9.125 
Q 44.671875 14.84375 44.671875 25.984375 
Q 44.671875 37.109375 40.984375 42.796875 
Q 37.3125 48.484375 30.078125 48.484375 
Q 22.859375 48.484375 19.171875 42.796875 
Q 15.484375 37.109375 15.484375 25.984375 
Q 15.484375 14.84375 19.1875 9.125 
Q 22.90625 3.421875 30.078125 3.421875 
z
M 30.078125 -1.421875 
Q 18.75 -1.421875 11.859375 6.078125 
Q 4.984375 13.578125 4.984375 25.984375 
Q 4.984375 38.375 11.84375 45.84375 
Q 18.703125 53.328125 30.078125 53.328125 
Q 41.453125 53.328125 48.3125 45.84375 
Q 55.171875 38.375 55.171875 25.984375 
Q 55.171875 13.578125 48.3125 6.078125 
Q 41.453125 -1.421875 30.078125 -1.421875 
z
" id="DejaVuSerif-111"/>
      <path d="M 31.890625 -15.578125 
Q 20.015625 -10.25 13.953125 1.296875 
Q 7.90625 12.84375 7.90625 30.171875 
Q 7.90625 47.5625 13.953125 59.109375 
Q 20.015625 70.65625 31.890625 75.984375 
L 31.890625 71.1875 
Q 24.359375 66.015625 21.09375 56.609375 
Q 17.828125 47.21875 17.828125 30.171875 
Q 17.828125 13.1875 21.09375 3.78125 
Q 24.359375 -5.609375 31.890625 -10.796875 
z
" id="DejaVuSerif-40"/>
      <path d="M 22.40625 69.671875 
Q 18.109375 69.671875 15.6875 65.625 
Q 13.28125 61.578125 13.28125 54.296875 
Q 13.28125 47.125 15.75 43.015625 
Q 18.21875 38.921875 22.40625 38.921875 
Q 26.5625 38.921875 28.96875 43 
Q 31.390625 47.078125 31.390625 54.296875 
Q 31.390625 61.53125 28.96875 65.59375 
Q 26.5625 69.671875 22.40625 69.671875 
z
M 72.703125 33.890625 
Q 68.453125 33.890625 66.03125 29.78125 
Q 63.625 25.6875 63.625 18.40625 
Q 63.625 11.234375 66.0625 7.15625 
Q 68.5 3.078125 72.703125 3.078125 
Q 76.90625 3.078125 79.296875 7.15625 
Q 81.6875 11.234375 81.6875 18.40625 
Q 81.6875 25.640625 79.265625 29.765625 
Q 76.859375 33.890625 72.703125 33.890625 
z
M 72.703125 38.28125 
Q 80.421875 38.28125 84.953125 32.90625 
Q 89.5 27.546875 89.5 18.40625 
Q 89.5 9.28125 84.9375 3.921875 
Q 80.375 -1.421875 72.703125 -1.421875 
Q 64.890625 -1.421875 60.34375 3.921875 
Q 55.8125 9.28125 55.8125 18.40625 
Q 55.8125 27.59375 60.375 32.9375 
Q 64.9375 38.28125 72.703125 38.28125 
z
M 66.609375 74.21875 
L 74.03125 74.21875 
L 28.421875 -1.421875 
L 21 -1.421875 
z
M 22.3125 74.21875 
Q 30.03125 74.21875 34.609375 68.875 
Q 39.203125 63.53125 39.203125 54.390625 
Q 39.203125 45.171875 34.640625 39.84375 
Q 30.078125 34.515625 22.3125 34.515625 
Q 14.546875 34.515625 10.03125 39.859375 
Q 5.515625 45.21875 5.515625 54.390625 
Q 5.515625 63.484375 10.046875 68.84375 
Q 14.59375 74.21875 22.3125 74.21875 
z
" id="DejaVuSerif-37"/>
      <path d="M 7.078125 -15.578125 
L 7.078125 -10.796875 
Q 14.59375 -5.609375 17.890625 3.78125 
Q 21.1875 13.1875 21.1875 30.171875 
Q 21.1875 47.21875 17.890625 56.609375 
Q 14.59375 66.015625 7.078125 71.1875 
L 7.078125 75.984375 
Q 19 70.65625 25.046875 59.109375 
Q 31.109375 47.5625 31.109375 30.171875 
Q 31.109375 12.84375 25.046875 1.296875 
Q 19 -10.25 7.078125 -15.578125 
z
" id="DejaVuSerif-41"/>
     </defs>
     <g transform="translate(23.916562 360.428736)rotate(-90)scale(0.22 -0.22)">
      <use xlink:href="#DejaVuSerif-102"/>
      <use x="37.011719" xlink:href="#DejaVuSerif-49"/>
      <use x="100.634766" xlink:href="#DejaVuSerif-32"/>
      <use x="132.421875" xlink:href="#DejaVuSerif-115"/>
      <use x="183.740234" xlink:href="#DejaVuSerif-99"/>
      <use x="239.746094" xlink:href="#DejaVuSerif-111"/>
      <use x="299.951172" xlink:href="#DejaVuSerif-114"/>
      <use x="347.753906" xlink:href="#DejaVuSerif-101"/>
      <use x="406.933594" xlink:href="#DejaVuSerif-32"/>
      <use x="438.720703" xlink:href="#DejaVuSerif-40"/>
      <use x="477.734375" xlink:href="#DejaVuSerif-37"/>
      <use x="572.753906" xlink:href="#DejaVuSerif-41"/>
     </g>
    </g>
   </g>
   <g id="line2d_14">
    <path clip-path="url(#p8f77c4e6e7)" d="M 141.270089 352.253403 
L 260.841518 234.942889 
L 380.412946 174.056403 
L 499.984375 143.557033 
L 619.555804 125.918949 
L 739.127232 118.408029 
L 858.698661 109.126001 
" style="fill:none;stroke:#a9a9a9;stroke-linecap:square;stroke-width:1.5;"/>
    <defs>
     <path d="M 0 3 
C 0.795609 3 1.55874 2.683901 2.12132 2.12132 
C 2.683901 1.55874 3 0.795609 3 0 
C 3 -0.795609 2.683901 -1.55874 2.12132 -2.12132 
C 1.55874 -2.683901 0.795609 -3 0 -3 
C -0.795609 -3 -1.55874 -2.683901 -2.12132 -2.12132 
C -2.683901 -1.55874 -3 -0.795609 -3 0 
C -3 0.795609 -2.683901 1.55874 -2.12132 2.12132 
C -1.55874 2.683901 -0.795609 3 0 3 
z
" id="m3369d75e30" style="stroke:#a9a9a9;"/>
    </defs>
    <g clip-path="url(#p8f77c4e6e7)">
     <use style="fill:#a9a9a9;stroke:#a9a9a9;" x="141.270089" xlink:href="#m3369d75e30" y="352.253403"/>
     <use style="fill:#a9a9a9;stroke:#a9a9a9;" x="260.841518" xlink:href="#m3369d75e30" y="234.942889"/>
     <use style="fill:#a9a9a9;stroke:#a9a9a9;" x="380.412946" xlink:href="#m3369d75e30" y="174.056403"/>
     <use style="fill:#a9a9a9;stroke:#a9a9a9;" x="499.984375" xlink:href="#m3369d75e30" y="143.557033"/>
     <use style="fill:#a9a9a9;stroke:#a9a9a9;" x="619.555804" xlink:href="#m3369d75e30" y="125.918949"/>
     <use style="fill:#a9a9a9;stroke:#a9a9a9;" x="739.127232" xlink:href="#m3369d75e30" y="118.408029"/>
     <use style="fill:#a9a9a9;stroke:#a9a9a9;" x="858.698661" xlink:href="#m3369d75e30" y="109.126001"/>
    </g>
   </g>
   <g id="line2d_15">
    <path clip-path="url(#p8f77c4e6e7)" d="M 141.270089 454.002918 
L 260.841518 187.520672 
L 380.412946 104.067152 
L 499.984375 85.07872 
L 619.555804 81.574971 
L 739.127232 83.571008 
L 858.698661 88.516423 
" style="fill:none;stroke:#808080;stroke-dasharray:4.5,1.5,1.5,1.5,1.5,1.5;stroke-dashoffset:0;stroke-width:1.5;"/>
    <defs>
     <path d="M -1.5 3 
L 0 1.5 
L 1.5 3 
L 3 1.5 
L 1.5 0 
L 3 -1.5 
L 1.5 -3 
L 0 -1.5 
L -1.5 -3 
L -3 -1.5 
L -1.5 0 
L -3 1.5 
z
" id="m78c81374ff" style="stroke:#808080;stroke-linejoin:miter;"/>
    </defs>
    <g clip-path="url(#p8f77c4e6e7)">
     <use style="fill:#808080;stroke:#808080;stroke-linejoin:miter;" x="141.270089" xlink:href="#m78c81374ff" y="454.002918"/>
     <use style="fill:#808080;stroke:#808080;stroke-linejoin:miter;" x="260.841518" xlink:href="#m78c81374ff" y="187.520672"/>
     <use style="fill:#808080;stroke:#808080;stroke-linejoin:miter;" x="380.412946" xlink:href="#m78c81374ff" y="104.067152"/>
     <use style="fill:#808080;stroke:#808080;stroke-linejoin:miter;" x="499.984375" xlink:href="#m78c81374ff" y="85.07872"/>
     <use style="fill:#808080;stroke:#808080;stroke-linejoin:miter;" x="619.555804" xlink:href="#m78c81374ff" y="81.574971"/>
     <use style="fill:#808080;stroke:#808080;stroke-linejoin:miter;" x="739.127232" xlink:href="#m78c81374ff" y="83.571008"/>
     <use style="fill:#808080;stroke:#808080;stroke-linejoin:miter;" x="858.698661" xlink:href="#m78c81374ff" y="88.516423"/>
    </g>
   </g>
   <g id="line2d_16">
    <path clip-path="url(#p8f77c4e6e7)" d="M 141.270089 544.137172 
L 260.841518 543.91146 
L 380.412946 511.87769 
L 499.984375 358.034512 
L 619.555804 164.813695 
L 739.127232 126.222316 
L 858.698661 186.956532 
" style="fill:none;stroke:#d3d3d3;stroke-dasharray:1.5,1.5;stroke-dashoffset:0;stroke-width:1.5;"/>
    <defs>
     <path d="M -3 3 
L 3 3 
L 3 -3 
L -3 -3 
z
" id="m801d04de45" style="stroke:#d3d3d3;stroke-linejoin:miter;"/>
    </defs>
    <g clip-path="url(#p8f77c4e6e7)">
     <use style="fill:#d3d3d3;stroke:#d3d3d3;stroke-linejoin:miter;" x="141.270089" xlink:href="#m801d04de45" y="544.137172"/>
     <use style="fill:#d3d3d3;stroke:#d3d3d3;stroke-linejoin:miter;" x="260.841518" xlink:href="#m801d04de45" y="543.91146"/>
     <use style="fill:#d3d3d3;stroke:#d3d3d3;stroke-linejoin:miter;" x="380.412946" xlink:href="#m801d04de45" y="511.87769"/>
     <use style="fill:#d3d3d3;stroke:#d3d3d3;stroke-linejoin:miter;" x="499.984375" xlink:href="#m801d04de45" y="358.034512"/>
     <use style="fill:#d3d3d3;stroke:#d3d3d3;stroke-linejoin:miter;" x="619.555804" xlink:href="#m801d04de45" y="164.813695"/>
     <use style="fill:#d3d3d3;stroke:#d3d3d3;stroke-linejoin:miter;" x="739.127232" xlink:href="#m801d04de45" y="126.222316"/>
     <use style="fill:#d3d3d3;stroke:#d3d3d3;stroke-linejoin:miter;" x="858.698661" xlink:href="#m801d04de45" y="186.956532"/>
    </g>
   </g>
   <g id="line2d_17">
    <path clip-path="url(#p8f77c4e6e7)" d="M 109.384375 374.240199 
L 109.384375 463.565815 
" style="fill:none;stroke:#313131;stroke-linecap:square;stroke-width:1.5;"/>
   </g>
   <g id="line2d_18">
    <path clip-path="url(#p8f77c4e6e7)" d="M 109.384375 313.331351 
L 109.384375 287.54579 
" style="fill:none;stroke:#313131;stroke-linecap:square;stroke-width:1.5;"/>
   </g>
   <g id="line2d_19">
    <path clip-path="url(#p8f77c4e6e7)" d="M 101.572375 463.565815 
L 117.196375 463.565815 
" style="fill:none;stroke:#313131;stroke-linecap:square;stroke-width:1.5;"/>
   </g>
   <g id="line2d_20">
    <path clip-path="url(#p8f77c4e6e7)" d="M 101.572375 287.54579 
L 117.196375 287.54579 
" style="fill:none;stroke:#313131;stroke-linecap:square;stroke-width:1.5;"/>
   </g>
   <g id="line2d_21"/>
   <g id="line2d_22">
    <path clip-path="url(#p8f77c4e6e7)" d="M 141.270089 474.496896 
L 141.270089 521.543261 
" style="fill:none;stroke:#313131;stroke-linecap:square;stroke-width:1.5;"/>
   </g>
   <g id="line2d_23">
    <path clip-path="url(#p8f77c4e6e7)" d="M 141.270089 416.546678 
L 141.270089 403.140482 
" style="fill:none;stroke:#313131;stroke-linecap:square;stroke-width:1.5;"/>
   </g>
   <g id="line2d_24">
    <path clip-path="url(#p8f77c4e6e7)" d="M 133.458089 521.543261 
L 149.082089 521.543261 
" style="fill:none;stroke:#313131;stroke-linecap:square;stroke-width:1.5;"/>
   </g>
   <g id="line2d_25">
    <path clip-path="url(#p8f77c4e6e7)" d="M 133.458089 403.140482 
L 149.082089 403.140482 
" style="fill:none;stroke:#313131;stroke-linecap:square;stroke-width:1.5;"/>
   </g>
   <g id="line2d_26"/>
   <g id="line2d_27">
    <path clip-path="url(#p8f77c4e6e7)" d="M 173.155804 547.663624 
L 173.155804 552.581691 
" style="fill:none;stroke:#313131;stroke-linecap:square;stroke-width:1.5;"/>
   </g>
   <g id="line2d_28">
    <path clip-path="url(#p8f77c4e6e7)" d="M 173.155804 540.10718 
L 173.155804 536.95267 
" style="fill:none;stroke:#313131;stroke-linecap:square;stroke-width:1.5;"/>
   </g>
   <g id="line2d_29">
    <path clip-path="url(#p8f77c4e6e7)" d="M 165.343804 552.581691 
L 180.967804 552.581691 
" style="fill:none;stroke:#313131;stroke-linecap:square;stroke-width:1.5;"/>
   </g>
   <g id="line2d_30">
    <path clip-path="url(#p8f77c4e6e7)" d="M 165.343804 536.95267 
L 180.967804 536.95267 
" style="fill:none;stroke:#313131;stroke-linecap:square;stroke-width:1.5;"/>
   </g>
   <g id="line2d_31"/>
   <g id="line2d_32">
    <path clip-path="url(#p8f77c4e6e7)" d="M 228.955804 242.197922 
L 228.955804 300.444204 
" style="fill:none;stroke:#313131;stroke-linecap:square;stroke-width:1.5;"/>
   </g>
   <g id="line2d_33">
    <path clip-path="url(#p8f77c4e6e7)" d="M 228.955804 196.937297 
L 228.955804 147.018911 
" style="fill:none;stroke:#313131;stroke-linecap:square;stroke-width:1.5;"/>
   </g>
   <g id="line2d_34">
    <path clip-path="url(#p8f77c4e6e7)" d="M 221.143804 300.444204 
L 236.767804 300.444204 
" style="fill:none;stroke:#313131;stroke-linecap:square;stroke-width:1.5;"/>
   </g>
   <g id="line2d_35">
    <path clip-path="url(#p8f77c4e6e7)" d="M 221.143804 147.018911 
L 236.767804 147.018911 
" style="fill:none;stroke:#313131;stroke-linecap:square;stroke-width:1.5;"/>
   </g>
   <g id="line2d_36">
    <defs>
     <path d="M -0 3.535534 
L 2.12132 0 
L -0 -3.535534 
L -2.12132 -0 
z
" id="m409602533d" style="stroke:#313131;stroke-linejoin:miter;"/>
    </defs>
    <g clip-path="url(#p8f77c4e6e7)">
     <use style="fill:#313131;stroke:#313131;stroke-linejoin:miter;" x="228.955804" xlink:href="#m409602533d" y="399.146431"/>
    </g>
   </g>
   <g id="line2d_37">
    <path clip-path="url(#p8f77c4e6e7)" d="M 260.841518 196.229829 
L 260.841518 275.782437 
" style="fill:none;stroke:#313131;stroke-linecap:square;stroke-width:1.5;"/>
   </g>
   <g id="line2d_38">
    <path clip-path="url(#p8f77c4e6e7)" d="M 260.841518 124.371874 
L 260.841518 108.100142 
" style="fill:none;stroke:#313131;stroke-linecap:square;stroke-width:1.5;"/>
   </g>
   <g id="line2d_39">
    <path clip-path="url(#p8f77c4e6e7)" d="M 253.029518 275.782437 
L 268.653518 275.782437 
" style="fill:none;stroke:#313131;stroke-linecap:square;stroke-width:1.5;"/>
   </g>
   <g id="line2d_40">
    <path clip-path="url(#p8f77c4e6e7)" d="M 253.029518 108.100142 
L 268.653518 108.100142 
" style="fill:none;stroke:#313131;stroke-linecap:square;stroke-width:1.5;"/>
   </g>
   <g id="line2d_41">
    <g clip-path="url(#p8f77c4e6e7)">
     <use style="fill:#313131;stroke:#313131;stroke-linejoin:miter;" x="260.841518" xlink:href="#m409602533d" y="386.848185"/>
    </g>
   </g>
   <g id="line2d_42">
    <path clip-path="url(#p8f77c4e6e7)" d="M 292.727232 547.663624 
L 292.727232 552.581691 
" style="fill:none;stroke:#313131;stroke-linecap:square;stroke-width:1.5;"/>
   </g>
   <g id="line2d_43">
    <path clip-path="url(#p8f77c4e6e7)" d="M 292.727232 540.10718 
L 292.727232 534.695551 
" style="fill:none;stroke:#313131;stroke-linecap:square;stroke-width:1.5;"/>
   </g>
   <g id="line2d_44">
    <path clip-path="url(#p8f77c4e6e7)" d="M 284.915232 552.581691 
L 300.539232 552.581691 
" style="fill:none;stroke:#313131;stroke-linecap:square;stroke-width:1.5;"/>
   </g>
   <g id="line2d_45">
    <path clip-path="url(#p8f77c4e6e7)" d="M 284.915232 534.695551 
L 300.539232 534.695551 
" style="fill:none;stroke:#313131;stroke-linecap:square;stroke-width:1.5;"/>
   </g>
   <g id="line2d_46"/>
   <g id="line2d_47">
    <path clip-path="url(#p8f77c4e6e7)" d="M 348.527232 177.632763 
L 348.527232 178.172452 
" style="fill:none;stroke:#313131;stroke-linecap:square;stroke-width:1.5;"/>
   </g>
   <g id="line2d_48">
    <path clip-path="url(#p8f77c4e6e7)" d="M 348.527232 130.265323 
L 348.527232 88.088284 
" style="fill:none;stroke:#313131;stroke-linecap:square;stroke-width:1.5;"/>
   </g>
   <g id="line2d_49">
    <path clip-path="url(#p8f77c4e6e7)" d="M 340.715232 178.172452 
L 356.339232 178.172452 
" style="fill:none;stroke:#313131;stroke-linecap:square;stroke-width:1.5;"/>
   </g>
   <g id="line2d_50">
    <path clip-path="url(#p8f77c4e6e7)" d="M 340.715232 88.088284 
L 356.339232 88.088284 
" style="fill:none;stroke:#313131;stroke-linecap:square;stroke-width:1.5;"/>
   </g>
   <g id="line2d_51">
    <g clip-path="url(#p8f77c4e6e7)">
     <use style="fill:#313131;stroke:#313131;stroke-linejoin:miter;" x="348.527232" xlink:href="#m409602533d" y="252.821482"/>
     <use style="fill:#313131;stroke:#313131;stroke-linejoin:miter;" x="348.527232" xlink:href="#m409602533d" y="368.693631"/>
    </g>
   </g>
   <g id="line2d_52">
    <path clip-path="url(#p8f77c4e6e7)" d="M 380.412946 104.922101 
L 380.412946 150.772794 
" style="fill:none;stroke:#313131;stroke-linecap:square;stroke-width:1.5;"/>
   </g>
   <g id="line2d_53">
    <path clip-path="url(#p8f77c4e6e7)" d="M 380.412946 59.455978 
L 380.412946 56.356408 
" style="fill:none;stroke:#313131;stroke-linecap:square;stroke-width:1.5;"/>
   </g>
   <g id="line2d_54">
    <path clip-path="url(#p8f77c4e6e7)" d="M 372.600946 150.772794 
L 388.224946 150.772794 
" style="fill:none;stroke:#313131;stroke-linecap:square;stroke-width:1.5;"/>
   </g>
   <g id="line2d_55">
    <path clip-path="url(#p8f77c4e6e7)" d="M 372.600946 56.356408 
L 388.224946 56.356408 
" style="fill:none;stroke:#313131;stroke-linecap:square;stroke-width:1.5;"/>
   </g>
   <g id="line2d_56">
    <g clip-path="url(#p8f77c4e6e7)">
     <use style="fill:#313131;stroke:#313131;stroke-linejoin:miter;" x="380.412946" xlink:href="#m409602533d" y="296.661048"/>
    </g>
   </g>
   <g id="line2d_57">
    <path clip-path="url(#p8f77c4e6e7)" d="M 412.298661 524.113516 
L 412.298661 540.283445 
" style="fill:none;stroke:#313131;stroke-linecap:square;stroke-width:1.5;"/>
   </g>
   <g id="line2d_58">
    <path clip-path="url(#p8f77c4e6e7)" d="M 412.298661 499.416338 
L 412.298661 491.536422 
" style="fill:none;stroke:#313131;stroke-linecap:square;stroke-width:1.5;"/>
   </g>
   <g id="line2d_59">
    <path clip-path="url(#p8f77c4e6e7)" d="M 404.486661 540.283445 
L 420.110661 540.283445 
" style="fill:none;stroke:#313131;stroke-linecap:square;stroke-width:1.5;"/>
   </g>
   <g id="line2d_60">
    <path clip-path="url(#p8f77c4e6e7)" d="M 404.486661 491.536422 
L 420.110661 491.536422 
" style="fill:none;stroke:#313131;stroke-linecap:square;stroke-width:1.5;"/>
   </g>
   <g id="line2d_61"/>
   <g id="line2d_62">
    <path clip-path="url(#p8f77c4e6e7)" d="M 468.098661 150.924929 
L 468.098661 206.049167 
" style="fill:none;stroke:#313131;stroke-linecap:square;stroke-width:1.5;"/>
   </g>
   <g id="line2d_63">
    <path clip-path="url(#p8f77c4e6e7)" d="M 468.098661 96.561903 
L 468.098661 74.488908 
" style="fill:none;stroke:#313131;stroke-linecap:square;stroke-width:1.5;"/>
   </g>
   <g id="line2d_64">
    <path clip-path="url(#p8f77c4e6e7)" d="M 460.286661 206.049167 
L 475.910661 206.049167 
" style="fill:none;stroke:#313131;stroke-linecap:square;stroke-width:1.5;"/>
   </g>
   <g id="line2d_65">
    <path clip-path="url(#p8f77c4e6e7)" d="M 460.286661 74.488908 
L 475.910661 74.488908 
" style="fill:none;stroke:#313131;stroke-linecap:square;stroke-width:1.5;"/>
   </g>
   <g id="line2d_66">
    <g clip-path="url(#p8f77c4e6e7)">
     <use style="fill:#313131;stroke:#313131;stroke-linejoin:miter;" x="468.098661" xlink:href="#m409602533d" y="342.340247"/>
    </g>
   </g>
   <g id="line2d_67">
    <path clip-path="url(#p8f77c4e6e7)" d="M 499.984375 84.530361 
L 499.984375 110.803724 
" style="fill:none;stroke:#313131;stroke-linecap:square;stroke-width:1.5;"/>
   </g>
   <g id="line2d_68">
    <path clip-path="url(#p8f77c4e6e7)" d="M 499.984375 47.010738 
L 499.984375 38.223907 
" style="fill:none;stroke:#313131;stroke-linecap:square;stroke-width:1.5;"/>
   </g>
   <g id="line2d_69">
    <path clip-path="url(#p8f77c4e6e7)" d="M 492.172375 110.803724 
L 507.796375 110.803724 
" style="fill:none;stroke:#313131;stroke-linecap:square;stroke-width:1.5;"/>
   </g>
   <g id="line2d_70">
    <path clip-path="url(#p8f77c4e6e7)" d="M 492.172375 38.223907 
L 507.796375 38.223907 
" style="fill:none;stroke:#313131;stroke-linecap:square;stroke-width:1.5;"/>
   </g>
   <g id="line2d_71">
    <g clip-path="url(#p8f77c4e6e7)">
     <use style="fill:#313131;stroke:#313131;stroke-linejoin:miter;" x="499.984375" xlink:href="#m409602533d" y="274.992709"/>
    </g>
   </g>
   <g id="line2d_72">
    <path clip-path="url(#p8f77c4e6e7)" d="M 531.870089 407.541412 
L 531.870089 484.062892 
" style="fill:none;stroke:#313131;stroke-linecap:square;stroke-width:1.5;"/>
   </g>
   <g id="line2d_73">
    <path clip-path="url(#p8f77c4e6e7)" d="M 531.870089 297.912441 
L 531.870089 257.069968 
" style="fill:none;stroke:#313131;stroke-linecap:square;stroke-width:1.5;"/>
   </g>
   <g id="line2d_74">
    <path clip-path="url(#p8f77c4e6e7)" d="M 524.058089 484.062892 
L 539.682089 484.062892 
" style="fill:none;stroke:#313131;stroke-linecap:square;stroke-width:1.5;"/>
   </g>
   <g id="line2d_75">
    <path clip-path="url(#p8f77c4e6e7)" d="M 524.058089 257.069968 
L 539.682089 257.069968 
" style="fill:none;stroke:#313131;stroke-linecap:square;stroke-width:1.5;"/>
   </g>
   <g id="line2d_76"/>
   <g id="line2d_77">
    <path clip-path="url(#p8f77c4e6e7)" d="M 587.670089 126.568183 
L 587.670089 174.584154 
" style="fill:none;stroke:#313131;stroke-linecap:square;stroke-width:1.5;"/>
   </g>
   <g id="line2d_78">
    <path clip-path="url(#p8f77c4e6e7)" d="M 587.670089 81.654286 
L 587.670089 74.488908 
" style="fill:none;stroke:#313131;stroke-linecap:square;stroke-width:1.5;"/>
   </g>
   <g id="line2d_79">
    <path clip-path="url(#p8f77c4e6e7)" d="M 579.858089 174.584154 
L 595.482089 174.584154 
" style="fill:none;stroke:#313131;stroke-linecap:square;stroke-width:1.5;"/>
   </g>
   <g id="line2d_80">
    <path clip-path="url(#p8f77c4e6e7)" d="M 579.858089 74.488908 
L 595.482089 74.488908 
" style="fill:none;stroke:#313131;stroke-linecap:square;stroke-width:1.5;"/>
   </g>
   <g id="line2d_81">
    <g clip-path="url(#p8f77c4e6e7)">
     <use style="fill:#313131;stroke:#313131;stroke-linejoin:miter;" x="587.670089" xlink:href="#m409602533d" y="323.600063"/>
    </g>
   </g>
   <g id="line2d_82">
    <path clip-path="url(#p8f77c4e6e7)" d="M 619.555804 81.977293 
L 619.555804 109.102913 
" style="fill:none;stroke:#313131;stroke-linecap:square;stroke-width:1.5;"/>
   </g>
   <g id="line2d_83">
    <path clip-path="url(#p8f77c4e6e7)" d="M 619.555804 42.74184 
L 619.555804 33.690782 
" style="fill:none;stroke:#313131;stroke-linecap:square;stroke-width:1.5;"/>
   </g>
   <g id="line2d_84">
    <path clip-path="url(#p8f77c4e6e7)" d="M 611.743804 109.102913 
L 627.367804 109.102913 
" style="fill:none;stroke:#313131;stroke-linecap:square;stroke-width:1.5;"/>
   </g>
   <g id="line2d_85">
    <path clip-path="url(#p8f77c4e6e7)" d="M 611.743804 33.690782 
L 627.367804 33.690782 
" style="fill:none;stroke:#313131;stroke-linecap:square;stroke-width:1.5;"/>
   </g>
   <g id="line2d_86">
    <g clip-path="url(#p8f77c4e6e7)">
     <use style="fill:#313131;stroke:#313131;stroke-linejoin:miter;" x="619.555804" xlink:href="#m409602533d" y="267.96514"/>
    </g>
   </g>
   <g id="line2d_87">
    <path clip-path="url(#p8f77c4e6e7)" d="M 651.441518 209.377905 
L 651.441518 400.903323 
" style="fill:none;stroke:#313131;stroke-linecap:square;stroke-width:1.5;"/>
   </g>
   <g id="line2d_88">
    <path clip-path="url(#p8f77c4e6e7)" d="M 651.441518 73.957043 
L 651.441518 53.929297 
" style="fill:none;stroke:#313131;stroke-linecap:square;stroke-width:1.5;"/>
   </g>
   <g id="line2d_89">
    <path clip-path="url(#p8f77c4e6e7)" d="M 643.629518 400.903323 
L 659.253518 400.903323 
" style="fill:none;stroke:#313131;stroke-linecap:square;stroke-width:1.5;"/>
   </g>
   <g id="line2d_90">
    <path clip-path="url(#p8f77c4e6e7)" d="M 643.629518 53.929297 
L 659.253518 53.929297 
" style="fill:none;stroke:#313131;stroke-linecap:square;stroke-width:1.5;"/>
   </g>
   <g id="line2d_91"/>
   <g id="line2d_92">
    <path clip-path="url(#p8f77c4e6e7)" d="M 707.241518 118.108772 
L 707.241518 158.426445 
" style="fill:none;stroke:#313131;stroke-linecap:square;stroke-width:1.5;"/>
   </g>
   <g id="line2d_93">
    <path clip-path="url(#p8f77c4e6e7)" d="M 707.241518 74.267898 
L 707.241518 65.422658 
" style="fill:none;stroke:#313131;stroke-linecap:square;stroke-width:1.5;"/>
   </g>
   <g id="line2d_94">
    <path clip-path="url(#p8f77c4e6e7)" d="M 699.429518 158.426445 
L 715.053518 158.426445 
" style="fill:none;stroke:#313131;stroke-linecap:square;stroke-width:1.5;"/>
   </g>
   <g id="line2d_95">
    <path clip-path="url(#p8f77c4e6e7)" d="M 699.429518 65.422658 
L 715.053518 65.422658 
" style="fill:none;stroke:#313131;stroke-linecap:square;stroke-width:1.5;"/>
   </g>
   <g id="line2d_96">
    <g clip-path="url(#p8f77c4e6e7)">
     <use style="fill:#313131;stroke:#313131;stroke-linejoin:miter;" x="707.241518" xlink:href="#m409602533d" y="304.274247"/>
    </g>
   </g>
   <g id="line2d_97">
    <path clip-path="url(#p8f77c4e6e7)" d="M 739.127232 83.259938 
L 739.127232 112.504536 
" style="fill:none;stroke:#313131;stroke-linecap:square;stroke-width:1.5;"/>
   </g>
   <g id="line2d_98">
    <path clip-path="url(#p8f77c4e6e7)" d="M 739.127232 44.925357 
L 739.127232 35.957344 
" style="fill:none;stroke:#313131;stroke-linecap:square;stroke-width:1.5;"/>
   </g>
   <g id="line2d_99">
    <path clip-path="url(#p8f77c4e6e7)" d="M 731.315232 112.504536 
L 746.939232 112.504536 
" style="fill:none;stroke:#313131;stroke-linecap:square;stroke-width:1.5;"/>
   </g>
   <g id="line2d_100">
    <path clip-path="url(#p8f77c4e6e7)" d="M 731.315232 35.957344 
L 746.939232 35.957344 
" style="fill:none;stroke:#313131;stroke-linecap:square;stroke-width:1.5;"/>
   </g>
   <g id="line2d_101">
    <g clip-path="url(#p8f77c4e6e7)">
     <use style="fill:#313131;stroke:#313131;stroke-linejoin:miter;" x="739.127232" xlink:href="#m409602533d" y="270.307663"/>
    </g>
   </g>
   <g id="line2d_102">
    <path clip-path="url(#p8f77c4e6e7)" d="M 771.012946 131.141706 
L 771.012946 134.469894 
" style="fill:none;stroke:#313131;stroke-linecap:square;stroke-width:1.5;"/>
   </g>
   <g id="line2d_103">
    <path clip-path="url(#p8f77c4e6e7)" d="M 771.012946 66.043197 
L 771.012946 53.929297 
" style="fill:none;stroke:#313131;stroke-linecap:square;stroke-width:1.5;"/>
   </g>
   <g id="line2d_104">
    <path clip-path="url(#p8f77c4e6e7)" d="M 763.200946 134.469894 
L 778.824946 134.469894 
" style="fill:none;stroke:#313131;stroke-linecap:square;stroke-width:1.5;"/>
   </g>
   <g id="line2d_105">
    <path clip-path="url(#p8f77c4e6e7)" d="M 763.200946 53.929297 
L 778.824946 53.929297 
" style="fill:none;stroke:#313131;stroke-linecap:square;stroke-width:1.5;"/>
   </g>
   <g id="line2d_106">
    <g clip-path="url(#p8f77c4e6e7)">
     <use style="fill:#313131;stroke:#313131;stroke-linejoin:miter;" x="771.012946" xlink:href="#m409602533d" y="229.860528"/>
     <use style="fill:#313131;stroke:#313131;stroke-linejoin:miter;" x="771.012946" xlink:href="#m409602533d" y="360.494801"/>
    </g>
   </g>
   <g id="line2d_107">
    <path clip-path="url(#p8f77c4e6e7)" d="M 826.812946 106.866009 
L 826.812946 144.819954 
" style="fill:none;stroke:#313131;stroke-linecap:square;stroke-width:1.5;"/>
   </g>
   <g id="line2d_108">
    <path clip-path="url(#p8f77c4e6e7)" d="M 826.812946 70.856092 
L 826.812946 58.62297 
" style="fill:none;stroke:#313131;stroke-linecap:square;stroke-width:1.5;"/>
   </g>
   <g id="line2d_109">
    <path clip-path="url(#p8f77c4e6e7)" d="M 819.000946 144.819954 
L 834.624946 144.819954 
" style="fill:none;stroke:#313131;stroke-linecap:square;stroke-width:1.5;"/>
   </g>
   <g id="line2d_110">
    <path clip-path="url(#p8f77c4e6e7)" d="M 819.000946 58.62297 
L 834.624946 58.62297 
" style="fill:none;stroke:#313131;stroke-linecap:square;stroke-width:1.5;"/>
   </g>
   <g id="line2d_111">
    <g clip-path="url(#p8f77c4e6e7)">
     <use style="fill:#313131;stroke:#313131;stroke-linejoin:miter;" x="826.812946" xlink:href="#m409602533d" y="289.633478"/>
    </g>
   </g>
   <g id="line2d_112">
    <path clip-path="url(#p8f77c4e6e7)" d="M 858.698661 87.857905 
L 858.698661 126.111027 
" style="fill:none;stroke:#313131;stroke-linecap:square;stroke-width:1.5;"/>
   </g>
   <g id="line2d_113">
    <path clip-path="url(#p8f77c4e6e7)" d="M 858.698661 47.010738 
L 858.698661 35.957344 
" style="fill:none;stroke:#313131;stroke-linecap:square;stroke-width:1.5;"/>
   </g>
   <g id="line2d_114">
    <path clip-path="url(#p8f77c4e6e7)" d="M 850.886661 126.111027 
L 866.510661 126.111027 
" style="fill:none;stroke:#313131;stroke-linecap:square;stroke-width:1.5;"/>
   </g>
   <g id="line2d_115">
    <path clip-path="url(#p8f77c4e6e7)" d="M 850.886661 35.957344 
L 866.510661 35.957344 
" style="fill:none;stroke:#313131;stroke-linecap:square;stroke-width:1.5;"/>
   </g>
   <g id="line2d_116">
    <g clip-path="url(#p8f77c4e6e7)">
     <use style="fill:#313131;stroke:#313131;stroke-linejoin:miter;" x="858.698661" xlink:href="#m409602533d" y="277.335232"/>
    </g>
   </g>
   <g id="line2d_117">
    <path clip-path="url(#p8f77c4e6e7)" d="M 890.584375 196.64923 
L 890.584375 287.688118 
" style="fill:none;stroke:#313131;stroke-linecap:square;stroke-width:1.5;"/>
   </g>
   <g id="line2d_118">
    <path clip-path="url(#p8f77c4e6e7)" d="M 890.584375 130.270637 
L 890.584375 101.687659 
" style="fill:none;stroke:#313131;stroke-linecap:square;stroke-width:1.5;"/>
   </g>
   <g id="line2d_119">
    <path clip-path="url(#p8f77c4e6e7)" d="M 882.772375 287.688118 
L 898.396375 287.688118 
" style="fill:none;stroke:#313131;stroke-linecap:square;stroke-width:1.5;"/>
   </g>
   <g id="line2d_120">
    <path clip-path="url(#p8f77c4e6e7)" d="M 882.772375 101.687659 
L 898.396375 101.687659 
" style="fill:none;stroke:#313131;stroke-linecap:square;stroke-width:1.5;"/>
   </g>
   <g id="line2d_121">
    <g clip-path="url(#p8f77c4e6e7)">
     <use style="fill:#313131;stroke:#313131;stroke-linejoin:miter;" x="890.584375" xlink:href="#m409602533d" y="403.831477"/>
    </g>
   </g>
   <g id="line2d_122">
    <path clip-path="url(#p8f77c4e6e7)" d="M 93.760375 344.593249 
L 125.008375 344.593249 
" style="fill:none;stroke:#313131;stroke-linecap:square;stroke-width:1.5;"/>
   </g>
   <g id="line2d_123">
    <path clip-path="url(#p8f77c4e6e7)" d="M 125.646089 460.639882 
L 156.894089 460.639882 
" style="fill:none;stroke:#313131;stroke-linecap:square;stroke-width:1.5;"/>
   </g>
   <g id="line2d_124">
    <path clip-path="url(#p8f77c4e6e7)" d="M 157.531804 543.300228 
L 188.779804 543.300228 
" style="fill:none;stroke:#313131;stroke-linecap:square;stroke-width:1.5;"/>
   </g>
   <g id="line2d_125">
    <path clip-path="url(#p8f77c4e6e7)" d="M 213.331804 223.738976 
L 244.579804 223.738976 
" style="fill:none;stroke:#313131;stroke-linecap:square;stroke-width:1.5;"/>
   </g>
   <g id="line2d_126">
    <path clip-path="url(#p8f77c4e6e7)" d="M 245.217518 171.893076 
L 276.465518 171.893076 
" style="fill:none;stroke:#313131;stroke-linecap:square;stroke-width:1.5;"/>
   </g>
   <g id="line2d_127">
    <path clip-path="url(#p8f77c4e6e7)" d="M 277.103232 543.300228 
L 308.351232 543.300228 
" style="fill:none;stroke:#313131;stroke-linecap:square;stroke-width:1.5;"/>
   </g>
   <g id="line2d_128">
    <path clip-path="url(#p8f77c4e6e7)" d="M 332.903232 158.010732 
L 364.151232 158.010732 
" style="fill:none;stroke:#313131;stroke-linecap:square;stroke-width:1.5;"/>
   </g>
   <g id="line2d_129">
    <path clip-path="url(#p8f77c4e6e7)" d="M 364.788946 74.736474 
L 396.036946 74.736474 
" style="fill:none;stroke:#313131;stroke-linecap:square;stroke-width:1.5;"/>
   </g>
   <g id="line2d_130">
    <path clip-path="url(#p8f77c4e6e7)" d="M 396.674661 509.520189 
L 427.922661 509.520189 
" style="fill:none;stroke:#313131;stroke-linecap:square;stroke-width:1.5;"/>
   </g>
   <g id="line2d_131">
    <path clip-path="url(#p8f77c4e6e7)" d="M 452.474661 115.965574 
L 483.722661 115.965574 
" style="fill:none;stroke:#313131;stroke-linecap:square;stroke-width:1.5;"/>
   </g>
   <g id="line2d_132">
    <path clip-path="url(#p8f77c4e6e7)" d="M 484.360375 61.294761 
L 515.608375 61.294761 
" style="fill:none;stroke:#313131;stroke-linecap:square;stroke-width:1.5;"/>
   </g>
   <g id="line2d_133">
    <path clip-path="url(#p8f77c4e6e7)" d="M 516.246089 354.061704 
L 547.494089 354.061704 
" style="fill:none;stroke:#313131;stroke-linecap:square;stroke-width:1.5;"/>
   </g>
   <g id="line2d_134">
    <path clip-path="url(#p8f77c4e6e7)" d="M 572.046089 96.676957 
L 603.294089 96.676957 
" style="fill:none;stroke:#313131;stroke-linecap:square;stroke-width:1.5;"/>
   </g>
   <g id="line2d_135">
    <path clip-path="url(#p8f77c4e6e7)" d="M 603.931804 61.294761 
L 635.179804 61.294761 
" style="fill:none;stroke:#313131;stroke-linecap:square;stroke-width:1.5;"/>
   </g>
   <g id="line2d_136">
    <path clip-path="url(#p8f77c4e6e7)" d="M 635.817518 127.285403 
L 667.065518 127.285403 
" style="fill:none;stroke:#313131;stroke-linecap:square;stroke-width:1.5;"/>
   </g>
   <g id="line2d_137">
    <path clip-path="url(#p8f77c4e6e7)" d="M 691.617518 96.995753 
L 722.865518 96.995753 
" style="fill:none;stroke:#313131;stroke-linecap:square;stroke-width:1.5;"/>
   </g>
   <g id="line2d_138">
    <path clip-path="url(#p8f77c4e6e7)" d="M 723.503232 61.032363 
L 754.751232 61.032363 
" style="fill:none;stroke:#313131;stroke-linecap:square;stroke-width:1.5;"/>
   </g>
   <g id="line2d_139">
    <path clip-path="url(#p8f77c4e6e7)" d="M 755.388946 84.687798 
L 786.636946 84.687798 
" style="fill:none;stroke:#313131;stroke-linecap:square;stroke-width:1.5;"/>
   </g>
   <g id="line2d_140">
    <path clip-path="url(#p8f77c4e6e7)" d="M 811.188946 89.401061 
L 842.436946 89.401061 
" style="fill:none;stroke:#313131;stroke-linecap:square;stroke-width:1.5;"/>
   </g>
   <g id="line2d_141">
    <path clip-path="url(#p8f77c4e6e7)" d="M 843.074661 66.879385 
L 874.322661 66.879385 
" style="fill:none;stroke:#313131;stroke-linecap:square;stroke-width:1.5;"/>
   </g>
   <g id="line2d_142">
    <path clip-path="url(#p8f77c4e6e7)" d="M 874.960375 158.184014 
L 906.208375 158.184014 
" style="fill:none;stroke:#313131;stroke-linecap:square;stroke-width:1.5;"/>
   </g>
   <g id="patch_27">
    <path d="M 81.484375 578.526236 
L 81.484375 7.746236 
" style="fill:none;stroke:#000000;stroke-linecap:square;stroke-linejoin:miter;stroke-width:0.8;"/>
   </g>
   <g id="patch_28">
    <path d="M 918.484375 578.526236 
L 918.484375 7.746236 
" style="fill:none;stroke:#000000;stroke-linecap:square;stroke-linejoin:miter;stroke-width:0.8;"/>
   </g>
   <g id="patch_29">
    <path d="M 81.484375 578.526236 
L 918.484375 578.526236 
" style="fill:none;stroke:#000000;stroke-linecap:square;stroke-linejoin:miter;stroke-width:0.8;"/>
   </g>
   <g id="patch_30">
    <path d="M 81.484375 7.746236 
L 918.484375 7.746236 
" style="fill:none;stroke:#000000;stroke-linecap:square;stroke-linejoin:miter;stroke-width:0.8;"/>
   </g>
   <g id="legend_1">
    <g id="patch_31">
     <path d="M 750.387187 567.526236 
L 903.084375 567.526236 
Q 907.484375 567.526236 907.484375 563.126236 
L 907.484375 468.450611 
Q 907.484375 464.050611 903.084375 464.050611 
L 750.387187 464.050611 
Q 745.987188 464.050611 745.987188 468.450611 
L 745.987188 563.126236 
Q 745.987188 567.526236 750.387187 567.526236 
z
" style="fill:#ffffff;opacity:0.8;stroke:#cccccc;stroke-linejoin:miter;"/>
    </g>
    <g id="patch_32">
     <path d="M 754.787187 489.567174 
L 798.787187 489.567174 
L 798.787187 474.167174 
L 754.787187 474.167174 
z
" style="fill:#525252;stroke:#313131;stroke-linejoin:miter;stroke-width:0.75;"/>
    </g>
    <g id="text_16">
     <!-- rf -->
     <g transform="translate(816.387187 489.567174)scale(0.22 -0.22)">
      <use xlink:href="#DejaVuSerif-114"/>
      <use x="47.802734" xlink:href="#DejaVuSerif-102"/>
     </g>
    </g>
    <g id="patch_33">
     <path d="M 754.787187 521.859049 
L 798.787187 521.859049 
L 798.787187 506.459049 
L 754.787187 506.459049 
z
" style="fill:#979797;stroke:#313131;stroke-linejoin:miter;stroke-width:0.75;"/>
    </g>
    <g id="text_17">
     <!-- svmlin -->
     <defs>
      <path d="M 24.703125 0 
L 5.609375 46.6875 
L -0.296875 46.6875 
L -0.296875 51.90625 
L 23.578125 51.90625 
L 23.578125 46.6875 
L 15.28125 46.6875 
L 29.890625 10.984375 
L 44.484375 46.6875 
L 36.71875 46.6875 
L 36.71875 51.90625 
L 56.203125 51.90625 
L 56.203125 46.6875 
L 50.390625 46.6875 
L 31.296875 0 
z
" id="DejaVuSerif-118"/>
      <path d="M 9.71875 68.015625 
Q 9.71875 70.265625 11.34375 71.921875 
Q 12.984375 73.578125 15.28125 73.578125 
Q 17.53125 73.578125 19.15625 71.921875 
Q 20.796875 70.265625 20.796875 68.015625 
Q 20.796875 65.71875 19.1875 64.109375 
Q 17.578125 62.5 15.28125 62.5 
Q 12.984375 62.5 11.34375 64.109375 
Q 9.71875 65.71875 9.71875 68.015625 
z
M 21.1875 5.171875 
L 29.6875 5.171875 
L 29.6875 0 
L 3.609375 0 
L 3.609375 5.171875 
L 12.203125 5.171875 
L 12.203125 46.6875 
L 3.609375 46.6875 
L 3.609375 51.90625 
L 21.1875 51.90625 
z
" id="DejaVuSerif-105"/>
     </defs>
     <g transform="translate(816.387187 521.859049)scale(0.22 -0.22)">
      <use xlink:href="#DejaVuSerif-115"/>
      <use x="51.318359" xlink:href="#DejaVuSerif-118"/>
      <use x="107.8125" xlink:href="#DejaVuSerif-109"/>
      <use x="202.636719" xlink:href="#DejaVuSerif-108"/>
      <use x="234.619141" xlink:href="#DejaVuSerif-105"/>
      <use x="266.601562" xlink:href="#DejaVuSerif-110"/>
     </g>
    </g>
    <g id="patch_34">
     <path d="M 754.787187 554.150924 
L 798.787187 554.150924 
L 798.787187 538.750924 
L 754.787187 538.750924 
z
" style="fill:#dadada;stroke:#313131;stroke-linejoin:miter;stroke-width:0.75;"/>
    </g>
    <g id="text_18">
     <!-- svmrad -->
     <defs>
      <path d="M 39.796875 16.3125 
L 39.796875 27.296875 
L 28.21875 27.296875 
Q 21.53125 27.296875 18.25 24.40625 
Q 14.984375 21.53125 14.984375 15.578125 
Q 14.984375 10.15625 18.296875 6.984375 
Q 21.625 3.8125 27.296875 3.8125 
Q 32.90625 3.8125 36.34375 7.28125 
Q 39.796875 10.75 39.796875 16.3125 
z
M 48.78125 32.421875 
L 48.78125 5.171875 
L 56.78125 5.171875 
L 56.78125 0 
L 39.796875 0 
L 39.796875 5.609375 
Q 36.8125 2 32.90625 0.28125 
Q 29 -1.421875 23.78125 -1.421875 
Q 15.140625 -1.421875 10.0625 3.171875 
Q 4.984375 7.765625 4.984375 15.578125 
Q 4.984375 23.640625 10.796875 28.078125 
Q 16.609375 32.515625 27.203125 32.515625 
L 39.796875 32.515625 
L 39.796875 36.078125 
Q 39.796875 42 36.203125 45.234375 
Q 32.625 48.484375 26.125 48.484375 
Q 20.75 48.484375 17.578125 46.046875 
Q 14.40625 43.609375 13.625 38.8125 
L 8.984375 38.8125 
L 8.984375 49.3125 
Q 13.671875 51.3125 18.09375 52.3125 
Q 22.515625 53.328125 26.703125 53.328125 
Q 37.5 53.328125 43.140625 47.96875 
Q 48.78125 42.625 48.78125 32.421875 
z
" id="DejaVuSerif-97"/>
      <path d="M 52.484375 5.171875 
L 61.078125 5.171875 
L 61.078125 0 
L 43.5 0 
L 43.5 8.109375 
Q 40.875 3.21875 36.796875 0.890625 
Q 32.71875 -1.421875 26.703125 -1.421875 
Q 17.140625 -1.421875 11.0625 6.171875 
Q 4.984375 13.765625 4.984375 25.984375 
Q 4.984375 38.1875 11.03125 45.75 
Q 17.09375 53.328125 26.703125 53.328125 
Q 32.71875 53.328125 36.796875 51 
Q 40.875 48.6875 43.5 43.796875 
L 43.5 70.796875 
L 35.015625 70.796875 
L 35.015625 75.984375 
L 52.484375 75.984375 
z
M 43.5 23.390625 
L 43.5 28.515625 
Q 43.5 37.84375 39.90625 42.765625 
Q 36.328125 47.703125 29.5 47.703125 
Q 22.5625 47.703125 19.015625 42.234375 
Q 15.484375 36.765625 15.484375 25.984375 
Q 15.484375 15.234375 19.015625 9.71875 
Q 22.5625 4.203125 29.5 4.203125 
Q 36.328125 4.203125 39.90625 9.109375 
Q 43.5 14.015625 43.5 23.390625 
z
" id="DejaVuSerif-100"/>
     </defs>
     <g transform="translate(816.387187 554.150924)scale(0.22 -0.22)">
      <use xlink:href="#DejaVuSerif-115"/>
      <use x="51.318359" xlink:href="#DejaVuSerif-118"/>
      <use x="107.8125" xlink:href="#DejaVuSerif-109"/>
      <use x="202.636719" xlink:href="#DejaVuSerif-114"/>
      <use x="250.439453" xlink:href="#DejaVuSerif-97"/>
      <use x="310.058594" xlink:href="#DejaVuSerif-100"/>
     </g>
    </g>
   </g>
  </g>
 </g>
 <defs>
  <clipPath id="p8f77c4e6e7">
   <rect height="570.78" width="837" x="81.484375" y="7.746236"/>
  </clipPath>
 </defs>
</svg>
