<?xml version="1.0" encoding="utf-8" standalone="no"?>
<!DOCTYPE svg PUBLIC "-//W3C//DTD SVG 1.1//EN"
  "http://www.w3.org/Graphics/SVG/1.1/DTD/svg11.dtd">
<!-- Created with matplotlib (https://matplotlib.org/) -->
<svg height="703.35875pt" version="1.1" viewBox="0 0 911.999687 703.35875" width="911.999687pt" xmlns="http://www.w3.org/2000/svg" xmlns:xlink="http://www.w3.org/1999/xlink">
 <defs>
  <style type="text/css">
*{stroke-linecap:butt;stroke-linejoin:round;}
  </style>
 </defs>
 <g id="figure_1">
  <g id="patch_1">
   <path d="M 0 703.35875 
L 911.999687 703.35875 
L 911.999687 0 
L 0 0 
z
" style="fill:#ffffff;"/>
  </g>
  <g id="axes_1">
   <g id="patch_2">
    <path d="M 67.799688 496.44 
L 904.799688 496.44 
L 904.799688 7.2 
L 67.799688 7.2 
z
" style="fill:#ffffff;"/>
   </g>
   <g id="patch_3">
    <path clip-path="url(#p290c429997)" d="M 74.774688 496.44 
L 88.724688 496.44 
L 88.724688 30.497143 
L 74.774688 30.497143 
z
" style="fill:url(#h713bd0e1d4);stroke:#000000;stroke-linejoin:miter;"/>
   </g>
   <g id="patch_4">
    <path clip-path="url(#p290c429997)" d="M 102.674688 496.44 
L 116.624688 496.44 
L 116.624688 117.861429 
L 102.674688 117.861429 
z
" style="fill:url(#h713bd0e1d4);stroke:#000000;stroke-linejoin:miter;"/>
   </g>
   <g id="patch_5">
    <path clip-path="url(#p290c429997)" d="M 130.574688 496.44 
L 144.524687 496.44 
L 144.524687 146.982857 
L 130.574688 146.982857 
z
" style="fill:url(#h713bd0e1d4);stroke:#000000;stroke-linejoin:miter;"/>
   </g>
   <g id="patch_6">
    <path clip-path="url(#p290c429997)" d="M 158.474688 496.44 
L 172.424688 496.44 
L 172.424688 176.104286 
L 158.474688 176.104286 
z
" style="fill:url(#h713bd0e1d4);stroke:#000000;stroke-linejoin:miter;"/>
   </g>
   <g id="patch_7">
    <path clip-path="url(#p290c429997)" d="M 186.374688 496.44 
L 200.324688 496.44 
L 200.324688 234.347143 
L 186.374688 234.347143 
z
" style="fill:url(#h713bd0e1d4);stroke:#000000;stroke-linejoin:miter;"/>
   </g>
   <g id="patch_8">
    <path clip-path="url(#p290c429997)" d="M 214.274688 496.44 
L 228.224688 496.44 
L 228.224688 234.347143 
L 214.274688 234.347143 
z
" style="fill:url(#h713bd0e1d4);stroke:#000000;stroke-linejoin:miter;"/>
   </g>
   <g id="patch_9">
    <path clip-path="url(#p290c429997)" d="M 242.174688 496.44 
L 256.124687 496.44 
L 256.124687 234.347143 
L 242.174688 234.347143 
z
" style="fill:url(#h713bd0e1d4);stroke:#000000;stroke-linejoin:miter;"/>
   </g>
   <g id="patch_10">
    <path clip-path="url(#p290c429997)" d="M 270.074687 496.44 
L 284.024687 496.44 
L 284.024687 263.468571 
L 270.074687 263.468571 
z
" style="fill:url(#h713bd0e1d4);stroke:#000000;stroke-linejoin:miter;"/>
   </g>
   <g id="patch_11">
    <path clip-path="url(#p290c429997)" d="M 297.974688 496.44 
L 311.924688 496.44 
L 311.924688 263.468571 
L 297.974688 263.468571 
z
" style="fill:url(#h713bd0e1d4);stroke:#000000;stroke-linejoin:miter;"/>
   </g>
   <g id="patch_12">
    <path clip-path="url(#p290c429997)" d="M 325.874688 496.44 
L 339.824688 496.44 
L 339.824688 263.468571 
L 325.874688 263.468571 
z
" style="fill:url(#h713bd0e1d4);stroke:#000000;stroke-linejoin:miter;"/>
   </g>
   <g id="patch_13">
    <path clip-path="url(#p290c429997)" d="M 353.774688 496.44 
L 367.724688 496.44 
L 367.724688 263.468571 
L 353.774688 263.468571 
z
" style="fill:url(#h713bd0e1d4);stroke:#000000;stroke-linejoin:miter;"/>
   </g>
   <g id="patch_14">
    <path clip-path="url(#p290c429997)" d="M 381.674688 496.44 
L 395.624687 496.44 
L 395.624687 263.468571 
L 381.674688 263.468571 
z
" style="fill:url(#h713bd0e1d4);stroke:#000000;stroke-linejoin:miter;"/>
   </g>
   <g id="patch_15">
    <path clip-path="url(#p290c429997)" d="M 409.574687 496.44 
L 423.524687 496.44 
L 423.524687 292.59 
L 409.574687 292.59 
z
" style="fill:url(#h713bd0e1d4);stroke:#000000;stroke-linejoin:miter;"/>
   </g>
   <g id="patch_16">
    <path clip-path="url(#p290c429997)" d="M 437.474687 496.44 
L 451.424687 496.44 
L 451.424687 292.59 
L 437.474687 292.59 
z
" style="fill:url(#h713bd0e1d4);stroke:#000000;stroke-linejoin:miter;"/>
   </g>
   <g id="patch_17">
    <path clip-path="url(#p290c429997)" d="M 465.374688 496.44 
L 479.324688 496.44 
L 479.324688 292.59 
L 465.374688 292.59 
z
" style="fill:url(#h713bd0e1d4);stroke:#000000;stroke-linejoin:miter;"/>
   </g>
   <g id="patch_18">
    <path clip-path="url(#p290c429997)" d="M 493.274688 496.44 
L 507.224688 496.44 
L 507.224688 292.59 
L 493.274688 292.59 
z
" style="fill:url(#h713bd0e1d4);stroke:#000000;stroke-linejoin:miter;"/>
   </g>
   <g id="patch_19">
    <path clip-path="url(#p290c429997)" d="M 521.174688 496.44 
L 535.124688 496.44 
L 535.124688 292.59 
L 521.174688 292.59 
z
" style="fill:url(#h713bd0e1d4);stroke:#000000;stroke-linejoin:miter;"/>
   </g>
   <g id="patch_20">
    <path clip-path="url(#p290c429997)" d="M 549.074687 496.44 
L 563.024688 496.44 
L 563.024688 292.59 
L 549.074687 292.59 
z
" style="fill:url(#h713bd0e1d4);stroke:#000000;stroke-linejoin:miter;"/>
   </g>
   <g id="patch_21">
    <path clip-path="url(#p290c429997)" d="M 576.974687 496.44 
L 590.924688 496.44 
L 590.924688 321.711429 
L 576.974687 321.711429 
z
" style="fill:url(#h713bd0e1d4);stroke:#000000;stroke-linejoin:miter;"/>
   </g>
   <g id="patch_22">
    <path clip-path="url(#p290c429997)" d="M 604.874688 496.44 
L 618.824688 496.44 
L 618.824688 321.711429 
L 604.874688 321.711429 
z
" style="fill:url(#h713bd0e1d4);stroke:#000000;stroke-linejoin:miter;"/>
   </g>
   <g id="patch_23">
    <path clip-path="url(#p290c429997)" d="M 632.774688 496.44 
L 646.724688 496.44 
L 646.724688 321.711429 
L 632.774688 321.711429 
z
" style="fill:url(#h713bd0e1d4);stroke:#000000;stroke-linejoin:miter;"/>
   </g>
   <g id="patch_24">
    <path clip-path="url(#p290c429997)" d="M 660.674688 496.44 
L 674.624688 496.44 
L 674.624688 321.711429 
L 660.674688 321.711429 
z
" style="fill:url(#h713bd0e1d4);stroke:#000000;stroke-linejoin:miter;"/>
   </g>
   <g id="patch_25">
    <path clip-path="url(#p290c429997)" d="M 688.574687 496.44 
L 702.524688 496.44 
L 702.524688 321.711429 
L 688.574687 321.711429 
z
" style="fill:url(#h713bd0e1d4);stroke:#000000;stroke-linejoin:miter;"/>
   </g>
   <g id="patch_26">
    <path clip-path="url(#p290c429997)" d="M 716.474688 496.44 
L 730.424688 496.44 
L 730.424688 321.711429 
L 716.474688 321.711429 
z
" style="fill:url(#h713bd0e1d4);stroke:#000000;stroke-linejoin:miter;"/>
   </g>
   <g id="patch_27">
    <path clip-path="url(#p290c429997)" d="M 744.374688 496.44 
L 758.324688 496.44 
L 758.324688 350.832857 
L 744.374688 350.832857 
z
" style="fill:url(#h713bd0e1d4);stroke:#000000;stroke-linejoin:miter;"/>
   </g>
   <g id="patch_28">
    <path clip-path="url(#p290c429997)" d="M 772.274688 496.44 
L 786.224688 496.44 
L 786.224688 350.832857 
L 772.274688 350.832857 
z
" style="fill:url(#h713bd0e1d4);stroke:#000000;stroke-linejoin:miter;"/>
   </g>
   <g id="patch_29">
    <path clip-path="url(#p290c429997)" d="M 800.174688 496.44 
L 814.124688 496.44 
L 814.124688 350.832857 
L 800.174688 350.832857 
z
" style="fill:url(#h713bd0e1d4);stroke:#000000;stroke-linejoin:miter;"/>
   </g>
   <g id="patch_30">
    <path clip-path="url(#p290c429997)" d="M 828.074687 496.44 
L 842.024688 496.44 
L 842.024688 350.832857 
L 828.074687 350.832857 
z
" style="fill:url(#h713bd0e1d4);stroke:#000000;stroke-linejoin:miter;"/>
   </g>
   <g id="patch_31">
    <path clip-path="url(#p290c429997)" d="M 855.974687 496.44 
L 869.924688 496.44 
L 869.924688 350.832857 
L 855.974687 350.832857 
z
" style="fill:url(#h713bd0e1d4);stroke:#000000;stroke-linejoin:miter;"/>
   </g>
   <g id="patch_32">
    <path clip-path="url(#p290c429997)" d="M 883.874688 496.44 
L 897.824688 496.44 
L 897.824688 350.832857 
L 883.874688 350.832857 
z
" style="fill:url(#h713bd0e1d4);stroke:#000000;stroke-linejoin:miter;"/>
   </g>
   <g id="matplotlib.axis_1">
    <g id="xtick_1">
     <g id="line2d_1">
      <defs>
       <path d="M 0 0 
L 0 3.5 
" id="m322a1fbc9d" style="stroke:#000000;stroke-width:0.8;"/>
      </defs>
      <g>
       <use style="stroke:#000000;stroke-width:0.8;" x="81.749688" xlink:href="#m322a1fbc9d" y="496.44"/>
      </g>
     </g>
     <g id="text_1">
      <!-- Turdus -->
      <defs>
       <path d="M 19.09375 0 
L 19.09375 5.171875 
L 28.421875 5.171875 
L 28.421875 67.09375 
L 6.984375 67.09375 
L 6.984375 55.71875 
L 0.984375 55.71875 
L 0.984375 72.90625 
L 65.71875 72.90625 
L 65.71875 55.71875 
L 59.71875 55.71875 
L 59.71875 67.09375 
L 38.28125 67.09375 
L 38.28125 5.171875 
L 47.609375 5.171875 
L 47.609375 0 
z
" id="DejaVuSerif-84"/>
       <path d="M 35.40625 51.90625 
L 52.203125 51.90625 
L 52.203125 5.171875 
L 60.6875 5.171875 
L 60.6875 0 
L 43.21875 0 
L 43.21875 9.1875 
Q 40.71875 4 36.765625 1.28125 
Q 32.8125 -1.421875 27.59375 -1.421875 
Q 18.953125 -1.421875 14.875 3.484375 
Q 10.796875 8.40625 10.796875 18.890625 
L 10.796875 46.6875 
L 2.6875 46.6875 
L 2.6875 51.90625 
L 19.828125 51.90625 
L 19.828125 21.6875 
Q 19.828125 12.203125 22.140625 8.6875 
Q 24.46875 5.171875 30.421875 5.171875 
Q 36.671875 5.171875 39.9375 9.765625 
Q 43.21875 14.359375 43.21875 23.09375 
L 43.21875 46.6875 
L 35.40625 46.6875 
z
" id="DejaVuSerif-117"/>
       <path d="M 47.796875 52 
L 47.796875 39.015625 
L 42.625 39.015625 
Q 42.390625 42.875 40.484375 44.78125 
Q 38.578125 46.6875 34.90625 46.6875 
Q 28.265625 46.6875 24.71875 42.09375 
Q 21.1875 37.5 21.1875 28.90625 
L 21.1875 5.171875 
L 31.59375 5.171875 
L 31.59375 0 
L 4.109375 0 
L 4.109375 5.171875 
L 12.203125 5.171875 
L 12.203125 46.78125 
L 3.609375 46.78125 
L 3.609375 51.90625 
L 21.1875 51.90625 
L 21.1875 42.671875 
Q 23.828125 48.09375 27.96875 50.703125 
Q 32.125 53.328125 38.09375 53.328125 
Q 40.28125 53.328125 42.703125 52.984375 
Q 45.125 52.640625 47.796875 52 
z
" id="DejaVuSerif-114"/>
       <path d="M 52.484375 5.171875 
L 61.078125 5.171875 
L 61.078125 0 
L 43.5 0 
L 43.5 8.109375 
Q 40.875 3.21875 36.796875 0.890625 
Q 32.71875 -1.421875 26.703125 -1.421875 
Q 17.140625 -1.421875 11.0625 6.171875 
Q 4.984375 13.765625 4.984375 25.984375 
Q 4.984375 38.1875 11.03125 45.75 
Q 17.09375 53.328125 26.703125 53.328125 
Q 32.71875 53.328125 36.796875 51 
Q 40.875 48.6875 43.5 43.796875 
L 43.5 70.796875 
L 35.015625 70.796875 
L 35.015625 75.984375 
L 52.484375 75.984375 
z
M 43.5 23.390625 
L 43.5 28.515625 
Q 43.5 37.84375 39.90625 42.765625 
Q 36.328125 47.703125 29.5 47.703125 
Q 22.5625 47.703125 19.015625 42.234375 
Q 15.484375 36.765625 15.484375 25.984375 
Q 15.484375 15.234375 19.015625 9.71875 
Q 22.5625 4.203125 29.5 4.203125 
Q 36.328125 4.203125 39.90625 9.109375 
Q 43.5 14.015625 43.5 23.390625 
z
" id="DejaVuSerif-100"/>
       <path d="M 5.609375 2.875 
L 5.609375 14.984375 
L 10.796875 14.984375 
Q 10.984375 9.1875 14.421875 6.296875 
Q 17.875 3.421875 24.609375 3.421875 
Q 30.671875 3.421875 33.84375 5.6875 
Q 37.015625 7.953125 37.015625 12.3125 
Q 37.015625 15.71875 34.6875 17.8125 
Q 32.375 19.921875 24.90625 22.3125 
L 18.40625 24.515625 
Q 11.71875 26.65625 8.71875 29.875 
Q 5.71875 33.109375 5.71875 38.09375 
Q 5.71875 45.21875 10.9375 49.265625 
Q 16.15625 53.328125 25.390625 53.328125 
Q 29.5 53.328125 34.03125 52.25 
Q 38.578125 51.171875 43.40625 49.125 
L 43.40625 37.796875 
L 38.234375 37.796875 
Q 38.03125 42.828125 34.703125 45.65625 
Q 31.390625 48.484375 25.6875 48.484375 
Q 20.015625 48.484375 17.109375 46.484375 
Q 14.203125 44.484375 14.203125 40.484375 
Q 14.203125 37.203125 16.40625 35.21875 
Q 18.609375 33.25 25.203125 31.203125 
L 32.328125 29 
Q 39.703125 26.703125 42.9375 23.265625 
Q 46.1875 19.828125 46.1875 14.40625 
Q 46.1875 7.03125 40.546875 2.796875 
Q 34.90625 -1.421875 25 -1.421875 
Q 19.96875 -1.421875 15.1875 -0.34375 
Q 10.40625 0.734375 5.609375 2.875 
z
" id="DejaVuSerif-115"/>
      </defs>
      <g transform="translate(87.820313 582.340937)rotate(-90)scale(0.22 -0.22)">
       <use xlink:href="#DejaVuSerif-84"/>
       <use x="66.699219" xlink:href="#DejaVuSerif-117"/>
       <use x="131.103516" xlink:href="#DejaVuSerif-114"/>
       <use x="178.90625" xlink:href="#DejaVuSerif-100"/>
       <use x="242.919922" xlink:href="#DejaVuSerif-117"/>
       <use x="307.324219" xlink:href="#DejaVuSerif-115"/>
      </g>
     </g>
    </g>
    <g id="xtick_2">
     <g id="line2d_2">
      <g>
       <use style="stroke:#000000;stroke-width:0.8;" x="109.649688" xlink:href="#m322a1fbc9d" y="496.44"/>
      </g>
     </g>
     <g id="text_2">
      <!-- Tangara -->
      <defs>
       <path d="M 39.796875 16.3125 
L 39.796875 27.296875 
L 28.21875 27.296875 
Q 21.53125 27.296875 18.25 24.40625 
Q 14.984375 21.53125 14.984375 15.578125 
Q 14.984375 10.15625 18.296875 6.984375 
Q 21.625 3.8125 27.296875 3.8125 
Q 32.90625 3.8125 36.34375 7.28125 
Q 39.796875 10.75 39.796875 16.3125 
z
M 48.78125 32.421875 
L 48.78125 5.171875 
L 56.78125 5.171875 
L 56.78125 0 
L 39.796875 0 
L 39.796875 5.609375 
Q 36.8125 2 32.90625 0.28125 
Q 29 -1.421875 23.78125 -1.421875 
Q 15.140625 -1.421875 10.0625 3.171875 
Q 4.984375 7.765625 4.984375 15.578125 
Q 4.984375 23.640625 10.796875 28.078125 
Q 16.609375 32.515625 27.203125 32.515625 
L 39.796875 32.515625 
L 39.796875 36.078125 
Q 39.796875 42 36.203125 45.234375 
Q 32.625 48.484375 26.125 48.484375 
Q 20.75 48.484375 17.578125 46.046875 
Q 14.40625 43.609375 13.625 38.8125 
L 8.984375 38.8125 
L 8.984375 49.3125 
Q 13.671875 51.3125 18.09375 52.3125 
Q 22.515625 53.328125 26.703125 53.328125 
Q 37.5 53.328125 43.140625 47.96875 
Q 48.78125 42.625 48.78125 32.421875 
z
" id="DejaVuSerif-97"/>
       <path d="M 4.109375 0 
L 4.109375 5.171875 
L 12.203125 5.171875 
L 12.203125 46.6875 
L 3.609375 46.6875 
L 3.609375 51.90625 
L 21.1875 51.90625 
L 21.1875 42.671875 
Q 23.6875 47.953125 27.65625 50.640625 
Q 31.640625 53.328125 36.921875 53.328125 
Q 45.515625 53.328125 49.5625 48.390625 
Q 53.609375 43.453125 53.609375 33.015625 
L 53.609375 5.171875 
L 61.625 5.171875 
L 61.625 0 
L 36.8125 0 
L 36.8125 5.171875 
L 44.578125 5.171875 
L 44.578125 30.171875 
Q 44.578125 39.703125 42.234375 43.234375 
Q 39.890625 46.78125 33.984375 46.78125 
Q 27.734375 46.78125 24.453125 42.203125 
Q 21.1875 37.640625 21.1875 28.90625 
L 21.1875 5.171875 
L 29 5.171875 
L 29 0 
z
" id="DejaVuSerif-110"/>
       <path d="M 52.484375 46.6875 
L 52.484375 1.125 
Q 52.484375 -10.0625 46.328125 -16.140625 
Q 40.1875 -22.21875 28.8125 -22.21875 
Q 23.6875 -22.21875 19 -21.28125 
Q 14.3125 -20.359375 10.015625 -18.5 
L 10.015625 -7.625 
L 14.703125 -7.625 
Q 15.578125 -12.703125 18.84375 -15.046875 
Q 22.125 -17.390625 28.21875 -17.390625 
Q 36.140625 -17.390625 39.8125 -12.921875 
Q 43.5 -8.453125 43.5 1.125 
L 43.5 8.109375 
Q 40.875 3.21875 36.796875 0.890625 
Q 32.71875 -1.421875 26.703125 -1.421875 
Q 17.140625 -1.421875 11.0625 6.171875 
Q 4.984375 13.765625 4.984375 25.984375 
Q 4.984375 38.1875 11.03125 45.75 
Q 17.09375 53.328125 26.703125 53.328125 
Q 32.71875 53.328125 36.796875 51 
Q 40.875 48.6875 43.5 43.796875 
L 43.5 51.90625 
L 61.078125 51.90625 
L 61.078125 46.6875 
z
M 43.5 28.515625 
Q 43.5 37.84375 39.90625 42.765625 
Q 36.328125 47.703125 29.5 47.703125 
Q 22.5625 47.703125 19.015625 42.234375 
Q 15.484375 36.765625 15.484375 25.984375 
Q 15.484375 15.234375 19.015625 9.71875 
Q 22.5625 4.203125 29.5 4.203125 
Q 36.328125 4.203125 39.90625 9.109375 
Q 43.5 14.015625 43.5 23.390625 
z
" id="DejaVuSerif-103"/>
      </defs>
      <g transform="translate(115.4075 594.530313)rotate(-90)scale(0.22 -0.22)">
       <use xlink:href="#DejaVuSerif-84"/>
       <use x="58.949219" xlink:href="#DejaVuSerif-97"/>
       <use x="118.568359" xlink:href="#DejaVuSerif-110"/>
       <use x="182.972656" xlink:href="#DejaVuSerif-103"/>
       <use x="246.986328" xlink:href="#DejaVuSerif-97"/>
       <use x="306.605469" xlink:href="#DejaVuSerif-114"/>
       <use x="354.408203" xlink:href="#DejaVuSerif-97"/>
      </g>
     </g>
    </g>
    <g id="xtick_3">
     <g id="line2d_3">
      <g>
       <use style="stroke:#000000;stroke-width:0.8;" x="137.549688" xlink:href="#m322a1fbc9d" y="496.44"/>
      </g>
     </g>
     <g id="text_3">
      <!-- Emberiza -->
      <defs>
       <path d="M 5.515625 0 
L 5.515625 5.171875 
L 14.796875 5.171875 
L 14.796875 67.671875 
L 5.515625 67.671875 
L 5.515625 72.90625 
L 64.203125 72.90625 
L 64.203125 56.6875 
L 58.203125 56.6875 
L 58.203125 66.890625 
L 24.703125 66.890625 
L 24.703125 42.484375 
L 48.578125 42.484375 
L 48.578125 51.609375 
L 54.59375 51.609375 
L 54.59375 27.390625 
L 48.578125 27.390625 
L 48.578125 36.53125 
L 24.703125 36.53125 
L 24.703125 6 
L 58.984375 6 
L 58.984375 16.21875 
L 64.984375 16.21875 
L 64.984375 0 
z
" id="DejaVuSerif-69"/>
       <path d="M 51.8125 41.796875 
Q 54.390625 47.515625 58.421875 50.421875 
Q 62.453125 53.328125 67.828125 53.328125 
Q 75.984375 53.328125 79.984375 48.265625 
Q 83.984375 43.21875 83.984375 33.015625 
L 83.984375 5.171875 
L 92.09375 5.171875 
L 92.09375 0 
L 67.1875 0 
L 67.1875 5.171875 
L 75 5.171875 
L 75 31.984375 
Q 75 39.9375 72.65625 43.3125 
Q 70.3125 46.6875 64.890625 46.6875 
Q 58.890625 46.6875 55.734375 42.140625 
Q 52.59375 37.59375 52.59375 28.90625 
L 52.59375 5.171875 
L 60.40625 5.171875 
L 60.40625 0 
L 35.796875 0 
L 35.796875 5.171875 
L 43.609375 5.171875 
L 43.609375 32.328125 
Q 43.609375 40.09375 41.265625 43.390625 
Q 38.921875 46.6875 33.5 46.6875 
Q 27.484375 46.6875 24.328125 42.140625 
Q 21.1875 37.59375 21.1875 28.90625 
L 21.1875 5.171875 
L 29 5.171875 
L 29 0 
L 4.109375 0 
L 4.109375 5.171875 
L 12.203125 5.171875 
L 12.203125 46.78125 
L 3.609375 46.78125 
L 3.609375 51.90625 
L 21.1875 51.90625 
L 21.1875 42.671875 
Q 23.6875 47.859375 27.53125 50.59375 
Q 31.390625 53.328125 36.28125 53.328125 
Q 42.328125 53.328125 46.375 50.3125 
Q 50.4375 47.3125 51.8125 41.796875 
z
" id="DejaVuSerif-109"/>
       <path d="M 11.53125 5.171875 
L 11.53125 70.796875 
L 2.875 70.796875 
L 2.875 75.984375 
L 20.515625 75.984375 
L 20.515625 43.796875 
Q 23.140625 48.6875 27.21875 51 
Q 31.296875 53.328125 37.3125 53.328125 
Q 46.875 53.328125 52.921875 45.75 
Q 58.984375 38.1875 58.984375 25.984375 
Q 58.984375 13.765625 52.921875 6.171875 
Q 46.875 -1.421875 37.3125 -1.421875 
Q 31.296875 -1.421875 27.21875 0.890625 
Q 23.140625 3.21875 20.515625 8.109375 
L 20.515625 0 
L 2.875 0 
L 2.875 5.171875 
z
M 20.515625 23.390625 
Q 20.515625 14.015625 24.09375 9.109375 
Q 27.6875 4.203125 34.515625 4.203125 
Q 41.40625 4.203125 44.9375 9.71875 
Q 48.484375 15.234375 48.484375 25.984375 
Q 48.484375 36.765625 44.9375 42.234375 
Q 41.40625 47.703125 34.515625 47.703125 
Q 27.6875 47.703125 24.09375 42.765625 
Q 20.515625 37.84375 20.515625 28.515625 
z
" id="DejaVuSerif-98"/>
       <path d="M 54.203125 25 
L 15.484375 25 
L 15.484375 24.609375 
Q 15.484375 14.109375 19.4375 8.765625 
Q 23.390625 3.421875 31.109375 3.421875 
Q 37.015625 3.421875 40.796875 6.515625 
Q 44.578125 9.625 46.09375 15.71875 
L 53.328125 15.71875 
Q 51.171875 7.171875 45.375 2.875 
Q 39.59375 -1.421875 30.171875 -1.421875 
Q 18.796875 -1.421875 11.890625 6.078125 
Q 4.984375 13.578125 4.984375 25.984375 
Q 4.984375 38.28125 11.765625 45.796875 
Q 18.5625 53.328125 29.59375 53.328125 
Q 41.359375 53.328125 47.65625 46.0625 
Q 53.953125 38.8125 54.203125 25 
z
M 43.609375 30.171875 
Q 43.3125 39.265625 39.765625 43.875 
Q 36.234375 48.484375 29.59375 48.484375 
Q 23.390625 48.484375 19.828125 43.84375 
Q 16.265625 39.203125 15.484375 30.171875 
z
" id="DejaVuSerif-101"/>
       <path d="M 9.71875 68.015625 
Q 9.71875 70.265625 11.34375 71.921875 
Q 12.984375 73.578125 15.28125 73.578125 
Q 17.53125 73.578125 19.15625 71.921875 
Q 20.796875 70.265625 20.796875 68.015625 
Q 20.796875 65.71875 19.1875 64.109375 
Q 17.578125 62.5 15.28125 62.5 
Q 12.984375 62.5 11.34375 64.109375 
Q 9.71875 65.71875 9.71875 68.015625 
z
M 21.1875 5.171875 
L 29.6875 5.171875 
L 29.6875 0 
L 3.609375 0 
L 3.609375 5.171875 
L 12.203125 5.171875 
L 12.203125 46.6875 
L 3.609375 46.6875 
L 3.609375 51.90625 
L 21.1875 51.90625 
z
" id="DejaVuSerif-105"/>
       <path d="M 4 0 
L 4 4.203125 
L 36.53125 46.6875 
L 10.796875 46.6875 
L 10.796875 37.703125 
L 5.609375 37.703125 
L 5.609375 51.90625 
L 48.09375 51.90625 
L 48.09375 47.703125 
L 15.578125 5.171875 
L 43.796875 5.171875 
L 43.796875 14.59375 
L 49.03125 14.59375 
L 49.03125 0 
z
" id="DejaVuSerif-122"/>
      </defs>
      <g transform="translate(143.620313 609.7275)rotate(-90)scale(0.22 -0.22)">
       <use xlink:href="#DejaVuSerif-69"/>
       <use x="72.998047" xlink:href="#DejaVuSerif-109"/>
       <use x="167.822266" xlink:href="#DejaVuSerif-98"/>
       <use x="231.835938" xlink:href="#DejaVuSerif-101"/>
       <use x="291.015625" xlink:href="#DejaVuSerif-114"/>
       <use x="338.818359" xlink:href="#DejaVuSerif-105"/>
       <use x="370.800781" xlink:href="#DejaVuSerif-122"/>
       <use x="423.486328" xlink:href="#DejaVuSerif-97"/>
      </g>
     </g>
    </g>
    <g id="xtick_4">
     <g id="line2d_4">
      <g>
       <use style="stroke:#000000;stroke-width:0.8;" x="165.449688" xlink:href="#m322a1fbc9d" y="496.44"/>
      </g>
     </g>
     <g id="text_4">
      <!-- Euphonia -->
      <defs>
       <path d="M 20.515625 28.515625 
L 20.515625 23.390625 
Q 20.515625 14.015625 24.09375 9.109375 
Q 27.6875 4.203125 34.515625 4.203125 
Q 41.40625 4.203125 44.9375 9.71875 
Q 48.484375 15.234375 48.484375 25.984375 
Q 48.484375 36.765625 44.9375 42.234375 
Q 41.40625 47.703125 34.515625 47.703125 
Q 27.6875 47.703125 24.09375 42.765625 
Q 20.515625 37.84375 20.515625 28.515625 
z
M 11.53125 46.6875 
L 2.875 46.6875 
L 2.875 51.90625 
L 20.515625 51.90625 
L 20.515625 43.796875 
Q 23.140625 48.6875 27.21875 51 
Q 31.296875 53.328125 37.3125 53.328125 
Q 46.875 53.328125 52.921875 45.75 
Q 58.984375 38.1875 58.984375 25.984375 
Q 58.984375 13.765625 52.921875 6.171875 
Q 46.875 -1.421875 37.3125 -1.421875 
Q 31.296875 -1.421875 27.21875 0.890625 
Q 23.140625 3.21875 20.515625 8.109375 
L 20.515625 -15.578125 
L 29 -15.578125 
L 29 -20.796875 
L 2.875 -20.796875 
L 2.875 -15.578125 
L 11.53125 -15.578125 
z
" id="DejaVuSerif-112"/>
       <path d="M 4.109375 0 
L 4.109375 5.171875 
L 12.203125 5.171875 
L 12.203125 70.796875 
L 3.609375 70.796875 
L 3.609375 75.984375 
L 21.1875 75.984375 
L 21.1875 42.671875 
Q 23.6875 47.953125 27.65625 50.640625 
Q 31.640625 53.328125 36.921875 53.328125 
Q 45.515625 53.328125 49.5625 48.390625 
Q 53.609375 43.453125 53.609375 33.015625 
L 53.609375 5.171875 
L 61.625 5.171875 
L 61.625 0 
L 36.8125 0 
L 36.8125 5.171875 
L 44.578125 5.171875 
L 44.578125 30.171875 
Q 44.578125 39.703125 42.25 43.1875 
Q 39.9375 46.6875 33.984375 46.6875 
Q 27.734375 46.6875 24.453125 42.140625 
Q 21.1875 37.59375 21.1875 28.90625 
L 21.1875 5.171875 
L 29 5.171875 
L 29 0 
z
" id="DejaVuSerif-104"/>
       <path d="M 30.078125 3.421875 
Q 37.3125 3.421875 40.984375 9.125 
Q 44.671875 14.84375 44.671875 25.984375 
Q 44.671875 37.109375 40.984375 42.796875 
Q 37.3125 48.484375 30.078125 48.484375 
Q 22.859375 48.484375 19.171875 42.796875 
Q 15.484375 37.109375 15.484375 25.984375 
Q 15.484375 14.84375 19.1875 9.125 
Q 22.90625 3.421875 30.078125 3.421875 
z
M 30.078125 -1.421875 
Q 18.75 -1.421875 11.859375 6.078125 
Q 4.984375 13.578125 4.984375 25.984375 
Q 4.984375 38.375 11.84375 45.84375 
Q 18.703125 53.328125 30.078125 53.328125 
Q 41.453125 53.328125 48.3125 45.84375 
Q 55.171875 38.375 55.171875 25.984375 
Q 55.171875 13.578125 48.3125 6.078125 
Q 41.453125 -1.421875 30.078125 -1.421875 
z
" id="DejaVuSerif-111"/>
      </defs>
      <g transform="translate(171.520313 609.490312)rotate(-90)scale(0.22 -0.22)">
       <use xlink:href="#DejaVuSerif-69"/>
       <use x="72.998047" xlink:href="#DejaVuSerif-117"/>
       <use x="137.402344" xlink:href="#DejaVuSerif-112"/>
       <use x="201.416016" xlink:href="#DejaVuSerif-104"/>
       <use x="265.820312" xlink:href="#DejaVuSerif-111"/>
       <use x="326.025391" xlink:href="#DejaVuSerif-110"/>
       <use x="390.429688" xlink:href="#DejaVuSerif-105"/>
       <use x="422.412109" xlink:href="#DejaVuSerif-97"/>
      </g>
     </g>
    </g>
    <g id="xtick_5">
     <g id="line2d_5">
      <g>
       <use style="stroke:#000000;stroke-width:0.8;" x="193.349688" xlink:href="#m322a1fbc9d" y="496.44"/>
      </g>
     </g>
     <g id="text_5">
      <!-- Corvus -->
      <defs>
       <path d="M 70.515625 19.28125 
Q 67.28125 9.078125 59.6875 3.828125 
Q 52.09375 -1.421875 40.484375 -1.421875 
Q 33.34375 -1.421875 27.234375 1.015625 
Q 21.140625 3.46875 16.40625 8.203125 
Q 10.9375 13.671875 8.265625 20.625 
Q 5.609375 27.59375 5.609375 36.375 
Q 5.609375 53.375 15.421875 63.796875 
Q 25.25 74.21875 41.3125 74.21875 
Q 47.265625 74.21875 54 72.65625 
Q 60.75 71.09375 68.5 67.921875 
L 68.5 51.125 
L 62.984375 51.125 
Q 61.1875 60.296875 55.734375 64.640625 
Q 50.296875 69 40.484375 69 
Q 28.8125 69 22.796875 60.71875 
Q 16.796875 52.4375 16.796875 36.375 
Q 16.796875 20.359375 22.796875 12.078125 
Q 28.8125 3.8125 40.484375 3.8125 
Q 48.640625 3.8125 53.90625 7.6875 
Q 59.1875 11.578125 61.53125 19.28125 
z
" id="DejaVuSerif-67"/>
       <path d="M 24.703125 0 
L 5.609375 46.6875 
L -0.296875 46.6875 
L -0.296875 51.90625 
L 23.578125 51.90625 
L 23.578125 46.6875 
L 15.28125 46.6875 
L 29.890625 10.984375 
L 44.484375 46.6875 
L 36.71875 46.6875 
L 36.71875 51.90625 
L 56.203125 51.90625 
L 56.203125 46.6875 
L 50.390625 46.6875 
L 31.296875 0 
z
" id="DejaVuSerif-118"/>
      </defs>
      <g transform="translate(199.420313 581.921562)rotate(-90)scale(0.22 -0.22)">
       <use xlink:href="#DejaVuSerif-67"/>
       <use x="76.513672" xlink:href="#DejaVuSerif-111"/>
       <use x="136.71875" xlink:href="#DejaVuSerif-114"/>
       <use x="184.521484" xlink:href="#DejaVuSerif-118"/>
       <use x="241.015625" xlink:href="#DejaVuSerif-117"/>
       <use x="305.419922" xlink:href="#DejaVuSerif-115"/>
      </g>
     </g>
    </g>
    <g id="xtick_6">
     <g id="line2d_6">
      <g>
       <use style="stroke:#000000;stroke-width:0.8;" x="221.249688" xlink:href="#m322a1fbc9d" y="496.44"/>
      </g>
     </g>
     <g id="text_6">
      <!-- Anas -->
      <defs>
       <path d="M 20.015625 26.421875 
L 46.78125 26.421875 
L 33.40625 61.078125 
z
M -0.59375 0 
L -0.59375 5.171875 
L 5.8125 5.171875 
L 31.78125 72.90625 
L 39.984375 72.90625 
L 66.015625 5.171875 
L 73.1875 5.171875 
L 73.1875 0 
L 46.6875 0 
L 46.6875 5.171875 
L 54.78125 5.171875 
L 48.6875 21.1875 
L 18.015625 21.1875 
L 11.921875 5.171875 
L 19.921875 5.171875 
L 19.921875 0 
z
" id="DejaVuSerif-65"/>
      </defs>
      <g transform="translate(227.320313 557.90375)rotate(-90)scale(0.22 -0.22)">
       <use xlink:href="#DejaVuSerif-65"/>
       <use x="72.216797" xlink:href="#DejaVuSerif-110"/>
       <use x="136.621094" xlink:href="#DejaVuSerif-97"/>
       <use x="196.240234" xlink:href="#DejaVuSerif-115"/>
      </g>
     </g>
    </g>
    <g id="xtick_7">
     <g id="line2d_7">
      <g>
       <use style="stroke:#000000;stroke-width:0.8;" x="249.149687" xlink:href="#m322a1fbc9d" y="496.44"/>
      </g>
     </g>
     <g id="text_7">
      <!-- Basileuterus -->
      <defs>
       <path d="M 24.703125 5.171875 
L 39.3125 5.171875 
Q 48.09375 5.171875 52.140625 8.984375 
Q 56.203125 12.796875 56.203125 21.09375 
Q 56.203125 29.34375 52.171875 33.125 
Q 48.140625 36.921875 39.3125 36.921875 
L 24.703125 36.921875 
z
M 24.703125 42.09375 
L 37.109375 42.09375 
Q 45.125 42.09375 48.796875 45.171875 
Q 52.484375 48.25 52.484375 54.890625 
Q 52.484375 61.578125 48.796875 64.625 
Q 45.125 67.671875 37.109375 67.671875 
L 24.703125 67.671875 
z
M 5.515625 0 
L 5.515625 5.171875 
L 14.796875 5.171875 
L 14.796875 67.671875 
L 5.515625 67.671875 
L 5.515625 72.90625 
L 41.5 72.90625 
Q 52.546875 72.90625 58.125 68.390625 
Q 63.71875 63.875 63.71875 54.890625 
Q 63.71875 48.390625 59.828125 44.53125 
Q 55.953125 40.671875 48.484375 39.796875 
Q 57.765625 38.625 62.578125 33.859375 
Q 67.390625 29.109375 67.390625 21.09375 
Q 67.390625 10.25 60.546875 5.125 
Q 53.71875 0 39.203125 0 
z
" id="DejaVuSerif-66"/>
       <path d="M 20.515625 5.171875 
L 29 5.171875 
L 29 0 
L 2.875 0 
L 2.875 5.171875 
L 11.53125 5.171875 
L 11.53125 70.796875 
L 2.875 70.796875 
L 2.875 75.984375 
L 20.515625 75.984375 
z
" id="DejaVuSerif-108"/>
       <path d="M 10.796875 46.6875 
L 2.875 46.6875 
L 2.875 51.90625 
L 10.796875 51.90625 
L 10.796875 68.015625 
L 19.828125 68.015625 
L 19.828125 51.90625 
L 36.71875 51.90625 
L 36.71875 46.6875 
L 19.828125 46.6875 
L 19.828125 13.71875 
Q 19.828125 7.125 21.09375 5.265625 
Q 22.359375 3.421875 25.78125 3.421875 
Q 29.296875 3.421875 30.90625 5.484375 
Q 32.515625 7.5625 32.625 12.203125 
L 39.40625 12.203125 
Q 39.015625 5.125 35.546875 1.84375 
Q 32.078125 -1.421875 25 -1.421875 
Q 17.234375 -1.421875 14.015625 2.015625 
Q 10.796875 5.46875 10.796875 13.71875 
z
" id="DejaVuSerif-116"/>
      </defs>
      <g transform="translate(255.220313 643.1125)rotate(-90)scale(0.22 -0.22)">
       <use xlink:href="#DejaVuSerif-66"/>
       <use x="73.486328" xlink:href="#DejaVuSerif-97"/>
       <use x="133.105469" xlink:href="#DejaVuSerif-115"/>
       <use x="184.423828" xlink:href="#DejaVuSerif-105"/>
       <use x="216.40625" xlink:href="#DejaVuSerif-108"/>
       <use x="248.388672" xlink:href="#DejaVuSerif-101"/>
       <use x="307.568359" xlink:href="#DejaVuSerif-117"/>
       <use x="371.972656" xlink:href="#DejaVuSerif-116"/>
       <use x="412.158203" xlink:href="#DejaVuSerif-101"/>
       <use x="471.337891" xlink:href="#DejaVuSerif-114"/>
       <use x="519.140625" xlink:href="#DejaVuSerif-117"/>
       <use x="583.544922" xlink:href="#DejaVuSerif-115"/>
      </g>
     </g>
    </g>
    <g id="xtick_8">
     <g id="line2d_8">
      <g>
       <use style="stroke:#000000;stroke-width:0.8;" x="277.049688" xlink:href="#m322a1fbc9d" y="496.44"/>
      </g>
     </g>
     <g id="text_8">
      <!-- Sylvia -->
      <defs>
       <path d="M 9.28125 3.515625 
L 9.28125 20.125 
L 14.890625 20.0625 
Q 15.140625 11.765625 19.703125 7.78125 
Q 24.265625 3.8125 33.59375 3.8125 
Q 42.28125 3.8125 46.84375 7.25 
Q 51.421875 10.6875 51.421875 17.28125 
Q 51.421875 22.5625 48.65625 25.390625 
Q 45.90625 28.21875 37.015625 30.90625 
L 27.390625 33.796875 
Q 16.9375 36.96875 12.671875 41.703125 
Q 8.40625 46.4375 8.40625 54.6875 
Q 8.40625 63.96875 14.984375 69.09375 
Q 21.578125 74.21875 33.5 74.21875 
Q 38.578125 74.21875 44.625 73.109375 
Q 50.6875 72.015625 57.515625 69.921875 
L 57.515625 54.390625 
L 52 54.390625 
Q 51.171875 62.109375 46.84375 65.546875 
Q 42.53125 69 33.6875 69 
Q 25.984375 69 21.953125 65.84375 
Q 17.921875 62.703125 17.921875 56.6875 
Q 17.921875 51.46875 20.9375 48.484375 
Q 23.96875 45.515625 33.796875 42.578125 
L 42.828125 39.890625 
Q 52.734375 36.921875 56.953125 32.296875 
Q 61.1875 27.6875 61.1875 19.921875 
Q 61.1875 9.328125 54.390625 3.953125 
Q 47.609375 -1.421875 34.1875 -1.421875 
Q 28.171875 -1.421875 21.9375 -0.1875 
Q 15.71875 1.03125 9.28125 3.515625 
z
" id="DejaVuSerif-83"/>
       <path d="M 21.578125 -9.515625 
L 25 -0.875 
L 5.609375 46.6875 
L -0.296875 46.6875 
L -0.296875 51.90625 
L 23.578125 51.90625 
L 23.578125 46.6875 
L 15.28125 46.6875 
L 29.890625 10.984375 
L 44.484375 46.6875 
L 36.71875 46.6875 
L 36.71875 51.90625 
L 56.203125 51.90625 
L 56.203125 46.6875 
L 50.390625 46.6875 
L 26.609375 -11.71875 
Q 24.171875 -17.78125 21.1875 -20 
Q 18.21875 -22.21875 12.796875 -22.21875 
Q 10.5 -22.21875 8.078125 -21.828125 
Q 5.671875 -21.4375 3.21875 -20.703125 
L 3.21875 -10.796875 
L 7.8125 -10.796875 
Q 8.109375 -14.109375 9.5 -15.546875 
Q 10.890625 -17 13.8125 -17 
Q 16.5 -17 18.140625 -15.5 
Q 19.78125 -14.015625 21.578125 -9.515625 
z
" id="DejaVuSerif-121"/>
      </defs>
      <g transform="translate(282.963906 570.560625)rotate(-90)scale(0.22 -0.22)">
       <use xlink:href="#DejaVuSerif-83"/>
       <use x="68.505859" xlink:href="#DejaVuSerif-121"/>
       <use x="125" xlink:href="#DejaVuSerif-108"/>
       <use x="156.982422" xlink:href="#DejaVuSerif-118"/>
       <use x="213.476562" xlink:href="#DejaVuSerif-105"/>
       <use x="245.458984" xlink:href="#DejaVuSerif-97"/>
      </g>
     </g>
    </g>
    <g id="xtick_9">
     <g id="line2d_9">
      <g>
       <use style="stroke:#000000;stroke-width:0.8;" x="304.949687" xlink:href="#m322a1fbc9d" y="496.44"/>
      </g>
     </g>
     <g id="text_9">
      <!-- Sporophila -->
      <g transform="translate(311.020312 625.041563)rotate(-90)scale(0.22 -0.22)">
       <use xlink:href="#DejaVuSerif-83"/>
       <use x="68.505859" xlink:href="#DejaVuSerif-112"/>
       <use x="132.519531" xlink:href="#DejaVuSerif-111"/>
       <use x="192.724609" xlink:href="#DejaVuSerif-114"/>
       <use x="240.527344" xlink:href="#DejaVuSerif-111"/>
       <use x="300.732422" xlink:href="#DejaVuSerif-112"/>
       <use x="364.746094" xlink:href="#DejaVuSerif-104"/>
       <use x="429.150391" xlink:href="#DejaVuSerif-105"/>
       <use x="461.132812" xlink:href="#DejaVuSerif-108"/>
       <use x="493.115234" xlink:href="#DejaVuSerif-97"/>
      </g>
     </g>
    </g>
    <g id="xtick_10">
     <g id="line2d_10">
      <g>
       <use style="stroke:#000000;stroke-width:0.8;" x="332.849688" xlink:href="#m322a1fbc9d" y="496.44"/>
      </g>
     </g>
     <g id="text_10">
      <!-- Phylloscopus -->
      <defs>
       <path d="M 24.703125 37.109375 
L 37.59375 37.109375 
Q 44.875 37.109375 48.671875 41.03125 
Q 52.484375 44.96875 52.484375 52.390625 
Q 52.484375 59.859375 48.671875 63.765625 
Q 44.875 67.671875 37.59375 67.671875 
L 24.703125 67.671875 
z
M 5.515625 0 
L 5.515625 5.171875 
L 14.796875 5.171875 
L 14.796875 67.671875 
L 5.515625 67.671875 
L 5.515625 72.90625 
L 39.984375 72.90625 
Q 50.921875 72.90625 57.3125 67.359375 
Q 63.71875 61.8125 63.71875 52.390625 
Q 63.71875 43.015625 57.3125 37.453125 
Q 50.921875 31.890625 39.984375 31.890625 
L 24.703125 31.890625 
L 24.703125 5.171875 
L 35.984375 5.171875 
L 35.984375 0 
z
" id="DejaVuSerif-80"/>
       <path d="M 51.421875 15.578125 
Q 49.515625 7.28125 44.09375 2.921875 
Q 38.671875 -1.421875 30.078125 -1.421875 
Q 18.75 -1.421875 11.859375 6.078125 
Q 4.984375 13.578125 4.984375 25.984375 
Q 4.984375 38.421875 11.859375 45.875 
Q 18.75 53.328125 30.078125 53.328125 
Q 35.015625 53.328125 39.890625 52.171875 
Q 44.78125 51.03125 49.703125 48.6875 
L 49.703125 35.40625 
L 44.484375 35.40625 
Q 43.453125 42.234375 40.015625 45.359375 
Q 36.578125 48.484375 30.171875 48.484375 
Q 22.90625 48.484375 19.1875 42.84375 
Q 15.484375 37.203125 15.484375 25.984375 
Q 15.484375 14.75 19.171875 9.078125 
Q 22.859375 3.421875 30.171875 3.421875 
Q 35.984375 3.421875 39.453125 6.4375 
Q 42.921875 9.46875 44.1875 15.578125 
z
" id="DejaVuSerif-99"/>
      </defs>
      <g transform="translate(338.763906 648.554062)rotate(-90)scale(0.22 -0.22)">
       <use xlink:href="#DejaVuSerif-80"/>
       <use x="67.285156" xlink:href="#DejaVuSerif-104"/>
       <use x="131.689453" xlink:href="#DejaVuSerif-121"/>
       <use x="188.183594" xlink:href="#DejaVuSerif-108"/>
       <use x="220.166016" xlink:href="#DejaVuSerif-108"/>
       <use x="252.148438" xlink:href="#DejaVuSerif-111"/>
       <use x="312.353516" xlink:href="#DejaVuSerif-115"/>
       <use x="363.671875" xlink:href="#DejaVuSerif-99"/>
       <use x="419.677734" xlink:href="#DejaVuSerif-111"/>
       <use x="479.882812" xlink:href="#DejaVuSerif-112"/>
       <use x="543.896484" xlink:href="#DejaVuSerif-117"/>
       <use x="608.300781" xlink:href="#DejaVuSerif-115"/>
      </g>
     </g>
    </g>
    <g id="xtick_11">
     <g id="line2d_11">
      <g>
       <use style="stroke:#000000;stroke-width:0.8;" x="360.749688" xlink:href="#m322a1fbc9d" y="496.44"/>
      </g>
     </g>
     <g id="text_11">
      <!-- Pachyramphus -->
      <g transform="translate(366.663906 667.494688)rotate(-90)scale(0.22 -0.22)">
       <use xlink:href="#DejaVuSerif-80"/>
       <use x="62.785156" xlink:href="#DejaVuSerif-97"/>
       <use x="122.404297" xlink:href="#DejaVuSerif-99"/>
       <use x="178.410156" xlink:href="#DejaVuSerif-104"/>
       <use x="242.814453" xlink:href="#DejaVuSerif-121"/>
       <use x="299.308594" xlink:href="#DejaVuSerif-114"/>
       <use x="347.111328" xlink:href="#DejaVuSerif-97"/>
       <use x="406.730469" xlink:href="#DejaVuSerif-109"/>
       <use x="501.554688" xlink:href="#DejaVuSerif-112"/>
       <use x="565.568359" xlink:href="#DejaVuSerif-104"/>
       <use x="629.972656" xlink:href="#DejaVuSerif-117"/>
       <use x="694.376953" xlink:href="#DejaVuSerif-115"/>
      </g>
     </g>
    </g>
    <g id="xtick_12">
     <g id="line2d_12">
      <g>
       <use style="stroke:#000000;stroke-width:0.8;" x="388.649688" xlink:href="#m322a1fbc9d" y="496.44"/>
      </g>
     </g>
     <g id="text_12">
      <!-- Larus -->
      <defs>
       <path d="M 5.515625 0 
L 5.515625 5.171875 
L 14.796875 5.171875 
L 14.796875 67.671875 
L 5.515625 67.671875 
L 5.515625 72.90625 
L 33.984375 72.90625 
L 33.984375 67.671875 
L 24.703125 67.671875 
L 24.703125 6 
L 58.015625 6 
L 58.015625 18.21875 
L 64.015625 18.21875 
L 64.015625 0 
z
" id="DejaVuSerif-76"/>
      </defs>
      <g transform="translate(394.720313 567.140312)rotate(-90)scale(0.22 -0.22)">
       <use xlink:href="#DejaVuSerif-76"/>
       <use x="66.40625" xlink:href="#DejaVuSerif-97"/>
       <use x="126.025391" xlink:href="#DejaVuSerif-114"/>
       <use x="173.828125" xlink:href="#DejaVuSerif-117"/>
       <use x="238.232422" xlink:href="#DejaVuSerif-115"/>
      </g>
     </g>
    </g>
    <g id="xtick_13">
     <g id="line2d_13">
      <g>
       <use style="stroke:#000000;stroke-width:0.8;" x="416.549688" xlink:href="#m322a1fbc9d" y="496.44"/>
      </g>
     </g>
     <g id="text_13">
      <!-- Patagioenas -->
      <g transform="translate(422.3075 638.289688)rotate(-90)scale(0.22 -0.22)">
       <use xlink:href="#DejaVuSerif-80"/>
       <use x="62.785156" xlink:href="#DejaVuSerif-97"/>
       <use x="122.404297" xlink:href="#DejaVuSerif-116"/>
       <use x="162.589844" xlink:href="#DejaVuSerif-97"/>
       <use x="222.208984" xlink:href="#DejaVuSerif-103"/>
       <use x="286.222656" xlink:href="#DejaVuSerif-105"/>
       <use x="318.205078" xlink:href="#DejaVuSerif-111"/>
       <use x="378.410156" xlink:href="#DejaVuSerif-101"/>
       <use x="437.589844" xlink:href="#DejaVuSerif-110"/>
       <use x="501.994141" xlink:href="#DejaVuSerif-97"/>
       <use x="561.613281" xlink:href="#DejaVuSerif-115"/>
      </g>
     </g>
    </g>
    <g id="xtick_14">
     <g id="line2d_14">
      <g>
       <use style="stroke:#000000;stroke-width:0.8;" x="444.449687" xlink:href="#m322a1fbc9d" y="496.44"/>
      </g>
     </g>
     <g id="text_14">
      <!-- Dendrocopos -->
      <defs>
       <path d="M 24.703125 5.171875 
L 33.796875 5.171875 
Q 48 5.171875 55.59375 13.28125 
Q 63.1875 21.390625 63.1875 36.53125 
Q 63.1875 51.65625 55.609375 59.65625 
Q 48.046875 67.671875 33.796875 67.671875 
L 24.703125 67.671875 
z
M 5.515625 0 
L 5.515625 5.171875 
L 14.796875 5.171875 
L 14.796875 67.671875 
L 5.515625 67.671875 
L 5.515625 72.90625 
L 34.515625 72.90625 
Q 53.375 72.90625 63.890625 63.28125 
Q 74.421875 53.65625 74.421875 36.53125 
Q 74.421875 19.34375 63.875 9.671875 
Q 53.328125 0 34.515625 0 
z
" id="DejaVuSerif-68"/>
      </defs>
      <g transform="translate(450.520312 650.293437)rotate(-90)scale(0.22 -0.22)">
       <use xlink:href="#DejaVuSerif-68"/>
       <use x="80.175781" xlink:href="#DejaVuSerif-101"/>
       <use x="139.355469" xlink:href="#DejaVuSerif-110"/>
       <use x="203.759766" xlink:href="#DejaVuSerif-100"/>
       <use x="267.773438" xlink:href="#DejaVuSerif-114"/>
       <use x="315.576172" xlink:href="#DejaVuSerif-111"/>
       <use x="375.78125" xlink:href="#DejaVuSerif-99"/>
       <use x="431.787109" xlink:href="#DejaVuSerif-111"/>
       <use x="491.992188" xlink:href="#DejaVuSerif-112"/>
       <use x="556.005859" xlink:href="#DejaVuSerif-111"/>
       <use x="616.210938" xlink:href="#DejaVuSerif-115"/>
      </g>
     </g>
    </g>
    <g id="xtick_15">
     <g id="line2d_15">
      <g>
       <use style="stroke:#000000;stroke-width:0.8;" x="472.349687" xlink:href="#m322a1fbc9d" y="496.44"/>
      </g>
     </g>
     <g id="text_15">
      <!-- Aratinga -->
      <g transform="translate(478.1075 600.209062)rotate(-90)scale(0.22 -0.22)">
       <use xlink:href="#DejaVuSerif-65"/>
       <use x="72.216797" xlink:href="#DejaVuSerif-114"/>
       <use x="120.019531" xlink:href="#DejaVuSerif-97"/>
       <use x="179.638672" xlink:href="#DejaVuSerif-116"/>
       <use x="219.824219" xlink:href="#DejaVuSerif-105"/>
       <use x="251.806641" xlink:href="#DejaVuSerif-110"/>
       <use x="316.210938" xlink:href="#DejaVuSerif-103"/>
       <use x="380.224609" xlink:href="#DejaVuSerif-97"/>
      </g>
     </g>
    </g>
    <g id="xtick_16">
     <g id="line2d_16">
      <g>
       <use style="stroke:#000000;stroke-width:0.8;" x="500.249688" xlink:href="#m322a1fbc9d" y="496.44"/>
      </g>
     </g>
     <g id="text_16">
      <!-- Celeus -->
      <g transform="translate(506.320313 578.810625)rotate(-90)scale(0.22 -0.22)">
       <use xlink:href="#DejaVuSerif-67"/>
       <use x="76.513672" xlink:href="#DejaVuSerif-101"/>
       <use x="135.693359" xlink:href="#DejaVuSerif-108"/>
       <use x="167.675781" xlink:href="#DejaVuSerif-101"/>
       <use x="226.855469" xlink:href="#DejaVuSerif-117"/>
       <use x="291.259766" xlink:href="#DejaVuSerif-115"/>
      </g>
     </g>
    </g>
    <g id="xtick_17">
     <g id="line2d_17">
      <g>
       <use style="stroke:#000000;stroke-width:0.8;" x="528.149688" xlink:href="#m322a1fbc9d" y="496.44"/>
      </g>
     </g>
     <g id="text_17">
      <!-- Pycnonotus -->
      <g transform="translate(533.9075 632.119375)rotate(-90)scale(0.22 -0.22)">
       <use xlink:href="#DejaVuSerif-80"/>
       <use x="67.285156" xlink:href="#DejaVuSerif-121"/>
       <use x="123.779297" xlink:href="#DejaVuSerif-99"/>
       <use x="179.785156" xlink:href="#DejaVuSerif-110"/>
       <use x="244.189453" xlink:href="#DejaVuSerif-111"/>
       <use x="304.394531" xlink:href="#DejaVuSerif-110"/>
       <use x="368.798828" xlink:href="#DejaVuSerif-111"/>
       <use x="429.003906" xlink:href="#DejaVuSerif-116"/>
       <use x="469.189453" xlink:href="#DejaVuSerif-117"/>
       <use x="533.59375" xlink:href="#DejaVuSerif-115"/>
      </g>
     </g>
    </g>
    <g id="xtick_18">
     <g id="line2d_18">
      <g>
       <use style="stroke:#000000;stroke-width:0.8;" x="556.049688" xlink:href="#m322a1fbc9d" y="496.44"/>
      </g>
     </g>
     <g id="text_18">
      <!-- Carduelis -->
      <g transform="translate(562.120312 610.542187)rotate(-90)scale(0.22 -0.22)">
       <use xlink:href="#DejaVuSerif-67"/>
       <use x="76.513672" xlink:href="#DejaVuSerif-97"/>
       <use x="136.132812" xlink:href="#DejaVuSerif-114"/>
       <use x="183.935547" xlink:href="#DejaVuSerif-100"/>
       <use x="247.949219" xlink:href="#DejaVuSerif-117"/>
       <use x="312.353516" xlink:href="#DejaVuSerif-101"/>
       <use x="371.533203" xlink:href="#DejaVuSerif-108"/>
       <use x="403.515625" xlink:href="#DejaVuSerif-105"/>
       <use x="435.498047" xlink:href="#DejaVuSerif-115"/>
      </g>
     </g>
    </g>
    <g id="xtick_19">
     <g id="line2d_19">
      <g>
       <use style="stroke:#000000;stroke-width:0.8;" x="583.949687" xlink:href="#m322a1fbc9d" y="496.44"/>
      </g>
     </g>
     <g id="text_19">
      <!-- Thamnophilus -->
      <g transform="translate(590.020312 661.461875)rotate(-90)scale(0.22 -0.22)">
       <use xlink:href="#DejaVuSerif-84"/>
       <use x="66.699219" xlink:href="#DejaVuSerif-104"/>
       <use x="131.103516" xlink:href="#DejaVuSerif-97"/>
       <use x="190.722656" xlink:href="#DejaVuSerif-109"/>
       <use x="285.546875" xlink:href="#DejaVuSerif-110"/>
       <use x="349.951172" xlink:href="#DejaVuSerif-111"/>
       <use x="410.15625" xlink:href="#DejaVuSerif-112"/>
       <use x="474.169922" xlink:href="#DejaVuSerif-104"/>
       <use x="538.574219" xlink:href="#DejaVuSerif-105"/>
       <use x="570.556641" xlink:href="#DejaVuSerif-108"/>
       <use x="602.539062" xlink:href="#DejaVuSerif-117"/>
       <use x="666.943359" xlink:href="#DejaVuSerif-115"/>
      </g>
     </g>
    </g>
    <g id="xtick_20">
     <g id="line2d_20">
      <g>
       <use style="stroke:#000000;stroke-width:0.8;" x="611.849688" xlink:href="#m322a1fbc9d" y="496.44"/>
      </g>
     </g>
     <g id="text_20">
      <!-- Ficedula -->
      <defs>
       <path d="M 5.515625 0 
L 5.515625 5.171875 
L 14.796875 5.171875 
L 14.796875 67.671875 
L 5.515625 67.671875 
L 5.515625 72.90625 
L 65.1875 72.90625 
L 65.1875 56.6875 
L 59.1875 56.6875 
L 59.1875 66.890625 
L 24.703125 66.890625 
L 24.703125 42.484375 
L 49.609375 42.484375 
L 49.609375 51.609375 
L 55.609375 51.609375 
L 55.609375 27.390625 
L 49.609375 27.390625 
L 49.609375 36.53125 
L 24.703125 36.53125 
L 24.703125 5.171875 
L 36.375 5.171875 
L 36.375 0 
z
" id="DejaVuSerif-70"/>
      </defs>
      <g transform="translate(617.920313 599.490625)rotate(-90)scale(0.22 -0.22)">
       <use xlink:href="#DejaVuSerif-70"/>
       <use x="69.384766" xlink:href="#DejaVuSerif-105"/>
       <use x="101.367188" xlink:href="#DejaVuSerif-99"/>
       <use x="157.373047" xlink:href="#DejaVuSerif-101"/>
       <use x="216.552734" xlink:href="#DejaVuSerif-100"/>
       <use x="280.566406" xlink:href="#DejaVuSerif-117"/>
       <use x="344.970703" xlink:href="#DejaVuSerif-108"/>
       <use x="376.953125" xlink:href="#DejaVuSerif-97"/>
      </g>
     </g>
    </g>
    <g id="xtick_21">
     <g id="line2d_21">
      <g>
       <use style="stroke:#000000;stroke-width:0.8;" x="639.749688" xlink:href="#m322a1fbc9d" y="496.44"/>
      </g>
     </g>
     <g id="text_21">
      <!-- Garrulax -->
      <defs>
       <path d="M 64.015625 51.125 
Q 62.3125 60.25 56.890625 64.625 
Q 51.46875 69 41.796875 69 
Q 29.203125 69 23 60.890625 
Q 16.796875 52.78125 16.796875 36.375 
Q 16.796875 20.3125 23.1875 12.0625 
Q 29.59375 3.8125 42 3.8125 
Q 47.515625 3.8125 52.53125 5.171875 
Q 57.5625 6.546875 62.109375 9.28125 
L 62.109375 28.078125 
L 48.390625 28.078125 
L 48.390625 33.296875 
L 72.015625 33.296875 
L 72.015625 6.109375 
Q 65.53125 2.34375 58.03125 0.453125 
Q 50.53125 -1.421875 42 -1.421875 
Q 25.484375 -1.421875 15.546875 8.90625 
Q 5.609375 19.234375 5.609375 36.375 
Q 5.609375 53.65625 15.5625 63.9375 
Q 25.53125 74.21875 42.390625 74.21875 
Q 48.640625 74.21875 55.296875 72.78125 
Q 61.96875 71.34375 69.484375 68.40625 
L 69.484375 51.125 
z
" id="DejaVuSerif-71"/>
       <path d="M 29.109375 31.6875 
L 39.984375 46.6875 
L 33.015625 46.6875 
L 33.015625 51.90625 
L 52.984375 51.90625 
L 52.984375 46.6875 
L 46.09375 46.6875 
L 32.171875 27.484375 
L 48.390625 5.171875 
L 55.171875 5.171875 
L 55.171875 0 
L 31.203125 0 
L 31.203125 5.171875 
L 37.796875 5.171875 
L 26.515625 20.703125 
L 15.1875 5.171875 
L 21.921875 5.171875 
L 21.921875 0 
L 2.203125 0 
L 2.203125 5.171875 
L 9.078125 5.171875 
L 23.390625 24.90625 
L 7.625 46.6875 
L 1.21875 46.6875 
L 1.21875 51.90625 
L 24.421875 51.90625 
L 24.421875 46.6875 
L 18.21875 46.6875 
z
" id="DejaVuSerif-120"/>
      </defs>
      <g transform="translate(645.820312 601.893438)rotate(-90)scale(0.22 -0.22)">
       <use xlink:href="#DejaVuSerif-71"/>
       <use x="79.882812" xlink:href="#DejaVuSerif-97"/>
       <use x="139.501953" xlink:href="#DejaVuSerif-114"/>
       <use x="187.304688" xlink:href="#DejaVuSerif-114"/>
       <use x="235.107422" xlink:href="#DejaVuSerif-117"/>
       <use x="299.511719" xlink:href="#DejaVuSerif-108"/>
       <use x="331.494141" xlink:href="#DejaVuSerif-97"/>
       <use x="391.113281" xlink:href="#DejaVuSerif-120"/>
      </g>
     </g>
    </g>
    <g id="xtick_22">
     <g id="line2d_22">
      <g>
       <use style="stroke:#000000;stroke-width:0.8;" x="667.649688" xlink:href="#m322a1fbc9d" y="496.44"/>
      </g>
     </g>
     <g id="text_22">
      <!-- Myrmeciza -->
      <defs>
       <path d="M 5.515625 0 
L 5.515625 5.171875 
L 14.796875 5.171875 
L 14.796875 67.671875 
L 4.984375 67.671875 
L 4.984375 72.90625 
L 26.21875 72.90625 
L 51.8125 21 
L 77.390625 72.90625 
L 97.3125 72.90625 
L 97.3125 67.671875 
L 87.59375 67.671875 
L 87.59375 5.171875 
L 96.921875 5.171875 
L 96.921875 0 
L 68.40625 0 
L 68.40625 5.171875 
L 77.6875 5.171875 
L 77.6875 61.53125 
L 52.6875 10.6875 
L 45.796875 10.6875 
L 20.796875 61.53125 
L 20.796875 5.171875 
L 30.078125 5.171875 
L 30.078125 0 
z
" id="DejaVuSerif-77"/>
      </defs>
      <g transform="translate(673.4075 626.86)rotate(-90)scale(0.22 -0.22)">
       <use xlink:href="#DejaVuSerif-77"/>
       <use x="102.392578" xlink:href="#DejaVuSerif-121"/>
       <use x="158.886719" xlink:href="#DejaVuSerif-114"/>
       <use x="206.689453" xlink:href="#DejaVuSerif-109"/>
       <use x="301.513672" xlink:href="#DejaVuSerif-101"/>
       <use x="360.693359" xlink:href="#DejaVuSerif-99"/>
       <use x="416.699219" xlink:href="#DejaVuSerif-105"/>
       <use x="448.681641" xlink:href="#DejaVuSerif-122"/>
       <use x="501.367188" xlink:href="#DejaVuSerif-97"/>
      </g>
     </g>
    </g>
    <g id="xtick_23">
     <g id="line2d_23">
      <g>
       <use style="stroke:#000000;stroke-width:0.8;" x="695.549688" xlink:href="#m322a1fbc9d" y="496.44"/>
      </g>
     </g>
     <g id="text_23">
      <!-- Poecile -->
      <g transform="translate(701.620312 583.042187)rotate(-90)scale(0.22 -0.22)">
       <use xlink:href="#DejaVuSerif-80"/>
       <use x="63.285156" xlink:href="#DejaVuSerif-111"/>
       <use x="123.490234" xlink:href="#DejaVuSerif-101"/>
       <use x="182.669922" xlink:href="#DejaVuSerif-99"/>
       <use x="238.675781" xlink:href="#DejaVuSerif-105"/>
       <use x="270.658203" xlink:href="#DejaVuSerif-108"/>
       <use x="302.640625" xlink:href="#DejaVuSerif-101"/>
      </g>
     </g>
    </g>
    <g id="xtick_24">
     <g id="line2d_24">
      <g>
       <use style="stroke:#000000;stroke-width:0.8;" x="723.449687" xlink:href="#m322a1fbc9d" y="496.44"/>
      </g>
     </g>
     <g id="text_24">
      <!-- Cercomacra -->
      <g transform="translate(729.520312 639.307188)rotate(-90)scale(0.22 -0.22)">
       <use xlink:href="#DejaVuSerif-67"/>
       <use x="76.513672" xlink:href="#DejaVuSerif-101"/>
       <use x="135.693359" xlink:href="#DejaVuSerif-114"/>
       <use x="183.496094" xlink:href="#DejaVuSerif-99"/>
       <use x="239.501953" xlink:href="#DejaVuSerif-111"/>
       <use x="299.707031" xlink:href="#DejaVuSerif-109"/>
       <use x="394.53125" xlink:href="#DejaVuSerif-97"/>
       <use x="454.150391" xlink:href="#DejaVuSerif-99"/>
       <use x="510.15625" xlink:href="#DejaVuSerif-114"/>
       <use x="557.958984" xlink:href="#DejaVuSerif-97"/>
      </g>
     </g>
    </g>
    <g id="xtick_25">
     <g id="line2d_25">
      <g>
       <use style="stroke:#000000;stroke-width:0.8;" x="751.349687" xlink:href="#m322a1fbc9d" y="496.44"/>
      </g>
     </g>
     <g id="text_25">
      <!-- Jacana -->
      <defs>
       <path d="M -8.40625 -17.484375 
L -8.40625 -6 
L -2.828125 -6 
Q -2.6875 -10.84375 -0.53125 -13.203125 
Q 1.609375 -15.578125 5.90625 -15.578125 
Q 11.71875 -15.578125 14.015625 -11.90625 
Q 16.3125 -8.25 16.3125 2.390625 
L 16.3125 67.671875 
L 4.984375 67.671875 
L 4.984375 72.90625 
L 35.5 72.90625 
L 35.5 67.671875 
L 26.21875 67.671875 
L 26.21875 2 
Q 26.21875 -10.0625 21.375 -15.421875 
Q 16.546875 -20.796875 5.8125 -20.796875 
Q 2.34375 -20.796875 -1.234375 -19.96875 
Q -4.828125 -19.140625 -8.40625 -17.484375 
z
" id="DejaVuSerif-74"/>
      </defs>
      <g transform="translate(757.420312 578.1025)rotate(-90)scale(0.22 -0.22)">
       <use xlink:href="#DejaVuSerif-74"/>
       <use x="40.087891" xlink:href="#DejaVuSerif-97"/>
       <use x="99.707031" xlink:href="#DejaVuSerif-99"/>
       <use x="155.712891" xlink:href="#DejaVuSerif-97"/>
       <use x="215.332031" xlink:href="#DejaVuSerif-110"/>
       <use x="279.736328" xlink:href="#DejaVuSerif-97"/>
      </g>
     </g>
    </g>
    <g id="xtick_26">
     <g id="line2d_26">
      <g>
       <use style="stroke:#000000;stroke-width:0.8;" x="779.249688" xlink:href="#m322a1fbc9d" y="496.44"/>
      </g>
     </g>
     <g id="text_26">
      <!-- Anthus -->
      <g transform="translate(785.320312 581.96625)rotate(-90)scale(0.22 -0.22)">
       <use xlink:href="#DejaVuSerif-65"/>
       <use x="72.216797" xlink:href="#DejaVuSerif-110"/>
       <use x="136.621094" xlink:href="#DejaVuSerif-116"/>
       <use x="176.806641" xlink:href="#DejaVuSerif-104"/>
       <use x="241.210938" xlink:href="#DejaVuSerif-117"/>
       <use x="305.615234" xlink:href="#DejaVuSerif-115"/>
      </g>
     </g>
    </g>
    <g id="xtick_27">
     <g id="line2d_27">
      <g>
       <use style="stroke:#000000;stroke-width:0.8;" x="807.149688" xlink:href="#m322a1fbc9d" y="496.44"/>
      </g>
     </g>
     <g id="text_27">
      <!-- Penelope -->
      <g transform="translate(813.220312 604.849687)rotate(-90)scale(0.22 -0.22)">
       <use xlink:href="#DejaVuSerif-80"/>
       <use x="62.785156" xlink:href="#DejaVuSerif-101"/>
       <use x="121.964844" xlink:href="#DejaVuSerif-110"/>
       <use x="186.369141" xlink:href="#DejaVuSerif-101"/>
       <use x="245.548828" xlink:href="#DejaVuSerif-108"/>
       <use x="277.53125" xlink:href="#DejaVuSerif-111"/>
       <use x="337.736328" xlink:href="#DejaVuSerif-112"/>
       <use x="401.75" xlink:href="#DejaVuSerif-101"/>
      </g>
     </g>
    </g>
    <g id="xtick_28">
     <g id="line2d_28">
      <g>
       <use style="stroke:#000000;stroke-width:0.8;" x="835.049688" xlink:href="#m322a1fbc9d" y="496.44"/>
      </g>
     </g>
     <g id="text_28">
      <!-- Myrmotherula -->
      <g transform="translate(840.963906 663.88875)rotate(-90)scale(0.22 -0.22)">
       <use xlink:href="#DejaVuSerif-77"/>
       <use x="102.392578" xlink:href="#DejaVuSerif-121"/>
       <use x="158.886719" xlink:href="#DejaVuSerif-114"/>
       <use x="206.689453" xlink:href="#DejaVuSerif-109"/>
       <use x="301.513672" xlink:href="#DejaVuSerif-111"/>
       <use x="361.71875" xlink:href="#DejaVuSerif-116"/>
       <use x="401.904297" xlink:href="#DejaVuSerif-104"/>
       <use x="466.308594" xlink:href="#DejaVuSerif-101"/>
       <use x="525.488281" xlink:href="#DejaVuSerif-114"/>
       <use x="573.291016" xlink:href="#DejaVuSerif-117"/>
       <use x="637.695312" xlink:href="#DejaVuSerif-108"/>
       <use x="669.677734" xlink:href="#DejaVuSerif-97"/>
      </g>
     </g>
    </g>
    <g id="xtick_29">
     <g id="line2d_29">
      <g>
       <use style="stroke:#000000;stroke-width:0.8;" x="862.949687" xlink:href="#m322a1fbc9d" y="496.44"/>
      </g>
     </g>
     <g id="text_29">
      <!-- Caprimulgus -->
      <g transform="translate(868.863906 646.635937)rotate(-90)scale(0.22 -0.22)">
       <use xlink:href="#DejaVuSerif-67"/>
       <use x="76.513672" xlink:href="#DejaVuSerif-97"/>
       <use x="136.132812" xlink:href="#DejaVuSerif-112"/>
       <use x="200.146484" xlink:href="#DejaVuSerif-114"/>
       <use x="247.949219" xlink:href="#DejaVuSerif-105"/>
       <use x="279.931641" xlink:href="#DejaVuSerif-109"/>
       <use x="374.755859" xlink:href="#DejaVuSerif-117"/>
       <use x="439.160156" xlink:href="#DejaVuSerif-108"/>
       <use x="471.142578" xlink:href="#DejaVuSerif-103"/>
       <use x="535.15625" xlink:href="#DejaVuSerif-117"/>
       <use x="599.560547" xlink:href="#DejaVuSerif-115"/>
      </g>
     </g>
    </g>
    <g id="xtick_30">
     <g id="line2d_30">
      <g>
       <use style="stroke:#000000;stroke-width:0.8;" x="890.849687" xlink:href="#m322a1fbc9d" y="496.44"/>
      </g>
     </g>
     <g id="text_30">
      <!-- Xiphorhynchus -->
      <defs>
       <path d="M 33.109375 31.203125 
L 15.28125 5.171875 
L 24.703125 5.171875 
L 24.703125 0 
L 0.59375 0 
L 0.59375 5.171875 
L 8.984375 5.171875 
L 29.984375 35.796875 
L 8.6875 67.671875 
L 0.875 67.671875 
L 0.875 72.90625 
L 29.78125 72.90625 
L 29.78125 67.671875 
L 21.1875 67.671875 
L 36.8125 44.1875 
L 52.875 67.671875 
L 43.5 67.671875 
L 43.5 72.90625 
L 67.390625 72.90625 
L 67.390625 67.671875 
L 59.1875 67.671875 
L 39.890625 39.59375 
L 62.890625 5.171875 
L 70.703125 5.171875 
L 70.703125 0 
L 41.796875 0 
L 41.796875 5.171875 
L 50.484375 5.171875 
z
" id="DejaVuSerif-88"/>
      </defs>
      <g transform="translate(896.763906 670.866875)rotate(-90)scale(0.22 -0.22)">
       <use xlink:href="#DejaVuSerif-88"/>
       <use x="71.191406" xlink:href="#DejaVuSerif-105"/>
       <use x="103.173828" xlink:href="#DejaVuSerif-112"/>
       <use x="167.1875" xlink:href="#DejaVuSerif-104"/>
       <use x="231.591797" xlink:href="#DejaVuSerif-111"/>
       <use x="291.796875" xlink:href="#DejaVuSerif-114"/>
       <use x="339.599609" xlink:href="#DejaVuSerif-104"/>
       <use x="404.003906" xlink:href="#DejaVuSerif-121"/>
       <use x="460.498047" xlink:href="#DejaVuSerif-110"/>
       <use x="524.902344" xlink:href="#DejaVuSerif-99"/>
       <use x="580.908203" xlink:href="#DejaVuSerif-104"/>
       <use x="645.3125" xlink:href="#DejaVuSerif-117"/>
       <use x="709.716797" xlink:href="#DejaVuSerif-115"/>
      </g>
     </g>
    </g>
    <g id="text_31">
     <!-- Species -->
     <g transform="translate(443.379063 691.583437)scale(0.22 -0.22)">
      <use xlink:href="#DejaVuSerif-83"/>
      <use x="68.505859" xlink:href="#DejaVuSerif-112"/>
      <use x="132.519531" xlink:href="#DejaVuSerif-101"/>
      <use x="191.699219" xlink:href="#DejaVuSerif-99"/>
      <use x="247.705078" xlink:href="#DejaVuSerif-105"/>
      <use x="279.6875" xlink:href="#DejaVuSerif-101"/>
      <use x="338.867188" xlink:href="#DejaVuSerif-115"/>
     </g>
    </g>
   </g>
   <g id="matplotlib.axis_2">
    <g id="ytick_1">
     <g id="line2d_31">
      <defs>
       <path d="M 0 0 
L -3.5 0 
" id="m4ce786f940" style="stroke:#000000;stroke-width:0.8;"/>
      </defs>
      <g>
       <use style="stroke:#000000;stroke-width:0.8;" x="67.799688" xlink:href="#m4ce786f940" y="496.44"/>
      </g>
     </g>
     <g id="text_32">
      <!-- 0 -->
      <defs>
       <path d="M 31.78125 3.421875 
Q 39.265625 3.421875 42.96875 11.625 
Q 46.6875 19.828125 46.6875 36.375 
Q 46.6875 52.984375 42.96875 61.1875 
Q 39.265625 69.390625 31.78125 69.390625 
Q 24.3125 69.390625 20.59375 61.1875 
Q 16.890625 52.984375 16.890625 36.375 
Q 16.890625 19.828125 20.59375 11.625 
Q 24.3125 3.421875 31.78125 3.421875 
z
M 31.78125 -1.421875 
Q 19.921875 -1.421875 13.25 8.53125 
Q 6.59375 18.5 6.59375 36.375 
Q 6.59375 54.296875 13.25 64.25 
Q 19.921875 74.21875 31.78125 74.21875 
Q 43.703125 74.21875 50.34375 64.25 
Q 56.984375 54.296875 56.984375 36.375 
Q 56.984375 18.5 50.34375 8.53125 
Q 43.703125 -1.421875 31.78125 -1.421875 
z
" id="DejaVuSerif-48"/>
      </defs>
      <g transform="translate(46.802188 504.798281)scale(0.22 -0.22)">
       <use xlink:href="#DejaVuSerif-48"/>
      </g>
     </g>
    </g>
    <g id="ytick_2">
     <g id="line2d_32">
      <g>
       <use style="stroke:#000000;stroke-width:0.8;" x="67.799688" xlink:href="#m4ce786f940" y="438.197143"/>
      </g>
     </g>
     <g id="text_33">
      <!-- 2 -->
      <defs>
       <path d="M 12.796875 55.515625 
L 7.328125 55.515625 
L 7.328125 68.5 
Q 12.546875 71.296875 17.84375 72.75 
Q 23.140625 74.21875 28.21875 74.21875 
Q 39.59375 74.21875 46.1875 68.703125 
Q 52.78125 63.1875 52.78125 53.71875 
Q 52.78125 43.015625 37.84375 28.125 
Q 36.671875 27 36.078125 26.421875 
L 17.671875 8.015625 
L 48.09375 8.015625 
L 48.09375 17 
L 53.8125 17 
L 53.8125 0 
L 6.78125 0 
L 6.78125 5.328125 
L 28.90625 27.390625 
Q 36.234375 34.71875 39.359375 40.84375 
Q 42.484375 46.96875 42.484375 53.71875 
Q 42.484375 61.078125 38.640625 65.234375 
Q 34.8125 69.390625 28.078125 69.390625 
Q 21.09375 69.390625 17.28125 65.921875 
Q 13.484375 62.453125 12.796875 55.515625 
z
" id="DejaVuSerif-50"/>
      </defs>
      <g transform="translate(46.802188 446.555424)scale(0.22 -0.22)">
       <use xlink:href="#DejaVuSerif-50"/>
      </g>
     </g>
    </g>
    <g id="ytick_3">
     <g id="line2d_33">
      <g>
       <use style="stroke:#000000;stroke-width:0.8;" x="67.799688" xlink:href="#m4ce786f940" y="379.954286"/>
      </g>
     </g>
     <g id="text_34">
      <!-- 4 -->
      <defs>
       <path d="M 34.90625 24.703125 
L 34.90625 63.484375 
L 10.015625 24.703125 
z
M 56.390625 0 
L 23.1875 0 
L 23.1875 5.171875 
L 34.90625 5.171875 
L 34.90625 19.484375 
L 3.078125 19.484375 
L 3.078125 24.8125 
L 35.015625 74.21875 
L 44.671875 74.21875 
L 44.671875 24.703125 
L 58.59375 24.703125 
L 58.59375 19.484375 
L 44.671875 19.484375 
L 44.671875 5.171875 
L 56.390625 5.171875 
z
" id="DejaVuSerif-52"/>
      </defs>
      <g transform="translate(46.802188 388.312567)scale(0.22 -0.22)">
       <use xlink:href="#DejaVuSerif-52"/>
      </g>
     </g>
    </g>
    <g id="ytick_4">
     <g id="line2d_34">
      <g>
       <use style="stroke:#000000;stroke-width:0.8;" x="67.799688" xlink:href="#m4ce786f940" y="321.711429"/>
      </g>
     </g>
     <g id="text_35">
      <!-- 6 -->
      <defs>
       <path d="M 32.71875 3.421875 
Q 39.59375 3.421875 43.296875 8.46875 
Q 47.015625 13.53125 47.015625 23 
Q 47.015625 32.46875 43.296875 37.515625 
Q 39.59375 42.578125 32.71875 42.578125 
Q 25.734375 42.578125 22.0625 37.6875 
Q 18.40625 32.8125 18.40625 23.578125 
Q 18.40625 13.875 22.109375 8.640625 
Q 25.828125 3.421875 32.71875 3.421875 
z
M 16.796875 40.140625 
Q 20.125 43.796875 24.3125 45.59375 
Q 28.515625 47.40625 33.796875 47.40625 
Q 44.671875 47.40625 51 40.859375 
Q 57.328125 34.328125 57.328125 23 
Q 57.328125 11.921875 50.515625 5.25 
Q 43.703125 -1.421875 32.328125 -1.421875 
Q 19.96875 -1.421875 13.328125 7.78125 
Q 6.6875 17 6.6875 34.078125 
Q 6.6875 53.21875 14.546875 63.71875 
Q 22.40625 74.21875 36.71875 74.21875 
Q 40.578125 74.21875 44.828125 73.484375 
Q 49.078125 72.75 53.515625 71.296875 
L 53.515625 59.28125 
L 48 59.28125 
Q 47.40625 64.203125 44.234375 66.796875 
Q 41.0625 69.390625 35.6875 69.390625 
Q 26.21875 69.390625 21.578125 62.203125 
Q 16.9375 55.03125 16.796875 40.140625 
z
" id="DejaVuSerif-54"/>
      </defs>
      <g transform="translate(46.802188 330.06971)scale(0.22 -0.22)">
       <use xlink:href="#DejaVuSerif-54"/>
      </g>
     </g>
    </g>
    <g id="ytick_5">
     <g id="line2d_35">
      <g>
       <use style="stroke:#000000;stroke-width:0.8;" x="67.799688" xlink:href="#m4ce786f940" y="263.468571"/>
      </g>
     </g>
     <g id="text_36">
      <!-- 8 -->
      <defs>
       <path d="M 46.578125 19.921875 
Q 46.578125 27.734375 42.6875 32.046875 
Q 38.8125 36.375 31.78125 36.375 
Q 24.75 36.375 20.875 32.046875 
Q 17 27.734375 17 19.921875 
Q 17 12.0625 20.875 7.734375 
Q 24.75 3.421875 31.78125 3.421875 
Q 38.8125 3.421875 42.6875 7.734375 
Q 46.578125 12.0625 46.578125 19.921875 
z
M 44.578125 55.328125 
Q 44.578125 61.96875 41.203125 65.671875 
Q 37.84375 69.390625 31.78125 69.390625 
Q 25.78125 69.390625 22.390625 65.671875 
Q 19 61.96875 19 55.328125 
Q 19 48.640625 22.390625 44.921875 
Q 25.78125 41.21875 31.78125 41.21875 
Q 37.84375 41.21875 41.203125 44.921875 
Q 44.578125 48.640625 44.578125 55.328125 
z
M 39.3125 38.8125 
Q 47.609375 37.703125 52.25 32.6875 
Q 56.890625 27.6875 56.890625 19.921875 
Q 56.890625 9.671875 50.390625 4.125 
Q 43.890625 -1.421875 31.78125 -1.421875 
Q 19.734375 -1.421875 13.203125 4.125 
Q 6.6875 9.671875 6.6875 19.921875 
Q 6.6875 27.6875 11.328125 32.6875 
Q 15.96875 37.703125 24.3125 38.8125 
Q 16.9375 40.140625 13 44.40625 
Q 9.078125 48.6875 9.078125 55.328125 
Q 9.078125 64.109375 15.125 69.15625 
Q 21.1875 74.21875 31.78125 74.21875 
Q 42.390625 74.21875 48.4375 69.15625 
Q 54.5 64.109375 54.5 55.328125 
Q 54.5 48.6875 50.5625 44.40625 
Q 46.625 40.140625 39.3125 38.8125 
z
" id="DejaVuSerif-56"/>
      </defs>
      <g transform="translate(46.802188 271.826853)scale(0.22 -0.22)">
       <use xlink:href="#DejaVuSerif-56"/>
      </g>
     </g>
    </g>
    <g id="ytick_6">
     <g id="line2d_36">
      <g>
       <use style="stroke:#000000;stroke-width:0.8;" x="67.799688" xlink:href="#m4ce786f940" y="205.225714"/>
      </g>
     </g>
     <g id="text_37">
      <!-- 10 -->
      <defs>
       <path d="M 14.203125 0 
L 14.203125 5.171875 
L 26.90625 5.171875 
L 26.90625 65.828125 
L 12.203125 56.296875 
L 12.203125 62.703125 
L 29.984375 74.21875 
L 36.71875 74.21875 
L 36.71875 5.171875 
L 49.421875 5.171875 
L 49.421875 0 
z
" id="DejaVuSerif-49"/>
      </defs>
      <g transform="translate(32.804688 213.583996)scale(0.22 -0.22)">
       <use xlink:href="#DejaVuSerif-49"/>
       <use x="63.623047" xlink:href="#DejaVuSerif-48"/>
      </g>
     </g>
    </g>
    <g id="ytick_7">
     <g id="line2d_37">
      <g>
       <use style="stroke:#000000;stroke-width:0.8;" x="67.799688" xlink:href="#m4ce786f940" y="146.982857"/>
      </g>
     </g>
     <g id="text_38">
      <!-- 12 -->
      <g transform="translate(32.804688 155.341138)scale(0.22 -0.22)">
       <use xlink:href="#DejaVuSerif-49"/>
       <use x="63.623047" xlink:href="#DejaVuSerif-50"/>
      </g>
     </g>
    </g>
    <g id="ytick_8">
     <g id="line2d_38">
      <g>
       <use style="stroke:#000000;stroke-width:0.8;" x="67.799688" xlink:href="#m4ce786f940" y="88.74"/>
      </g>
     </g>
     <g id="text_39">
      <!-- 14 -->
      <g transform="translate(32.804688 97.098281)scale(0.22 -0.22)">
       <use xlink:href="#DejaVuSerif-49"/>
       <use x="63.623047" xlink:href="#DejaVuSerif-52"/>
      </g>
     </g>
    </g>
    <g id="ytick_9">
     <g id="line2d_39">
      <g>
       <use style="stroke:#000000;stroke-width:0.8;" x="67.799688" xlink:href="#m4ce786f940" y="30.497143"/>
      </g>
     </g>
     <g id="text_40">
      <!-- 16 -->
      <g transform="translate(32.804688 38.855424)scale(0.22 -0.22)">
       <use xlink:href="#DejaVuSerif-49"/>
       <use x="63.623047" xlink:href="#DejaVuSerif-54"/>
      </g>
     </g>
    </g>
    <g id="text_41">
     <!-- Removed Samples Percentage (%) -->
     <defs>
      <path d="M 47.90625 36.1875 
Q 51.3125 35.25 53.78125 33.03125 
Q 56.25 30.8125 58.203125 26.8125 
L 68.796875 5.171875 
L 77.6875 5.171875 
L 77.6875 0 
L 60.5 0 
L 49.125 23.1875 
Q 45.84375 29.9375 43.109375 31.90625 
Q 40.375 33.890625 35.59375 33.890625 
L 24.703125 33.890625 
L 24.703125 5.171875 
L 35.015625 5.171875 
L 35.015625 0 
L 5.515625 0 
L 5.515625 5.171875 
L 14.796875 5.171875 
L 14.796875 67.671875 
L 5.515625 67.671875 
L 5.515625 72.90625 
L 42.484375 72.90625 
Q 53.125 72.90625 58.90625 67.828125 
Q 64.703125 62.75 64.703125 53.421875 
Q 64.703125 45.90625 60.46875 41.578125 
Q 56.25 37.25 47.90625 36.1875 
z
M 24.703125 39.109375 
L 39.109375 39.109375 
Q 46.484375 39.109375 50 42.59375 
Q 53.515625 46.09375 53.515625 53.421875 
Q 53.515625 60.75 50 64.203125 
Q 46.484375 67.671875 39.109375 67.671875 
L 24.703125 67.671875 
z
" id="DejaVuSerif-82"/>
      <path id="DejaVuSerif-32"/>
      <path d="M 31.890625 -15.578125 
Q 20.015625 -10.25 13.953125 1.296875 
Q 7.90625 12.84375 7.90625 30.171875 
Q 7.90625 47.5625 13.953125 59.109375 
Q 20.015625 70.65625 31.890625 75.984375 
L 31.890625 71.1875 
Q 24.359375 66.015625 21.09375 56.609375 
Q 17.828125 47.21875 17.828125 30.171875 
Q 17.828125 13.1875 21.09375 3.78125 
Q 24.359375 -5.609375 31.890625 -10.796875 
z
" id="DejaVuSerif-40"/>
      <path d="M 22.40625 69.671875 
Q 18.109375 69.671875 15.6875 65.625 
Q 13.28125 61.578125 13.28125 54.296875 
Q 13.28125 47.125 15.75 43.015625 
Q 18.21875 38.921875 22.40625 38.921875 
Q 26.5625 38.921875 28.96875 43 
Q 31.390625 47.078125 31.390625 54.296875 
Q 31.390625 61.53125 28.96875 65.59375 
Q 26.5625 69.671875 22.40625 69.671875 
z
M 72.703125 33.890625 
Q 68.453125 33.890625 66.03125 29.78125 
Q 63.625 25.6875 63.625 18.40625 
Q 63.625 11.234375 66.0625 7.15625 
Q 68.5 3.078125 72.703125 3.078125 
Q 76.90625 3.078125 79.296875 7.15625 
Q 81.6875 11.234375 81.6875 18.40625 
Q 81.6875 25.640625 79.265625 29.765625 
Q 76.859375 33.890625 72.703125 33.890625 
z
M 72.703125 38.28125 
Q 80.421875 38.28125 84.953125 32.90625 
Q 89.5 27.546875 89.5 18.40625 
Q 89.5 9.28125 84.9375 3.921875 
Q 80.375 -1.421875 72.703125 -1.421875 
Q 64.890625 -1.421875 60.34375 3.921875 
Q 55.8125 9.28125 55.8125 18.40625 
Q 55.8125 27.59375 60.375 32.9375 
Q 64.9375 38.28125 72.703125 38.28125 
z
M 66.609375 74.21875 
L 74.03125 74.21875 
L 28.421875 -1.421875 
L 21 -1.421875 
z
M 22.3125 74.21875 
Q 30.03125 74.21875 34.609375 68.875 
Q 39.203125 63.53125 39.203125 54.390625 
Q 39.203125 45.171875 34.640625 39.84375 
Q 30.078125 34.515625 22.3125 34.515625 
Q 14.546875 34.515625 10.03125 39.859375 
Q 5.515625 45.21875 5.515625 54.390625 
Q 5.515625 63.484375 10.046875 68.84375 
Q 14.59375 74.21875 22.3125 74.21875 
z
" id="DejaVuSerif-37"/>
      <path d="M 7.078125 -15.578125 
L 7.078125 -10.796875 
Q 14.59375 -5.609375 17.890625 3.78125 
Q 21.1875 13.1875 21.1875 30.171875 
Q 21.1875 47.21875 17.890625 56.609375 
Q 14.59375 66.015625 7.078125 71.1875 
L 7.078125 75.984375 
Q 19 70.65625 25.046875 59.109375 
Q 31.109375 47.5625 31.109375 30.171875 
Q 31.109375 12.84375 25.046875 1.296875 
Q 19 -10.25 7.078125 -15.578125 
z
" id="DejaVuSerif-41"/>
     </defs>
     <g transform="translate(23.916563 443.158125)rotate(-90)scale(0.22 -0.22)">
      <use xlink:href="#DejaVuSerif-82"/>
      <use x="75.292969" xlink:href="#DejaVuSerif-101"/>
      <use x="134.472656" xlink:href="#DejaVuSerif-109"/>
      <use x="229.296875" xlink:href="#DejaVuSerif-111"/>
      <use x="289.501953" xlink:href="#DejaVuSerif-118"/>
      <use x="345.996094" xlink:href="#DejaVuSerif-101"/>
      <use x="405.175781" xlink:href="#DejaVuSerif-100"/>
      <use x="469.189453" xlink:href="#DejaVuSerif-32"/>
      <use x="500.976562" xlink:href="#DejaVuSerif-83"/>
      <use x="569.482422" xlink:href="#DejaVuSerif-97"/>
      <use x="629.101562" xlink:href="#DejaVuSerif-109"/>
      <use x="723.925781" xlink:href="#DejaVuSerif-112"/>
      <use x="787.939453" xlink:href="#DejaVuSerif-108"/>
      <use x="819.921875" xlink:href="#DejaVuSerif-101"/>
      <use x="879.101562" xlink:href="#DejaVuSerif-115"/>
      <use x="930.419922" xlink:href="#DejaVuSerif-32"/>
      <use x="962.207031" xlink:href="#DejaVuSerif-80"/>
      <use x="1024.992188" xlink:href="#DejaVuSerif-101"/>
      <use x="1084.171875" xlink:href="#DejaVuSerif-114"/>
      <use x="1131.974609" xlink:href="#DejaVuSerif-99"/>
      <use x="1187.980469" xlink:href="#DejaVuSerif-101"/>
      <use x="1247.160156" xlink:href="#DejaVuSerif-110"/>
      <use x="1311.564453" xlink:href="#DejaVuSerif-116"/>
      <use x="1351.75" xlink:href="#DejaVuSerif-97"/>
      <use x="1411.369141" xlink:href="#DejaVuSerif-103"/>
      <use x="1475.382812" xlink:href="#DejaVuSerif-101"/>
      <use x="1534.5625" xlink:href="#DejaVuSerif-32"/>
      <use x="1566.349609" xlink:href="#DejaVuSerif-40"/>
      <use x="1605.363281" xlink:href="#DejaVuSerif-37"/>
      <use x="1700.382812" xlink:href="#DejaVuSerif-41"/>
     </g>
    </g>
   </g>
   <g id="patch_33">
    <path d="M 67.799688 496.44 
L 67.799688 7.2 
" style="fill:none;stroke:#000000;stroke-linecap:square;stroke-linejoin:miter;stroke-width:0.8;"/>
   </g>
   <g id="patch_34">
    <path d="M 904.799688 496.44 
L 904.799688 7.2 
" style="fill:none;stroke:#000000;stroke-linecap:square;stroke-linejoin:miter;stroke-width:0.8;"/>
   </g>
   <g id="patch_35">
    <path d="M 67.799688 496.44 
L 904.799688 496.44 
" style="fill:none;stroke:#000000;stroke-linecap:square;stroke-linejoin:miter;stroke-width:0.8;"/>
   </g>
   <g id="patch_36">
    <path d="M 67.799688 7.2 
L 904.799688 7.2 
" style="fill:none;stroke:#000000;stroke-linecap:square;stroke-linejoin:miter;stroke-width:0.8;"/>
   </g>
  </g>
 </g>
 <defs>
  <clipPath id="p290c429997">
   <rect height="489.24" width="837" x="67.799688" y="7.2"/>
  </clipPath>
 </defs>
 <defs>
  <pattern height="72" id="h713bd0e1d4" patternUnits="userSpaceOnUse" width="72" x="0" y="0">
   <rect fill="#ffffff" height="73" width="73" x="0" y="0"/>
   <path d="M -36 36 
L 36 -36 
M -30 42 
L 42 -30 
M -24 48 
L 48 -24 
M -18 54 
L 54 -18 
M -12 60 
L 60 -12 
M -6 66 
L 66 -6 
M 0 72 
L 72 0 
M 6 78 
L 78 6 
M 12 84 
L 84 12 
M 18 90 
L 90 18 
M 24 96 
L 96 24 
M 30 102 
L 102 30 
M 36 108 
L 108 36 
M -36 36 
L 36 108 
M -30 30 
L 42 102 
M -24 24 
L 48 96 
M -18 18 
L 54 90 
M -12 12 
L 60 84 
M -6 6 
L 66 78 
M 0 0 
L 72 72 
M 6 -6 
L 78 66 
M 12 -12 
L 84 60 
M 18 -18 
L 90 54 
M 24 -24 
L 96 48 
M 30 -30 
L 102 42 
M 36 -36 
L 108 36 
" style="fill:#000000;stroke:#000000;stroke-linecap:butt;stroke-linejoin:miter;stroke-width:1.0;"/>
  </pattern>
 </defs>
</svg>
