<?xml version="1.0" encoding="utf-8" standalone="no"?>
<!DOCTYPE svg PUBLIC "-//W3C//DTD SVG 1.1//EN"
  "http://www.w3.org/Graphics/SVG/1.1/DTD/svg11.dtd">
<!-- Created with matplotlib (https://matplotlib.org/) -->
<svg height="390.210156pt" version="1.1" viewBox="0 0 667.67375 390.210156" width="667.67375pt" xmlns="http://www.w3.org/2000/svg" xmlns:xlink="http://www.w3.org/1999/xlink">
 <defs>
  <style type="text/css">
*{stroke-linecap:butt;stroke-linejoin:round;}
  </style>
 </defs>
 <g id="figure_1">
  <g id="patch_1">
   <path d="M 0 390.210156 
L 667.67375 390.210156 
L 667.67375 0 
L 0 0 
z
" style="fill:#ffffff;"/>
  </g>
  <g id="axes_1">
   <g id="patch_2">
    <path d="M 102.47375 370.076562 
L 660.47375 370.076562 
L 660.47375 43.916562 
L 102.47375 43.916562 
z
" style="fill:#ffffff;"/>
   </g>
   <g id="patch_3">
    <path clip-path="url(#p0ae6920b6c)" d="M 127.837386 370.076562 
L 134.048889 370.076562 
L 134.048889 369.755333 
L 127.837386 369.755333 
z
" style="fill:#808080;"/>
   </g>
   <g id="patch_4">
    <path clip-path="url(#p0ae6920b6c)" d="M 131.978388 370.076562 
L 138.189891 370.076562 
L 138.189891 368.470417 
L 131.978388 368.470417 
z
" style="fill:#808080;"/>
   </g>
   <g id="patch_5">
    <path clip-path="url(#p0ae6920b6c)" d="M 136.11939 370.076562 
L 142.330893 370.076562 
L 142.330893 358.191085 
L 136.11939 358.191085 
z
" style="fill:#808080;"/>
   </g>
   <g id="patch_6">
    <path clip-path="url(#p0ae6920b6c)" d="M 140.260392 370.076562 
L 146.471895 370.076562 
L 146.471895 363.330751 
L 140.260392 363.330751 
z
" style="fill:#808080;"/>
   </g>
   <g id="patch_7">
    <path clip-path="url(#p0ae6920b6c)" d="M 144.401394 370.076562 
L 150.612897 370.076562 
L 150.612897 358.191085 
L 144.401394 358.191085 
z
" style="fill:#808080;"/>
   </g>
   <g id="patch_8">
    <path clip-path="url(#p0ae6920b6c)" d="M 148.542396 370.076562 
L 154.753898 370.076562 
L 154.753898 292.017883 
L 148.542396 292.017883 
z
" style="fill:#808080;"/>
   </g>
   <g id="patch_9">
    <path clip-path="url(#p0ae6920b6c)" d="M 152.683397 370.076562 
L 158.8949 370.076562 
L 158.8949 353.051418 
L 152.683397 353.051418 
z
" style="fill:#808080;"/>
   </g>
   <g id="patch_10">
    <path clip-path="url(#p0ae6920b6c)" d="M 156.824399 370.076562 
L 163.035902 370.076562 
L 163.035902 364.294438 
L 156.824399 364.294438 
z
" style="fill:#808080;"/>
   </g>
   <g id="patch_11">
    <path clip-path="url(#p0ae6920b6c)" d="M 160.965401 370.076562 
L 167.176904 370.076562 
L 167.176904 351.445273 
L 160.965401 351.445273 
z
" style="fill:#808080;"/>
   </g>
   <g id="patch_12">
    <path clip-path="url(#p0ae6920b6c)" d="M 165.106403 370.076562 
L 171.317906 370.076562 
L 171.317906 366.864271 
L 165.106403 366.864271 
z
" style="fill:#808080;"/>
   </g>
   <g id="patch_13">
    <path clip-path="url(#p0ae6920b6c)" d="M 169.247405 370.076562 
L 175.458908 370.076562 
L 175.458908 367.1855 
L 169.247405 367.1855 
z
" style="fill:#808080;"/>
   </g>
   <g id="patch_14">
    <path clip-path="url(#p0ae6920b6c)" d="M 173.388407 370.076562 
L 179.59991 370.076562 
L 179.59991 363.330751 
L 173.388407 363.330751 
z
" style="fill:#808080;"/>
   </g>
   <g id="patch_15">
    <path clip-path="url(#p0ae6920b6c)" d="M 177.529409 370.076562 
L 183.740911 370.076562 
L 183.740911 360.760918 
L 177.529409 360.760918 
z
" style="fill:#808080;"/>
   </g>
   <g id="patch_16">
    <path clip-path="url(#p0ae6920b6c)" d="M 181.67041 370.076562 
L 187.881913 370.076562 
L 187.881913 366.864271 
L 181.67041 366.864271 
z
" style="fill:#808080;"/>
   </g>
   <g id="patch_17">
    <path clip-path="url(#p0ae6920b6c)" d="M 185.811412 370.076562 
L 192.022915 370.076562 
L 192.022915 365.579355 
L 185.811412 365.579355 
z
" style="fill:#808080;"/>
   </g>
   <g id="patch_18">
    <path clip-path="url(#p0ae6920b6c)" d="M 189.952414 370.076562 
L 196.163917 370.076562 
L 196.163917 358.191085 
L 189.952414 358.191085 
z
" style="fill:#808080;"/>
   </g>
   <g id="patch_19">
    <path clip-path="url(#p0ae6920b6c)" d="M 194.093416 370.076562 
L 200.304919 370.076562 
L 200.304919 369.755333 
L 194.093416 369.755333 
z
" style="fill:#808080;"/>
   </g>
   <g id="patch_20">
    <path clip-path="url(#p0ae6920b6c)" d="M 198.234418 370.076562 
L 204.445921 370.076562 
L 204.445921 355.300022 
L 198.234418 355.300022 
z
" style="fill:#808080;"/>
   </g>
   <g id="patch_21">
    <path clip-path="url(#p0ae6920b6c)" d="M 202.37542 370.076562 
L 208.586923 370.076562 
L 208.586923 368.791646 
L 202.37542 368.791646 
z
" style="fill:#808080;"/>
   </g>
   <g id="patch_22">
    <path clip-path="url(#p0ae6920b6c)" d="M 206.516422 370.076562 
L 212.727924 370.076562 
L 212.727924 364.936896 
L 206.516422 364.936896 
z
" style="fill:#808080;"/>
   </g>
   <g id="patch_23">
    <path clip-path="url(#p0ae6920b6c)" d="M 210.657423 370.076562 
L 216.868926 370.076562 
L 216.868926 369.434104 
L 210.657423 369.434104 
z
" style="fill:#808080;"/>
   </g>
   <g id="patch_24">
    <path clip-path="url(#p0ae6920b6c)" d="M 214.798425 370.076562 
L 221.009928 370.076562 
L 221.009928 369.755333 
L 214.798425 369.755333 
z
" style="fill:#808080;"/>
   </g>
   <g id="patch_25">
    <path clip-path="url(#p0ae6920b6c)" d="M 218.939427 370.076562 
L 225.15093 370.076562 
L 225.15093 365.900584 
L 218.939427 365.900584 
z
" style="fill:#808080;"/>
   </g>
   <g id="patch_26">
    <path clip-path="url(#p0ae6920b6c)" d="M 223.080429 370.076562 
L 229.291932 370.076562 
L 229.291932 369.434104 
L 223.080429 369.434104 
z
" style="fill:#808080;"/>
   </g>
   <g id="patch_27">
    <path clip-path="url(#p0ae6920b6c)" d="M 227.221431 370.076562 
L 233.432934 370.076562 
L 233.432934 361.082147 
L 227.221431 361.082147 
z
" style="fill:#808080;"/>
   </g>
   <g id="patch_28">
    <path clip-path="url(#p0ae6920b6c)" d="M 231.362433 370.076562 
L 237.573936 370.076562 
L 237.573936 368.791646 
L 231.362433 368.791646 
z
" style="fill:#808080;"/>
   </g>
   <g id="patch_29">
    <path clip-path="url(#p0ae6920b6c)" d="M 235.503435 370.076562 
L 241.714937 370.076562 
L 241.714937 368.470417 
L 235.503435 368.470417 
z
" style="fill:#808080;"/>
   </g>
   <g id="patch_30">
    <path clip-path="url(#p0ae6920b6c)" d="M 239.644436 370.076562 
L 245.855939 370.076562 
L 245.855939 368.470417 
L 239.644436 368.470417 
z
" style="fill:#808080;"/>
   </g>
   <g id="patch_31">
    <path clip-path="url(#p0ae6920b6c)" d="M 243.785438 370.076562 
L 249.996941 370.076562 
L 249.996941 369.112875 
L 243.785438 369.112875 
z
" style="fill:#808080;"/>
   </g>
   <g id="patch_32">
    <path clip-path="url(#p0ae6920b6c)" d="M 247.92644 370.076562 
L 254.137943 370.076562 
L 254.137943 331.529067 
L 247.92644 331.529067 
z
" style="fill:#808080;"/>
   </g>
   <g id="patch_33">
    <path clip-path="url(#p0ae6920b6c)" d="M 252.067442 370.076562 
L 258.278945 370.076562 
L 258.278945 349.196669 
L 252.067442 349.196669 
z
" style="fill:#808080;"/>
   </g>
   <g id="patch_34">
    <path clip-path="url(#p0ae6920b6c)" d="M 256.208444 370.076562 
L 262.419947 370.076562 
L 262.419947 362.045834 
L 256.208444 362.045834 
z
" style="fill:#808080;"/>
   </g>
   <g id="patch_35">
    <path clip-path="url(#p0ae6920b6c)" d="M 260.349446 370.076562 
L 266.560949 370.076562 
L 266.560949 366.543042 
L 260.349446 366.543042 
z
" style="fill:#808080;"/>
   </g>
   <g id="patch_36">
    <path clip-path="url(#p0ae6920b6c)" d="M 264.490448 370.076562 
L 270.70195 370.076562 
L 270.70195 350.160356 
L 264.490448 350.160356 
z
" style="fill:#808080;"/>
   </g>
   <g id="patch_37">
    <path clip-path="url(#p0ae6920b6c)" d="M 268.631449 370.076562 
L 274.842952 370.076562 
L 274.842952 369.434104 
L 268.631449 369.434104 
z
" style="fill:#808080;"/>
   </g>
   <g id="patch_38">
    <path clip-path="url(#p0ae6920b6c)" d="M 272.772451 370.076562 
L 278.983954 370.076562 
L 278.983954 369.755333 
L 272.772451 369.755333 
z
" style="fill:#808080;"/>
   </g>
   <g id="patch_39">
    <path clip-path="url(#p0ae6920b6c)" d="M 276.913453 370.076562 
L 283.124956 370.076562 
L 283.124956 369.755333 
L 276.913453 369.755333 
z
" style="fill:#808080;"/>
   </g>
   <g id="patch_40">
    <path clip-path="url(#p0ae6920b6c)" d="M 281.054455 370.076562 
L 287.265958 370.076562 
L 287.265958 357.869855 
L 281.054455 357.869855 
z
" style="fill:#808080;"/>
   </g>
   <g id="patch_41">
    <path clip-path="url(#p0ae6920b6c)" d="M 285.195457 370.076562 
L 291.40696 370.076562 
L 291.40696 355.300022 
L 285.195457 355.300022 
z
" style="fill:#808080;"/>
   </g>
   <g id="patch_42">
    <path clip-path="url(#p0ae6920b6c)" d="M 289.336459 370.076562 
L 295.547962 370.076562 
L 295.547962 348.232981 
L 289.336459 348.232981 
z
" style="fill:#808080;"/>
   </g>
   <g id="patch_43">
    <path clip-path="url(#p0ae6920b6c)" d="M 293.477461 370.076562 
L 299.688963 370.076562 
L 299.688963 369.755333 
L 293.477461 369.755333 
z
" style="fill:#808080;"/>
   </g>
   <g id="patch_44">
    <path clip-path="url(#p0ae6920b6c)" d="M 297.618462 370.076562 
L 303.829965 370.076562 
L 303.829965 367.506729 
L 297.618462 367.506729 
z
" style="fill:#808080;"/>
   </g>
   <g id="patch_45">
    <path clip-path="url(#p0ae6920b6c)" d="M 301.759464 370.076562 
L 307.970967 370.076562 
L 307.970967 356.584939 
L 301.759464 356.584939 
z
" style="fill:#808080;"/>
   </g>
   <g id="patch_46">
    <path clip-path="url(#p0ae6920b6c)" d="M 305.900466 370.076562 
L 312.111969 370.076562 
L 312.111969 369.755333 
L 305.900466 369.755333 
z
" style="fill:#808080;"/>
   </g>
   <g id="patch_47">
    <path clip-path="url(#p0ae6920b6c)" d="M 310.041468 370.076562 
L 316.252971 370.076562 
L 316.252971 368.149188 
L 310.041468 368.149188 
z
" style="fill:#808080;"/>
   </g>
   <g id="patch_48">
    <path clip-path="url(#p0ae6920b6c)" d="M 314.18247 370.076562 
L 320.393973 370.076562 
L 320.393973 356.906168 
L 314.18247 356.906168 
z
" style="fill:#808080;"/>
   </g>
   <g id="patch_49">
    <path clip-path="url(#p0ae6920b6c)" d="M 318.323472 370.076562 
L 324.534974 370.076562 
L 324.534974 369.755333 
L 318.323472 369.755333 
z
" style="fill:#808080;"/>
   </g>
   <g id="patch_50">
    <path clip-path="url(#p0ae6920b6c)" d="M 322.464474 370.076562 
L 328.675976 370.076562 
L 328.675976 368.470417 
L 322.464474 368.470417 
z
" style="fill:#808080;"/>
   </g>
   <g id="patch_51">
    <path clip-path="url(#p0ae6920b6c)" d="M 326.605475 370.076562 
L 332.816978 370.076562 
L 332.816978 365.579355 
L 326.605475 365.579355 
z
" style="fill:#808080;"/>
   </g>
   <g id="patch_52">
    <path clip-path="url(#p0ae6920b6c)" d="M 330.746477 370.076562 
L 336.95798 370.076562 
L 336.95798 367.506729 
L 330.746477 367.506729 
z
" style="fill:#808080;"/>
   </g>
   <g id="patch_53">
    <path clip-path="url(#p0ae6920b6c)" d="M 334.887479 370.076562 
L 341.098982 370.076562 
L 341.098982 369.755333 
L 334.887479 369.755333 
z
" style="fill:#808080;"/>
   </g>
   <g id="patch_54">
    <path clip-path="url(#p0ae6920b6c)" d="M 339.028481 370.076562 
L 345.239984 370.076562 
L 345.239984 321.249734 
L 339.028481 321.249734 
z
" style="fill:#808080;"/>
   </g>
   <g id="patch_55">
    <path clip-path="url(#p0ae6920b6c)" d="M 343.169483 370.076562 
L 349.380986 370.076562 
L 349.380986 356.26371 
L 343.169483 356.26371 
z
" style="fill:#808080;"/>
   </g>
   <g id="patch_56">
    <path clip-path="url(#p0ae6920b6c)" d="M 347.310485 370.076562 
L 353.521987 370.076562 
L 353.521987 363.65198 
L 347.310485 363.65198 
z
" style="fill:#808080;"/>
   </g>
   <g id="patch_57">
    <path clip-path="url(#p0ae6920b6c)" d="M 351.451487 370.076562 
L 357.662989 370.076562 
L 357.662989 369.434104 
L 351.451487 369.434104 
z
" style="fill:#808080;"/>
   </g>
   <g id="patch_58">
    <path clip-path="url(#p0ae6920b6c)" d="M 355.592488 370.076562 
L 361.803991 370.076562 
L 361.803991 369.755333 
L 355.592488 369.755333 
z
" style="fill:#808080;"/>
   </g>
   <g id="patch_59">
    <path clip-path="url(#p0ae6920b6c)" d="M 359.73349 370.076562 
L 365.944993 370.076562 
L 365.944993 368.149188 
L 359.73349 368.149188 
z
" style="fill:#808080;"/>
   </g>
   <g id="patch_60">
    <path clip-path="url(#p0ae6920b6c)" d="M 363.874492 370.076562 
L 370.085995 370.076562 
L 370.085995 367.506729 
L 363.874492 367.506729 
z
" style="fill:#808080;"/>
   </g>
   <g id="patch_61">
    <path clip-path="url(#p0ae6920b6c)" d="M 368.015494 370.076562 
L 374.226997 370.076562 
L 374.226997 366.543042 
L 368.015494 366.543042 
z
" style="fill:#808080;"/>
   </g>
   <g id="patch_62">
    <path clip-path="url(#p0ae6920b6c)" d="M 372.156496 370.076562 
L 378.367999 370.076562 
L 378.367999 369.755333 
L 372.156496 369.755333 
z
" style="fill:#808080;"/>
   </g>
   <g id="patch_63">
    <path clip-path="url(#p0ae6920b6c)" d="M 376.297498 370.076562 
L 382.509 370.076562 
L 382.509 369.755333 
L 376.297498 369.755333 
z
" style="fill:#808080;"/>
   </g>
   <g id="patch_64">
    <path clip-path="url(#p0ae6920b6c)" d="M 380.4385 370.076562 
L 386.650002 370.076562 
L 386.650002 369.434104 
L 380.4385 369.434104 
z
" style="fill:#808080;"/>
   </g>
   <g id="patch_65">
    <path clip-path="url(#p0ae6920b6c)" d="M 384.579501 370.076562 
L 390.791004 370.076562 
L 390.791004 369.434104 
L 384.579501 369.434104 
z
" style="fill:#808080;"/>
   </g>
   <g id="patch_66">
    <path clip-path="url(#p0ae6920b6c)" d="M 388.720503 370.076562 
L 394.932006 370.076562 
L 394.932006 366.543042 
L 388.720503 366.543042 
z
" style="fill:#808080;"/>
   </g>
   <g id="patch_67">
    <path clip-path="url(#p0ae6920b6c)" d="M 392.861505 370.076562 
L 399.073008 370.076562 
L 399.073008 369.755333 
L 392.861505 369.755333 
z
" style="fill:#808080;"/>
   </g>
   <g id="patch_68">
    <path clip-path="url(#p0ae6920b6c)" d="M 397.002507 370.076562 
L 403.21401 370.076562 
L 403.21401 368.470417 
L 397.002507 368.470417 
z
" style="fill:#808080;"/>
   </g>
   <g id="patch_69">
    <path clip-path="url(#p0ae6920b6c)" d="M 401.143509 370.076562 
L 407.355012 370.076562 
L 407.355012 367.827959 
L 401.143509 367.827959 
z
" style="fill:#808080;"/>
   </g>
   <g id="patch_70">
    <path clip-path="url(#p0ae6920b6c)" d="M 405.284511 370.076562 
L 411.496013 370.076562 
L 411.496013 366.864271 
L 405.284511 366.864271 
z
" style="fill:#808080;"/>
   </g>
   <g id="patch_71">
    <path clip-path="url(#p0ae6920b6c)" d="M 409.425513 370.076562 
L 415.637015 370.076562 
L 415.637015 368.791646 
L 409.425513 368.791646 
z
" style="fill:#808080;"/>
   </g>
   <g id="patch_72">
    <path clip-path="url(#p0ae6920b6c)" d="M 413.566514 370.076562 
L 419.778017 370.076562 
L 419.778017 369.434104 
L 413.566514 369.434104 
z
" style="fill:#808080;"/>
   </g>
   <g id="patch_73">
    <path clip-path="url(#p0ae6920b6c)" d="M 417.707516 370.076562 
L 423.919019 370.076562 
L 423.919019 365.579355 
L 417.707516 365.579355 
z
" style="fill:#808080;"/>
   </g>
   <g id="patch_74">
    <path clip-path="url(#p0ae6920b6c)" d="M 421.848518 370.076562 
L 428.060021 370.076562 
L 428.060021 359.154772 
L 421.848518 359.154772 
z
" style="fill:#808080;"/>
   </g>
   <g id="patch_75">
    <path clip-path="url(#p0ae6920b6c)" d="M 425.98952 370.076562 
L 432.201023 370.076562 
L 432.201023 369.755333 
L 425.98952 369.755333 
z
" style="fill:#808080;"/>
   </g>
   <g id="patch_76">
    <path clip-path="url(#p0ae6920b6c)" d="M 430.130522 370.076562 
L 436.342025 370.076562 
L 436.342025 369.755333 
L 430.130522 369.755333 
z
" style="fill:#808080;"/>
   </g>
   <g id="patch_77">
    <path clip-path="url(#p0ae6920b6c)" d="M 434.271524 370.076562 
L 440.483026 370.076562 
L 440.483026 362.045834 
L 434.271524 362.045834 
z
" style="fill:#808080;"/>
   </g>
   <g id="patch_78">
    <path clip-path="url(#p0ae6920b6c)" d="M 438.412526 370.076562 
L 444.624028 370.076562 
L 444.624028 368.149188 
L 438.412526 368.149188 
z
" style="fill:#808080;"/>
   </g>
   <g id="patch_79">
    <path clip-path="url(#p0ae6920b6c)" d="M 442.553527 370.076562 
L 448.76503 370.076562 
L 448.76503 338.917337 
L 442.553527 338.917337 
z
" style="fill:#808080;"/>
   </g>
   <g id="patch_80">
    <path clip-path="url(#p0ae6920b6c)" d="M 446.694529 370.076562 
L 452.906032 370.076562 
L 452.906032 331.850296 
L 446.694529 331.850296 
z
" style="fill:#808080;"/>
   </g>
   <g id="patch_81">
    <path clip-path="url(#p0ae6920b6c)" d="M 450.835531 370.076562 
L 457.047034 370.076562 
L 457.047034 368.149188 
L 450.835531 368.149188 
z
" style="fill:#808080;"/>
   </g>
   <g id="patch_82">
    <path clip-path="url(#p0ae6920b6c)" d="M 454.976533 370.076562 
L 461.188036 370.076562 
L 461.188036 366.864271 
L 454.976533 366.864271 
z
" style="fill:#808080;"/>
   </g>
   <g id="patch_83">
    <path clip-path="url(#p0ae6920b6c)" d="M 459.117535 370.076562 
L 465.329038 370.076562 
L 465.329038 283.987155 
L 459.117535 283.987155 
z
" style="fill:#808080;"/>
   </g>
   <g id="patch_84">
    <path clip-path="url(#p0ae6920b6c)" d="M 463.258537 370.076562 
L 469.470039 370.076562 
L 469.470039 59.447991 
L 463.258537 59.447991 
z
" style="fill:#808080;"/>
   </g>
   <g id="patch_85">
    <path clip-path="url(#p0ae6920b6c)" d="M 467.399538 370.076562 
L 473.611041 370.076562 
L 473.611041 365.579355 
L 467.399538 365.579355 
z
" style="fill:#808080;"/>
   </g>
   <g id="patch_86">
    <path clip-path="url(#p0ae6920b6c)" d="M 471.54054 370.076562 
L 477.752043 370.076562 
L 477.752043 345.663148 
L 471.54054 345.663148 
z
" style="fill:#808080;"/>
   </g>
   <g id="patch_87">
    <path clip-path="url(#p0ae6920b6c)" d="M 475.681542 370.076562 
L 481.893045 370.076562 
L 481.893045 369.755333 
L 475.681542 369.755333 
z
" style="fill:#808080;"/>
   </g>
   <g id="patch_88">
    <path clip-path="url(#p0ae6920b6c)" d="M 479.822544 370.076562 
L 486.034047 370.076562 
L 486.034047 368.791646 
L 479.822544 368.791646 
z
" style="fill:#808080;"/>
   </g>
   <g id="patch_89">
    <path clip-path="url(#p0ae6920b6c)" d="M 483.963546 370.076562 
L 490.175049 370.076562 
L 490.175049 364.294438 
L 483.963546 364.294438 
z
" style="fill:#808080;"/>
   </g>
   <g id="patch_90">
    <path clip-path="url(#p0ae6920b6c)" d="M 488.104548 370.076562 
L 494.316051 370.076562 
L 494.316051 219.09887 
L 488.104548 219.09887 
z
" style="fill:#808080;"/>
   </g>
   <g id="patch_91">
    <path clip-path="url(#p0ae6920b6c)" d="M 492.24555 370.076562 
L 498.457052 370.076562 
L 498.457052 361.403376 
L 492.24555 361.403376 
z
" style="fill:#808080;"/>
   </g>
   <g id="patch_92">
    <path clip-path="url(#p0ae6920b6c)" d="M 496.386551 370.076562 
L 502.598054 370.076562 
L 502.598054 369.755333 
L 496.386551 369.755333 
z
" style="fill:#808080;"/>
   </g>
   <g id="patch_93">
    <path clip-path="url(#p0ae6920b6c)" d="M 500.527553 370.076562 
L 506.739056 370.076562 
L 506.739056 369.755333 
L 500.527553 369.755333 
z
" style="fill:#808080;"/>
   </g>
   <g id="patch_94">
    <path clip-path="url(#p0ae6920b6c)" d="M 504.668555 370.076562 
L 510.880058 370.076562 
L 510.880058 367.1855 
L 504.668555 367.1855 
z
" style="fill:#808080;"/>
   </g>
   <g id="patch_95">
    <path clip-path="url(#p0ae6920b6c)" d="M 508.809557 370.076562 
L 515.02106 370.076562 
L 515.02106 351.445273 
L 508.809557 351.445273 
z
" style="fill:#808080;"/>
   </g>
   <g id="patch_96">
    <path clip-path="url(#p0ae6920b6c)" d="M 512.950559 370.076562 
L 519.162062 370.076562 
L 519.162062 369.434104 
L 512.950559 369.434104 
z
" style="fill:#808080;"/>
   </g>
   <g id="patch_97">
    <path clip-path="url(#p0ae6920b6c)" d="M 517.091561 370.076562 
L 523.303064 370.076562 
L 523.303064 364.294438 
L 517.091561 364.294438 
z
" style="fill:#808080;"/>
   </g>
   <g id="patch_98">
    <path clip-path="url(#p0ae6920b6c)" d="M 521.232563 370.076562 
L 527.444065 370.076562 
L 527.444065 367.506729 
L 521.232563 367.506729 
z
" style="fill:#808080;"/>
   </g>
   <g id="patch_99">
    <path clip-path="url(#p0ae6920b6c)" d="M 525.373564 370.076562 
L 531.585067 370.076562 
L 531.585067 369.434104 
L 525.373564 369.434104 
z
" style="fill:#808080;"/>
   </g>
   <g id="patch_100">
    <path clip-path="url(#p0ae6920b6c)" d="M 529.514566 370.076562 
L 535.726069 370.076562 
L 535.726069 368.470417 
L 529.514566 368.470417 
z
" style="fill:#808080;"/>
   </g>
   <g id="patch_101">
    <path clip-path="url(#p0ae6920b6c)" d="M 533.655568 370.076562 
L 539.867071 370.076562 
L 539.867071 368.149188 
L 533.655568 368.149188 
z
" style="fill:#808080;"/>
   </g>
   <g id="patch_102">
    <path clip-path="url(#p0ae6920b6c)" d="M 537.79657 370.076562 
L 544.008073 370.076562 
L 544.008073 356.906168 
L 537.79657 356.906168 
z
" style="fill:#808080;"/>
   </g>
   <g id="patch_103">
    <path clip-path="url(#p0ae6920b6c)" d="M 541.937572 370.076562 
L 548.149075 370.076562 
L 548.149075 365.579355 
L 541.937572 365.579355 
z
" style="fill:#808080;"/>
   </g>
   <g id="patch_104">
    <path clip-path="url(#p0ae6920b6c)" d="M 546.078574 370.076562 
L 552.290077 370.076562 
L 552.290077 369.755333 
L 546.078574 369.755333 
z
" style="fill:#808080;"/>
   </g>
   <g id="patch_105">
    <path clip-path="url(#p0ae6920b6c)" d="M 550.219576 370.076562 
L 556.431078 370.076562 
L 556.431078 368.791646 
L 550.219576 368.791646 
z
" style="fill:#808080;"/>
   </g>
   <g id="patch_106">
    <path clip-path="url(#p0ae6920b6c)" d="M 554.360577 370.076562 
L 560.57208 370.076562 
L 560.57208 368.149188 
L 554.360577 368.149188 
z
" style="fill:#808080;"/>
   </g>
   <g id="patch_107">
    <path clip-path="url(#p0ae6920b6c)" d="M 558.501579 370.076562 
L 564.713082 370.076562 
L 564.713082 367.1855 
L 558.501579 367.1855 
z
" style="fill:#808080;"/>
   </g>
   <g id="patch_108">
    <path clip-path="url(#p0ae6920b6c)" d="M 562.642581 370.076562 
L 568.854084 370.076562 
L 568.854084 368.791646 
L 562.642581 368.791646 
z
" style="fill:#808080;"/>
   </g>
   <g id="patch_109">
    <path clip-path="url(#p0ae6920b6c)" d="M 566.783583 370.076562 
L 572.995086 370.076562 
L 572.995086 362.045834 
L 566.783583 362.045834 
z
" style="fill:#808080;"/>
   </g>
   <g id="patch_110">
    <path clip-path="url(#p0ae6920b6c)" d="M 570.924585 370.076562 
L 577.136088 370.076562 
L 577.136088 341.808399 
L 570.924585 341.808399 
z
" style="fill:#808080;"/>
   </g>
   <g id="patch_111">
    <path clip-path="url(#p0ae6920b6c)" d="M 575.065587 370.076562 
L 581.27709 370.076562 
L 581.27709 369.755333 
L 575.065587 369.755333 
z
" style="fill:#808080;"/>
   </g>
   <g id="patch_112">
    <path clip-path="url(#p0ae6920b6c)" d="M 579.206589 370.076562 
L 585.418091 370.076562 
L 585.418091 369.434104 
L 579.206589 369.434104 
z
" style="fill:#808080;"/>
   </g>
   <g id="patch_113">
    <path clip-path="url(#p0ae6920b6c)" d="M 583.34759 370.076562 
L 589.559093 370.076562 
L 589.559093 319.643589 
L 583.34759 319.643589 
z
" style="fill:#808080;"/>
   </g>
   <g id="patch_114">
    <path clip-path="url(#p0ae6920b6c)" d="M 587.488592 370.076562 
L 593.700095 370.076562 
L 593.700095 366.543042 
L 587.488592 366.543042 
z
" style="fill:#808080;"/>
   </g>
   <g id="patch_115">
    <path clip-path="url(#p0ae6920b6c)" d="M 591.629594 370.076562 
L 597.841097 370.076562 
L 597.841097 365.900584 
L 591.629594 365.900584 
z
" style="fill:#808080;"/>
   </g>
   <g id="patch_116">
    <path clip-path="url(#p0ae6920b6c)" d="M 595.770596 370.076562 
L 601.982099 370.076562 
L 601.982099 366.221813 
L 595.770596 366.221813 
z
" style="fill:#808080;"/>
   </g>
   <g id="patch_117">
    <path clip-path="url(#p0ae6920b6c)" d="M 599.911598 370.076562 
L 606.123101 370.076562 
L 606.123101 364.936896 
L 599.911598 364.936896 
z
" style="fill:#808080;"/>
   </g>
   <g id="patch_118">
    <path clip-path="url(#p0ae6920b6c)" d="M 604.0526 370.076562 
L 610.264103 370.076562 
L 610.264103 369.434104 
L 604.0526 369.434104 
z
" style="fill:#808080;"/>
   </g>
   <g id="patch_119">
    <path clip-path="url(#p0ae6920b6c)" d="M 608.193602 370.076562 
L 614.405104 370.076562 
L 614.405104 335.383816 
L 608.193602 335.383816 
z
" style="fill:#808080;"/>
   </g>
   <g id="patch_120">
    <path clip-path="url(#p0ae6920b6c)" d="M 612.334603 370.076562 
L 618.546106 370.076562 
L 618.546106 325.746942 
L 612.334603 325.746942 
z
" style="fill:#808080;"/>
   </g>
   <g id="patch_121">
    <path clip-path="url(#p0ae6920b6c)" d="M 616.475605 370.076562 
L 622.687108 370.076562 
L 622.687108 368.149188 
L 616.475605 368.149188 
z
" style="fill:#808080;"/>
   </g>
   <g id="patch_122">
    <path clip-path="url(#p0ae6920b6c)" d="M 620.616607 370.076562 
L 626.82811 370.076562 
L 626.82811 362.367063 
L 620.616607 362.367063 
z
" style="fill:#808080;"/>
   </g>
   <g id="patch_123">
    <path clip-path="url(#p0ae6920b6c)" d="M 624.757609 370.076562 
L 630.969112 370.076562 
L 630.969112 323.819567 
L 624.757609 323.819567 
z
" style="fill:#808080;"/>
   </g>
   <g id="patch_124">
    <path clip-path="url(#p0ae6920b6c)" d="M 628.898611 370.076562 
L 635.110114 370.076562 
L 635.110114 354.657564 
L 628.898611 354.657564 
z
" style="fill:#808080;"/>
   </g>
   <g id="matplotlib.axis_1"/>
   <g id="matplotlib.axis_2">
    <g id="ytick_1">
     <g id="line2d_1">
      <defs>
       <path d="M 0 0 
L -3.5 0 
" id="m77018afddf" style="stroke:#000000;stroke-width:0.8;"/>
      </defs>
      <g>
       <use style="stroke:#000000;stroke-width:0.8;" x="102.47375" xlink:href="#m77018afddf" y="370.076562"/>
      </g>
     </g>
     <g id="text_1">
      <!-- 0.000 -->
      <defs>
       <path d="M 31.78125 3.421875 
Q 39.265625 3.421875 42.96875 11.625 
Q 46.6875 19.828125 46.6875 36.375 
Q 46.6875 52.984375 42.96875 61.1875 
Q 39.265625 69.390625 31.78125 69.390625 
Q 24.3125 69.390625 20.59375 61.1875 
Q 16.890625 52.984375 16.890625 36.375 
Q 16.890625 19.828125 20.59375 11.625 
Q 24.3125 3.421875 31.78125 3.421875 
z
M 31.78125 -1.421875 
Q 19.921875 -1.421875 13.25 8.53125 
Q 6.59375 18.5 6.59375 36.375 
Q 6.59375 54.296875 13.25 64.25 
Q 19.921875 74.21875 31.78125 74.21875 
Q 43.703125 74.21875 50.34375 64.25 
Q 56.984375 54.296875 56.984375 36.375 
Q 56.984375 18.5 50.34375 8.53125 
Q 43.703125 -1.421875 31.78125 -1.421875 
z
" id="DejaVuSerif-48"/>
       <path d="M 9.421875 5.078125 
Q 9.421875 7.8125 11.28125 9.71875 
Q 13.140625 11.625 15.921875 11.625 
Q 18.609375 11.625 20.5 9.71875 
Q 22.40625 7.8125 22.40625 5.078125 
Q 22.40625 2.390625 20.5 0.484375 
Q 18.609375 -1.421875 15.921875 -1.421875 
Q 13.140625 -1.421875 11.28125 0.453125 
Q 9.421875 2.34375 9.421875 5.078125 
z
" id="DejaVuSerif-46"/>
      </defs>
      <g transform="translate(32.491875 378.434844)scale(0.22 -0.22)">
       <use xlink:href="#DejaVuSerif-48"/>
       <use x="63.623047" xlink:href="#DejaVuSerif-46"/>
       <use x="95.410156" xlink:href="#DejaVuSerif-48"/>
       <use x="159.033203" xlink:href="#DejaVuSerif-48"/>
       <use x="222.65625" xlink:href="#DejaVuSerif-48"/>
      </g>
     </g>
    </g>
    <g id="ytick_2">
     <g id="line2d_2">
      <g>
       <use style="stroke:#000000;stroke-width:0.8;" x="102.47375" xlink:href="#m77018afddf" y="332.083187"/>
      </g>
     </g>
     <g id="text_2">
      <!-- 0.025 -->
      <defs>
       <path d="M 12.796875 55.515625 
L 7.328125 55.515625 
L 7.328125 68.5 
Q 12.546875 71.296875 17.84375 72.75 
Q 23.140625 74.21875 28.21875 74.21875 
Q 39.59375 74.21875 46.1875 68.703125 
Q 52.78125 63.1875 52.78125 53.71875 
Q 52.78125 43.015625 37.84375 28.125 
Q 36.671875 27 36.078125 26.421875 
L 17.671875 8.015625 
L 48.09375 8.015625 
L 48.09375 17 
L 53.8125 17 
L 53.8125 0 
L 6.78125 0 
L 6.78125 5.328125 
L 28.90625 27.390625 
Q 36.234375 34.71875 39.359375 40.84375 
Q 42.484375 46.96875 42.484375 53.71875 
Q 42.484375 61.078125 38.640625 65.234375 
Q 34.8125 69.390625 28.078125 69.390625 
Q 21.09375 69.390625 17.28125 65.921875 
Q 13.484375 62.453125 12.796875 55.515625 
z
" id="DejaVuSerif-50"/>
       <path d="M 50.296875 72.90625 
L 50.296875 64.890625 
L 16.890625 64.890625 
L 16.890625 44 
Q 19.4375 45.75 22.828125 46.625 
Q 26.21875 47.515625 30.421875 47.515625 
Q 42.234375 47.515625 49.0625 40.96875 
Q 55.90625 34.421875 55.90625 23.09375 
Q 55.90625 11.53125 49 5.046875 
Q 42.09375 -1.421875 29.59375 -1.421875 
Q 24.5625 -1.421875 19.28125 -0.1875 
Q 14.015625 1.03125 8.5 3.515625 
L 8.5 17.671875 
L 14.015625 17.671875 
Q 14.453125 10.75 18.421875 7.078125 
Q 22.40625 3.421875 29.59375 3.421875 
Q 37.3125 3.421875 41.453125 8.5 
Q 45.609375 13.578125 45.609375 23.09375 
Q 45.609375 32.5625 41.484375 37.609375 
Q 37.359375 42.671875 29.59375 42.671875 
Q 25.203125 42.671875 21.84375 41.109375 
Q 18.5 39.546875 15.921875 36.28125 
L 11.71875 36.28125 
L 11.71875 72.90625 
z
" id="DejaVuSerif-53"/>
      </defs>
      <g transform="translate(32.491875 340.441468)scale(0.22 -0.22)">
       <use xlink:href="#DejaVuSerif-48"/>
       <use x="63.623047" xlink:href="#DejaVuSerif-46"/>
       <use x="95.410156" xlink:href="#DejaVuSerif-48"/>
       <use x="159.033203" xlink:href="#DejaVuSerif-50"/>
       <use x="222.65625" xlink:href="#DejaVuSerif-53"/>
      </g>
     </g>
    </g>
    <g id="ytick_3">
     <g id="line2d_3">
      <g>
       <use style="stroke:#000000;stroke-width:0.8;" x="102.47375" xlink:href="#m77018afddf" y="294.089811"/>
      </g>
     </g>
     <g id="text_3">
      <!-- 0.050 -->
      <g transform="translate(32.491875 302.448092)scale(0.22 -0.22)">
       <use xlink:href="#DejaVuSerif-48"/>
       <use x="63.623047" xlink:href="#DejaVuSerif-46"/>
       <use x="95.410156" xlink:href="#DejaVuSerif-48"/>
       <use x="159.033203" xlink:href="#DejaVuSerif-53"/>
       <use x="222.65625" xlink:href="#DejaVuSerif-48"/>
      </g>
     </g>
    </g>
    <g id="ytick_4">
     <g id="line2d_4">
      <g>
       <use style="stroke:#000000;stroke-width:0.8;" x="102.47375" xlink:href="#m77018afddf" y="256.096435"/>
      </g>
     </g>
     <g id="text_4">
      <!-- 0.075 -->
      <defs>
       <path d="M 56.390625 67.921875 
L 27.875 0 
L 20.609375 0 
L 47.796875 64.890625 
L 14.109375 64.890625 
L 14.109375 55.90625 
L 8.40625 55.90625 
L 8.40625 72.90625 
L 56.390625 72.90625 
z
" id="DejaVuSerif-55"/>
      </defs>
      <g transform="translate(32.491875 264.454717)scale(0.22 -0.22)">
       <use xlink:href="#DejaVuSerif-48"/>
       <use x="63.623047" xlink:href="#DejaVuSerif-46"/>
       <use x="95.410156" xlink:href="#DejaVuSerif-48"/>
       <use x="159.033203" xlink:href="#DejaVuSerif-55"/>
       <use x="222.65625" xlink:href="#DejaVuSerif-53"/>
      </g>
     </g>
    </g>
    <g id="ytick_5">
     <g id="line2d_5">
      <g>
       <use style="stroke:#000000;stroke-width:0.8;" x="102.47375" xlink:href="#m77018afddf" y="218.10306"/>
      </g>
     </g>
     <g id="text_5">
      <!-- 0.100 -->
      <defs>
       <path d="M 14.203125 0 
L 14.203125 5.171875 
L 26.90625 5.171875 
L 26.90625 65.828125 
L 12.203125 56.296875 
L 12.203125 62.703125 
L 29.984375 74.21875 
L 36.71875 74.21875 
L 36.71875 5.171875 
L 49.421875 5.171875 
L 49.421875 0 
z
" id="DejaVuSerif-49"/>
      </defs>
      <g transform="translate(32.491875 226.461341)scale(0.22 -0.22)">
       <use xlink:href="#DejaVuSerif-48"/>
       <use x="63.623047" xlink:href="#DejaVuSerif-46"/>
       <use x="95.410156" xlink:href="#DejaVuSerif-49"/>
       <use x="159.033203" xlink:href="#DejaVuSerif-48"/>
       <use x="222.65625" xlink:href="#DejaVuSerif-48"/>
      </g>
     </g>
    </g>
    <g id="ytick_6">
     <g id="line2d_6">
      <g>
       <use style="stroke:#000000;stroke-width:0.8;" x="102.47375" xlink:href="#m77018afddf" y="180.109684"/>
      </g>
     </g>
     <g id="text_6">
      <!-- 0.125 -->
      <g transform="translate(32.491875 188.467965)scale(0.22 -0.22)">
       <use xlink:href="#DejaVuSerif-48"/>
       <use x="63.623047" xlink:href="#DejaVuSerif-46"/>
       <use x="95.410156" xlink:href="#DejaVuSerif-49"/>
       <use x="159.033203" xlink:href="#DejaVuSerif-50"/>
       <use x="222.65625" xlink:href="#DejaVuSerif-53"/>
      </g>
     </g>
    </g>
    <g id="ytick_7">
     <g id="line2d_7">
      <g>
       <use style="stroke:#000000;stroke-width:0.8;" x="102.47375" xlink:href="#m77018afddf" y="142.116308"/>
      </g>
     </g>
     <g id="text_7">
      <!-- 0.150 -->
      <g transform="translate(32.491875 150.47459)scale(0.22 -0.22)">
       <use xlink:href="#DejaVuSerif-48"/>
       <use x="63.623047" xlink:href="#DejaVuSerif-46"/>
       <use x="95.410156" xlink:href="#DejaVuSerif-49"/>
       <use x="159.033203" xlink:href="#DejaVuSerif-53"/>
       <use x="222.65625" xlink:href="#DejaVuSerif-48"/>
      </g>
     </g>
    </g>
    <g id="ytick_8">
     <g id="line2d_8">
      <g>
       <use style="stroke:#000000;stroke-width:0.8;" x="102.47375" xlink:href="#m77018afddf" y="104.122933"/>
      </g>
     </g>
     <g id="text_8">
      <!-- 0.175 -->
      <g transform="translate(32.491875 112.481214)scale(0.22 -0.22)">
       <use xlink:href="#DejaVuSerif-48"/>
       <use x="63.623047" xlink:href="#DejaVuSerif-46"/>
       <use x="95.410156" xlink:href="#DejaVuSerif-49"/>
       <use x="159.033203" xlink:href="#DejaVuSerif-55"/>
       <use x="222.65625" xlink:href="#DejaVuSerif-53"/>
      </g>
     </g>
    </g>
    <g id="ytick_9">
     <g id="line2d_9">
      <g>
       <use style="stroke:#000000;stroke-width:0.8;" x="102.47375" xlink:href="#m77018afddf" y="66.129557"/>
      </g>
     </g>
     <g id="text_9">
      <!-- 0.200 -->
      <g transform="translate(32.491875 74.487838)scale(0.22 -0.22)">
       <use xlink:href="#DejaVuSerif-48"/>
       <use x="63.623047" xlink:href="#DejaVuSerif-46"/>
       <use x="95.410156" xlink:href="#DejaVuSerif-50"/>
       <use x="159.033203" xlink:href="#DejaVuSerif-48"/>
       <use x="222.65625" xlink:href="#DejaVuSerif-48"/>
      </g>
     </g>
    </g>
    <g id="text_10">
     <!-- Frequency -->
     <defs>
      <path d="M 5.515625 0 
L 5.515625 5.171875 
L 14.796875 5.171875 
L 14.796875 67.671875 
L 5.515625 67.671875 
L 5.515625 72.90625 
L 65.1875 72.90625 
L 65.1875 56.6875 
L 59.1875 56.6875 
L 59.1875 66.890625 
L 24.703125 66.890625 
L 24.703125 42.484375 
L 49.609375 42.484375 
L 49.609375 51.609375 
L 55.609375 51.609375 
L 55.609375 27.390625 
L 49.609375 27.390625 
L 49.609375 36.53125 
L 24.703125 36.53125 
L 24.703125 5.171875 
L 36.375 5.171875 
L 36.375 0 
z
" id="DejaVuSerif-70"/>
      <path d="M 47.796875 52 
L 47.796875 39.015625 
L 42.625 39.015625 
Q 42.390625 42.875 40.484375 44.78125 
Q 38.578125 46.6875 34.90625 46.6875 
Q 28.265625 46.6875 24.71875 42.09375 
Q 21.1875 37.5 21.1875 28.90625 
L 21.1875 5.171875 
L 31.59375 5.171875 
L 31.59375 0 
L 4.109375 0 
L 4.109375 5.171875 
L 12.203125 5.171875 
L 12.203125 46.78125 
L 3.609375 46.78125 
L 3.609375 51.90625 
L 21.1875 51.90625 
L 21.1875 42.671875 
Q 23.828125 48.09375 27.96875 50.703125 
Q 32.125 53.328125 38.09375 53.328125 
Q 40.28125 53.328125 42.703125 52.984375 
Q 45.125 52.640625 47.796875 52 
z
" id="DejaVuSerif-114"/>
      <path d="M 54.203125 25 
L 15.484375 25 
L 15.484375 24.609375 
Q 15.484375 14.109375 19.4375 8.765625 
Q 23.390625 3.421875 31.109375 3.421875 
Q 37.015625 3.421875 40.796875 6.515625 
Q 44.578125 9.625 46.09375 15.71875 
L 53.328125 15.71875 
Q 51.171875 7.171875 45.375 2.875 
Q 39.59375 -1.421875 30.171875 -1.421875 
Q 18.796875 -1.421875 11.890625 6.078125 
Q 4.984375 13.578125 4.984375 25.984375 
Q 4.984375 38.28125 11.765625 45.796875 
Q 18.5625 53.328125 29.59375 53.328125 
Q 41.359375 53.328125 47.65625 46.0625 
Q 53.953125 38.8125 54.203125 25 
z
M 43.609375 30.171875 
Q 43.3125 39.265625 39.765625 43.875 
Q 36.234375 48.484375 29.59375 48.484375 
Q 23.390625 48.484375 19.828125 43.84375 
Q 16.265625 39.203125 15.484375 30.171875 
z
" id="DejaVuSerif-101"/>
      <path d="M 52.484375 46.6875 
L 52.484375 -15.578125 
L 61.078125 -15.578125 
L 61.078125 -20.796875 
L 35.015625 -20.796875 
L 35.015625 -15.578125 
L 43.5 -15.578125 
L 43.5 8.109375 
Q 40.875 3.21875 36.796875 0.890625 
Q 32.71875 -1.421875 26.703125 -1.421875 
Q 17.140625 -1.421875 11.0625 6.171875 
Q 4.984375 13.765625 4.984375 25.984375 
Q 4.984375 38.1875 11.03125 45.75 
Q 17.09375 53.328125 26.703125 53.328125 
Q 32.71875 53.328125 36.796875 51 
Q 40.875 48.6875 43.5 43.796875 
L 43.5 51.90625 
L 61.078125 51.90625 
L 61.078125 46.6875 
z
M 43.5 28.515625 
Q 43.5 37.84375 39.90625 42.765625 
Q 36.328125 47.703125 29.5 47.703125 
Q 22.5625 47.703125 19.015625 42.234375 
Q 15.484375 36.765625 15.484375 25.984375 
Q 15.484375 15.234375 19.015625 9.71875 
Q 22.5625 4.203125 29.5 4.203125 
Q 36.328125 4.203125 39.90625 9.109375 
Q 43.5 14.015625 43.5 23.390625 
z
" id="DejaVuSerif-113"/>
      <path d="M 35.40625 51.90625 
L 52.203125 51.90625 
L 52.203125 5.171875 
L 60.6875 5.171875 
L 60.6875 0 
L 43.21875 0 
L 43.21875 9.1875 
Q 40.71875 4 36.765625 1.28125 
Q 32.8125 -1.421875 27.59375 -1.421875 
Q 18.953125 -1.421875 14.875 3.484375 
Q 10.796875 8.40625 10.796875 18.890625 
L 10.796875 46.6875 
L 2.6875 46.6875 
L 2.6875 51.90625 
L 19.828125 51.90625 
L 19.828125 21.6875 
Q 19.828125 12.203125 22.140625 8.6875 
Q 24.46875 5.171875 30.421875 5.171875 
Q 36.671875 5.171875 39.9375 9.765625 
Q 43.21875 14.359375 43.21875 23.09375 
L 43.21875 46.6875 
L 35.40625 46.6875 
z
" id="DejaVuSerif-117"/>
      <path d="M 4.109375 0 
L 4.109375 5.171875 
L 12.203125 5.171875 
L 12.203125 46.6875 
L 3.609375 46.6875 
L 3.609375 51.90625 
L 21.1875 51.90625 
L 21.1875 42.671875 
Q 23.6875 47.953125 27.65625 50.640625 
Q 31.640625 53.328125 36.921875 53.328125 
Q 45.515625 53.328125 49.5625 48.390625 
Q 53.609375 43.453125 53.609375 33.015625 
L 53.609375 5.171875 
L 61.625 5.171875 
L 61.625 0 
L 36.8125 0 
L 36.8125 5.171875 
L 44.578125 5.171875 
L 44.578125 30.171875 
Q 44.578125 39.703125 42.234375 43.234375 
Q 39.890625 46.78125 33.984375 46.78125 
Q 27.734375 46.78125 24.453125 42.203125 
Q 21.1875 37.640625 21.1875 28.90625 
L 21.1875 5.171875 
L 29 5.171875 
L 29 0 
z
" id="DejaVuSerif-110"/>
      <path d="M 51.421875 15.578125 
Q 49.515625 7.28125 44.09375 2.921875 
Q 38.671875 -1.421875 30.078125 -1.421875 
Q 18.75 -1.421875 11.859375 6.078125 
Q 4.984375 13.578125 4.984375 25.984375 
Q 4.984375 38.421875 11.859375 45.875 
Q 18.75 53.328125 30.078125 53.328125 
Q 35.015625 53.328125 39.890625 52.171875 
Q 44.78125 51.03125 49.703125 48.6875 
L 49.703125 35.40625 
L 44.484375 35.40625 
Q 43.453125 42.234375 40.015625 45.359375 
Q 36.578125 48.484375 30.171875 48.484375 
Q 22.90625 48.484375 19.1875 42.84375 
Q 15.484375 37.203125 15.484375 25.984375 
Q 15.484375 14.75 19.171875 9.078125 
Q 22.859375 3.421875 30.171875 3.421875 
Q 35.984375 3.421875 39.453125 6.4375 
Q 42.921875 9.46875 44.1875 15.578125 
z
" id="DejaVuSerif-99"/>
      <path d="M 21.578125 -9.515625 
L 25 -0.875 
L 5.609375 46.6875 
L -0.296875 46.6875 
L -0.296875 51.90625 
L 23.578125 51.90625 
L 23.578125 46.6875 
L 15.28125 46.6875 
L 29.890625 10.984375 
L 44.484375 46.6875 
L 36.71875 46.6875 
L 36.71875 51.90625 
L 56.203125 51.90625 
L 56.203125 46.6875 
L 50.390625 46.6875 
L 26.609375 -11.71875 
Q 24.171875 -17.78125 21.1875 -20 
Q 18.21875 -22.21875 12.796875 -22.21875 
Q 10.5 -22.21875 8.078125 -21.828125 
Q 5.671875 -21.4375 3.21875 -20.703125 
L 3.21875 -10.796875 
L 7.8125 -10.796875 
Q 8.109375 -14.109375 9.5 -15.546875 
Q 10.890625 -17 13.8125 -17 
Q 16.5 -17 18.140625 -15.5 
Q 19.78125 -14.015625 21.578125 -9.515625 
z
" id="DejaVuSerif-121"/>
     </defs>
     <g transform="translate(23.60375 266.494531)rotate(-90)scale(0.22 -0.22)">
      <use xlink:href="#DejaVuSerif-70"/>
      <use x="69.384766" xlink:href="#DejaVuSerif-114"/>
      <use x="117.1875" xlink:href="#DejaVuSerif-101"/>
      <use x="176.367188" xlink:href="#DejaVuSerif-113"/>
      <use x="240.380859" xlink:href="#DejaVuSerif-117"/>
      <use x="304.785156" xlink:href="#DejaVuSerif-101"/>
      <use x="363.964844" xlink:href="#DejaVuSerif-110"/>
      <use x="428.369141" xlink:href="#DejaVuSerif-99"/>
      <use x="484.375" xlink:href="#DejaVuSerif-121"/>
     </g>
    </g>
   </g>
   <g id="patch_125">
    <path d="M 102.47375 370.076562 
L 102.47375 43.916562 
" style="fill:none;stroke:#000000;stroke-linecap:square;stroke-linejoin:miter;stroke-width:0.8;"/>
   </g>
   <g id="patch_126">
    <path d="M 660.47375 370.076562 
L 660.47375 43.916562 
" style="fill:none;stroke:#000000;stroke-linecap:square;stroke-linejoin:miter;stroke-width:0.8;"/>
   </g>
   <g id="patch_127">
    <path d="M 102.47375 370.076562 
L 660.47375 370.076562 
" style="fill:none;stroke:#000000;stroke-linecap:square;stroke-linejoin:miter;stroke-width:0.8;"/>
   </g>
   <g id="patch_128">
    <path d="M 102.47375 43.916562 
L 660.47375 43.916562 
" style="fill:none;stroke:#000000;stroke-linecap:square;stroke-linejoin:miter;stroke-width:0.8;"/>
   </g>
   <g id="text_11">
    <!-- Chiroptera Species Distribution -->
    <defs>
     <path d="M 70.515625 19.28125 
Q 67.28125 9.078125 59.6875 3.828125 
Q 52.09375 -1.421875 40.484375 -1.421875 
Q 33.34375 -1.421875 27.234375 1.015625 
Q 21.140625 3.46875 16.40625 8.203125 
Q 10.9375 13.671875 8.265625 20.625 
Q 5.609375 27.59375 5.609375 36.375 
Q 5.609375 53.375 15.421875 63.796875 
Q 25.25 74.21875 41.3125 74.21875 
Q 47.265625 74.21875 54 72.65625 
Q 60.75 71.09375 68.5 67.921875 
L 68.5 51.125 
L 62.984375 51.125 
Q 61.1875 60.296875 55.734375 64.640625 
Q 50.296875 69 40.484375 69 
Q 28.8125 69 22.796875 60.71875 
Q 16.796875 52.4375 16.796875 36.375 
Q 16.796875 20.359375 22.796875 12.078125 
Q 28.8125 3.8125 40.484375 3.8125 
Q 48.640625 3.8125 53.90625 7.6875 
Q 59.1875 11.578125 61.53125 19.28125 
z
" id="DejaVuSerif-67"/>
     <path d="M 4.109375 0 
L 4.109375 5.171875 
L 12.203125 5.171875 
L 12.203125 70.796875 
L 3.609375 70.796875 
L 3.609375 75.984375 
L 21.1875 75.984375 
L 21.1875 42.671875 
Q 23.6875 47.953125 27.65625 50.640625 
Q 31.640625 53.328125 36.921875 53.328125 
Q 45.515625 53.328125 49.5625 48.390625 
Q 53.609375 43.453125 53.609375 33.015625 
L 53.609375 5.171875 
L 61.625 5.171875 
L 61.625 0 
L 36.8125 0 
L 36.8125 5.171875 
L 44.578125 5.171875 
L 44.578125 30.171875 
Q 44.578125 39.703125 42.25 43.1875 
Q 39.9375 46.6875 33.984375 46.6875 
Q 27.734375 46.6875 24.453125 42.140625 
Q 21.1875 37.59375 21.1875 28.90625 
L 21.1875 5.171875 
L 29 5.171875 
L 29 0 
z
" id="DejaVuSerif-104"/>
     <path d="M 9.71875 68.015625 
Q 9.71875 70.265625 11.34375 71.921875 
Q 12.984375 73.578125 15.28125 73.578125 
Q 17.53125 73.578125 19.15625 71.921875 
Q 20.796875 70.265625 20.796875 68.015625 
Q 20.796875 65.71875 19.1875 64.109375 
Q 17.578125 62.5 15.28125 62.5 
Q 12.984375 62.5 11.34375 64.109375 
Q 9.71875 65.71875 9.71875 68.015625 
z
M 21.1875 5.171875 
L 29.6875 5.171875 
L 29.6875 0 
L 3.609375 0 
L 3.609375 5.171875 
L 12.203125 5.171875 
L 12.203125 46.6875 
L 3.609375 46.6875 
L 3.609375 51.90625 
L 21.1875 51.90625 
z
" id="DejaVuSerif-105"/>
     <path d="M 30.078125 3.421875 
Q 37.3125 3.421875 40.984375 9.125 
Q 44.671875 14.84375 44.671875 25.984375 
Q 44.671875 37.109375 40.984375 42.796875 
Q 37.3125 48.484375 30.078125 48.484375 
Q 22.859375 48.484375 19.171875 42.796875 
Q 15.484375 37.109375 15.484375 25.984375 
Q 15.484375 14.84375 19.1875 9.125 
Q 22.90625 3.421875 30.078125 3.421875 
z
M 30.078125 -1.421875 
Q 18.75 -1.421875 11.859375 6.078125 
Q 4.984375 13.578125 4.984375 25.984375 
Q 4.984375 38.375 11.84375 45.84375 
Q 18.703125 53.328125 30.078125 53.328125 
Q 41.453125 53.328125 48.3125 45.84375 
Q 55.171875 38.375 55.171875 25.984375 
Q 55.171875 13.578125 48.3125 6.078125 
Q 41.453125 -1.421875 30.078125 -1.421875 
z
" id="DejaVuSerif-111"/>
     <path d="M 20.515625 28.515625 
L 20.515625 23.390625 
Q 20.515625 14.015625 24.09375 9.109375 
Q 27.6875 4.203125 34.515625 4.203125 
Q 41.40625 4.203125 44.9375 9.71875 
Q 48.484375 15.234375 48.484375 25.984375 
Q 48.484375 36.765625 44.9375 42.234375 
Q 41.40625 47.703125 34.515625 47.703125 
Q 27.6875 47.703125 24.09375 42.765625 
Q 20.515625 37.84375 20.515625 28.515625 
z
M 11.53125 46.6875 
L 2.875 46.6875 
L 2.875 51.90625 
L 20.515625 51.90625 
L 20.515625 43.796875 
Q 23.140625 48.6875 27.21875 51 
Q 31.296875 53.328125 37.3125 53.328125 
Q 46.875 53.328125 52.921875 45.75 
Q 58.984375 38.1875 58.984375 25.984375 
Q 58.984375 13.765625 52.921875 6.171875 
Q 46.875 -1.421875 37.3125 -1.421875 
Q 31.296875 -1.421875 27.21875 0.890625 
Q 23.140625 3.21875 20.515625 8.109375 
L 20.515625 -15.578125 
L 29 -15.578125 
L 29 -20.796875 
L 2.875 -20.796875 
L 2.875 -15.578125 
L 11.53125 -15.578125 
z
" id="DejaVuSerif-112"/>
     <path d="M 10.796875 46.6875 
L 2.875 46.6875 
L 2.875 51.90625 
L 10.796875 51.90625 
L 10.796875 68.015625 
L 19.828125 68.015625 
L 19.828125 51.90625 
L 36.71875 51.90625 
L 36.71875 46.6875 
L 19.828125 46.6875 
L 19.828125 13.71875 
Q 19.828125 7.125 21.09375 5.265625 
Q 22.359375 3.421875 25.78125 3.421875 
Q 29.296875 3.421875 30.90625 5.484375 
Q 32.515625 7.5625 32.625 12.203125 
L 39.40625 12.203125 
Q 39.015625 5.125 35.546875 1.84375 
Q 32.078125 -1.421875 25 -1.421875 
Q 17.234375 -1.421875 14.015625 2.015625 
Q 10.796875 5.46875 10.796875 13.71875 
z
" id="DejaVuSerif-116"/>
     <path d="M 39.796875 16.3125 
L 39.796875 27.296875 
L 28.21875 27.296875 
Q 21.53125 27.296875 18.25 24.40625 
Q 14.984375 21.53125 14.984375 15.578125 
Q 14.984375 10.15625 18.296875 6.984375 
Q 21.625 3.8125 27.296875 3.8125 
Q 32.90625 3.8125 36.34375 7.28125 
Q 39.796875 10.75 39.796875 16.3125 
z
M 48.78125 32.421875 
L 48.78125 5.171875 
L 56.78125 5.171875 
L 56.78125 0 
L 39.796875 0 
L 39.796875 5.609375 
Q 36.8125 2 32.90625 0.28125 
Q 29 -1.421875 23.78125 -1.421875 
Q 15.140625 -1.421875 10.0625 3.171875 
Q 4.984375 7.765625 4.984375 15.578125 
Q 4.984375 23.640625 10.796875 28.078125 
Q 16.609375 32.515625 27.203125 32.515625 
L 39.796875 32.515625 
L 39.796875 36.078125 
Q 39.796875 42 36.203125 45.234375 
Q 32.625 48.484375 26.125 48.484375 
Q 20.75 48.484375 17.578125 46.046875 
Q 14.40625 43.609375 13.625 38.8125 
L 8.984375 38.8125 
L 8.984375 49.3125 
Q 13.671875 51.3125 18.09375 52.3125 
Q 22.515625 53.328125 26.703125 53.328125 
Q 37.5 53.328125 43.140625 47.96875 
Q 48.78125 42.625 48.78125 32.421875 
z
" id="DejaVuSerif-97"/>
     <path id="DejaVuSerif-32"/>
     <path d="M 9.28125 3.515625 
L 9.28125 20.125 
L 14.890625 20.0625 
Q 15.140625 11.765625 19.703125 7.78125 
Q 24.265625 3.8125 33.59375 3.8125 
Q 42.28125 3.8125 46.84375 7.25 
Q 51.421875 10.6875 51.421875 17.28125 
Q 51.421875 22.5625 48.65625 25.390625 
Q 45.90625 28.21875 37.015625 30.90625 
L 27.390625 33.796875 
Q 16.9375 36.96875 12.671875 41.703125 
Q 8.40625 46.4375 8.40625 54.6875 
Q 8.40625 63.96875 14.984375 69.09375 
Q 21.578125 74.21875 33.5 74.21875 
Q 38.578125 74.21875 44.625 73.109375 
Q 50.6875 72.015625 57.515625 69.921875 
L 57.515625 54.390625 
L 52 54.390625 
Q 51.171875 62.109375 46.84375 65.546875 
Q 42.53125 69 33.6875 69 
Q 25.984375 69 21.953125 65.84375 
Q 17.921875 62.703125 17.921875 56.6875 
Q 17.921875 51.46875 20.9375 48.484375 
Q 23.96875 45.515625 33.796875 42.578125 
L 42.828125 39.890625 
Q 52.734375 36.921875 56.953125 32.296875 
Q 61.1875 27.6875 61.1875 19.921875 
Q 61.1875 9.328125 54.390625 3.953125 
Q 47.609375 -1.421875 34.1875 -1.421875 
Q 28.171875 -1.421875 21.9375 -0.1875 
Q 15.71875 1.03125 9.28125 3.515625 
z
" id="DejaVuSerif-83"/>
     <path d="M 5.609375 2.875 
L 5.609375 14.984375 
L 10.796875 14.984375 
Q 10.984375 9.1875 14.421875 6.296875 
Q 17.875 3.421875 24.609375 3.421875 
Q 30.671875 3.421875 33.84375 5.6875 
Q 37.015625 7.953125 37.015625 12.3125 
Q 37.015625 15.71875 34.6875 17.8125 
Q 32.375 19.921875 24.90625 22.3125 
L 18.40625 24.515625 
Q 11.71875 26.65625 8.71875 29.875 
Q 5.71875 33.109375 5.71875 38.09375 
Q 5.71875 45.21875 10.9375 49.265625 
Q 16.15625 53.328125 25.390625 53.328125 
Q 29.5 53.328125 34.03125 52.25 
Q 38.578125 51.171875 43.40625 49.125 
L 43.40625 37.796875 
L 38.234375 37.796875 
Q 38.03125 42.828125 34.703125 45.65625 
Q 31.390625 48.484375 25.6875 48.484375 
Q 20.015625 48.484375 17.109375 46.484375 
Q 14.203125 44.484375 14.203125 40.484375 
Q 14.203125 37.203125 16.40625 35.21875 
Q 18.609375 33.25 25.203125 31.203125 
L 32.328125 29 
Q 39.703125 26.703125 42.9375 23.265625 
Q 46.1875 19.828125 46.1875 14.40625 
Q 46.1875 7.03125 40.546875 2.796875 
Q 34.90625 -1.421875 25 -1.421875 
Q 19.96875 -1.421875 15.1875 -0.34375 
Q 10.40625 0.734375 5.609375 2.875 
z
" id="DejaVuSerif-115"/>
     <path d="M 24.703125 5.171875 
L 33.796875 5.171875 
Q 48 5.171875 55.59375 13.28125 
Q 63.1875 21.390625 63.1875 36.53125 
Q 63.1875 51.65625 55.609375 59.65625 
Q 48.046875 67.671875 33.796875 67.671875 
L 24.703125 67.671875 
z
M 5.515625 0 
L 5.515625 5.171875 
L 14.796875 5.171875 
L 14.796875 67.671875 
L 5.515625 67.671875 
L 5.515625 72.90625 
L 34.515625 72.90625 
Q 53.375 72.90625 63.890625 63.28125 
Q 74.421875 53.65625 74.421875 36.53125 
Q 74.421875 19.34375 63.875 9.671875 
Q 53.328125 0 34.515625 0 
z
" id="DejaVuSerif-68"/>
     <path d="M 11.53125 5.171875 
L 11.53125 70.796875 
L 2.875 70.796875 
L 2.875 75.984375 
L 20.515625 75.984375 
L 20.515625 43.796875 
Q 23.140625 48.6875 27.21875 51 
Q 31.296875 53.328125 37.3125 53.328125 
Q 46.875 53.328125 52.921875 45.75 
Q 58.984375 38.1875 58.984375 25.984375 
Q 58.984375 13.765625 52.921875 6.171875 
Q 46.875 -1.421875 37.3125 -1.421875 
Q 31.296875 -1.421875 27.21875 0.890625 
Q 23.140625 3.21875 20.515625 8.109375 
L 20.515625 0 
L 2.875 0 
L 2.875 5.171875 
z
M 20.515625 23.390625 
Q 20.515625 14.015625 24.09375 9.109375 
Q 27.6875 4.203125 34.515625 4.203125 
Q 41.40625 4.203125 44.9375 9.71875 
Q 48.484375 15.234375 48.484375 25.984375 
Q 48.484375 36.765625 44.9375 42.234375 
Q 41.40625 47.703125 34.515625 47.703125 
Q 27.6875 47.703125 24.09375 42.765625 
Q 20.515625 37.84375 20.515625 28.515625 
z
" id="DejaVuSerif-98"/>
    </defs>
    <g transform="translate(203.921719 23.916562)scale(0.22 -0.22)">
     <use xlink:href="#DejaVuSerif-67"/>
     <use x="76.513672" xlink:href="#DejaVuSerif-104"/>
     <use x="140.917969" xlink:href="#DejaVuSerif-105"/>
     <use x="172.900391" xlink:href="#DejaVuSerif-114"/>
     <use x="220.703125" xlink:href="#DejaVuSerif-111"/>
     <use x="280.908203" xlink:href="#DejaVuSerif-112"/>
     <use x="344.921875" xlink:href="#DejaVuSerif-116"/>
     <use x="385.107422" xlink:href="#DejaVuSerif-101"/>
     <use x="444.287109" xlink:href="#DejaVuSerif-114"/>
     <use x="492.089844" xlink:href="#DejaVuSerif-97"/>
     <use x="551.708984" xlink:href="#DejaVuSerif-32"/>
     <use x="583.496094" xlink:href="#DejaVuSerif-83"/>
     <use x="652.001953" xlink:href="#DejaVuSerif-112"/>
     <use x="716.015625" xlink:href="#DejaVuSerif-101"/>
     <use x="775.195312" xlink:href="#DejaVuSerif-99"/>
     <use x="831.201172" xlink:href="#DejaVuSerif-105"/>
     <use x="863.183594" xlink:href="#DejaVuSerif-101"/>
     <use x="922.363281" xlink:href="#DejaVuSerif-115"/>
     <use x="973.681641" xlink:href="#DejaVuSerif-32"/>
     <use x="1005.46875" xlink:href="#DejaVuSerif-68"/>
     <use x="1085.644531" xlink:href="#DejaVuSerif-105"/>
     <use x="1117.626953" xlink:href="#DejaVuSerif-115"/>
     <use x="1168.945312" xlink:href="#DejaVuSerif-116"/>
     <use x="1209.130859" xlink:href="#DejaVuSerif-114"/>
     <use x="1256.933594" xlink:href="#DejaVuSerif-105"/>
     <use x="1288.916016" xlink:href="#DejaVuSerif-98"/>
     <use x="1352.929688" xlink:href="#DejaVuSerif-117"/>
     <use x="1417.333984" xlink:href="#DejaVuSerif-116"/>
     <use x="1457.519531" xlink:href="#DejaVuSerif-105"/>
     <use x="1489.501953" xlink:href="#DejaVuSerif-111"/>
     <use x="1549.707031" xlink:href="#DejaVuSerif-110"/>
    </g>
   </g>
  </g>
 </g>
 <defs>
  <clipPath id="p0ae6920b6c">
   <rect height="326.16" width="558" x="102.47375" y="43.916562"/>
  </clipPath>
 </defs>
</svg>
