<?xml version="1.0" encoding="utf-8" standalone="no"?>
<!DOCTYPE svg PUBLIC "-//W3C//DTD SVG 1.1//EN"
  "http://www.w3.org/Graphics/SVG/1.1/DTD/svg11.dtd">
<!-- Created with matplotlib (https://matplotlib.org/) -->
<svg height="579.940312pt" version="1.1" viewBox="0 0 960.67125 579.940312" width="960.67125pt" xmlns="http://www.w3.org/2000/svg" xmlns:xlink="http://www.w3.org/1999/xlink">
 <defs>
  <style type="text/css">
*{stroke-linecap:butt;stroke-linejoin:round;}
  </style>
 </defs>
 <g id="figure_1">
  <g id="patch_1">
   <path d="M 0 579.940312 
L 960.67125 579.940312 
L 960.67125 0 
L 0 0 
z
" style="fill:#ffffff;"/>
  </g>
  <g id="axes_1">
   <g id="patch_2">
    <path d="M 116.47125 519.156562 
L 953.47125 519.156562 
L 953.47125 29.916562 
L 116.47125 29.916562 
z
" style="fill:#ffffff;"/>
   </g>
   <g id="patch_3">
    <path clip-path="url(#p30f671e849)" d="M 154.516705 519.156562 
L 230.607614 519.156562 
L 230.607614 53.213705 
L 154.516705 53.213705 
z
" style="fill:#ff7f0e;"/>
   </g>
   <g id="patch_4">
    <path clip-path="url(#p30f671e849)" d="M 230.607614 519.156562 
L 306.698523 519.156562 
L 306.698523 464.871958 
L 230.607614 464.871958 
z
" style="fill:#ff7f0e;"/>
   </g>
   <g id="patch_5">
    <path clip-path="url(#p30f671e849)" d="M 306.698523 519.156562 
L 382.789432 519.156562 
L 382.789432 492.01426 
L 306.698523 492.01426 
z
" style="fill:#ff7f0e;"/>
   </g>
   <g id="patch_6">
    <path clip-path="url(#p30f671e849)" d="M 382.789432 519.156562 
L 458.880341 519.156562 
L 458.880341 510.109128 
L 382.789432 510.109128 
z
" style="fill:#ff7f0e;"/>
   </g>
   <g id="patch_7">
    <path clip-path="url(#p30f671e849)" d="M 458.880341 519.156562 
L 534.97125 519.156562 
L 534.97125 501.061694 
L 458.880341 501.061694 
z
" style="fill:#ff7f0e;"/>
   </g>
   <g id="patch_8">
    <path clip-path="url(#p30f671e849)" d="M 534.97125 519.156562 
L 611.062159 519.156562 
L 611.062159 519.156562 
L 534.97125 519.156562 
z
" style="fill:#ff7f0e;"/>
   </g>
   <g id="patch_9">
    <path clip-path="url(#p30f671e849)" d="M 611.062159 519.156562 
L 687.153068 519.156562 
L 687.153068 514.632845 
L 611.062159 514.632845 
z
" style="fill:#ff7f0e;"/>
   </g>
   <g id="patch_10">
    <path clip-path="url(#p30f671e849)" d="M 687.153068 519.156562 
L 763.243977 519.156562 
L 763.243977 510.109128 
L 687.153068 510.109128 
z
" style="fill:#ff7f0e;"/>
   </g>
   <g id="patch_11">
    <path clip-path="url(#p30f671e849)" d="M 763.243977 519.156562 
L 839.334886 519.156562 
L 839.334886 519.156562 
L 763.243977 519.156562 
z
" style="fill:#ff7f0e;"/>
   </g>
   <g id="patch_12">
    <path clip-path="url(#p30f671e849)" d="M 839.334886 519.156562 
L 915.425795 519.156562 
L 915.425795 514.632845 
L 839.334886 514.632845 
z
" style="fill:#ff7f0e;"/>
   </g>
   <g id="matplotlib.axis_1">
    <g id="xtick_1">
     <g id="line2d_1">
      <defs>
       <path d="M 0 0 
L 0 3.5 
" id="m25ae597068" style="stroke:#000000;stroke-width:0.8;"/>
      </defs>
      <g>
       <use style="stroke:#000000;stroke-width:0.8;" x="152.503718" xlink:href="#m25ae597068" y="519.156562"/>
      </g>
     </g>
     <g id="text_1">
      <!-- 0 -->
      <defs>
       <path d="M 31.78125 3.421875 
Q 39.265625 3.421875 42.96875 11.625 
Q 46.6875 19.828125 46.6875 36.375 
Q 46.6875 52.984375 42.96875 61.1875 
Q 39.265625 69.390625 31.78125 69.390625 
Q 24.3125 69.390625 20.59375 61.1875 
Q 16.890625 52.984375 16.890625 36.375 
Q 16.890625 19.828125 20.59375 11.625 
Q 24.3125 3.421875 31.78125 3.421875 
z
M 31.78125 -1.421875 
Q 19.921875 -1.421875 13.25 8.53125 
Q 6.59375 18.5 6.59375 36.375 
Q 6.59375 54.296875 13.25 64.25 
Q 19.921875 74.21875 31.78125 74.21875 
Q 43.703125 74.21875 50.34375 64.25 
Q 56.984375 54.296875 56.984375 36.375 
Q 56.984375 18.5 50.34375 8.53125 
Q 43.703125 -1.421875 31.78125 -1.421875 
z
" id="DejaVuSerif-48"/>
      </defs>
      <g transform="translate(145.504968 542.873125)scale(0.22 -0.22)">
       <use xlink:href="#DejaVuSerif-48"/>
      </g>
     </g>
    </g>
    <g id="xtick_2">
     <g id="line2d_2">
      <g>
       <use style="stroke:#000000;stroke-width:0.8;" x="253.153068" xlink:href="#m25ae597068" y="519.156562"/>
      </g>
     </g>
     <g id="text_2">
      <!-- 50 -->
      <defs>
       <path d="M 50.296875 72.90625 
L 50.296875 64.890625 
L 16.890625 64.890625 
L 16.890625 44 
Q 19.4375 45.75 22.828125 46.625 
Q 26.21875 47.515625 30.421875 47.515625 
Q 42.234375 47.515625 49.0625 40.96875 
Q 55.90625 34.421875 55.90625 23.09375 
Q 55.90625 11.53125 49 5.046875 
Q 42.09375 -1.421875 29.59375 -1.421875 
Q 24.5625 -1.421875 19.28125 -0.1875 
Q 14.015625 1.03125 8.5 3.515625 
L 8.5 17.671875 
L 14.015625 17.671875 
Q 14.453125 10.75 18.421875 7.078125 
Q 22.40625 3.421875 29.59375 3.421875 
Q 37.3125 3.421875 41.453125 8.5 
Q 45.609375 13.578125 45.609375 23.09375 
Q 45.609375 32.5625 41.484375 37.609375 
Q 37.359375 42.671875 29.59375 42.671875 
Q 25.203125 42.671875 21.84375 41.109375 
Q 18.5 39.546875 15.921875 36.28125 
L 11.71875 36.28125 
L 11.71875 72.90625 
z
" id="DejaVuSerif-53"/>
      </defs>
      <g transform="translate(239.155568 542.873125)scale(0.22 -0.22)">
       <use xlink:href="#DejaVuSerif-53"/>
       <use x="63.623047" xlink:href="#DejaVuSerif-48"/>
      </g>
     </g>
    </g>
    <g id="xtick_3">
     <g id="line2d_3">
      <g>
       <use style="stroke:#000000;stroke-width:0.8;" x="353.802419" xlink:href="#m25ae597068" y="519.156562"/>
      </g>
     </g>
     <g id="text_3">
      <!-- 100 -->
      <defs>
       <path d="M 14.203125 0 
L 14.203125 5.171875 
L 26.90625 5.171875 
L 26.90625 65.828125 
L 12.203125 56.296875 
L 12.203125 62.703125 
L 29.984375 74.21875 
L 36.71875 74.21875 
L 36.71875 5.171875 
L 49.421875 5.171875 
L 49.421875 0 
z
" id="DejaVuSerif-49"/>
      </defs>
      <g transform="translate(332.806169 542.873125)scale(0.22 -0.22)">
       <use xlink:href="#DejaVuSerif-49"/>
       <use x="63.623047" xlink:href="#DejaVuSerif-48"/>
       <use x="127.246094" xlink:href="#DejaVuSerif-48"/>
      </g>
     </g>
    </g>
    <g id="xtick_4">
     <g id="line2d_4">
      <g>
       <use style="stroke:#000000;stroke-width:0.8;" x="454.451769" xlink:href="#m25ae597068" y="519.156562"/>
      </g>
     </g>
     <g id="text_4">
      <!-- 150 -->
      <g transform="translate(433.455519 542.873125)scale(0.22 -0.22)">
       <use xlink:href="#DejaVuSerif-49"/>
       <use x="63.623047" xlink:href="#DejaVuSerif-53"/>
       <use x="127.246094" xlink:href="#DejaVuSerif-48"/>
      </g>
     </g>
    </g>
    <g id="xtick_5">
     <g id="line2d_5">
      <g>
       <use style="stroke:#000000;stroke-width:0.8;" x="555.10112" xlink:href="#m25ae597068" y="519.156562"/>
      </g>
     </g>
     <g id="text_5">
      <!-- 200 -->
      <defs>
       <path d="M 12.796875 55.515625 
L 7.328125 55.515625 
L 7.328125 68.5 
Q 12.546875 71.296875 17.84375 72.75 
Q 23.140625 74.21875 28.21875 74.21875 
Q 39.59375 74.21875 46.1875 68.703125 
Q 52.78125 63.1875 52.78125 53.71875 
Q 52.78125 43.015625 37.84375 28.125 
Q 36.671875 27 36.078125 26.421875 
L 17.671875 8.015625 
L 48.09375 8.015625 
L 48.09375 17 
L 53.8125 17 
L 53.8125 0 
L 6.78125 0 
L 6.78125 5.328125 
L 28.90625 27.390625 
Q 36.234375 34.71875 39.359375 40.84375 
Q 42.484375 46.96875 42.484375 53.71875 
Q 42.484375 61.078125 38.640625 65.234375 
Q 34.8125 69.390625 28.078125 69.390625 
Q 21.09375 69.390625 17.28125 65.921875 
Q 13.484375 62.453125 12.796875 55.515625 
z
" id="DejaVuSerif-50"/>
      </defs>
      <g transform="translate(534.10487 542.873125)scale(0.22 -0.22)">
       <use xlink:href="#DejaVuSerif-50"/>
       <use x="63.623047" xlink:href="#DejaVuSerif-48"/>
       <use x="127.246094" xlink:href="#DejaVuSerif-48"/>
      </g>
     </g>
    </g>
    <g id="xtick_6">
     <g id="line2d_6">
      <g>
       <use style="stroke:#000000;stroke-width:0.8;" x="655.750471" xlink:href="#m25ae597068" y="519.156562"/>
      </g>
     </g>
     <g id="text_6">
      <!-- 250 -->
      <g transform="translate(634.754221 542.873125)scale(0.22 -0.22)">
       <use xlink:href="#DejaVuSerif-50"/>
       <use x="63.623047" xlink:href="#DejaVuSerif-53"/>
       <use x="127.246094" xlink:href="#DejaVuSerif-48"/>
      </g>
     </g>
    </g>
    <g id="xtick_7">
     <g id="line2d_7">
      <g>
       <use style="stroke:#000000;stroke-width:0.8;" x="756.399821" xlink:href="#m25ae597068" y="519.156562"/>
      </g>
     </g>
     <g id="text_7">
      <!-- 300 -->
      <defs>
       <path d="M 9.71875 69.828125 
Q 15.4375 71.96875 20.671875 73.09375 
Q 25.921875 74.21875 30.515625 74.21875 
Q 41.21875 74.21875 47.21875 69.59375 
Q 53.21875 64.984375 53.21875 56.78125 
Q 53.21875 50.203125 49.0625 45.78125 
Q 44.921875 41.359375 37.3125 39.796875 
Q 46.296875 38.53125 51.25 33.28125 
Q 56.203125 28.03125 56.203125 19.671875 
Q 56.203125 9.46875 49.34375 4.015625 
Q 42.484375 -1.421875 29.59375 -1.421875 
Q 23.875 -1.421875 18.421875 -0.1875 
Q 12.984375 1.03125 7.625 3.515625 
L 7.625 17.671875 
L 13.09375 17.671875 
Q 13.578125 10.640625 17.828125 7.03125 
Q 22.078125 3.421875 29.78125 3.421875 
Q 37.25 3.421875 41.578125 7.734375 
Q 45.90625 12.0625 45.90625 19.578125 
Q 45.90625 28.171875 41.453125 32.59375 
Q 37.015625 37.015625 28.421875 37.015625 
L 23.78125 37.015625 
L 23.78125 42 
L 26.21875 42 
Q 34.765625 42 39.03125 45.53125 
Q 43.3125 49.078125 43.3125 56.203125 
Q 43.3125 62.59375 39.796875 65.984375 
Q 36.28125 69.390625 29.6875 69.390625 
Q 23.09375 69.390625 19.453125 66.265625 
Q 15.828125 63.140625 15.1875 56.984375 
L 9.71875 56.984375 
z
" id="DejaVuSerif-51"/>
      </defs>
      <g transform="translate(735.403571 542.873125)scale(0.22 -0.22)">
       <use xlink:href="#DejaVuSerif-51"/>
       <use x="63.623047" xlink:href="#DejaVuSerif-48"/>
       <use x="127.246094" xlink:href="#DejaVuSerif-48"/>
      </g>
     </g>
    </g>
    <g id="xtick_8">
     <g id="line2d_8">
      <g>
       <use style="stroke:#000000;stroke-width:0.8;" x="857.049172" xlink:href="#m25ae597068" y="519.156562"/>
      </g>
     </g>
     <g id="text_8">
      <!-- 350 -->
      <g transform="translate(836.052922 542.873125)scale(0.22 -0.22)">
       <use xlink:href="#DejaVuSerif-51"/>
       <use x="63.623047" xlink:href="#DejaVuSerif-53"/>
       <use x="127.246094" xlink:href="#DejaVuSerif-48"/>
      </g>
     </g>
    </g>
    <g id="text_9">
     <!-- Species Count -->
     <defs>
      <path d="M 9.28125 3.515625 
L 9.28125 20.125 
L 14.890625 20.0625 
Q 15.140625 11.765625 19.703125 7.78125 
Q 24.265625 3.8125 33.59375 3.8125 
Q 42.28125 3.8125 46.84375 7.25 
Q 51.421875 10.6875 51.421875 17.28125 
Q 51.421875 22.5625 48.65625 25.390625 
Q 45.90625 28.21875 37.015625 30.90625 
L 27.390625 33.796875 
Q 16.9375 36.96875 12.671875 41.703125 
Q 8.40625 46.4375 8.40625 54.6875 
Q 8.40625 63.96875 14.984375 69.09375 
Q 21.578125 74.21875 33.5 74.21875 
Q 38.578125 74.21875 44.625 73.109375 
Q 50.6875 72.015625 57.515625 69.921875 
L 57.515625 54.390625 
L 52 54.390625 
Q 51.171875 62.109375 46.84375 65.546875 
Q 42.53125 69 33.6875 69 
Q 25.984375 69 21.953125 65.84375 
Q 17.921875 62.703125 17.921875 56.6875 
Q 17.921875 51.46875 20.9375 48.484375 
Q 23.96875 45.515625 33.796875 42.578125 
L 42.828125 39.890625 
Q 52.734375 36.921875 56.953125 32.296875 
Q 61.1875 27.6875 61.1875 19.921875 
Q 61.1875 9.328125 54.390625 3.953125 
Q 47.609375 -1.421875 34.1875 -1.421875 
Q 28.171875 -1.421875 21.9375 -0.1875 
Q 15.71875 1.03125 9.28125 3.515625 
z
" id="DejaVuSerif-83"/>
      <path d="M 20.515625 28.515625 
L 20.515625 23.390625 
Q 20.515625 14.015625 24.09375 9.109375 
Q 27.6875 4.203125 34.515625 4.203125 
Q 41.40625 4.203125 44.9375 9.71875 
Q 48.484375 15.234375 48.484375 25.984375 
Q 48.484375 36.765625 44.9375 42.234375 
Q 41.40625 47.703125 34.515625 47.703125 
Q 27.6875 47.703125 24.09375 42.765625 
Q 20.515625 37.84375 20.515625 28.515625 
z
M 11.53125 46.6875 
L 2.875 46.6875 
L 2.875 51.90625 
L 20.515625 51.90625 
L 20.515625 43.796875 
Q 23.140625 48.6875 27.21875 51 
Q 31.296875 53.328125 37.3125 53.328125 
Q 46.875 53.328125 52.921875 45.75 
Q 58.984375 38.1875 58.984375 25.984375 
Q 58.984375 13.765625 52.921875 6.171875 
Q 46.875 -1.421875 37.3125 -1.421875 
Q 31.296875 -1.421875 27.21875 0.890625 
Q 23.140625 3.21875 20.515625 8.109375 
L 20.515625 -15.578125 
L 29 -15.578125 
L 29 -20.796875 
L 2.875 -20.796875 
L 2.875 -15.578125 
L 11.53125 -15.578125 
z
" id="DejaVuSerif-112"/>
      <path d="M 54.203125 25 
L 15.484375 25 
L 15.484375 24.609375 
Q 15.484375 14.109375 19.4375 8.765625 
Q 23.390625 3.421875 31.109375 3.421875 
Q 37.015625 3.421875 40.796875 6.515625 
Q 44.578125 9.625 46.09375 15.71875 
L 53.328125 15.71875 
Q 51.171875 7.171875 45.375 2.875 
Q 39.59375 -1.421875 30.171875 -1.421875 
Q 18.796875 -1.421875 11.890625 6.078125 
Q 4.984375 13.578125 4.984375 25.984375 
Q 4.984375 38.28125 11.765625 45.796875 
Q 18.5625 53.328125 29.59375 53.328125 
Q 41.359375 53.328125 47.65625 46.0625 
Q 53.953125 38.8125 54.203125 25 
z
M 43.609375 30.171875 
Q 43.3125 39.265625 39.765625 43.875 
Q 36.234375 48.484375 29.59375 48.484375 
Q 23.390625 48.484375 19.828125 43.84375 
Q 16.265625 39.203125 15.484375 30.171875 
z
" id="DejaVuSerif-101"/>
      <path d="M 51.421875 15.578125 
Q 49.515625 7.28125 44.09375 2.921875 
Q 38.671875 -1.421875 30.078125 -1.421875 
Q 18.75 -1.421875 11.859375 6.078125 
Q 4.984375 13.578125 4.984375 25.984375 
Q 4.984375 38.421875 11.859375 45.875 
Q 18.75 53.328125 30.078125 53.328125 
Q 35.015625 53.328125 39.890625 52.171875 
Q 44.78125 51.03125 49.703125 48.6875 
L 49.703125 35.40625 
L 44.484375 35.40625 
Q 43.453125 42.234375 40.015625 45.359375 
Q 36.578125 48.484375 30.171875 48.484375 
Q 22.90625 48.484375 19.1875 42.84375 
Q 15.484375 37.203125 15.484375 25.984375 
Q 15.484375 14.75 19.171875 9.078125 
Q 22.859375 3.421875 30.171875 3.421875 
Q 35.984375 3.421875 39.453125 6.4375 
Q 42.921875 9.46875 44.1875 15.578125 
z
" id="DejaVuSerif-99"/>
      <path d="M 9.71875 68.015625 
Q 9.71875 70.265625 11.34375 71.921875 
Q 12.984375 73.578125 15.28125 73.578125 
Q 17.53125 73.578125 19.15625 71.921875 
Q 20.796875 70.265625 20.796875 68.015625 
Q 20.796875 65.71875 19.1875 64.109375 
Q 17.578125 62.5 15.28125 62.5 
Q 12.984375 62.5 11.34375 64.109375 
Q 9.71875 65.71875 9.71875 68.015625 
z
M 21.1875 5.171875 
L 29.6875 5.171875 
L 29.6875 0 
L 3.609375 0 
L 3.609375 5.171875 
L 12.203125 5.171875 
L 12.203125 46.6875 
L 3.609375 46.6875 
L 3.609375 51.90625 
L 21.1875 51.90625 
z
" id="DejaVuSerif-105"/>
      <path d="M 5.609375 2.875 
L 5.609375 14.984375 
L 10.796875 14.984375 
Q 10.984375 9.1875 14.421875 6.296875 
Q 17.875 3.421875 24.609375 3.421875 
Q 30.671875 3.421875 33.84375 5.6875 
Q 37.015625 7.953125 37.015625 12.3125 
Q 37.015625 15.71875 34.6875 17.8125 
Q 32.375 19.921875 24.90625 22.3125 
L 18.40625 24.515625 
Q 11.71875 26.65625 8.71875 29.875 
Q 5.71875 33.109375 5.71875 38.09375 
Q 5.71875 45.21875 10.9375 49.265625 
Q 16.15625 53.328125 25.390625 53.328125 
Q 29.5 53.328125 34.03125 52.25 
Q 38.578125 51.171875 43.40625 49.125 
L 43.40625 37.796875 
L 38.234375 37.796875 
Q 38.03125 42.828125 34.703125 45.65625 
Q 31.390625 48.484375 25.6875 48.484375 
Q 20.015625 48.484375 17.109375 46.484375 
Q 14.203125 44.484375 14.203125 40.484375 
Q 14.203125 37.203125 16.40625 35.21875 
Q 18.609375 33.25 25.203125 31.203125 
L 32.328125 29 
Q 39.703125 26.703125 42.9375 23.265625 
Q 46.1875 19.828125 46.1875 14.40625 
Q 46.1875 7.03125 40.546875 2.796875 
Q 34.90625 -1.421875 25 -1.421875 
Q 19.96875 -1.421875 15.1875 -0.34375 
Q 10.40625 0.734375 5.609375 2.875 
z
" id="DejaVuSerif-115"/>
      <path id="DejaVuSerif-32"/>
      <path d="M 70.515625 19.28125 
Q 67.28125 9.078125 59.6875 3.828125 
Q 52.09375 -1.421875 40.484375 -1.421875 
Q 33.34375 -1.421875 27.234375 1.015625 
Q 21.140625 3.46875 16.40625 8.203125 
Q 10.9375 13.671875 8.265625 20.625 
Q 5.609375 27.59375 5.609375 36.375 
Q 5.609375 53.375 15.421875 63.796875 
Q 25.25 74.21875 41.3125 74.21875 
Q 47.265625 74.21875 54 72.65625 
Q 60.75 71.09375 68.5 67.921875 
L 68.5 51.125 
L 62.984375 51.125 
Q 61.1875 60.296875 55.734375 64.640625 
Q 50.296875 69 40.484375 69 
Q 28.8125 69 22.796875 60.71875 
Q 16.796875 52.4375 16.796875 36.375 
Q 16.796875 20.359375 22.796875 12.078125 
Q 28.8125 3.8125 40.484375 3.8125 
Q 48.640625 3.8125 53.90625 7.6875 
Q 59.1875 11.578125 61.53125 19.28125 
z
" id="DejaVuSerif-67"/>
      <path d="M 30.078125 3.421875 
Q 37.3125 3.421875 40.984375 9.125 
Q 44.671875 14.84375 44.671875 25.984375 
Q 44.671875 37.109375 40.984375 42.796875 
Q 37.3125 48.484375 30.078125 48.484375 
Q 22.859375 48.484375 19.171875 42.796875 
Q 15.484375 37.109375 15.484375 25.984375 
Q 15.484375 14.84375 19.1875 9.125 
Q 22.90625 3.421875 30.078125 3.421875 
z
M 30.078125 -1.421875 
Q 18.75 -1.421875 11.859375 6.078125 
Q 4.984375 13.578125 4.984375 25.984375 
Q 4.984375 38.375 11.84375 45.84375 
Q 18.703125 53.328125 30.078125 53.328125 
Q 41.453125 53.328125 48.3125 45.84375 
Q 55.171875 38.375 55.171875 25.984375 
Q 55.171875 13.578125 48.3125 6.078125 
Q 41.453125 -1.421875 30.078125 -1.421875 
z
" id="DejaVuSerif-111"/>
      <path d="M 35.40625 51.90625 
L 52.203125 51.90625 
L 52.203125 5.171875 
L 60.6875 5.171875 
L 60.6875 0 
L 43.21875 0 
L 43.21875 9.1875 
Q 40.71875 4 36.765625 1.28125 
Q 32.8125 -1.421875 27.59375 -1.421875 
Q 18.953125 -1.421875 14.875 3.484375 
Q 10.796875 8.40625 10.796875 18.890625 
L 10.796875 46.6875 
L 2.6875 46.6875 
L 2.6875 51.90625 
L 19.828125 51.90625 
L 19.828125 21.6875 
Q 19.828125 12.203125 22.140625 8.6875 
Q 24.46875 5.171875 30.421875 5.171875 
Q 36.671875 5.171875 39.9375 9.765625 
Q 43.21875 14.359375 43.21875 23.09375 
L 43.21875 46.6875 
L 35.40625 46.6875 
z
" id="DejaVuSerif-117"/>
      <path d="M 4.109375 0 
L 4.109375 5.171875 
L 12.203125 5.171875 
L 12.203125 46.6875 
L 3.609375 46.6875 
L 3.609375 51.90625 
L 21.1875 51.90625 
L 21.1875 42.671875 
Q 23.6875 47.953125 27.65625 50.640625 
Q 31.640625 53.328125 36.921875 53.328125 
Q 45.515625 53.328125 49.5625 48.390625 
Q 53.609375 43.453125 53.609375 33.015625 
L 53.609375 5.171875 
L 61.625 5.171875 
L 61.625 0 
L 36.8125 0 
L 36.8125 5.171875 
L 44.578125 5.171875 
L 44.578125 30.171875 
Q 44.578125 39.703125 42.234375 43.234375 
Q 39.890625 46.78125 33.984375 46.78125 
Q 27.734375 46.78125 24.453125 42.203125 
Q 21.1875 37.640625 21.1875 28.90625 
L 21.1875 5.171875 
L 29 5.171875 
L 29 0 
z
" id="DejaVuSerif-110"/>
      <path d="M 10.796875 46.6875 
L 2.875 46.6875 
L 2.875 51.90625 
L 10.796875 51.90625 
L 10.796875 68.015625 
L 19.828125 68.015625 
L 19.828125 51.90625 
L 36.71875 51.90625 
L 36.71875 46.6875 
L 19.828125 46.6875 
L 19.828125 13.71875 
Q 19.828125 7.125 21.09375 5.265625 
Q 22.359375 3.421875 25.78125 3.421875 
Q 29.296875 3.421875 30.90625 5.484375 
Q 32.515625 7.5625 32.625 12.203125 
L 39.40625 12.203125 
Q 39.015625 5.125 35.546875 1.84375 
Q 32.078125 -1.421875 25 -1.421875 
Q 17.234375 -1.421875 14.015625 2.015625 
Q 10.796875 5.46875 10.796875 13.71875 
z
" id="DejaVuSerif-116"/>
     </defs>
     <g transform="translate(454.925625 568.165)scale(0.22 -0.22)">
      <use xlink:href="#DejaVuSerif-83"/>
      <use x="68.505859" xlink:href="#DejaVuSerif-112"/>
      <use x="132.519531" xlink:href="#DejaVuSerif-101"/>
      <use x="191.699219" xlink:href="#DejaVuSerif-99"/>
      <use x="247.705078" xlink:href="#DejaVuSerif-105"/>
      <use x="279.6875" xlink:href="#DejaVuSerif-101"/>
      <use x="338.867188" xlink:href="#DejaVuSerif-115"/>
      <use x="390.185547" xlink:href="#DejaVuSerif-32"/>
      <use x="421.972656" xlink:href="#DejaVuSerif-67"/>
      <use x="498.486328" xlink:href="#DejaVuSerif-111"/>
      <use x="558.691406" xlink:href="#DejaVuSerif-117"/>
      <use x="623.095703" xlink:href="#DejaVuSerif-110"/>
      <use x="687.5" xlink:href="#DejaVuSerif-116"/>
     </g>
    </g>
   </g>
   <g id="matplotlib.axis_2">
    <g id="ytick_1">
     <g id="line2d_9">
      <defs>
       <path d="M 0 0 
L -3.5 0 
" id="mf4cffd43d2" style="stroke:#000000;stroke-width:0.8;"/>
      </defs>
      <g>
       <use style="stroke:#000000;stroke-width:0.8;" x="116.47125" xlink:href="#mf4cffd43d2" y="519.156562"/>
      </g>
     </g>
     <g id="text_10">
      <!-- 0.0000 -->
      <defs>
       <path d="M 9.421875 5.078125 
Q 9.421875 7.8125 11.28125 9.71875 
Q 13.140625 11.625 15.921875 11.625 
Q 18.609375 11.625 20.5 9.71875 
Q 22.40625 7.8125 22.40625 5.078125 
Q 22.40625 2.390625 20.5 0.484375 
Q 18.609375 -1.421875 15.921875 -1.421875 
Q 13.140625 -1.421875 11.28125 0.453125 
Q 9.421875 2.34375 9.421875 5.078125 
z
" id="DejaVuSerif-46"/>
      </defs>
      <g transform="translate(32.491875 527.514844)scale(0.22 -0.22)">
       <use xlink:href="#DejaVuSerif-48"/>
       <use x="63.623047" xlink:href="#DejaVuSerif-46"/>
       <use x="95.410156" xlink:href="#DejaVuSerif-48"/>
       <use x="159.033203" xlink:href="#DejaVuSerif-48"/>
       <use x="222.65625" xlink:href="#DejaVuSerif-48"/>
       <use x="286.279297" xlink:href="#DejaVuSerif-48"/>
      </g>
     </g>
    </g>
    <g id="ytick_2">
     <g id="line2d_10">
      <g>
       <use style="stroke:#000000;stroke-width:0.8;" x="116.47125" xlink:href="#mf4cffd43d2" y="463.155207"/>
      </g>
     </g>
     <g id="text_11">
      <!-- 0.0025 -->
      <g transform="translate(32.491875 471.513488)scale(0.22 -0.22)">
       <use xlink:href="#DejaVuSerif-48"/>
       <use x="63.623047" xlink:href="#DejaVuSerif-46"/>
       <use x="95.410156" xlink:href="#DejaVuSerif-48"/>
       <use x="159.033203" xlink:href="#DejaVuSerif-48"/>
       <use x="222.65625" xlink:href="#DejaVuSerif-50"/>
       <use x="286.279297" xlink:href="#DejaVuSerif-53"/>
      </g>
     </g>
    </g>
    <g id="ytick_3">
     <g id="line2d_11">
      <g>
       <use style="stroke:#000000;stroke-width:0.8;" x="116.47125" xlink:href="#mf4cffd43d2" y="407.153852"/>
      </g>
     </g>
     <g id="text_12">
      <!-- 0.0050 -->
      <g transform="translate(32.491875 415.512133)scale(0.22 -0.22)">
       <use xlink:href="#DejaVuSerif-48"/>
       <use x="63.623047" xlink:href="#DejaVuSerif-46"/>
       <use x="95.410156" xlink:href="#DejaVuSerif-48"/>
       <use x="159.033203" xlink:href="#DejaVuSerif-48"/>
       <use x="222.65625" xlink:href="#DejaVuSerif-53"/>
       <use x="286.279297" xlink:href="#DejaVuSerif-48"/>
      </g>
     </g>
    </g>
    <g id="ytick_4">
     <g id="line2d_12">
      <g>
       <use style="stroke:#000000;stroke-width:0.8;" x="116.47125" xlink:href="#mf4cffd43d2" y="351.152496"/>
      </g>
     </g>
     <g id="text_13">
      <!-- 0.0075 -->
      <defs>
       <path d="M 56.390625 67.921875 
L 27.875 0 
L 20.609375 0 
L 47.796875 64.890625 
L 14.109375 64.890625 
L 14.109375 55.90625 
L 8.40625 55.90625 
L 8.40625 72.90625 
L 56.390625 72.90625 
z
" id="DejaVuSerif-55"/>
      </defs>
      <g transform="translate(32.491875 359.510778)scale(0.22 -0.22)">
       <use xlink:href="#DejaVuSerif-48"/>
       <use x="63.623047" xlink:href="#DejaVuSerif-46"/>
       <use x="95.410156" xlink:href="#DejaVuSerif-48"/>
       <use x="159.033203" xlink:href="#DejaVuSerif-48"/>
       <use x="222.65625" xlink:href="#DejaVuSerif-55"/>
       <use x="286.279297" xlink:href="#DejaVuSerif-53"/>
      </g>
     </g>
    </g>
    <g id="ytick_5">
     <g id="line2d_13">
      <g>
       <use style="stroke:#000000;stroke-width:0.8;" x="116.47125" xlink:href="#mf4cffd43d2" y="295.151141"/>
      </g>
     </g>
     <g id="text_14">
      <!-- 0.0100 -->
      <g transform="translate(32.491875 303.509422)scale(0.22 -0.22)">
       <use xlink:href="#DejaVuSerif-48"/>
       <use x="63.623047" xlink:href="#DejaVuSerif-46"/>
       <use x="95.410156" xlink:href="#DejaVuSerif-48"/>
       <use x="159.033203" xlink:href="#DejaVuSerif-49"/>
       <use x="222.65625" xlink:href="#DejaVuSerif-48"/>
       <use x="286.279297" xlink:href="#DejaVuSerif-48"/>
      </g>
     </g>
    </g>
    <g id="ytick_6">
     <g id="line2d_14">
      <g>
       <use style="stroke:#000000;stroke-width:0.8;" x="116.47125" xlink:href="#mf4cffd43d2" y="239.149786"/>
      </g>
     </g>
     <g id="text_15">
      <!-- 0.0125 -->
      <g transform="translate(32.491875 247.508067)scale(0.22 -0.22)">
       <use xlink:href="#DejaVuSerif-48"/>
       <use x="63.623047" xlink:href="#DejaVuSerif-46"/>
       <use x="95.410156" xlink:href="#DejaVuSerif-48"/>
       <use x="159.033203" xlink:href="#DejaVuSerif-49"/>
       <use x="222.65625" xlink:href="#DejaVuSerif-50"/>
       <use x="286.279297" xlink:href="#DejaVuSerif-53"/>
      </g>
     </g>
    </g>
    <g id="ytick_7">
     <g id="line2d_15">
      <g>
       <use style="stroke:#000000;stroke-width:0.8;" x="116.47125" xlink:href="#mf4cffd43d2" y="183.14843"/>
      </g>
     </g>
     <g id="text_16">
      <!-- 0.0150 -->
      <g transform="translate(32.491875 191.506712)scale(0.22 -0.22)">
       <use xlink:href="#DejaVuSerif-48"/>
       <use x="63.623047" xlink:href="#DejaVuSerif-46"/>
       <use x="95.410156" xlink:href="#DejaVuSerif-48"/>
       <use x="159.033203" xlink:href="#DejaVuSerif-49"/>
       <use x="222.65625" xlink:href="#DejaVuSerif-53"/>
       <use x="286.279297" xlink:href="#DejaVuSerif-48"/>
      </g>
     </g>
    </g>
    <g id="ytick_8">
     <g id="line2d_16">
      <g>
       <use style="stroke:#000000;stroke-width:0.8;" x="116.47125" xlink:href="#mf4cffd43d2" y="127.147075"/>
      </g>
     </g>
     <g id="text_17">
      <!-- 0.0175 -->
      <g transform="translate(32.491875 135.505356)scale(0.22 -0.22)">
       <use xlink:href="#DejaVuSerif-48"/>
       <use x="63.623047" xlink:href="#DejaVuSerif-46"/>
       <use x="95.410156" xlink:href="#DejaVuSerif-48"/>
       <use x="159.033203" xlink:href="#DejaVuSerif-49"/>
       <use x="222.65625" xlink:href="#DejaVuSerif-55"/>
       <use x="286.279297" xlink:href="#DejaVuSerif-53"/>
      </g>
     </g>
    </g>
    <g id="ytick_9">
     <g id="line2d_17">
      <g>
       <use style="stroke:#000000;stroke-width:0.8;" x="116.47125" xlink:href="#mf4cffd43d2" y="71.14572"/>
      </g>
     </g>
     <g id="text_18">
      <!-- 0.0200 -->
      <g transform="translate(32.491875 79.504001)scale(0.22 -0.22)">
       <use xlink:href="#DejaVuSerif-48"/>
       <use x="63.623047" xlink:href="#DejaVuSerif-46"/>
       <use x="95.410156" xlink:href="#DejaVuSerif-48"/>
       <use x="159.033203" xlink:href="#DejaVuSerif-50"/>
       <use x="222.65625" xlink:href="#DejaVuSerif-48"/>
       <use x="286.279297" xlink:href="#DejaVuSerif-48"/>
      </g>
     </g>
    </g>
    <g id="text_19">
     <!-- Frequency -->
     <defs>
      <path d="M 5.515625 0 
L 5.515625 5.171875 
L 14.796875 5.171875 
L 14.796875 67.671875 
L 5.515625 67.671875 
L 5.515625 72.90625 
L 65.1875 72.90625 
L 65.1875 56.6875 
L 59.1875 56.6875 
L 59.1875 66.890625 
L 24.703125 66.890625 
L 24.703125 42.484375 
L 49.609375 42.484375 
L 49.609375 51.609375 
L 55.609375 51.609375 
L 55.609375 27.390625 
L 49.609375 27.390625 
L 49.609375 36.53125 
L 24.703125 36.53125 
L 24.703125 5.171875 
L 36.375 5.171875 
L 36.375 0 
z
" id="DejaVuSerif-70"/>
      <path d="M 47.796875 52 
L 47.796875 39.015625 
L 42.625 39.015625 
Q 42.390625 42.875 40.484375 44.78125 
Q 38.578125 46.6875 34.90625 46.6875 
Q 28.265625 46.6875 24.71875 42.09375 
Q 21.1875 37.5 21.1875 28.90625 
L 21.1875 5.171875 
L 31.59375 5.171875 
L 31.59375 0 
L 4.109375 0 
L 4.109375 5.171875 
L 12.203125 5.171875 
L 12.203125 46.78125 
L 3.609375 46.78125 
L 3.609375 51.90625 
L 21.1875 51.90625 
L 21.1875 42.671875 
Q 23.828125 48.09375 27.96875 50.703125 
Q 32.125 53.328125 38.09375 53.328125 
Q 40.28125 53.328125 42.703125 52.984375 
Q 45.125 52.640625 47.796875 52 
z
" id="DejaVuSerif-114"/>
      <path d="M 52.484375 46.6875 
L 52.484375 -15.578125 
L 61.078125 -15.578125 
L 61.078125 -20.796875 
L 35.015625 -20.796875 
L 35.015625 -15.578125 
L 43.5 -15.578125 
L 43.5 8.109375 
Q 40.875 3.21875 36.796875 0.890625 
Q 32.71875 -1.421875 26.703125 -1.421875 
Q 17.140625 -1.421875 11.0625 6.171875 
Q 4.984375 13.765625 4.984375 25.984375 
Q 4.984375 38.1875 11.03125 45.75 
Q 17.09375 53.328125 26.703125 53.328125 
Q 32.71875 53.328125 36.796875 51 
Q 40.875 48.6875 43.5 43.796875 
L 43.5 51.90625 
L 61.078125 51.90625 
L 61.078125 46.6875 
z
M 43.5 28.515625 
Q 43.5 37.84375 39.90625 42.765625 
Q 36.328125 47.703125 29.5 47.703125 
Q 22.5625 47.703125 19.015625 42.234375 
Q 15.484375 36.765625 15.484375 25.984375 
Q 15.484375 15.234375 19.015625 9.71875 
Q 22.5625 4.203125 29.5 4.203125 
Q 36.328125 4.203125 39.90625 9.109375 
Q 43.5 14.015625 43.5 23.390625 
z
" id="DejaVuSerif-113"/>
      <path d="M 21.578125 -9.515625 
L 25 -0.875 
L 5.609375 46.6875 
L -0.296875 46.6875 
L -0.296875 51.90625 
L 23.578125 51.90625 
L 23.578125 46.6875 
L 15.28125 46.6875 
L 29.890625 10.984375 
L 44.484375 46.6875 
L 36.71875 46.6875 
L 36.71875 51.90625 
L 56.203125 51.90625 
L 56.203125 46.6875 
L 50.390625 46.6875 
L 26.609375 -11.71875 
Q 24.171875 -17.78125 21.1875 -20 
Q 18.21875 -22.21875 12.796875 -22.21875 
Q 10.5 -22.21875 8.078125 -21.828125 
Q 5.671875 -21.4375 3.21875 -20.703125 
L 3.21875 -10.796875 
L 7.8125 -10.796875 
Q 8.109375 -14.109375 9.5 -15.546875 
Q 10.890625 -17 13.8125 -17 
Q 16.5 -17 18.140625 -15.5 
Q 19.78125 -14.015625 21.578125 -9.515625 
z
" id="DejaVuSerif-121"/>
     </defs>
     <g transform="translate(23.60375 334.034531)rotate(-90)scale(0.22 -0.22)">
      <use xlink:href="#DejaVuSerif-70"/>
      <use x="69.384766" xlink:href="#DejaVuSerif-114"/>
      <use x="117.1875" xlink:href="#DejaVuSerif-101"/>
      <use x="176.367188" xlink:href="#DejaVuSerif-113"/>
      <use x="240.380859" xlink:href="#DejaVuSerif-117"/>
      <use x="304.785156" xlink:href="#DejaVuSerif-101"/>
      <use x="363.964844" xlink:href="#DejaVuSerif-110"/>
      <use x="428.369141" xlink:href="#DejaVuSerif-99"/>
      <use x="484.375" xlink:href="#DejaVuSerif-121"/>
     </g>
    </g>
   </g>
   <g id="line2d_18">
    <path clip-path="url(#p30f671e849)" d="M 154.516705 391.543113 
L 160.555666 388.610997 
L 160.555666 388.610997 
L 166.594627 385.923863 
L 166.594627 385.923863 
L 172.633588 383.499454 
L 172.633588 383.499454 
L 178.672549 381.353994 
L 178.672549 381.353994 
L 184.71151 379.502011 
L 188.737484 378.436733 
L 188.737484 378.436733 
L 194.776445 377.101039 
L 196.789432 376.727131 
L 196.789432 376.727131 
L 206.854367 375.404905 
L 210.880341 375.135129 
L 214.906315 375.014939 
L 214.906315 375.014939 
L 239.062159 377.423444 
L 243.088133 378.334822 
L 251.140081 380.573399 
L 261.205016 384.114522 
L 267.243977 386.610101 
L 275.295925 390.336044 
L 285.36086 395.572137 
L 291.399821 398.986857 
L 301.464756 405.064925 
L 309.516705 410.216675 
L 325.620601 421.065536 
L 363.867354 447.633494 
L 365.880341 448.995525 
L 430.295925 486.102166 
L 452.438782 495.160224 
L 460.490731 497.964219 
L 472.568653 501.704769 
L 514.84138 510.941342 
L 530.945276 513.174431 
L 681.919302 519.020536 
L 728.218003 519.124768 
L 915.425795 519.156541 
L 915.425795 519.156541 
" style="fill:none;stroke:#1f77b4;stroke-linecap:square;stroke-width:1.5;"/>
    <defs>
     <path d="M 0 3 
C 0.795609 3 1.55874 2.683901 2.12132 2.12132 
C 2.683901 1.55874 3 0.795609 3 0 
C 3 -0.795609 2.683901 -1.55874 2.12132 -2.12132 
C 1.55874 -2.683901 0.795609 -3 0 -3 
C -0.795609 -3 -1.55874 -2.683901 -2.12132 -2.12132 
C -2.683901 -1.55874 -3 -0.795609 -3 0 
C -3 0.795609 -2.683901 1.55874 -2.12132 2.12132 
C -1.55874 2.683901 -0.795609 3 0 3 
z
" id="m77e36d5b38" style="stroke:#1f77b4;"/>
    </defs>
    <g clip-path="url(#p30f671e849)">
     <use style="fill:#1f77b4;stroke:#1f77b4;" x="154.516705" xlink:href="#m77e36d5b38" y="391.543113"/>
     <use style="fill:#1f77b4;stroke:#1f77b4;" x="154.516705" xlink:href="#m77e36d5b38" y="391.543113"/>
     <use style="fill:#1f77b4;stroke:#1f77b4;" x="154.516705" xlink:href="#m77e36d5b38" y="391.543113"/>
     <use style="fill:#1f77b4;stroke:#1f77b4;" x="154.516705" xlink:href="#m77e36d5b38" y="391.543113"/>
     <use style="fill:#1f77b4;stroke:#1f77b4;" x="154.516705" xlink:href="#m77e36d5b38" y="391.543113"/>
     <use style="fill:#1f77b4;stroke:#1f77b4;" x="154.516705" xlink:href="#m77e36d5b38" y="391.543113"/>
     <use style="fill:#1f77b4;stroke:#1f77b4;" x="154.516705" xlink:href="#m77e36d5b38" y="391.543113"/>
     <use style="fill:#1f77b4;stroke:#1f77b4;" x="154.516705" xlink:href="#m77e36d5b38" y="391.543113"/>
     <use style="fill:#1f77b4;stroke:#1f77b4;" x="154.516705" xlink:href="#m77e36d5b38" y="391.543113"/>
     <use style="fill:#1f77b4;stroke:#1f77b4;" x="154.516705" xlink:href="#m77e36d5b38" y="391.543113"/>
     <use style="fill:#1f77b4;stroke:#1f77b4;" x="154.516705" xlink:href="#m77e36d5b38" y="391.543113"/>
     <use style="fill:#1f77b4;stroke:#1f77b4;" x="154.516705" xlink:href="#m77e36d5b38" y="391.543113"/>
     <use style="fill:#1f77b4;stroke:#1f77b4;" x="154.516705" xlink:href="#m77e36d5b38" y="391.543113"/>
     <use style="fill:#1f77b4;stroke:#1f77b4;" x="154.516705" xlink:href="#m77e36d5b38" y="391.543113"/>
     <use style="fill:#1f77b4;stroke:#1f77b4;" x="154.516705" xlink:href="#m77e36d5b38" y="391.543113"/>
     <use style="fill:#1f77b4;stroke:#1f77b4;" x="154.516705" xlink:href="#m77e36d5b38" y="391.543113"/>
     <use style="fill:#1f77b4;stroke:#1f77b4;" x="154.516705" xlink:href="#m77e36d5b38" y="391.543113"/>
     <use style="fill:#1f77b4;stroke:#1f77b4;" x="154.516705" xlink:href="#m77e36d5b38" y="391.543113"/>
     <use style="fill:#1f77b4;stroke:#1f77b4;" x="154.516705" xlink:href="#m77e36d5b38" y="391.543113"/>
     <use style="fill:#1f77b4;stroke:#1f77b4;" x="154.516705" xlink:href="#m77e36d5b38" y="391.543113"/>
     <use style="fill:#1f77b4;stroke:#1f77b4;" x="154.516705" xlink:href="#m77e36d5b38" y="391.543113"/>
     <use style="fill:#1f77b4;stroke:#1f77b4;" x="154.516705" xlink:href="#m77e36d5b38" y="391.543113"/>
     <use style="fill:#1f77b4;stroke:#1f77b4;" x="154.516705" xlink:href="#m77e36d5b38" y="391.543113"/>
     <use style="fill:#1f77b4;stroke:#1f77b4;" x="156.529692" xlink:href="#m77e36d5b38" y="390.539672"/>
     <use style="fill:#1f77b4;stroke:#1f77b4;" x="156.529692" xlink:href="#m77e36d5b38" y="390.539672"/>
     <use style="fill:#1f77b4;stroke:#1f77b4;" x="156.529692" xlink:href="#m77e36d5b38" y="390.539672"/>
     <use style="fill:#1f77b4;stroke:#1f77b4;" x="156.529692" xlink:href="#m77e36d5b38" y="390.539672"/>
     <use style="fill:#1f77b4;stroke:#1f77b4;" x="156.529692" xlink:href="#m77e36d5b38" y="390.539672"/>
     <use style="fill:#1f77b4;stroke:#1f77b4;" x="156.529692" xlink:href="#m77e36d5b38" y="390.539672"/>
     <use style="fill:#1f77b4;stroke:#1f77b4;" x="156.529692" xlink:href="#m77e36d5b38" y="390.539672"/>
     <use style="fill:#1f77b4;stroke:#1f77b4;" x="156.529692" xlink:href="#m77e36d5b38" y="390.539672"/>
     <use style="fill:#1f77b4;stroke:#1f77b4;" x="156.529692" xlink:href="#m77e36d5b38" y="390.539672"/>
     <use style="fill:#1f77b4;stroke:#1f77b4;" x="156.529692" xlink:href="#m77e36d5b38" y="390.539672"/>
     <use style="fill:#1f77b4;stroke:#1f77b4;" x="156.529692" xlink:href="#m77e36d5b38" y="390.539672"/>
     <use style="fill:#1f77b4;stroke:#1f77b4;" x="156.529692" xlink:href="#m77e36d5b38" y="390.539672"/>
     <use style="fill:#1f77b4;stroke:#1f77b4;" x="156.529692" xlink:href="#m77e36d5b38" y="390.539672"/>
     <use style="fill:#1f77b4;stroke:#1f77b4;" x="156.529692" xlink:href="#m77e36d5b38" y="390.539672"/>
     <use style="fill:#1f77b4;stroke:#1f77b4;" x="158.542679" xlink:href="#m77e36d5b38" y="389.562065"/>
     <use style="fill:#1f77b4;stroke:#1f77b4;" x="158.542679" xlink:href="#m77e36d5b38" y="389.562065"/>
     <use style="fill:#1f77b4;stroke:#1f77b4;" x="158.542679" xlink:href="#m77e36d5b38" y="389.562065"/>
     <use style="fill:#1f77b4;stroke:#1f77b4;" x="158.542679" xlink:href="#m77e36d5b38" y="389.562065"/>
     <use style="fill:#1f77b4;stroke:#1f77b4;" x="158.542679" xlink:href="#m77e36d5b38" y="389.562065"/>
     <use style="fill:#1f77b4;stroke:#1f77b4;" x="158.542679" xlink:href="#m77e36d5b38" y="389.562065"/>
     <use style="fill:#1f77b4;stroke:#1f77b4;" x="158.542679" xlink:href="#m77e36d5b38" y="389.562065"/>
     <use style="fill:#1f77b4;stroke:#1f77b4;" x="158.542679" xlink:href="#m77e36d5b38" y="389.562065"/>
     <use style="fill:#1f77b4;stroke:#1f77b4;" x="158.542679" xlink:href="#m77e36d5b38" y="389.562065"/>
     <use style="fill:#1f77b4;stroke:#1f77b4;" x="160.555666" xlink:href="#m77e36d5b38" y="388.610997"/>
     <use style="fill:#1f77b4;stroke:#1f77b4;" x="160.555666" xlink:href="#m77e36d5b38" y="388.610997"/>
     <use style="fill:#1f77b4;stroke:#1f77b4;" x="160.555666" xlink:href="#m77e36d5b38" y="388.610997"/>
     <use style="fill:#1f77b4;stroke:#1f77b4;" x="162.568653" xlink:href="#m77e36d5b38" y="387.68716"/>
     <use style="fill:#1f77b4;stroke:#1f77b4;" x="162.568653" xlink:href="#m77e36d5b38" y="387.68716"/>
     <use style="fill:#1f77b4;stroke:#1f77b4;" x="162.568653" xlink:href="#m77e36d5b38" y="387.68716"/>
     <use style="fill:#1f77b4;stroke:#1f77b4;" x="162.568653" xlink:href="#m77e36d5b38" y="387.68716"/>
     <use style="fill:#1f77b4;stroke:#1f77b4;" x="162.568653" xlink:href="#m77e36d5b38" y="387.68716"/>
     <use style="fill:#1f77b4;stroke:#1f77b4;" x="162.568653" xlink:href="#m77e36d5b38" y="387.68716"/>
     <use style="fill:#1f77b4;stroke:#1f77b4;" x="162.568653" xlink:href="#m77e36d5b38" y="387.68716"/>
     <use style="fill:#1f77b4;stroke:#1f77b4;" x="162.568653" xlink:href="#m77e36d5b38" y="387.68716"/>
     <use style="fill:#1f77b4;stroke:#1f77b4;" x="162.568653" xlink:href="#m77e36d5b38" y="387.68716"/>
     <use style="fill:#1f77b4;stroke:#1f77b4;" x="162.568653" xlink:href="#m77e36d5b38" y="387.68716"/>
     <use style="fill:#1f77b4;stroke:#1f77b4;" x="164.58164" xlink:href="#m77e36d5b38" y="386.791229"/>
     <use style="fill:#1f77b4;stroke:#1f77b4;" x="164.58164" xlink:href="#m77e36d5b38" y="386.791229"/>
     <use style="fill:#1f77b4;stroke:#1f77b4;" x="164.58164" xlink:href="#m77e36d5b38" y="386.791229"/>
     <use style="fill:#1f77b4;stroke:#1f77b4;" x="164.58164" xlink:href="#m77e36d5b38" y="386.791229"/>
     <use style="fill:#1f77b4;stroke:#1f77b4;" x="164.58164" xlink:href="#m77e36d5b38" y="386.791229"/>
     <use style="fill:#1f77b4;stroke:#1f77b4;" x="164.58164" xlink:href="#m77e36d5b38" y="386.791229"/>
     <use style="fill:#1f77b4;stroke:#1f77b4;" x="164.58164" xlink:href="#m77e36d5b38" y="386.791229"/>
     <use style="fill:#1f77b4;stroke:#1f77b4;" x="166.594627" xlink:href="#m77e36d5b38" y="385.923863"/>
     <use style="fill:#1f77b4;stroke:#1f77b4;" x="166.594627" xlink:href="#m77e36d5b38" y="385.923863"/>
     <use style="fill:#1f77b4;stroke:#1f77b4;" x="166.594627" xlink:href="#m77e36d5b38" y="385.923863"/>
     <use style="fill:#1f77b4;stroke:#1f77b4;" x="166.594627" xlink:href="#m77e36d5b38" y="385.923863"/>
     <use style="fill:#1f77b4;stroke:#1f77b4;" x="168.607614" xlink:href="#m77e36d5b38" y="385.085701"/>
     <use style="fill:#1f77b4;stroke:#1f77b4;" x="170.620601" xlink:href="#m77e36d5b38" y="384.277364"/>
     <use style="fill:#1f77b4;stroke:#1f77b4;" x="170.620601" xlink:href="#m77e36d5b38" y="384.277364"/>
     <use style="fill:#1f77b4;stroke:#1f77b4;" x="170.620601" xlink:href="#m77e36d5b38" y="384.277364"/>
     <use style="fill:#1f77b4;stroke:#1f77b4;" x="170.620601" xlink:href="#m77e36d5b38" y="384.277364"/>
     <use style="fill:#1f77b4;stroke:#1f77b4;" x="172.633588" xlink:href="#m77e36d5b38" y="383.499454"/>
     <use style="fill:#1f77b4;stroke:#1f77b4;" x="172.633588" xlink:href="#m77e36d5b38" y="383.499454"/>
     <use style="fill:#1f77b4;stroke:#1f77b4;" x="172.633588" xlink:href="#m77e36d5b38" y="383.499454"/>
     <use style="fill:#1f77b4;stroke:#1f77b4;" x="172.633588" xlink:href="#m77e36d5b38" y="383.499454"/>
     <use style="fill:#1f77b4;stroke:#1f77b4;" x="174.646575" xlink:href="#m77e36d5b38" y="382.752552"/>
     <use style="fill:#1f77b4;stroke:#1f77b4;" x="174.646575" xlink:href="#m77e36d5b38" y="382.752552"/>
     <use style="fill:#1f77b4;stroke:#1f77b4;" x="176.659562" xlink:href="#m77e36d5b38" y="382.037219"/>
     <use style="fill:#1f77b4;stroke:#1f77b4;" x="178.672549" xlink:href="#m77e36d5b38" y="381.353994"/>
     <use style="fill:#1f77b4;stroke:#1f77b4;" x="178.672549" xlink:href="#m77e36d5b38" y="381.353994"/>
     <use style="fill:#1f77b4;stroke:#1f77b4;" x="180.685536" xlink:href="#m77e36d5b38" y="380.703392"/>
     <use style="fill:#1f77b4;stroke:#1f77b4;" x="180.685536" xlink:href="#m77e36d5b38" y="380.703392"/>
     <use style="fill:#1f77b4;stroke:#1f77b4;" x="180.685536" xlink:href="#m77e36d5b38" y="380.703392"/>
     <use style="fill:#1f77b4;stroke:#1f77b4;" x="182.698523" xlink:href="#m77e36d5b38" y="380.085908"/>
     <use style="fill:#1f77b4;stroke:#1f77b4;" x="182.698523" xlink:href="#m77e36d5b38" y="380.085908"/>
     <use style="fill:#1f77b4;stroke:#1f77b4;" x="182.698523" xlink:href="#m77e36d5b38" y="380.085908"/>
     <use style="fill:#1f77b4;stroke:#1f77b4;" x="182.698523" xlink:href="#m77e36d5b38" y="380.085908"/>
     <use style="fill:#1f77b4;stroke:#1f77b4;" x="184.71151" xlink:href="#m77e36d5b38" y="379.502011"/>
     <use style="fill:#1f77b4;stroke:#1f77b4;" x="188.737484" xlink:href="#m77e36d5b38" y="378.436733"/>
     <use style="fill:#1f77b4;stroke:#1f77b4;" x="188.737484" xlink:href="#m77e36d5b38" y="378.436733"/>
     <use style="fill:#1f77b4;stroke:#1f77b4;" x="192.763458" xlink:href="#m77e36d5b38" y="377.510824"/>
     <use style="fill:#1f77b4;stroke:#1f77b4;" x="194.776445" xlink:href="#m77e36d5b38" y="377.101039"/>
     <use style="fill:#1f77b4;stroke:#1f77b4;" x="196.789432" xlink:href="#m77e36d5b38" y="376.727131"/>
     <use style="fill:#1f77b4;stroke:#1f77b4;" x="196.789432" xlink:href="#m77e36d5b38" y="376.727131"/>
     <use style="fill:#1f77b4;stroke:#1f77b4;" x="204.84138" xlink:href="#m77e36d5b38" y="375.595643"/>
     <use style="fill:#1f77b4;stroke:#1f77b4;" x="206.854367" xlink:href="#m77e36d5b38" y="375.404905"/>
     <use style="fill:#1f77b4;stroke:#1f77b4;" x="210.880341" xlink:href="#m77e36d5b38" y="375.135129"/>
     <use style="fill:#1f77b4;stroke:#1f77b4;" x="214.906315" xlink:href="#m77e36d5b38" y="375.014939"/>
     <use style="fill:#1f77b4;stroke:#1f77b4;" x="214.906315" xlink:href="#m77e36d5b38" y="375.014939"/>
     <use style="fill:#1f77b4;stroke:#1f77b4;" x="239.062159" xlink:href="#m77e36d5b38" y="377.423444"/>
     <use style="fill:#1f77b4;stroke:#1f77b4;" x="241.075146" xlink:href="#m77e36d5b38" y="377.861488"/>
     <use style="fill:#1f77b4;stroke:#1f77b4;" x="241.075146" xlink:href="#m77e36d5b38" y="377.861488"/>
     <use style="fill:#1f77b4;stroke:#1f77b4;" x="243.088133" xlink:href="#m77e36d5b38" y="378.334822"/>
     <use style="fill:#1f77b4;stroke:#1f77b4;" x="249.127094" xlink:href="#m77e36d5b38" y="379.9628"/>
     <use style="fill:#1f77b4;stroke:#1f77b4;" x="251.140081" xlink:href="#m77e36d5b38" y="380.573399"/>
     <use style="fill:#1f77b4;stroke:#1f77b4;" x="261.205016" xlink:href="#m77e36d5b38" y="384.114522"/>
     <use style="fill:#1f77b4;stroke:#1f77b4;" x="267.243977" xlink:href="#m77e36d5b38" y="386.610101"/>
     <use style="fill:#1f77b4;stroke:#1f77b4;" x="275.295925" xlink:href="#m77e36d5b38" y="390.336044"/>
     <use style="fill:#1f77b4;stroke:#1f77b4;" x="285.36086" xlink:href="#m77e36d5b38" y="395.572137"/>
     <use style="fill:#1f77b4;stroke:#1f77b4;" x="291.399821" xlink:href="#m77e36d5b38" y="398.986857"/>
     <use style="fill:#1f77b4;stroke:#1f77b4;" x="301.464756" xlink:href="#m77e36d5b38" y="405.064925"/>
     <use style="fill:#1f77b4;stroke:#1f77b4;" x="309.516705" xlink:href="#m77e36d5b38" y="410.216675"/>
     <use style="fill:#1f77b4;stroke:#1f77b4;" x="325.620601" xlink:href="#m77e36d5b38" y="421.065536"/>
     <use style="fill:#1f77b4;stroke:#1f77b4;" x="345.750471" xlink:href="#m77e36d5b38" y="435.111444"/>
     <use style="fill:#1f77b4;stroke:#1f77b4;" x="357.828393" xlink:href="#m77e36d5b38" y="443.504885"/>
     <use style="fill:#1f77b4;stroke:#1f77b4;" x="363.867354" xlink:href="#m77e36d5b38" y="447.633494"/>
     <use style="fill:#1f77b4;stroke:#1f77b4;" x="365.880341" xlink:href="#m77e36d5b38" y="448.995525"/>
     <use style="fill:#1f77b4;stroke:#1f77b4;" x="430.295925" xlink:href="#m77e36d5b38" y="486.102166"/>
     <use style="fill:#1f77b4;stroke:#1f77b4;" x="452.438782" xlink:href="#m77e36d5b38" y="495.160224"/>
     <use style="fill:#1f77b4;stroke:#1f77b4;" x="460.490731" xlink:href="#m77e36d5b38" y="497.964219"/>
     <use style="fill:#1f77b4;stroke:#1f77b4;" x="472.568653" xlink:href="#m77e36d5b38" y="501.704769"/>
     <use style="fill:#1f77b4;stroke:#1f77b4;" x="514.84138" xlink:href="#m77e36d5b38" y="510.941342"/>
     <use style="fill:#1f77b4;stroke:#1f77b4;" x="530.945276" xlink:href="#m77e36d5b38" y="513.174431"/>
     <use style="fill:#1f77b4;stroke:#1f77b4;" x="681.919302" xlink:href="#m77e36d5b38" y="519.020536"/>
     <use style="fill:#1f77b4;stroke:#1f77b4;" x="718.153068" xlink:href="#m77e36d5b38" y="519.112439"/>
     <use style="fill:#1f77b4;stroke:#1f77b4;" x="728.218003" xlink:href="#m77e36d5b38" y="519.124768"/>
     <use style="fill:#1f77b4;stroke:#1f77b4;" x="915.425795" xlink:href="#m77e36d5b38" y="519.156541"/>
    </g>
   </g>
   <g id="patch_13">
    <path d="M 116.47125 519.156562 
L 116.47125 29.916562 
" style="fill:none;stroke:#000000;stroke-linecap:square;stroke-linejoin:miter;stroke-width:0.8;"/>
   </g>
   <g id="patch_14">
    <path d="M 953.47125 519.156562 
L 953.47125 29.916562 
" style="fill:none;stroke:#000000;stroke-linecap:square;stroke-linejoin:miter;stroke-width:0.8;"/>
   </g>
   <g id="patch_15">
    <path d="M 116.47125 519.156562 
L 953.47125 519.156562 
" style="fill:none;stroke:#000000;stroke-linecap:square;stroke-linejoin:miter;stroke-width:0.8;"/>
   </g>
   <g id="patch_16">
    <path d="M 116.47125 29.916562 
L 953.47125 29.916562 
" style="fill:none;stroke:#000000;stroke-linecap:square;stroke-linejoin:miter;stroke-width:0.8;"/>
   </g>
   <g id="text_20">
    <!-- Density-Frequency Dist. of Original Species - Rodentia -->
    <defs>
     <path d="M 24.703125 5.171875 
L 33.796875 5.171875 
Q 48 5.171875 55.59375 13.28125 
Q 63.1875 21.390625 63.1875 36.53125 
Q 63.1875 51.65625 55.609375 59.65625 
Q 48.046875 67.671875 33.796875 67.671875 
L 24.703125 67.671875 
z
M 5.515625 0 
L 5.515625 5.171875 
L 14.796875 5.171875 
L 14.796875 67.671875 
L 5.515625 67.671875 
L 5.515625 72.90625 
L 34.515625 72.90625 
Q 53.375 72.90625 63.890625 63.28125 
Q 74.421875 53.65625 74.421875 36.53125 
Q 74.421875 19.34375 63.875 9.671875 
Q 53.328125 0 34.515625 0 
z
" id="DejaVuSerif-68"/>
     <path d="M 4.390625 30.609375 
L 29.390625 30.609375 
L 29.390625 23 
L 4.390625 23 
z
" id="DejaVuSerif-45"/>
     <path d="M 43.015625 63.71875 
L 38.28125 63.71875 
Q 38.234375 67.390625 36.203125 69.28125 
Q 34.1875 71.1875 30.328125 71.1875 
Q 25.296875 71.1875 23.234375 68.421875 
Q 21.1875 65.671875 21.1875 58.59375 
L 21.1875 51.90625 
L 35.6875 51.90625 
L 35.6875 46.6875 
L 21.1875 46.6875 
L 21.1875 5.171875 
L 32.71875 5.171875 
L 32.71875 0 
L 3.609375 0 
L 3.609375 5.171875 
L 12.203125 5.171875 
L 12.203125 46.6875 
L 3.609375 46.6875 
L 3.609375 51.90625 
L 12.203125 51.90625 
L 12.203125 58.40625 
Q 12.203125 67.09375 16.71875 71.53125 
Q 21.234375 75.984375 29.984375 75.984375 
Q 33.25 75.984375 36.515625 75.390625 
Q 39.796875 74.8125 43.015625 73.578125 
z
" id="DejaVuSerif-102"/>
     <path d="M 41.015625 3.8125 
Q 52.984375 3.8125 59.078125 12.03125 
Q 65.1875 20.265625 65.1875 36.375 
Q 65.1875 52.546875 59.078125 60.765625 
Q 52.984375 69 41.015625 69 
Q 29 69 22.890625 60.765625 
Q 16.796875 52.546875 16.796875 36.375 
Q 16.796875 20.265625 22.890625 12.03125 
Q 29 3.8125 41.015625 3.8125 
z
M 41.015625 -1.421875 
Q 33.59375 -1.421875 27.359375 1.015625 
Q 21.140625 3.46875 16.40625 8.203125 
Q 10.9375 13.671875 8.265625 20.609375 
Q 5.609375 27.546875 5.609375 36.375 
Q 5.609375 45.21875 8.265625 52.171875 
Q 10.9375 59.125 16.40625 64.59375 
Q 21.1875 69.390625 27.34375 71.796875 
Q 33.5 74.21875 41.015625 74.21875 
Q 56.890625 74.21875 66.65625 63.8125 
Q 76.421875 53.421875 76.421875 36.375 
Q 76.421875 27.640625 73.734375 20.625 
Q 71.046875 13.625 65.578125 8.203125 
Q 60.796875 3.421875 54.640625 1 
Q 48.484375 -1.421875 41.015625 -1.421875 
z
" id="DejaVuSerif-79"/>
     <path d="M 52.484375 46.6875 
L 52.484375 1.125 
Q 52.484375 -10.0625 46.328125 -16.140625 
Q 40.1875 -22.21875 28.8125 -22.21875 
Q 23.6875 -22.21875 19 -21.28125 
Q 14.3125 -20.359375 10.015625 -18.5 
L 10.015625 -7.625 
L 14.703125 -7.625 
Q 15.578125 -12.703125 18.84375 -15.046875 
Q 22.125 -17.390625 28.21875 -17.390625 
Q 36.140625 -17.390625 39.8125 -12.921875 
Q 43.5 -8.453125 43.5 1.125 
L 43.5 8.109375 
Q 40.875 3.21875 36.796875 0.890625 
Q 32.71875 -1.421875 26.703125 -1.421875 
Q 17.140625 -1.421875 11.0625 6.171875 
Q 4.984375 13.765625 4.984375 25.984375 
Q 4.984375 38.1875 11.03125 45.75 
Q 17.09375 53.328125 26.703125 53.328125 
Q 32.71875 53.328125 36.796875 51 
Q 40.875 48.6875 43.5 43.796875 
L 43.5 51.90625 
L 61.078125 51.90625 
L 61.078125 46.6875 
z
M 43.5 28.515625 
Q 43.5 37.84375 39.90625 42.765625 
Q 36.328125 47.703125 29.5 47.703125 
Q 22.5625 47.703125 19.015625 42.234375 
Q 15.484375 36.765625 15.484375 25.984375 
Q 15.484375 15.234375 19.015625 9.71875 
Q 22.5625 4.203125 29.5 4.203125 
Q 36.328125 4.203125 39.90625 9.109375 
Q 43.5 14.015625 43.5 23.390625 
z
" id="DejaVuSerif-103"/>
     <path d="M 39.796875 16.3125 
L 39.796875 27.296875 
L 28.21875 27.296875 
Q 21.53125 27.296875 18.25 24.40625 
Q 14.984375 21.53125 14.984375 15.578125 
Q 14.984375 10.15625 18.296875 6.984375 
Q 21.625 3.8125 27.296875 3.8125 
Q 32.90625 3.8125 36.34375 7.28125 
Q 39.796875 10.75 39.796875 16.3125 
z
M 48.78125 32.421875 
L 48.78125 5.171875 
L 56.78125 5.171875 
L 56.78125 0 
L 39.796875 0 
L 39.796875 5.609375 
Q 36.8125 2 32.90625 0.28125 
Q 29 -1.421875 23.78125 -1.421875 
Q 15.140625 -1.421875 10.0625 3.171875 
Q 4.984375 7.765625 4.984375 15.578125 
Q 4.984375 23.640625 10.796875 28.078125 
Q 16.609375 32.515625 27.203125 32.515625 
L 39.796875 32.515625 
L 39.796875 36.078125 
Q 39.796875 42 36.203125 45.234375 
Q 32.625 48.484375 26.125 48.484375 
Q 20.75 48.484375 17.578125 46.046875 
Q 14.40625 43.609375 13.625 38.8125 
L 8.984375 38.8125 
L 8.984375 49.3125 
Q 13.671875 51.3125 18.09375 52.3125 
Q 22.515625 53.328125 26.703125 53.328125 
Q 37.5 53.328125 43.140625 47.96875 
Q 48.78125 42.625 48.78125 32.421875 
z
" id="DejaVuSerif-97"/>
     <path d="M 20.515625 5.171875 
L 29 5.171875 
L 29 0 
L 2.875 0 
L 2.875 5.171875 
L 11.53125 5.171875 
L 11.53125 70.796875 
L 2.875 70.796875 
L 2.875 75.984375 
L 20.515625 75.984375 
z
" id="DejaVuSerif-108"/>
     <path d="M 47.90625 36.1875 
Q 51.3125 35.25 53.78125 33.03125 
Q 56.25 30.8125 58.203125 26.8125 
L 68.796875 5.171875 
L 77.6875 5.171875 
L 77.6875 0 
L 60.5 0 
L 49.125 23.1875 
Q 45.84375 29.9375 43.109375 31.90625 
Q 40.375 33.890625 35.59375 33.890625 
L 24.703125 33.890625 
L 24.703125 5.171875 
L 35.015625 5.171875 
L 35.015625 0 
L 5.515625 0 
L 5.515625 5.171875 
L 14.796875 5.171875 
L 14.796875 67.671875 
L 5.515625 67.671875 
L 5.515625 72.90625 
L 42.484375 72.90625 
Q 53.125 72.90625 58.90625 67.828125 
Q 64.703125 62.75 64.703125 53.421875 
Q 64.703125 45.90625 60.46875 41.578125 
Q 56.25 37.25 47.90625 36.1875 
z
M 24.703125 39.109375 
L 39.109375 39.109375 
Q 46.484375 39.109375 50 42.59375 
Q 53.515625 46.09375 53.515625 53.421875 
Q 53.515625 60.75 50 64.203125 
Q 46.484375 67.671875 39.109375 67.671875 
L 24.703125 67.671875 
z
" id="DejaVuSerif-82"/>
     <path d="M 52.484375 5.171875 
L 61.078125 5.171875 
L 61.078125 0 
L 43.5 0 
L 43.5 8.109375 
Q 40.875 3.21875 36.796875 0.890625 
Q 32.71875 -1.421875 26.703125 -1.421875 
Q 17.140625 -1.421875 11.0625 6.171875 
Q 4.984375 13.765625 4.984375 25.984375 
Q 4.984375 38.1875 11.03125 45.75 
Q 17.09375 53.328125 26.703125 53.328125 
Q 32.71875 53.328125 36.796875 51 
Q 40.875 48.6875 43.5 43.796875 
L 43.5 70.796875 
L 35.015625 70.796875 
L 35.015625 75.984375 
L 52.484375 75.984375 
z
M 43.5 23.390625 
L 43.5 28.515625 
Q 43.5 37.84375 39.90625 42.765625 
Q 36.328125 47.703125 29.5 47.703125 
Q 22.5625 47.703125 19.015625 42.234375 
Q 15.484375 36.765625 15.484375 25.984375 
Q 15.484375 15.234375 19.015625 9.71875 
Q 22.5625 4.203125 29.5 4.203125 
Q 36.328125 4.203125 39.90625 9.109375 
Q 43.5 14.015625 43.5 23.390625 
z
" id="DejaVuSerif-100"/>
    </defs>
    <g transform="translate(229.781406 23.916562)scale(0.22 -0.22)">
     <use xlink:href="#DejaVuSerif-68"/>
     <use x="80.175781" xlink:href="#DejaVuSerif-101"/>
     <use x="139.355469" xlink:href="#DejaVuSerif-110"/>
     <use x="203.759766" xlink:href="#DejaVuSerif-115"/>
     <use x="255.078125" xlink:href="#DejaVuSerif-105"/>
     <use x="287.060547" xlink:href="#DejaVuSerif-116"/>
     <use x="327.246094" xlink:href="#DejaVuSerif-121"/>
     <use x="383.740234" xlink:href="#DejaVuSerif-45"/>
     <use x="417.529297" xlink:href="#DejaVuSerif-70"/>
     <use x="486.914062" xlink:href="#DejaVuSerif-114"/>
     <use x="534.716797" xlink:href="#DejaVuSerif-101"/>
     <use x="593.896484" xlink:href="#DejaVuSerif-113"/>
     <use x="657.910156" xlink:href="#DejaVuSerif-117"/>
     <use x="722.314453" xlink:href="#DejaVuSerif-101"/>
     <use x="781.494141" xlink:href="#DejaVuSerif-110"/>
     <use x="845.898438" xlink:href="#DejaVuSerif-99"/>
     <use x="901.904297" xlink:href="#DejaVuSerif-121"/>
     <use x="958.398438" xlink:href="#DejaVuSerif-32"/>
     <use x="990.185547" xlink:href="#DejaVuSerif-68"/>
     <use x="1070.361328" xlink:href="#DejaVuSerif-105"/>
     <use x="1102.34375" xlink:href="#DejaVuSerif-115"/>
     <use x="1153.662109" xlink:href="#DejaVuSerif-116"/>
     <use x="1193.847656" xlink:href="#DejaVuSerif-46"/>
     <use x="1225.634766" xlink:href="#DejaVuSerif-32"/>
     <use x="1257.421875" xlink:href="#DejaVuSerif-111"/>
     <use x="1317.626953" xlink:href="#DejaVuSerif-102"/>
     <use x="1354.638672" xlink:href="#DejaVuSerif-32"/>
     <use x="1386.425781" xlink:href="#DejaVuSerif-79"/>
     <use x="1468.408203" xlink:href="#DejaVuSerif-114"/>
     <use x="1516.210938" xlink:href="#DejaVuSerif-105"/>
     <use x="1548.193359" xlink:href="#DejaVuSerif-103"/>
     <use x="1612.207031" xlink:href="#DejaVuSerif-105"/>
     <use x="1644.189453" xlink:href="#DejaVuSerif-110"/>
     <use x="1708.59375" xlink:href="#DejaVuSerif-97"/>
     <use x="1768.212891" xlink:href="#DejaVuSerif-108"/>
     <use x="1800.195312" xlink:href="#DejaVuSerif-32"/>
     <use x="1831.982422" xlink:href="#DejaVuSerif-83"/>
     <use x="1900.488281" xlink:href="#DejaVuSerif-112"/>
     <use x="1964.501953" xlink:href="#DejaVuSerif-101"/>
     <use x="2023.681641" xlink:href="#DejaVuSerif-99"/>
     <use x="2079.6875" xlink:href="#DejaVuSerif-105"/>
     <use x="2111.669922" xlink:href="#DejaVuSerif-101"/>
     <use x="2170.849609" xlink:href="#DejaVuSerif-115"/>
     <use x="2222.167969" xlink:href="#DejaVuSerif-32"/>
     <use x="2253.955078" xlink:href="#DejaVuSerif-45"/>
     <use x="2287.744141" xlink:href="#DejaVuSerif-32"/>
     <use x="2319.53125" xlink:href="#DejaVuSerif-82"/>
     <use x="2394.824219" xlink:href="#DejaVuSerif-111"/>
     <use x="2455.029297" xlink:href="#DejaVuSerif-100"/>
     <use x="2519.042969" xlink:href="#DejaVuSerif-101"/>
     <use x="2578.222656" xlink:href="#DejaVuSerif-110"/>
     <use x="2642.626953" xlink:href="#DejaVuSerif-116"/>
     <use x="2682.8125" xlink:href="#DejaVuSerif-105"/>
     <use x="2714.794922" xlink:href="#DejaVuSerif-97"/>
    </g>
   </g>
   <g id="legend_1">
    <g id="patch_17">
     <path d="M 582.00125 112.413125 
L 938.07125 112.413125 
Q 942.47125 112.413125 942.47125 108.013125 
L 942.47125 45.316562 
Q 942.47125 40.916562 938.07125 40.916562 
L 582.00125 40.916562 
Q 577.60125 40.916562 577.60125 45.316562 
L 577.60125 108.013125 
Q 577.60125 112.413125 582.00125 112.413125 
z
" style="fill:#ffffff;opacity:0.8;stroke:#cccccc;stroke-linejoin:miter;"/>
    </g>
    <g id="line2d_19">
     <path d="M 586.40125 58.733125 
L 630.40125 58.733125 
" style="fill:none;stroke:#1f77b4;stroke-linecap:square;stroke-width:1.5;"/>
    </g>
    <g id="line2d_20">
     <g>
      <use style="fill:#1f77b4;stroke:#1f77b4;" x="608.40125" xlink:href="#m77e36d5b38" y="58.733125"/>
     </g>
    </g>
    <g id="text_21">
     <!-- density dist.   mean=31.6 -->
     <defs>
      <path d="M 51.8125 41.796875 
Q 54.390625 47.515625 58.421875 50.421875 
Q 62.453125 53.328125 67.828125 53.328125 
Q 75.984375 53.328125 79.984375 48.265625 
Q 83.984375 43.21875 83.984375 33.015625 
L 83.984375 5.171875 
L 92.09375 5.171875 
L 92.09375 0 
L 67.1875 0 
L 67.1875 5.171875 
L 75 5.171875 
L 75 31.984375 
Q 75 39.9375 72.65625 43.3125 
Q 70.3125 46.6875 64.890625 46.6875 
Q 58.890625 46.6875 55.734375 42.140625 
Q 52.59375 37.59375 52.59375 28.90625 
L 52.59375 5.171875 
L 60.40625 5.171875 
L 60.40625 0 
L 35.796875 0 
L 35.796875 5.171875 
L 43.609375 5.171875 
L 43.609375 32.328125 
Q 43.609375 40.09375 41.265625 43.390625 
Q 38.921875 46.6875 33.5 46.6875 
Q 27.484375 46.6875 24.328125 42.140625 
Q 21.1875 37.59375 21.1875 28.90625 
L 21.1875 5.171875 
L 29 5.171875 
L 29 0 
L 4.109375 0 
L 4.109375 5.171875 
L 12.203125 5.171875 
L 12.203125 46.78125 
L 3.609375 46.78125 
L 3.609375 51.90625 
L 21.1875 51.90625 
L 21.1875 42.671875 
Q 23.6875 47.859375 27.53125 50.59375 
Q 31.390625 53.328125 36.28125 53.328125 
Q 42.328125 53.328125 46.375 50.3125 
Q 50.4375 47.3125 51.8125 41.796875 
z
" id="DejaVuSerif-109"/>
      <path d="M 10.59375 45.21875 
L 73.1875 45.21875 
L 73.1875 37.40625 
L 10.59375 37.40625 
z
M 10.59375 25.296875 
L 73.1875 25.296875 
L 73.1875 17.484375 
L 10.59375 17.484375 
z
" id="DejaVuSerif-61"/>
      <path d="M 32.71875 3.421875 
Q 39.59375 3.421875 43.296875 8.46875 
Q 47.015625 13.53125 47.015625 23 
Q 47.015625 32.46875 43.296875 37.515625 
Q 39.59375 42.578125 32.71875 42.578125 
Q 25.734375 42.578125 22.0625 37.6875 
Q 18.40625 32.8125 18.40625 23.578125 
Q 18.40625 13.875 22.109375 8.640625 
Q 25.828125 3.421875 32.71875 3.421875 
z
M 16.796875 40.140625 
Q 20.125 43.796875 24.3125 45.59375 
Q 28.515625 47.40625 33.796875 47.40625 
Q 44.671875 47.40625 51 40.859375 
Q 57.328125 34.328125 57.328125 23 
Q 57.328125 11.921875 50.515625 5.25 
Q 43.703125 -1.421875 32.328125 -1.421875 
Q 19.96875 -1.421875 13.328125 7.78125 
Q 6.6875 17 6.6875 34.078125 
Q 6.6875 53.21875 14.546875 63.71875 
Q 22.40625 74.21875 36.71875 74.21875 
Q 40.578125 74.21875 44.828125 73.484375 
Q 49.078125 72.75 53.515625 71.296875 
L 53.515625 59.28125 
L 48 59.28125 
Q 47.40625 64.203125 44.234375 66.796875 
Q 41.0625 69.390625 35.6875 69.390625 
Q 26.21875 69.390625 21.578125 62.203125 
Q 16.9375 55.03125 16.796875 40.140625 
z
" id="DejaVuSerif-54"/>
     </defs>
     <g transform="translate(648.00125 66.433125)scale(0.22 -0.22)">
      <use xlink:href="#DejaVuSerif-100"/>
      <use x="64.013672" xlink:href="#DejaVuSerif-101"/>
      <use x="123.193359" xlink:href="#DejaVuSerif-110"/>
      <use x="187.597656" xlink:href="#DejaVuSerif-115"/>
      <use x="238.916016" xlink:href="#DejaVuSerif-105"/>
      <use x="270.898438" xlink:href="#DejaVuSerif-116"/>
      <use x="311.083984" xlink:href="#DejaVuSerif-121"/>
      <use x="367.578125" xlink:href="#DejaVuSerif-32"/>
      <use x="399.365234" xlink:href="#DejaVuSerif-100"/>
      <use x="463.378906" xlink:href="#DejaVuSerif-105"/>
      <use x="495.361328" xlink:href="#DejaVuSerif-115"/>
      <use x="546.679688" xlink:href="#DejaVuSerif-116"/>
      <use x="586.865234" xlink:href="#DejaVuSerif-46"/>
      <use x="618.652344" xlink:href="#DejaVuSerif-32"/>
      <use x="650.439453" xlink:href="#DejaVuSerif-32"/>
      <use x="682.226562" xlink:href="#DejaVuSerif-32"/>
      <use x="714.013672" xlink:href="#DejaVuSerif-109"/>
      <use x="808.837891" xlink:href="#DejaVuSerif-101"/>
      <use x="868.017578" xlink:href="#DejaVuSerif-97"/>
      <use x="927.636719" xlink:href="#DejaVuSerif-110"/>
      <use x="992.041016" xlink:href="#DejaVuSerif-61"/>
      <use x="1075.830078" xlink:href="#DejaVuSerif-51"/>
      <use x="1139.453125" xlink:href="#DejaVuSerif-49"/>
      <use x="1203.076172" xlink:href="#DejaVuSerif-46"/>
      <use x="1234.863281" xlink:href="#DejaVuSerif-54"/>
     </g>
    </g>
    <g id="patch_18">
     <path d="M 586.40125 99.037812 
L 630.40125 99.037812 
L 630.40125 83.637812 
L 586.40125 83.637812 
z
" style="fill:#ff7f0e;"/>
    </g>
    <g id="text_22">
     <!-- freq. dist.       std=62.0 -->
     <g transform="translate(648.00125 99.037812)scale(0.22 -0.22)">
      <use xlink:href="#DejaVuSerif-102"/>
      <use x="37.011719" xlink:href="#DejaVuSerif-114"/>
      <use x="84.814453" xlink:href="#DejaVuSerif-101"/>
      <use x="143.994141" xlink:href="#DejaVuSerif-113"/>
      <use x="208.007812" xlink:href="#DejaVuSerif-46"/>
      <use x="239.794922" xlink:href="#DejaVuSerif-32"/>
      <use x="271.582031" xlink:href="#DejaVuSerif-100"/>
      <use x="335.595703" xlink:href="#DejaVuSerif-105"/>
      <use x="367.578125" xlink:href="#DejaVuSerif-115"/>
      <use x="418.896484" xlink:href="#DejaVuSerif-116"/>
      <use x="459.082031" xlink:href="#DejaVuSerif-46"/>
      <use x="490.869141" xlink:href="#DejaVuSerif-32"/>
      <use x="522.65625" xlink:href="#DejaVuSerif-32"/>
      <use x="554.443359" xlink:href="#DejaVuSerif-32"/>
      <use x="586.230469" xlink:href="#DejaVuSerif-32"/>
      <use x="618.017578" xlink:href="#DejaVuSerif-32"/>
      <use x="649.804688" xlink:href="#DejaVuSerif-32"/>
      <use x="681.591797" xlink:href="#DejaVuSerif-32"/>
      <use x="713.378906" xlink:href="#DejaVuSerif-115"/>
      <use x="764.697266" xlink:href="#DejaVuSerif-116"/>
      <use x="804.882812" xlink:href="#DejaVuSerif-100"/>
      <use x="868.896484" xlink:href="#DejaVuSerif-61"/>
      <use x="952.685547" xlink:href="#DejaVuSerif-54"/>
      <use x="1016.308594" xlink:href="#DejaVuSerif-50"/>
      <use x="1079.931641" xlink:href="#DejaVuSerif-46"/>
      <use x="1111.71875" xlink:href="#DejaVuSerif-48"/>
     </g>
    </g>
   </g>
  </g>
 </g>
 <defs>
  <clipPath id="p30f671e849">
   <rect height="489.24" width="837" x="116.47125" y="29.916562"/>
  </clipPath>
 </defs>
</svg>
