<?xml version="1.0" encoding="utf-8" standalone="no"?>
<!DOCTYPE svg PUBLIC "-//W3C//DTD SVG 1.1//EN"
  "http://www.w3.org/Graphics/SVG/1.1/DTD/svg11.dtd">
<!-- Created with matplotlib (https://matplotlib.org/) -->
<svg height="390.210156pt" version="1.1" viewBox="0 0 653.67625 390.210156" width="653.67625pt" xmlns="http://www.w3.org/2000/svg" xmlns:xlink="http://www.w3.org/1999/xlink">
 <defs>
  <style type="text/css">
*{stroke-linecap:butt;stroke-linejoin:round;}
  </style>
 </defs>
 <g id="figure_1">
  <g id="patch_1">
   <path d="M 0 390.210156 
L 653.67625 390.210156 
L 653.67625 0 
L 0 0 
z
" style="fill:#ffffff;"/>
  </g>
  <g id="axes_1">
   <g id="patch_2">
    <path d="M 88.47625 370.076562 
L 646.47625 370.076562 
L 646.47625 43.916562 
L 88.47625 43.916562 
z
" style="fill:#ffffff;"/>
   </g>
   <g id="patch_3">
    <path clip-path="url(#pac5ea57265)" d="M 113.839886 370.076562 
L 116.591818 370.076562 
L 116.591818 367.118195 
L 113.839886 367.118195 
z
" style="fill:#808080;"/>
   </g>
   <g id="patch_4">
    <path clip-path="url(#pac5ea57265)" d="M 115.674507 370.076562 
L 118.426439 370.076562 
L 118.426439 368.301542 
L 115.674507 368.301542 
z
" style="fill:#808080;"/>
   </g>
   <g id="patch_5">
    <path clip-path="url(#pac5ea57265)" d="M 117.509129 370.076562 
L 120.26106 370.076562 
L 120.26106 366.526522 
L 117.509129 366.526522 
z
" style="fill:#808080;"/>
   </g>
   <g id="patch_6">
    <path clip-path="url(#pac5ea57265)" d="M 119.34375 370.076562 
L 122.095681 370.076562 
L 122.095681 364.159828 
L 119.34375 364.159828 
z
" style="fill:#808080;"/>
   </g>
   <g id="patch_7">
    <path clip-path="url(#pac5ea57265)" d="M 121.178371 370.076562 
L 123.930302 370.076562 
L 123.930302 365.934848 
L 121.178371 365.934848 
z
" style="fill:#808080;"/>
   </g>
   <g id="patch_8">
    <path clip-path="url(#pac5ea57265)" d="M 123.012992 370.076562 
L 125.764923 370.076562 
L 125.764923 362.976481 
L 123.012992 362.976481 
z
" style="fill:#808080;"/>
   </g>
   <g id="patch_9">
    <path clip-path="url(#pac5ea57265)" d="M 124.847613 370.076562 
L 127.599544 370.076562 
L 127.599544 367.709869 
L 124.847613 367.709869 
z
" style="fill:#808080;"/>
   </g>
   <g id="patch_10">
    <path clip-path="url(#pac5ea57265)" d="M 126.682234 370.076562 
L 129.434166 370.076562 
L 129.434166 369.484889 
L 126.682234 369.484889 
z
" style="fill:#808080;"/>
   </g>
   <g id="patch_11">
    <path clip-path="url(#pac5ea57265)" d="M 128.516855 370.076562 
L 131.268787 370.076562 
L 131.268787 365.934848 
L 128.516855 365.934848 
z
" style="fill:#808080;"/>
   </g>
   <g id="patch_12">
    <path clip-path="url(#pac5ea57265)" d="M 130.351476 370.076562 
L 133.103408 370.076562 
L 133.103408 364.751501 
L 130.351476 364.751501 
z
" style="fill:#808080;"/>
   </g>
   <g id="patch_13">
    <path clip-path="url(#pac5ea57265)" d="M 132.186097 370.076562 
L 134.938029 370.076562 
L 134.938029 366.526522 
L 132.186097 366.526522 
z
" style="fill:#808080;"/>
   </g>
   <g id="patch_14">
    <path clip-path="url(#pac5ea57265)" d="M 134.020718 370.076562 
L 136.77265 370.076562 
L 136.77265 345.81795 
L 134.020718 345.81795 
z
" style="fill:#808080;"/>
   </g>
   <g id="patch_15">
    <path clip-path="url(#pac5ea57265)" d="M 135.855339 370.076562 
L 138.607271 370.076562 
L 138.607271 361.793134 
L 135.855339 361.793134 
z
" style="fill:#808080;"/>
   </g>
   <g id="patch_16">
    <path clip-path="url(#pac5ea57265)" d="M 137.68996 370.076562 
L 140.441892 370.076562 
L 140.441892 363.568154 
L 137.68996 363.568154 
z
" style="fill:#808080;"/>
   </g>
   <g id="patch_17">
    <path clip-path="url(#pac5ea57265)" d="M 139.524581 370.076562 
L 142.276513 370.076562 
L 142.276513 321.559338 
L 139.524581 321.559338 
z
" style="fill:#808080;"/>
   </g>
   <g id="patch_18">
    <path clip-path="url(#pac5ea57265)" d="M 141.359202 370.076562 
L 144.111134 370.076562 
L 144.111134 360.018114 
L 141.359202 360.018114 
z
" style="fill:#808080;"/>
   </g>
   <g id="patch_19">
    <path clip-path="url(#pac5ea57265)" d="M 143.193824 370.076562 
L 145.945755 370.076562 
L 145.945755 368.301542 
L 143.193824 368.301542 
z
" style="fill:#808080;"/>
   </g>
   <g id="patch_20">
    <path clip-path="url(#pac5ea57265)" d="M 145.028445 370.076562 
L 147.780376 370.076562 
L 147.780376 290.792318 
L 145.028445 290.792318 
z
" style="fill:#808080;"/>
   </g>
   <g id="patch_21">
    <path clip-path="url(#pac5ea57265)" d="M 146.863066 370.076562 
L 149.614997 370.076562 
L 149.614997 368.301542 
L 146.863066 368.301542 
z
" style="fill:#808080;"/>
   </g>
   <g id="patch_22">
    <path clip-path="url(#pac5ea57265)" d="M 148.697687 370.076562 
L 151.449618 370.076562 
L 151.449618 342.267909 
L 148.697687 342.267909 
z
" style="fill:#808080;"/>
   </g>
   <g id="patch_23">
    <path clip-path="url(#pac5ea57265)" d="M 150.532308 370.076562 
L 153.284239 370.076562 
L 153.284239 369.484889 
L 150.532308 369.484889 
z
" style="fill:#808080;"/>
   </g>
   <g id="patch_24">
    <path clip-path="url(#pac5ea57265)" d="M 152.366929 370.076562 
L 155.118861 370.076562 
L 155.118861 369.484889 
L 152.366929 369.484889 
z
" style="fill:#808080;"/>
   </g>
   <g id="patch_25">
    <path clip-path="url(#pac5ea57265)" d="M 154.20155 370.076562 
L 156.953482 370.076562 
L 156.953482 367.709869 
L 154.20155 367.709869 
z
" style="fill:#808080;"/>
   </g>
   <g id="patch_26">
    <path clip-path="url(#pac5ea57265)" d="M 156.036171 370.076562 
L 158.788103 370.076562 
L 158.788103 365.343175 
L 156.036171 365.343175 
z
" style="fill:#808080;"/>
   </g>
   <g id="patch_27">
    <path clip-path="url(#pac5ea57265)" d="M 157.870792 370.076562 
L 160.622724 370.076562 
L 160.622724 354.101379 
L 157.870792 354.101379 
z
" style="fill:#808080;"/>
   </g>
   <g id="patch_28">
    <path clip-path="url(#pac5ea57265)" d="M 159.705413 370.076562 
L 162.457345 370.076562 
L 162.457345 355.284726 
L 159.705413 355.284726 
z
" style="fill:#808080;"/>
   </g>
   <g id="patch_29">
    <path clip-path="url(#pac5ea57265)" d="M 161.540034 370.076562 
L 164.291966 370.076562 
L 164.291966 306.767501 
L 161.540034 306.767501 
z
" style="fill:#808080;"/>
   </g>
   <g id="patch_30">
    <path clip-path="url(#pac5ea57265)" d="M 163.374655 370.076562 
L 166.126587 370.076562 
L 166.126587 368.301542 
L 163.374655 368.301542 
z
" style="fill:#808080;"/>
   </g>
   <g id="patch_31">
    <path clip-path="url(#pac5ea57265)" d="M 165.209276 370.076562 
L 167.961208 370.076562 
L 167.961208 363.568154 
L 165.209276 363.568154 
z
" style="fill:#808080;"/>
   </g>
   <g id="patch_32">
    <path clip-path="url(#pac5ea57265)" d="M 167.043898 370.076562 
L 169.795829 370.076562 
L 169.795829 368.893216 
L 167.043898 368.893216 
z
" style="fill:#808080;"/>
   </g>
   <g id="patch_33">
    <path clip-path="url(#pac5ea57265)" d="M 168.878519 370.076562 
L 171.63045 370.076562 
L 171.63045 359.42644 
L 168.878519 359.42644 
z
" style="fill:#808080;"/>
   </g>
   <g id="patch_34">
    <path clip-path="url(#pac5ea57265)" d="M 170.71314 370.076562 
L 173.465071 370.076562 
L 173.465071 367.118195 
L 170.71314 367.118195 
z
" style="fill:#808080;"/>
   </g>
   <g id="patch_35">
    <path clip-path="url(#pac5ea57265)" d="M 172.547761 370.076562 
L 175.299692 370.076562 
L 175.299692 369.484889 
L 172.547761 369.484889 
z
" style="fill:#808080;"/>
   </g>
   <g id="patch_36">
    <path clip-path="url(#pac5ea57265)" d="M 174.382382 370.076562 
L 177.134313 370.076562 
L 177.134313 364.159828 
L 174.382382 364.159828 
z
" style="fill:#808080;"/>
   </g>
   <g id="patch_37">
    <path clip-path="url(#pac5ea57265)" d="M 176.217003 370.076562 
L 178.968935 370.076562 
L 178.968935 367.709869 
L 176.217003 367.709869 
z
" style="fill:#808080;"/>
   </g>
   <g id="patch_38">
    <path clip-path="url(#pac5ea57265)" d="M 178.051624 370.076562 
L 180.803556 370.076562 
L 180.803556 367.118195 
L 178.051624 367.118195 
z
" style="fill:#808080;"/>
   </g>
   <g id="patch_39">
    <path clip-path="url(#pac5ea57265)" d="M 179.886245 370.076562 
L 182.638177 370.076562 
L 182.638177 360.018114 
L 179.886245 360.018114 
z
" style="fill:#808080;"/>
   </g>
   <g id="patch_40">
    <path clip-path="url(#pac5ea57265)" d="M 181.720866 370.076562 
L 184.472798 370.076562 
L 184.472798 367.709869 
L 181.720866 367.709869 
z
" style="fill:#808080;"/>
   </g>
   <g id="patch_41">
    <path clip-path="url(#pac5ea57265)" d="M 183.555487 370.076562 
L 186.307419 370.076562 
L 186.307419 249.375175 
L 183.555487 249.375175 
z
" style="fill:#808080;"/>
   </g>
   <g id="patch_42">
    <path clip-path="url(#pac5ea57265)" d="M 185.390108 370.076562 
L 188.14204 370.076562 
L 188.14204 364.751501 
L 185.390108 364.751501 
z
" style="fill:#808080;"/>
   </g>
   <g id="patch_43">
    <path clip-path="url(#pac5ea57265)" d="M 187.224729 370.076562 
L 189.976661 370.076562 
L 189.976661 366.526522 
L 187.224729 366.526522 
z
" style="fill:#808080;"/>
   </g>
   <g id="patch_44">
    <path clip-path="url(#pac5ea57265)" d="M 189.05935 370.076562 
L 191.811282 370.076562 
L 191.811282 365.934848 
L 189.05935 365.934848 
z
" style="fill:#808080;"/>
   </g>
   <g id="patch_45">
    <path clip-path="url(#pac5ea57265)" d="M 190.893972 370.076562 
L 193.645903 370.076562 
L 193.645903 368.301542 
L 190.893972 368.301542 
z
" style="fill:#808080;"/>
   </g>
   <g id="patch_46">
    <path clip-path="url(#pac5ea57265)" d="M 192.728593 370.076562 
L 195.480524 370.076562 
L 195.480524 366.526522 
L 192.728593 366.526522 
z
" style="fill:#808080;"/>
   </g>
   <g id="patch_47">
    <path clip-path="url(#pac5ea57265)" d="M 194.563214 370.076562 
L 197.315145 370.076562 
L 197.315145 356.468073 
L 194.563214 356.468073 
z
" style="fill:#808080;"/>
   </g>
   <g id="patch_48">
    <path clip-path="url(#pac5ea57265)" d="M 196.397835 370.076562 
L 199.149766 370.076562 
L 199.149766 368.301542 
L 196.397835 368.301542 
z
" style="fill:#808080;"/>
   </g>
   <g id="patch_49">
    <path clip-path="url(#pac5ea57265)" d="M 198.232456 370.076562 
L 200.984387 370.076562 
L 200.984387 346.409624 
L 198.232456 346.409624 
z
" style="fill:#808080;"/>
   </g>
   <g id="patch_50">
    <path clip-path="url(#pac5ea57265)" d="M 200.067077 370.076562 
L 202.819009 370.076562 
L 202.819009 364.751501 
L 200.067077 364.751501 
z
" style="fill:#808080;"/>
   </g>
   <g id="patch_51">
    <path clip-path="url(#pac5ea57265)" d="M 201.901698 370.076562 
L 204.65363 370.076562 
L 204.65363 349.367991 
L 201.901698 349.367991 
z
" style="fill:#808080;"/>
   </g>
   <g id="patch_52">
    <path clip-path="url(#pac5ea57265)" d="M 203.736319 370.076562 
L 206.488251 370.076562 
L 206.488251 365.934848 
L 203.736319 365.934848 
z
" style="fill:#808080;"/>
   </g>
   <g id="patch_53">
    <path clip-path="url(#pac5ea57265)" d="M 205.57094 370.076562 
L 208.322872 370.076562 
L 208.322872 364.159828 
L 205.57094 364.159828 
z
" style="fill:#808080;"/>
   </g>
   <g id="patch_54">
    <path clip-path="url(#pac5ea57265)" d="M 207.405561 370.076562 
L 210.157493 370.076562 
L 210.157493 368.301542 
L 207.405561 368.301542 
z
" style="fill:#808080;"/>
   </g>
   <g id="patch_55">
    <path clip-path="url(#pac5ea57265)" d="M 209.240182 370.076562 
L 211.992114 370.076562 
L 211.992114 361.793134 
L 209.240182 361.793134 
z
" style="fill:#808080;"/>
   </g>
   <g id="patch_56">
    <path clip-path="url(#pac5ea57265)" d="M 211.074803 370.076562 
L 213.826735 370.076562 
L 213.826735 343.451256 
L 211.074803 343.451256 
z
" style="fill:#808080;"/>
   </g>
   <g id="patch_57">
    <path clip-path="url(#pac5ea57265)" d="M 212.909424 370.076562 
L 215.661356 370.076562 
L 215.661356 357.059746 
L 212.909424 357.059746 
z
" style="fill:#808080;"/>
   </g>
   <g id="patch_58">
    <path clip-path="url(#pac5ea57265)" d="M 214.744045 370.076562 
L 217.495977 370.076562 
L 217.495977 369.484889 
L 214.744045 369.484889 
z
" style="fill:#808080;"/>
   </g>
   <g id="patch_59">
    <path clip-path="url(#pac5ea57265)" d="M 216.578667 370.076562 
L 219.330598 370.076562 
L 219.330598 366.526522 
L 216.578667 366.526522 
z
" style="fill:#808080;"/>
   </g>
   <g id="patch_60">
    <path clip-path="url(#pac5ea57265)" d="M 218.413288 370.076562 
L 221.165219 370.076562 
L 221.165219 368.893216 
L 218.413288 368.893216 
z
" style="fill:#808080;"/>
   </g>
   <g id="patch_61">
    <path clip-path="url(#pac5ea57265)" d="M 220.247909 370.076562 
L 222.99984 370.076562 
L 222.99984 360.609787 
L 220.247909 360.609787 
z
" style="fill:#808080;"/>
   </g>
   <g id="patch_62">
    <path clip-path="url(#pac5ea57265)" d="M 222.08253 370.076562 
L 224.834461 370.076562 
L 224.834461 369.484889 
L 222.08253 369.484889 
z
" style="fill:#808080;"/>
   </g>
   <g id="patch_63">
    <path clip-path="url(#pac5ea57265)" d="M 223.917151 370.076562 
L 226.669082 370.076562 
L 226.669082 369.484889 
L 223.917151 369.484889 
z
" style="fill:#808080;"/>
   </g>
   <g id="patch_64">
    <path clip-path="url(#pac5ea57265)" d="M 225.751772 370.076562 
L 228.503704 370.076562 
L 228.503704 349.959665 
L 225.751772 349.959665 
z
" style="fill:#808080;"/>
   </g>
   <g id="patch_65">
    <path clip-path="url(#pac5ea57265)" d="M 227.586393 370.076562 
L 230.338325 370.076562 
L 230.338325 368.301542 
L 227.586393 368.301542 
z
" style="fill:#808080;"/>
   </g>
   <g id="patch_66">
    <path clip-path="url(#pac5ea57265)" d="M 229.421014 370.076562 
L 232.172946 370.076562 
L 232.172946 366.526522 
L 229.421014 366.526522 
z
" style="fill:#808080;"/>
   </g>
   <g id="patch_67">
    <path clip-path="url(#pac5ea57265)" d="M 231.255635 370.076562 
L 234.007567 370.076562 
L 234.007567 364.751501 
L 231.255635 364.751501 
z
" style="fill:#808080;"/>
   </g>
   <g id="patch_68">
    <path clip-path="url(#pac5ea57265)" d="M 233.090256 370.076562 
L 235.842188 370.076562 
L 235.842188 320.967665 
L 233.090256 320.967665 
z
" style="fill:#808080;"/>
   </g>
   <g id="patch_69">
    <path clip-path="url(#pac5ea57265)" d="M 234.924877 370.076562 
L 237.676809 370.076562 
L 237.676809 289.608971 
L 234.924877 289.608971 
z
" style="fill:#808080;"/>
   </g>
   <g id="patch_70">
    <path clip-path="url(#pac5ea57265)" d="M 236.759498 370.076562 
L 239.51143 370.076562 
L 239.51143 369.484889 
L 236.759498 369.484889 
z
" style="fill:#808080;"/>
   </g>
   <g id="patch_71">
    <path clip-path="url(#pac5ea57265)" d="M 238.594119 370.076562 
L 241.346051 370.076562 
L 241.346051 366.526522 
L 238.594119 366.526522 
z
" style="fill:#808080;"/>
   </g>
   <g id="patch_72">
    <path clip-path="url(#pac5ea57265)" d="M 240.428741 370.076562 
L 243.180672 370.076562 
L 243.180672 359.42644 
L 240.428741 359.42644 
z
" style="fill:#808080;"/>
   </g>
   <g id="patch_73">
    <path clip-path="url(#pac5ea57265)" d="M 242.263362 370.076562 
L 245.015293 370.076562 
L 245.015293 369.484889 
L 242.263362 369.484889 
z
" style="fill:#808080;"/>
   </g>
   <g id="patch_74">
    <path clip-path="url(#pac5ea57265)" d="M 244.097983 370.076562 
L 246.849914 370.076562 
L 246.849914 368.893216 
L 244.097983 368.893216 
z
" style="fill:#808080;"/>
   </g>
   <g id="patch_75">
    <path clip-path="url(#pac5ea57265)" d="M 245.932604 370.076562 
L 248.684535 370.076562 
L 248.684535 353.509705 
L 245.932604 353.509705 
z
" style="fill:#808080;"/>
   </g>
   <g id="patch_76">
    <path clip-path="url(#pac5ea57265)" d="M 247.767225 370.076562 
L 250.519156 370.076562 
L 250.519156 369.484889 
L 247.767225 369.484889 
z
" style="fill:#808080;"/>
   </g>
   <g id="patch_77">
    <path clip-path="url(#pac5ea57265)" d="M 249.601846 370.076562 
L 252.353778 370.076562 
L 252.353778 354.693052 
L 249.601846 354.693052 
z
" style="fill:#808080;"/>
   </g>
   <g id="patch_78">
    <path clip-path="url(#pac5ea57265)" d="M 251.436467 370.076562 
L 254.188399 370.076562 
L 254.188399 368.893216 
L 251.436467 368.893216 
z
" style="fill:#808080;"/>
   </g>
   <g id="patch_79">
    <path clip-path="url(#pac5ea57265)" d="M 253.271088 370.076562 
L 256.02302 370.076562 
L 256.02302 363.568154 
L 253.271088 363.568154 
z
" style="fill:#808080;"/>
   </g>
   <g id="patch_80">
    <path clip-path="url(#pac5ea57265)" d="M 255.105709 370.076562 
L 257.857641 370.076562 
L 257.857641 368.893216 
L 255.105709 368.893216 
z
" style="fill:#808080;"/>
   </g>
   <g id="patch_81">
    <path clip-path="url(#pac5ea57265)" d="M 256.94033 370.076562 
L 259.692262 370.076562 
L 259.692262 367.118195 
L 256.94033 367.118195 
z
" style="fill:#808080;"/>
   </g>
   <g id="patch_82">
    <path clip-path="url(#pac5ea57265)" d="M 258.774951 370.076562 
L 261.526883 370.076562 
L 261.526883 366.526522 
L 258.774951 366.526522 
z
" style="fill:#808080;"/>
   </g>
   <g id="patch_83">
    <path clip-path="url(#pac5ea57265)" d="M 260.609572 370.076562 
L 263.361504 370.076562 
L 263.361504 364.159828 
L 260.609572 364.159828 
z
" style="fill:#808080;"/>
   </g>
   <g id="patch_84">
    <path clip-path="url(#pac5ea57265)" d="M 262.444193 370.076562 
L 265.196125 370.076562 
L 265.196125 369.484889 
L 262.444193 369.484889 
z
" style="fill:#808080;"/>
   </g>
   <g id="patch_85">
    <path clip-path="url(#pac5ea57265)" d="M 264.278815 370.076562 
L 267.030746 370.076562 
L 267.030746 367.118195 
L 264.278815 367.118195 
z
" style="fill:#808080;"/>
   </g>
   <g id="patch_86">
    <path clip-path="url(#pac5ea57265)" d="M 266.113436 370.076562 
L 268.865367 370.076562 
L 268.865367 357.059746 
L 266.113436 357.059746 
z
" style="fill:#808080;"/>
   </g>
   <g id="patch_87">
    <path clip-path="url(#pac5ea57265)" d="M 267.948057 370.076562 
L 270.699988 370.076562 
L 270.699988 366.526522 
L 267.948057 366.526522 
z
" style="fill:#808080;"/>
   </g>
   <g id="patch_88">
    <path clip-path="url(#pac5ea57265)" d="M 269.782678 370.076562 
L 272.534609 370.076562 
L 272.534609 363.568154 
L 269.782678 363.568154 
z
" style="fill:#808080;"/>
   </g>
   <g id="patch_89">
    <path clip-path="url(#pac5ea57265)" d="M 271.617299 370.076562 
L 274.36923 370.076562 
L 274.36923 329.842767 
L 271.617299 329.842767 
z
" style="fill:#808080;"/>
   </g>
   <g id="patch_90">
    <path clip-path="url(#pac5ea57265)" d="M 273.45192 370.076562 
L 276.203852 370.076562 
L 276.203852 363.568154 
L 273.45192 363.568154 
z
" style="fill:#808080;"/>
   </g>
   <g id="patch_91">
    <path clip-path="url(#pac5ea57265)" d="M 275.286541 370.076562 
L 278.038473 370.076562 
L 278.038473 368.301542 
L 275.286541 368.301542 
z
" style="fill:#808080;"/>
   </g>
   <g id="patch_92">
    <path clip-path="url(#pac5ea57265)" d="M 277.121162 370.076562 
L 279.873094 370.076562 
L 279.873094 367.709869 
L 277.121162 367.709869 
z
" style="fill:#808080;"/>
   </g>
   <g id="patch_93">
    <path clip-path="url(#pac5ea57265)" d="M 278.955783 370.076562 
L 281.707715 370.076562 
L 281.707715 364.751501 
L 278.955783 364.751501 
z
" style="fill:#808080;"/>
   </g>
   <g id="patch_94">
    <path clip-path="url(#pac5ea57265)" d="M 280.790404 370.076562 
L 283.542336 370.076562 
L 283.542336 358.834767 
L 280.790404 358.834767 
z
" style="fill:#808080;"/>
   </g>
   <g id="patch_95">
    <path clip-path="url(#pac5ea57265)" d="M 282.625025 370.076562 
L 285.376957 370.076562 
L 285.376957 368.301542 
L 282.625025 368.301542 
z
" style="fill:#808080;"/>
   </g>
   <g id="patch_96">
    <path clip-path="url(#pac5ea57265)" d="M 284.459646 370.076562 
L 287.211578 370.076562 
L 287.211578 369.484889 
L 284.459646 369.484889 
z
" style="fill:#808080;"/>
   </g>
   <g id="patch_97">
    <path clip-path="url(#pac5ea57265)" d="M 286.294267 370.076562 
L 289.046199 370.076562 
L 289.046199 364.751501 
L 286.294267 364.751501 
z
" style="fill:#808080;"/>
   </g>
   <g id="patch_98">
    <path clip-path="url(#pac5ea57265)" d="M 288.128889 370.076562 
L 290.88082 370.076562 
L 290.88082 368.301542 
L 288.128889 368.301542 
z
" style="fill:#808080;"/>
   </g>
   <g id="patch_99">
    <path clip-path="url(#pac5ea57265)" d="M 289.96351 370.076562 
L 292.715441 370.076562 
L 292.715441 265.942032 
L 289.96351 265.942032 
z
" style="fill:#808080;"/>
   </g>
   <g id="patch_100">
    <path clip-path="url(#pac5ea57265)" d="M 291.798131 370.076562 
L 294.550062 370.076562 
L 294.550062 365.343175 
L 291.798131 365.343175 
z
" style="fill:#808080;"/>
   </g>
   <g id="patch_101">
    <path clip-path="url(#pac5ea57265)" d="M 293.632752 370.076562 
L 296.384683 370.076562 
L 296.384683 368.893216 
L 293.632752 368.893216 
z
" style="fill:#808080;"/>
   </g>
   <g id="patch_102">
    <path clip-path="url(#pac5ea57265)" d="M 295.467373 370.076562 
L 298.219304 370.076562 
L 298.219304 361.20146 
L 295.467373 361.20146 
z
" style="fill:#808080;"/>
   </g>
   <g id="patch_103">
    <path clip-path="url(#pac5ea57265)" d="M 297.301994 370.076562 
L 300.053925 370.076562 
L 300.053925 369.484889 
L 297.301994 369.484889 
z
" style="fill:#808080;"/>
   </g>
   <g id="patch_104">
    <path clip-path="url(#pac5ea57265)" d="M 299.136615 370.076562 
L 301.888547 370.076562 
L 301.888547 365.343175 
L 299.136615 365.343175 
z
" style="fill:#808080;"/>
   </g>
   <g id="patch_105">
    <path clip-path="url(#pac5ea57265)" d="M 300.971236 370.076562 
L 303.723168 370.076562 
L 303.723168 368.893216 
L 300.971236 368.893216 
z
" style="fill:#808080;"/>
   </g>
   <g id="patch_106">
    <path clip-path="url(#pac5ea57265)" d="M 302.805857 370.076562 
L 305.557789 370.076562 
L 305.557789 358.243093 
L 302.805857 358.243093 
z
" style="fill:#808080;"/>
   </g>
   <g id="patch_107">
    <path clip-path="url(#pac5ea57265)" d="M 304.640478 370.076562 
L 307.39241 370.076562 
L 307.39241 345.81795 
L 304.640478 345.81795 
z
" style="fill:#808080;"/>
   </g>
   <g id="patch_108">
    <path clip-path="url(#pac5ea57265)" d="M 306.475099 370.076562 
L 309.227031 370.076562 
L 309.227031 362.976481 
L 306.475099 362.976481 
z
" style="fill:#808080;"/>
   </g>
   <g id="patch_109">
    <path clip-path="url(#pac5ea57265)" d="M 308.30972 370.076562 
L 311.061652 370.076562 
L 311.061652 368.893216 
L 308.30972 368.893216 
z
" style="fill:#808080;"/>
   </g>
   <g id="patch_110">
    <path clip-path="url(#pac5ea57265)" d="M 310.144341 370.076562 
L 312.896273 370.076562 
L 312.896273 365.343175 
L 310.144341 365.343175 
z
" style="fill:#808080;"/>
   </g>
   <g id="patch_111">
    <path clip-path="url(#pac5ea57265)" d="M 311.978962 370.076562 
L 314.730894 370.076562 
L 314.730894 367.118195 
L 311.978962 367.118195 
z
" style="fill:#808080;"/>
   </g>
   <g id="patch_112">
    <path clip-path="url(#pac5ea57265)" d="M 313.813584 370.076562 
L 316.565515 370.076562 
L 316.565515 369.484889 
L 313.813584 369.484889 
z
" style="fill:#808080;"/>
   </g>
   <g id="patch_113">
    <path clip-path="url(#pac5ea57265)" d="M 315.648205 370.076562 
L 318.400136 370.076562 
L 318.400136 368.893216 
L 315.648205 368.893216 
z
" style="fill:#808080;"/>
   </g>
   <g id="patch_114">
    <path clip-path="url(#pac5ea57265)" d="M 317.482826 370.076562 
L 320.234757 370.076562 
L 320.234757 343.451256 
L 317.482826 343.451256 
z
" style="fill:#808080;"/>
   </g>
   <g id="patch_115">
    <path clip-path="url(#pac5ea57265)" d="M 319.317447 370.076562 
L 322.069378 370.076562 
L 322.069378 368.893216 
L 319.317447 368.893216 
z
" style="fill:#808080;"/>
   </g>
   <g id="patch_116">
    <path clip-path="url(#pac5ea57265)" d="M 321.152068 370.076562 
L 323.903999 370.076562 
L 323.903999 347.592971 
L 321.152068 347.592971 
z
" style="fill:#808080;"/>
   </g>
   <g id="patch_117">
    <path clip-path="url(#pac5ea57265)" d="M 322.986689 370.076562 
L 325.738621 370.076562 
L 325.738621 365.343175 
L 322.986689 365.343175 
z
" style="fill:#808080;"/>
   </g>
   <g id="patch_118">
    <path clip-path="url(#pac5ea57265)" d="M 324.82131 370.076562 
L 327.573242 370.076562 
L 327.573242 369.484889 
L 324.82131 369.484889 
z
" style="fill:#808080;"/>
   </g>
   <g id="patch_119">
    <path clip-path="url(#pac5ea57265)" d="M 326.655931 370.076562 
L 329.407863 370.076562 
L 329.407863 368.301542 
L 326.655931 368.301542 
z
" style="fill:#808080;"/>
   </g>
   <g id="patch_120">
    <path clip-path="url(#pac5ea57265)" d="M 328.490552 370.076562 
L 331.242484 370.076562 
L 331.242484 369.484889 
L 328.490552 369.484889 
z
" style="fill:#808080;"/>
   </g>
   <g id="patch_121">
    <path clip-path="url(#pac5ea57265)" d="M 330.325173 370.076562 
L 333.077105 370.076562 
L 333.077105 361.20146 
L 330.325173 361.20146 
z
" style="fill:#808080;"/>
   </g>
   <g id="patch_122">
    <path clip-path="url(#pac5ea57265)" d="M 332.159794 370.076562 
L 334.911726 370.076562 
L 334.911726 367.118195 
L 332.159794 367.118195 
z
" style="fill:#808080;"/>
   </g>
   <g id="patch_123">
    <path clip-path="url(#pac5ea57265)" d="M 333.994415 370.076562 
L 336.746347 370.076562 
L 336.746347 363.568154 
L 333.994415 363.568154 
z
" style="fill:#808080;"/>
   </g>
   <g id="patch_124">
    <path clip-path="url(#pac5ea57265)" d="M 335.829036 370.076562 
L 338.580968 370.076562 
L 338.580968 369.484889 
L 335.829036 369.484889 
z
" style="fill:#808080;"/>
   </g>
   <g id="patch_125">
    <path clip-path="url(#pac5ea57265)" d="M 337.663658 370.076562 
L 340.415589 370.076562 
L 340.415589 368.893216 
L 337.663658 368.893216 
z
" style="fill:#808080;"/>
   </g>
   <g id="patch_126">
    <path clip-path="url(#pac5ea57265)" d="M 339.498279 370.076562 
L 342.25021 370.076562 
L 342.25021 293.750685 
L 339.498279 293.750685 
z
" style="fill:#808080;"/>
   </g>
   <g id="patch_127">
    <path clip-path="url(#pac5ea57265)" d="M 341.3329 370.076562 
L 344.084831 370.076562 
L 344.084831 365.934848 
L 341.3329 365.934848 
z
" style="fill:#808080;"/>
   </g>
   <g id="patch_128">
    <path clip-path="url(#pac5ea57265)" d="M 343.167521 370.076562 
L 345.919452 370.076562 
L 345.919452 365.343175 
L 343.167521 365.343175 
z
" style="fill:#808080;"/>
   </g>
   <g id="patch_129">
    <path clip-path="url(#pac5ea57265)" d="M 345.002142 370.076562 
L 347.754073 370.076562 
L 347.754073 363.568154 
L 345.002142 363.568154 
z
" style="fill:#808080;"/>
   </g>
   <g id="patch_130">
    <path clip-path="url(#pac5ea57265)" d="M 346.836763 370.076562 
L 349.588695 370.076562 
L 349.588695 365.934848 
L 346.836763 365.934848 
z
" style="fill:#808080;"/>
   </g>
   <g id="patch_131">
    <path clip-path="url(#pac5ea57265)" d="M 348.671384 370.076562 
L 351.423316 370.076562 
L 351.423316 367.118195 
L 348.671384 367.118195 
z
" style="fill:#808080;"/>
   </g>
   <g id="patch_132">
    <path clip-path="url(#pac5ea57265)" d="M 350.506005 370.076562 
L 353.257937 370.076562 
L 353.257937 368.301542 
L 350.506005 368.301542 
z
" style="fill:#808080;"/>
   </g>
   <g id="patch_133">
    <path clip-path="url(#pac5ea57265)" d="M 352.340626 370.076562 
L 355.092558 370.076562 
L 355.092558 307.950848 
L 352.340626 307.950848 
z
" style="fill:#808080;"/>
   </g>
   <g id="patch_134">
    <path clip-path="url(#pac5ea57265)" d="M 354.175247 370.076562 
L 356.927179 370.076562 
L 356.927179 368.893216 
L 354.175247 368.893216 
z
" style="fill:#808080;"/>
   </g>
   <g id="patch_135">
    <path clip-path="url(#pac5ea57265)" d="M 356.009868 370.076562 
L 358.7618 370.076562 
L 358.7618 363.568154 
L 356.009868 363.568154 
z
" style="fill:#808080;"/>
   </g>
   <g id="patch_136">
    <path clip-path="url(#pac5ea57265)" d="M 357.844489 370.076562 
L 360.596421 370.076562 
L 360.596421 358.834767 
L 357.844489 358.834767 
z
" style="fill:#808080;"/>
   </g>
   <g id="patch_137">
    <path clip-path="url(#pac5ea57265)" d="M 359.67911 370.076562 
L 362.431042 370.076562 
L 362.431042 361.793134 
L 359.67911 361.793134 
z
" style="fill:#808080;"/>
   </g>
   <g id="patch_138">
    <path clip-path="url(#pac5ea57265)" d="M 361.513732 370.076562 
L 364.265663 370.076562 
L 364.265663 369.484889 
L 361.513732 369.484889 
z
" style="fill:#808080;"/>
   </g>
   <g id="patch_139">
    <path clip-path="url(#pac5ea57265)" d="M 363.348353 370.076562 
L 366.100284 370.076562 
L 366.100284 368.301542 
L 363.348353 368.301542 
z
" style="fill:#808080;"/>
   </g>
   <g id="patch_140">
    <path clip-path="url(#pac5ea57265)" d="M 365.182974 370.076562 
L 367.934905 370.076562 
L 367.934905 368.301542 
L 365.182974 368.301542 
z
" style="fill:#808080;"/>
   </g>
   <g id="patch_141">
    <path clip-path="url(#pac5ea57265)" d="M 367.017595 370.076562 
L 369.769526 370.076562 
L 369.769526 369.484889 
L 367.017595 369.484889 
z
" style="fill:#808080;"/>
   </g>
   <g id="patch_142">
    <path clip-path="url(#pac5ea57265)" d="M 368.852216 370.076562 
L 371.604147 370.076562 
L 371.604147 368.893216 
L 368.852216 368.893216 
z
" style="fill:#808080;"/>
   </g>
   <g id="patch_143">
    <path clip-path="url(#pac5ea57265)" d="M 370.686837 370.076562 
L 373.438768 370.076562 
L 373.438768 342.267909 
L 370.686837 342.267909 
z
" style="fill:#808080;"/>
   </g>
   <g id="patch_144">
    <path clip-path="url(#pac5ea57265)" d="M 372.521458 370.076562 
L 375.27339 370.076562 
L 375.27339 361.793134 
L 372.521458 361.793134 
z
" style="fill:#808080;"/>
   </g>
   <g id="patch_145">
    <path clip-path="url(#pac5ea57265)" d="M 374.356079 370.076562 
L 377.108011 370.076562 
L 377.108011 368.301542 
L 374.356079 368.301542 
z
" style="fill:#808080;"/>
   </g>
   <g id="patch_146">
    <path clip-path="url(#pac5ea57265)" d="M 376.1907 370.076562 
L 378.942632 370.076562 
L 378.942632 369.484889 
L 376.1907 369.484889 
z
" style="fill:#808080;"/>
   </g>
   <g id="patch_147">
    <path clip-path="url(#pac5ea57265)" d="M 378.025321 370.076562 
L 380.777253 370.076562 
L 380.777253 358.834767 
L 378.025321 358.834767 
z
" style="fill:#808080;"/>
   </g>
   <g id="patch_148">
    <path clip-path="url(#pac5ea57265)" d="M 379.859942 370.076562 
L 382.611874 370.076562 
L 382.611874 368.893216 
L 379.859942 368.893216 
z
" style="fill:#808080;"/>
   </g>
   <g id="patch_149">
    <path clip-path="url(#pac5ea57265)" d="M 381.694563 370.076562 
L 384.446495 370.076562 
L 384.446495 368.893216 
L 381.694563 368.893216 
z
" style="fill:#808080;"/>
   </g>
   <g id="patch_150">
    <path clip-path="url(#pac5ea57265)" d="M 383.529184 370.076562 
L 386.281116 370.076562 
L 386.281116 365.343175 
L 383.529184 365.343175 
z
" style="fill:#808080;"/>
   </g>
   <g id="patch_151">
    <path clip-path="url(#pac5ea57265)" d="M 385.363805 370.076562 
L 388.115737 370.076562 
L 388.115737 368.893216 
L 385.363805 368.893216 
z
" style="fill:#808080;"/>
   </g>
   <g id="patch_152">
    <path clip-path="url(#pac5ea57265)" d="M 387.198427 370.076562 
L 389.950358 370.076562 
L 389.950358 367.118195 
L 387.198427 367.118195 
z
" style="fill:#808080;"/>
   </g>
   <g id="patch_153">
    <path clip-path="url(#pac5ea57265)" d="M 389.033048 370.076562 
L 391.784979 370.076562 
L 391.784979 367.709869 
L 389.033048 367.709869 
z
" style="fill:#808080;"/>
   </g>
   <g id="patch_154">
    <path clip-path="url(#pac5ea57265)" d="M 390.867669 370.076562 
L 393.6196 370.076562 
L 393.6196 366.526522 
L 390.867669 366.526522 
z
" style="fill:#808080;"/>
   </g>
   <g id="patch_155">
    <path clip-path="url(#pac5ea57265)" d="M 392.70229 370.076562 
L 395.454221 370.076562 
L 395.454221 358.243093 
L 392.70229 358.243093 
z
" style="fill:#808080;"/>
   </g>
   <g id="patch_156">
    <path clip-path="url(#pac5ea57265)" d="M 394.536911 370.076562 
L 397.288842 370.076562 
L 397.288842 368.893216 
L 394.536911 368.893216 
z
" style="fill:#808080;"/>
   </g>
   <g id="patch_157">
    <path clip-path="url(#pac5ea57265)" d="M 396.371532 370.076562 
L 399.123464 370.076562 
L 399.123464 363.568154 
L 396.371532 363.568154 
z
" style="fill:#808080;"/>
   </g>
   <g id="patch_158">
    <path clip-path="url(#pac5ea57265)" d="M 398.206153 370.076562 
L 400.958085 370.076562 
L 400.958085 365.343175 
L 398.206153 365.343175 
z
" style="fill:#808080;"/>
   </g>
   <g id="patch_159">
    <path clip-path="url(#pac5ea57265)" d="M 400.040774 370.076562 
L 402.792706 370.076562 
L 402.792706 272.45044 
L 400.040774 272.45044 
z
" style="fill:#808080;"/>
   </g>
   <g id="patch_160">
    <path clip-path="url(#pac5ea57265)" d="M 401.875395 370.076562 
L 404.627327 370.076562 
L 404.627327 368.301542 
L 401.875395 368.301542 
z
" style="fill:#808080;"/>
   </g>
   <g id="patch_161">
    <path clip-path="url(#pac5ea57265)" d="M 403.710016 370.076562 
L 406.461948 370.076562 
L 406.461948 353.509705 
L 403.710016 353.509705 
z
" style="fill:#808080;"/>
   </g>
   <g id="patch_162">
    <path clip-path="url(#pac5ea57265)" d="M 405.544637 370.076562 
L 408.296569 370.076562 
L 408.296569 366.526522 
L 405.544637 366.526522 
z
" style="fill:#808080;"/>
   </g>
   <g id="patch_163">
    <path clip-path="url(#pac5ea57265)" d="M 407.379258 370.076562 
L 410.13119 370.076562 
L 410.13119 368.301542 
L 407.379258 368.301542 
z
" style="fill:#808080;"/>
   </g>
   <g id="patch_164">
    <path clip-path="url(#pac5ea57265)" d="M 409.213879 370.076562 
L 411.965811 370.076562 
L 411.965811 359.42644 
L 409.213879 359.42644 
z
" style="fill:#808080;"/>
   </g>
   <g id="patch_165">
    <path clip-path="url(#pac5ea57265)" d="M 411.048501 370.076562 
L 413.800432 370.076562 
L 413.800432 367.118195 
L 411.048501 367.118195 
z
" style="fill:#808080;"/>
   </g>
   <g id="patch_166">
    <path clip-path="url(#pac5ea57265)" d="M 412.883122 370.076562 
L 415.635053 370.076562 
L 415.635053 355.284726 
L 412.883122 355.284726 
z
" style="fill:#808080;"/>
   </g>
   <g id="patch_167">
    <path clip-path="url(#pac5ea57265)" d="M 414.717743 370.076562 
L 417.469674 370.076562 
L 417.469674 364.159828 
L 414.717743 364.159828 
z
" style="fill:#808080;"/>
   </g>
   <g id="patch_168">
    <path clip-path="url(#pac5ea57265)" d="M 416.552364 370.076562 
L 419.304295 370.076562 
L 419.304295 368.301542 
L 416.552364 368.301542 
z
" style="fill:#808080;"/>
   </g>
   <g id="patch_169">
    <path clip-path="url(#pac5ea57265)" d="M 418.386985 370.076562 
L 421.138916 370.076562 
L 421.138916 368.301542 
L 418.386985 368.301542 
z
" style="fill:#808080;"/>
   </g>
   <g id="patch_170">
    <path clip-path="url(#pac5ea57265)" d="M 420.221606 370.076562 
L 422.973538 370.076562 
L 422.973538 368.893216 
L 420.221606 368.893216 
z
" style="fill:#808080;"/>
   </g>
   <g id="patch_171">
    <path clip-path="url(#pac5ea57265)" d="M 422.056227 370.076562 
L 424.808159 370.076562 
L 424.808159 364.751501 
L 422.056227 364.751501 
z
" style="fill:#808080;"/>
   </g>
   <g id="patch_172">
    <path clip-path="url(#pac5ea57265)" d="M 423.890848 370.076562 
L 426.64278 370.076562 
L 426.64278 368.301542 
L 423.890848 368.301542 
z
" style="fill:#808080;"/>
   </g>
   <g id="patch_173">
    <path clip-path="url(#pac5ea57265)" d="M 425.725469 370.076562 
L 428.477401 370.076562 
L 428.477401 332.20946 
L 425.725469 332.20946 
z
" style="fill:#808080;"/>
   </g>
   <g id="patch_174">
    <path clip-path="url(#pac5ea57265)" d="M 427.56009 370.076562 
L 430.312022 370.076562 
L 430.312022 368.893216 
L 427.56009 368.893216 
z
" style="fill:#808080;"/>
   </g>
   <g id="patch_175">
    <path clip-path="url(#pac5ea57265)" d="M 429.394711 370.076562 
L 432.146643 370.076562 
L 432.146643 346.409624 
L 429.394711 346.409624 
z
" style="fill:#808080;"/>
   </g>
   <g id="patch_176">
    <path clip-path="url(#pac5ea57265)" d="M 431.229332 370.076562 
L 433.981264 370.076562 
L 433.981264 364.159828 
L 431.229332 364.159828 
z
" style="fill:#808080;"/>
   </g>
   <g id="patch_177">
    <path clip-path="url(#pac5ea57265)" d="M 433.063953 370.076562 
L 435.815885 370.076562 
L 435.815885 361.793134 
L 433.063953 361.793134 
z
" style="fill:#808080;"/>
   </g>
   <g id="patch_178">
    <path clip-path="url(#pac5ea57265)" d="M 434.898575 370.076562 
L 437.650506 370.076562 
L 437.650506 362.384807 
L 434.898575 362.384807 
z
" style="fill:#808080;"/>
   </g>
   <g id="patch_179">
    <path clip-path="url(#pac5ea57265)" d="M 436.733196 370.076562 
L 439.485127 370.076562 
L 439.485127 368.893216 
L 436.733196 368.893216 
z
" style="fill:#808080;"/>
   </g>
   <g id="patch_180">
    <path clip-path="url(#pac5ea57265)" d="M 438.567817 370.076562 
L 441.319748 370.076562 
L 441.319748 360.018114 
L 438.567817 360.018114 
z
" style="fill:#808080;"/>
   </g>
   <g id="patch_181">
    <path clip-path="url(#pac5ea57265)" d="M 440.402438 370.076562 
L 443.154369 370.076562 
L 443.154369 319.192644 
L 440.402438 319.192644 
z
" style="fill:#808080;"/>
   </g>
   <g id="patch_182">
    <path clip-path="url(#pac5ea57265)" d="M 442.237059 370.076562 
L 444.98899 370.076562 
L 444.98899 367.709869 
L 442.237059 367.709869 
z
" style="fill:#808080;"/>
   </g>
   <g id="patch_183">
    <path clip-path="url(#pac5ea57265)" d="M 444.07168 370.076562 
L 446.823611 370.076562 
L 446.823611 367.118195 
L 444.07168 367.118195 
z
" style="fill:#808080;"/>
   </g>
   <g id="patch_184">
    <path clip-path="url(#pac5ea57265)" d="M 445.906301 370.076562 
L 448.658233 370.076562 
L 448.658233 366.526522 
L 445.906301 366.526522 
z
" style="fill:#808080;"/>
   </g>
   <g id="patch_185">
    <path clip-path="url(#pac5ea57265)" d="M 447.740922 370.076562 
L 450.492854 370.076562 
L 450.492854 364.751501 
L 447.740922 364.751501 
z
" style="fill:#808080;"/>
   </g>
   <g id="patch_186">
    <path clip-path="url(#pac5ea57265)" d="M 449.575543 370.076562 
L 452.327475 370.076562 
L 452.327475 310.909216 
L 449.575543 310.909216 
z
" style="fill:#808080;"/>
   </g>
   <g id="patch_187">
    <path clip-path="url(#pac5ea57265)" d="M 451.410164 370.076562 
L 454.162096 370.076562 
L 454.162096 263.575338 
L 451.410164 263.575338 
z
" style="fill:#808080;"/>
   </g>
   <g id="patch_188">
    <path clip-path="url(#pac5ea57265)" d="M 453.244785 370.076562 
L 455.996717 370.076562 
L 455.996717 364.751501 
L 453.244785 364.751501 
z
" style="fill:#808080;"/>
   </g>
   <g id="patch_189">
    <path clip-path="url(#pac5ea57265)" d="M 455.079406 370.076562 
L 457.831338 370.076562 
L 457.831338 367.709869 
L 455.079406 367.709869 
z
" style="fill:#808080;"/>
   </g>
   <g id="patch_190">
    <path clip-path="url(#pac5ea57265)" d="M 456.914027 370.076562 
L 459.665959 370.076562 
L 459.665959 368.893216 
L 456.914027 368.893216 
z
" style="fill:#808080;"/>
   </g>
   <g id="patch_191">
    <path clip-path="url(#pac5ea57265)" d="M 458.748648 370.076562 
L 461.50058 370.076562 
L 461.50058 366.526522 
L 458.748648 366.526522 
z
" style="fill:#808080;"/>
   </g>
   <g id="patch_192">
    <path clip-path="url(#pac5ea57265)" d="M 460.58327 370.076562 
L 463.335201 370.076562 
L 463.335201 362.384807 
L 460.58327 362.384807 
z
" style="fill:#808080;"/>
   </g>
   <g id="patch_193">
    <path clip-path="url(#pac5ea57265)" d="M 462.417891 370.076562 
L 465.169822 370.076562 
L 465.169822 367.709869 
L 462.417891 367.709869 
z
" style="fill:#808080;"/>
   </g>
   <g id="patch_194">
    <path clip-path="url(#pac5ea57265)" d="M 464.252512 370.076562 
L 467.004443 370.076562 
L 467.004443 352.326358 
L 464.252512 352.326358 
z
" style="fill:#808080;"/>
   </g>
   <g id="patch_195">
    <path clip-path="url(#pac5ea57265)" d="M 466.087133 370.076562 
L 468.839064 370.076562 
L 468.839064 341.084562 
L 466.087133 341.084562 
z
" style="fill:#808080;"/>
   </g>
   <g id="patch_196">
    <path clip-path="url(#pac5ea57265)" d="M 467.921754 370.076562 
L 470.673685 370.076562 
L 470.673685 358.243093 
L 467.921754 358.243093 
z
" style="fill:#808080;"/>
   </g>
   <g id="patch_197">
    <path clip-path="url(#pac5ea57265)" d="M 469.756375 370.076562 
L 472.508307 370.076562 
L 472.508307 366.526522 
L 469.756375 366.526522 
z
" style="fill:#808080;"/>
   </g>
   <g id="patch_198">
    <path clip-path="url(#pac5ea57265)" d="M 471.590996 370.076562 
L 474.342928 370.076562 
L 474.342928 343.451256 
L 471.590996 343.451256 
z
" style="fill:#808080;"/>
   </g>
   <g id="patch_199">
    <path clip-path="url(#pac5ea57265)" d="M 473.425617 370.076562 
L 476.177549 370.076562 
L 476.177549 367.709869 
L 473.425617 367.709869 
z
" style="fill:#808080;"/>
   </g>
   <g id="patch_200">
    <path clip-path="url(#pac5ea57265)" d="M 475.260238 370.076562 
L 478.01217 370.076562 
L 478.01217 165.357542 
L 475.260238 165.357542 
z
" style="fill:#808080;"/>
   </g>
   <g id="patch_201">
    <path clip-path="url(#pac5ea57265)" d="M 477.094859 370.076562 
L 479.846791 370.076562 
L 479.846791 369.484889 
L 477.094859 369.484889 
z
" style="fill:#808080;"/>
   </g>
   <g id="patch_202">
    <path clip-path="url(#pac5ea57265)" d="M 478.92948 370.076562 
L 481.681412 370.076562 
L 481.681412 365.343175 
L 478.92948 365.343175 
z
" style="fill:#808080;"/>
   </g>
   <g id="patch_203">
    <path clip-path="url(#pac5ea57265)" d="M 480.764101 370.076562 
L 483.516033 370.076562 
L 483.516033 365.934848 
L 480.764101 365.934848 
z
" style="fill:#808080;"/>
   </g>
   <g id="patch_204">
    <path clip-path="url(#pac5ea57265)" d="M 482.598722 370.076562 
L 485.350654 370.076562 
L 485.350654 368.893216 
L 482.598722 368.893216 
z
" style="fill:#808080;"/>
   </g>
   <g id="patch_205">
    <path clip-path="url(#pac5ea57265)" d="M 484.433344 370.076562 
L 487.185275 370.076562 
L 487.185275 366.526522 
L 484.433344 366.526522 
z
" style="fill:#808080;"/>
   </g>
   <g id="patch_206">
    <path clip-path="url(#pac5ea57265)" d="M 486.267965 370.076562 
L 489.019896 370.076562 
L 489.019896 368.301542 
L 486.267965 368.301542 
z
" style="fill:#808080;"/>
   </g>
   <g id="patch_207">
    <path clip-path="url(#pac5ea57265)" d="M 488.102586 370.076562 
L 490.854517 370.076562 
L 490.854517 368.893216 
L 488.102586 368.893216 
z
" style="fill:#808080;"/>
   </g>
   <g id="patch_208">
    <path clip-path="url(#pac5ea57265)" d="M 489.937207 370.076562 
L 492.689138 370.076562 
L 492.689138 366.526522 
L 489.937207 366.526522 
z
" style="fill:#808080;"/>
   </g>
   <g id="patch_209">
    <path clip-path="url(#pac5ea57265)" d="M 491.771828 370.076562 
L 494.523759 370.076562 
L 494.523759 367.709869 
L 491.771828 367.709869 
z
" style="fill:#808080;"/>
   </g>
   <g id="patch_210">
    <path clip-path="url(#pac5ea57265)" d="M 493.606449 370.076562 
L 496.358381 370.076562 
L 496.358381 322.742685 
L 493.606449 322.742685 
z
" style="fill:#808080;"/>
   </g>
   <g id="patch_211">
    <path clip-path="url(#pac5ea57265)" d="M 495.44107 370.076562 
L 498.193002 370.076562 
L 498.193002 354.693052 
L 495.44107 354.693052 
z
" style="fill:#808080;"/>
   </g>
   <g id="patch_212">
    <path clip-path="url(#pac5ea57265)" d="M 497.275691 370.076562 
L 500.027623 370.076562 
L 500.027623 365.934848 
L 497.275691 365.934848 
z
" style="fill:#808080;"/>
   </g>
   <g id="patch_213">
    <path clip-path="url(#pac5ea57265)" d="M 499.110312 370.076562 
L 501.862244 370.076562 
L 501.862244 283.692236 
L 499.110312 283.692236 
z
" style="fill:#808080;"/>
   </g>
   <g id="patch_214">
    <path clip-path="url(#pac5ea57265)" d="M 500.944933 370.076562 
L 503.696865 370.076562 
L 503.696865 335.759501 
L 500.944933 335.759501 
z
" style="fill:#808080;"/>
   </g>
   <g id="patch_215">
    <path clip-path="url(#pac5ea57265)" d="M 502.779554 370.076562 
L 505.531486 370.076562 
L 505.531486 368.893216 
L 502.779554 368.893216 
z
" style="fill:#808080;"/>
   </g>
   <g id="patch_216">
    <path clip-path="url(#pac5ea57265)" d="M 504.614175 370.076562 
L 507.366107 370.076562 
L 507.366107 369.484889 
L 504.614175 369.484889 
z
" style="fill:#808080;"/>
   </g>
   <g id="patch_217">
    <path clip-path="url(#pac5ea57265)" d="M 506.448796 370.076562 
L 509.200728 370.076562 
L 509.200728 368.301542 
L 506.448796 368.301542 
z
" style="fill:#808080;"/>
   </g>
   <g id="patch_218">
    <path clip-path="url(#pac5ea57265)" d="M 508.283418 370.076562 
L 511.035349 370.076562 
L 511.035349 367.709869 
L 508.283418 367.709869 
z
" style="fill:#808080;"/>
   </g>
   <g id="patch_219">
    <path clip-path="url(#pac5ea57265)" d="M 510.118039 370.076562 
L 512.86997 370.076562 
L 512.86997 365.934848 
L 510.118039 365.934848 
z
" style="fill:#808080;"/>
   </g>
   <g id="patch_220">
    <path clip-path="url(#pac5ea57265)" d="M 511.95266 370.076562 
L 514.704591 370.076562 
L 514.704591 368.893216 
L 511.95266 368.893216 
z
" style="fill:#808080;"/>
   </g>
   <g id="patch_221">
    <path clip-path="url(#pac5ea57265)" d="M 513.787281 370.076562 
L 516.539212 370.076562 
L 516.539212 366.526522 
L 513.787281 366.526522 
z
" style="fill:#808080;"/>
   </g>
   <g id="patch_222">
    <path clip-path="url(#pac5ea57265)" d="M 515.621902 370.076562 
L 518.373833 370.076562 
L 518.373833 367.709869 
L 515.621902 367.709869 
z
" style="fill:#808080;"/>
   </g>
   <g id="patch_223">
    <path clip-path="url(#pac5ea57265)" d="M 517.456523 370.076562 
L 520.208455 370.076562 
L 520.208455 342.859583 
L 517.456523 342.859583 
z
" style="fill:#808080;"/>
   </g>
   <g id="patch_224">
    <path clip-path="url(#pac5ea57265)" d="M 519.291144 370.076562 
L 522.043076 370.076562 
L 522.043076 369.484889 
L 519.291144 369.484889 
z
" style="fill:#808080;"/>
   </g>
   <g id="patch_225">
    <path clip-path="url(#pac5ea57265)" d="M 521.125765 370.076562 
L 523.877697 370.076562 
L 523.877697 367.709869 
L 521.125765 367.709869 
z
" style="fill:#808080;"/>
   </g>
   <g id="patch_226">
    <path clip-path="url(#pac5ea57265)" d="M 522.960386 370.076562 
L 525.712318 370.076562 
L 525.712318 369.484889 
L 522.960386 369.484889 
z
" style="fill:#808080;"/>
   </g>
   <g id="patch_227">
    <path clip-path="url(#pac5ea57265)" d="M 524.795007 370.076562 
L 527.546939 370.076562 
L 527.546939 368.893216 
L 524.795007 368.893216 
z
" style="fill:#808080;"/>
   </g>
   <g id="patch_228">
    <path clip-path="url(#pac5ea57265)" d="M 526.629628 370.076562 
L 529.38156 370.076562 
L 529.38156 356.468073 
L 526.629628 356.468073 
z
" style="fill:#808080;"/>
   </g>
   <g id="patch_229">
    <path clip-path="url(#pac5ea57265)" d="M 528.464249 370.076562 
L 531.216181 370.076562 
L 531.216181 367.118195 
L 528.464249 367.118195 
z
" style="fill:#808080;"/>
   </g>
   <g id="patch_230">
    <path clip-path="url(#pac5ea57265)" d="M 530.29887 370.076562 
L 533.050802 370.076562 
L 533.050802 369.484889 
L 530.29887 369.484889 
z
" style="fill:#808080;"/>
   </g>
   <g id="patch_231">
    <path clip-path="url(#pac5ea57265)" d="M 532.133491 370.076562 
L 534.885423 370.076562 
L 534.885423 368.301542 
L 532.133491 368.301542 
z
" style="fill:#808080;"/>
   </g>
   <g id="patch_232">
    <path clip-path="url(#pac5ea57265)" d="M 533.968113 370.076562 
L 536.720044 370.076562 
L 536.720044 368.301542 
L 533.968113 368.301542 
z
" style="fill:#808080;"/>
   </g>
   <g id="patch_233">
    <path clip-path="url(#pac5ea57265)" d="M 535.802734 370.076562 
L 538.554665 370.076562 
L 538.554665 367.709869 
L 535.802734 367.709869 
z
" style="fill:#808080;"/>
   </g>
   <g id="patch_234">
    <path clip-path="url(#pac5ea57265)" d="M 537.637355 370.076562 
L 540.389286 370.076562 
L 540.389286 368.301542 
L 537.637355 368.301542 
z
" style="fill:#808080;"/>
   </g>
   <g id="patch_235">
    <path clip-path="url(#pac5ea57265)" d="M 539.471976 370.076562 
L 542.223907 370.076562 
L 542.223907 358.834767 
L 539.471976 358.834767 
z
" style="fill:#808080;"/>
   </g>
   <g id="patch_236">
    <path clip-path="url(#pac5ea57265)" d="M 541.306597 370.076562 
L 544.058528 370.076562 
L 544.058528 265.350358 
L 541.306597 265.350358 
z
" style="fill:#808080;"/>
   </g>
   <g id="patch_237">
    <path clip-path="url(#pac5ea57265)" d="M 543.141218 370.076562 
L 545.89315 370.076562 
L 545.89315 364.159828 
L 543.141218 364.159828 
z
" style="fill:#808080;"/>
   </g>
   <g id="patch_238">
    <path clip-path="url(#pac5ea57265)" d="M 544.975839 370.076562 
L 547.727771 370.076562 
L 547.727771 367.709869 
L 544.975839 367.709869 
z
" style="fill:#808080;"/>
   </g>
   <g id="patch_239">
    <path clip-path="url(#pac5ea57265)" d="M 546.81046 370.076562 
L 549.562392 370.076562 
L 549.562392 364.751501 
L 546.81046 364.751501 
z
" style="fill:#808080;"/>
   </g>
   <g id="patch_240">
    <path clip-path="url(#pac5ea57265)" d="M 548.645081 370.076562 
L 551.397013 370.076562 
L 551.397013 369.484889 
L 548.645081 369.484889 
z
" style="fill:#808080;"/>
   </g>
   <g id="patch_241">
    <path clip-path="url(#pac5ea57265)" d="M 550.479702 370.076562 
L 553.231634 370.076562 
L 553.231634 369.484889 
L 550.479702 369.484889 
z
" style="fill:#808080;"/>
   </g>
   <g id="patch_242">
    <path clip-path="url(#pac5ea57265)" d="M 552.314323 370.076562 
L 555.066255 370.076562 
L 555.066255 315.642603 
L 552.314323 315.642603 
z
" style="fill:#808080;"/>
   </g>
   <g id="patch_243">
    <path clip-path="url(#pac5ea57265)" d="M 554.148944 370.076562 
L 556.900876 370.076562 
L 556.900876 279.550522 
L 554.148944 279.550522 
z
" style="fill:#808080;"/>
   </g>
   <g id="patch_244">
    <path clip-path="url(#pac5ea57265)" d="M 555.983565 370.076562 
L 558.735497 370.076562 
L 558.735497 369.484889 
L 555.983565 369.484889 
z
" style="fill:#808080;"/>
   </g>
   <g id="patch_245">
    <path clip-path="url(#pac5ea57265)" d="M 557.818187 370.076562 
L 560.570118 370.076562 
L 560.570118 368.893216 
L 557.818187 368.893216 
z
" style="fill:#808080;"/>
   </g>
   <g id="patch_246">
    <path clip-path="url(#pac5ea57265)" d="M 559.652808 370.076562 
L 562.404739 370.076562 
L 562.404739 360.018114 
L 559.652808 360.018114 
z
" style="fill:#808080;"/>
   </g>
   <g id="patch_247">
    <path clip-path="url(#pac5ea57265)" d="M 561.487429 370.076562 
L 564.23936 370.076562 
L 564.23936 345.226277 
L 561.487429 345.226277 
z
" style="fill:#808080;"/>
   </g>
   <g id="patch_248">
    <path clip-path="url(#pac5ea57265)" d="M 563.32205 370.076562 
L 566.073981 370.076562 
L 566.073981 369.484889 
L 563.32205 369.484889 
z
" style="fill:#808080;"/>
   </g>
   <g id="patch_249">
    <path clip-path="url(#pac5ea57265)" d="M 565.156671 370.076562 
L 567.908602 370.076562 
L 567.908602 348.776318 
L 565.156671 348.776318 
z
" style="fill:#808080;"/>
   </g>
   <g id="patch_250">
    <path clip-path="url(#pac5ea57265)" d="M 566.991292 370.076562 
L 569.743224 370.076562 
L 569.743224 368.301542 
L 566.991292 368.301542 
z
" style="fill:#808080;"/>
   </g>
   <g id="patch_251">
    <path clip-path="url(#pac5ea57265)" d="M 568.825913 370.076562 
L 571.577845 370.076562 
L 571.577845 369.484889 
L 568.825913 369.484889 
z
" style="fill:#808080;"/>
   </g>
   <g id="patch_252">
    <path clip-path="url(#pac5ea57265)" d="M 570.660534 370.076562 
L 573.412466 370.076562 
L 573.412466 357.65142 
L 570.660534 357.65142 
z
" style="fill:#808080;"/>
   </g>
   <g id="patch_253">
    <path clip-path="url(#pac5ea57265)" d="M 572.495155 370.076562 
L 575.247087 370.076562 
L 575.247087 366.526522 
L 572.495155 366.526522 
z
" style="fill:#808080;"/>
   </g>
   <g id="patch_254">
    <path clip-path="url(#pac5ea57265)" d="M 574.329776 370.076562 
L 577.081708 370.076562 
L 577.081708 368.301542 
L 574.329776 368.301542 
z
" style="fill:#808080;"/>
   </g>
   <g id="patch_255">
    <path clip-path="url(#pac5ea57265)" d="M 576.164397 370.076562 
L 578.916329 370.076562 
L 578.916329 369.484889 
L 576.164397 369.484889 
z
" style="fill:#808080;"/>
   </g>
   <g id="patch_256">
    <path clip-path="url(#pac5ea57265)" d="M 577.999018 370.076562 
L 580.75095 370.076562 
L 580.75095 369.484889 
L 577.999018 369.484889 
z
" style="fill:#808080;"/>
   </g>
   <g id="patch_257">
    <path clip-path="url(#pac5ea57265)" d="M 579.833639 370.076562 
L 582.585571 370.076562 
L 582.585571 369.484889 
L 579.833639 369.484889 
z
" style="fill:#808080;"/>
   </g>
   <g id="patch_258">
    <path clip-path="url(#pac5ea57265)" d="M 581.668261 370.076562 
L 584.420192 370.076562 
L 584.420192 367.118195 
L 581.668261 367.118195 
z
" style="fill:#808080;"/>
   </g>
   <g id="patch_259">
    <path clip-path="url(#pac5ea57265)" d="M 583.502882 370.076562 
L 586.254813 370.076562 
L 586.254813 360.018114 
L 583.502882 360.018114 
z
" style="fill:#808080;"/>
   </g>
   <g id="patch_260">
    <path clip-path="url(#pac5ea57265)" d="M 585.337503 370.076562 
L 588.089434 370.076562 
L 588.089434 368.301542 
L 585.337503 368.301542 
z
" style="fill:#808080;"/>
   </g>
   <g id="patch_261">
    <path clip-path="url(#pac5ea57265)" d="M 587.172124 370.076562 
L 589.924055 370.076562 
L 589.924055 364.159828 
L 587.172124 364.159828 
z
" style="fill:#808080;"/>
   </g>
   <g id="patch_262">
    <path clip-path="url(#pac5ea57265)" d="M 589.006745 370.076562 
L 591.758676 370.076562 
L 591.758676 366.526522 
L 589.006745 366.526522 
z
" style="fill:#808080;"/>
   </g>
   <g id="patch_263">
    <path clip-path="url(#pac5ea57265)" d="M 590.841366 370.076562 
L 593.593298 370.076562 
L 593.593298 368.301542 
L 590.841366 368.301542 
z
" style="fill:#808080;"/>
   </g>
   <g id="patch_264">
    <path clip-path="url(#pac5ea57265)" d="M 592.675987 370.076562 
L 595.427919 370.076562 
L 595.427919 369.484889 
L 592.675987 369.484889 
z
" style="fill:#808080;"/>
   </g>
   <g id="patch_265">
    <path clip-path="url(#pac5ea57265)" d="M 594.510608 370.076562 
L 597.26254 370.076562 
L 597.26254 362.976481 
L 594.510608 362.976481 
z
" style="fill:#808080;"/>
   </g>
   <g id="patch_266">
    <path clip-path="url(#pac5ea57265)" d="M 596.345229 370.076562 
L 599.097161 370.076562 
L 599.097161 368.301542 
L 596.345229 368.301542 
z
" style="fill:#808080;"/>
   </g>
   <g id="patch_267">
    <path clip-path="url(#pac5ea57265)" d="M 598.17985 370.076562 
L 600.931782 370.076562 
L 600.931782 368.893216 
L 598.17985 368.893216 
z
" style="fill:#808080;"/>
   </g>
   <g id="patch_268">
    <path clip-path="url(#pac5ea57265)" d="M 600.014471 370.076562 
L 602.766403 370.076562 
L 602.766403 368.301542 
L 600.014471 368.301542 
z
" style="fill:#808080;"/>
   </g>
   <g id="patch_269">
    <path clip-path="url(#pac5ea57265)" d="M 601.849092 370.076562 
L 604.601024 370.076562 
L 604.601024 368.301542 
L 601.849092 368.301542 
z
" style="fill:#808080;"/>
   </g>
   <g id="patch_270">
    <path clip-path="url(#pac5ea57265)" d="M 603.683713 370.076562 
L 606.435645 370.076562 
L 606.435645 368.301542 
L 603.683713 368.301542 
z
" style="fill:#808080;"/>
   </g>
   <g id="patch_271">
    <path clip-path="url(#pac5ea57265)" d="M 605.518334 370.076562 
L 608.270266 370.076562 
L 608.270266 356.468073 
L 605.518334 356.468073 
z
" style="fill:#808080;"/>
   </g>
   <g id="patch_272">
    <path clip-path="url(#pac5ea57265)" d="M 607.352956 370.076562 
L 610.104887 370.076562 
L 610.104887 365.934848 
L 607.352956 365.934848 
z
" style="fill:#808080;"/>
   </g>
   <g id="patch_273">
    <path clip-path="url(#pac5ea57265)" d="M 609.187577 370.076562 
L 611.939508 370.076562 
L 611.939508 348.776318 
L 609.187577 348.776318 
z
" style="fill:#808080;"/>
   </g>
   <g id="patch_274">
    <path clip-path="url(#pac5ea57265)" d="M 611.022198 370.076562 
L 613.774129 370.076562 
L 613.774129 366.526522 
L 611.022198 366.526522 
z
" style="fill:#808080;"/>
   </g>
   <g id="patch_275">
    <path clip-path="url(#pac5ea57265)" d="M 612.856819 370.076562 
L 615.60875 370.076562 
L 615.60875 368.301542 
L 612.856819 368.301542 
z
" style="fill:#808080;"/>
   </g>
   <g id="patch_276">
    <path clip-path="url(#pac5ea57265)" d="M 614.69144 370.076562 
L 617.443371 370.076562 
L 617.443371 361.20146 
L 614.69144 361.20146 
z
" style="fill:#808080;"/>
   </g>
   <g id="patch_277">
    <path clip-path="url(#pac5ea57265)" d="M 616.526061 370.076562 
L 619.277993 370.076562 
L 619.277993 325.701052 
L 616.526061 325.701052 
z
" style="fill:#808080;"/>
   </g>
   <g id="patch_278">
    <path clip-path="url(#pac5ea57265)" d="M 618.360682 370.076562 
L 621.112614 370.076562 
L 621.112614 59.447991 
L 618.360682 59.447991 
z
" style="fill:#808080;"/>
   </g>
   <g id="matplotlib.axis_1"/>
   <g id="matplotlib.axis_2">
    <g id="ytick_1">
     <g id="line2d_1">
      <defs>
       <path d="M 0 0 
L -3.5 0 
" id="m0ce01917f6" style="stroke:#000000;stroke-width:0.8;"/>
      </defs>
      <g>
       <use style="stroke:#000000;stroke-width:0.8;" x="88.47625" xlink:href="#m0ce01917f6" y="370.076562"/>
      </g>
     </g>
     <g id="text_1">
      <!-- 0.00 -->
      <defs>
       <path d="M 31.78125 3.421875 
Q 39.265625 3.421875 42.96875 11.625 
Q 46.6875 19.828125 46.6875 36.375 
Q 46.6875 52.984375 42.96875 61.1875 
Q 39.265625 69.390625 31.78125 69.390625 
Q 24.3125 69.390625 20.59375 61.1875 
Q 16.890625 52.984375 16.890625 36.375 
Q 16.890625 19.828125 20.59375 11.625 
Q 24.3125 3.421875 31.78125 3.421875 
z
M 31.78125 -1.421875 
Q 19.921875 -1.421875 13.25 8.53125 
Q 6.59375 18.5 6.59375 36.375 
Q 6.59375 54.296875 13.25 64.25 
Q 19.921875 74.21875 31.78125 74.21875 
Q 43.703125 74.21875 50.34375 64.25 
Q 56.984375 54.296875 56.984375 36.375 
Q 56.984375 18.5 50.34375 8.53125 
Q 43.703125 -1.421875 31.78125 -1.421875 
z
" id="DejaVuSerif-48"/>
       <path d="M 9.421875 5.078125 
Q 9.421875 7.8125 11.28125 9.71875 
Q 13.140625 11.625 15.921875 11.625 
Q 18.609375 11.625 20.5 9.71875 
Q 22.40625 7.8125 22.40625 5.078125 
Q 22.40625 2.390625 20.5 0.484375 
Q 18.609375 -1.421875 15.921875 -1.421875 
Q 13.140625 -1.421875 11.28125 0.453125 
Q 9.421875 2.34375 9.421875 5.078125 
z
" id="DejaVuSerif-46"/>
      </defs>
      <g transform="translate(32.491875 378.434844)scale(0.22 -0.22)">
       <use xlink:href="#DejaVuSerif-48"/>
       <use x="63.623047" xlink:href="#DejaVuSerif-46"/>
       <use x="95.410156" xlink:href="#DejaVuSerif-48"/>
       <use x="159.033203" xlink:href="#DejaVuSerif-48"/>
      </g>
     </g>
    </g>
    <g id="ytick_2">
     <g id="line2d_2">
      <g>
       <use style="stroke:#000000;stroke-width:0.8;" x="88.47625" xlink:href="#m0ce01917f6" y="300.850767"/>
      </g>
     </g>
     <g id="text_2">
      <!-- 0.02 -->
      <defs>
       <path d="M 12.796875 55.515625 
L 7.328125 55.515625 
L 7.328125 68.5 
Q 12.546875 71.296875 17.84375 72.75 
Q 23.140625 74.21875 28.21875 74.21875 
Q 39.59375 74.21875 46.1875 68.703125 
Q 52.78125 63.1875 52.78125 53.71875 
Q 52.78125 43.015625 37.84375 28.125 
Q 36.671875 27 36.078125 26.421875 
L 17.671875 8.015625 
L 48.09375 8.015625 
L 48.09375 17 
L 53.8125 17 
L 53.8125 0 
L 6.78125 0 
L 6.78125 5.328125 
L 28.90625 27.390625 
Q 36.234375 34.71875 39.359375 40.84375 
Q 42.484375 46.96875 42.484375 53.71875 
Q 42.484375 61.078125 38.640625 65.234375 
Q 34.8125 69.390625 28.078125 69.390625 
Q 21.09375 69.390625 17.28125 65.921875 
Q 13.484375 62.453125 12.796875 55.515625 
z
" id="DejaVuSerif-50"/>
      </defs>
      <g transform="translate(32.491875 309.209048)scale(0.22 -0.22)">
       <use xlink:href="#DejaVuSerif-48"/>
       <use x="63.623047" xlink:href="#DejaVuSerif-46"/>
       <use x="95.410156" xlink:href="#DejaVuSerif-48"/>
       <use x="159.033203" xlink:href="#DejaVuSerif-50"/>
      </g>
     </g>
    </g>
    <g id="ytick_3">
     <g id="line2d_3">
      <g>
       <use style="stroke:#000000;stroke-width:0.8;" x="88.47625" xlink:href="#m0ce01917f6" y="231.624971"/>
      </g>
     </g>
     <g id="text_3">
      <!-- 0.04 -->
      <defs>
       <path d="M 34.90625 24.703125 
L 34.90625 63.484375 
L 10.015625 24.703125 
z
M 56.390625 0 
L 23.1875 0 
L 23.1875 5.171875 
L 34.90625 5.171875 
L 34.90625 19.484375 
L 3.078125 19.484375 
L 3.078125 24.8125 
L 35.015625 74.21875 
L 44.671875 74.21875 
L 44.671875 24.703125 
L 58.59375 24.703125 
L 58.59375 19.484375 
L 44.671875 19.484375 
L 44.671875 5.171875 
L 56.390625 5.171875 
z
" id="DejaVuSerif-52"/>
      </defs>
      <g transform="translate(32.491875 239.983252)scale(0.22 -0.22)">
       <use xlink:href="#DejaVuSerif-48"/>
       <use x="63.623047" xlink:href="#DejaVuSerif-46"/>
       <use x="95.410156" xlink:href="#DejaVuSerif-48"/>
       <use x="159.033203" xlink:href="#DejaVuSerif-52"/>
      </g>
     </g>
    </g>
    <g id="ytick_4">
     <g id="line2d_4">
      <g>
       <use style="stroke:#000000;stroke-width:0.8;" x="88.47625" xlink:href="#m0ce01917f6" y="162.399175"/>
      </g>
     </g>
     <g id="text_4">
      <!-- 0.06 -->
      <defs>
       <path d="M 32.71875 3.421875 
Q 39.59375 3.421875 43.296875 8.46875 
Q 47.015625 13.53125 47.015625 23 
Q 47.015625 32.46875 43.296875 37.515625 
Q 39.59375 42.578125 32.71875 42.578125 
Q 25.734375 42.578125 22.0625 37.6875 
Q 18.40625 32.8125 18.40625 23.578125 
Q 18.40625 13.875 22.109375 8.640625 
Q 25.828125 3.421875 32.71875 3.421875 
z
M 16.796875 40.140625 
Q 20.125 43.796875 24.3125 45.59375 
Q 28.515625 47.40625 33.796875 47.40625 
Q 44.671875 47.40625 51 40.859375 
Q 57.328125 34.328125 57.328125 23 
Q 57.328125 11.921875 50.515625 5.25 
Q 43.703125 -1.421875 32.328125 -1.421875 
Q 19.96875 -1.421875 13.328125 7.78125 
Q 6.6875 17 6.6875 34.078125 
Q 6.6875 53.21875 14.546875 63.71875 
Q 22.40625 74.21875 36.71875 74.21875 
Q 40.578125 74.21875 44.828125 73.484375 
Q 49.078125 72.75 53.515625 71.296875 
L 53.515625 59.28125 
L 48 59.28125 
Q 47.40625 64.203125 44.234375 66.796875 
Q 41.0625 69.390625 35.6875 69.390625 
Q 26.21875 69.390625 21.578125 62.203125 
Q 16.9375 55.03125 16.796875 40.140625 
z
" id="DejaVuSerif-54"/>
      </defs>
      <g transform="translate(32.491875 170.757456)scale(0.22 -0.22)">
       <use xlink:href="#DejaVuSerif-48"/>
       <use x="63.623047" xlink:href="#DejaVuSerif-46"/>
       <use x="95.410156" xlink:href="#DejaVuSerif-48"/>
       <use x="159.033203" xlink:href="#DejaVuSerif-54"/>
      </g>
     </g>
    </g>
    <g id="ytick_5">
     <g id="line2d_5">
      <g>
       <use style="stroke:#000000;stroke-width:0.8;" x="88.47625" xlink:href="#m0ce01917f6" y="93.173379"/>
      </g>
     </g>
     <g id="text_5">
      <!-- 0.08 -->
      <defs>
       <path d="M 46.578125 19.921875 
Q 46.578125 27.734375 42.6875 32.046875 
Q 38.8125 36.375 31.78125 36.375 
Q 24.75 36.375 20.875 32.046875 
Q 17 27.734375 17 19.921875 
Q 17 12.0625 20.875 7.734375 
Q 24.75 3.421875 31.78125 3.421875 
Q 38.8125 3.421875 42.6875 7.734375 
Q 46.578125 12.0625 46.578125 19.921875 
z
M 44.578125 55.328125 
Q 44.578125 61.96875 41.203125 65.671875 
Q 37.84375 69.390625 31.78125 69.390625 
Q 25.78125 69.390625 22.390625 65.671875 
Q 19 61.96875 19 55.328125 
Q 19 48.640625 22.390625 44.921875 
Q 25.78125 41.21875 31.78125 41.21875 
Q 37.84375 41.21875 41.203125 44.921875 
Q 44.578125 48.640625 44.578125 55.328125 
z
M 39.3125 38.8125 
Q 47.609375 37.703125 52.25 32.6875 
Q 56.890625 27.6875 56.890625 19.921875 
Q 56.890625 9.671875 50.390625 4.125 
Q 43.890625 -1.421875 31.78125 -1.421875 
Q 19.734375 -1.421875 13.203125 4.125 
Q 6.6875 9.671875 6.6875 19.921875 
Q 6.6875 27.6875 11.328125 32.6875 
Q 15.96875 37.703125 24.3125 38.8125 
Q 16.9375 40.140625 13 44.40625 
Q 9.078125 48.6875 9.078125 55.328125 
Q 9.078125 64.109375 15.125 69.15625 
Q 21.1875 74.21875 31.78125 74.21875 
Q 42.390625 74.21875 48.4375 69.15625 
Q 54.5 64.109375 54.5 55.328125 
Q 54.5 48.6875 50.5625 44.40625 
Q 46.625 40.140625 39.3125 38.8125 
z
" id="DejaVuSerif-56"/>
      </defs>
      <g transform="translate(32.491875 101.53166)scale(0.22 -0.22)">
       <use xlink:href="#DejaVuSerif-48"/>
       <use x="63.623047" xlink:href="#DejaVuSerif-46"/>
       <use x="95.410156" xlink:href="#DejaVuSerif-48"/>
       <use x="159.033203" xlink:href="#DejaVuSerif-56"/>
      </g>
     </g>
    </g>
    <g id="text_6">
     <!-- Frequency -->
     <defs>
      <path d="M 5.515625 0 
L 5.515625 5.171875 
L 14.796875 5.171875 
L 14.796875 67.671875 
L 5.515625 67.671875 
L 5.515625 72.90625 
L 65.1875 72.90625 
L 65.1875 56.6875 
L 59.1875 56.6875 
L 59.1875 66.890625 
L 24.703125 66.890625 
L 24.703125 42.484375 
L 49.609375 42.484375 
L 49.609375 51.609375 
L 55.609375 51.609375 
L 55.609375 27.390625 
L 49.609375 27.390625 
L 49.609375 36.53125 
L 24.703125 36.53125 
L 24.703125 5.171875 
L 36.375 5.171875 
L 36.375 0 
z
" id="DejaVuSerif-70"/>
      <path d="M 47.796875 52 
L 47.796875 39.015625 
L 42.625 39.015625 
Q 42.390625 42.875 40.484375 44.78125 
Q 38.578125 46.6875 34.90625 46.6875 
Q 28.265625 46.6875 24.71875 42.09375 
Q 21.1875 37.5 21.1875 28.90625 
L 21.1875 5.171875 
L 31.59375 5.171875 
L 31.59375 0 
L 4.109375 0 
L 4.109375 5.171875 
L 12.203125 5.171875 
L 12.203125 46.78125 
L 3.609375 46.78125 
L 3.609375 51.90625 
L 21.1875 51.90625 
L 21.1875 42.671875 
Q 23.828125 48.09375 27.96875 50.703125 
Q 32.125 53.328125 38.09375 53.328125 
Q 40.28125 53.328125 42.703125 52.984375 
Q 45.125 52.640625 47.796875 52 
z
" id="DejaVuSerif-114"/>
      <path d="M 54.203125 25 
L 15.484375 25 
L 15.484375 24.609375 
Q 15.484375 14.109375 19.4375 8.765625 
Q 23.390625 3.421875 31.109375 3.421875 
Q 37.015625 3.421875 40.796875 6.515625 
Q 44.578125 9.625 46.09375 15.71875 
L 53.328125 15.71875 
Q 51.171875 7.171875 45.375 2.875 
Q 39.59375 -1.421875 30.171875 -1.421875 
Q 18.796875 -1.421875 11.890625 6.078125 
Q 4.984375 13.578125 4.984375 25.984375 
Q 4.984375 38.28125 11.765625 45.796875 
Q 18.5625 53.328125 29.59375 53.328125 
Q 41.359375 53.328125 47.65625 46.0625 
Q 53.953125 38.8125 54.203125 25 
z
M 43.609375 30.171875 
Q 43.3125 39.265625 39.765625 43.875 
Q 36.234375 48.484375 29.59375 48.484375 
Q 23.390625 48.484375 19.828125 43.84375 
Q 16.265625 39.203125 15.484375 30.171875 
z
" id="DejaVuSerif-101"/>
      <path d="M 52.484375 46.6875 
L 52.484375 -15.578125 
L 61.078125 -15.578125 
L 61.078125 -20.796875 
L 35.015625 -20.796875 
L 35.015625 -15.578125 
L 43.5 -15.578125 
L 43.5 8.109375 
Q 40.875 3.21875 36.796875 0.890625 
Q 32.71875 -1.421875 26.703125 -1.421875 
Q 17.140625 -1.421875 11.0625 6.171875 
Q 4.984375 13.765625 4.984375 25.984375 
Q 4.984375 38.1875 11.03125 45.75 
Q 17.09375 53.328125 26.703125 53.328125 
Q 32.71875 53.328125 36.796875 51 
Q 40.875 48.6875 43.5 43.796875 
L 43.5 51.90625 
L 61.078125 51.90625 
L 61.078125 46.6875 
z
M 43.5 28.515625 
Q 43.5 37.84375 39.90625 42.765625 
Q 36.328125 47.703125 29.5 47.703125 
Q 22.5625 47.703125 19.015625 42.234375 
Q 15.484375 36.765625 15.484375 25.984375 
Q 15.484375 15.234375 19.015625 9.71875 
Q 22.5625 4.203125 29.5 4.203125 
Q 36.328125 4.203125 39.90625 9.109375 
Q 43.5 14.015625 43.5 23.390625 
z
" id="DejaVuSerif-113"/>
      <path d="M 35.40625 51.90625 
L 52.203125 51.90625 
L 52.203125 5.171875 
L 60.6875 5.171875 
L 60.6875 0 
L 43.21875 0 
L 43.21875 9.1875 
Q 40.71875 4 36.765625 1.28125 
Q 32.8125 -1.421875 27.59375 -1.421875 
Q 18.953125 -1.421875 14.875 3.484375 
Q 10.796875 8.40625 10.796875 18.890625 
L 10.796875 46.6875 
L 2.6875 46.6875 
L 2.6875 51.90625 
L 19.828125 51.90625 
L 19.828125 21.6875 
Q 19.828125 12.203125 22.140625 8.6875 
Q 24.46875 5.171875 30.421875 5.171875 
Q 36.671875 5.171875 39.9375 9.765625 
Q 43.21875 14.359375 43.21875 23.09375 
L 43.21875 46.6875 
L 35.40625 46.6875 
z
" id="DejaVuSerif-117"/>
      <path d="M 4.109375 0 
L 4.109375 5.171875 
L 12.203125 5.171875 
L 12.203125 46.6875 
L 3.609375 46.6875 
L 3.609375 51.90625 
L 21.1875 51.90625 
L 21.1875 42.671875 
Q 23.6875 47.953125 27.65625 50.640625 
Q 31.640625 53.328125 36.921875 53.328125 
Q 45.515625 53.328125 49.5625 48.390625 
Q 53.609375 43.453125 53.609375 33.015625 
L 53.609375 5.171875 
L 61.625 5.171875 
L 61.625 0 
L 36.8125 0 
L 36.8125 5.171875 
L 44.578125 5.171875 
L 44.578125 30.171875 
Q 44.578125 39.703125 42.234375 43.234375 
Q 39.890625 46.78125 33.984375 46.78125 
Q 27.734375 46.78125 24.453125 42.203125 
Q 21.1875 37.640625 21.1875 28.90625 
L 21.1875 5.171875 
L 29 5.171875 
L 29 0 
z
" id="DejaVuSerif-110"/>
      <path d="M 51.421875 15.578125 
Q 49.515625 7.28125 44.09375 2.921875 
Q 38.671875 -1.421875 30.078125 -1.421875 
Q 18.75 -1.421875 11.859375 6.078125 
Q 4.984375 13.578125 4.984375 25.984375 
Q 4.984375 38.421875 11.859375 45.875 
Q 18.75 53.328125 30.078125 53.328125 
Q 35.015625 53.328125 39.890625 52.171875 
Q 44.78125 51.03125 49.703125 48.6875 
L 49.703125 35.40625 
L 44.484375 35.40625 
Q 43.453125 42.234375 40.015625 45.359375 
Q 36.578125 48.484375 30.171875 48.484375 
Q 22.90625 48.484375 19.1875 42.84375 
Q 15.484375 37.203125 15.484375 25.984375 
Q 15.484375 14.75 19.171875 9.078125 
Q 22.859375 3.421875 30.171875 3.421875 
Q 35.984375 3.421875 39.453125 6.4375 
Q 42.921875 9.46875 44.1875 15.578125 
z
" id="DejaVuSerif-99"/>
      <path d="M 21.578125 -9.515625 
L 25 -0.875 
L 5.609375 46.6875 
L -0.296875 46.6875 
L -0.296875 51.90625 
L 23.578125 51.90625 
L 23.578125 46.6875 
L 15.28125 46.6875 
L 29.890625 10.984375 
L 44.484375 46.6875 
L 36.71875 46.6875 
L 36.71875 51.90625 
L 56.203125 51.90625 
L 56.203125 46.6875 
L 50.390625 46.6875 
L 26.609375 -11.71875 
Q 24.171875 -17.78125 21.1875 -20 
Q 18.21875 -22.21875 12.796875 -22.21875 
Q 10.5 -22.21875 8.078125 -21.828125 
Q 5.671875 -21.4375 3.21875 -20.703125 
L 3.21875 -10.796875 
L 7.8125 -10.796875 
Q 8.109375 -14.109375 9.5 -15.546875 
Q 10.890625 -17 13.8125 -17 
Q 16.5 -17 18.140625 -15.5 
Q 19.78125 -14.015625 21.578125 -9.515625 
z
" id="DejaVuSerif-121"/>
     </defs>
     <g transform="translate(23.60375 266.494531)rotate(-90)scale(0.22 -0.22)">
      <use xlink:href="#DejaVuSerif-70"/>
      <use x="69.384766" xlink:href="#DejaVuSerif-114"/>
      <use x="117.1875" xlink:href="#DejaVuSerif-101"/>
      <use x="176.367188" xlink:href="#DejaVuSerif-113"/>
      <use x="240.380859" xlink:href="#DejaVuSerif-117"/>
      <use x="304.785156" xlink:href="#DejaVuSerif-101"/>
      <use x="363.964844" xlink:href="#DejaVuSerif-110"/>
      <use x="428.369141" xlink:href="#DejaVuSerif-99"/>
      <use x="484.375" xlink:href="#DejaVuSerif-121"/>
     </g>
    </g>
   </g>
   <g id="patch_279">
    <path d="M 88.47625 370.076562 
L 88.47625 43.916562 
" style="fill:none;stroke:#000000;stroke-linecap:square;stroke-linejoin:miter;stroke-width:0.8;"/>
   </g>
   <g id="patch_280">
    <path d="M 646.47625 370.076562 
L 646.47625 43.916562 
" style="fill:none;stroke:#000000;stroke-linecap:square;stroke-linejoin:miter;stroke-width:0.8;"/>
   </g>
   <g id="patch_281">
    <path d="M 88.47625 370.076562 
L 646.47625 370.076562 
" style="fill:none;stroke:#000000;stroke-linecap:square;stroke-linejoin:miter;stroke-width:0.8;"/>
   </g>
   <g id="patch_282">
    <path d="M 88.47625 43.916562 
L 646.47625 43.916562 
" style="fill:none;stroke:#000000;stroke-linecap:square;stroke-linejoin:miter;stroke-width:0.8;"/>
   </g>
   <g id="text_7">
    <!-- Polypodiopsida Species Distribution -->
    <defs>
     <path d="M 24.703125 37.109375 
L 37.59375 37.109375 
Q 44.875 37.109375 48.671875 41.03125 
Q 52.484375 44.96875 52.484375 52.390625 
Q 52.484375 59.859375 48.671875 63.765625 
Q 44.875 67.671875 37.59375 67.671875 
L 24.703125 67.671875 
z
M 5.515625 0 
L 5.515625 5.171875 
L 14.796875 5.171875 
L 14.796875 67.671875 
L 5.515625 67.671875 
L 5.515625 72.90625 
L 39.984375 72.90625 
Q 50.921875 72.90625 57.3125 67.359375 
Q 63.71875 61.8125 63.71875 52.390625 
Q 63.71875 43.015625 57.3125 37.453125 
Q 50.921875 31.890625 39.984375 31.890625 
L 24.703125 31.890625 
L 24.703125 5.171875 
L 35.984375 5.171875 
L 35.984375 0 
z
" id="DejaVuSerif-80"/>
     <path d="M 30.078125 3.421875 
Q 37.3125 3.421875 40.984375 9.125 
Q 44.671875 14.84375 44.671875 25.984375 
Q 44.671875 37.109375 40.984375 42.796875 
Q 37.3125 48.484375 30.078125 48.484375 
Q 22.859375 48.484375 19.171875 42.796875 
Q 15.484375 37.109375 15.484375 25.984375 
Q 15.484375 14.84375 19.1875 9.125 
Q 22.90625 3.421875 30.078125 3.421875 
z
M 30.078125 -1.421875 
Q 18.75 -1.421875 11.859375 6.078125 
Q 4.984375 13.578125 4.984375 25.984375 
Q 4.984375 38.375 11.84375 45.84375 
Q 18.703125 53.328125 30.078125 53.328125 
Q 41.453125 53.328125 48.3125 45.84375 
Q 55.171875 38.375 55.171875 25.984375 
Q 55.171875 13.578125 48.3125 6.078125 
Q 41.453125 -1.421875 30.078125 -1.421875 
z
" id="DejaVuSerif-111"/>
     <path d="M 20.515625 5.171875 
L 29 5.171875 
L 29 0 
L 2.875 0 
L 2.875 5.171875 
L 11.53125 5.171875 
L 11.53125 70.796875 
L 2.875 70.796875 
L 2.875 75.984375 
L 20.515625 75.984375 
z
" id="DejaVuSerif-108"/>
     <path d="M 20.515625 28.515625 
L 20.515625 23.390625 
Q 20.515625 14.015625 24.09375 9.109375 
Q 27.6875 4.203125 34.515625 4.203125 
Q 41.40625 4.203125 44.9375 9.71875 
Q 48.484375 15.234375 48.484375 25.984375 
Q 48.484375 36.765625 44.9375 42.234375 
Q 41.40625 47.703125 34.515625 47.703125 
Q 27.6875 47.703125 24.09375 42.765625 
Q 20.515625 37.84375 20.515625 28.515625 
z
M 11.53125 46.6875 
L 2.875 46.6875 
L 2.875 51.90625 
L 20.515625 51.90625 
L 20.515625 43.796875 
Q 23.140625 48.6875 27.21875 51 
Q 31.296875 53.328125 37.3125 53.328125 
Q 46.875 53.328125 52.921875 45.75 
Q 58.984375 38.1875 58.984375 25.984375 
Q 58.984375 13.765625 52.921875 6.171875 
Q 46.875 -1.421875 37.3125 -1.421875 
Q 31.296875 -1.421875 27.21875 0.890625 
Q 23.140625 3.21875 20.515625 8.109375 
L 20.515625 -15.578125 
L 29 -15.578125 
L 29 -20.796875 
L 2.875 -20.796875 
L 2.875 -15.578125 
L 11.53125 -15.578125 
z
" id="DejaVuSerif-112"/>
     <path d="M 52.484375 5.171875 
L 61.078125 5.171875 
L 61.078125 0 
L 43.5 0 
L 43.5 8.109375 
Q 40.875 3.21875 36.796875 0.890625 
Q 32.71875 -1.421875 26.703125 -1.421875 
Q 17.140625 -1.421875 11.0625 6.171875 
Q 4.984375 13.765625 4.984375 25.984375 
Q 4.984375 38.1875 11.03125 45.75 
Q 17.09375 53.328125 26.703125 53.328125 
Q 32.71875 53.328125 36.796875 51 
Q 40.875 48.6875 43.5 43.796875 
L 43.5 70.796875 
L 35.015625 70.796875 
L 35.015625 75.984375 
L 52.484375 75.984375 
z
M 43.5 23.390625 
L 43.5 28.515625 
Q 43.5 37.84375 39.90625 42.765625 
Q 36.328125 47.703125 29.5 47.703125 
Q 22.5625 47.703125 19.015625 42.234375 
Q 15.484375 36.765625 15.484375 25.984375 
Q 15.484375 15.234375 19.015625 9.71875 
Q 22.5625 4.203125 29.5 4.203125 
Q 36.328125 4.203125 39.90625 9.109375 
Q 43.5 14.015625 43.5 23.390625 
z
" id="DejaVuSerif-100"/>
     <path d="M 9.71875 68.015625 
Q 9.71875 70.265625 11.34375 71.921875 
Q 12.984375 73.578125 15.28125 73.578125 
Q 17.53125 73.578125 19.15625 71.921875 
Q 20.796875 70.265625 20.796875 68.015625 
Q 20.796875 65.71875 19.1875 64.109375 
Q 17.578125 62.5 15.28125 62.5 
Q 12.984375 62.5 11.34375 64.109375 
Q 9.71875 65.71875 9.71875 68.015625 
z
M 21.1875 5.171875 
L 29.6875 5.171875 
L 29.6875 0 
L 3.609375 0 
L 3.609375 5.171875 
L 12.203125 5.171875 
L 12.203125 46.6875 
L 3.609375 46.6875 
L 3.609375 51.90625 
L 21.1875 51.90625 
z
" id="DejaVuSerif-105"/>
     <path d="M 5.609375 2.875 
L 5.609375 14.984375 
L 10.796875 14.984375 
Q 10.984375 9.1875 14.421875 6.296875 
Q 17.875 3.421875 24.609375 3.421875 
Q 30.671875 3.421875 33.84375 5.6875 
Q 37.015625 7.953125 37.015625 12.3125 
Q 37.015625 15.71875 34.6875 17.8125 
Q 32.375 19.921875 24.90625 22.3125 
L 18.40625 24.515625 
Q 11.71875 26.65625 8.71875 29.875 
Q 5.71875 33.109375 5.71875 38.09375 
Q 5.71875 45.21875 10.9375 49.265625 
Q 16.15625 53.328125 25.390625 53.328125 
Q 29.5 53.328125 34.03125 52.25 
Q 38.578125 51.171875 43.40625 49.125 
L 43.40625 37.796875 
L 38.234375 37.796875 
Q 38.03125 42.828125 34.703125 45.65625 
Q 31.390625 48.484375 25.6875 48.484375 
Q 20.015625 48.484375 17.109375 46.484375 
Q 14.203125 44.484375 14.203125 40.484375 
Q 14.203125 37.203125 16.40625 35.21875 
Q 18.609375 33.25 25.203125 31.203125 
L 32.328125 29 
Q 39.703125 26.703125 42.9375 23.265625 
Q 46.1875 19.828125 46.1875 14.40625 
Q 46.1875 7.03125 40.546875 2.796875 
Q 34.90625 -1.421875 25 -1.421875 
Q 19.96875 -1.421875 15.1875 -0.34375 
Q 10.40625 0.734375 5.609375 2.875 
z
" id="DejaVuSerif-115"/>
     <path d="M 39.796875 16.3125 
L 39.796875 27.296875 
L 28.21875 27.296875 
Q 21.53125 27.296875 18.25 24.40625 
Q 14.984375 21.53125 14.984375 15.578125 
Q 14.984375 10.15625 18.296875 6.984375 
Q 21.625 3.8125 27.296875 3.8125 
Q 32.90625 3.8125 36.34375 7.28125 
Q 39.796875 10.75 39.796875 16.3125 
z
M 48.78125 32.421875 
L 48.78125 5.171875 
L 56.78125 5.171875 
L 56.78125 0 
L 39.796875 0 
L 39.796875 5.609375 
Q 36.8125 2 32.90625 0.28125 
Q 29 -1.421875 23.78125 -1.421875 
Q 15.140625 -1.421875 10.0625 3.171875 
Q 4.984375 7.765625 4.984375 15.578125 
Q 4.984375 23.640625 10.796875 28.078125 
Q 16.609375 32.515625 27.203125 32.515625 
L 39.796875 32.515625 
L 39.796875 36.078125 
Q 39.796875 42 36.203125 45.234375 
Q 32.625 48.484375 26.125 48.484375 
Q 20.75 48.484375 17.578125 46.046875 
Q 14.40625 43.609375 13.625 38.8125 
L 8.984375 38.8125 
L 8.984375 49.3125 
Q 13.671875 51.3125 18.09375 52.3125 
Q 22.515625 53.328125 26.703125 53.328125 
Q 37.5 53.328125 43.140625 47.96875 
Q 48.78125 42.625 48.78125 32.421875 
z
" id="DejaVuSerif-97"/>
     <path id="DejaVuSerif-32"/>
     <path d="M 9.28125 3.515625 
L 9.28125 20.125 
L 14.890625 20.0625 
Q 15.140625 11.765625 19.703125 7.78125 
Q 24.265625 3.8125 33.59375 3.8125 
Q 42.28125 3.8125 46.84375 7.25 
Q 51.421875 10.6875 51.421875 17.28125 
Q 51.421875 22.5625 48.65625 25.390625 
Q 45.90625 28.21875 37.015625 30.90625 
L 27.390625 33.796875 
Q 16.9375 36.96875 12.671875 41.703125 
Q 8.40625 46.4375 8.40625 54.6875 
Q 8.40625 63.96875 14.984375 69.09375 
Q 21.578125 74.21875 33.5 74.21875 
Q 38.578125 74.21875 44.625 73.109375 
Q 50.6875 72.015625 57.515625 69.921875 
L 57.515625 54.390625 
L 52 54.390625 
Q 51.171875 62.109375 46.84375 65.546875 
Q 42.53125 69 33.6875 69 
Q 25.984375 69 21.953125 65.84375 
Q 17.921875 62.703125 17.921875 56.6875 
Q 17.921875 51.46875 20.9375 48.484375 
Q 23.96875 45.515625 33.796875 42.578125 
L 42.828125 39.890625 
Q 52.734375 36.921875 56.953125 32.296875 
Q 61.1875 27.6875 61.1875 19.921875 
Q 61.1875 9.328125 54.390625 3.953125 
Q 47.609375 -1.421875 34.1875 -1.421875 
Q 28.171875 -1.421875 21.9375 -0.1875 
Q 15.71875 1.03125 9.28125 3.515625 
z
" id="DejaVuSerif-83"/>
     <path d="M 24.703125 5.171875 
L 33.796875 5.171875 
Q 48 5.171875 55.59375 13.28125 
Q 63.1875 21.390625 63.1875 36.53125 
Q 63.1875 51.65625 55.609375 59.65625 
Q 48.046875 67.671875 33.796875 67.671875 
L 24.703125 67.671875 
z
M 5.515625 0 
L 5.515625 5.171875 
L 14.796875 5.171875 
L 14.796875 67.671875 
L 5.515625 67.671875 
L 5.515625 72.90625 
L 34.515625 72.90625 
Q 53.375 72.90625 63.890625 63.28125 
Q 74.421875 53.65625 74.421875 36.53125 
Q 74.421875 19.34375 63.875 9.671875 
Q 53.328125 0 34.515625 0 
z
" id="DejaVuSerif-68"/>
     <path d="M 10.796875 46.6875 
L 2.875 46.6875 
L 2.875 51.90625 
L 10.796875 51.90625 
L 10.796875 68.015625 
L 19.828125 68.015625 
L 19.828125 51.90625 
L 36.71875 51.90625 
L 36.71875 46.6875 
L 19.828125 46.6875 
L 19.828125 13.71875 
Q 19.828125 7.125 21.09375 5.265625 
Q 22.359375 3.421875 25.78125 3.421875 
Q 29.296875 3.421875 30.90625 5.484375 
Q 32.515625 7.5625 32.625 12.203125 
L 39.40625 12.203125 
Q 39.015625 5.125 35.546875 1.84375 
Q 32.078125 -1.421875 25 -1.421875 
Q 17.234375 -1.421875 14.015625 2.015625 
Q 10.796875 5.46875 10.796875 13.71875 
z
" id="DejaVuSerif-116"/>
     <path d="M 11.53125 5.171875 
L 11.53125 70.796875 
L 2.875 70.796875 
L 2.875 75.984375 
L 20.515625 75.984375 
L 20.515625 43.796875 
Q 23.140625 48.6875 27.21875 51 
Q 31.296875 53.328125 37.3125 53.328125 
Q 46.875 53.328125 52.921875 45.75 
Q 58.984375 38.1875 58.984375 25.984375 
Q 58.984375 13.765625 52.921875 6.171875 
Q 46.875 -1.421875 37.3125 -1.421875 
Q 31.296875 -1.421875 27.21875 0.890625 
Q 23.140625 3.21875 20.515625 8.109375 
L 20.515625 0 
L 2.875 0 
L 2.875 5.171875 
z
M 20.515625 23.390625 
Q 20.515625 14.015625 24.09375 9.109375 
Q 27.6875 4.203125 34.515625 4.203125 
Q 41.40625 4.203125 44.9375 9.71875 
Q 48.484375 15.234375 48.484375 25.984375 
Q 48.484375 36.765625 44.9375 42.234375 
Q 41.40625 47.703125 34.515625 47.703125 
Q 27.6875 47.703125 24.09375 42.765625 
Q 20.515625 37.84375 20.515625 28.515625 
z
" id="DejaVuSerif-98"/>
    </defs>
    <g transform="translate(166.645469 23.916562)scale(0.22 -0.22)">
     <use xlink:href="#DejaVuSerif-80"/>
     <use x="63.285156" xlink:href="#DejaVuSerif-111"/>
     <use x="123.490234" xlink:href="#DejaVuSerif-108"/>
     <use x="155.472656" xlink:href="#DejaVuSerif-121"/>
     <use x="211.966797" xlink:href="#DejaVuSerif-112"/>
     <use x="275.980469" xlink:href="#DejaVuSerif-111"/>
     <use x="336.185547" xlink:href="#DejaVuSerif-100"/>
     <use x="400.199219" xlink:href="#DejaVuSerif-105"/>
     <use x="432.181641" xlink:href="#DejaVuSerif-111"/>
     <use x="492.386719" xlink:href="#DejaVuSerif-112"/>
     <use x="556.400391" xlink:href="#DejaVuSerif-115"/>
     <use x="607.71875" xlink:href="#DejaVuSerif-105"/>
     <use x="639.701172" xlink:href="#DejaVuSerif-100"/>
     <use x="703.714844" xlink:href="#DejaVuSerif-97"/>
     <use x="763.333984" xlink:href="#DejaVuSerif-32"/>
     <use x="795.121094" xlink:href="#DejaVuSerif-83"/>
     <use x="863.626953" xlink:href="#DejaVuSerif-112"/>
     <use x="927.640625" xlink:href="#DejaVuSerif-101"/>
     <use x="986.820312" xlink:href="#DejaVuSerif-99"/>
     <use x="1042.826172" xlink:href="#DejaVuSerif-105"/>
     <use x="1074.808594" xlink:href="#DejaVuSerif-101"/>
     <use x="1133.988281" xlink:href="#DejaVuSerif-115"/>
     <use x="1185.306641" xlink:href="#DejaVuSerif-32"/>
     <use x="1217.09375" xlink:href="#DejaVuSerif-68"/>
     <use x="1297.269531" xlink:href="#DejaVuSerif-105"/>
     <use x="1329.251953" xlink:href="#DejaVuSerif-115"/>
     <use x="1380.570312" xlink:href="#DejaVuSerif-116"/>
     <use x="1420.755859" xlink:href="#DejaVuSerif-114"/>
     <use x="1468.558594" xlink:href="#DejaVuSerif-105"/>
     <use x="1500.541016" xlink:href="#DejaVuSerif-98"/>
     <use x="1564.554688" xlink:href="#DejaVuSerif-117"/>
     <use x="1628.958984" xlink:href="#DejaVuSerif-116"/>
     <use x="1669.144531" xlink:href="#DejaVuSerif-105"/>
     <use x="1701.126953" xlink:href="#DejaVuSerif-111"/>
     <use x="1761.332031" xlink:href="#DejaVuSerif-110"/>
    </g>
   </g>
  </g>
 </g>
 <defs>
  <clipPath id="pac5ea57265">
   <rect height="326.16" width="558" x="88.47625" y="43.916562"/>
  </clipPath>
 </defs>
</svg>
