<?xml version="1.0" encoding="utf-8" standalone="no"?>
<!DOCTYPE svg PUBLIC "-//W3C//DTD SVG 1.1//EN"
  "http://www.w3.org/Graphics/SVG/1.1/DTD/svg11.dtd">
<!-- Created with matplotlib (https://matplotlib.org/) -->
<svg height="639.076563pt" version="1.1" viewBox="0 0 911.686875 639.076563" width="911.686875pt" xmlns="http://www.w3.org/2000/svg" xmlns:xlink="http://www.w3.org/1999/xlink">
 <defs>
  <style type="text/css">
*{stroke-linecap:butt;stroke-linejoin:round;}
  </style>
 </defs>
 <g id="figure_1">
  <g id="patch_1">
   <path d="M 0 639.076563 
L 911.686875 639.076563 
L 911.686875 0 
L 0 0 
z
" style="fill:#ffffff;"/>
  </g>
  <g id="axes_1">
   <g id="patch_2">
    <path d="M 67.486875 577.98 
L 904.486875 577.98 
L 904.486875 7.2 
L 67.486875 7.2 
z
" style="fill:#ffffff;"/>
   </g>
   <g id="patch_3">
    <path clip-path="url(#pa55d1c05a2)" d="M 79.762875 314.373592 
L 111.010875 314.373592 
L 111.010875 283.37832 
L 79.762875 283.37832 
L 79.762875 314.373592 
z
" style="fill:#525252;stroke:#313131;stroke-linejoin:miter;stroke-width:1.5;"/>
   </g>
   <g id="patch_4">
    <path clip-path="url(#pa55d1c05a2)" d="M 111.648589 427.04611 
L 142.896589 427.04611 
L 142.896589 398.822818 
L 111.648589 398.822818 
L 111.648589 427.04611 
z
" style="fill:#979797;stroke:#313131;stroke-linejoin:miter;stroke-width:1.5;"/>
   </g>
   <g id="patch_5">
    <path clip-path="url(#pa55d1c05a2)" d="M 143.534304 550.223202 
L 174.782304 550.223202 
L 174.782304 540.322558 
L 143.534304 540.322558 
L 143.534304 550.223202 
z
" style="fill:#dadada;stroke:#313131;stroke-linejoin:miter;stroke-width:1.5;"/>
   </g>
   <g id="patch_6">
    <path clip-path="url(#pa55d1c05a2)" d="M 199.334304 198.297637 
L 230.582304 198.297637 
L 230.582304 148.85617 
L 199.334304 148.85617 
L 199.334304 198.297637 
z
" style="fill:#525252;stroke:#313131;stroke-linejoin:miter;stroke-width:1.5;"/>
   </g>
   <g id="patch_7">
    <path clip-path="url(#pa55d1c05a2)" d="M 231.220018 191.67866 
L 262.468018 191.67866 
L 262.468018 124.988384 
L 231.220018 124.988384 
L 231.220018 191.67866 
z
" style="fill:#979797;stroke:#313131;stroke-linejoin:miter;stroke-width:1.5;"/>
   </g>
   <g id="patch_8">
    <path clip-path="url(#pa55d1c05a2)" d="M 263.105732 542.644587 
L 294.353732 542.644587 
L 294.353732 533.809013 
L 263.105732 533.809013 
L 263.105732 542.644587 
z
" style="fill:#dadada;stroke:#313131;stroke-linejoin:miter;stroke-width:1.5;"/>
   </g>
   <g id="patch_9">
    <path clip-path="url(#pa55d1c05a2)" d="M 318.905732 137.521292 
L 350.153732 137.521292 
L 350.153732 88.324158 
L 318.905732 88.324158 
L 318.905732 137.521292 
z
" style="fill:#525252;stroke:#313131;stroke-linejoin:miter;stroke-width:1.5;"/>
   </g>
   <g id="patch_10">
    <path clip-path="url(#pa55d1c05a2)" d="M 350.791446 77.029195 
L 382.039446 77.029195 
L 382.039446 59.606348 
L 350.791446 59.606348 
L 350.791446 77.029195 
z
" style="fill:#979797;stroke:#313131;stroke-linejoin:miter;stroke-width:1.5;"/>
   </g>
   <g id="patch_11">
    <path clip-path="url(#pa55d1c05a2)" d="M 382.677161 408.980146 
L 413.925161 408.980146 
L 413.925161 373.688331 
L 382.677161 373.688331 
L 382.677161 408.980146 
z
" style="fill:#dadada;stroke:#313131;stroke-linejoin:miter;stroke-width:1.5;"/>
   </g>
   <g id="patch_12">
    <path clip-path="url(#pa55d1c05a2)" d="M 438.477161 103.200927 
L 469.725161 103.200927 
L 469.725161 69.470364 
L 438.477161 69.470364 
L 438.477161 103.200927 
z
" style="fill:#525252;stroke:#313131;stroke-linejoin:miter;stroke-width:1.5;"/>
   </g>
   <g id="patch_13">
    <path clip-path="url(#pa55d1c05a2)" d="M 470.362875 67.496371 
L 501.610875 67.496371 
L 501.610875 51.581345 
L 470.362875 51.581345 
L 470.362875 67.496371 
z
" style="fill:#979797;stroke:#313131;stroke-linejoin:miter;stroke-width:1.5;"/>
   </g>
   <g id="patch_14">
    <path clip-path="url(#pa55d1c05a2)" d="M 502.248589 280.531574 
L 533.496589 280.531574 
L 533.496589 219.533625 
L 502.248589 219.533625 
L 502.248589 280.531574 
z
" style="fill:#dadada;stroke:#313131;stroke-linejoin:miter;stroke-width:1.5;"/>
   </g>
   <g id="patch_15">
    <path clip-path="url(#pa55d1c05a2)" d="M 558.048589 84.838324 
L 589.296589 84.838324 
L 589.296589 56.494751 
L 558.048589 56.494751 
L 558.048589 84.838324 
z
" style="fill:#525252;stroke:#313131;stroke-linejoin:miter;stroke-width:1.5;"/>
   </g>
   <g id="patch_16">
    <path clip-path="url(#pa55d1c05a2)" d="M 589.934304 66.815285 
L 621.182304 66.815285 
L 621.182304 45.380495 
L 589.934304 45.380495 
L 589.934304 66.815285 
z
" style="fill:#979797;stroke:#313131;stroke-linejoin:miter;stroke-width:1.5;"/>
   </g>
   <g id="patch_17">
    <path clip-path="url(#pa55d1c05a2)" d="M 621.820018 169.997971 
L 653.068018 169.997971 
L 653.068018 98.164982 
L 621.820018 98.164982 
L 621.820018 169.997971 
z
" style="fill:#dadada;stroke:#313131;stroke-linejoin:miter;stroke-width:1.5;"/>
   </g>
   <g id="patch_18">
    <path clip-path="url(#pa55d1c05a2)" d="M 677.620018 76.229812 
L 708.868018 76.229812 
L 708.868018 55.742499 
L 677.620018 55.742499 
L 677.620018 76.229812 
z
" style="fill:#525252;stroke:#313131;stroke-linejoin:miter;stroke-width:1.5;"/>
   </g>
   <g id="patch_19">
    <path clip-path="url(#pa55d1c05a2)" d="M 709.505732 69.899233 
L 740.753732 69.899233 
L 740.753732 44.273974 
L 709.505732 44.273974 
L 709.505732 69.899233 
z
" style="fill:#979797;stroke:#313131;stroke-linejoin:miter;stroke-width:1.5;"/>
   </g>
   <g id="patch_20">
    <path clip-path="url(#pa55d1c05a2)" d="M 741.391446 117.191909 
L 772.639446 117.191909 
L 772.639446 59.238144 
L 741.391446 59.238144 
L 741.391446 117.191909 
z
" style="fill:#dadada;stroke:#313131;stroke-linejoin:miter;stroke-width:1.5;"/>
   </g>
   <g id="patch_21">
    <path clip-path="url(#pa55d1c05a2)" d="M 797.191446 77.191474 
L 828.439446 77.191474 
L 828.439446 52.994264 
L 797.191446 52.994264 
L 797.191446 77.191474 
z
" style="fill:#525252;stroke:#313131;stroke-linejoin:miter;stroke-width:1.5;"/>
   </g>
   <g id="patch_22">
    <path clip-path="url(#pa55d1c05a2)" d="M 829.077161 77.563924 
L 860.325161 77.563924 
L 860.325161 48.157269 
L 829.077161 48.157269 
L 829.077161 77.563924 
z
" style="fill:#979797;stroke:#313131;stroke-linejoin:miter;stroke-width:1.5;"/>
   </g>
   <g id="patch_23">
    <path clip-path="url(#pa55d1c05a2)" d="M 860.962875 152.162136 
L 892.210875 152.162136 
L 892.210875 108.423962 
L 860.962875 108.423962 
L 860.962875 152.162136 
z
" style="fill:#dadada;stroke:#313131;stroke-linejoin:miter;stroke-width:1.5;"/>
   </g>
   <g id="patch_24">
    <path clip-path="url(#pa55d1c05a2)" d="M 127.272589 599.17408 
L 127.272589 599.17408 
L 127.272589 599.17408 
L 127.272589 599.17408 
z
" style="fill:#525252;stroke:#313131;stroke-linejoin:miter;stroke-width:0.75;"/>
   </g>
   <g id="patch_25">
    <path clip-path="url(#pa55d1c05a2)" d="M 127.272589 599.17408 
L 127.272589 599.17408 
L 127.272589 599.17408 
L 127.272589 599.17408 
z
" style="fill:#979797;stroke:#313131;stroke-linejoin:miter;stroke-width:0.75;"/>
   </g>
   <g id="patch_26">
    <path clip-path="url(#pa55d1c05a2)" d="M 127.272589 599.17408 
L 127.272589 599.17408 
L 127.272589 599.17408 
L 127.272589 599.17408 
z
" style="fill:#dadada;stroke:#313131;stroke-linejoin:miter;stroke-width:0.75;"/>
   </g>
   <g id="matplotlib.axis_1">
    <g id="xtick_1">
     <g id="line2d_1">
      <defs>
       <path d="M 0 0 
L 0 3.5 
" id="m05e3afdd83" style="stroke:#000000;stroke-width:0.8;"/>
      </defs>
      <g>
       <use style="stroke:#000000;stroke-width:0.8;" x="127.272589" xlink:href="#m05e3afdd83" y="577.98"/>
      </g>
     </g>
     <g id="text_1">
      <!-- k=1 -->
      <defs>
       <path d="M 28.609375 0 
L 3.421875 0 
L 3.421875 5.171875 
L 11.53125 5.171875 
L 11.53125 70.796875 
L 2.875 70.796875 
L 2.875 75.984375 
L 20.515625 75.984375 
L 20.515625 26.515625 
L 42.390625 46.6875 
L 34.90625 46.6875 
L 34.90625 51.90625 
L 58.40625 51.90625 
L 58.40625 46.6875 
L 49.515625 46.6875 
L 34.078125 32.421875 
L 53.8125 5.171875 
L 61.28125 5.171875 
L 61.28125 0 
L 35.6875 0 
L 35.6875 5.171875 
L 43.109375 5.171875 
L 27.59375 26.515625 
L 20.515625 19.921875 
L 20.515625 5.171875 
L 28.609375 5.171875 
z
" id="DejaVuSerif-107"/>
       <path d="M 10.59375 45.21875 
L 73.1875 45.21875 
L 73.1875 37.40625 
L 10.59375 37.40625 
z
M 10.59375 25.296875 
L 73.1875 25.296875 
L 73.1875 17.484375 
L 10.59375 17.484375 
z
" id="DejaVuSerif-61"/>
       <path d="M 14.203125 0 
L 14.203125 5.171875 
L 26.90625 5.171875 
L 26.90625 65.828125 
L 12.203125 56.296875 
L 12.203125 62.703125 
L 29.984375 74.21875 
L 36.71875 74.21875 
L 36.71875 5.171875 
L 49.421875 5.171875 
L 49.421875 0 
z
" id="DejaVuSerif-49"/>
      </defs>
      <g transform="translate(104.390871 601.696563)scale(0.22 -0.22)">
       <use xlink:href="#DejaVuSerif-107"/>
       <use x="60.595703" xlink:href="#DejaVuSerif-61"/>
       <use x="144.384766" xlink:href="#DejaVuSerif-49"/>
      </g>
     </g>
    </g>
    <g id="xtick_2">
     <g id="line2d_2">
      <g>
       <use style="stroke:#000000;stroke-width:0.8;" x="246.844018" xlink:href="#m05e3afdd83" y="577.98"/>
      </g>
     </g>
     <g id="text_2">
      <!-- k=2 -->
      <defs>
       <path d="M 12.796875 55.515625 
L 7.328125 55.515625 
L 7.328125 68.5 
Q 12.546875 71.296875 17.84375 72.75 
Q 23.140625 74.21875 28.21875 74.21875 
Q 39.59375 74.21875 46.1875 68.703125 
Q 52.78125 63.1875 52.78125 53.71875 
Q 52.78125 43.015625 37.84375 28.125 
Q 36.671875 27 36.078125 26.421875 
L 17.671875 8.015625 
L 48.09375 8.015625 
L 48.09375 17 
L 53.8125 17 
L 53.8125 0 
L 6.78125 0 
L 6.78125 5.328125 
L 28.90625 27.390625 
Q 36.234375 34.71875 39.359375 40.84375 
Q 42.484375 46.96875 42.484375 53.71875 
Q 42.484375 61.078125 38.640625 65.234375 
Q 34.8125 69.390625 28.078125 69.390625 
Q 21.09375 69.390625 17.28125 65.921875 
Q 13.484375 62.453125 12.796875 55.515625 
z
" id="DejaVuSerif-50"/>
      </defs>
      <g transform="translate(223.962299 601.696563)scale(0.22 -0.22)">
       <use xlink:href="#DejaVuSerif-107"/>
       <use x="60.595703" xlink:href="#DejaVuSerif-61"/>
       <use x="144.384766" xlink:href="#DejaVuSerif-50"/>
      </g>
     </g>
    </g>
    <g id="xtick_3">
     <g id="line2d_3">
      <g>
       <use style="stroke:#000000;stroke-width:0.8;" x="366.415446" xlink:href="#m05e3afdd83" y="577.98"/>
      </g>
     </g>
     <g id="text_3">
      <!-- k=3 -->
      <defs>
       <path d="M 9.71875 69.828125 
Q 15.4375 71.96875 20.671875 73.09375 
Q 25.921875 74.21875 30.515625 74.21875 
Q 41.21875 74.21875 47.21875 69.59375 
Q 53.21875 64.984375 53.21875 56.78125 
Q 53.21875 50.203125 49.0625 45.78125 
Q 44.921875 41.359375 37.3125 39.796875 
Q 46.296875 38.53125 51.25 33.28125 
Q 56.203125 28.03125 56.203125 19.671875 
Q 56.203125 9.46875 49.34375 4.015625 
Q 42.484375 -1.421875 29.59375 -1.421875 
Q 23.875 -1.421875 18.421875 -0.1875 
Q 12.984375 1.03125 7.625 3.515625 
L 7.625 17.671875 
L 13.09375 17.671875 
Q 13.578125 10.640625 17.828125 7.03125 
Q 22.078125 3.421875 29.78125 3.421875 
Q 37.25 3.421875 41.578125 7.734375 
Q 45.90625 12.0625 45.90625 19.578125 
Q 45.90625 28.171875 41.453125 32.59375 
Q 37.015625 37.015625 28.421875 37.015625 
L 23.78125 37.015625 
L 23.78125 42 
L 26.21875 42 
Q 34.765625 42 39.03125 45.53125 
Q 43.3125 49.078125 43.3125 56.203125 
Q 43.3125 62.59375 39.796875 65.984375 
Q 36.28125 69.390625 29.6875 69.390625 
Q 23.09375 69.390625 19.453125 66.265625 
Q 15.828125 63.140625 15.1875 56.984375 
L 9.71875 56.984375 
z
" id="DejaVuSerif-51"/>
      </defs>
      <g transform="translate(343.533728 601.696563)scale(0.22 -0.22)">
       <use xlink:href="#DejaVuSerif-107"/>
       <use x="60.595703" xlink:href="#DejaVuSerif-61"/>
       <use x="144.384766" xlink:href="#DejaVuSerif-51"/>
      </g>
     </g>
    </g>
    <g id="xtick_4">
     <g id="line2d_4">
      <g>
       <use style="stroke:#000000;stroke-width:0.8;" x="485.986875" xlink:href="#m05e3afdd83" y="577.98"/>
      </g>
     </g>
     <g id="text_4">
      <!-- k=4 -->
      <defs>
       <path d="M 34.90625 24.703125 
L 34.90625 63.484375 
L 10.015625 24.703125 
z
M 56.390625 0 
L 23.1875 0 
L 23.1875 5.171875 
L 34.90625 5.171875 
L 34.90625 19.484375 
L 3.078125 19.484375 
L 3.078125 24.8125 
L 35.015625 74.21875 
L 44.671875 74.21875 
L 44.671875 24.703125 
L 58.59375 24.703125 
L 58.59375 19.484375 
L 44.671875 19.484375 
L 44.671875 5.171875 
L 56.390625 5.171875 
z
" id="DejaVuSerif-52"/>
      </defs>
      <g transform="translate(463.105156 601.696563)scale(0.22 -0.22)">
       <use xlink:href="#DejaVuSerif-107"/>
       <use x="60.595703" xlink:href="#DejaVuSerif-61"/>
       <use x="144.384766" xlink:href="#DejaVuSerif-52"/>
      </g>
     </g>
    </g>
    <g id="xtick_5">
     <g id="line2d_5">
      <g>
       <use style="stroke:#000000;stroke-width:0.8;" x="605.558304" xlink:href="#m05e3afdd83" y="577.98"/>
      </g>
     </g>
     <g id="text_5">
      <!-- k=5 -->
      <defs>
       <path d="M 50.296875 72.90625 
L 50.296875 64.890625 
L 16.890625 64.890625 
L 16.890625 44 
Q 19.4375 45.75 22.828125 46.625 
Q 26.21875 47.515625 30.421875 47.515625 
Q 42.234375 47.515625 49.0625 40.96875 
Q 55.90625 34.421875 55.90625 23.09375 
Q 55.90625 11.53125 49 5.046875 
Q 42.09375 -1.421875 29.59375 -1.421875 
Q 24.5625 -1.421875 19.28125 -0.1875 
Q 14.015625 1.03125 8.5 3.515625 
L 8.5 17.671875 
L 14.015625 17.671875 
Q 14.453125 10.75 18.421875 7.078125 
Q 22.40625 3.421875 29.59375 3.421875 
Q 37.3125 3.421875 41.453125 8.5 
Q 45.609375 13.578125 45.609375 23.09375 
Q 45.609375 32.5625 41.484375 37.609375 
Q 37.359375 42.671875 29.59375 42.671875 
Q 25.203125 42.671875 21.84375 41.109375 
Q 18.5 39.546875 15.921875 36.28125 
L 11.71875 36.28125 
L 11.71875 72.90625 
z
" id="DejaVuSerif-53"/>
      </defs>
      <g transform="translate(582.676585 601.696563)scale(0.22 -0.22)">
       <use xlink:href="#DejaVuSerif-107"/>
       <use x="60.595703" xlink:href="#DejaVuSerif-61"/>
       <use x="144.384766" xlink:href="#DejaVuSerif-53"/>
      </g>
     </g>
    </g>
    <g id="xtick_6">
     <g id="line2d_6">
      <g>
       <use style="stroke:#000000;stroke-width:0.8;" x="725.129732" xlink:href="#m05e3afdd83" y="577.98"/>
      </g>
     </g>
     <g id="text_6">
      <!-- k=6 -->
      <defs>
       <path d="M 32.71875 3.421875 
Q 39.59375 3.421875 43.296875 8.46875 
Q 47.015625 13.53125 47.015625 23 
Q 47.015625 32.46875 43.296875 37.515625 
Q 39.59375 42.578125 32.71875 42.578125 
Q 25.734375 42.578125 22.0625 37.6875 
Q 18.40625 32.8125 18.40625 23.578125 
Q 18.40625 13.875 22.109375 8.640625 
Q 25.828125 3.421875 32.71875 3.421875 
z
M 16.796875 40.140625 
Q 20.125 43.796875 24.3125 45.59375 
Q 28.515625 47.40625 33.796875 47.40625 
Q 44.671875 47.40625 51 40.859375 
Q 57.328125 34.328125 57.328125 23 
Q 57.328125 11.921875 50.515625 5.25 
Q 43.703125 -1.421875 32.328125 -1.421875 
Q 19.96875 -1.421875 13.328125 7.78125 
Q 6.6875 17 6.6875 34.078125 
Q 6.6875 53.21875 14.546875 63.71875 
Q 22.40625 74.21875 36.71875 74.21875 
Q 40.578125 74.21875 44.828125 73.484375 
Q 49.078125 72.75 53.515625 71.296875 
L 53.515625 59.28125 
L 48 59.28125 
Q 47.40625 64.203125 44.234375 66.796875 
Q 41.0625 69.390625 35.6875 69.390625 
Q 26.21875 69.390625 21.578125 62.203125 
Q 16.9375 55.03125 16.796875 40.140625 
z
" id="DejaVuSerif-54"/>
      </defs>
      <g transform="translate(702.248013 601.696563)scale(0.22 -0.22)">
       <use xlink:href="#DejaVuSerif-107"/>
       <use x="60.595703" xlink:href="#DejaVuSerif-61"/>
       <use x="144.384766" xlink:href="#DejaVuSerif-54"/>
      </g>
     </g>
    </g>
    <g id="xtick_7">
     <g id="line2d_7">
      <g>
       <use style="stroke:#000000;stroke-width:0.8;" x="844.701161" xlink:href="#m05e3afdd83" y="577.98"/>
      </g>
     </g>
     <g id="text_7">
      <!-- k=7 -->
      <defs>
       <path d="M 56.390625 67.921875 
L 27.875 0 
L 20.609375 0 
L 47.796875 64.890625 
L 14.109375 64.890625 
L 14.109375 55.90625 
L 8.40625 55.90625 
L 8.40625 72.90625 
L 56.390625 72.90625 
z
" id="DejaVuSerif-55"/>
      </defs>
      <g transform="translate(821.819442 601.696563)scale(0.22 -0.22)">
       <use xlink:href="#DejaVuSerif-107"/>
       <use x="60.595703" xlink:href="#DejaVuSerif-61"/>
       <use x="144.384766" xlink:href="#DejaVuSerif-55"/>
      </g>
     </g>
    </g>
    <g id="text_8">
     <!-- k-mer length -->
     <defs>
      <path d="M 4.390625 30.609375 
L 29.390625 30.609375 
L 29.390625 23 
L 4.390625 23 
z
" id="DejaVuSerif-45"/>
      <path d="M 51.8125 41.796875 
Q 54.390625 47.515625 58.421875 50.421875 
Q 62.453125 53.328125 67.828125 53.328125 
Q 75.984375 53.328125 79.984375 48.265625 
Q 83.984375 43.21875 83.984375 33.015625 
L 83.984375 5.171875 
L 92.09375 5.171875 
L 92.09375 0 
L 67.1875 0 
L 67.1875 5.171875 
L 75 5.171875 
L 75 31.984375 
Q 75 39.9375 72.65625 43.3125 
Q 70.3125 46.6875 64.890625 46.6875 
Q 58.890625 46.6875 55.734375 42.140625 
Q 52.59375 37.59375 52.59375 28.90625 
L 52.59375 5.171875 
L 60.40625 5.171875 
L 60.40625 0 
L 35.796875 0 
L 35.796875 5.171875 
L 43.609375 5.171875 
L 43.609375 32.328125 
Q 43.609375 40.09375 41.265625 43.390625 
Q 38.921875 46.6875 33.5 46.6875 
Q 27.484375 46.6875 24.328125 42.140625 
Q 21.1875 37.59375 21.1875 28.90625 
L 21.1875 5.171875 
L 29 5.171875 
L 29 0 
L 4.109375 0 
L 4.109375 5.171875 
L 12.203125 5.171875 
L 12.203125 46.78125 
L 3.609375 46.78125 
L 3.609375 51.90625 
L 21.1875 51.90625 
L 21.1875 42.671875 
Q 23.6875 47.859375 27.53125 50.59375 
Q 31.390625 53.328125 36.28125 53.328125 
Q 42.328125 53.328125 46.375 50.3125 
Q 50.4375 47.3125 51.8125 41.796875 
z
" id="DejaVuSerif-109"/>
      <path d="M 54.203125 25 
L 15.484375 25 
L 15.484375 24.609375 
Q 15.484375 14.109375 19.4375 8.765625 
Q 23.390625 3.421875 31.109375 3.421875 
Q 37.015625 3.421875 40.796875 6.515625 
Q 44.578125 9.625 46.09375 15.71875 
L 53.328125 15.71875 
Q 51.171875 7.171875 45.375 2.875 
Q 39.59375 -1.421875 30.171875 -1.421875 
Q 18.796875 -1.421875 11.890625 6.078125 
Q 4.984375 13.578125 4.984375 25.984375 
Q 4.984375 38.28125 11.765625 45.796875 
Q 18.5625 53.328125 29.59375 53.328125 
Q 41.359375 53.328125 47.65625 46.0625 
Q 53.953125 38.8125 54.203125 25 
z
M 43.609375 30.171875 
Q 43.3125 39.265625 39.765625 43.875 
Q 36.234375 48.484375 29.59375 48.484375 
Q 23.390625 48.484375 19.828125 43.84375 
Q 16.265625 39.203125 15.484375 30.171875 
z
" id="DejaVuSerif-101"/>
      <path d="M 47.796875 52 
L 47.796875 39.015625 
L 42.625 39.015625 
Q 42.390625 42.875 40.484375 44.78125 
Q 38.578125 46.6875 34.90625 46.6875 
Q 28.265625 46.6875 24.71875 42.09375 
Q 21.1875 37.5 21.1875 28.90625 
L 21.1875 5.171875 
L 31.59375 5.171875 
L 31.59375 0 
L 4.109375 0 
L 4.109375 5.171875 
L 12.203125 5.171875 
L 12.203125 46.78125 
L 3.609375 46.78125 
L 3.609375 51.90625 
L 21.1875 51.90625 
L 21.1875 42.671875 
Q 23.828125 48.09375 27.96875 50.703125 
Q 32.125 53.328125 38.09375 53.328125 
Q 40.28125 53.328125 42.703125 52.984375 
Q 45.125 52.640625 47.796875 52 
z
" id="DejaVuSerif-114"/>
      <path id="DejaVuSerif-32"/>
      <path d="M 20.515625 5.171875 
L 29 5.171875 
L 29 0 
L 2.875 0 
L 2.875 5.171875 
L 11.53125 5.171875 
L 11.53125 70.796875 
L 2.875 70.796875 
L 2.875 75.984375 
L 20.515625 75.984375 
z
" id="DejaVuSerif-108"/>
      <path d="M 4.109375 0 
L 4.109375 5.171875 
L 12.203125 5.171875 
L 12.203125 46.6875 
L 3.609375 46.6875 
L 3.609375 51.90625 
L 21.1875 51.90625 
L 21.1875 42.671875 
Q 23.6875 47.953125 27.65625 50.640625 
Q 31.640625 53.328125 36.921875 53.328125 
Q 45.515625 53.328125 49.5625 48.390625 
Q 53.609375 43.453125 53.609375 33.015625 
L 53.609375 5.171875 
L 61.625 5.171875 
L 61.625 0 
L 36.8125 0 
L 36.8125 5.171875 
L 44.578125 5.171875 
L 44.578125 30.171875 
Q 44.578125 39.703125 42.234375 43.234375 
Q 39.890625 46.78125 33.984375 46.78125 
Q 27.734375 46.78125 24.453125 42.203125 
Q 21.1875 37.640625 21.1875 28.90625 
L 21.1875 5.171875 
L 29 5.171875 
L 29 0 
z
" id="DejaVuSerif-110"/>
      <path d="M 52.484375 46.6875 
L 52.484375 1.125 
Q 52.484375 -10.0625 46.328125 -16.140625 
Q 40.1875 -22.21875 28.8125 -22.21875 
Q 23.6875 -22.21875 19 -21.28125 
Q 14.3125 -20.359375 10.015625 -18.5 
L 10.015625 -7.625 
L 14.703125 -7.625 
Q 15.578125 -12.703125 18.84375 -15.046875 
Q 22.125 -17.390625 28.21875 -17.390625 
Q 36.140625 -17.390625 39.8125 -12.921875 
Q 43.5 -8.453125 43.5 1.125 
L 43.5 8.109375 
Q 40.875 3.21875 36.796875 0.890625 
Q 32.71875 -1.421875 26.703125 -1.421875 
Q 17.140625 -1.421875 11.0625 6.171875 
Q 4.984375 13.765625 4.984375 25.984375 
Q 4.984375 38.1875 11.03125 45.75 
Q 17.09375 53.328125 26.703125 53.328125 
Q 32.71875 53.328125 36.796875 51 
Q 40.875 48.6875 43.5 43.796875 
L 43.5 51.90625 
L 61.078125 51.90625 
L 61.078125 46.6875 
z
M 43.5 28.515625 
Q 43.5 37.84375 39.90625 42.765625 
Q 36.328125 47.703125 29.5 47.703125 
Q 22.5625 47.703125 19.015625 42.234375 
Q 15.484375 36.765625 15.484375 25.984375 
Q 15.484375 15.234375 19.015625 9.71875 
Q 22.5625 4.203125 29.5 4.203125 
Q 36.328125 4.203125 39.90625 9.109375 
Q 43.5 14.015625 43.5 23.390625 
z
" id="DejaVuSerif-103"/>
      <path d="M 10.796875 46.6875 
L 2.875 46.6875 
L 2.875 51.90625 
L 10.796875 51.90625 
L 10.796875 68.015625 
L 19.828125 68.015625 
L 19.828125 51.90625 
L 36.71875 51.90625 
L 36.71875 46.6875 
L 19.828125 46.6875 
L 19.828125 13.71875 
Q 19.828125 7.125 21.09375 5.265625 
Q 22.359375 3.421875 25.78125 3.421875 
Q 29.296875 3.421875 30.90625 5.484375 
Q 32.515625 7.5625 32.625 12.203125 
L 39.40625 12.203125 
Q 39.015625 5.125 35.546875 1.84375 
Q 32.078125 -1.421875 25 -1.421875 
Q 17.234375 -1.421875 14.015625 2.015625 
Q 10.796875 5.46875 10.796875 13.71875 
z
" id="DejaVuSerif-116"/>
      <path d="M 4.109375 0 
L 4.109375 5.171875 
L 12.203125 5.171875 
L 12.203125 70.796875 
L 3.609375 70.796875 
L 3.609375 75.984375 
L 21.1875 75.984375 
L 21.1875 42.671875 
Q 23.6875 47.953125 27.65625 50.640625 
Q 31.640625 53.328125 36.921875 53.328125 
Q 45.515625 53.328125 49.5625 48.390625 
Q 53.609375 43.453125 53.609375 33.015625 
L 53.609375 5.171875 
L 61.625 5.171875 
L 61.625 0 
L 36.8125 0 
L 36.8125 5.171875 
L 44.578125 5.171875 
L 44.578125 30.171875 
Q 44.578125 39.703125 42.25 43.1875 
Q 39.9375 46.6875 33.984375 46.6875 
Q 27.734375 46.6875 24.453125 42.140625 
Q 21.1875 37.59375 21.1875 28.90625 
L 21.1875 5.171875 
L 29 5.171875 
L 29 0 
z
" id="DejaVuSerif-104"/>
     </defs>
     <g transform="translate(414.440469 626.988438)scale(0.22 -0.22)">
      <use xlink:href="#DejaVuSerif-107"/>
      <use x="58.845703" xlink:href="#DejaVuSerif-45"/>
      <use x="92.634766" xlink:href="#DejaVuSerif-109"/>
      <use x="187.458984" xlink:href="#DejaVuSerif-101"/>
      <use x="246.638672" xlink:href="#DejaVuSerif-114"/>
      <use x="294.441406" xlink:href="#DejaVuSerif-32"/>
      <use x="326.228516" xlink:href="#DejaVuSerif-108"/>
      <use x="358.210938" xlink:href="#DejaVuSerif-101"/>
      <use x="417.390625" xlink:href="#DejaVuSerif-110"/>
      <use x="481.794922" xlink:href="#DejaVuSerif-103"/>
      <use x="545.808594" xlink:href="#DejaVuSerif-116"/>
      <use x="585.994141" xlink:href="#DejaVuSerif-104"/>
     </g>
    </g>
   </g>
   <g id="matplotlib.axis_2">
    <g id="ytick_1">
     <g id="line2d_8">
      <defs>
       <path d="M 0 0 
L -3.5 0 
" id="m8ca68d0aee" style="stroke:#000000;stroke-width:0.8;"/>
      </defs>
      <g>
       <use style="stroke:#000000;stroke-width:0.8;" x="67.486875" xlink:href="#m8ca68d0aee" y="479.281877"/>
      </g>
     </g>
     <g id="text_9">
      <!-- 20 -->
      <defs>
       <path d="M 31.78125 3.421875 
Q 39.265625 3.421875 42.96875 11.625 
Q 46.6875 19.828125 46.6875 36.375 
Q 46.6875 52.984375 42.96875 61.1875 
Q 39.265625 69.390625 31.78125 69.390625 
Q 24.3125 69.390625 20.59375 61.1875 
Q 16.890625 52.984375 16.890625 36.375 
Q 16.890625 19.828125 20.59375 11.625 
Q 24.3125 3.421875 31.78125 3.421875 
z
M 31.78125 -1.421875 
Q 19.921875 -1.421875 13.25 8.53125 
Q 6.59375 18.5 6.59375 36.375 
Q 6.59375 54.296875 13.25 64.25 
Q 19.921875 74.21875 31.78125 74.21875 
Q 43.703125 74.21875 50.34375 64.25 
Q 56.984375 54.296875 56.984375 36.375 
Q 56.984375 18.5 50.34375 8.53125 
Q 43.703125 -1.421875 31.78125 -1.421875 
z
" id="DejaVuSerif-48"/>
      </defs>
      <g transform="translate(32.491875 487.640159)scale(0.22 -0.22)">
       <use xlink:href="#DejaVuSerif-50"/>
       <use x="63.623047" xlink:href="#DejaVuSerif-48"/>
      </g>
     </g>
    </g>
    <g id="ytick_2">
     <g id="line2d_9">
      <g>
       <use style="stroke:#000000;stroke-width:0.8;" x="67.486875" xlink:href="#m8ca68d0aee" y="359.389675"/>
      </g>
     </g>
     <g id="text_10">
      <!-- 40 -->
      <g transform="translate(32.491875 367.747956)scale(0.22 -0.22)">
       <use xlink:href="#DejaVuSerif-52"/>
       <use x="63.623047" xlink:href="#DejaVuSerif-48"/>
      </g>
     </g>
    </g>
    <g id="ytick_3">
     <g id="line2d_10">
      <g>
       <use style="stroke:#000000;stroke-width:0.8;" x="67.486875" xlink:href="#m8ca68d0aee" y="239.497472"/>
      </g>
     </g>
     <g id="text_11">
      <!-- 60 -->
      <g transform="translate(32.491875 247.855753)scale(0.22 -0.22)">
       <use xlink:href="#DejaVuSerif-54"/>
       <use x="63.623047" xlink:href="#DejaVuSerif-48"/>
      </g>
     </g>
    </g>
    <g id="ytick_4">
     <g id="line2d_11">
      <g>
       <use style="stroke:#000000;stroke-width:0.8;" x="67.486875" xlink:href="#m8ca68d0aee" y="119.605269"/>
      </g>
     </g>
     <g id="text_12">
      <!-- 80 -->
      <defs>
       <path d="M 46.578125 19.921875 
Q 46.578125 27.734375 42.6875 32.046875 
Q 38.8125 36.375 31.78125 36.375 
Q 24.75 36.375 20.875 32.046875 
Q 17 27.734375 17 19.921875 
Q 17 12.0625 20.875 7.734375 
Q 24.75 3.421875 31.78125 3.421875 
Q 38.8125 3.421875 42.6875 7.734375 
Q 46.578125 12.0625 46.578125 19.921875 
z
M 44.578125 55.328125 
Q 44.578125 61.96875 41.203125 65.671875 
Q 37.84375 69.390625 31.78125 69.390625 
Q 25.78125 69.390625 22.390625 65.671875 
Q 19 61.96875 19 55.328125 
Q 19 48.640625 22.390625 44.921875 
Q 25.78125 41.21875 31.78125 41.21875 
Q 37.84375 41.21875 41.203125 44.921875 
Q 44.578125 48.640625 44.578125 55.328125 
z
M 39.3125 38.8125 
Q 47.609375 37.703125 52.25 32.6875 
Q 56.890625 27.6875 56.890625 19.921875 
Q 56.890625 9.671875 50.390625 4.125 
Q 43.890625 -1.421875 31.78125 -1.421875 
Q 19.734375 -1.421875 13.203125 4.125 
Q 6.6875 9.671875 6.6875 19.921875 
Q 6.6875 27.6875 11.328125 32.6875 
Q 15.96875 37.703125 24.3125 38.8125 
Q 16.9375 40.140625 13 44.40625 
Q 9.078125 48.6875 9.078125 55.328125 
Q 9.078125 64.109375 15.125 69.15625 
Q 21.1875 74.21875 31.78125 74.21875 
Q 42.390625 74.21875 48.4375 69.15625 
Q 54.5 64.109375 54.5 55.328125 
Q 54.5 48.6875 50.5625 44.40625 
Q 46.625 40.140625 39.3125 38.8125 
z
" id="DejaVuSerif-56"/>
      </defs>
      <g transform="translate(32.491875 127.96355)scale(0.22 -0.22)">
       <use xlink:href="#DejaVuSerif-56"/>
       <use x="63.623047" xlink:href="#DejaVuSerif-48"/>
      </g>
     </g>
    </g>
    <g id="text_13">
     <!-- f1 score (%) -->
     <defs>
      <path d="M 43.015625 63.71875 
L 38.28125 63.71875 
Q 38.234375 67.390625 36.203125 69.28125 
Q 34.1875 71.1875 30.328125 71.1875 
Q 25.296875 71.1875 23.234375 68.421875 
Q 21.1875 65.671875 21.1875 58.59375 
L 21.1875 51.90625 
L 35.6875 51.90625 
L 35.6875 46.6875 
L 21.1875 46.6875 
L 21.1875 5.171875 
L 32.71875 5.171875 
L 32.71875 0 
L 3.609375 0 
L 3.609375 5.171875 
L 12.203125 5.171875 
L 12.203125 46.6875 
L 3.609375 46.6875 
L 3.609375 51.90625 
L 12.203125 51.90625 
L 12.203125 58.40625 
Q 12.203125 67.09375 16.71875 71.53125 
Q 21.234375 75.984375 29.984375 75.984375 
Q 33.25 75.984375 36.515625 75.390625 
Q 39.796875 74.8125 43.015625 73.578125 
z
" id="DejaVuSerif-102"/>
      <path d="M 5.609375 2.875 
L 5.609375 14.984375 
L 10.796875 14.984375 
Q 10.984375 9.1875 14.421875 6.296875 
Q 17.875 3.421875 24.609375 3.421875 
Q 30.671875 3.421875 33.84375 5.6875 
Q 37.015625 7.953125 37.015625 12.3125 
Q 37.015625 15.71875 34.6875 17.8125 
Q 32.375 19.921875 24.90625 22.3125 
L 18.40625 24.515625 
Q 11.71875 26.65625 8.71875 29.875 
Q 5.71875 33.109375 5.71875 38.09375 
Q 5.71875 45.21875 10.9375 49.265625 
Q 16.15625 53.328125 25.390625 53.328125 
Q 29.5 53.328125 34.03125 52.25 
Q 38.578125 51.171875 43.40625 49.125 
L 43.40625 37.796875 
L 38.234375 37.796875 
Q 38.03125 42.828125 34.703125 45.65625 
Q 31.390625 48.484375 25.6875 48.484375 
Q 20.015625 48.484375 17.109375 46.484375 
Q 14.203125 44.484375 14.203125 40.484375 
Q 14.203125 37.203125 16.40625 35.21875 
Q 18.609375 33.25 25.203125 31.203125 
L 32.328125 29 
Q 39.703125 26.703125 42.9375 23.265625 
Q 46.1875 19.828125 46.1875 14.40625 
Q 46.1875 7.03125 40.546875 2.796875 
Q 34.90625 -1.421875 25 -1.421875 
Q 19.96875 -1.421875 15.1875 -0.34375 
Q 10.40625 0.734375 5.609375 2.875 
z
" id="DejaVuSerif-115"/>
      <path d="M 51.421875 15.578125 
Q 49.515625 7.28125 44.09375 2.921875 
Q 38.671875 -1.421875 30.078125 -1.421875 
Q 18.75 -1.421875 11.859375 6.078125 
Q 4.984375 13.578125 4.984375 25.984375 
Q 4.984375 38.421875 11.859375 45.875 
Q 18.75 53.328125 30.078125 53.328125 
Q 35.015625 53.328125 39.890625 52.171875 
Q 44.78125 51.03125 49.703125 48.6875 
L 49.703125 35.40625 
L 44.484375 35.40625 
Q 43.453125 42.234375 40.015625 45.359375 
Q 36.578125 48.484375 30.171875 48.484375 
Q 22.90625 48.484375 19.1875 42.84375 
Q 15.484375 37.203125 15.484375 25.984375 
Q 15.484375 14.75 19.171875 9.078125 
Q 22.859375 3.421875 30.171875 3.421875 
Q 35.984375 3.421875 39.453125 6.4375 
Q 42.921875 9.46875 44.1875 15.578125 
z
" id="DejaVuSerif-99"/>
      <path d="M 30.078125 3.421875 
Q 37.3125 3.421875 40.984375 9.125 
Q 44.671875 14.84375 44.671875 25.984375 
Q 44.671875 37.109375 40.984375 42.796875 
Q 37.3125 48.484375 30.078125 48.484375 
Q 22.859375 48.484375 19.171875 42.796875 
Q 15.484375 37.109375 15.484375 25.984375 
Q 15.484375 14.84375 19.1875 9.125 
Q 22.90625 3.421875 30.078125 3.421875 
z
M 30.078125 -1.421875 
Q 18.75 -1.421875 11.859375 6.078125 
Q 4.984375 13.578125 4.984375 25.984375 
Q 4.984375 38.375 11.84375 45.84375 
Q 18.703125 53.328125 30.078125 53.328125 
Q 41.453125 53.328125 48.3125 45.84375 
Q 55.171875 38.375 55.171875 25.984375 
Q 55.171875 13.578125 48.3125 6.078125 
Q 41.453125 -1.421875 30.078125 -1.421875 
z
" id="DejaVuSerif-111"/>
      <path d="M 31.890625 -15.578125 
Q 20.015625 -10.25 13.953125 1.296875 
Q 7.90625 12.84375 7.90625 30.171875 
Q 7.90625 47.5625 13.953125 59.109375 
Q 20.015625 70.65625 31.890625 75.984375 
L 31.890625 71.1875 
Q 24.359375 66.015625 21.09375 56.609375 
Q 17.828125 47.21875 17.828125 30.171875 
Q 17.828125 13.1875 21.09375 3.78125 
Q 24.359375 -5.609375 31.890625 -10.796875 
z
" id="DejaVuSerif-40"/>
      <path d="M 22.40625 69.671875 
Q 18.109375 69.671875 15.6875 65.625 
Q 13.28125 61.578125 13.28125 54.296875 
Q 13.28125 47.125 15.75 43.015625 
Q 18.21875 38.921875 22.40625 38.921875 
Q 26.5625 38.921875 28.96875 43 
Q 31.390625 47.078125 31.390625 54.296875 
Q 31.390625 61.53125 28.96875 65.59375 
Q 26.5625 69.671875 22.40625 69.671875 
z
M 72.703125 33.890625 
Q 68.453125 33.890625 66.03125 29.78125 
Q 63.625 25.6875 63.625 18.40625 
Q 63.625 11.234375 66.0625 7.15625 
Q 68.5 3.078125 72.703125 3.078125 
Q 76.90625 3.078125 79.296875 7.15625 
Q 81.6875 11.234375 81.6875 18.40625 
Q 81.6875 25.640625 79.265625 29.765625 
Q 76.859375 33.890625 72.703125 33.890625 
z
M 72.703125 38.28125 
Q 80.421875 38.28125 84.953125 32.90625 
Q 89.5 27.546875 89.5 18.40625 
Q 89.5 9.28125 84.9375 3.921875 
Q 80.375 -1.421875 72.703125 -1.421875 
Q 64.890625 -1.421875 60.34375 3.921875 
Q 55.8125 9.28125 55.8125 18.40625 
Q 55.8125 27.59375 60.375 32.9375 
Q 64.9375 38.28125 72.703125 38.28125 
z
M 66.609375 74.21875 
L 74.03125 74.21875 
L 28.421875 -1.421875 
L 21 -1.421875 
z
M 22.3125 74.21875 
Q 30.03125 74.21875 34.609375 68.875 
Q 39.203125 63.53125 39.203125 54.390625 
Q 39.203125 45.171875 34.640625 39.84375 
Q 30.078125 34.515625 22.3125 34.515625 
Q 14.546875 34.515625 10.03125 39.859375 
Q 5.515625 45.21875 5.515625 54.390625 
Q 5.515625 63.484375 10.046875 68.84375 
Q 14.59375 74.21875 22.3125 74.21875 
z
" id="DejaVuSerif-37"/>
      <path d="M 7.078125 -15.578125 
L 7.078125 -10.796875 
Q 14.59375 -5.609375 17.890625 3.78125 
Q 21.1875 13.1875 21.1875 30.171875 
Q 21.1875 47.21875 17.890625 56.609375 
Q 14.59375 66.015625 7.078125 71.1875 
L 7.078125 75.984375 
Q 19 70.65625 25.046875 59.109375 
Q 31.109375 47.5625 31.109375 30.171875 
Q 31.109375 12.84375 25.046875 1.296875 
Q 19 -10.25 7.078125 -15.578125 
z
" id="DejaVuSerif-41"/>
     </defs>
     <g transform="translate(23.916562 359.8825)rotate(-90)scale(0.22 -0.22)">
      <use xlink:href="#DejaVuSerif-102"/>
      <use x="37.011719" xlink:href="#DejaVuSerif-49"/>
      <use x="100.634766" xlink:href="#DejaVuSerif-32"/>
      <use x="132.421875" xlink:href="#DejaVuSerif-115"/>
      <use x="183.740234" xlink:href="#DejaVuSerif-99"/>
      <use x="239.746094" xlink:href="#DejaVuSerif-111"/>
      <use x="299.951172" xlink:href="#DejaVuSerif-114"/>
      <use x="347.753906" xlink:href="#DejaVuSerif-101"/>
      <use x="406.933594" xlink:href="#DejaVuSerif-32"/>
      <use x="438.720703" xlink:href="#DejaVuSerif-40"/>
      <use x="477.734375" xlink:href="#DejaVuSerif-37"/>
      <use x="572.753906" xlink:href="#DejaVuSerif-41"/>
     </g>
    </g>
   </g>
   <g id="line2d_12">
    <path clip-path="url(#pa55d1c05a2)" d="M 127.272589 296.417674 
L 246.844018 169.40208 
L 366.415446 112.265304 
L 485.986875 85.016035 
L 605.558304 70.943089 
L 725.129732 66.099563 
L 844.701161 65.783187 
" style="fill:none;stroke:#a9a9a9;stroke-linecap:square;stroke-width:1.5;"/>
    <defs>
     <path d="M 0 3 
C 0.795609 3 1.55874 2.683901 2.12132 2.12132 
C 2.683901 1.55874 3 0.795609 3 0 
C 3 -0.795609 2.683901 -1.55874 2.12132 -2.12132 
C 1.55874 -2.683901 0.795609 -3 0 -3 
C -0.795609 -3 -1.55874 -2.683901 -2.12132 -2.12132 
C -2.683901 -1.55874 -3 -0.795609 -3 0 
C -3 0.795609 -2.683901 1.55874 -2.12132 2.12132 
C -1.55874 2.683901 -0.795609 3 0 3 
z
" id="me50fada410" style="stroke:#a9a9a9;"/>
    </defs>
    <g clip-path="url(#pa55d1c05a2)">
     <use style="fill:#a9a9a9;stroke:#a9a9a9;" x="127.272589" xlink:href="#me50fada410" y="296.417674"/>
     <use style="fill:#a9a9a9;stroke:#a9a9a9;" x="246.844018" xlink:href="#me50fada410" y="169.40208"/>
     <use style="fill:#a9a9a9;stroke:#a9a9a9;" x="366.415446" xlink:href="#me50fada410" y="112.265304"/>
     <use style="fill:#a9a9a9;stroke:#a9a9a9;" x="485.986875" xlink:href="#me50fada410" y="85.016035"/>
     <use style="fill:#a9a9a9;stroke:#a9a9a9;" x="605.558304" xlink:href="#me50fada410" y="70.943089"/>
     <use style="fill:#a9a9a9;stroke:#a9a9a9;" x="725.129732" xlink:href="#me50fada410" y="66.099563"/>
     <use style="fill:#a9a9a9;stroke:#a9a9a9;" x="844.701161" xlink:href="#me50fada410" y="65.783187"/>
    </g>
   </g>
   <g id="line2d_13">
    <path clip-path="url(#pa55d1c05a2)" d="M 127.272589 412.000141 
L 246.844018 155.627524 
L 366.415446 67.323565 
L 485.986875 61.067133 
L 605.558304 57.341032 
L 725.129732 59.046568 
L 844.701161 63.520459 
" style="fill:none;stroke:#808080;stroke-dasharray:4.5,1.5,1.5,1.5,1.5,1.5;stroke-dashoffset:0;stroke-width:1.5;"/>
    <defs>
     <path d="M -1.5 3 
L 0 1.5 
L 1.5 3 
L 3 1.5 
L 1.5 0 
L 3 -1.5 
L 1.5 -3 
L 0 -1.5 
L -1.5 -3 
L -3 -1.5 
L -1.5 0 
L -3 1.5 
z
" id="m063f408242" style="stroke:#808080;stroke-linejoin:miter;"/>
    </defs>
    <g clip-path="url(#pa55d1c05a2)">
     <use style="fill:#808080;stroke:#808080;stroke-linejoin:miter;" x="127.272589" xlink:href="#m063f408242" y="412.000141"/>
     <use style="fill:#808080;stroke:#808080;stroke-linejoin:miter;" x="246.844018" xlink:href="#m063f408242" y="155.627524"/>
     <use style="fill:#808080;stroke:#808080;stroke-linejoin:miter;" x="366.415446" xlink:href="#m063f408242" y="67.323565"/>
     <use style="fill:#808080;stroke:#808080;stroke-linejoin:miter;" x="485.986875" xlink:href="#m063f408242" y="61.067133"/>
     <use style="fill:#808080;stroke:#808080;stroke-linejoin:miter;" x="605.558304" xlink:href="#m063f408242" y="57.341032"/>
     <use style="fill:#808080;stroke:#808080;stroke-linejoin:miter;" x="725.129732" xlink:href="#m063f408242" y="59.046568"/>
     <use style="fill:#808080;stroke:#808080;stroke-linejoin:miter;" x="844.701161" xlink:href="#m063f408242" y="63.520459"/>
    </g>
   </g>
   <g id="line2d_14">
    <path clip-path="url(#pa55d1c05a2)" d="M 127.272589 544.888993 
L 246.844018 538.842922 
L 366.415446 390.630438 
L 485.986875 243.65133 
L 605.558304 132.243372 
L 725.129732 90.524808 
L 844.701161 132.610234 
" style="fill:none;stroke:#d3d3d3;stroke-dasharray:1.5,1.5;stroke-dashoffset:0;stroke-width:1.5;"/>
    <defs>
     <path d="M -3 3 
L 3 3 
L 3 -3 
L -3 -3 
z
" id="m2feffaa4e4" style="stroke:#d3d3d3;stroke-linejoin:miter;"/>
    </defs>
    <g clip-path="url(#pa55d1c05a2)">
     <use style="fill:#d3d3d3;stroke:#d3d3d3;stroke-linejoin:miter;" x="127.272589" xlink:href="#m2feffaa4e4" y="544.888993"/>
     <use style="fill:#d3d3d3;stroke:#d3d3d3;stroke-linejoin:miter;" x="246.844018" xlink:href="#m2feffaa4e4" y="538.842922"/>
     <use style="fill:#d3d3d3;stroke:#d3d3d3;stroke-linejoin:miter;" x="366.415446" xlink:href="#m2feffaa4e4" y="390.630438"/>
     <use style="fill:#d3d3d3;stroke:#d3d3d3;stroke-linejoin:miter;" x="485.986875" xlink:href="#m2feffaa4e4" y="243.65133"/>
     <use style="fill:#d3d3d3;stroke:#d3d3d3;stroke-linejoin:miter;" x="605.558304" xlink:href="#m2feffaa4e4" y="132.243372"/>
     <use style="fill:#d3d3d3;stroke:#d3d3d3;stroke-linejoin:miter;" x="725.129732" xlink:href="#m2feffaa4e4" y="90.524808"/>
     <use style="fill:#d3d3d3;stroke:#d3d3d3;stroke-linejoin:miter;" x="844.701161" xlink:href="#m2feffaa4e4" y="132.610234"/>
    </g>
   </g>
   <g id="line2d_15">
    <path clip-path="url(#pa55d1c05a2)" d="M 95.386875 314.373592 
L 95.386875 336.796007 
" style="fill:none;stroke:#313131;stroke-linecap:square;stroke-width:1.5;"/>
   </g>
   <g id="line2d_16">
    <path clip-path="url(#pa55d1c05a2)" d="M 95.386875 283.37832 
L 95.386875 251.722616 
" style="fill:none;stroke:#313131;stroke-linecap:square;stroke-width:1.5;"/>
   </g>
   <g id="line2d_17">
    <path clip-path="url(#pa55d1c05a2)" d="M 87.574875 336.796007 
L 103.198875 336.796007 
" style="fill:none;stroke:#313131;stroke-linecap:square;stroke-width:1.5;"/>
   </g>
   <g id="line2d_18">
    <path clip-path="url(#pa55d1c05a2)" d="M 87.574875 251.722616 
L 103.198875 251.722616 
" style="fill:none;stroke:#313131;stroke-linecap:square;stroke-width:1.5;"/>
   </g>
   <g id="line2d_19"/>
   <g id="line2d_20">
    <path clip-path="url(#pa55d1c05a2)" d="M 127.272589 427.04611 
L 127.272589 440.85945 
" style="fill:none;stroke:#313131;stroke-linecap:square;stroke-width:1.5;"/>
   </g>
   <g id="line2d_21">
    <path clip-path="url(#pa55d1c05a2)" d="M 127.272589 398.822818 
L 127.272589 385.882708 
" style="fill:none;stroke:#313131;stroke-linecap:square;stroke-width:1.5;"/>
   </g>
   <g id="line2d_22">
    <path clip-path="url(#pa55d1c05a2)" d="M 119.460589 440.85945 
L 135.084589 440.85945 
" style="fill:none;stroke:#313131;stroke-linecap:square;stroke-width:1.5;"/>
   </g>
   <g id="line2d_23">
    <path clip-path="url(#pa55d1c05a2)" d="M 119.460589 385.882708 
L 135.084589 385.882708 
" style="fill:none;stroke:#313131;stroke-linecap:square;stroke-width:1.5;"/>
   </g>
   <g id="line2d_24"/>
   <g id="line2d_25">
    <path clip-path="url(#pa55d1c05a2)" d="M 159.158304 550.223202 
L 159.158304 552.035455 
" style="fill:none;stroke:#313131;stroke-linecap:square;stroke-width:1.5;"/>
   </g>
   <g id="line2d_26">
    <path clip-path="url(#pa55d1c05a2)" d="M 159.158304 540.322558 
L 159.158304 539.227979 
" style="fill:none;stroke:#313131;stroke-linecap:square;stroke-width:1.5;"/>
   </g>
   <g id="line2d_27">
    <path clip-path="url(#pa55d1c05a2)" d="M 151.346304 552.035455 
L 166.970304 552.035455 
" style="fill:none;stroke:#313131;stroke-linecap:square;stroke-width:1.5;"/>
   </g>
   <g id="line2d_28">
    <path clip-path="url(#pa55d1c05a2)" d="M 151.346304 539.227979 
L 166.970304 539.227979 
" style="fill:none;stroke:#313131;stroke-linecap:square;stroke-width:1.5;"/>
   </g>
   <g id="line2d_29"/>
   <g id="line2d_30">
    <path clip-path="url(#pa55d1c05a2)" d="M 214.958304 198.297637 
L 214.958304 215.628355 
" style="fill:none;stroke:#313131;stroke-linecap:square;stroke-width:1.5;"/>
   </g>
   <g id="line2d_31">
    <path clip-path="url(#pa55d1c05a2)" d="M 214.958304 148.85617 
L 214.958304 127.687889 
" style="fill:none;stroke:#313131;stroke-linecap:square;stroke-width:1.5;"/>
   </g>
   <g id="line2d_32">
    <path clip-path="url(#pa55d1c05a2)" d="M 207.146304 215.628355 
L 222.770304 215.628355 
" style="fill:none;stroke:#313131;stroke-linecap:square;stroke-width:1.5;"/>
   </g>
   <g id="line2d_33">
    <path clip-path="url(#pa55d1c05a2)" d="M 207.146304 127.687889 
L 222.770304 127.687889 
" style="fill:none;stroke:#313131;stroke-linecap:square;stroke-width:1.5;"/>
   </g>
   <g id="line2d_34"/>
   <g id="line2d_35">
    <path clip-path="url(#pa55d1c05a2)" d="M 246.844018 191.67866 
L 246.844018 220.18353 
" style="fill:none;stroke:#313131;stroke-linecap:square;stroke-width:1.5;"/>
   </g>
   <g id="line2d_36">
    <path clip-path="url(#pa55d1c05a2)" d="M 246.844018 124.988384 
L 246.844018 111.535601 
" style="fill:none;stroke:#313131;stroke-linecap:square;stroke-width:1.5;"/>
   </g>
   <g id="line2d_37">
    <path clip-path="url(#pa55d1c05a2)" d="M 239.032018 220.18353 
L 254.656018 220.18353 
" style="fill:none;stroke:#313131;stroke-linecap:square;stroke-width:1.5;"/>
   </g>
   <g id="line2d_38">
    <path clip-path="url(#pa55d1c05a2)" d="M 239.032018 111.535601 
L 254.656018 111.535601 
" style="fill:none;stroke:#313131;stroke-linecap:square;stroke-width:1.5;"/>
   </g>
   <g id="line2d_39"/>
   <g id="line2d_40">
    <path clip-path="url(#pa55d1c05a2)" d="M 278.729732 542.644587 
L 278.729732 548.76895 
" style="fill:none;stroke:#313131;stroke-linecap:square;stroke-width:1.5;"/>
   </g>
   <g id="line2d_41">
    <path clip-path="url(#pa55d1c05a2)" d="M 278.729732 533.809013 
L 278.729732 529.573738 
" style="fill:none;stroke:#313131;stroke-linecap:square;stroke-width:1.5;"/>
   </g>
   <g id="line2d_42">
    <path clip-path="url(#pa55d1c05a2)" d="M 270.917732 548.76895 
L 286.541732 548.76895 
" style="fill:none;stroke:#313131;stroke-linecap:square;stroke-width:1.5;"/>
   </g>
   <g id="line2d_43">
    <path clip-path="url(#pa55d1c05a2)" d="M 270.917732 529.573738 
L 286.541732 529.573738 
" style="fill:none;stroke:#313131;stroke-linecap:square;stroke-width:1.5;"/>
   </g>
   <g id="line2d_44"/>
   <g id="line2d_45">
    <path clip-path="url(#pa55d1c05a2)" d="M 334.529732 137.521292 
L 334.529732 153.677977 
" style="fill:none;stroke:#313131;stroke-linecap:square;stroke-width:1.5;"/>
   </g>
   <g id="line2d_46">
    <path clip-path="url(#pa55d1c05a2)" d="M 334.529732 88.324158 
L 334.529732 71.187264 
" style="fill:none;stroke:#313131;stroke-linecap:square;stroke-width:1.5;"/>
   </g>
   <g id="line2d_47">
    <path clip-path="url(#pa55d1c05a2)" d="M 326.717732 153.677977 
L 342.341732 153.677977 
" style="fill:none;stroke:#313131;stroke-linecap:square;stroke-width:1.5;"/>
   </g>
   <g id="line2d_48">
    <path clip-path="url(#pa55d1c05a2)" d="M 326.717732 71.187264 
L 342.341732 71.187264 
" style="fill:none;stroke:#313131;stroke-linecap:square;stroke-width:1.5;"/>
   </g>
   <g id="line2d_49"/>
   <g id="line2d_50">
    <path clip-path="url(#pa55d1c05a2)" d="M 366.415446 77.029195 
L 366.415446 99.015878 
" style="fill:none;stroke:#313131;stroke-linecap:square;stroke-width:1.5;"/>
   </g>
   <g id="line2d_51">
    <path clip-path="url(#pa55d1c05a2)" d="M 366.415446 59.606348 
L 366.415446 38.908594 
" style="fill:none;stroke:#313131;stroke-linecap:square;stroke-width:1.5;"/>
   </g>
   <g id="line2d_52">
    <path clip-path="url(#pa55d1c05a2)" d="M 358.603446 99.015878 
L 374.227446 99.015878 
" style="fill:none;stroke:#313131;stroke-linecap:square;stroke-width:1.5;"/>
   </g>
   <g id="line2d_53">
    <path clip-path="url(#pa55d1c05a2)" d="M 358.603446 38.908594 
L 374.227446 38.908594 
" style="fill:none;stroke:#313131;stroke-linecap:square;stroke-width:1.5;"/>
   </g>
   <g id="line2d_54"/>
   <g id="line2d_55">
    <path clip-path="url(#pa55d1c05a2)" d="M 398.301161 408.980146 
L 398.301161 418.789155 
" style="fill:none;stroke:#313131;stroke-linecap:square;stroke-width:1.5;"/>
   </g>
   <g id="line2d_56">
    <path clip-path="url(#pa55d1c05a2)" d="M 398.301161 373.688331 
L 398.301161 364.000913 
" style="fill:none;stroke:#313131;stroke-linecap:square;stroke-width:1.5;"/>
   </g>
   <g id="line2d_57">
    <path clip-path="url(#pa55d1c05a2)" d="M 390.489161 418.789155 
L 406.113161 418.789155 
" style="fill:none;stroke:#313131;stroke-linecap:square;stroke-width:1.5;"/>
   </g>
   <g id="line2d_58">
    <path clip-path="url(#pa55d1c05a2)" d="M 390.489161 364.000913 
L 406.113161 364.000913 
" style="fill:none;stroke:#313131;stroke-linecap:square;stroke-width:1.5;"/>
   </g>
   <g id="line2d_59"/>
   <g id="line2d_60">
    <path clip-path="url(#pa55d1c05a2)" d="M 454.101161 103.200927 
L 454.101161 126.346928 
" style="fill:none;stroke:#313131;stroke-linecap:square;stroke-width:1.5;"/>
   </g>
   <g id="line2d_61">
    <path clip-path="url(#pa55d1c05a2)" d="M 454.101161 69.470364 
L 454.101161 48.131071 
" style="fill:none;stroke:#313131;stroke-linecap:square;stroke-width:1.5;"/>
   </g>
   <g id="line2d_62">
    <path clip-path="url(#pa55d1c05a2)" d="M 446.289161 126.346928 
L 461.913161 126.346928 
" style="fill:none;stroke:#313131;stroke-linecap:square;stroke-width:1.5;"/>
   </g>
   <g id="line2d_63">
    <path clip-path="url(#pa55d1c05a2)" d="M 446.289161 48.131071 
L 461.913161 48.131071 
" style="fill:none;stroke:#313131;stroke-linecap:square;stroke-width:1.5;"/>
   </g>
   <g id="line2d_64"/>
   <g id="line2d_65">
    <path clip-path="url(#pa55d1c05a2)" d="M 485.986875 67.496371 
L 485.986875 80.649197 
" style="fill:none;stroke:#313131;stroke-linecap:square;stroke-width:1.5;"/>
   </g>
   <g id="line2d_66">
    <path clip-path="url(#pa55d1c05a2)" d="M 485.986875 51.581345 
L 485.986875 36.602974 
" style="fill:none;stroke:#313131;stroke-linecap:square;stroke-width:1.5;"/>
   </g>
   <g id="line2d_67">
    <path clip-path="url(#pa55d1c05a2)" d="M 478.174875 80.649197 
L 493.798875 80.649197 
" style="fill:none;stroke:#313131;stroke-linecap:square;stroke-width:1.5;"/>
   </g>
   <g id="line2d_68">
    <path clip-path="url(#pa55d1c05a2)" d="M 478.174875 36.602974 
L 493.798875 36.602974 
" style="fill:none;stroke:#313131;stroke-linecap:square;stroke-width:1.5;"/>
   </g>
   <g id="line2d_69">
    <defs>
     <path d="M -0 3.535534 
L 2.12132 0 
L -0 -3.535534 
L -2.12132 -0 
z
" id="m7cffb5bb04" style="stroke:#313131;stroke-linejoin:miter;"/>
    </defs>
    <g clip-path="url(#pa55d1c05a2)">
     <use style="fill:#313131;stroke:#313131;stroke-linejoin:miter;" x="485.986875" xlink:href="#m7cffb5bb04" y="92.638633"/>
    </g>
   </g>
   <g id="line2d_70">
    <path clip-path="url(#pa55d1c05a2)" d="M 517.872589 280.531574 
L 517.872589 289.422188 
" style="fill:none;stroke:#313131;stroke-linecap:square;stroke-width:1.5;"/>
   </g>
   <g id="line2d_71">
    <path clip-path="url(#pa55d1c05a2)" d="M 517.872589 219.533625 
L 517.872589 202.901162 
" style="fill:none;stroke:#313131;stroke-linecap:square;stroke-width:1.5;"/>
   </g>
   <g id="line2d_72">
    <path clip-path="url(#pa55d1c05a2)" d="M 510.060589 289.422188 
L 525.684589 289.422188 
" style="fill:none;stroke:#313131;stroke-linecap:square;stroke-width:1.5;"/>
   </g>
   <g id="line2d_73">
    <path clip-path="url(#pa55d1c05a2)" d="M 510.060589 202.901162 
L 525.684589 202.901162 
" style="fill:none;stroke:#313131;stroke-linecap:square;stroke-width:1.5;"/>
   </g>
   <g id="line2d_74"/>
   <g id="line2d_75">
    <path clip-path="url(#pa55d1c05a2)" d="M 573.672589 84.838324 
L 573.672589 111.770368 
" style="fill:none;stroke:#313131;stroke-linecap:square;stroke-width:1.5;"/>
   </g>
   <g id="line2d_76">
    <path clip-path="url(#pa55d1c05a2)" d="M 573.672589 56.494751 
L 573.672589 42.367023 
" style="fill:none;stroke:#313131;stroke-linecap:square;stroke-width:1.5;"/>
   </g>
   <g id="line2d_77">
    <path clip-path="url(#pa55d1c05a2)" d="M 565.860589 111.770368 
L 581.484589 111.770368 
" style="fill:none;stroke:#313131;stroke-linecap:square;stroke-width:1.5;"/>
   </g>
   <g id="line2d_78">
    <path clip-path="url(#pa55d1c05a2)" d="M 565.860589 42.367023 
L 581.484589 42.367023 
" style="fill:none;stroke:#313131;stroke-linecap:square;stroke-width:1.5;"/>
   </g>
   <g id="line2d_79"/>
   <g id="line2d_80">
    <path clip-path="url(#pa55d1c05a2)" d="M 605.558304 66.815285 
L 605.558304 88.994493 
" style="fill:none;stroke:#313131;stroke-linecap:square;stroke-width:1.5;"/>
   </g>
   <g id="line2d_81">
    <path clip-path="url(#pa55d1c05a2)" d="M 605.558304 45.380495 
L 605.558304 37.755784 
" style="fill:none;stroke:#313131;stroke-linecap:square;stroke-width:1.5;"/>
   </g>
   <g id="line2d_82">
    <path clip-path="url(#pa55d1c05a2)" d="M 597.746304 88.994493 
L 613.370304 88.994493 
" style="fill:none;stroke:#313131;stroke-linecap:square;stroke-width:1.5;"/>
   </g>
   <g id="line2d_83">
    <path clip-path="url(#pa55d1c05a2)" d="M 597.746304 37.755784 
L 613.370304 37.755784 
" style="fill:none;stroke:#313131;stroke-linecap:square;stroke-width:1.5;"/>
   </g>
   <g id="line2d_84"/>
   <g id="line2d_85">
    <path clip-path="url(#pa55d1c05a2)" d="M 637.444018 169.997971 
L 637.444018 199.229726 
" style="fill:none;stroke:#313131;stroke-linecap:square;stroke-width:1.5;"/>
   </g>
   <g id="line2d_86">
    <path clip-path="url(#pa55d1c05a2)" d="M 637.444018 98.164982 
L 637.444018 80.53927 
" style="fill:none;stroke:#313131;stroke-linecap:square;stroke-width:1.5;"/>
   </g>
   <g id="line2d_87">
    <path clip-path="url(#pa55d1c05a2)" d="M 629.632018 199.229726 
L 645.256018 199.229726 
" style="fill:none;stroke:#313131;stroke-linecap:square;stroke-width:1.5;"/>
   </g>
   <g id="line2d_88">
    <path clip-path="url(#pa55d1c05a2)" d="M 629.632018 80.53927 
L 645.256018 80.53927 
" style="fill:none;stroke:#313131;stroke-linecap:square;stroke-width:1.5;"/>
   </g>
   <g id="line2d_89"/>
   <g id="line2d_90">
    <path clip-path="url(#pa55d1c05a2)" d="M 693.244018 76.229812 
L 693.244018 85.221769 
" style="fill:none;stroke:#313131;stroke-linecap:square;stroke-width:1.5;"/>
   </g>
   <g id="line2d_91">
    <path clip-path="url(#pa55d1c05a2)" d="M 693.244018 55.742499 
L 693.244018 33.144545 
" style="fill:none;stroke:#313131;stroke-linecap:square;stroke-width:1.5;"/>
   </g>
   <g id="line2d_92">
    <path clip-path="url(#pa55d1c05a2)" d="M 685.432018 85.221769 
L 701.056018 85.221769 
" style="fill:none;stroke:#313131;stroke-linecap:square;stroke-width:1.5;"/>
   </g>
   <g id="line2d_93">
    <path clip-path="url(#pa55d1c05a2)" d="M 685.432018 33.144545 
L 701.056018 33.144545 
" style="fill:none;stroke:#313131;stroke-linecap:square;stroke-width:1.5;"/>
   </g>
   <g id="line2d_94">
    <g clip-path="url(#pa55d1c05a2)">
     <use style="fill:#313131;stroke:#313131;stroke-linejoin:miter;" x="693.244018" xlink:href="#m7cffb5bb04" y="110.859333"/>
    </g>
   </g>
   <g id="line2d_95">
    <path clip-path="url(#pa55d1c05a2)" d="M 725.129732 69.899233 
L 725.129732 92.638633 
" style="fill:none;stroke:#313131;stroke-linecap:square;stroke-width:1.5;"/>
   </g>
   <g id="line2d_96">
    <path clip-path="url(#pa55d1c05a2)" d="M 725.129732 44.273974 
L 725.129732 37.755784 
" style="fill:none;stroke:#313131;stroke-linecap:square;stroke-width:1.5;"/>
   </g>
   <g id="line2d_97">
    <path clip-path="url(#pa55d1c05a2)" d="M 717.317732 92.638633 
L 732.941732 92.638633 
" style="fill:none;stroke:#313131;stroke-linecap:square;stroke-width:1.5;"/>
   </g>
   <g id="line2d_98">
    <path clip-path="url(#pa55d1c05a2)" d="M 717.317732 37.755784 
L 732.941732 37.755784 
" style="fill:none;stroke:#313131;stroke-linecap:square;stroke-width:1.5;"/>
   </g>
   <g id="line2d_99"/>
   <g id="line2d_100">
    <path clip-path="url(#pa55d1c05a2)" d="M 757.015446 117.191909 
L 757.015446 157.322117 
" style="fill:none;stroke:#313131;stroke-linecap:square;stroke-width:1.5;"/>
   </g>
   <g id="line2d_101">
    <path clip-path="url(#pa55d1c05a2)" d="M 757.015446 59.238144 
L 757.015446 52.474616 
" style="fill:none;stroke:#313131;stroke-linecap:square;stroke-width:1.5;"/>
   </g>
   <g id="line2d_102">
    <path clip-path="url(#pa55d1c05a2)" d="M 749.203446 157.322117 
L 764.827446 157.322117 
" style="fill:none;stroke:#313131;stroke-linecap:square;stroke-width:1.5;"/>
   </g>
   <g id="line2d_103">
    <path clip-path="url(#pa55d1c05a2)" d="M 749.203446 52.474616 
L 764.827446 52.474616 
" style="fill:none;stroke:#313131;stroke-linecap:square;stroke-width:1.5;"/>
   </g>
   <g id="line2d_104"/>
   <g id="line2d_105">
    <path clip-path="url(#pa55d1c05a2)" d="M 812.815446 77.191474 
L 812.815446 107.215193 
" style="fill:none;stroke:#313131;stroke-linecap:square;stroke-width:1.5;"/>
   </g>
   <g id="line2d_106">
    <path clip-path="url(#pa55d1c05a2)" d="M 812.815446 52.994264 
L 812.815446 40.061403 
" style="fill:none;stroke:#313131;stroke-linecap:square;stroke-width:1.5;"/>
   </g>
   <g id="line2d_107">
    <path clip-path="url(#pa55d1c05a2)" d="M 805.003446 107.215193 
L 820.627446 107.215193 
" style="fill:none;stroke:#313131;stroke-linecap:square;stroke-width:1.5;"/>
   </g>
   <g id="line2d_108">
    <path clip-path="url(#pa55d1c05a2)" d="M 805.003446 40.061403 
L 820.627446 40.061403 
" style="fill:none;stroke:#313131;stroke-linecap:square;stroke-width:1.5;"/>
   </g>
   <g id="line2d_109"/>
   <g id="line2d_110">
    <path clip-path="url(#pa55d1c05a2)" d="M 844.701161 77.563924 
L 844.701161 99.015878 
" style="fill:none;stroke:#313131;stroke-linecap:square;stroke-width:1.5;"/>
   </g>
   <g id="line2d_111">
    <path clip-path="url(#pa55d1c05a2)" d="M 844.701161 48.157269 
L 844.701161 38.908594 
" style="fill:none;stroke:#313131;stroke-linecap:square;stroke-width:1.5;"/>
   </g>
   <g id="line2d_112">
    <path clip-path="url(#pa55d1c05a2)" d="M 836.889161 99.015878 
L 852.513161 99.015878 
" style="fill:none;stroke:#313131;stroke-linecap:square;stroke-width:1.5;"/>
   </g>
   <g id="line2d_113">
    <path clip-path="url(#pa55d1c05a2)" d="M 836.889161 38.908594 
L 852.513161 38.908594 
" style="fill:none;stroke:#313131;stroke-linecap:square;stroke-width:1.5;"/>
   </g>
   <g id="line2d_114"/>
   <g id="line2d_115">
    <path clip-path="url(#pa55d1c05a2)" d="M 876.586875 152.162136 
L 876.586875 197.407656 
" style="fill:none;stroke:#313131;stroke-linecap:square;stroke-width:1.5;"/>
   </g>
   <g id="line2d_116">
    <path clip-path="url(#pa55d1c05a2)" d="M 876.586875 108.423962 
L 876.586875 94.010304 
" style="fill:none;stroke:#313131;stroke-linecap:square;stroke-width:1.5;"/>
   </g>
   <g id="line2d_117">
    <path clip-path="url(#pa55d1c05a2)" d="M 868.774875 197.407656 
L 884.398875 197.407656 
" style="fill:none;stroke:#313131;stroke-linecap:square;stroke-width:1.5;"/>
   </g>
   <g id="line2d_118">
    <path clip-path="url(#pa55d1c05a2)" d="M 868.774875 94.010304 
L 884.398875 94.010304 
" style="fill:none;stroke:#313131;stroke-linecap:square;stroke-width:1.5;"/>
   </g>
   <g id="line2d_119"/>
   <g id="line2d_120">
    <path clip-path="url(#pa55d1c05a2)" d="M 79.762875 298.565129 
L 111.010875 298.565129 
" style="fill:none;stroke:#313131;stroke-linecap:square;stroke-width:1.5;"/>
   </g>
   <g id="line2d_121">
    <path clip-path="url(#pa55d1c05a2)" d="M 111.648589 409.707589 
L 142.896589 409.707589 
" style="fill:none;stroke:#313131;stroke-linecap:square;stroke-width:1.5;"/>
   </g>
   <g id="line2d_122">
    <path clip-path="url(#pa55d1c05a2)" d="M 143.534304 543.36409 
L 174.782304 543.36409 
" style="fill:none;stroke:#313131;stroke-linecap:square;stroke-width:1.5;"/>
   </g>
   <g id="line2d_123">
    <path clip-path="url(#pa55d1c05a2)" d="M 199.334304 162.332506 
L 230.582304 162.332506 
" style="fill:none;stroke:#313131;stroke-linecap:square;stroke-width:1.5;"/>
   </g>
   <g id="line2d_124">
    <path clip-path="url(#pa55d1c05a2)" d="M 231.220018 143.222307 
L 262.468018 143.222307 
" style="fill:none;stroke:#313131;stroke-linecap:square;stroke-width:1.5;"/>
   </g>
   <g id="line2d_125">
    <path clip-path="url(#pa55d1c05a2)" d="M 263.105732 539.102836 
L 294.353732 539.102836 
" style="fill:none;stroke:#313131;stroke-linecap:square;stroke-width:1.5;"/>
   </g>
   <g id="line2d_126">
    <path clip-path="url(#pa55d1c05a2)" d="M 318.905732 110.50263 
L 350.153732 110.50263 
" style="fill:none;stroke:#313131;stroke-linecap:square;stroke-width:1.5;"/>
   </g>
   <g id="line2d_127">
    <path clip-path="url(#pa55d1c05a2)" d="M 350.791446 67.682919 
L 382.039446 67.682919 
" style="fill:none;stroke:#313131;stroke-linecap:square;stroke-width:1.5;"/>
   </g>
   <g id="line2d_128">
    <path clip-path="url(#pa55d1c05a2)" d="M 382.677161 388.727306 
L 413.925161 388.727306 
" style="fill:none;stroke:#313131;stroke-linecap:square;stroke-width:1.5;"/>
   </g>
   <g id="line2d_129">
    <path clip-path="url(#pa55d1c05a2)" d="M 438.477161 78.651039 
L 469.725161 78.651039 
" style="fill:none;stroke:#313131;stroke-linecap:square;stroke-width:1.5;"/>
   </g>
   <g id="line2d_130">
    <path clip-path="url(#pa55d1c05a2)" d="M 470.362875 60.505741 
L 501.610875 60.505741 
" style="fill:none;stroke:#313131;stroke-linecap:square;stroke-width:1.5;"/>
   </g>
   <g id="line2d_131">
    <path clip-path="url(#pa55d1c05a2)" d="M 502.248589 233.450675 
L 533.496589 233.450675 
" style="fill:none;stroke:#313131;stroke-linecap:square;stroke-width:1.5;"/>
   </g>
   <g id="line2d_132">
    <path clip-path="url(#pa55d1c05a2)" d="M 558.048589 66.34536 
L 589.296589 66.34536 
" style="fill:none;stroke:#313131;stroke-linecap:square;stroke-width:1.5;"/>
   </g>
   <g id="line2d_133">
    <path clip-path="url(#pa55d1c05a2)" d="M 589.934304 55.467394 
L 621.182304 55.467394 
" style="fill:none;stroke:#313131;stroke-linecap:square;stroke-width:1.5;"/>
   </g>
   <g id="line2d_134">
    <path clip-path="url(#pa55d1c05a2)" d="M 621.820018 120.247674 
L 653.068018 120.247674 
" style="fill:none;stroke:#313131;stroke-linecap:square;stroke-width:1.5;"/>
   </g>
   <g id="line2d_135">
    <path clip-path="url(#pa55d1c05a2)" d="M 677.620018 63.057316 
L 708.868018 63.057316 
" style="fill:none;stroke:#313131;stroke-linecap:square;stroke-width:1.5;"/>
   </g>
   <g id="line2d_136">
    <path clip-path="url(#pa55d1c05a2)" d="M 709.505732 58.103403 
L 740.753732 58.103403 
" style="fill:none;stroke:#313131;stroke-linecap:square;stroke-width:1.5;"/>
   </g>
   <g id="line2d_137">
    <path clip-path="url(#pa55d1c05a2)" d="M 741.391446 79.220869 
L 772.639446 79.220869 
" style="fill:none;stroke:#313131;stroke-linecap:square;stroke-width:1.5;"/>
   </g>
   <g id="line2d_138">
    <path clip-path="url(#pa55d1c05a2)" d="M 797.191446 61.298648 
L 828.439446 61.298648 
" style="fill:none;stroke:#313131;stroke-linecap:square;stroke-width:1.5;"/>
   </g>
   <g id="line2d_139">
    <path clip-path="url(#pa55d1c05a2)" d="M 829.077161 61.236742 
L 860.325161 61.236742 
" style="fill:none;stroke:#313131;stroke-linecap:square;stroke-width:1.5;"/>
   </g>
   <g id="line2d_140">
    <path clip-path="url(#pa55d1c05a2)" d="M 860.962875 124.454776 
L 892.210875 124.454776 
" style="fill:none;stroke:#313131;stroke-linecap:square;stroke-width:1.5;"/>
   </g>
   <g id="patch_27">
    <path d="M 67.486875 577.98 
L 67.486875 7.2 
" style="fill:none;stroke:#000000;stroke-linecap:square;stroke-linejoin:miter;stroke-width:0.8;"/>
   </g>
   <g id="patch_28">
    <path d="M 904.486875 577.98 
L 904.486875 7.2 
" style="fill:none;stroke:#000000;stroke-linecap:square;stroke-linejoin:miter;stroke-width:0.8;"/>
   </g>
   <g id="patch_29">
    <path d="M 67.486875 577.98 
L 904.486875 577.98 
" style="fill:none;stroke:#000000;stroke-linecap:square;stroke-linejoin:miter;stroke-width:0.8;"/>
   </g>
   <g id="patch_30">
    <path d="M 67.486875 7.2 
L 904.486875 7.2 
" style="fill:none;stroke:#000000;stroke-linecap:square;stroke-linejoin:miter;stroke-width:0.8;"/>
   </g>
   <g id="legend_1">
    <g id="patch_31">
     <path d="M 736.389687 566.98 
L 889.086875 566.98 
Q 893.486875 566.98 893.486875 562.58 
L 893.486875 467.904375 
Q 893.486875 463.504375 889.086875 463.504375 
L 736.389687 463.504375 
Q 731.989687 463.504375 731.989687 467.904375 
L 731.989687 562.58 
Q 731.989687 566.98 736.389687 566.98 
z
" style="fill:#ffffff;opacity:0.8;stroke:#cccccc;stroke-linejoin:miter;"/>
    </g>
    <g id="patch_32">
     <path d="M 740.789687 489.020938 
L 784.789687 489.020938 
L 784.789687 473.620938 
L 740.789687 473.620938 
z
" style="fill:#525252;stroke:#313131;stroke-linejoin:miter;stroke-width:0.75;"/>
    </g>
    <g id="text_14">
     <!-- rf -->
     <g transform="translate(802.389687 489.020938)scale(0.22 -0.22)">
      <use xlink:href="#DejaVuSerif-114"/>
      <use x="47.802734" xlink:href="#DejaVuSerif-102"/>
     </g>
    </g>
    <g id="patch_33">
     <path d="M 740.789687 521.312813 
L 784.789687 521.312813 
L 784.789687 505.912813 
L 740.789687 505.912813 
z
" style="fill:#979797;stroke:#313131;stroke-linejoin:miter;stroke-width:0.75;"/>
    </g>
    <g id="text_15">
     <!-- svmlin -->
     <defs>
      <path d="M 24.703125 0 
L 5.609375 46.6875 
L -0.296875 46.6875 
L -0.296875 51.90625 
L 23.578125 51.90625 
L 23.578125 46.6875 
L 15.28125 46.6875 
L 29.890625 10.984375 
L 44.484375 46.6875 
L 36.71875 46.6875 
L 36.71875 51.90625 
L 56.203125 51.90625 
L 56.203125 46.6875 
L 50.390625 46.6875 
L 31.296875 0 
z
" id="DejaVuSerif-118"/>
      <path d="M 9.71875 68.015625 
Q 9.71875 70.265625 11.34375 71.921875 
Q 12.984375 73.578125 15.28125 73.578125 
Q 17.53125 73.578125 19.15625 71.921875 
Q 20.796875 70.265625 20.796875 68.015625 
Q 20.796875 65.71875 19.1875 64.109375 
Q 17.578125 62.5 15.28125 62.5 
Q 12.984375 62.5 11.34375 64.109375 
Q 9.71875 65.71875 9.71875 68.015625 
z
M 21.1875 5.171875 
L 29.6875 5.171875 
L 29.6875 0 
L 3.609375 0 
L 3.609375 5.171875 
L 12.203125 5.171875 
L 12.203125 46.6875 
L 3.609375 46.6875 
L 3.609375 51.90625 
L 21.1875 51.90625 
z
" id="DejaVuSerif-105"/>
     </defs>
     <g transform="translate(802.389687 521.312813)scale(0.22 -0.22)">
      <use xlink:href="#DejaVuSerif-115"/>
      <use x="51.318359" xlink:href="#DejaVuSerif-118"/>
      <use x="107.8125" xlink:href="#DejaVuSerif-109"/>
      <use x="202.636719" xlink:href="#DejaVuSerif-108"/>
      <use x="234.619141" xlink:href="#DejaVuSerif-105"/>
      <use x="266.601562" xlink:href="#DejaVuSerif-110"/>
     </g>
    </g>
    <g id="patch_34">
     <path d="M 740.789687 553.604687 
L 784.789687 553.604687 
L 784.789687 538.204687 
L 740.789687 538.204687 
z
" style="fill:#dadada;stroke:#313131;stroke-linejoin:miter;stroke-width:0.75;"/>
    </g>
    <g id="text_16">
     <!-- svmrad -->
     <defs>
      <path d="M 39.796875 16.3125 
L 39.796875 27.296875 
L 28.21875 27.296875 
Q 21.53125 27.296875 18.25 24.40625 
Q 14.984375 21.53125 14.984375 15.578125 
Q 14.984375 10.15625 18.296875 6.984375 
Q 21.625 3.8125 27.296875 3.8125 
Q 32.90625 3.8125 36.34375 7.28125 
Q 39.796875 10.75 39.796875 16.3125 
z
M 48.78125 32.421875 
L 48.78125 5.171875 
L 56.78125 5.171875 
L 56.78125 0 
L 39.796875 0 
L 39.796875 5.609375 
Q 36.8125 2 32.90625 0.28125 
Q 29 -1.421875 23.78125 -1.421875 
Q 15.140625 -1.421875 10.0625 3.171875 
Q 4.984375 7.765625 4.984375 15.578125 
Q 4.984375 23.640625 10.796875 28.078125 
Q 16.609375 32.515625 27.203125 32.515625 
L 39.796875 32.515625 
L 39.796875 36.078125 
Q 39.796875 42 36.203125 45.234375 
Q 32.625 48.484375 26.125 48.484375 
Q 20.75 48.484375 17.578125 46.046875 
Q 14.40625 43.609375 13.625 38.8125 
L 8.984375 38.8125 
L 8.984375 49.3125 
Q 13.671875 51.3125 18.09375 52.3125 
Q 22.515625 53.328125 26.703125 53.328125 
Q 37.5 53.328125 43.140625 47.96875 
Q 48.78125 42.625 48.78125 32.421875 
z
" id="DejaVuSerif-97"/>
      <path d="M 52.484375 5.171875 
L 61.078125 5.171875 
L 61.078125 0 
L 43.5 0 
L 43.5 8.109375 
Q 40.875 3.21875 36.796875 0.890625 
Q 32.71875 -1.421875 26.703125 -1.421875 
Q 17.140625 -1.421875 11.0625 6.171875 
Q 4.984375 13.765625 4.984375 25.984375 
Q 4.984375 38.1875 11.03125 45.75 
Q 17.09375 53.328125 26.703125 53.328125 
Q 32.71875 53.328125 36.796875 51 
Q 40.875 48.6875 43.5 43.796875 
L 43.5 70.796875 
L 35.015625 70.796875 
L 35.015625 75.984375 
L 52.484375 75.984375 
z
M 43.5 23.390625 
L 43.5 28.515625 
Q 43.5 37.84375 39.90625 42.765625 
Q 36.328125 47.703125 29.5 47.703125 
Q 22.5625 47.703125 19.015625 42.234375 
Q 15.484375 36.765625 15.484375 25.984375 
Q 15.484375 15.234375 19.015625 9.71875 
Q 22.5625 4.203125 29.5 4.203125 
Q 36.328125 4.203125 39.90625 9.109375 
Q 43.5 14.015625 43.5 23.390625 
z
" id="DejaVuSerif-100"/>
     </defs>
     <g transform="translate(802.389687 553.604687)scale(0.22 -0.22)">
      <use xlink:href="#DejaVuSerif-115"/>
      <use x="51.318359" xlink:href="#DejaVuSerif-118"/>
      <use x="107.8125" xlink:href="#DejaVuSerif-109"/>
      <use x="202.636719" xlink:href="#DejaVuSerif-114"/>
      <use x="250.439453" xlink:href="#DejaVuSerif-97"/>
      <use x="310.058594" xlink:href="#DejaVuSerif-100"/>
     </g>
    </g>
   </g>
  </g>
 </g>
 <defs>
  <clipPath id="pa55d1c05a2">
   <rect height="570.78" width="837" x="67.486875" y="7.2"/>
  </clipPath>
 </defs>
</svg>
