<?xml version="1.0" encoding="utf-8" standalone="no"?>
<!DOCTYPE svg PUBLIC "-//W3C//DTD SVG 1.1//EN"
  "http://www.w3.org/Graphics/SVG/1.1/DTD/svg11.dtd">
<!-- Created with matplotlib (https://matplotlib.org/) -->
<svg height="579.940312pt" version="1.1" viewBox="0 0 946.67375 579.940312" width="946.67375pt" xmlns="http://www.w3.org/2000/svg" xmlns:xlink="http://www.w3.org/1999/xlink">
 <defs>
  <style type="text/css">
*{stroke-linecap:butt;stroke-linejoin:round;}
  </style>
 </defs>
 <g id="figure_1">
  <g id="patch_1">
   <path d="M 0 579.940312 
L 946.67375 579.940312 
L 946.67375 0 
L 0 0 
z
" style="fill:#ffffff;"/>
  </g>
  <g id="axes_1">
   <g id="patch_2">
    <path d="M 102.47375 519.156562 
L 939.47375 519.156562 
L 939.47375 29.916562 
L 102.47375 29.916562 
z
" style="fill:#ffffff;"/>
   </g>
   <g id="patch_3">
    <path clip-path="url(#p1c1b74b448)" d="M 140.519205 519.156562 
L 216.610114 519.156562 
L 216.610114 53.213705 
L 140.519205 53.213705 
z
" style="fill:#ff7f0e;"/>
   </g>
   <g id="patch_4">
    <path clip-path="url(#p1c1b74b448)" d="M 216.610114 519.156562 
L 292.701023 519.156562 
L 292.701023 519.156562 
L 216.610114 519.156562 
z
" style="fill:#ff7f0e;"/>
   </g>
   <g id="patch_5">
    <path clip-path="url(#p1c1b74b448)" d="M 292.701023 519.156562 
L 368.791932 519.156562 
L 368.791932 504.126148 
L 292.701023 504.126148 
z
" style="fill:#ff7f0e;"/>
   </g>
   <g id="patch_6">
    <path clip-path="url(#p1c1b74b448)" d="M 368.791932 519.156562 
L 444.882841 519.156562 
L 444.882841 519.156562 
L 368.791932 519.156562 
z
" style="fill:#ff7f0e;"/>
   </g>
   <g id="patch_7">
    <path clip-path="url(#p1c1b74b448)" d="M 444.882841 519.156562 
L 520.97375 519.156562 
L 520.97375 519.156562 
L 444.882841 519.156562 
z
" style="fill:#ff7f0e;"/>
   </g>
   <g id="patch_8">
    <path clip-path="url(#p1c1b74b448)" d="M 520.97375 519.156562 
L 597.064659 519.156562 
L 597.064659 504.126148 
L 520.97375 504.126148 
z
" style="fill:#ff7f0e;"/>
   </g>
   <g id="patch_9">
    <path clip-path="url(#p1c1b74b448)" d="M 597.064659 519.156562 
L 673.155568 519.156562 
L 673.155568 519.156562 
L 597.064659 519.156562 
z
" style="fill:#ff7f0e;"/>
   </g>
   <g id="patch_10">
    <path clip-path="url(#p1c1b74b448)" d="M 673.155568 519.156562 
L 749.246477 519.156562 
L 749.246477 519.156562 
L 673.155568 519.156562 
z
" style="fill:#ff7f0e;"/>
   </g>
   <g id="patch_11">
    <path clip-path="url(#p1c1b74b448)" d="M 749.246477 519.156562 
L 825.337386 519.156562 
L 825.337386 519.156562 
L 749.246477 519.156562 
z
" style="fill:#ff7f0e;"/>
   </g>
   <g id="patch_12">
    <path clip-path="url(#p1c1b74b448)" d="M 825.337386 519.156562 
L 901.428295 519.156562 
L 901.428295 504.126148 
L 825.337386 504.126148 
z
" style="fill:#ff7f0e;"/>
   </g>
   <g id="matplotlib.axis_1">
    <g id="xtick_1">
     <g id="line2d_1">
      <defs>
       <path d="M 0 0 
L 0 3.5 
" id="ma70d65305f" style="stroke:#000000;stroke-width:0.8;"/>
      </defs>
      <g>
       <use style="stroke:#000000;stroke-width:0.8;" x="139.583277" xlink:href="#ma70d65305f" y="519.156562"/>
      </g>
     </g>
     <g id="text_1">
      <!-- 0 -->
      <defs>
       <path d="M 31.78125 3.421875 
Q 39.265625 3.421875 42.96875 11.625 
Q 46.6875 19.828125 46.6875 36.375 
Q 46.6875 52.984375 42.96875 61.1875 
Q 39.265625 69.390625 31.78125 69.390625 
Q 24.3125 69.390625 20.59375 61.1875 
Q 16.890625 52.984375 16.890625 36.375 
Q 16.890625 19.828125 20.59375 11.625 
Q 24.3125 3.421875 31.78125 3.421875 
z
M 31.78125 -1.421875 
Q 19.921875 -1.421875 13.25 8.53125 
Q 6.59375 18.5 6.59375 36.375 
Q 6.59375 54.296875 13.25 64.25 
Q 19.921875 74.21875 31.78125 74.21875 
Q 43.703125 74.21875 50.34375 64.25 
Q 56.984375 54.296875 56.984375 36.375 
Q 56.984375 18.5 50.34375 8.53125 
Q 43.703125 -1.421875 31.78125 -1.421875 
z
" id="DejaVuSerif-48"/>
      </defs>
      <g transform="translate(132.584527 542.873125)scale(0.22 -0.22)">
       <use xlink:href="#DejaVuSerif-48"/>
      </g>
     </g>
    </g>
    <g id="xtick_2">
     <g id="line2d_2">
      <g>
       <use style="stroke:#000000;stroke-width:0.8;" x="233.176031" xlink:href="#ma70d65305f" y="519.156562"/>
      </g>
     </g>
     <g id="text_2">
      <!-- 100 -->
      <defs>
       <path d="M 14.203125 0 
L 14.203125 5.171875 
L 26.90625 5.171875 
L 26.90625 65.828125 
L 12.203125 56.296875 
L 12.203125 62.703125 
L 29.984375 74.21875 
L 36.71875 74.21875 
L 36.71875 5.171875 
L 49.421875 5.171875 
L 49.421875 0 
z
" id="DejaVuSerif-49"/>
      </defs>
      <g transform="translate(212.179781 542.873125)scale(0.22 -0.22)">
       <use xlink:href="#DejaVuSerif-49"/>
       <use x="63.623047" xlink:href="#DejaVuSerif-48"/>
       <use x="127.246094" xlink:href="#DejaVuSerif-48"/>
      </g>
     </g>
    </g>
    <g id="xtick_3">
     <g id="line2d_3">
      <g>
       <use style="stroke:#000000;stroke-width:0.8;" x="326.768785" xlink:href="#ma70d65305f" y="519.156562"/>
      </g>
     </g>
     <g id="text_3">
      <!-- 200 -->
      <defs>
       <path d="M 12.796875 55.515625 
L 7.328125 55.515625 
L 7.328125 68.5 
Q 12.546875 71.296875 17.84375 72.75 
Q 23.140625 74.21875 28.21875 74.21875 
Q 39.59375 74.21875 46.1875 68.703125 
Q 52.78125 63.1875 52.78125 53.71875 
Q 52.78125 43.015625 37.84375 28.125 
Q 36.671875 27 36.078125 26.421875 
L 17.671875 8.015625 
L 48.09375 8.015625 
L 48.09375 17 
L 53.8125 17 
L 53.8125 0 
L 6.78125 0 
L 6.78125 5.328125 
L 28.90625 27.390625 
Q 36.234375 34.71875 39.359375 40.84375 
Q 42.484375 46.96875 42.484375 53.71875 
Q 42.484375 61.078125 38.640625 65.234375 
Q 34.8125 69.390625 28.078125 69.390625 
Q 21.09375 69.390625 17.28125 65.921875 
Q 13.484375 62.453125 12.796875 55.515625 
z
" id="DejaVuSerif-50"/>
      </defs>
      <g transform="translate(305.772535 542.873125)scale(0.22 -0.22)">
       <use xlink:href="#DejaVuSerif-50"/>
       <use x="63.623047" xlink:href="#DejaVuSerif-48"/>
       <use x="127.246094" xlink:href="#DejaVuSerif-48"/>
      </g>
     </g>
    </g>
    <g id="xtick_4">
     <g id="line2d_4">
      <g>
       <use style="stroke:#000000;stroke-width:0.8;" x="420.361539" xlink:href="#ma70d65305f" y="519.156562"/>
      </g>
     </g>
     <g id="text_4">
      <!-- 300 -->
      <defs>
       <path d="M 9.71875 69.828125 
Q 15.4375 71.96875 20.671875 73.09375 
Q 25.921875 74.21875 30.515625 74.21875 
Q 41.21875 74.21875 47.21875 69.59375 
Q 53.21875 64.984375 53.21875 56.78125 
Q 53.21875 50.203125 49.0625 45.78125 
Q 44.921875 41.359375 37.3125 39.796875 
Q 46.296875 38.53125 51.25 33.28125 
Q 56.203125 28.03125 56.203125 19.671875 
Q 56.203125 9.46875 49.34375 4.015625 
Q 42.484375 -1.421875 29.59375 -1.421875 
Q 23.875 -1.421875 18.421875 -0.1875 
Q 12.984375 1.03125 7.625 3.515625 
L 7.625 17.671875 
L 13.09375 17.671875 
Q 13.578125 10.640625 17.828125 7.03125 
Q 22.078125 3.421875 29.78125 3.421875 
Q 37.25 3.421875 41.578125 7.734375 
Q 45.90625 12.0625 45.90625 19.578125 
Q 45.90625 28.171875 41.453125 32.59375 
Q 37.015625 37.015625 28.421875 37.015625 
L 23.78125 37.015625 
L 23.78125 42 
L 26.21875 42 
Q 34.765625 42 39.03125 45.53125 
Q 43.3125 49.078125 43.3125 56.203125 
Q 43.3125 62.59375 39.796875 65.984375 
Q 36.28125 69.390625 29.6875 69.390625 
Q 23.09375 69.390625 19.453125 66.265625 
Q 15.828125 63.140625 15.1875 56.984375 
L 9.71875 56.984375 
z
" id="DejaVuSerif-51"/>
      </defs>
      <g transform="translate(399.365289 542.873125)scale(0.22 -0.22)">
       <use xlink:href="#DejaVuSerif-51"/>
       <use x="63.623047" xlink:href="#DejaVuSerif-48"/>
       <use x="127.246094" xlink:href="#DejaVuSerif-48"/>
      </g>
     </g>
    </g>
    <g id="xtick_5">
     <g id="line2d_5">
      <g>
       <use style="stroke:#000000;stroke-width:0.8;" x="513.954293" xlink:href="#ma70d65305f" y="519.156562"/>
      </g>
     </g>
     <g id="text_5">
      <!-- 400 -->
      <defs>
       <path d="M 34.90625 24.703125 
L 34.90625 63.484375 
L 10.015625 24.703125 
z
M 56.390625 0 
L 23.1875 0 
L 23.1875 5.171875 
L 34.90625 5.171875 
L 34.90625 19.484375 
L 3.078125 19.484375 
L 3.078125 24.8125 
L 35.015625 74.21875 
L 44.671875 74.21875 
L 44.671875 24.703125 
L 58.59375 24.703125 
L 58.59375 19.484375 
L 44.671875 19.484375 
L 44.671875 5.171875 
L 56.390625 5.171875 
z
" id="DejaVuSerif-52"/>
      </defs>
      <g transform="translate(492.958043 542.873125)scale(0.22 -0.22)">
       <use xlink:href="#DejaVuSerif-52"/>
       <use x="63.623047" xlink:href="#DejaVuSerif-48"/>
       <use x="127.246094" xlink:href="#DejaVuSerif-48"/>
      </g>
     </g>
    </g>
    <g id="xtick_6">
     <g id="line2d_6">
      <g>
       <use style="stroke:#000000;stroke-width:0.8;" x="607.547048" xlink:href="#ma70d65305f" y="519.156562"/>
      </g>
     </g>
     <g id="text_6">
      <!-- 500 -->
      <defs>
       <path d="M 50.296875 72.90625 
L 50.296875 64.890625 
L 16.890625 64.890625 
L 16.890625 44 
Q 19.4375 45.75 22.828125 46.625 
Q 26.21875 47.515625 30.421875 47.515625 
Q 42.234375 47.515625 49.0625 40.96875 
Q 55.90625 34.421875 55.90625 23.09375 
Q 55.90625 11.53125 49 5.046875 
Q 42.09375 -1.421875 29.59375 -1.421875 
Q 24.5625 -1.421875 19.28125 -0.1875 
Q 14.015625 1.03125 8.5 3.515625 
L 8.5 17.671875 
L 14.015625 17.671875 
Q 14.453125 10.75 18.421875 7.078125 
Q 22.40625 3.421875 29.59375 3.421875 
Q 37.3125 3.421875 41.453125 8.5 
Q 45.609375 13.578125 45.609375 23.09375 
Q 45.609375 32.5625 41.484375 37.609375 
Q 37.359375 42.671875 29.59375 42.671875 
Q 25.203125 42.671875 21.84375 41.109375 
Q 18.5 39.546875 15.921875 36.28125 
L 11.71875 36.28125 
L 11.71875 72.90625 
z
" id="DejaVuSerif-53"/>
      </defs>
      <g transform="translate(586.550798 542.873125)scale(0.22 -0.22)">
       <use xlink:href="#DejaVuSerif-53"/>
       <use x="63.623047" xlink:href="#DejaVuSerif-48"/>
       <use x="127.246094" xlink:href="#DejaVuSerif-48"/>
      </g>
     </g>
    </g>
    <g id="xtick_7">
     <g id="line2d_7">
      <g>
       <use style="stroke:#000000;stroke-width:0.8;" x="701.139802" xlink:href="#ma70d65305f" y="519.156562"/>
      </g>
     </g>
     <g id="text_7">
      <!-- 600 -->
      <defs>
       <path d="M 32.71875 3.421875 
Q 39.59375 3.421875 43.296875 8.46875 
Q 47.015625 13.53125 47.015625 23 
Q 47.015625 32.46875 43.296875 37.515625 
Q 39.59375 42.578125 32.71875 42.578125 
Q 25.734375 42.578125 22.0625 37.6875 
Q 18.40625 32.8125 18.40625 23.578125 
Q 18.40625 13.875 22.109375 8.640625 
Q 25.828125 3.421875 32.71875 3.421875 
z
M 16.796875 40.140625 
Q 20.125 43.796875 24.3125 45.59375 
Q 28.515625 47.40625 33.796875 47.40625 
Q 44.671875 47.40625 51 40.859375 
Q 57.328125 34.328125 57.328125 23 
Q 57.328125 11.921875 50.515625 5.25 
Q 43.703125 -1.421875 32.328125 -1.421875 
Q 19.96875 -1.421875 13.328125 7.78125 
Q 6.6875 17 6.6875 34.078125 
Q 6.6875 53.21875 14.546875 63.71875 
Q 22.40625 74.21875 36.71875 74.21875 
Q 40.578125 74.21875 44.828125 73.484375 
Q 49.078125 72.75 53.515625 71.296875 
L 53.515625 59.28125 
L 48 59.28125 
Q 47.40625 64.203125 44.234375 66.796875 
Q 41.0625 69.390625 35.6875 69.390625 
Q 26.21875 69.390625 21.578125 62.203125 
Q 16.9375 55.03125 16.796875 40.140625 
z
" id="DejaVuSerif-54"/>
      </defs>
      <g transform="translate(680.143552 542.873125)scale(0.22 -0.22)">
       <use xlink:href="#DejaVuSerif-54"/>
       <use x="63.623047" xlink:href="#DejaVuSerif-48"/>
       <use x="127.246094" xlink:href="#DejaVuSerif-48"/>
      </g>
     </g>
    </g>
    <g id="xtick_8">
     <g id="line2d_8">
      <g>
       <use style="stroke:#000000;stroke-width:0.8;" x="794.732556" xlink:href="#ma70d65305f" y="519.156562"/>
      </g>
     </g>
     <g id="text_8">
      <!-- 700 -->
      <defs>
       <path d="M 56.390625 67.921875 
L 27.875 0 
L 20.609375 0 
L 47.796875 64.890625 
L 14.109375 64.890625 
L 14.109375 55.90625 
L 8.40625 55.90625 
L 8.40625 72.90625 
L 56.390625 72.90625 
z
" id="DejaVuSerif-55"/>
      </defs>
      <g transform="translate(773.736306 542.873125)scale(0.22 -0.22)">
       <use xlink:href="#DejaVuSerif-55"/>
       <use x="63.623047" xlink:href="#DejaVuSerif-48"/>
       <use x="127.246094" xlink:href="#DejaVuSerif-48"/>
      </g>
     </g>
    </g>
    <g id="xtick_9">
     <g id="line2d_9">
      <g>
       <use style="stroke:#000000;stroke-width:0.8;" x="888.32531" xlink:href="#ma70d65305f" y="519.156562"/>
      </g>
     </g>
     <g id="text_9">
      <!-- 800 -->
      <defs>
       <path d="M 46.578125 19.921875 
Q 46.578125 27.734375 42.6875 32.046875 
Q 38.8125 36.375 31.78125 36.375 
Q 24.75 36.375 20.875 32.046875 
Q 17 27.734375 17 19.921875 
Q 17 12.0625 20.875 7.734375 
Q 24.75 3.421875 31.78125 3.421875 
Q 38.8125 3.421875 42.6875 7.734375 
Q 46.578125 12.0625 46.578125 19.921875 
z
M 44.578125 55.328125 
Q 44.578125 61.96875 41.203125 65.671875 
Q 37.84375 69.390625 31.78125 69.390625 
Q 25.78125 69.390625 22.390625 65.671875 
Q 19 61.96875 19 55.328125 
Q 19 48.640625 22.390625 44.921875 
Q 25.78125 41.21875 31.78125 41.21875 
Q 37.84375 41.21875 41.203125 44.921875 
Q 44.578125 48.640625 44.578125 55.328125 
z
M 39.3125 38.8125 
Q 47.609375 37.703125 52.25 32.6875 
Q 56.890625 27.6875 56.890625 19.921875 
Q 56.890625 9.671875 50.390625 4.125 
Q 43.890625 -1.421875 31.78125 -1.421875 
Q 19.734375 -1.421875 13.203125 4.125 
Q 6.6875 9.671875 6.6875 19.921875 
Q 6.6875 27.6875 11.328125 32.6875 
Q 15.96875 37.703125 24.3125 38.8125 
Q 16.9375 40.140625 13 44.40625 
Q 9.078125 48.6875 9.078125 55.328125 
Q 9.078125 64.109375 15.125 69.15625 
Q 21.1875 74.21875 31.78125 74.21875 
Q 42.390625 74.21875 48.4375 69.15625 
Q 54.5 64.109375 54.5 55.328125 
Q 54.5 48.6875 50.5625 44.40625 
Q 46.625 40.140625 39.3125 38.8125 
z
" id="DejaVuSerif-56"/>
      </defs>
      <g transform="translate(867.32906 542.873125)scale(0.22 -0.22)">
       <use xlink:href="#DejaVuSerif-56"/>
       <use x="63.623047" xlink:href="#DejaVuSerif-48"/>
       <use x="127.246094" xlink:href="#DejaVuSerif-48"/>
      </g>
     </g>
    </g>
    <g id="text_10">
     <!-- Species Count -->
     <defs>
      <path d="M 9.28125 3.515625 
L 9.28125 20.125 
L 14.890625 20.0625 
Q 15.140625 11.765625 19.703125 7.78125 
Q 24.265625 3.8125 33.59375 3.8125 
Q 42.28125 3.8125 46.84375 7.25 
Q 51.421875 10.6875 51.421875 17.28125 
Q 51.421875 22.5625 48.65625 25.390625 
Q 45.90625 28.21875 37.015625 30.90625 
L 27.390625 33.796875 
Q 16.9375 36.96875 12.671875 41.703125 
Q 8.40625 46.4375 8.40625 54.6875 
Q 8.40625 63.96875 14.984375 69.09375 
Q 21.578125 74.21875 33.5 74.21875 
Q 38.578125 74.21875 44.625 73.109375 
Q 50.6875 72.015625 57.515625 69.921875 
L 57.515625 54.390625 
L 52 54.390625 
Q 51.171875 62.109375 46.84375 65.546875 
Q 42.53125 69 33.6875 69 
Q 25.984375 69 21.953125 65.84375 
Q 17.921875 62.703125 17.921875 56.6875 
Q 17.921875 51.46875 20.9375 48.484375 
Q 23.96875 45.515625 33.796875 42.578125 
L 42.828125 39.890625 
Q 52.734375 36.921875 56.953125 32.296875 
Q 61.1875 27.6875 61.1875 19.921875 
Q 61.1875 9.328125 54.390625 3.953125 
Q 47.609375 -1.421875 34.1875 -1.421875 
Q 28.171875 -1.421875 21.9375 -0.1875 
Q 15.71875 1.03125 9.28125 3.515625 
z
" id="DejaVuSerif-83"/>
      <path d="M 20.515625 28.515625 
L 20.515625 23.390625 
Q 20.515625 14.015625 24.09375 9.109375 
Q 27.6875 4.203125 34.515625 4.203125 
Q 41.40625 4.203125 44.9375 9.71875 
Q 48.484375 15.234375 48.484375 25.984375 
Q 48.484375 36.765625 44.9375 42.234375 
Q 41.40625 47.703125 34.515625 47.703125 
Q 27.6875 47.703125 24.09375 42.765625 
Q 20.515625 37.84375 20.515625 28.515625 
z
M 11.53125 46.6875 
L 2.875 46.6875 
L 2.875 51.90625 
L 20.515625 51.90625 
L 20.515625 43.796875 
Q 23.140625 48.6875 27.21875 51 
Q 31.296875 53.328125 37.3125 53.328125 
Q 46.875 53.328125 52.921875 45.75 
Q 58.984375 38.1875 58.984375 25.984375 
Q 58.984375 13.765625 52.921875 6.171875 
Q 46.875 -1.421875 37.3125 -1.421875 
Q 31.296875 -1.421875 27.21875 0.890625 
Q 23.140625 3.21875 20.515625 8.109375 
L 20.515625 -15.578125 
L 29 -15.578125 
L 29 -20.796875 
L 2.875 -20.796875 
L 2.875 -15.578125 
L 11.53125 -15.578125 
z
" id="DejaVuSerif-112"/>
      <path d="M 54.203125 25 
L 15.484375 25 
L 15.484375 24.609375 
Q 15.484375 14.109375 19.4375 8.765625 
Q 23.390625 3.421875 31.109375 3.421875 
Q 37.015625 3.421875 40.796875 6.515625 
Q 44.578125 9.625 46.09375 15.71875 
L 53.328125 15.71875 
Q 51.171875 7.171875 45.375 2.875 
Q 39.59375 -1.421875 30.171875 -1.421875 
Q 18.796875 -1.421875 11.890625 6.078125 
Q 4.984375 13.578125 4.984375 25.984375 
Q 4.984375 38.28125 11.765625 45.796875 
Q 18.5625 53.328125 29.59375 53.328125 
Q 41.359375 53.328125 47.65625 46.0625 
Q 53.953125 38.8125 54.203125 25 
z
M 43.609375 30.171875 
Q 43.3125 39.265625 39.765625 43.875 
Q 36.234375 48.484375 29.59375 48.484375 
Q 23.390625 48.484375 19.828125 43.84375 
Q 16.265625 39.203125 15.484375 30.171875 
z
" id="DejaVuSerif-101"/>
      <path d="M 51.421875 15.578125 
Q 49.515625 7.28125 44.09375 2.921875 
Q 38.671875 -1.421875 30.078125 -1.421875 
Q 18.75 -1.421875 11.859375 6.078125 
Q 4.984375 13.578125 4.984375 25.984375 
Q 4.984375 38.421875 11.859375 45.875 
Q 18.75 53.328125 30.078125 53.328125 
Q 35.015625 53.328125 39.890625 52.171875 
Q 44.78125 51.03125 49.703125 48.6875 
L 49.703125 35.40625 
L 44.484375 35.40625 
Q 43.453125 42.234375 40.015625 45.359375 
Q 36.578125 48.484375 30.171875 48.484375 
Q 22.90625 48.484375 19.1875 42.84375 
Q 15.484375 37.203125 15.484375 25.984375 
Q 15.484375 14.75 19.171875 9.078125 
Q 22.859375 3.421875 30.171875 3.421875 
Q 35.984375 3.421875 39.453125 6.4375 
Q 42.921875 9.46875 44.1875 15.578125 
z
" id="DejaVuSerif-99"/>
      <path d="M 9.71875 68.015625 
Q 9.71875 70.265625 11.34375 71.921875 
Q 12.984375 73.578125 15.28125 73.578125 
Q 17.53125 73.578125 19.15625 71.921875 
Q 20.796875 70.265625 20.796875 68.015625 
Q 20.796875 65.71875 19.1875 64.109375 
Q 17.578125 62.5 15.28125 62.5 
Q 12.984375 62.5 11.34375 64.109375 
Q 9.71875 65.71875 9.71875 68.015625 
z
M 21.1875 5.171875 
L 29.6875 5.171875 
L 29.6875 0 
L 3.609375 0 
L 3.609375 5.171875 
L 12.203125 5.171875 
L 12.203125 46.6875 
L 3.609375 46.6875 
L 3.609375 51.90625 
L 21.1875 51.90625 
z
" id="DejaVuSerif-105"/>
      <path d="M 5.609375 2.875 
L 5.609375 14.984375 
L 10.796875 14.984375 
Q 10.984375 9.1875 14.421875 6.296875 
Q 17.875 3.421875 24.609375 3.421875 
Q 30.671875 3.421875 33.84375 5.6875 
Q 37.015625 7.953125 37.015625 12.3125 
Q 37.015625 15.71875 34.6875 17.8125 
Q 32.375 19.921875 24.90625 22.3125 
L 18.40625 24.515625 
Q 11.71875 26.65625 8.71875 29.875 
Q 5.71875 33.109375 5.71875 38.09375 
Q 5.71875 45.21875 10.9375 49.265625 
Q 16.15625 53.328125 25.390625 53.328125 
Q 29.5 53.328125 34.03125 52.25 
Q 38.578125 51.171875 43.40625 49.125 
L 43.40625 37.796875 
L 38.234375 37.796875 
Q 38.03125 42.828125 34.703125 45.65625 
Q 31.390625 48.484375 25.6875 48.484375 
Q 20.015625 48.484375 17.109375 46.484375 
Q 14.203125 44.484375 14.203125 40.484375 
Q 14.203125 37.203125 16.40625 35.21875 
Q 18.609375 33.25 25.203125 31.203125 
L 32.328125 29 
Q 39.703125 26.703125 42.9375 23.265625 
Q 46.1875 19.828125 46.1875 14.40625 
Q 46.1875 7.03125 40.546875 2.796875 
Q 34.90625 -1.421875 25 -1.421875 
Q 19.96875 -1.421875 15.1875 -0.34375 
Q 10.40625 0.734375 5.609375 2.875 
z
" id="DejaVuSerif-115"/>
      <path id="DejaVuSerif-32"/>
      <path d="M 70.515625 19.28125 
Q 67.28125 9.078125 59.6875 3.828125 
Q 52.09375 -1.421875 40.484375 -1.421875 
Q 33.34375 -1.421875 27.234375 1.015625 
Q 21.140625 3.46875 16.40625 8.203125 
Q 10.9375 13.671875 8.265625 20.625 
Q 5.609375 27.59375 5.609375 36.375 
Q 5.609375 53.375 15.421875 63.796875 
Q 25.25 74.21875 41.3125 74.21875 
Q 47.265625 74.21875 54 72.65625 
Q 60.75 71.09375 68.5 67.921875 
L 68.5 51.125 
L 62.984375 51.125 
Q 61.1875 60.296875 55.734375 64.640625 
Q 50.296875 69 40.484375 69 
Q 28.8125 69 22.796875 60.71875 
Q 16.796875 52.4375 16.796875 36.375 
Q 16.796875 20.359375 22.796875 12.078125 
Q 28.8125 3.8125 40.484375 3.8125 
Q 48.640625 3.8125 53.90625 7.6875 
Q 59.1875 11.578125 61.53125 19.28125 
z
" id="DejaVuSerif-67"/>
      <path d="M 30.078125 3.421875 
Q 37.3125 3.421875 40.984375 9.125 
Q 44.671875 14.84375 44.671875 25.984375 
Q 44.671875 37.109375 40.984375 42.796875 
Q 37.3125 48.484375 30.078125 48.484375 
Q 22.859375 48.484375 19.171875 42.796875 
Q 15.484375 37.109375 15.484375 25.984375 
Q 15.484375 14.84375 19.1875 9.125 
Q 22.90625 3.421875 30.078125 3.421875 
z
M 30.078125 -1.421875 
Q 18.75 -1.421875 11.859375 6.078125 
Q 4.984375 13.578125 4.984375 25.984375 
Q 4.984375 38.375 11.84375 45.84375 
Q 18.703125 53.328125 30.078125 53.328125 
Q 41.453125 53.328125 48.3125 45.84375 
Q 55.171875 38.375 55.171875 25.984375 
Q 55.171875 13.578125 48.3125 6.078125 
Q 41.453125 -1.421875 30.078125 -1.421875 
z
" id="DejaVuSerif-111"/>
      <path d="M 35.40625 51.90625 
L 52.203125 51.90625 
L 52.203125 5.171875 
L 60.6875 5.171875 
L 60.6875 0 
L 43.21875 0 
L 43.21875 9.1875 
Q 40.71875 4 36.765625 1.28125 
Q 32.8125 -1.421875 27.59375 -1.421875 
Q 18.953125 -1.421875 14.875 3.484375 
Q 10.796875 8.40625 10.796875 18.890625 
L 10.796875 46.6875 
L 2.6875 46.6875 
L 2.6875 51.90625 
L 19.828125 51.90625 
L 19.828125 21.6875 
Q 19.828125 12.203125 22.140625 8.6875 
Q 24.46875 5.171875 30.421875 5.171875 
Q 36.671875 5.171875 39.9375 9.765625 
Q 43.21875 14.359375 43.21875 23.09375 
L 43.21875 46.6875 
L 35.40625 46.6875 
z
" id="DejaVuSerif-117"/>
      <path d="M 4.109375 0 
L 4.109375 5.171875 
L 12.203125 5.171875 
L 12.203125 46.6875 
L 3.609375 46.6875 
L 3.609375 51.90625 
L 21.1875 51.90625 
L 21.1875 42.671875 
Q 23.6875 47.953125 27.65625 50.640625 
Q 31.640625 53.328125 36.921875 53.328125 
Q 45.515625 53.328125 49.5625 48.390625 
Q 53.609375 43.453125 53.609375 33.015625 
L 53.609375 5.171875 
L 61.625 5.171875 
L 61.625 0 
L 36.8125 0 
L 36.8125 5.171875 
L 44.578125 5.171875 
L 44.578125 30.171875 
Q 44.578125 39.703125 42.234375 43.234375 
Q 39.890625 46.78125 33.984375 46.78125 
Q 27.734375 46.78125 24.453125 42.203125 
Q 21.1875 37.640625 21.1875 28.90625 
L 21.1875 5.171875 
L 29 5.171875 
L 29 0 
z
" id="DejaVuSerif-110"/>
      <path d="M 10.796875 46.6875 
L 2.875 46.6875 
L 2.875 51.90625 
L 10.796875 51.90625 
L 10.796875 68.015625 
L 19.828125 68.015625 
L 19.828125 51.90625 
L 36.71875 51.90625 
L 36.71875 46.6875 
L 19.828125 46.6875 
L 19.828125 13.71875 
Q 19.828125 7.125 21.09375 5.265625 
Q 22.359375 3.421875 25.78125 3.421875 
Q 29.296875 3.421875 30.90625 5.484375 
Q 32.515625 7.5625 32.625 12.203125 
L 39.40625 12.203125 
Q 39.015625 5.125 35.546875 1.84375 
Q 32.078125 -1.421875 25 -1.421875 
Q 17.234375 -1.421875 14.015625 2.015625 
Q 10.796875 5.46875 10.796875 13.71875 
z
" id="DejaVuSerif-116"/>
     </defs>
     <g transform="translate(440.928125 568.165)scale(0.22 -0.22)">
      <use xlink:href="#DejaVuSerif-83"/>
      <use x="68.505859" xlink:href="#DejaVuSerif-112"/>
      <use x="132.519531" xlink:href="#DejaVuSerif-101"/>
      <use x="191.699219" xlink:href="#DejaVuSerif-99"/>
      <use x="247.705078" xlink:href="#DejaVuSerif-105"/>
      <use x="279.6875" xlink:href="#DejaVuSerif-101"/>
      <use x="338.867188" xlink:href="#DejaVuSerif-115"/>
      <use x="390.185547" xlink:href="#DejaVuSerif-32"/>
      <use x="421.972656" xlink:href="#DejaVuSerif-67"/>
      <use x="498.486328" xlink:href="#DejaVuSerif-111"/>
      <use x="558.691406" xlink:href="#DejaVuSerif-117"/>
      <use x="623.095703" xlink:href="#DejaVuSerif-110"/>
      <use x="687.5" xlink:href="#DejaVuSerif-116"/>
     </g>
    </g>
   </g>
   <g id="matplotlib.axis_2">
    <g id="ytick_1">
     <g id="line2d_10">
      <defs>
       <path d="M 0 0 
L -3.5 0 
" id="m5534542e9e" style="stroke:#000000;stroke-width:0.8;"/>
      </defs>
      <g>
       <use style="stroke:#000000;stroke-width:0.8;" x="102.47375" xlink:href="#m5534542e9e" y="519.156562"/>
      </g>
     </g>
     <g id="text_11">
      <!-- 0.000 -->
      <defs>
       <path d="M 9.421875 5.078125 
Q 9.421875 7.8125 11.28125 9.71875 
Q 13.140625 11.625 15.921875 11.625 
Q 18.609375 11.625 20.5 9.71875 
Q 22.40625 7.8125 22.40625 5.078125 
Q 22.40625 2.390625 20.5 0.484375 
Q 18.609375 -1.421875 15.921875 -1.421875 
Q 13.140625 -1.421875 11.28125 0.453125 
Q 9.421875 2.34375 9.421875 5.078125 
z
" id="DejaVuSerif-46"/>
      </defs>
      <g transform="translate(32.491875 527.514844)scale(0.22 -0.22)">
       <use xlink:href="#DejaVuSerif-48"/>
       <use x="63.623047" xlink:href="#DejaVuSerif-46"/>
       <use x="95.410156" xlink:href="#DejaVuSerif-48"/>
       <use x="159.033203" xlink:href="#DejaVuSerif-48"/>
       <use x="222.65625" xlink:href="#DejaVuSerif-48"/>
      </g>
     </g>
    </g>
    <g id="ytick_2">
     <g id="line2d_11">
      <g>
       <use style="stroke:#000000;stroke-width:0.8;" x="102.47375" xlink:href="#m5534542e9e" y="436.062418"/>
      </g>
     </g>
     <g id="text_12">
      <!-- 0.002 -->
      <g transform="translate(32.491875 444.420699)scale(0.22 -0.22)">
       <use xlink:href="#DejaVuSerif-48"/>
       <use x="63.623047" xlink:href="#DejaVuSerif-46"/>
       <use x="95.410156" xlink:href="#DejaVuSerif-48"/>
       <use x="159.033203" xlink:href="#DejaVuSerif-48"/>
       <use x="222.65625" xlink:href="#DejaVuSerif-50"/>
      </g>
     </g>
    </g>
    <g id="ytick_3">
     <g id="line2d_12">
      <g>
       <use style="stroke:#000000;stroke-width:0.8;" x="102.47375" xlink:href="#m5534542e9e" y="352.968273"/>
      </g>
     </g>
     <g id="text_13">
      <!-- 0.004 -->
      <g transform="translate(32.491875 361.326554)scale(0.22 -0.22)">
       <use xlink:href="#DejaVuSerif-48"/>
       <use x="63.623047" xlink:href="#DejaVuSerif-46"/>
       <use x="95.410156" xlink:href="#DejaVuSerif-48"/>
       <use x="159.033203" xlink:href="#DejaVuSerif-48"/>
       <use x="222.65625" xlink:href="#DejaVuSerif-52"/>
      </g>
     </g>
    </g>
    <g id="ytick_4">
     <g id="line2d_13">
      <g>
       <use style="stroke:#000000;stroke-width:0.8;" x="102.47375" xlink:href="#m5534542e9e" y="269.874128"/>
      </g>
     </g>
     <g id="text_14">
      <!-- 0.006 -->
      <g transform="translate(32.491875 278.232409)scale(0.22 -0.22)">
       <use xlink:href="#DejaVuSerif-48"/>
       <use x="63.623047" xlink:href="#DejaVuSerif-46"/>
       <use x="95.410156" xlink:href="#DejaVuSerif-48"/>
       <use x="159.033203" xlink:href="#DejaVuSerif-48"/>
       <use x="222.65625" xlink:href="#DejaVuSerif-54"/>
      </g>
     </g>
    </g>
    <g id="ytick_5">
     <g id="line2d_14">
      <g>
       <use style="stroke:#000000;stroke-width:0.8;" x="102.47375" xlink:href="#m5534542e9e" y="186.779983"/>
      </g>
     </g>
     <g id="text_15">
      <!-- 0.008 -->
      <g transform="translate(32.491875 195.138264)scale(0.22 -0.22)">
       <use xlink:href="#DejaVuSerif-48"/>
       <use x="63.623047" xlink:href="#DejaVuSerif-46"/>
       <use x="95.410156" xlink:href="#DejaVuSerif-48"/>
       <use x="159.033203" xlink:href="#DejaVuSerif-48"/>
       <use x="222.65625" xlink:href="#DejaVuSerif-56"/>
      </g>
     </g>
    </g>
    <g id="ytick_6">
     <g id="line2d_15">
      <g>
       <use style="stroke:#000000;stroke-width:0.8;" x="102.47375" xlink:href="#m5534542e9e" y="103.685838"/>
      </g>
     </g>
     <g id="text_16">
      <!-- 0.010 -->
      <g transform="translate(32.491875 112.044119)scale(0.22 -0.22)">
       <use xlink:href="#DejaVuSerif-48"/>
       <use x="63.623047" xlink:href="#DejaVuSerif-46"/>
       <use x="95.410156" xlink:href="#DejaVuSerif-48"/>
       <use x="159.033203" xlink:href="#DejaVuSerif-49"/>
       <use x="222.65625" xlink:href="#DejaVuSerif-48"/>
      </g>
     </g>
    </g>
    <g id="text_17">
     <!-- Frequency -->
     <defs>
      <path d="M 5.515625 0 
L 5.515625 5.171875 
L 14.796875 5.171875 
L 14.796875 67.671875 
L 5.515625 67.671875 
L 5.515625 72.90625 
L 65.1875 72.90625 
L 65.1875 56.6875 
L 59.1875 56.6875 
L 59.1875 66.890625 
L 24.703125 66.890625 
L 24.703125 42.484375 
L 49.609375 42.484375 
L 49.609375 51.609375 
L 55.609375 51.609375 
L 55.609375 27.390625 
L 49.609375 27.390625 
L 49.609375 36.53125 
L 24.703125 36.53125 
L 24.703125 5.171875 
L 36.375 5.171875 
L 36.375 0 
z
" id="DejaVuSerif-70"/>
      <path d="M 47.796875 52 
L 47.796875 39.015625 
L 42.625 39.015625 
Q 42.390625 42.875 40.484375 44.78125 
Q 38.578125 46.6875 34.90625 46.6875 
Q 28.265625 46.6875 24.71875 42.09375 
Q 21.1875 37.5 21.1875 28.90625 
L 21.1875 5.171875 
L 31.59375 5.171875 
L 31.59375 0 
L 4.109375 0 
L 4.109375 5.171875 
L 12.203125 5.171875 
L 12.203125 46.78125 
L 3.609375 46.78125 
L 3.609375 51.90625 
L 21.1875 51.90625 
L 21.1875 42.671875 
Q 23.828125 48.09375 27.96875 50.703125 
Q 32.125 53.328125 38.09375 53.328125 
Q 40.28125 53.328125 42.703125 52.984375 
Q 45.125 52.640625 47.796875 52 
z
" id="DejaVuSerif-114"/>
      <path d="M 52.484375 46.6875 
L 52.484375 -15.578125 
L 61.078125 -15.578125 
L 61.078125 -20.796875 
L 35.015625 -20.796875 
L 35.015625 -15.578125 
L 43.5 -15.578125 
L 43.5 8.109375 
Q 40.875 3.21875 36.796875 0.890625 
Q 32.71875 -1.421875 26.703125 -1.421875 
Q 17.140625 -1.421875 11.0625 6.171875 
Q 4.984375 13.765625 4.984375 25.984375 
Q 4.984375 38.1875 11.03125 45.75 
Q 17.09375 53.328125 26.703125 53.328125 
Q 32.71875 53.328125 36.796875 51 
Q 40.875 48.6875 43.5 43.796875 
L 43.5 51.90625 
L 61.078125 51.90625 
L 61.078125 46.6875 
z
M 43.5 28.515625 
Q 43.5 37.84375 39.90625 42.765625 
Q 36.328125 47.703125 29.5 47.703125 
Q 22.5625 47.703125 19.015625 42.234375 
Q 15.484375 36.765625 15.484375 25.984375 
Q 15.484375 15.234375 19.015625 9.71875 
Q 22.5625 4.203125 29.5 4.203125 
Q 36.328125 4.203125 39.90625 9.109375 
Q 43.5 14.015625 43.5 23.390625 
z
" id="DejaVuSerif-113"/>
      <path d="M 21.578125 -9.515625 
L 25 -0.875 
L 5.609375 46.6875 
L -0.296875 46.6875 
L -0.296875 51.90625 
L 23.578125 51.90625 
L 23.578125 46.6875 
L 15.28125 46.6875 
L 29.890625 10.984375 
L 44.484375 46.6875 
L 36.71875 46.6875 
L 36.71875 51.90625 
L 56.203125 51.90625 
L 56.203125 46.6875 
L 50.390625 46.6875 
L 26.609375 -11.71875 
Q 24.171875 -17.78125 21.1875 -20 
Q 18.21875 -22.21875 12.796875 -22.21875 
Q 10.5 -22.21875 8.078125 -21.828125 
Q 5.671875 -21.4375 3.21875 -20.703125 
L 3.21875 -10.796875 
L 7.8125 -10.796875 
Q 8.109375 -14.109375 9.5 -15.546875 
Q 10.890625 -17 13.8125 -17 
Q 16.5 -17 18.140625 -15.5 
Q 19.78125 -14.015625 21.578125 -9.515625 
z
" id="DejaVuSerif-121"/>
     </defs>
     <g transform="translate(23.60375 334.034531)rotate(-90)scale(0.22 -0.22)">
      <use xlink:href="#DejaVuSerif-70"/>
      <use x="69.384766" xlink:href="#DejaVuSerif-114"/>
      <use x="117.1875" xlink:href="#DejaVuSerif-101"/>
      <use x="176.367188" xlink:href="#DejaVuSerif-113"/>
      <use x="240.380859" xlink:href="#DejaVuSerif-117"/>
      <use x="304.785156" xlink:href="#DejaVuSerif-101"/>
      <use x="363.964844" xlink:href="#DejaVuSerif-110"/>
      <use x="428.369141" xlink:href="#DejaVuSerif-99"/>
      <use x="484.375" xlink:href="#DejaVuSerif-121"/>
     </g>
    </g>
   </g>
   <g id="line2d_16">
    <path clip-path="url(#p1c1b74b448)" d="M 140.519205 418.752569 
L 140.519205 418.752569 
L 140.519205 418.752569 
L 140.519205 418.752569 
L 140.519205 418.752569 
L 140.519205 418.752569 
L 140.519205 418.752569 
L 140.519205 418.752569 
L 140.519205 418.752569 
L 142.39106 418.299952 
L 142.39106 418.299952 
L 142.39106 418.299952 
L 143.326987 418.07919 
L 143.326987 418.07919 
L 144.262915 417.862161 
L 144.262915 417.862161 
L 145.198842 417.648892 
L 149.87848 416.639816 
L 150.814407 416.449627 
L 151.750335 416.263367 
L 152.686263 416.08106 
L 153.62219 415.902728 
L 153.62219 415.902728 
L 153.62219 415.902728 
L 157.3659 415.229577 
L 162.981466 414.342578 
L 166.725176 413.834758 
L 177.956306 412.722637 
L 179.828161 412.598259 
L 202.290422 412.488622 
L 215.393408 413.599829 
L 323.961003 448.443102 
L 562.622526 515.064432 
L 901.428295 519.155877 
" style="fill:none;stroke:#1f77b4;stroke-linecap:square;stroke-width:1.5;"/>
    <defs>
     <path d="M 0 3 
C 0.795609 3 1.55874 2.683901 2.12132 2.12132 
C 2.683901 1.55874 3 0.795609 3 0 
C 3 -0.795609 2.683901 -1.55874 2.12132 -2.12132 
C 1.55874 -2.683901 0.795609 -3 0 -3 
C -0.795609 -3 -1.55874 -2.683901 -2.12132 -2.12132 
C -2.683901 -1.55874 -3 -0.795609 -3 0 
C -3 0.795609 -2.683901 1.55874 -2.12132 2.12132 
C -1.55874 2.683901 -0.795609 3 0 3 
z
" id="mb456a7fd04" style="stroke:#1f77b4;"/>
    </defs>
    <g clip-path="url(#p1c1b74b448)">
     <use style="fill:#1f77b4;stroke:#1f77b4;" x="140.519205" xlink:href="#mb456a7fd04" y="418.752569"/>
     <use style="fill:#1f77b4;stroke:#1f77b4;" x="140.519205" xlink:href="#mb456a7fd04" y="418.752569"/>
     <use style="fill:#1f77b4;stroke:#1f77b4;" x="140.519205" xlink:href="#mb456a7fd04" y="418.752569"/>
     <use style="fill:#1f77b4;stroke:#1f77b4;" x="140.519205" xlink:href="#mb456a7fd04" y="418.752569"/>
     <use style="fill:#1f77b4;stroke:#1f77b4;" x="140.519205" xlink:href="#mb456a7fd04" y="418.752569"/>
     <use style="fill:#1f77b4;stroke:#1f77b4;" x="140.519205" xlink:href="#mb456a7fd04" y="418.752569"/>
     <use style="fill:#1f77b4;stroke:#1f77b4;" x="140.519205" xlink:href="#mb456a7fd04" y="418.752569"/>
     <use style="fill:#1f77b4;stroke:#1f77b4;" x="140.519205" xlink:href="#mb456a7fd04" y="418.752569"/>
     <use style="fill:#1f77b4;stroke:#1f77b4;" x="140.519205" xlink:href="#mb456a7fd04" y="418.752569"/>
     <use style="fill:#1f77b4;stroke:#1f77b4;" x="142.39106" xlink:href="#mb456a7fd04" y="418.299952"/>
     <use style="fill:#1f77b4;stroke:#1f77b4;" x="142.39106" xlink:href="#mb456a7fd04" y="418.299952"/>
     <use style="fill:#1f77b4;stroke:#1f77b4;" x="142.39106" xlink:href="#mb456a7fd04" y="418.299952"/>
     <use style="fill:#1f77b4;stroke:#1f77b4;" x="143.326987" xlink:href="#mb456a7fd04" y="418.07919"/>
     <use style="fill:#1f77b4;stroke:#1f77b4;" x="143.326987" xlink:href="#mb456a7fd04" y="418.07919"/>
     <use style="fill:#1f77b4;stroke:#1f77b4;" x="144.262915" xlink:href="#mb456a7fd04" y="417.862161"/>
     <use style="fill:#1f77b4;stroke:#1f77b4;" x="144.262915" xlink:href="#mb456a7fd04" y="417.862161"/>
     <use style="fill:#1f77b4;stroke:#1f77b4;" x="145.198842" xlink:href="#mb456a7fd04" y="417.648892"/>
     <use style="fill:#1f77b4;stroke:#1f77b4;" x="149.87848" xlink:href="#mb456a7fd04" y="416.639816"/>
     <use style="fill:#1f77b4;stroke:#1f77b4;" x="150.814407" xlink:href="#mb456a7fd04" y="416.449627"/>
     <use style="fill:#1f77b4;stroke:#1f77b4;" x="151.750335" xlink:href="#mb456a7fd04" y="416.263367"/>
     <use style="fill:#1f77b4;stroke:#1f77b4;" x="152.686263" xlink:href="#mb456a7fd04" y="416.08106"/>
     <use style="fill:#1f77b4;stroke:#1f77b4;" x="153.62219" xlink:href="#mb456a7fd04" y="415.902728"/>
     <use style="fill:#1f77b4;stroke:#1f77b4;" x="153.62219" xlink:href="#mb456a7fd04" y="415.902728"/>
     <use style="fill:#1f77b4;stroke:#1f77b4;" x="153.62219" xlink:href="#mb456a7fd04" y="415.902728"/>
     <use style="fill:#1f77b4;stroke:#1f77b4;" x="157.3659" xlink:href="#mb456a7fd04" y="415.229577"/>
     <use style="fill:#1f77b4;stroke:#1f77b4;" x="162.981466" xlink:href="#mb456a7fd04" y="414.342578"/>
     <use style="fill:#1f77b4;stroke:#1f77b4;" x="166.725176" xlink:href="#mb456a7fd04" y="413.834758"/>
     <use style="fill:#1f77b4;stroke:#1f77b4;" x="177.956306" xlink:href="#mb456a7fd04" y="412.722637"/>
     <use style="fill:#1f77b4;stroke:#1f77b4;" x="179.828161" xlink:href="#mb456a7fd04" y="412.598259"/>
     <use style="fill:#1f77b4;stroke:#1f77b4;" x="202.290422" xlink:href="#mb456a7fd04" y="412.488622"/>
     <use style="fill:#1f77b4;stroke:#1f77b4;" x="215.393408" xlink:href="#mb456a7fd04" y="413.599829"/>
     <use style="fill:#1f77b4;stroke:#1f77b4;" x="323.961003" xlink:href="#mb456a7fd04" y="448.443102"/>
     <use style="fill:#1f77b4;stroke:#1f77b4;" x="562.622526" xlink:href="#mb456a7fd04" y="515.064432"/>
     <use style="fill:#1f77b4;stroke:#1f77b4;" x="901.428295" xlink:href="#mb456a7fd04" y="519.155877"/>
    </g>
   </g>
   <g id="patch_13">
    <path d="M 102.47375 519.156562 
L 102.47375 29.916562 
" style="fill:none;stroke:#000000;stroke-linecap:square;stroke-linejoin:miter;stroke-width:0.8;"/>
   </g>
   <g id="patch_14">
    <path d="M 939.47375 519.156562 
L 939.47375 29.916562 
" style="fill:none;stroke:#000000;stroke-linecap:square;stroke-linejoin:miter;stroke-width:0.8;"/>
   </g>
   <g id="patch_15">
    <path d="M 102.47375 519.156562 
L 939.47375 519.156562 
" style="fill:none;stroke:#000000;stroke-linecap:square;stroke-linejoin:miter;stroke-width:0.8;"/>
   </g>
   <g id="patch_16">
    <path d="M 102.47375 29.916562 
L 939.47375 29.916562 
" style="fill:none;stroke:#000000;stroke-linecap:square;stroke-linejoin:miter;stroke-width:0.8;"/>
   </g>
   <g id="text_18">
    <!-- Density-Frequency Dist. of Processed Species - Pucciniomycetes -->
    <defs>
     <path d="M 24.703125 5.171875 
L 33.796875 5.171875 
Q 48 5.171875 55.59375 13.28125 
Q 63.1875 21.390625 63.1875 36.53125 
Q 63.1875 51.65625 55.609375 59.65625 
Q 48.046875 67.671875 33.796875 67.671875 
L 24.703125 67.671875 
z
M 5.515625 0 
L 5.515625 5.171875 
L 14.796875 5.171875 
L 14.796875 67.671875 
L 5.515625 67.671875 
L 5.515625 72.90625 
L 34.515625 72.90625 
Q 53.375 72.90625 63.890625 63.28125 
Q 74.421875 53.65625 74.421875 36.53125 
Q 74.421875 19.34375 63.875 9.671875 
Q 53.328125 0 34.515625 0 
z
" id="DejaVuSerif-68"/>
     <path d="M 4.390625 30.609375 
L 29.390625 30.609375 
L 29.390625 23 
L 4.390625 23 
z
" id="DejaVuSerif-45"/>
     <path d="M 43.015625 63.71875 
L 38.28125 63.71875 
Q 38.234375 67.390625 36.203125 69.28125 
Q 34.1875 71.1875 30.328125 71.1875 
Q 25.296875 71.1875 23.234375 68.421875 
Q 21.1875 65.671875 21.1875 58.59375 
L 21.1875 51.90625 
L 35.6875 51.90625 
L 35.6875 46.6875 
L 21.1875 46.6875 
L 21.1875 5.171875 
L 32.71875 5.171875 
L 32.71875 0 
L 3.609375 0 
L 3.609375 5.171875 
L 12.203125 5.171875 
L 12.203125 46.6875 
L 3.609375 46.6875 
L 3.609375 51.90625 
L 12.203125 51.90625 
L 12.203125 58.40625 
Q 12.203125 67.09375 16.71875 71.53125 
Q 21.234375 75.984375 29.984375 75.984375 
Q 33.25 75.984375 36.515625 75.390625 
Q 39.796875 74.8125 43.015625 73.578125 
z
" id="DejaVuSerif-102"/>
     <path d="M 24.703125 37.109375 
L 37.59375 37.109375 
Q 44.875 37.109375 48.671875 41.03125 
Q 52.484375 44.96875 52.484375 52.390625 
Q 52.484375 59.859375 48.671875 63.765625 
Q 44.875 67.671875 37.59375 67.671875 
L 24.703125 67.671875 
z
M 5.515625 0 
L 5.515625 5.171875 
L 14.796875 5.171875 
L 14.796875 67.671875 
L 5.515625 67.671875 
L 5.515625 72.90625 
L 39.984375 72.90625 
Q 50.921875 72.90625 57.3125 67.359375 
Q 63.71875 61.8125 63.71875 52.390625 
Q 63.71875 43.015625 57.3125 37.453125 
Q 50.921875 31.890625 39.984375 31.890625 
L 24.703125 31.890625 
L 24.703125 5.171875 
L 35.984375 5.171875 
L 35.984375 0 
z
" id="DejaVuSerif-80"/>
     <path d="M 52.484375 5.171875 
L 61.078125 5.171875 
L 61.078125 0 
L 43.5 0 
L 43.5 8.109375 
Q 40.875 3.21875 36.796875 0.890625 
Q 32.71875 -1.421875 26.703125 -1.421875 
Q 17.140625 -1.421875 11.0625 6.171875 
Q 4.984375 13.765625 4.984375 25.984375 
Q 4.984375 38.1875 11.03125 45.75 
Q 17.09375 53.328125 26.703125 53.328125 
Q 32.71875 53.328125 36.796875 51 
Q 40.875 48.6875 43.5 43.796875 
L 43.5 70.796875 
L 35.015625 70.796875 
L 35.015625 75.984375 
L 52.484375 75.984375 
z
M 43.5 23.390625 
L 43.5 28.515625 
Q 43.5 37.84375 39.90625 42.765625 
Q 36.328125 47.703125 29.5 47.703125 
Q 22.5625 47.703125 19.015625 42.234375 
Q 15.484375 36.765625 15.484375 25.984375 
Q 15.484375 15.234375 19.015625 9.71875 
Q 22.5625 4.203125 29.5 4.203125 
Q 36.328125 4.203125 39.90625 9.109375 
Q 43.5 14.015625 43.5 23.390625 
z
" id="DejaVuSerif-100"/>
     <path d="M 51.8125 41.796875 
Q 54.390625 47.515625 58.421875 50.421875 
Q 62.453125 53.328125 67.828125 53.328125 
Q 75.984375 53.328125 79.984375 48.265625 
Q 83.984375 43.21875 83.984375 33.015625 
L 83.984375 5.171875 
L 92.09375 5.171875 
L 92.09375 0 
L 67.1875 0 
L 67.1875 5.171875 
L 75 5.171875 
L 75 31.984375 
Q 75 39.9375 72.65625 43.3125 
Q 70.3125 46.6875 64.890625 46.6875 
Q 58.890625 46.6875 55.734375 42.140625 
Q 52.59375 37.59375 52.59375 28.90625 
L 52.59375 5.171875 
L 60.40625 5.171875 
L 60.40625 0 
L 35.796875 0 
L 35.796875 5.171875 
L 43.609375 5.171875 
L 43.609375 32.328125 
Q 43.609375 40.09375 41.265625 43.390625 
Q 38.921875 46.6875 33.5 46.6875 
Q 27.484375 46.6875 24.328125 42.140625 
Q 21.1875 37.59375 21.1875 28.90625 
L 21.1875 5.171875 
L 29 5.171875 
L 29 0 
L 4.109375 0 
L 4.109375 5.171875 
L 12.203125 5.171875 
L 12.203125 46.78125 
L 3.609375 46.78125 
L 3.609375 51.90625 
L 21.1875 51.90625 
L 21.1875 42.671875 
Q 23.6875 47.859375 27.53125 50.59375 
Q 31.390625 53.328125 36.28125 53.328125 
Q 42.328125 53.328125 46.375 50.3125 
Q 50.4375 47.3125 51.8125 41.796875 
z
" id="DejaVuSerif-109"/>
    </defs>
    <g transform="translate(161.105312 23.916562)scale(0.22 -0.22)">
     <use xlink:href="#DejaVuSerif-68"/>
     <use x="80.175781" xlink:href="#DejaVuSerif-101"/>
     <use x="139.355469" xlink:href="#DejaVuSerif-110"/>
     <use x="203.759766" xlink:href="#DejaVuSerif-115"/>
     <use x="255.078125" xlink:href="#DejaVuSerif-105"/>
     <use x="287.060547" xlink:href="#DejaVuSerif-116"/>
     <use x="327.246094" xlink:href="#DejaVuSerif-121"/>
     <use x="383.740234" xlink:href="#DejaVuSerif-45"/>
     <use x="417.529297" xlink:href="#DejaVuSerif-70"/>
     <use x="486.914062" xlink:href="#DejaVuSerif-114"/>
     <use x="534.716797" xlink:href="#DejaVuSerif-101"/>
     <use x="593.896484" xlink:href="#DejaVuSerif-113"/>
     <use x="657.910156" xlink:href="#DejaVuSerif-117"/>
     <use x="722.314453" xlink:href="#DejaVuSerif-101"/>
     <use x="781.494141" xlink:href="#DejaVuSerif-110"/>
     <use x="845.898438" xlink:href="#DejaVuSerif-99"/>
     <use x="901.904297" xlink:href="#DejaVuSerif-121"/>
     <use x="958.398438" xlink:href="#DejaVuSerif-32"/>
     <use x="990.185547" xlink:href="#DejaVuSerif-68"/>
     <use x="1070.361328" xlink:href="#DejaVuSerif-105"/>
     <use x="1102.34375" xlink:href="#DejaVuSerif-115"/>
     <use x="1153.662109" xlink:href="#DejaVuSerif-116"/>
     <use x="1193.847656" xlink:href="#DejaVuSerif-46"/>
     <use x="1225.634766" xlink:href="#DejaVuSerif-32"/>
     <use x="1257.421875" xlink:href="#DejaVuSerif-111"/>
     <use x="1317.626953" xlink:href="#DejaVuSerif-102"/>
     <use x="1354.638672" xlink:href="#DejaVuSerif-32"/>
     <use x="1386.425781" xlink:href="#DejaVuSerif-80"/>
     <use x="1453.710938" xlink:href="#DejaVuSerif-114"/>
     <use x="1501.513672" xlink:href="#DejaVuSerif-111"/>
     <use x="1561.71875" xlink:href="#DejaVuSerif-99"/>
     <use x="1617.724609" xlink:href="#DejaVuSerif-101"/>
     <use x="1676.904297" xlink:href="#DejaVuSerif-115"/>
     <use x="1728.222656" xlink:href="#DejaVuSerif-115"/>
     <use x="1779.541016" xlink:href="#DejaVuSerif-101"/>
     <use x="1838.720703" xlink:href="#DejaVuSerif-100"/>
     <use x="1902.734375" xlink:href="#DejaVuSerif-32"/>
     <use x="1934.521484" xlink:href="#DejaVuSerif-83"/>
     <use x="2003.027344" xlink:href="#DejaVuSerif-112"/>
     <use x="2067.041016" xlink:href="#DejaVuSerif-101"/>
     <use x="2126.220703" xlink:href="#DejaVuSerif-99"/>
     <use x="2182.226562" xlink:href="#DejaVuSerif-105"/>
     <use x="2214.208984" xlink:href="#DejaVuSerif-101"/>
     <use x="2273.388672" xlink:href="#DejaVuSerif-115"/>
     <use x="2324.707031" xlink:href="#DejaVuSerif-32"/>
     <use x="2356.494141" xlink:href="#DejaVuSerif-45"/>
     <use x="2390.283203" xlink:href="#DejaVuSerif-32"/>
     <use x="2422.070312" xlink:href="#DejaVuSerif-80"/>
     <use x="2489.355469" xlink:href="#DejaVuSerif-117"/>
     <use x="2553.759766" xlink:href="#DejaVuSerif-99"/>
     <use x="2609.765625" xlink:href="#DejaVuSerif-99"/>
     <use x="2665.771484" xlink:href="#DejaVuSerif-105"/>
     <use x="2697.753906" xlink:href="#DejaVuSerif-110"/>
     <use x="2762.158203" xlink:href="#DejaVuSerif-105"/>
     <use x="2794.140625" xlink:href="#DejaVuSerif-111"/>
     <use x="2854.345703" xlink:href="#DejaVuSerif-109"/>
     <use x="2949.169922" xlink:href="#DejaVuSerif-121"/>
     <use x="3005.664062" xlink:href="#DejaVuSerif-99"/>
     <use x="3061.669922" xlink:href="#DejaVuSerif-101"/>
     <use x="3120.849609" xlink:href="#DejaVuSerif-116"/>
     <use x="3161.035156" xlink:href="#DejaVuSerif-101"/>
     <use x="3220.214844" xlink:href="#DejaVuSerif-115"/>
    </g>
   </g>
   <g id="legend_1">
    <g id="patch_17">
     <path d="M 554.00625 112.413125 
L 924.07375 112.413125 
Q 928.47375 112.413125 928.47375 108.013125 
L 928.47375 45.316562 
Q 928.47375 40.916562 924.07375 40.916562 
L 554.00625 40.916562 
Q 549.60625 40.916562 549.60625 45.316562 
L 549.60625 108.013125 
Q 549.60625 112.413125 554.00625 112.413125 
z
" style="fill:#ffffff;opacity:0.8;stroke:#cccccc;stroke-linejoin:miter;"/>
    </g>
    <g id="line2d_17">
     <path d="M 558.40625 58.733125 
L 602.40625 58.733125 
" style="fill:none;stroke:#1f77b4;stroke-linecap:square;stroke-width:1.5;"/>
    </g>
    <g id="line2d_18">
     <g>
      <use style="fill:#1f77b4;stroke:#1f77b4;" x="580.40625" xlink:href="#mb456a7fd04" y="58.733125"/>
     </g>
    </g>
    <g id="text_19">
     <!-- density dist.   mean=56.03 -->
     <defs>
      <path d="M 39.796875 16.3125 
L 39.796875 27.296875 
L 28.21875 27.296875 
Q 21.53125 27.296875 18.25 24.40625 
Q 14.984375 21.53125 14.984375 15.578125 
Q 14.984375 10.15625 18.296875 6.984375 
Q 21.625 3.8125 27.296875 3.8125 
Q 32.90625 3.8125 36.34375 7.28125 
Q 39.796875 10.75 39.796875 16.3125 
z
M 48.78125 32.421875 
L 48.78125 5.171875 
L 56.78125 5.171875 
L 56.78125 0 
L 39.796875 0 
L 39.796875 5.609375 
Q 36.8125 2 32.90625 0.28125 
Q 29 -1.421875 23.78125 -1.421875 
Q 15.140625 -1.421875 10.0625 3.171875 
Q 4.984375 7.765625 4.984375 15.578125 
Q 4.984375 23.640625 10.796875 28.078125 
Q 16.609375 32.515625 27.203125 32.515625 
L 39.796875 32.515625 
L 39.796875 36.078125 
Q 39.796875 42 36.203125 45.234375 
Q 32.625 48.484375 26.125 48.484375 
Q 20.75 48.484375 17.578125 46.046875 
Q 14.40625 43.609375 13.625 38.8125 
L 8.984375 38.8125 
L 8.984375 49.3125 
Q 13.671875 51.3125 18.09375 52.3125 
Q 22.515625 53.328125 26.703125 53.328125 
Q 37.5 53.328125 43.140625 47.96875 
Q 48.78125 42.625 48.78125 32.421875 
z
" id="DejaVuSerif-97"/>
      <path d="M 10.59375 45.21875 
L 73.1875 45.21875 
L 73.1875 37.40625 
L 10.59375 37.40625 
z
M 10.59375 25.296875 
L 73.1875 25.296875 
L 73.1875 17.484375 
L 10.59375 17.484375 
z
" id="DejaVuSerif-61"/>
     </defs>
     <g transform="translate(620.00625 66.433125)scale(0.22 -0.22)">
      <use xlink:href="#DejaVuSerif-100"/>
      <use x="64.013672" xlink:href="#DejaVuSerif-101"/>
      <use x="123.193359" xlink:href="#DejaVuSerif-110"/>
      <use x="187.597656" xlink:href="#DejaVuSerif-115"/>
      <use x="238.916016" xlink:href="#DejaVuSerif-105"/>
      <use x="270.898438" xlink:href="#DejaVuSerif-116"/>
      <use x="311.083984" xlink:href="#DejaVuSerif-121"/>
      <use x="367.578125" xlink:href="#DejaVuSerif-32"/>
      <use x="399.365234" xlink:href="#DejaVuSerif-100"/>
      <use x="463.378906" xlink:href="#DejaVuSerif-105"/>
      <use x="495.361328" xlink:href="#DejaVuSerif-115"/>
      <use x="546.679688" xlink:href="#DejaVuSerif-116"/>
      <use x="586.865234" xlink:href="#DejaVuSerif-46"/>
      <use x="618.652344" xlink:href="#DejaVuSerif-32"/>
      <use x="650.439453" xlink:href="#DejaVuSerif-32"/>
      <use x="682.226562" xlink:href="#DejaVuSerif-32"/>
      <use x="714.013672" xlink:href="#DejaVuSerif-109"/>
      <use x="808.837891" xlink:href="#DejaVuSerif-101"/>
      <use x="868.017578" xlink:href="#DejaVuSerif-97"/>
      <use x="927.636719" xlink:href="#DejaVuSerif-110"/>
      <use x="992.041016" xlink:href="#DejaVuSerif-61"/>
      <use x="1075.830078" xlink:href="#DejaVuSerif-53"/>
      <use x="1139.453125" xlink:href="#DejaVuSerif-54"/>
      <use x="1203.076172" xlink:href="#DejaVuSerif-46"/>
      <use x="1234.863281" xlink:href="#DejaVuSerif-48"/>
      <use x="1298.486328" xlink:href="#DejaVuSerif-51"/>
     </g>
    </g>
    <g id="patch_18">
     <path d="M 558.40625 99.037812 
L 602.40625 99.037812 
L 602.40625 83.637812 
L 558.40625 83.637812 
z
" style="fill:#ff7f0e;"/>
    </g>
    <g id="text_20">
     <!-- freq. dist.       std=155.0 -->
     <g transform="translate(620.00625 99.037812)scale(0.22 -0.22)">
      <use xlink:href="#DejaVuSerif-102"/>
      <use x="37.011719" xlink:href="#DejaVuSerif-114"/>
      <use x="84.814453" xlink:href="#DejaVuSerif-101"/>
      <use x="143.994141" xlink:href="#DejaVuSerif-113"/>
      <use x="208.007812" xlink:href="#DejaVuSerif-46"/>
      <use x="239.794922" xlink:href="#DejaVuSerif-32"/>
      <use x="271.582031" xlink:href="#DejaVuSerif-100"/>
      <use x="335.595703" xlink:href="#DejaVuSerif-105"/>
      <use x="367.578125" xlink:href="#DejaVuSerif-115"/>
      <use x="418.896484" xlink:href="#DejaVuSerif-116"/>
      <use x="459.082031" xlink:href="#DejaVuSerif-46"/>
      <use x="490.869141" xlink:href="#DejaVuSerif-32"/>
      <use x="522.65625" xlink:href="#DejaVuSerif-32"/>
      <use x="554.443359" xlink:href="#DejaVuSerif-32"/>
      <use x="586.230469" xlink:href="#DejaVuSerif-32"/>
      <use x="618.017578" xlink:href="#DejaVuSerif-32"/>
      <use x="649.804688" xlink:href="#DejaVuSerif-32"/>
      <use x="681.591797" xlink:href="#DejaVuSerif-32"/>
      <use x="713.378906" xlink:href="#DejaVuSerif-115"/>
      <use x="764.697266" xlink:href="#DejaVuSerif-116"/>
      <use x="804.882812" xlink:href="#DejaVuSerif-100"/>
      <use x="868.896484" xlink:href="#DejaVuSerif-61"/>
      <use x="952.685547" xlink:href="#DejaVuSerif-49"/>
      <use x="1016.308594" xlink:href="#DejaVuSerif-53"/>
      <use x="1079.931641" xlink:href="#DejaVuSerif-53"/>
      <use x="1143.554688" xlink:href="#DejaVuSerif-46"/>
      <use x="1175.341797" xlink:href="#DejaVuSerif-48"/>
     </g>
    </g>
   </g>
  </g>
 </g>
 <defs>
  <clipPath id="p1c1b74b448">
   <rect height="489.24" width="837" x="102.47375" y="29.916562"/>
  </clipPath>
 </defs>
</svg>
