<?xml version="1.0" encoding="utf-8" standalone="no"?>
<!DOCTYPE svg PUBLIC "-//W3C//DTD SVG 1.1//EN"
  "http://www.w3.org/Graphics/SVG/1.1/DTD/svg11.dtd">
<!-- Created with matplotlib (https://matplotlib.org/) -->
<svg height="390.210156pt" version="1.1" viewBox="0 0 653.67625 390.210156" width="653.67625pt" xmlns="http://www.w3.org/2000/svg" xmlns:xlink="http://www.w3.org/1999/xlink">
 <defs>
  <style type="text/css">
*{stroke-linecap:butt;stroke-linejoin:round;}
  </style>
 </defs>
 <g id="figure_1">
  <g id="patch_1">
   <path d="M 0 390.210156 
L 653.67625 390.210156 
L 653.67625 0 
L 0 0 
z
" style="fill:#ffffff;"/>
  </g>
  <g id="axes_1">
   <g id="patch_2">
    <path d="M 88.47625 370.076562 
L 646.47625 370.076562 
L 646.47625 43.916562 
L 88.47625 43.916562 
z
" style="fill:#ffffff;"/>
   </g>
   <g id="patch_3">
    <path clip-path="url(#pa10b8ecfc8)" d="M 113.839886 370.076562 
L 135.895222 370.076562 
L 135.895222 369.694955 
L 113.839886 369.694955 
z
" style="fill:#808080;"/>
   </g>
   <g id="patch_4">
    <path clip-path="url(#pa10b8ecfc8)" d="M 128.543444 370.076562 
L 150.59878 370.076562 
L 150.59878 59.447991 
L 128.543444 59.447991 
z
" style="fill:#808080;"/>
   </g>
   <g id="patch_5">
    <path clip-path="url(#pa10b8ecfc8)" d="M 143.247001 370.076562 
L 165.302337 370.076562 
L 165.302337 368.93174 
L 143.247001 368.93174 
z
" style="fill:#808080;"/>
   </g>
   <g id="patch_6">
    <path clip-path="url(#pa10b8ecfc8)" d="M 157.950558 370.076562 
L 180.005894 370.076562 
L 180.005894 368.168525 
L 157.950558 368.168525 
z
" style="fill:#808080;"/>
   </g>
   <g id="patch_7">
    <path clip-path="url(#pa10b8ecfc8)" d="M 172.654116 370.076562 
L 194.709452 370.076562 
L 194.709452 369.694955 
L 172.654116 369.694955 
z
" style="fill:#808080;"/>
   </g>
   <g id="patch_8">
    <path clip-path="url(#pa10b8ecfc8)" d="M 187.357673 370.076562 
L 209.413009 370.076562 
L 209.413009 364.352449 
L 187.357673 364.352449 
z
" style="fill:#808080;"/>
   </g>
   <g id="patch_9">
    <path clip-path="url(#pa10b8ecfc8)" d="M 202.06123 370.076562 
L 224.116566 370.076562 
L 224.116566 367.786917 
L 202.06123 367.786917 
z
" style="fill:#808080;"/>
   </g>
   <g id="patch_10">
    <path clip-path="url(#pa10b8ecfc8)" d="M 216.764788 370.076562 
L 238.820124 370.076562 
L 238.820124 369.694955 
L 216.764788 369.694955 
z
" style="fill:#808080;"/>
   </g>
   <g id="patch_11">
    <path clip-path="url(#pa10b8ecfc8)" d="M 231.468345 370.076562 
L 253.523681 370.076562 
L 253.523681 365.115664 
L 231.468345 365.115664 
z
" style="fill:#808080;"/>
   </g>
   <g id="patch_12">
    <path clip-path="url(#pa10b8ecfc8)" d="M 246.171902 370.076562 
L 268.227238 370.076562 
L 268.227238 294.899869 
L 246.171902 294.899869 
z
" style="fill:#808080;"/>
   </g>
   <g id="patch_13">
    <path clip-path="url(#pa10b8ecfc8)" d="M 260.875459 370.076562 
L 282.930795 370.076562 
L 282.930795 365.497272 
L 260.875459 365.497272 
z
" style="fill:#808080;"/>
   </g>
   <g id="patch_14">
    <path clip-path="url(#pa10b8ecfc8)" d="M 275.579017 370.076562 
L 297.634353 370.076562 
L 297.634353 364.352449 
L 275.579017 364.352449 
z
" style="fill:#808080;"/>
   </g>
   <g id="patch_15">
    <path clip-path="url(#pa10b8ecfc8)" d="M 290.282574 370.076562 
L 312.33791 370.076562 
L 312.33791 354.430652 
L 290.282574 354.430652 
z
" style="fill:#808080;"/>
   </g>
   <g id="patch_16">
    <path clip-path="url(#pa10b8ecfc8)" d="M 304.986131 370.076562 
L 327.041467 370.076562 
L 327.041467 369.694955 
L 304.986131 369.694955 
z
" style="fill:#808080;"/>
   </g>
   <g id="patch_17">
    <path clip-path="url(#pa10b8ecfc8)" d="M 319.689689 370.076562 
L 341.745025 370.076562 
L 341.745025 368.168525 
L 319.689689 368.168525 
z
" style="fill:#808080;"/>
   </g>
   <g id="patch_18">
    <path clip-path="url(#pa10b8ecfc8)" d="M 334.393246 370.076562 
L 356.448582 370.076562 
L 356.448582 197.589936 
L 334.393246 197.589936 
z
" style="fill:#808080;"/>
   </g>
   <g id="patch_19">
    <path clip-path="url(#pa10b8ecfc8)" d="M 349.096803 370.076562 
L 371.152139 370.076562 
L 371.152139 365.878879 
L 349.096803 365.878879 
z
" style="fill:#808080;"/>
   </g>
   <g id="patch_20">
    <path clip-path="url(#pa10b8ecfc8)" d="M 363.800361 370.076562 
L 385.855697 370.076562 
L 385.855697 368.550132 
L 363.800361 368.550132 
z
" style="fill:#808080;"/>
   </g>
   <g id="patch_21">
    <path clip-path="url(#pa10b8ecfc8)" d="M 378.503918 370.076562 
L 400.559254 370.076562 
L 400.559254 368.93174 
L 378.503918 368.93174 
z
" style="fill:#808080;"/>
   </g>
   <g id="patch_22">
    <path clip-path="url(#pa10b8ecfc8)" d="M 393.207475 370.076562 
L 415.262811 370.076562 
L 415.262811 369.694955 
L 393.207475 369.694955 
z
" style="fill:#808080;"/>
   </g>
   <g id="patch_23">
    <path clip-path="url(#pa10b8ecfc8)" d="M 407.911033 370.076562 
L 429.966369 370.076562 
L 429.966369 360.536373 
L 407.911033 360.536373 
z
" style="fill:#808080;"/>
   </g>
   <g id="patch_24">
    <path clip-path="url(#pa10b8ecfc8)" d="M 422.61459 370.076562 
L 444.669926 370.076562 
L 444.669926 368.93174 
L 422.61459 368.93174 
z
" style="fill:#808080;"/>
   </g>
   <g id="patch_25">
    <path clip-path="url(#pa10b8ecfc8)" d="M 437.318147 370.076562 
L 459.373483 370.076562 
L 459.373483 369.694955 
L 437.318147 369.694955 
z
" style="fill:#808080;"/>
   </g>
   <g id="patch_26">
    <path clip-path="url(#pa10b8ecfc8)" d="M 452.021705 370.076562 
L 474.077041 370.076562 
L 474.077041 368.550132 
L 452.021705 368.550132 
z
" style="fill:#808080;"/>
   </g>
   <g id="patch_27">
    <path clip-path="url(#pa10b8ecfc8)" d="M 466.725262 370.076562 
L 488.780598 370.076562 
L 488.780598 369.694955 
L 466.725262 369.694955 
z
" style="fill:#808080;"/>
   </g>
   <g id="patch_28">
    <path clip-path="url(#pa10b8ecfc8)" d="M 481.428819 370.076562 
L 503.484155 370.076562 
L 503.484155 362.826018 
L 481.428819 362.826018 
z
" style="fill:#808080;"/>
   </g>
   <g id="patch_29">
    <path clip-path="url(#pa10b8ecfc8)" d="M 496.132376 370.076562 
L 518.187712 370.076562 
L 518.187712 359.009943 
L 496.132376 359.009943 
z
" style="fill:#808080;"/>
   </g>
   <g id="patch_30">
    <path clip-path="url(#pa10b8ecfc8)" d="M 510.835934 370.076562 
L 532.89127 370.076562 
L 532.89127 369.694955 
L 510.835934 369.694955 
z
" style="fill:#808080;"/>
   </g>
   <g id="patch_31">
    <path clip-path="url(#pa10b8ecfc8)" d="M 525.539491 370.076562 
L 547.594827 370.076562 
L 547.594827 339.166348 
L 525.539491 339.166348 
z
" style="fill:#808080;"/>
   </g>
   <g id="patch_32">
    <path clip-path="url(#pa10b8ecfc8)" d="M 540.243048 370.076562 
L 562.298384 370.076562 
L 562.298384 344.508855 
L 540.243048 344.508855 
z
" style="fill:#808080;"/>
   </g>
   <g id="patch_33">
    <path clip-path="url(#pa10b8ecfc8)" d="M 554.946606 370.076562 
L 577.001942 370.076562 
L 577.001942 369.694955 
L 554.946606 369.694955 
z
" style="fill:#808080;"/>
   </g>
   <g id="patch_34">
    <path clip-path="url(#pa10b8ecfc8)" d="M 569.650163 370.076562 
L 591.705499 370.076562 
L 591.705499 364.734056 
L 569.650163 364.734056 
z
" style="fill:#808080;"/>
   </g>
   <g id="patch_35">
    <path clip-path="url(#pa10b8ecfc8)" d="M 584.35372 370.076562 
L 606.409056 370.076562 
L 606.409056 353.667436 
L 584.35372 353.667436 
z
" style="fill:#808080;"/>
   </g>
   <g id="patch_36">
    <path clip-path="url(#pa10b8ecfc8)" d="M 599.057278 370.076562 
L 621.112614 370.076562 
L 621.112614 364.352449 
L 599.057278 364.352449 
z
" style="fill:#808080;"/>
   </g>
   <g id="matplotlib.axis_1"/>
   <g id="matplotlib.axis_2">
    <g id="ytick_1">
     <g id="line2d_1">
      <defs>
       <path d="M 0 0 
L -3.5 0 
" id="mc3fc797695" style="stroke:#000000;stroke-width:0.8;"/>
      </defs>
      <g>
       <use style="stroke:#000000;stroke-width:0.8;" x="88.47625" xlink:href="#mc3fc797695" y="370.076562"/>
      </g>
     </g>
     <g id="text_1">
      <!-- 0.00 -->
      <defs>
       <path d="M 31.78125 3.421875 
Q 39.265625 3.421875 42.96875 11.625 
Q 46.6875 19.828125 46.6875 36.375 
Q 46.6875 52.984375 42.96875 61.1875 
Q 39.265625 69.390625 31.78125 69.390625 
Q 24.3125 69.390625 20.59375 61.1875 
Q 16.890625 52.984375 16.890625 36.375 
Q 16.890625 19.828125 20.59375 11.625 
Q 24.3125 3.421875 31.78125 3.421875 
z
M 31.78125 -1.421875 
Q 19.921875 -1.421875 13.25 8.53125 
Q 6.59375 18.5 6.59375 36.375 
Q 6.59375 54.296875 13.25 64.25 
Q 19.921875 74.21875 31.78125 74.21875 
Q 43.703125 74.21875 50.34375 64.25 
Q 56.984375 54.296875 56.984375 36.375 
Q 56.984375 18.5 50.34375 8.53125 
Q 43.703125 -1.421875 31.78125 -1.421875 
z
" id="DejaVuSerif-48"/>
       <path d="M 9.421875 5.078125 
Q 9.421875 7.8125 11.28125 9.71875 
Q 13.140625 11.625 15.921875 11.625 
Q 18.609375 11.625 20.5 9.71875 
Q 22.40625 7.8125 22.40625 5.078125 
Q 22.40625 2.390625 20.5 0.484375 
Q 18.609375 -1.421875 15.921875 -1.421875 
Q 13.140625 -1.421875 11.28125 0.453125 
Q 9.421875 2.34375 9.421875 5.078125 
z
" id="DejaVuSerif-46"/>
      </defs>
      <g transform="translate(32.491875 378.434844)scale(0.22 -0.22)">
       <use xlink:href="#DejaVuSerif-48"/>
       <use x="63.623047" xlink:href="#DejaVuSerif-46"/>
       <use x="95.410156" xlink:href="#DejaVuSerif-48"/>
       <use x="159.033203" xlink:href="#DejaVuSerif-48"/>
      </g>
     </g>
    </g>
    <g id="ytick_2">
     <g id="line2d_2">
      <g>
       <use style="stroke:#000000;stroke-width:0.8;" x="88.47625" xlink:href="#mc3fc797695" y="333.72844"/>
      </g>
     </g>
     <g id="text_2">
      <!-- 0.05 -->
      <defs>
       <path d="M 50.296875 72.90625 
L 50.296875 64.890625 
L 16.890625 64.890625 
L 16.890625 44 
Q 19.4375 45.75 22.828125 46.625 
Q 26.21875 47.515625 30.421875 47.515625 
Q 42.234375 47.515625 49.0625 40.96875 
Q 55.90625 34.421875 55.90625 23.09375 
Q 55.90625 11.53125 49 5.046875 
Q 42.09375 -1.421875 29.59375 -1.421875 
Q 24.5625 -1.421875 19.28125 -0.1875 
Q 14.015625 1.03125 8.5 3.515625 
L 8.5 17.671875 
L 14.015625 17.671875 
Q 14.453125 10.75 18.421875 7.078125 
Q 22.40625 3.421875 29.59375 3.421875 
Q 37.3125 3.421875 41.453125 8.5 
Q 45.609375 13.578125 45.609375 23.09375 
Q 45.609375 32.5625 41.484375 37.609375 
Q 37.359375 42.671875 29.59375 42.671875 
Q 25.203125 42.671875 21.84375 41.109375 
Q 18.5 39.546875 15.921875 36.28125 
L 11.71875 36.28125 
L 11.71875 72.90625 
z
" id="DejaVuSerif-53"/>
      </defs>
      <g transform="translate(32.491875 342.086722)scale(0.22 -0.22)">
       <use xlink:href="#DejaVuSerif-48"/>
       <use x="63.623047" xlink:href="#DejaVuSerif-46"/>
       <use x="95.410156" xlink:href="#DejaVuSerif-48"/>
       <use x="159.033203" xlink:href="#DejaVuSerif-53"/>
      </g>
     </g>
    </g>
    <g id="ytick_3">
     <g id="line2d_3">
      <g>
       <use style="stroke:#000000;stroke-width:0.8;" x="88.47625" xlink:href="#mc3fc797695" y="297.380318"/>
      </g>
     </g>
     <g id="text_3">
      <!-- 0.10 -->
      <defs>
       <path d="M 14.203125 0 
L 14.203125 5.171875 
L 26.90625 5.171875 
L 26.90625 65.828125 
L 12.203125 56.296875 
L 12.203125 62.703125 
L 29.984375 74.21875 
L 36.71875 74.21875 
L 36.71875 5.171875 
L 49.421875 5.171875 
L 49.421875 0 
z
" id="DejaVuSerif-49"/>
      </defs>
      <g transform="translate(32.491875 305.738599)scale(0.22 -0.22)">
       <use xlink:href="#DejaVuSerif-48"/>
       <use x="63.623047" xlink:href="#DejaVuSerif-46"/>
       <use x="95.410156" xlink:href="#DejaVuSerif-49"/>
       <use x="159.033203" xlink:href="#DejaVuSerif-48"/>
      </g>
     </g>
    </g>
    <g id="ytick_4">
     <g id="line2d_4">
      <g>
       <use style="stroke:#000000;stroke-width:0.8;" x="88.47625" xlink:href="#mc3fc797695" y="261.032196"/>
      </g>
     </g>
     <g id="text_4">
      <!-- 0.15 -->
      <g transform="translate(32.491875 269.390477)scale(0.22 -0.22)">
       <use xlink:href="#DejaVuSerif-48"/>
       <use x="63.623047" xlink:href="#DejaVuSerif-46"/>
       <use x="95.410156" xlink:href="#DejaVuSerif-49"/>
       <use x="159.033203" xlink:href="#DejaVuSerif-53"/>
      </g>
     </g>
    </g>
    <g id="ytick_5">
     <g id="line2d_5">
      <g>
       <use style="stroke:#000000;stroke-width:0.8;" x="88.47625" xlink:href="#mc3fc797695" y="224.684074"/>
      </g>
     </g>
     <g id="text_5">
      <!-- 0.20 -->
      <defs>
       <path d="M 12.796875 55.515625 
L 7.328125 55.515625 
L 7.328125 68.5 
Q 12.546875 71.296875 17.84375 72.75 
Q 23.140625 74.21875 28.21875 74.21875 
Q 39.59375 74.21875 46.1875 68.703125 
Q 52.78125 63.1875 52.78125 53.71875 
Q 52.78125 43.015625 37.84375 28.125 
Q 36.671875 27 36.078125 26.421875 
L 17.671875 8.015625 
L 48.09375 8.015625 
L 48.09375 17 
L 53.8125 17 
L 53.8125 0 
L 6.78125 0 
L 6.78125 5.328125 
L 28.90625 27.390625 
Q 36.234375 34.71875 39.359375 40.84375 
Q 42.484375 46.96875 42.484375 53.71875 
Q 42.484375 61.078125 38.640625 65.234375 
Q 34.8125 69.390625 28.078125 69.390625 
Q 21.09375 69.390625 17.28125 65.921875 
Q 13.484375 62.453125 12.796875 55.515625 
z
" id="DejaVuSerif-50"/>
      </defs>
      <g transform="translate(32.491875 233.042355)scale(0.22 -0.22)">
       <use xlink:href="#DejaVuSerif-48"/>
       <use x="63.623047" xlink:href="#DejaVuSerif-46"/>
       <use x="95.410156" xlink:href="#DejaVuSerif-50"/>
       <use x="159.033203" xlink:href="#DejaVuSerif-48"/>
      </g>
     </g>
    </g>
    <g id="ytick_6">
     <g id="line2d_6">
      <g>
       <use style="stroke:#000000;stroke-width:0.8;" x="88.47625" xlink:href="#mc3fc797695" y="188.335952"/>
      </g>
     </g>
     <g id="text_6">
      <!-- 0.25 -->
      <g transform="translate(32.491875 196.694233)scale(0.22 -0.22)">
       <use xlink:href="#DejaVuSerif-48"/>
       <use x="63.623047" xlink:href="#DejaVuSerif-46"/>
       <use x="95.410156" xlink:href="#DejaVuSerif-50"/>
       <use x="159.033203" xlink:href="#DejaVuSerif-53"/>
      </g>
     </g>
    </g>
    <g id="ytick_7">
     <g id="line2d_7">
      <g>
       <use style="stroke:#000000;stroke-width:0.8;" x="88.47625" xlink:href="#mc3fc797695" y="151.98783"/>
      </g>
     </g>
     <g id="text_7">
      <!-- 0.30 -->
      <defs>
       <path d="M 9.71875 69.828125 
Q 15.4375 71.96875 20.671875 73.09375 
Q 25.921875 74.21875 30.515625 74.21875 
Q 41.21875 74.21875 47.21875 69.59375 
Q 53.21875 64.984375 53.21875 56.78125 
Q 53.21875 50.203125 49.0625 45.78125 
Q 44.921875 41.359375 37.3125 39.796875 
Q 46.296875 38.53125 51.25 33.28125 
Q 56.203125 28.03125 56.203125 19.671875 
Q 56.203125 9.46875 49.34375 4.015625 
Q 42.484375 -1.421875 29.59375 -1.421875 
Q 23.875 -1.421875 18.421875 -0.1875 
Q 12.984375 1.03125 7.625 3.515625 
L 7.625 17.671875 
L 13.09375 17.671875 
Q 13.578125 10.640625 17.828125 7.03125 
Q 22.078125 3.421875 29.78125 3.421875 
Q 37.25 3.421875 41.578125 7.734375 
Q 45.90625 12.0625 45.90625 19.578125 
Q 45.90625 28.171875 41.453125 32.59375 
Q 37.015625 37.015625 28.421875 37.015625 
L 23.78125 37.015625 
L 23.78125 42 
L 26.21875 42 
Q 34.765625 42 39.03125 45.53125 
Q 43.3125 49.078125 43.3125 56.203125 
Q 43.3125 62.59375 39.796875 65.984375 
Q 36.28125 69.390625 29.6875 69.390625 
Q 23.09375 69.390625 19.453125 66.265625 
Q 15.828125 63.140625 15.1875 56.984375 
L 9.71875 56.984375 
z
" id="DejaVuSerif-51"/>
      </defs>
      <g transform="translate(32.491875 160.346111)scale(0.22 -0.22)">
       <use xlink:href="#DejaVuSerif-48"/>
       <use x="63.623047" xlink:href="#DejaVuSerif-46"/>
       <use x="95.410156" xlink:href="#DejaVuSerif-51"/>
       <use x="159.033203" xlink:href="#DejaVuSerif-48"/>
      </g>
     </g>
    </g>
    <g id="ytick_8">
     <g id="line2d_8">
      <g>
       <use style="stroke:#000000;stroke-width:0.8;" x="88.47625" xlink:href="#mc3fc797695" y="115.639707"/>
      </g>
     </g>
     <g id="text_8">
      <!-- 0.35 -->
      <g transform="translate(32.491875 123.997989)scale(0.22 -0.22)">
       <use xlink:href="#DejaVuSerif-48"/>
       <use x="63.623047" xlink:href="#DejaVuSerif-46"/>
       <use x="95.410156" xlink:href="#DejaVuSerif-51"/>
       <use x="159.033203" xlink:href="#DejaVuSerif-53"/>
      </g>
     </g>
    </g>
    <g id="ytick_9">
     <g id="line2d_9">
      <g>
       <use style="stroke:#000000;stroke-width:0.8;" x="88.47625" xlink:href="#mc3fc797695" y="79.291585"/>
      </g>
     </g>
     <g id="text_9">
      <!-- 0.40 -->
      <defs>
       <path d="M 34.90625 24.703125 
L 34.90625 63.484375 
L 10.015625 24.703125 
z
M 56.390625 0 
L 23.1875 0 
L 23.1875 5.171875 
L 34.90625 5.171875 
L 34.90625 19.484375 
L 3.078125 19.484375 
L 3.078125 24.8125 
L 35.015625 74.21875 
L 44.671875 74.21875 
L 44.671875 24.703125 
L 58.59375 24.703125 
L 58.59375 19.484375 
L 44.671875 19.484375 
L 44.671875 5.171875 
L 56.390625 5.171875 
z
" id="DejaVuSerif-52"/>
      </defs>
      <g transform="translate(32.491875 87.649867)scale(0.22 -0.22)">
       <use xlink:href="#DejaVuSerif-48"/>
       <use x="63.623047" xlink:href="#DejaVuSerif-46"/>
       <use x="95.410156" xlink:href="#DejaVuSerif-52"/>
       <use x="159.033203" xlink:href="#DejaVuSerif-48"/>
      </g>
     </g>
    </g>
    <g id="text_10">
     <!-- Frequency -->
     <defs>
      <path d="M 5.515625 0 
L 5.515625 5.171875 
L 14.796875 5.171875 
L 14.796875 67.671875 
L 5.515625 67.671875 
L 5.515625 72.90625 
L 65.1875 72.90625 
L 65.1875 56.6875 
L 59.1875 56.6875 
L 59.1875 66.890625 
L 24.703125 66.890625 
L 24.703125 42.484375 
L 49.609375 42.484375 
L 49.609375 51.609375 
L 55.609375 51.609375 
L 55.609375 27.390625 
L 49.609375 27.390625 
L 49.609375 36.53125 
L 24.703125 36.53125 
L 24.703125 5.171875 
L 36.375 5.171875 
L 36.375 0 
z
" id="DejaVuSerif-70"/>
      <path d="M 47.796875 52 
L 47.796875 39.015625 
L 42.625 39.015625 
Q 42.390625 42.875 40.484375 44.78125 
Q 38.578125 46.6875 34.90625 46.6875 
Q 28.265625 46.6875 24.71875 42.09375 
Q 21.1875 37.5 21.1875 28.90625 
L 21.1875 5.171875 
L 31.59375 5.171875 
L 31.59375 0 
L 4.109375 0 
L 4.109375 5.171875 
L 12.203125 5.171875 
L 12.203125 46.78125 
L 3.609375 46.78125 
L 3.609375 51.90625 
L 21.1875 51.90625 
L 21.1875 42.671875 
Q 23.828125 48.09375 27.96875 50.703125 
Q 32.125 53.328125 38.09375 53.328125 
Q 40.28125 53.328125 42.703125 52.984375 
Q 45.125 52.640625 47.796875 52 
z
" id="DejaVuSerif-114"/>
      <path d="M 54.203125 25 
L 15.484375 25 
L 15.484375 24.609375 
Q 15.484375 14.109375 19.4375 8.765625 
Q 23.390625 3.421875 31.109375 3.421875 
Q 37.015625 3.421875 40.796875 6.515625 
Q 44.578125 9.625 46.09375 15.71875 
L 53.328125 15.71875 
Q 51.171875 7.171875 45.375 2.875 
Q 39.59375 -1.421875 30.171875 -1.421875 
Q 18.796875 -1.421875 11.890625 6.078125 
Q 4.984375 13.578125 4.984375 25.984375 
Q 4.984375 38.28125 11.765625 45.796875 
Q 18.5625 53.328125 29.59375 53.328125 
Q 41.359375 53.328125 47.65625 46.0625 
Q 53.953125 38.8125 54.203125 25 
z
M 43.609375 30.171875 
Q 43.3125 39.265625 39.765625 43.875 
Q 36.234375 48.484375 29.59375 48.484375 
Q 23.390625 48.484375 19.828125 43.84375 
Q 16.265625 39.203125 15.484375 30.171875 
z
" id="DejaVuSerif-101"/>
      <path d="M 52.484375 46.6875 
L 52.484375 -15.578125 
L 61.078125 -15.578125 
L 61.078125 -20.796875 
L 35.015625 -20.796875 
L 35.015625 -15.578125 
L 43.5 -15.578125 
L 43.5 8.109375 
Q 40.875 3.21875 36.796875 0.890625 
Q 32.71875 -1.421875 26.703125 -1.421875 
Q 17.140625 -1.421875 11.0625 6.171875 
Q 4.984375 13.765625 4.984375 25.984375 
Q 4.984375 38.1875 11.03125 45.75 
Q 17.09375 53.328125 26.703125 53.328125 
Q 32.71875 53.328125 36.796875 51 
Q 40.875 48.6875 43.5 43.796875 
L 43.5 51.90625 
L 61.078125 51.90625 
L 61.078125 46.6875 
z
M 43.5 28.515625 
Q 43.5 37.84375 39.90625 42.765625 
Q 36.328125 47.703125 29.5 47.703125 
Q 22.5625 47.703125 19.015625 42.234375 
Q 15.484375 36.765625 15.484375 25.984375 
Q 15.484375 15.234375 19.015625 9.71875 
Q 22.5625 4.203125 29.5 4.203125 
Q 36.328125 4.203125 39.90625 9.109375 
Q 43.5 14.015625 43.5 23.390625 
z
" id="DejaVuSerif-113"/>
      <path d="M 35.40625 51.90625 
L 52.203125 51.90625 
L 52.203125 5.171875 
L 60.6875 5.171875 
L 60.6875 0 
L 43.21875 0 
L 43.21875 9.1875 
Q 40.71875 4 36.765625 1.28125 
Q 32.8125 -1.421875 27.59375 -1.421875 
Q 18.953125 -1.421875 14.875 3.484375 
Q 10.796875 8.40625 10.796875 18.890625 
L 10.796875 46.6875 
L 2.6875 46.6875 
L 2.6875 51.90625 
L 19.828125 51.90625 
L 19.828125 21.6875 
Q 19.828125 12.203125 22.140625 8.6875 
Q 24.46875 5.171875 30.421875 5.171875 
Q 36.671875 5.171875 39.9375 9.765625 
Q 43.21875 14.359375 43.21875 23.09375 
L 43.21875 46.6875 
L 35.40625 46.6875 
z
" id="DejaVuSerif-117"/>
      <path d="M 4.109375 0 
L 4.109375 5.171875 
L 12.203125 5.171875 
L 12.203125 46.6875 
L 3.609375 46.6875 
L 3.609375 51.90625 
L 21.1875 51.90625 
L 21.1875 42.671875 
Q 23.6875 47.953125 27.65625 50.640625 
Q 31.640625 53.328125 36.921875 53.328125 
Q 45.515625 53.328125 49.5625 48.390625 
Q 53.609375 43.453125 53.609375 33.015625 
L 53.609375 5.171875 
L 61.625 5.171875 
L 61.625 0 
L 36.8125 0 
L 36.8125 5.171875 
L 44.578125 5.171875 
L 44.578125 30.171875 
Q 44.578125 39.703125 42.234375 43.234375 
Q 39.890625 46.78125 33.984375 46.78125 
Q 27.734375 46.78125 24.453125 42.203125 
Q 21.1875 37.640625 21.1875 28.90625 
L 21.1875 5.171875 
L 29 5.171875 
L 29 0 
z
" id="DejaVuSerif-110"/>
      <path d="M 51.421875 15.578125 
Q 49.515625 7.28125 44.09375 2.921875 
Q 38.671875 -1.421875 30.078125 -1.421875 
Q 18.75 -1.421875 11.859375 6.078125 
Q 4.984375 13.578125 4.984375 25.984375 
Q 4.984375 38.421875 11.859375 45.875 
Q 18.75 53.328125 30.078125 53.328125 
Q 35.015625 53.328125 39.890625 52.171875 
Q 44.78125 51.03125 49.703125 48.6875 
L 49.703125 35.40625 
L 44.484375 35.40625 
Q 43.453125 42.234375 40.015625 45.359375 
Q 36.578125 48.484375 30.171875 48.484375 
Q 22.90625 48.484375 19.1875 42.84375 
Q 15.484375 37.203125 15.484375 25.984375 
Q 15.484375 14.75 19.171875 9.078125 
Q 22.859375 3.421875 30.171875 3.421875 
Q 35.984375 3.421875 39.453125 6.4375 
Q 42.921875 9.46875 44.1875 15.578125 
z
" id="DejaVuSerif-99"/>
      <path d="M 21.578125 -9.515625 
L 25 -0.875 
L 5.609375 46.6875 
L -0.296875 46.6875 
L -0.296875 51.90625 
L 23.578125 51.90625 
L 23.578125 46.6875 
L 15.28125 46.6875 
L 29.890625 10.984375 
L 44.484375 46.6875 
L 36.71875 46.6875 
L 36.71875 51.90625 
L 56.203125 51.90625 
L 56.203125 46.6875 
L 50.390625 46.6875 
L 26.609375 -11.71875 
Q 24.171875 -17.78125 21.1875 -20 
Q 18.21875 -22.21875 12.796875 -22.21875 
Q 10.5 -22.21875 8.078125 -21.828125 
Q 5.671875 -21.4375 3.21875 -20.703125 
L 3.21875 -10.796875 
L 7.8125 -10.796875 
Q 8.109375 -14.109375 9.5 -15.546875 
Q 10.890625 -17 13.8125 -17 
Q 16.5 -17 18.140625 -15.5 
Q 19.78125 -14.015625 21.578125 -9.515625 
z
" id="DejaVuSerif-121"/>
     </defs>
     <g transform="translate(23.60375 266.494531)rotate(-90)scale(0.22 -0.22)">
      <use xlink:href="#DejaVuSerif-70"/>
      <use x="69.384766" xlink:href="#DejaVuSerif-114"/>
      <use x="117.1875" xlink:href="#DejaVuSerif-101"/>
      <use x="176.367188" xlink:href="#DejaVuSerif-113"/>
      <use x="240.380859" xlink:href="#DejaVuSerif-117"/>
      <use x="304.785156" xlink:href="#DejaVuSerif-101"/>
      <use x="363.964844" xlink:href="#DejaVuSerif-110"/>
      <use x="428.369141" xlink:href="#DejaVuSerif-99"/>
      <use x="484.375" xlink:href="#DejaVuSerif-121"/>
     </g>
    </g>
   </g>
   <g id="patch_37">
    <path d="M 88.47625 370.076562 
L 88.47625 43.916562 
" style="fill:none;stroke:#000000;stroke-linecap:square;stroke-linejoin:miter;stroke-width:0.8;"/>
   </g>
   <g id="patch_38">
    <path d="M 646.47625 370.076562 
L 646.47625 43.916562 
" style="fill:none;stroke:#000000;stroke-linecap:square;stroke-linejoin:miter;stroke-width:0.8;"/>
   </g>
   <g id="patch_39">
    <path d="M 88.47625 370.076562 
L 646.47625 370.076562 
" style="fill:none;stroke:#000000;stroke-linecap:square;stroke-linejoin:miter;stroke-width:0.8;"/>
   </g>
   <g id="patch_40">
    <path d="M 88.47625 43.916562 
L 646.47625 43.916562 
" style="fill:none;stroke:#000000;stroke-linecap:square;stroke-linejoin:miter;stroke-width:0.8;"/>
   </g>
   <g id="text_11">
    <!-- Pucciniomycetes Species Distribution -->
    <defs>
     <path d="M 24.703125 37.109375 
L 37.59375 37.109375 
Q 44.875 37.109375 48.671875 41.03125 
Q 52.484375 44.96875 52.484375 52.390625 
Q 52.484375 59.859375 48.671875 63.765625 
Q 44.875 67.671875 37.59375 67.671875 
L 24.703125 67.671875 
z
M 5.515625 0 
L 5.515625 5.171875 
L 14.796875 5.171875 
L 14.796875 67.671875 
L 5.515625 67.671875 
L 5.515625 72.90625 
L 39.984375 72.90625 
Q 50.921875 72.90625 57.3125 67.359375 
Q 63.71875 61.8125 63.71875 52.390625 
Q 63.71875 43.015625 57.3125 37.453125 
Q 50.921875 31.890625 39.984375 31.890625 
L 24.703125 31.890625 
L 24.703125 5.171875 
L 35.984375 5.171875 
L 35.984375 0 
z
" id="DejaVuSerif-80"/>
     <path d="M 9.71875 68.015625 
Q 9.71875 70.265625 11.34375 71.921875 
Q 12.984375 73.578125 15.28125 73.578125 
Q 17.53125 73.578125 19.15625 71.921875 
Q 20.796875 70.265625 20.796875 68.015625 
Q 20.796875 65.71875 19.1875 64.109375 
Q 17.578125 62.5 15.28125 62.5 
Q 12.984375 62.5 11.34375 64.109375 
Q 9.71875 65.71875 9.71875 68.015625 
z
M 21.1875 5.171875 
L 29.6875 5.171875 
L 29.6875 0 
L 3.609375 0 
L 3.609375 5.171875 
L 12.203125 5.171875 
L 12.203125 46.6875 
L 3.609375 46.6875 
L 3.609375 51.90625 
L 21.1875 51.90625 
z
" id="DejaVuSerif-105"/>
     <path d="M 30.078125 3.421875 
Q 37.3125 3.421875 40.984375 9.125 
Q 44.671875 14.84375 44.671875 25.984375 
Q 44.671875 37.109375 40.984375 42.796875 
Q 37.3125 48.484375 30.078125 48.484375 
Q 22.859375 48.484375 19.171875 42.796875 
Q 15.484375 37.109375 15.484375 25.984375 
Q 15.484375 14.84375 19.1875 9.125 
Q 22.90625 3.421875 30.078125 3.421875 
z
M 30.078125 -1.421875 
Q 18.75 -1.421875 11.859375 6.078125 
Q 4.984375 13.578125 4.984375 25.984375 
Q 4.984375 38.375 11.84375 45.84375 
Q 18.703125 53.328125 30.078125 53.328125 
Q 41.453125 53.328125 48.3125 45.84375 
Q 55.171875 38.375 55.171875 25.984375 
Q 55.171875 13.578125 48.3125 6.078125 
Q 41.453125 -1.421875 30.078125 -1.421875 
z
" id="DejaVuSerif-111"/>
     <path d="M 51.8125 41.796875 
Q 54.390625 47.515625 58.421875 50.421875 
Q 62.453125 53.328125 67.828125 53.328125 
Q 75.984375 53.328125 79.984375 48.265625 
Q 83.984375 43.21875 83.984375 33.015625 
L 83.984375 5.171875 
L 92.09375 5.171875 
L 92.09375 0 
L 67.1875 0 
L 67.1875 5.171875 
L 75 5.171875 
L 75 31.984375 
Q 75 39.9375 72.65625 43.3125 
Q 70.3125 46.6875 64.890625 46.6875 
Q 58.890625 46.6875 55.734375 42.140625 
Q 52.59375 37.59375 52.59375 28.90625 
L 52.59375 5.171875 
L 60.40625 5.171875 
L 60.40625 0 
L 35.796875 0 
L 35.796875 5.171875 
L 43.609375 5.171875 
L 43.609375 32.328125 
Q 43.609375 40.09375 41.265625 43.390625 
Q 38.921875 46.6875 33.5 46.6875 
Q 27.484375 46.6875 24.328125 42.140625 
Q 21.1875 37.59375 21.1875 28.90625 
L 21.1875 5.171875 
L 29 5.171875 
L 29 0 
L 4.109375 0 
L 4.109375 5.171875 
L 12.203125 5.171875 
L 12.203125 46.78125 
L 3.609375 46.78125 
L 3.609375 51.90625 
L 21.1875 51.90625 
L 21.1875 42.671875 
Q 23.6875 47.859375 27.53125 50.59375 
Q 31.390625 53.328125 36.28125 53.328125 
Q 42.328125 53.328125 46.375 50.3125 
Q 50.4375 47.3125 51.8125 41.796875 
z
" id="DejaVuSerif-109"/>
     <path d="M 10.796875 46.6875 
L 2.875 46.6875 
L 2.875 51.90625 
L 10.796875 51.90625 
L 10.796875 68.015625 
L 19.828125 68.015625 
L 19.828125 51.90625 
L 36.71875 51.90625 
L 36.71875 46.6875 
L 19.828125 46.6875 
L 19.828125 13.71875 
Q 19.828125 7.125 21.09375 5.265625 
Q 22.359375 3.421875 25.78125 3.421875 
Q 29.296875 3.421875 30.90625 5.484375 
Q 32.515625 7.5625 32.625 12.203125 
L 39.40625 12.203125 
Q 39.015625 5.125 35.546875 1.84375 
Q 32.078125 -1.421875 25 -1.421875 
Q 17.234375 -1.421875 14.015625 2.015625 
Q 10.796875 5.46875 10.796875 13.71875 
z
" id="DejaVuSerif-116"/>
     <path d="M 5.609375 2.875 
L 5.609375 14.984375 
L 10.796875 14.984375 
Q 10.984375 9.1875 14.421875 6.296875 
Q 17.875 3.421875 24.609375 3.421875 
Q 30.671875 3.421875 33.84375 5.6875 
Q 37.015625 7.953125 37.015625 12.3125 
Q 37.015625 15.71875 34.6875 17.8125 
Q 32.375 19.921875 24.90625 22.3125 
L 18.40625 24.515625 
Q 11.71875 26.65625 8.71875 29.875 
Q 5.71875 33.109375 5.71875 38.09375 
Q 5.71875 45.21875 10.9375 49.265625 
Q 16.15625 53.328125 25.390625 53.328125 
Q 29.5 53.328125 34.03125 52.25 
Q 38.578125 51.171875 43.40625 49.125 
L 43.40625 37.796875 
L 38.234375 37.796875 
Q 38.03125 42.828125 34.703125 45.65625 
Q 31.390625 48.484375 25.6875 48.484375 
Q 20.015625 48.484375 17.109375 46.484375 
Q 14.203125 44.484375 14.203125 40.484375 
Q 14.203125 37.203125 16.40625 35.21875 
Q 18.609375 33.25 25.203125 31.203125 
L 32.328125 29 
Q 39.703125 26.703125 42.9375 23.265625 
Q 46.1875 19.828125 46.1875 14.40625 
Q 46.1875 7.03125 40.546875 2.796875 
Q 34.90625 -1.421875 25 -1.421875 
Q 19.96875 -1.421875 15.1875 -0.34375 
Q 10.40625 0.734375 5.609375 2.875 
z
" id="DejaVuSerif-115"/>
     <path id="DejaVuSerif-32"/>
     <path d="M 9.28125 3.515625 
L 9.28125 20.125 
L 14.890625 20.0625 
Q 15.140625 11.765625 19.703125 7.78125 
Q 24.265625 3.8125 33.59375 3.8125 
Q 42.28125 3.8125 46.84375 7.25 
Q 51.421875 10.6875 51.421875 17.28125 
Q 51.421875 22.5625 48.65625 25.390625 
Q 45.90625 28.21875 37.015625 30.90625 
L 27.390625 33.796875 
Q 16.9375 36.96875 12.671875 41.703125 
Q 8.40625 46.4375 8.40625 54.6875 
Q 8.40625 63.96875 14.984375 69.09375 
Q 21.578125 74.21875 33.5 74.21875 
Q 38.578125 74.21875 44.625 73.109375 
Q 50.6875 72.015625 57.515625 69.921875 
L 57.515625 54.390625 
L 52 54.390625 
Q 51.171875 62.109375 46.84375 65.546875 
Q 42.53125 69 33.6875 69 
Q 25.984375 69 21.953125 65.84375 
Q 17.921875 62.703125 17.921875 56.6875 
Q 17.921875 51.46875 20.9375 48.484375 
Q 23.96875 45.515625 33.796875 42.578125 
L 42.828125 39.890625 
Q 52.734375 36.921875 56.953125 32.296875 
Q 61.1875 27.6875 61.1875 19.921875 
Q 61.1875 9.328125 54.390625 3.953125 
Q 47.609375 -1.421875 34.1875 -1.421875 
Q 28.171875 -1.421875 21.9375 -0.1875 
Q 15.71875 1.03125 9.28125 3.515625 
z
" id="DejaVuSerif-83"/>
     <path d="M 20.515625 28.515625 
L 20.515625 23.390625 
Q 20.515625 14.015625 24.09375 9.109375 
Q 27.6875 4.203125 34.515625 4.203125 
Q 41.40625 4.203125 44.9375 9.71875 
Q 48.484375 15.234375 48.484375 25.984375 
Q 48.484375 36.765625 44.9375 42.234375 
Q 41.40625 47.703125 34.515625 47.703125 
Q 27.6875 47.703125 24.09375 42.765625 
Q 20.515625 37.84375 20.515625 28.515625 
z
M 11.53125 46.6875 
L 2.875 46.6875 
L 2.875 51.90625 
L 20.515625 51.90625 
L 20.515625 43.796875 
Q 23.140625 48.6875 27.21875 51 
Q 31.296875 53.328125 37.3125 53.328125 
Q 46.875 53.328125 52.921875 45.75 
Q 58.984375 38.1875 58.984375 25.984375 
Q 58.984375 13.765625 52.921875 6.171875 
Q 46.875 -1.421875 37.3125 -1.421875 
Q 31.296875 -1.421875 27.21875 0.890625 
Q 23.140625 3.21875 20.515625 8.109375 
L 20.515625 -15.578125 
L 29 -15.578125 
L 29 -20.796875 
L 2.875 -20.796875 
L 2.875 -15.578125 
L 11.53125 -15.578125 
z
" id="DejaVuSerif-112"/>
     <path d="M 24.703125 5.171875 
L 33.796875 5.171875 
Q 48 5.171875 55.59375 13.28125 
Q 63.1875 21.390625 63.1875 36.53125 
Q 63.1875 51.65625 55.609375 59.65625 
Q 48.046875 67.671875 33.796875 67.671875 
L 24.703125 67.671875 
z
M 5.515625 0 
L 5.515625 5.171875 
L 14.796875 5.171875 
L 14.796875 67.671875 
L 5.515625 67.671875 
L 5.515625 72.90625 
L 34.515625 72.90625 
Q 53.375 72.90625 63.890625 63.28125 
Q 74.421875 53.65625 74.421875 36.53125 
Q 74.421875 19.34375 63.875 9.671875 
Q 53.328125 0 34.515625 0 
z
" id="DejaVuSerif-68"/>
     <path d="M 11.53125 5.171875 
L 11.53125 70.796875 
L 2.875 70.796875 
L 2.875 75.984375 
L 20.515625 75.984375 
L 20.515625 43.796875 
Q 23.140625 48.6875 27.21875 51 
Q 31.296875 53.328125 37.3125 53.328125 
Q 46.875 53.328125 52.921875 45.75 
Q 58.984375 38.1875 58.984375 25.984375 
Q 58.984375 13.765625 52.921875 6.171875 
Q 46.875 -1.421875 37.3125 -1.421875 
Q 31.296875 -1.421875 27.21875 0.890625 
Q 23.140625 3.21875 20.515625 8.109375 
L 20.515625 0 
L 2.875 0 
L 2.875 5.171875 
z
M 20.515625 23.390625 
Q 20.515625 14.015625 24.09375 9.109375 
Q 27.6875 4.203125 34.515625 4.203125 
Q 41.40625 4.203125 44.9375 9.71875 
Q 48.484375 15.234375 48.484375 25.984375 
Q 48.484375 36.765625 44.9375 42.234375 
Q 41.40625 47.703125 34.515625 47.703125 
Q 27.6875 47.703125 24.09375 42.765625 
Q 20.515625 37.84375 20.515625 28.515625 
z
" id="DejaVuSerif-98"/>
    </defs>
    <g transform="translate(157.171719 23.916562)scale(0.22 -0.22)">
     <use xlink:href="#DejaVuSerif-80"/>
     <use x="67.285156" xlink:href="#DejaVuSerif-117"/>
     <use x="131.689453" xlink:href="#DejaVuSerif-99"/>
     <use x="187.695312" xlink:href="#DejaVuSerif-99"/>
     <use x="243.701172" xlink:href="#DejaVuSerif-105"/>
     <use x="275.683594" xlink:href="#DejaVuSerif-110"/>
     <use x="340.087891" xlink:href="#DejaVuSerif-105"/>
     <use x="372.070312" xlink:href="#DejaVuSerif-111"/>
     <use x="432.275391" xlink:href="#DejaVuSerif-109"/>
     <use x="527.099609" xlink:href="#DejaVuSerif-121"/>
     <use x="583.59375" xlink:href="#DejaVuSerif-99"/>
     <use x="639.599609" xlink:href="#DejaVuSerif-101"/>
     <use x="698.779297" xlink:href="#DejaVuSerif-116"/>
     <use x="738.964844" xlink:href="#DejaVuSerif-101"/>
     <use x="798.144531" xlink:href="#DejaVuSerif-115"/>
     <use x="849.462891" xlink:href="#DejaVuSerif-32"/>
     <use x="881.25" xlink:href="#DejaVuSerif-83"/>
     <use x="949.755859" xlink:href="#DejaVuSerif-112"/>
     <use x="1013.769531" xlink:href="#DejaVuSerif-101"/>
     <use x="1072.949219" xlink:href="#DejaVuSerif-99"/>
     <use x="1128.955078" xlink:href="#DejaVuSerif-105"/>
     <use x="1160.9375" xlink:href="#DejaVuSerif-101"/>
     <use x="1220.117188" xlink:href="#DejaVuSerif-115"/>
     <use x="1271.435547" xlink:href="#DejaVuSerif-32"/>
     <use x="1303.222656" xlink:href="#DejaVuSerif-68"/>
     <use x="1383.398438" xlink:href="#DejaVuSerif-105"/>
     <use x="1415.380859" xlink:href="#DejaVuSerif-115"/>
     <use x="1466.699219" xlink:href="#DejaVuSerif-116"/>
     <use x="1506.884766" xlink:href="#DejaVuSerif-114"/>
     <use x="1554.6875" xlink:href="#DejaVuSerif-105"/>
     <use x="1586.669922" xlink:href="#DejaVuSerif-98"/>
     <use x="1650.683594" xlink:href="#DejaVuSerif-117"/>
     <use x="1715.087891" xlink:href="#DejaVuSerif-116"/>
     <use x="1755.273438" xlink:href="#DejaVuSerif-105"/>
     <use x="1787.255859" xlink:href="#DejaVuSerif-111"/>
     <use x="1847.460938" xlink:href="#DejaVuSerif-110"/>
    </g>
   </g>
  </g>
 </g>
 <defs>
  <clipPath id="pa10b8ecfc8">
   <rect height="326.16" width="558" x="88.47625" y="43.916562"/>
  </clipPath>
 </defs>
</svg>
