<?xml version="1.0" encoding="utf-8" standalone="no"?>
<!DOCTYPE svg PUBLIC "-//W3C//DTD SVG 1.1//EN"
  "http://www.w3.org/Graphics/SVG/1.1/DTD/svg11.dtd">
<!-- Created with matplotlib (https://matplotlib.org/) -->
<svg height="746.784688pt" version="1.1" viewBox="0 0 925.997187 746.784688" width="925.997187pt" xmlns="http://www.w3.org/2000/svg" xmlns:xlink="http://www.w3.org/1999/xlink">
 <defs>
  <style type="text/css">
*{stroke-linecap:butt;stroke-linejoin:round;}
  </style>
 </defs>
 <g id="figure_1">
  <g id="patch_1">
   <path d="M 0 746.784688 
L 925.997187 746.784688 
L 925.997187 0 
L 0 0 
z
" style="fill:#ffffff;"/>
  </g>
  <g id="axes_1">
   <g id="patch_2">
    <path d="M 81.797188 496.44 
L 918.797188 496.44 
L 918.797188 7.2 
L 81.797188 7.2 
z
" style="fill:#ffffff;"/>
   </g>
   <g id="patch_3">
    <path clip-path="url(#p9c7af83e43)" d="M 88.772188 496.44 
L 102.722188 496.44 
L 102.722188 30.497143 
L 88.772188 30.497143 
z
" style="fill:url(#h8e4e752b8b);stroke:#000000;stroke-linejoin:miter;"/>
   </g>
   <g id="patch_4">
    <path clip-path="url(#p9c7af83e43)" d="M 116.672188 496.44 
L 130.622188 496.44 
L 130.622188 30.497143 
L 116.672188 30.497143 
z
" style="fill:url(#h8e4e752b8b);stroke:#000000;stroke-linejoin:miter;"/>
   </g>
   <g id="patch_5">
    <path clip-path="url(#p9c7af83e43)" d="M 144.572188 496.44 
L 158.522188 496.44 
L 158.522188 30.497143 
L 144.572188 30.497143 
z
" style="fill:url(#h8e4e752b8b);stroke:#000000;stroke-linejoin:miter;"/>
   </g>
   <g id="patch_6">
    <path clip-path="url(#p9c7af83e43)" d="M 172.472188 496.44 
L 186.422188 496.44 
L 186.422188 30.497143 
L 172.472188 30.497143 
z
" style="fill:url(#h8e4e752b8b);stroke:#000000;stroke-linejoin:miter;"/>
   </g>
   <g id="patch_7">
    <path clip-path="url(#p9c7af83e43)" d="M 200.372188 496.44 
L 214.322188 496.44 
L 214.322188 30.497143 
L 200.372188 30.497143 
z
" style="fill:url(#h8e4e752b8b);stroke:#000000;stroke-linejoin:miter;"/>
   </g>
   <g id="patch_8">
    <path clip-path="url(#p9c7af83e43)" d="M 228.272188 496.44 
L 242.222188 496.44 
L 242.222188 30.497143 
L 228.272188 30.497143 
z
" style="fill:url(#h8e4e752b8b);stroke:#000000;stroke-linejoin:miter;"/>
   </g>
   <g id="patch_9">
    <path clip-path="url(#p9c7af83e43)" d="M 256.172188 496.44 
L 270.122187 496.44 
L 270.122187 30.497143 
L 256.172188 30.497143 
z
" style="fill:url(#h8e4e752b8b);stroke:#000000;stroke-linejoin:miter;"/>
   </g>
   <g id="patch_10">
    <path clip-path="url(#p9c7af83e43)" d="M 284.072188 496.44 
L 298.022188 496.44 
L 298.022188 30.497143 
L 284.072188 30.497143 
z
" style="fill:url(#h8e4e752b8b);stroke:#000000;stroke-linejoin:miter;"/>
   </g>
   <g id="patch_11">
    <path clip-path="url(#p9c7af83e43)" d="M 311.972188 496.44 
L 325.922188 496.44 
L 325.922188 30.497143 
L 311.972188 30.497143 
z
" style="fill:url(#h8e4e752b8b);stroke:#000000;stroke-linejoin:miter;"/>
   </g>
   <g id="patch_12">
    <path clip-path="url(#p9c7af83e43)" d="M 339.872187 496.44 
L 353.822187 496.44 
L 353.822187 30.497143 
L 339.872187 30.497143 
z
" style="fill:url(#h8e4e752b8b);stroke:#000000;stroke-linejoin:miter;"/>
   </g>
   <g id="patch_13">
    <path clip-path="url(#p9c7af83e43)" d="M 367.772187 496.44 
L 381.722187 496.44 
L 381.722187 42.42528 
L 367.772187 42.42528 
z
" style="fill:url(#h8e4e752b8b);stroke:#000000;stroke-linejoin:miter;"/>
   </g>
   <g id="patch_14">
    <path clip-path="url(#p9c7af83e43)" d="M 395.672188 496.44 
L 409.622188 496.44 
L 409.622188 73.923017 
L 395.672188 73.923017 
z
" style="fill:url(#h8e4e752b8b);stroke:#000000;stroke-linejoin:miter;"/>
   </g>
   <g id="patch_15">
    <path clip-path="url(#p9c7af83e43)" d="M 423.572188 496.44 
L 437.522188 496.44 
L 437.522188 123.685714 
L 423.572188 123.685714 
z
" style="fill:url(#h8e4e752b8b);stroke:#000000;stroke-linejoin:miter;"/>
   </g>
   <g id="patch_16">
    <path clip-path="url(#p9c7af83e43)" d="M 451.472188 496.44 
L 465.422188 496.44 
L 465.422188 146.982857 
L 451.472188 146.982857 
z
" style="fill:url(#h8e4e752b8b);stroke:#000000;stroke-linejoin:miter;"/>
   </g>
   <g id="patch_17">
    <path clip-path="url(#p9c7af83e43)" d="M 479.372187 496.44 
L 493.322187 496.44 
L 493.322187 185.795897 
L 479.372187 185.795897 
z
" style="fill:url(#h8e4e752b8b);stroke:#000000;stroke-linejoin:miter;"/>
   </g>
   <g id="patch_18">
    <path clip-path="url(#p9c7af83e43)" d="M 507.272187 496.44 
L 521.222188 496.44 
L 521.222188 196.885337 
L 507.272187 196.885337 
z
" style="fill:url(#h8e4e752b8b);stroke:#000000;stroke-linejoin:miter;"/>
   </g>
   <g id="patch_19">
    <path clip-path="url(#p9c7af83e43)" d="M 535.172187 496.44 
L 549.122187 496.44 
L 549.122187 263.468571 
L 535.172187 263.468571 
z
" style="fill:url(#h8e4e752b8b);stroke:#000000;stroke-linejoin:miter;"/>
   </g>
   <g id="patch_20">
    <path clip-path="url(#p9c7af83e43)" d="M 563.072188 496.44 
L 577.022188 496.44 
L 577.022188 263.468571 
L 563.072188 263.468571 
z
" style="fill:url(#h8e4e752b8b);stroke:#000000;stroke-linejoin:miter;"/>
   </g>
   <g id="patch_21">
    <path clip-path="url(#p9c7af83e43)" d="M 590.972188 496.44 
L 604.922188 496.44 
L 604.922188 263.468571 
L 590.972188 263.468571 
z
" style="fill:url(#h8e4e752b8b);stroke:#000000;stroke-linejoin:miter;"/>
   </g>
   <g id="patch_22">
    <path clip-path="url(#p9c7af83e43)" d="M 618.872187 496.44 
L 632.822188 496.44 
L 632.822188 307.966114 
L 618.872187 307.966114 
z
" style="fill:url(#h8e4e752b8b);stroke:#000000;stroke-linejoin:miter;"/>
   </g>
   <g id="patch_23">
    <path clip-path="url(#p9c7af83e43)" d="M 646.772187 496.44 
L 660.722188 496.44 
L 660.722188 345.847269 
L 646.772187 345.847269 
z
" style="fill:url(#h8e4e752b8b);stroke:#000000;stroke-linejoin:miter;"/>
   </g>
   <g id="patch_24">
    <path clip-path="url(#p9c7af83e43)" d="M 674.672187 496.44 
L 688.622187 496.44 
L 688.622187 359.406206 
L 674.672187 359.406206 
z
" style="fill:url(#h8e4e752b8b);stroke:#000000;stroke-linejoin:miter;"/>
   </g>
   <g id="patch_25">
    <path clip-path="url(#p9c7af83e43)" d="M 702.572187 496.44 
L 716.522187 496.44 
L 716.522187 375.900583 
L 702.572187 375.900583 
z
" style="fill:url(#h8e4e752b8b);stroke:#000000;stroke-linejoin:miter;"/>
   </g>
   <g id="patch_26">
    <path clip-path="url(#p9c7af83e43)" d="M 730.472188 496.44 
L 744.422188 496.44 
L 744.422188 414.57384 
L 730.472188 414.57384 
z
" style="fill:url(#h8e4e752b8b);stroke:#000000;stroke-linejoin:miter;"/>
   </g>
   <g id="patch_27">
    <path clip-path="url(#p9c7af83e43)" d="M 758.372187 496.44 
L 772.322188 496.44 
L 772.322188 418.767326 
L 758.372187 418.767326 
z
" style="fill:url(#h8e4e752b8b);stroke:#000000;stroke-linejoin:miter;"/>
   </g>
   <g id="patch_28">
    <path clip-path="url(#p9c7af83e43)" d="M 786.272187 496.44 
L 800.222188 496.44 
L 800.222188 418.767326 
L 786.272187 418.767326 
z
" style="fill:url(#h8e4e752b8b);stroke:#000000;stroke-linejoin:miter;"/>
   </g>
   <g id="patch_29">
    <path clip-path="url(#p9c7af83e43)" d="M 814.172187 496.44 
L 828.122187 496.44 
L 828.122187 452.73456 
L 814.172187 452.73456 
z
" style="fill:url(#h8e4e752b8b);stroke:#000000;stroke-linejoin:miter;"/>
   </g>
   <g id="patch_30">
    <path clip-path="url(#p9c7af83e43)" d="M 842.072187 496.44 
L 856.022187 496.44 
L 856.022187 473.142857 
L 842.072187 473.142857 
z
" style="fill:url(#h8e4e752b8b);stroke:#000000;stroke-linejoin:miter;"/>
   </g>
   <g id="patch_31">
    <path clip-path="url(#p9c7af83e43)" d="M 869.972187 496.44 
L 883.922187 496.44 
L 883.922187 474.494091 
L 869.972187 474.494091 
z
" style="fill:url(#h8e4e752b8b);stroke:#000000;stroke-linejoin:miter;"/>
   </g>
   <g id="patch_32">
    <path clip-path="url(#p9c7af83e43)" d="M 897.872187 496.44 
L 911.822188 496.44 
L 911.822188 485.35056 
L 897.872187 485.35056 
z
" style="fill:url(#h8e4e752b8b);stroke:#000000;stroke-linejoin:miter;"/>
   </g>
   <g id="matplotlib.axis_1">
    <g id="xtick_1">
     <g id="line2d_1">
      <defs>
       <path d="M 0 0 
L 0 3.5 
" id="mafd70a2acf" style="stroke:#000000;stroke-width:0.8;"/>
      </defs>
      <g>
       <use style="stroke:#000000;stroke-width:0.8;" x="95.747188" xlink:href="#mafd70a2acf" y="496.44"/>
      </g>
     </g>
     <g id="text_1">
      <!-- Aecidium -->
      <defs>
       <path d="M 20.015625 26.421875 
L 46.78125 26.421875 
L 33.40625 61.078125 
z
M -0.59375 0 
L -0.59375 5.171875 
L 5.8125 5.171875 
L 31.78125 72.90625 
L 39.984375 72.90625 
L 66.015625 5.171875 
L 73.1875 5.171875 
L 73.1875 0 
L 46.6875 0 
L 46.6875 5.171875 
L 54.78125 5.171875 
L 48.6875 21.1875 
L 18.015625 21.1875 
L 11.921875 5.171875 
L 19.921875 5.171875 
L 19.921875 0 
z
" id="DejaVuSerif-65"/>
       <path d="M 54.203125 25 
L 15.484375 25 
L 15.484375 24.609375 
Q 15.484375 14.109375 19.4375 8.765625 
Q 23.390625 3.421875 31.109375 3.421875 
Q 37.015625 3.421875 40.796875 6.515625 
Q 44.578125 9.625 46.09375 15.71875 
L 53.328125 15.71875 
Q 51.171875 7.171875 45.375 2.875 
Q 39.59375 -1.421875 30.171875 -1.421875 
Q 18.796875 -1.421875 11.890625 6.078125 
Q 4.984375 13.578125 4.984375 25.984375 
Q 4.984375 38.28125 11.765625 45.796875 
Q 18.5625 53.328125 29.59375 53.328125 
Q 41.359375 53.328125 47.65625 46.0625 
Q 53.953125 38.8125 54.203125 25 
z
M 43.609375 30.171875 
Q 43.3125 39.265625 39.765625 43.875 
Q 36.234375 48.484375 29.59375 48.484375 
Q 23.390625 48.484375 19.828125 43.84375 
Q 16.265625 39.203125 15.484375 30.171875 
z
" id="DejaVuSerif-101"/>
       <path d="M 51.421875 15.578125 
Q 49.515625 7.28125 44.09375 2.921875 
Q 38.671875 -1.421875 30.078125 -1.421875 
Q 18.75 -1.421875 11.859375 6.078125 
Q 4.984375 13.578125 4.984375 25.984375 
Q 4.984375 38.421875 11.859375 45.875 
Q 18.75 53.328125 30.078125 53.328125 
Q 35.015625 53.328125 39.890625 52.171875 
Q 44.78125 51.03125 49.703125 48.6875 
L 49.703125 35.40625 
L 44.484375 35.40625 
Q 43.453125 42.234375 40.015625 45.359375 
Q 36.578125 48.484375 30.171875 48.484375 
Q 22.90625 48.484375 19.1875 42.84375 
Q 15.484375 37.203125 15.484375 25.984375 
Q 15.484375 14.75 19.171875 9.078125 
Q 22.859375 3.421875 30.171875 3.421875 
Q 35.984375 3.421875 39.453125 6.4375 
Q 42.921875 9.46875 44.1875 15.578125 
z
" id="DejaVuSerif-99"/>
       <path d="M 9.71875 68.015625 
Q 9.71875 70.265625 11.34375 71.921875 
Q 12.984375 73.578125 15.28125 73.578125 
Q 17.53125 73.578125 19.15625 71.921875 
Q 20.796875 70.265625 20.796875 68.015625 
Q 20.796875 65.71875 19.1875 64.109375 
Q 17.578125 62.5 15.28125 62.5 
Q 12.984375 62.5 11.34375 64.109375 
Q 9.71875 65.71875 9.71875 68.015625 
z
M 21.1875 5.171875 
L 29.6875 5.171875 
L 29.6875 0 
L 3.609375 0 
L 3.609375 5.171875 
L 12.203125 5.171875 
L 12.203125 46.6875 
L 3.609375 46.6875 
L 3.609375 51.90625 
L 21.1875 51.90625 
z
" id="DejaVuSerif-105"/>
       <path d="M 52.484375 5.171875 
L 61.078125 5.171875 
L 61.078125 0 
L 43.5 0 
L 43.5 8.109375 
Q 40.875 3.21875 36.796875 0.890625 
Q 32.71875 -1.421875 26.703125 -1.421875 
Q 17.140625 -1.421875 11.0625 6.171875 
Q 4.984375 13.765625 4.984375 25.984375 
Q 4.984375 38.1875 11.03125 45.75 
Q 17.09375 53.328125 26.703125 53.328125 
Q 32.71875 53.328125 36.796875 51 
Q 40.875 48.6875 43.5 43.796875 
L 43.5 70.796875 
L 35.015625 70.796875 
L 35.015625 75.984375 
L 52.484375 75.984375 
z
M 43.5 23.390625 
L 43.5 28.515625 
Q 43.5 37.84375 39.90625 42.765625 
Q 36.328125 47.703125 29.5 47.703125 
Q 22.5625 47.703125 19.015625 42.234375 
Q 15.484375 36.765625 15.484375 25.984375 
Q 15.484375 15.234375 19.015625 9.71875 
Q 22.5625 4.203125 29.5 4.203125 
Q 36.328125 4.203125 39.90625 9.109375 
Q 43.5 14.015625 43.5 23.390625 
z
" id="DejaVuSerif-100"/>
       <path d="M 35.40625 51.90625 
L 52.203125 51.90625 
L 52.203125 5.171875 
L 60.6875 5.171875 
L 60.6875 0 
L 43.21875 0 
L 43.21875 9.1875 
Q 40.71875 4 36.765625 1.28125 
Q 32.8125 -1.421875 27.59375 -1.421875 
Q 18.953125 -1.421875 14.875 3.484375 
Q 10.796875 8.40625 10.796875 18.890625 
L 10.796875 46.6875 
L 2.6875 46.6875 
L 2.6875 51.90625 
L 19.828125 51.90625 
L 19.828125 21.6875 
Q 19.828125 12.203125 22.140625 8.6875 
Q 24.46875 5.171875 30.421875 5.171875 
Q 36.671875 5.171875 39.9375 9.765625 
Q 43.21875 14.359375 43.21875 23.09375 
L 43.21875 46.6875 
L 35.40625 46.6875 
z
" id="DejaVuSerif-117"/>
       <path d="M 51.8125 41.796875 
Q 54.390625 47.515625 58.421875 50.421875 
Q 62.453125 53.328125 67.828125 53.328125 
Q 75.984375 53.328125 79.984375 48.265625 
Q 83.984375 43.21875 83.984375 33.015625 
L 83.984375 5.171875 
L 92.09375 5.171875 
L 92.09375 0 
L 67.1875 0 
L 67.1875 5.171875 
L 75 5.171875 
L 75 31.984375 
Q 75 39.9375 72.65625 43.3125 
Q 70.3125 46.6875 64.890625 46.6875 
Q 58.890625 46.6875 55.734375 42.140625 
Q 52.59375 37.59375 52.59375 28.90625 
L 52.59375 5.171875 
L 60.40625 5.171875 
L 60.40625 0 
L 35.796875 0 
L 35.796875 5.171875 
L 43.609375 5.171875 
L 43.609375 32.328125 
Q 43.609375 40.09375 41.265625 43.390625 
Q 38.921875 46.6875 33.5 46.6875 
Q 27.484375 46.6875 24.328125 42.140625 
Q 21.1875 37.59375 21.1875 28.90625 
L 21.1875 5.171875 
L 29 5.171875 
L 29 0 
L 4.109375 0 
L 4.109375 5.171875 
L 12.203125 5.171875 
L 12.203125 46.78125 
L 3.609375 46.78125 
L 3.609375 51.90625 
L 21.1875 51.90625 
L 21.1875 42.671875 
Q 23.6875 47.859375 27.53125 50.59375 
Q 31.390625 53.328125 36.28125 53.328125 
Q 42.328125 53.328125 46.375 50.3125 
Q 50.4375 47.3125 51.8125 41.796875 
z
" id="DejaVuSerif-109"/>
      </defs>
      <g transform="translate(101.817813 607.8575)rotate(-90)scale(0.22 -0.22)">
       <use xlink:href="#DejaVuSerif-65"/>
       <use x="72.216797" xlink:href="#DejaVuSerif-101"/>
       <use x="131.396484" xlink:href="#DejaVuSerif-99"/>
       <use x="187.402344" xlink:href="#DejaVuSerif-105"/>
       <use x="219.384766" xlink:href="#DejaVuSerif-100"/>
       <use x="283.398438" xlink:href="#DejaVuSerif-105"/>
       <use x="315.380859" xlink:href="#DejaVuSerif-117"/>
       <use x="379.785156" xlink:href="#DejaVuSerif-109"/>
      </g>
     </g>
    </g>
    <g id="xtick_2">
     <g id="line2d_2">
      <g>
       <use style="stroke:#000000;stroke-width:0.8;" x="123.647188" xlink:href="#mafd70a2acf" y="496.44"/>
      </g>
     </g>
     <g id="text_2">
      <!-- Auriculoscypha -->
      <defs>
       <path d="M 47.796875 52 
L 47.796875 39.015625 
L 42.625 39.015625 
Q 42.390625 42.875 40.484375 44.78125 
Q 38.578125 46.6875 34.90625 46.6875 
Q 28.265625 46.6875 24.71875 42.09375 
Q 21.1875 37.5 21.1875 28.90625 
L 21.1875 5.171875 
L 31.59375 5.171875 
L 31.59375 0 
L 4.109375 0 
L 4.109375 5.171875 
L 12.203125 5.171875 
L 12.203125 46.78125 
L 3.609375 46.78125 
L 3.609375 51.90625 
L 21.1875 51.90625 
L 21.1875 42.671875 
Q 23.828125 48.09375 27.96875 50.703125 
Q 32.125 53.328125 38.09375 53.328125 
Q 40.28125 53.328125 42.703125 52.984375 
Q 45.125 52.640625 47.796875 52 
z
" id="DejaVuSerif-114"/>
       <path d="M 20.515625 5.171875 
L 29 5.171875 
L 29 0 
L 2.875 0 
L 2.875 5.171875 
L 11.53125 5.171875 
L 11.53125 70.796875 
L 2.875 70.796875 
L 2.875 75.984375 
L 20.515625 75.984375 
z
" id="DejaVuSerif-108"/>
       <path d="M 30.078125 3.421875 
Q 37.3125 3.421875 40.984375 9.125 
Q 44.671875 14.84375 44.671875 25.984375 
Q 44.671875 37.109375 40.984375 42.796875 
Q 37.3125 48.484375 30.078125 48.484375 
Q 22.859375 48.484375 19.171875 42.796875 
Q 15.484375 37.109375 15.484375 25.984375 
Q 15.484375 14.84375 19.1875 9.125 
Q 22.90625 3.421875 30.078125 3.421875 
z
M 30.078125 -1.421875 
Q 18.75 -1.421875 11.859375 6.078125 
Q 4.984375 13.578125 4.984375 25.984375 
Q 4.984375 38.375 11.84375 45.84375 
Q 18.703125 53.328125 30.078125 53.328125 
Q 41.453125 53.328125 48.3125 45.84375 
Q 55.171875 38.375 55.171875 25.984375 
Q 55.171875 13.578125 48.3125 6.078125 
Q 41.453125 -1.421875 30.078125 -1.421875 
z
" id="DejaVuSerif-111"/>
       <path d="M 5.609375 2.875 
L 5.609375 14.984375 
L 10.796875 14.984375 
Q 10.984375 9.1875 14.421875 6.296875 
Q 17.875 3.421875 24.609375 3.421875 
Q 30.671875 3.421875 33.84375 5.6875 
Q 37.015625 7.953125 37.015625 12.3125 
Q 37.015625 15.71875 34.6875 17.8125 
Q 32.375 19.921875 24.90625 22.3125 
L 18.40625 24.515625 
Q 11.71875 26.65625 8.71875 29.875 
Q 5.71875 33.109375 5.71875 38.09375 
Q 5.71875 45.21875 10.9375 49.265625 
Q 16.15625 53.328125 25.390625 53.328125 
Q 29.5 53.328125 34.03125 52.25 
Q 38.578125 51.171875 43.40625 49.125 
L 43.40625 37.796875 
L 38.234375 37.796875 
Q 38.03125 42.828125 34.703125 45.65625 
Q 31.390625 48.484375 25.6875 48.484375 
Q 20.015625 48.484375 17.109375 46.484375 
Q 14.203125 44.484375 14.203125 40.484375 
Q 14.203125 37.203125 16.40625 35.21875 
Q 18.609375 33.25 25.203125 31.203125 
L 32.328125 29 
Q 39.703125 26.703125 42.9375 23.265625 
Q 46.1875 19.828125 46.1875 14.40625 
Q 46.1875 7.03125 40.546875 2.796875 
Q 34.90625 -1.421875 25 -1.421875 
Q 19.96875 -1.421875 15.1875 -0.34375 
Q 10.40625 0.734375 5.609375 2.875 
z
" id="DejaVuSerif-115"/>
       <path d="M 21.578125 -9.515625 
L 25 -0.875 
L 5.609375 46.6875 
L -0.296875 46.6875 
L -0.296875 51.90625 
L 23.578125 51.90625 
L 23.578125 46.6875 
L 15.28125 46.6875 
L 29.890625 10.984375 
L 44.484375 46.6875 
L 36.71875 46.6875 
L 36.71875 51.90625 
L 56.203125 51.90625 
L 56.203125 46.6875 
L 50.390625 46.6875 
L 26.609375 -11.71875 
Q 24.171875 -17.78125 21.1875 -20 
Q 18.21875 -22.21875 12.796875 -22.21875 
Q 10.5 -22.21875 8.078125 -21.828125 
Q 5.671875 -21.4375 3.21875 -20.703125 
L 3.21875 -10.796875 
L 7.8125 -10.796875 
Q 8.109375 -14.109375 9.5 -15.546875 
Q 10.890625 -17 13.8125 -17 
Q 16.5 -17 18.140625 -15.5 
Q 19.78125 -14.015625 21.578125 -9.515625 
z
" id="DejaVuSerif-121"/>
       <path d="M 20.515625 28.515625 
L 20.515625 23.390625 
Q 20.515625 14.015625 24.09375 9.109375 
Q 27.6875 4.203125 34.515625 4.203125 
Q 41.40625 4.203125 44.9375 9.71875 
Q 48.484375 15.234375 48.484375 25.984375 
Q 48.484375 36.765625 44.9375 42.234375 
Q 41.40625 47.703125 34.515625 47.703125 
Q 27.6875 47.703125 24.09375 42.765625 
Q 20.515625 37.84375 20.515625 28.515625 
z
M 11.53125 46.6875 
L 2.875 46.6875 
L 2.875 51.90625 
L 20.515625 51.90625 
L 20.515625 43.796875 
Q 23.140625 48.6875 27.21875 51 
Q 31.296875 53.328125 37.3125 53.328125 
Q 46.875 53.328125 52.921875 45.75 
Q 58.984375 38.1875 58.984375 25.984375 
Q 58.984375 13.765625 52.921875 6.171875 
Q 46.875 -1.421875 37.3125 -1.421875 
Q 31.296875 -1.421875 27.21875 0.890625 
Q 23.140625 3.21875 20.515625 8.109375 
L 20.515625 -15.578125 
L 29 -15.578125 
L 29 -20.796875 
L 2.875 -20.796875 
L 2.875 -15.578125 
L 11.53125 -15.578125 
z
" id="DejaVuSerif-112"/>
       <path d="M 4.109375 0 
L 4.109375 5.171875 
L 12.203125 5.171875 
L 12.203125 70.796875 
L 3.609375 70.796875 
L 3.609375 75.984375 
L 21.1875 75.984375 
L 21.1875 42.671875 
Q 23.6875 47.953125 27.65625 50.640625 
Q 31.640625 53.328125 36.921875 53.328125 
Q 45.515625 53.328125 49.5625 48.390625 
Q 53.609375 43.453125 53.609375 33.015625 
L 53.609375 5.171875 
L 61.625 5.171875 
L 61.625 0 
L 36.8125 0 
L 36.8125 5.171875 
L 44.578125 5.171875 
L 44.578125 30.171875 
Q 44.578125 39.703125 42.25 43.1875 
Q 39.9375 46.6875 33.984375 46.6875 
Q 27.734375 46.6875 24.453125 42.140625 
Q 21.1875 37.59375 21.1875 28.90625 
L 21.1875 5.171875 
L 29 5.171875 
L 29 0 
z
" id="DejaVuSerif-104"/>
       <path d="M 39.796875 16.3125 
L 39.796875 27.296875 
L 28.21875 27.296875 
Q 21.53125 27.296875 18.25 24.40625 
Q 14.984375 21.53125 14.984375 15.578125 
Q 14.984375 10.15625 18.296875 6.984375 
Q 21.625 3.8125 27.296875 3.8125 
Q 32.90625 3.8125 36.34375 7.28125 
Q 39.796875 10.75 39.796875 16.3125 
z
M 48.78125 32.421875 
L 48.78125 5.171875 
L 56.78125 5.171875 
L 56.78125 0 
L 39.796875 0 
L 39.796875 5.609375 
Q 36.8125 2 32.90625 0.28125 
Q 29 -1.421875 23.78125 -1.421875 
Q 15.140625 -1.421875 10.0625 3.171875 
Q 4.984375 7.765625 4.984375 15.578125 
Q 4.984375 23.640625 10.796875 28.078125 
Q 16.609375 32.515625 27.203125 32.515625 
L 39.796875 32.515625 
L 39.796875 36.078125 
Q 39.796875 42 36.203125 45.234375 
Q 32.625 48.484375 26.125 48.484375 
Q 20.75 48.484375 17.578125 46.046875 
Q 14.40625 43.609375 13.625 38.8125 
L 8.984375 38.8125 
L 8.984375 49.3125 
Q 13.671875 51.3125 18.09375 52.3125 
Q 22.515625 53.328125 26.703125 53.328125 
Q 37.5 53.328125 43.140625 47.96875 
Q 48.78125 42.625 48.78125 32.421875 
z
" id="DejaVuSerif-97"/>
      </defs>
      <g transform="translate(129.561406 675.229063)rotate(-90)scale(0.22 -0.22)">
       <use xlink:href="#DejaVuSerif-65"/>
       <use x="72.216797" xlink:href="#DejaVuSerif-117"/>
       <use x="136.621094" xlink:href="#DejaVuSerif-114"/>
       <use x="184.423828" xlink:href="#DejaVuSerif-105"/>
       <use x="216.40625" xlink:href="#DejaVuSerif-99"/>
       <use x="272.412109" xlink:href="#DejaVuSerif-117"/>
       <use x="336.816406" xlink:href="#DejaVuSerif-108"/>
       <use x="368.798828" xlink:href="#DejaVuSerif-111"/>
       <use x="429.003906" xlink:href="#DejaVuSerif-115"/>
       <use x="480.322266" xlink:href="#DejaVuSerif-99"/>
       <use x="536.328125" xlink:href="#DejaVuSerif-121"/>
       <use x="592.822266" xlink:href="#DejaVuSerif-112"/>
       <use x="656.835938" xlink:href="#DejaVuSerif-104"/>
       <use x="721.240234" xlink:href="#DejaVuSerif-97"/>
      </g>
     </g>
    </g>
    <g id="xtick_3">
     <g id="line2d_3">
      <g>
       <use style="stroke:#000000;stroke-width:0.8;" x="151.547188" xlink:href="#mafd70a2acf" y="496.44"/>
      </g>
     </g>
     <g id="text_3">
      <!-- Insolibasidium -->
      <defs>
       <path d="M 24.703125 5.171875 
L 33.984375 5.171875 
L 33.984375 0 
L 5.515625 0 
L 5.515625 5.171875 
L 14.796875 5.171875 
L 14.796875 67.671875 
L 5.515625 67.671875 
L 5.515625 72.90625 
L 33.984375 72.90625 
L 33.984375 67.671875 
L 24.703125 67.671875 
z
" id="DejaVuSerif-73"/>
       <path d="M 4.109375 0 
L 4.109375 5.171875 
L 12.203125 5.171875 
L 12.203125 46.6875 
L 3.609375 46.6875 
L 3.609375 51.90625 
L 21.1875 51.90625 
L 21.1875 42.671875 
Q 23.6875 47.953125 27.65625 50.640625 
Q 31.640625 53.328125 36.921875 53.328125 
Q 45.515625 53.328125 49.5625 48.390625 
Q 53.609375 43.453125 53.609375 33.015625 
L 53.609375 5.171875 
L 61.625 5.171875 
L 61.625 0 
L 36.8125 0 
L 36.8125 5.171875 
L 44.578125 5.171875 
L 44.578125 30.171875 
Q 44.578125 39.703125 42.234375 43.234375 
Q 39.890625 46.78125 33.984375 46.78125 
Q 27.734375 46.78125 24.453125 42.203125 
Q 21.1875 37.640625 21.1875 28.90625 
L 21.1875 5.171875 
L 29 5.171875 
L 29 0 
z
" id="DejaVuSerif-110"/>
       <path d="M 11.53125 5.171875 
L 11.53125 70.796875 
L 2.875 70.796875 
L 2.875 75.984375 
L 20.515625 75.984375 
L 20.515625 43.796875 
Q 23.140625 48.6875 27.21875 51 
Q 31.296875 53.328125 37.3125 53.328125 
Q 46.875 53.328125 52.921875 45.75 
Q 58.984375 38.1875 58.984375 25.984375 
Q 58.984375 13.765625 52.921875 6.171875 
Q 46.875 -1.421875 37.3125 -1.421875 
Q 31.296875 -1.421875 27.21875 0.890625 
Q 23.140625 3.21875 20.515625 8.109375 
L 20.515625 0 
L 2.875 0 
L 2.875 5.171875 
z
M 20.515625 23.390625 
Q 20.515625 14.015625 24.09375 9.109375 
Q 27.6875 4.203125 34.515625 4.203125 
Q 41.40625 4.203125 44.9375 9.71875 
Q 48.484375 15.234375 48.484375 25.984375 
Q 48.484375 36.765625 44.9375 42.234375 
Q 41.40625 47.703125 34.515625 47.703125 
Q 27.6875 47.703125 24.09375 42.765625 
Q 20.515625 37.84375 20.515625 28.515625 
z
" id="DejaVuSerif-98"/>
      </defs>
      <g transform="translate(157.617813 666.58375)rotate(-90)scale(0.22 -0.22)">
       <use xlink:href="#DejaVuSerif-73"/>
       <use x="39.501953" xlink:href="#DejaVuSerif-110"/>
       <use x="103.90625" xlink:href="#DejaVuSerif-115"/>
       <use x="155.224609" xlink:href="#DejaVuSerif-111"/>
       <use x="215.429688" xlink:href="#DejaVuSerif-108"/>
       <use x="247.412109" xlink:href="#DejaVuSerif-105"/>
       <use x="279.394531" xlink:href="#DejaVuSerif-98"/>
       <use x="343.408203" xlink:href="#DejaVuSerif-97"/>
       <use x="403.027344" xlink:href="#DejaVuSerif-115"/>
       <use x="454.345703" xlink:href="#DejaVuSerif-105"/>
       <use x="486.328125" xlink:href="#DejaVuSerif-100"/>
       <use x="550.341797" xlink:href="#DejaVuSerif-105"/>
       <use x="582.324219" xlink:href="#DejaVuSerif-117"/>
       <use x="646.728516" xlink:href="#DejaVuSerif-109"/>
      </g>
     </g>
    </g>
    <g id="xtick_4">
     <g id="line2d_4">
      <g>
       <use style="stroke:#000000;stroke-width:0.8;" x="179.447188" xlink:href="#mafd70a2acf" y="496.44"/>
      </g>
     </g>
     <g id="text_4">
      <!-- Platygloea -->
      <defs>
       <path d="M 24.703125 37.109375 
L 37.59375 37.109375 
Q 44.875 37.109375 48.671875 41.03125 
Q 52.484375 44.96875 52.484375 52.390625 
Q 52.484375 59.859375 48.671875 63.765625 
Q 44.875 67.671875 37.59375 67.671875 
L 24.703125 67.671875 
z
M 5.515625 0 
L 5.515625 5.171875 
L 14.796875 5.171875 
L 14.796875 67.671875 
L 5.515625 67.671875 
L 5.515625 72.90625 
L 39.984375 72.90625 
Q 50.921875 72.90625 57.3125 67.359375 
Q 63.71875 61.8125 63.71875 52.390625 
Q 63.71875 43.015625 57.3125 37.453125 
Q 50.921875 31.890625 39.984375 31.890625 
L 24.703125 31.890625 
L 24.703125 5.171875 
L 35.984375 5.171875 
L 35.984375 0 
z
" id="DejaVuSerif-80"/>
       <path d="M 10.796875 46.6875 
L 2.875 46.6875 
L 2.875 51.90625 
L 10.796875 51.90625 
L 10.796875 68.015625 
L 19.828125 68.015625 
L 19.828125 51.90625 
L 36.71875 51.90625 
L 36.71875 46.6875 
L 19.828125 46.6875 
L 19.828125 13.71875 
Q 19.828125 7.125 21.09375 5.265625 
Q 22.359375 3.421875 25.78125 3.421875 
Q 29.296875 3.421875 30.90625 5.484375 
Q 32.515625 7.5625 32.625 12.203125 
L 39.40625 12.203125 
Q 39.015625 5.125 35.546875 1.84375 
Q 32.078125 -1.421875 25 -1.421875 
Q 17.234375 -1.421875 14.015625 2.015625 
Q 10.796875 5.46875 10.796875 13.71875 
z
" id="DejaVuSerif-116"/>
       <path d="M 52.484375 46.6875 
L 52.484375 1.125 
Q 52.484375 -10.0625 46.328125 -16.140625 
Q 40.1875 -22.21875 28.8125 -22.21875 
Q 23.6875 -22.21875 19 -21.28125 
Q 14.3125 -20.359375 10.015625 -18.5 
L 10.015625 -7.625 
L 14.703125 -7.625 
Q 15.578125 -12.703125 18.84375 -15.046875 
Q 22.125 -17.390625 28.21875 -17.390625 
Q 36.140625 -17.390625 39.8125 -12.921875 
Q 43.5 -8.453125 43.5 1.125 
L 43.5 8.109375 
Q 40.875 3.21875 36.796875 0.890625 
Q 32.71875 -1.421875 26.703125 -1.421875 
Q 17.140625 -1.421875 11.0625 6.171875 
Q 4.984375 13.765625 4.984375 25.984375 
Q 4.984375 38.1875 11.03125 45.75 
Q 17.09375 53.328125 26.703125 53.328125 
Q 32.71875 53.328125 36.796875 51 
Q 40.875 48.6875 43.5 43.796875 
L 43.5 51.90625 
L 61.078125 51.90625 
L 61.078125 46.6875 
z
M 43.5 28.515625 
Q 43.5 37.84375 39.90625 42.765625 
Q 36.328125 47.703125 29.5 47.703125 
Q 22.5625 47.703125 19.015625 42.234375 
Q 15.484375 36.765625 15.484375 25.984375 
Q 15.484375 15.234375 19.015625 9.71875 
Q 22.5625 4.203125 29.5 4.203125 
Q 36.328125 4.203125 39.90625 9.109375 
Q 43.5 14.015625 43.5 23.390625 
z
" id="DejaVuSerif-103"/>
      </defs>
      <g transform="translate(185.361406 620.170625)rotate(-90)scale(0.22 -0.22)">
       <use xlink:href="#DejaVuSerif-80"/>
       <use x="67.285156" xlink:href="#DejaVuSerif-108"/>
       <use x="99.267578" xlink:href="#DejaVuSerif-97"/>
       <use x="158.886719" xlink:href="#DejaVuSerif-116"/>
       <use x="199.072266" xlink:href="#DejaVuSerif-121"/>
       <use x="255.566406" xlink:href="#DejaVuSerif-103"/>
       <use x="319.580078" xlink:href="#DejaVuSerif-108"/>
       <use x="351.5625" xlink:href="#DejaVuSerif-111"/>
       <use x="411.767578" xlink:href="#DejaVuSerif-101"/>
       <use x="470.947266" xlink:href="#DejaVuSerif-97"/>
      </g>
     </g>
    </g>
    <g id="xtick_5">
     <g id="line2d_5">
      <g>
       <use style="stroke:#000000;stroke-width:0.8;" x="207.347188" xlink:href="#mafd70a2acf" y="496.44"/>
      </g>
     </g>
     <g id="text_5">
      <!-- Septobasidium -->
      <defs>
       <path d="M 9.28125 3.515625 
L 9.28125 20.125 
L 14.890625 20.0625 
Q 15.140625 11.765625 19.703125 7.78125 
Q 24.265625 3.8125 33.59375 3.8125 
Q 42.28125 3.8125 46.84375 7.25 
Q 51.421875 10.6875 51.421875 17.28125 
Q 51.421875 22.5625 48.65625 25.390625 
Q 45.90625 28.21875 37.015625 30.90625 
L 27.390625 33.796875 
Q 16.9375 36.96875 12.671875 41.703125 
Q 8.40625 46.4375 8.40625 54.6875 
Q 8.40625 63.96875 14.984375 69.09375 
Q 21.578125 74.21875 33.5 74.21875 
Q 38.578125 74.21875 44.625 73.109375 
Q 50.6875 72.015625 57.515625 69.921875 
L 57.515625 54.390625 
L 52 54.390625 
Q 51.171875 62.109375 46.84375 65.546875 
Q 42.53125 69 33.6875 69 
Q 25.984375 69 21.953125 65.84375 
Q 17.921875 62.703125 17.921875 56.6875 
Q 17.921875 51.46875 20.9375 48.484375 
Q 23.96875 45.515625 33.796875 42.578125 
L 42.828125 39.890625 
Q 52.734375 36.921875 56.953125 32.296875 
Q 61.1875 27.6875 61.1875 19.921875 
Q 61.1875 9.328125 54.390625 3.953125 
Q 47.609375 -1.421875 34.1875 -1.421875 
Q 28.171875 -1.421875 21.9375 -0.1875 
Q 15.71875 1.03125 9.28125 3.515625 
z
" id="DejaVuSerif-83"/>
      </defs>
      <g transform="translate(213.417813 669.378438)rotate(-90)scale(0.22 -0.22)">
       <use xlink:href="#DejaVuSerif-83"/>
       <use x="68.505859" xlink:href="#DejaVuSerif-101"/>
       <use x="127.685547" xlink:href="#DejaVuSerif-112"/>
       <use x="191.699219" xlink:href="#DejaVuSerif-116"/>
       <use x="231.884766" xlink:href="#DejaVuSerif-111"/>
       <use x="292.089844" xlink:href="#DejaVuSerif-98"/>
       <use x="356.103516" xlink:href="#DejaVuSerif-97"/>
       <use x="415.722656" xlink:href="#DejaVuSerif-115"/>
       <use x="467.041016" xlink:href="#DejaVuSerif-105"/>
       <use x="499.023438" xlink:href="#DejaVuSerif-100"/>
       <use x="563.037109" xlink:href="#DejaVuSerif-105"/>
       <use x="595.019531" xlink:href="#DejaVuSerif-117"/>
       <use x="659.423828" xlink:href="#DejaVuSerif-109"/>
      </g>
     </g>
    </g>
    <g id="xtick_6">
     <g id="line2d_6">
      <g>
       <use style="stroke:#000000;stroke-width:0.8;" x="235.247188" xlink:href="#mafd70a2acf" y="496.44"/>
      </g>
     </g>
     <g id="text_6">
      <!-- Cumminsiella -->
      <defs>
       <path d="M 70.515625 19.28125 
Q 67.28125 9.078125 59.6875 3.828125 
Q 52.09375 -1.421875 40.484375 -1.421875 
Q 33.34375 -1.421875 27.234375 1.015625 
Q 21.140625 3.46875 16.40625 8.203125 
Q 10.9375 13.671875 8.265625 20.625 
Q 5.609375 27.59375 5.609375 36.375 
Q 5.609375 53.375 15.421875 63.796875 
Q 25.25 74.21875 41.3125 74.21875 
Q 47.265625 74.21875 54 72.65625 
Q 60.75 71.09375 68.5 67.921875 
L 68.5 51.125 
L 62.984375 51.125 
Q 61.1875 60.296875 55.734375 64.640625 
Q 50.296875 69 40.484375 69 
Q 28.8125 69 22.796875 60.71875 
Q 16.796875 52.4375 16.796875 36.375 
Q 16.796875 20.359375 22.796875 12.078125 
Q 28.8125 3.8125 40.484375 3.8125 
Q 48.640625 3.8125 53.90625 7.6875 
Q 59.1875 11.578125 61.53125 19.28125 
z
" id="DejaVuSerif-67"/>
      </defs>
      <g transform="translate(241.317813 655.910313)rotate(-90)scale(0.22 -0.22)">
       <use xlink:href="#DejaVuSerif-67"/>
       <use x="76.513672" xlink:href="#DejaVuSerif-117"/>
       <use x="140.917969" xlink:href="#DejaVuSerif-109"/>
       <use x="235.742188" xlink:href="#DejaVuSerif-109"/>
       <use x="330.566406" xlink:href="#DejaVuSerif-105"/>
       <use x="362.548828" xlink:href="#DejaVuSerif-110"/>
       <use x="426.953125" xlink:href="#DejaVuSerif-115"/>
       <use x="478.271484" xlink:href="#DejaVuSerif-105"/>
       <use x="510.253906" xlink:href="#DejaVuSerif-101"/>
       <use x="569.433594" xlink:href="#DejaVuSerif-108"/>
       <use x="601.416016" xlink:href="#DejaVuSerif-108"/>
       <use x="633.398438" xlink:href="#DejaVuSerif-97"/>
      </g>
     </g>
    </g>
    <g id="xtick_7">
     <g id="line2d_7">
      <g>
       <use style="stroke:#000000;stroke-width:0.8;" x="263.147187" xlink:href="#mafd70a2acf" y="496.44"/>
      </g>
     </g>
     <g id="text_7">
      <!-- Zaghouania -->
      <defs>
       <path d="M 4.5 0 
L 4.5 3.515625 
L 49.90625 66.890625 
L 12.203125 66.890625 
L 12.203125 56 
L 6.203125 56 
L 6.203125 72.90625 
L 63.8125 72.90625 
L 63.8125 69.390625 
L 18.40625 6 
L 59.625 6 
L 59.625 16.21875 
L 65.578125 16.21875 
L 65.578125 0 
z
" id="DejaVuSerif-90"/>
      </defs>
      <g transform="translate(269.061406 634.951875)rotate(-90)scale(0.22 -0.22)">
       <use xlink:href="#DejaVuSerif-90"/>
       <use x="69.482422" xlink:href="#DejaVuSerif-97"/>
       <use x="129.101562" xlink:href="#DejaVuSerif-103"/>
       <use x="193.115234" xlink:href="#DejaVuSerif-104"/>
       <use x="257.519531" xlink:href="#DejaVuSerif-111"/>
       <use x="317.724609" xlink:href="#DejaVuSerif-117"/>
       <use x="382.128906" xlink:href="#DejaVuSerif-97"/>
       <use x="441.748047" xlink:href="#DejaVuSerif-110"/>
       <use x="506.152344" xlink:href="#DejaVuSerif-105"/>
       <use x="538.134766" xlink:href="#DejaVuSerif-97"/>
      </g>
     </g>
    </g>
    <g id="xtick_8">
     <g id="line2d_8">
      <g>
       <use style="stroke:#000000;stroke-width:0.8;" x="291.047188" xlink:href="#mafd70a2acf" y="496.44"/>
      </g>
     </g>
     <g id="text_8">
      <!-- Helicobasidium -->
      <defs>
       <path d="M 5.515625 0 
L 5.515625 5.171875 
L 14.796875 5.171875 
L 14.796875 67.671875 
L 5.515625 67.671875 
L 5.515625 72.90625 
L 33.984375 72.90625 
L 33.984375 67.671875 
L 24.703125 67.671875 
L 24.703125 42.484375 
L 62.5 42.484375 
L 62.5 67.671875 
L 53.21875 67.671875 
L 53.21875 72.90625 
L 81.6875 72.90625 
L 81.6875 67.671875 
L 72.40625 67.671875 
L 72.40625 5.171875 
L 81.6875 5.171875 
L 81.6875 0 
L 53.21875 0 
L 53.21875 5.171875 
L 62.5 5.171875 
L 62.5 36.53125 
L 24.703125 36.53125 
L 24.703125 5.171875 
L 33.984375 5.171875 
L 33.984375 0 
z
" id="DejaVuSerif-72"/>
      </defs>
      <g transform="translate(297.117813 676.961563)rotate(-90)scale(0.22 -0.22)">
       <use xlink:href="#DejaVuSerif-72"/>
       <use x="87.207031" xlink:href="#DejaVuSerif-101"/>
       <use x="146.386719" xlink:href="#DejaVuSerif-108"/>
       <use x="178.369141" xlink:href="#DejaVuSerif-105"/>
       <use x="210.351562" xlink:href="#DejaVuSerif-99"/>
       <use x="266.357422" xlink:href="#DejaVuSerif-111"/>
       <use x="326.5625" xlink:href="#DejaVuSerif-98"/>
       <use x="390.576172" xlink:href="#DejaVuSerif-97"/>
       <use x="450.195312" xlink:href="#DejaVuSerif-115"/>
       <use x="501.513672" xlink:href="#DejaVuSerif-105"/>
       <use x="533.496094" xlink:href="#DejaVuSerif-100"/>
       <use x="597.509766" xlink:href="#DejaVuSerif-105"/>
       <use x="629.492188" xlink:href="#DejaVuSerif-117"/>
       <use x="693.896484" xlink:href="#DejaVuSerif-109"/>
      </g>
     </g>
    </g>
    <g id="xtick_9">
     <g id="line2d_9">
      <g>
       <use style="stroke:#000000;stroke-width:0.8;" x="318.947188" xlink:href="#mafd70a2acf" y="496.44"/>
      </g>
     </g>
     <g id="text_9">
      <!-- Batistopsora -->
      <defs>
       <path d="M 24.703125 5.171875 
L 39.3125 5.171875 
Q 48.09375 5.171875 52.140625 8.984375 
Q 56.203125 12.796875 56.203125 21.09375 
Q 56.203125 29.34375 52.171875 33.125 
Q 48.140625 36.921875 39.3125 36.921875 
L 24.703125 36.921875 
z
M 24.703125 42.09375 
L 37.109375 42.09375 
Q 45.125 42.09375 48.796875 45.171875 
Q 52.484375 48.25 52.484375 54.890625 
Q 52.484375 61.578125 48.796875 64.625 
Q 45.125 67.671875 37.109375 67.671875 
L 24.703125 67.671875 
z
M 5.515625 0 
L 5.515625 5.171875 
L 14.796875 5.171875 
L 14.796875 67.671875 
L 5.515625 67.671875 
L 5.515625 72.90625 
L 41.5 72.90625 
Q 52.546875 72.90625 58.125 68.390625 
Q 63.71875 63.875 63.71875 54.890625 
Q 63.71875 48.390625 59.828125 44.53125 
Q 55.953125 40.671875 48.484375 39.796875 
Q 57.765625 38.625 62.578125 33.859375 
Q 67.390625 29.109375 67.390625 21.09375 
Q 67.390625 10.25 60.546875 5.125 
Q 53.71875 0 39.203125 0 
z
" id="DejaVuSerif-66"/>
      </defs>
      <g transform="translate(325.017813 644.22625)rotate(-90)scale(0.22 -0.22)">
       <use xlink:href="#DejaVuSerif-66"/>
       <use x="73.486328" xlink:href="#DejaVuSerif-97"/>
       <use x="133.105469" xlink:href="#DejaVuSerif-116"/>
       <use x="173.291016" xlink:href="#DejaVuSerif-105"/>
       <use x="205.273438" xlink:href="#DejaVuSerif-115"/>
       <use x="256.591797" xlink:href="#DejaVuSerif-116"/>
       <use x="296.777344" xlink:href="#DejaVuSerif-111"/>
       <use x="356.982422" xlink:href="#DejaVuSerif-112"/>
       <use x="420.996094" xlink:href="#DejaVuSerif-115"/>
       <use x="472.314453" xlink:href="#DejaVuSerif-111"/>
       <use x="532.519531" xlink:href="#DejaVuSerif-114"/>
       <use x="580.322266" xlink:href="#DejaVuSerif-97"/>
      </g>
     </g>
    </g>
    <g id="xtick_10">
     <g id="line2d_10">
      <g>
       <use style="stroke:#000000;stroke-width:0.8;" x="346.847188" xlink:href="#mafd70a2acf" y="496.44"/>
      </g>
     </g>
     <g id="text_10">
      <!-- Eocronartium -->
      <defs>
       <path d="M 5.515625 0 
L 5.515625 5.171875 
L 14.796875 5.171875 
L 14.796875 67.671875 
L 5.515625 67.671875 
L 5.515625 72.90625 
L 64.203125 72.90625 
L 64.203125 56.6875 
L 58.203125 56.6875 
L 58.203125 66.890625 
L 24.703125 66.890625 
L 24.703125 42.484375 
L 48.578125 42.484375 
L 48.578125 51.609375 
L 54.59375 51.609375 
L 54.59375 27.390625 
L 48.578125 27.390625 
L 48.578125 36.53125 
L 24.703125 36.53125 
L 24.703125 6 
L 58.984375 6 
L 58.984375 16.21875 
L 64.984375 16.21875 
L 64.984375 0 
z
" id="DejaVuSerif-69"/>
      </defs>
      <g transform="translate(352.917813 657.53625)rotate(-90)scale(0.22 -0.22)">
       <use xlink:href="#DejaVuSerif-69"/>
       <use x="72.998047" xlink:href="#DejaVuSerif-111"/>
       <use x="133.203125" xlink:href="#DejaVuSerif-99"/>
       <use x="189.208984" xlink:href="#DejaVuSerif-114"/>
       <use x="237.011719" xlink:href="#DejaVuSerif-111"/>
       <use x="297.216797" xlink:href="#DejaVuSerif-110"/>
       <use x="361.621094" xlink:href="#DejaVuSerif-97"/>
       <use x="421.240234" xlink:href="#DejaVuSerif-114"/>
       <use x="469.042969" xlink:href="#DejaVuSerif-116"/>
       <use x="509.228516" xlink:href="#DejaVuSerif-105"/>
       <use x="541.210938" xlink:href="#DejaVuSerif-117"/>
       <use x="605.615234" xlink:href="#DejaVuSerif-109"/>
      </g>
     </g>
    </g>
    <g id="xtick_11">
     <g id="line2d_11">
      <g>
       <use style="stroke:#000000;stroke-width:0.8;" x="374.747187" xlink:href="#mafd70a2acf" y="496.44"/>
      </g>
     </g>
     <g id="text_11">
      <!-- Biatoropsis -->
      <g transform="translate(380.817813 629.304062)rotate(-90)scale(0.22 -0.22)">
       <use xlink:href="#DejaVuSerif-66"/>
       <use x="73.486328" xlink:href="#DejaVuSerif-105"/>
       <use x="105.46875" xlink:href="#DejaVuSerif-97"/>
       <use x="165.087891" xlink:href="#DejaVuSerif-116"/>
       <use x="205.273438" xlink:href="#DejaVuSerif-111"/>
       <use x="265.478516" xlink:href="#DejaVuSerif-114"/>
       <use x="313.28125" xlink:href="#DejaVuSerif-111"/>
       <use x="373.486328" xlink:href="#DejaVuSerif-112"/>
       <use x="437.5" xlink:href="#DejaVuSerif-115"/>
       <use x="488.818359" xlink:href="#DejaVuSerif-105"/>
       <use x="520.800781" xlink:href="#DejaVuSerif-115"/>
      </g>
     </g>
    </g>
    <g id="xtick_12">
     <g id="line2d_12">
      <g>
       <use style="stroke:#000000;stroke-width:0.8;" x="402.647187" xlink:href="#mafd70a2acf" y="496.44"/>
      </g>
     </g>
     <g id="text_12">
      <!-- Uromyces -->
      <defs>
       <path d="M 14.015625 67.671875 
L 4.6875 67.671875 
L 4.6875 72.90625 
L 33.203125 72.90625 
L 33.203125 67.671875 
L 23.875 67.671875 
L 23.875 29.984375 
Q 23.875 16.015625 28.4375 10.5 
Q 33.015625 4.984375 44.1875 4.984375 
Q 55.375 4.984375 59.9375 10.5 
Q 64.5 16.015625 64.5 29.984375 
L 64.5 67.671875 
L 55.171875 67.671875 
L 55.171875 72.90625 
L 79.78125 72.90625 
L 79.78125 67.671875 
L 70.515625 67.671875 
L 70.515625 29 
Q 70.515625 12.359375 64.109375 5.46875 
Q 57.71875 -1.421875 42.390625 -1.421875 
Q 27.046875 -1.421875 20.53125 5.515625 
Q 14.015625 12.453125 14.015625 29 
z
" id="DejaVuSerif-85"/>
      </defs>
      <g transform="translate(408.405 615.664062)rotate(-90)scale(0.22 -0.22)">
       <use xlink:href="#DejaVuSerif-85"/>
       <use x="84.277344" xlink:href="#DejaVuSerif-114"/>
       <use x="132.080078" xlink:href="#DejaVuSerif-111"/>
       <use x="192.285156" xlink:href="#DejaVuSerif-109"/>
       <use x="287.109375" xlink:href="#DejaVuSerif-121"/>
       <use x="343.603516" xlink:href="#DejaVuSerif-99"/>
       <use x="399.609375" xlink:href="#DejaVuSerif-101"/>
       <use x="458.789062" xlink:href="#DejaVuSerif-115"/>
      </g>
     </g>
    </g>
    <g id="xtick_13">
     <g id="line2d_13">
      <g>
       <use style="stroke:#000000;stroke-width:0.8;" x="430.547187" xlink:href="#mafd70a2acf" y="496.44"/>
      </g>
     </g>
     <g id="text_13">
      <!-- Thekopsora -->
      <defs>
       <path d="M 19.09375 0 
L 19.09375 5.171875 
L 28.421875 5.171875 
L 28.421875 67.09375 
L 6.984375 67.09375 
L 6.984375 55.71875 
L 0.984375 55.71875 
L 0.984375 72.90625 
L 65.71875 72.90625 
L 65.71875 55.71875 
L 59.71875 55.71875 
L 59.71875 67.09375 
L 38.28125 67.09375 
L 38.28125 5.171875 
L 47.609375 5.171875 
L 47.609375 0 
z
" id="DejaVuSerif-84"/>
       <path d="M 28.609375 0 
L 3.421875 0 
L 3.421875 5.171875 
L 11.53125 5.171875 
L 11.53125 70.796875 
L 2.875 70.796875 
L 2.875 75.984375 
L 20.515625 75.984375 
L 20.515625 26.515625 
L 42.390625 46.6875 
L 34.90625 46.6875 
L 34.90625 51.90625 
L 58.40625 51.90625 
L 58.40625 46.6875 
L 49.515625 46.6875 
L 34.078125 32.421875 
L 53.8125 5.171875 
L 61.28125 5.171875 
L 61.28125 0 
L 35.6875 0 
L 35.6875 5.171875 
L 43.109375 5.171875 
L 27.59375 26.515625 
L 20.515625 19.921875 
L 20.515625 5.171875 
L 28.609375 5.171875 
z
" id="DejaVuSerif-107"/>
      </defs>
      <g transform="translate(436.617812 634.130313)rotate(-90)scale(0.22 -0.22)">
       <use xlink:href="#DejaVuSerif-84"/>
       <use x="66.699219" xlink:href="#DejaVuSerif-104"/>
       <use x="131.103516" xlink:href="#DejaVuSerif-101"/>
       <use x="190.283203" xlink:href="#DejaVuSerif-107"/>
       <use x="250.878906" xlink:href="#DejaVuSerif-111"/>
       <use x="311.083984" xlink:href="#DejaVuSerif-112"/>
       <use x="375.097656" xlink:href="#DejaVuSerif-115"/>
       <use x="426.416016" xlink:href="#DejaVuSerif-111"/>
       <use x="486.621094" xlink:href="#DejaVuSerif-114"/>
       <use x="534.423828" xlink:href="#DejaVuSerif-97"/>
      </g>
     </g>
    </g>
    <g id="xtick_14">
     <g id="line2d_14">
      <g>
       <use style="stroke:#000000;stroke-width:0.8;" x="458.447188" xlink:href="#mafd70a2acf" y="496.44"/>
      </g>
     </g>
     <g id="text_14">
      <!-- Uredo -->
      <g transform="translate(464.517813 572.846563)rotate(-90)scale(0.22 -0.22)">
       <use xlink:href="#DejaVuSerif-85"/>
       <use x="84.277344" xlink:href="#DejaVuSerif-114"/>
       <use x="132.080078" xlink:href="#DejaVuSerif-101"/>
       <use x="191.259766" xlink:href="#DejaVuSerif-100"/>
       <use x="255.273438" xlink:href="#DejaVuSerif-111"/>
      </g>
     </g>
    </g>
    <g id="xtick_15">
     <g id="line2d_15">
      <g>
       <use style="stroke:#000000;stroke-width:0.8;" x="486.347188" xlink:href="#mafd70a2acf" y="496.44"/>
      </g>
     </g>
     <g id="text_15">
      <!-- Phakopsora -->
      <g transform="translate(492.417813 634.35375)rotate(-90)scale(0.22 -0.22)">
       <use xlink:href="#DejaVuSerif-80"/>
       <use x="67.285156" xlink:href="#DejaVuSerif-104"/>
       <use x="131.689453" xlink:href="#DejaVuSerif-97"/>
       <use x="191.308594" xlink:href="#DejaVuSerif-107"/>
       <use x="251.904297" xlink:href="#DejaVuSerif-111"/>
       <use x="312.109375" xlink:href="#DejaVuSerif-112"/>
       <use x="376.123047" xlink:href="#DejaVuSerif-115"/>
       <use x="427.441406" xlink:href="#DejaVuSerif-111"/>
       <use x="487.646484" xlink:href="#DejaVuSerif-114"/>
       <use x="535.449219" xlink:href="#DejaVuSerif-97"/>
      </g>
     </g>
    </g>
    <g id="xtick_16">
     <g id="line2d_16">
      <g>
       <use style="stroke:#000000;stroke-width:0.8;" x="514.247187" xlink:href="#mafd70a2acf" y="496.44"/>
      </g>
     </g>
     <g id="text_16">
      <!-- Melampsoridium -->
      <defs>
       <path d="M 5.515625 0 
L 5.515625 5.171875 
L 14.796875 5.171875 
L 14.796875 67.671875 
L 4.984375 67.671875 
L 4.984375 72.90625 
L 26.21875 72.90625 
L 51.8125 21 
L 77.390625 72.90625 
L 97.3125 72.90625 
L 97.3125 67.671875 
L 87.59375 67.671875 
L 87.59375 5.171875 
L 96.921875 5.171875 
L 96.921875 0 
L 68.40625 0 
L 68.40625 5.171875 
L 77.6875 5.171875 
L 77.6875 61.53125 
L 52.6875 10.6875 
L 45.796875 10.6875 
L 20.796875 61.53125 
L 20.796875 5.171875 
L 30.078125 5.171875 
L 30.078125 0 
z
" id="DejaVuSerif-77"/>
      </defs>
      <g transform="translate(520.317812 692.32375)rotate(-90)scale(0.22 -0.22)">
       <use xlink:href="#DejaVuSerif-77"/>
       <use x="102.392578" xlink:href="#DejaVuSerif-101"/>
       <use x="161.572266" xlink:href="#DejaVuSerif-108"/>
       <use x="193.554688" xlink:href="#DejaVuSerif-97"/>
       <use x="253.173828" xlink:href="#DejaVuSerif-109"/>
       <use x="347.998047" xlink:href="#DejaVuSerif-112"/>
       <use x="412.011719" xlink:href="#DejaVuSerif-115"/>
       <use x="463.330078" xlink:href="#DejaVuSerif-111"/>
       <use x="523.535156" xlink:href="#DejaVuSerif-114"/>
       <use x="571.337891" xlink:href="#DejaVuSerif-105"/>
       <use x="603.320312" xlink:href="#DejaVuSerif-100"/>
       <use x="667.333984" xlink:href="#DejaVuSerif-105"/>
       <use x="699.316406" xlink:href="#DejaVuSerif-117"/>
       <use x="763.720703" xlink:href="#DejaVuSerif-109"/>
      </g>
     </g>
    </g>
    <g id="xtick_17">
     <g id="line2d_17">
      <g>
       <use style="stroke:#000000;stroke-width:0.8;" x="542.147187" xlink:href="#mafd70a2acf" y="496.44"/>
      </g>
     </g>
     <g id="text_17">
      <!-- Pileolaria -->
      <g transform="translate(548.217812 609.404375)rotate(-90)scale(0.22 -0.22)">
       <use xlink:href="#DejaVuSerif-80"/>
       <use x="67.285156" xlink:href="#DejaVuSerif-105"/>
       <use x="99.267578" xlink:href="#DejaVuSerif-108"/>
       <use x="131.25" xlink:href="#DejaVuSerif-101"/>
       <use x="190.429688" xlink:href="#DejaVuSerif-111"/>
       <use x="250.634766" xlink:href="#DejaVuSerif-108"/>
       <use x="282.617188" xlink:href="#DejaVuSerif-97"/>
       <use x="342.236328" xlink:href="#DejaVuSerif-114"/>
       <use x="390.039062" xlink:href="#DejaVuSerif-105"/>
       <use x="422.021484" xlink:href="#DejaVuSerif-97"/>
      </g>
     </g>
    </g>
    <g id="xtick_18">
     <g id="line2d_18">
      <g>
       <use style="stroke:#000000;stroke-width:0.8;" x="570.047187" xlink:href="#mafd70a2acf" y="496.44"/>
      </g>
     </g>
     <g id="text_18">
      <!-- Caeoma -->
      <g transform="translate(576.117812 593.636563)rotate(-90)scale(0.22 -0.22)">
       <use xlink:href="#DejaVuSerif-67"/>
       <use x="76.513672" xlink:href="#DejaVuSerif-97"/>
       <use x="136.132812" xlink:href="#DejaVuSerif-101"/>
       <use x="195.3125" xlink:href="#DejaVuSerif-111"/>
       <use x="255.517578" xlink:href="#DejaVuSerif-109"/>
       <use x="350.341797" xlink:href="#DejaVuSerif-97"/>
      </g>
     </g>
    </g>
    <g id="xtick_19">
     <g id="line2d_19">
      <g>
       <use style="stroke:#000000;stroke-width:0.8;" x="597.947188" xlink:href="#mafd70a2acf" y="496.44"/>
      </g>
     </g>
     <g id="text_19">
      <!-- Kuehneola -->
      <defs>
       <path d="M 5.515625 0 
L 5.515625 5.171875 
L 14.796875 5.171875 
L 14.796875 67.671875 
L 5.515625 67.671875 
L 5.515625 72.90625 
L 33.984375 72.90625 
L 33.984375 67.671875 
L 24.703125 67.671875 
L 24.703125 40.09375 
L 56.109375 67.671875 
L 48.1875 67.671875 
L 48.1875 72.90625 
L 72.40625 72.90625 
L 72.40625 67.671875 
L 64.203125 67.671875 
L 32.90625 40.1875 
L 67.921875 5.171875 
L 76.21875 5.171875 
L 76.21875 0 
L 59.28125 0 
L 24.703125 34.625 
L 24.703125 5.171875 
L 33.984375 5.171875 
L 33.984375 0 
z
" id="DejaVuSerif-75"/>
      </defs>
      <g transform="translate(604.017812 621.329062)rotate(-90)scale(0.22 -0.22)">
       <use xlink:href="#DejaVuSerif-75"/>
       <use x="72.457031" xlink:href="#DejaVuSerif-117"/>
       <use x="136.861328" xlink:href="#DejaVuSerif-101"/>
       <use x="196.041016" xlink:href="#DejaVuSerif-104"/>
       <use x="260.445312" xlink:href="#DejaVuSerif-110"/>
       <use x="324.849609" xlink:href="#DejaVuSerif-101"/>
       <use x="384.029297" xlink:href="#DejaVuSerif-111"/>
       <use x="444.234375" xlink:href="#DejaVuSerif-108"/>
       <use x="476.216797" xlink:href="#DejaVuSerif-97"/>
      </g>
     </g>
    </g>
    <g id="xtick_20">
     <g id="line2d_20">
      <g>
       <use style="stroke:#000000;stroke-width:0.8;" x="625.847188" xlink:href="#mafd70a2acf" y="496.44"/>
      </g>
     </g>
     <g id="text_20">
      <!-- Puccinia -->
      <g transform="translate(631.917812 598.41125)rotate(-90)scale(0.22 -0.22)">
       <use xlink:href="#DejaVuSerif-80"/>
       <use x="67.285156" xlink:href="#DejaVuSerif-117"/>
       <use x="131.689453" xlink:href="#DejaVuSerif-99"/>
       <use x="187.695312" xlink:href="#DejaVuSerif-99"/>
       <use x="243.701172" xlink:href="#DejaVuSerif-105"/>
       <use x="275.683594" xlink:href="#DejaVuSerif-110"/>
       <use x="340.087891" xlink:href="#DejaVuSerif-105"/>
       <use x="372.070312" xlink:href="#DejaVuSerif-97"/>
      </g>
     </g>
    </g>
    <g id="xtick_21">
     <g id="line2d_21">
      <g>
       <use style="stroke:#000000;stroke-width:0.8;" x="653.747187" xlink:href="#mafd70a2acf" y="496.44"/>
      </g>
     </g>
     <g id="text_21">
      <!-- Cronartium -->
      <g transform="translate(659.817812 632.745)rotate(-90)scale(0.22 -0.22)">
       <use xlink:href="#DejaVuSerif-67"/>
       <use x="76.513672" xlink:href="#DejaVuSerif-114"/>
       <use x="124.316406" xlink:href="#DejaVuSerif-111"/>
       <use x="184.521484" xlink:href="#DejaVuSerif-110"/>
       <use x="248.925781" xlink:href="#DejaVuSerif-97"/>
       <use x="308.544922" xlink:href="#DejaVuSerif-114"/>
       <use x="356.347656" xlink:href="#DejaVuSerif-116"/>
       <use x="396.533203" xlink:href="#DejaVuSerif-105"/>
       <use x="428.515625" xlink:href="#DejaVuSerif-117"/>
       <use x="492.919922" xlink:href="#DejaVuSerif-109"/>
      </g>
     </g>
    </g>
    <g id="xtick_22">
     <g id="line2d_22">
      <g>
       <use style="stroke:#000000;stroke-width:0.8;" x="681.647187" xlink:href="#mafd70a2acf" y="496.44"/>
      </g>
     </g>
     <g id="text_22">
      <!-- Gymnosporangium -->
      <defs>
       <path d="M 64.015625 51.125 
Q 62.3125 60.25 56.890625 64.625 
Q 51.46875 69 41.796875 69 
Q 29.203125 69 23 60.890625 
Q 16.796875 52.78125 16.796875 36.375 
Q 16.796875 20.3125 23.1875 12.0625 
Q 29.59375 3.8125 42 3.8125 
Q 47.515625 3.8125 52.53125 5.171875 
Q 57.5625 6.546875 62.109375 9.28125 
L 62.109375 28.078125 
L 48.390625 28.078125 
L 48.390625 33.296875 
L 72.015625 33.296875 
L 72.015625 6.109375 
Q 65.53125 2.34375 58.03125 0.453125 
Q 50.53125 -1.421875 42 -1.421875 
Q 25.484375 -1.421875 15.546875 8.90625 
Q 5.609375 19.234375 5.609375 36.375 
Q 5.609375 53.65625 15.5625 63.9375 
Q 25.53125 74.21875 42.390625 74.21875 
Q 48.640625 74.21875 55.296875 72.78125 
Q 61.96875 71.34375 69.484375 68.40625 
L 69.484375 51.125 
z
" id="DejaVuSerif-71"/>
      </defs>
      <g transform="translate(687.405 714.292813)rotate(-90)scale(0.22 -0.22)">
       <use xlink:href="#DejaVuSerif-71"/>
       <use x="79.882812" xlink:href="#DejaVuSerif-121"/>
       <use x="136.376953" xlink:href="#DejaVuSerif-109"/>
       <use x="231.201172" xlink:href="#DejaVuSerif-110"/>
       <use x="295.605469" xlink:href="#DejaVuSerif-111"/>
       <use x="355.810547" xlink:href="#DejaVuSerif-115"/>
       <use x="407.128906" xlink:href="#DejaVuSerif-112"/>
       <use x="471.142578" xlink:href="#DejaVuSerif-111"/>
       <use x="531.347656" xlink:href="#DejaVuSerif-114"/>
       <use x="579.150391" xlink:href="#DejaVuSerif-97"/>
       <use x="638.769531" xlink:href="#DejaVuSerif-110"/>
       <use x="703.173828" xlink:href="#DejaVuSerif-103"/>
       <use x="767.1875" xlink:href="#DejaVuSerif-105"/>
       <use x="799.169922" xlink:href="#DejaVuSerif-117"/>
       <use x="863.574219" xlink:href="#DejaVuSerif-109"/>
      </g>
     </g>
    </g>
    <g id="xtick_23">
     <g id="line2d_23">
      <g>
       <use style="stroke:#000000;stroke-width:0.8;" x="709.547187" xlink:href="#mafd70a2acf" y="496.44"/>
      </g>
     </g>
     <g id="text_23">
      <!-- Melampsora -->
      <g transform="translate(715.617812 642.253125)rotate(-90)scale(0.22 -0.22)">
       <use xlink:href="#DejaVuSerif-77"/>
       <use x="102.392578" xlink:href="#DejaVuSerif-101"/>
       <use x="161.572266" xlink:href="#DejaVuSerif-108"/>
       <use x="193.554688" xlink:href="#DejaVuSerif-97"/>
       <use x="253.173828" xlink:href="#DejaVuSerif-109"/>
       <use x="347.998047" xlink:href="#DejaVuSerif-112"/>
       <use x="412.011719" xlink:href="#DejaVuSerif-115"/>
       <use x="463.330078" xlink:href="#DejaVuSerif-111"/>
       <use x="523.535156" xlink:href="#DejaVuSerif-114"/>
       <use x="571.337891" xlink:href="#DejaVuSerif-97"/>
      </g>
     </g>
    </g>
    <g id="xtick_24">
     <g id="line2d_24">
      <g>
       <use style="stroke:#000000;stroke-width:0.8;" x="737.447187" xlink:href="#mafd70a2acf" y="496.44"/>
      </g>
     </g>
     <g id="text_24">
      <!-- Chrysomyxa -->
      <defs>
       <path d="M 29.109375 31.6875 
L 39.984375 46.6875 
L 33.015625 46.6875 
L 33.015625 51.90625 
L 52.984375 51.90625 
L 52.984375 46.6875 
L 46.09375 46.6875 
L 32.171875 27.484375 
L 48.390625 5.171875 
L 55.171875 5.171875 
L 55.171875 0 
L 31.203125 0 
L 31.203125 5.171875 
L 37.796875 5.171875 
L 26.515625 20.703125 
L 15.1875 5.171875 
L 21.921875 5.171875 
L 21.921875 0 
L 2.203125 0 
L 2.203125 5.171875 
L 9.078125 5.171875 
L 23.390625 24.90625 
L 7.625 46.6875 
L 1.21875 46.6875 
L 1.21875 51.90625 
L 24.421875 51.90625 
L 24.421875 46.6875 
L 18.21875 46.6875 
z
" id="DejaVuSerif-120"/>
      </defs>
      <g transform="translate(743.361406 640.737188)rotate(-90)scale(0.22 -0.22)">
       <use xlink:href="#DejaVuSerif-67"/>
       <use x="76.513672" xlink:href="#DejaVuSerif-104"/>
       <use x="140.917969" xlink:href="#DejaVuSerif-114"/>
       <use x="188.720703" xlink:href="#DejaVuSerif-121"/>
       <use x="245.214844" xlink:href="#DejaVuSerif-115"/>
       <use x="296.533203" xlink:href="#DejaVuSerif-111"/>
       <use x="356.738281" xlink:href="#DejaVuSerif-109"/>
       <use x="451.5625" xlink:href="#DejaVuSerif-121"/>
       <use x="508.056641" xlink:href="#DejaVuSerif-120"/>
       <use x="564.453125" xlink:href="#DejaVuSerif-97"/>
      </g>
     </g>
    </g>
    <g id="xtick_25">
     <g id="line2d_25">
      <g>
       <use style="stroke:#000000;stroke-width:0.8;" x="765.347187" xlink:href="#mafd70a2acf" y="496.44"/>
      </g>
     </g>
     <g id="text_25">
      <!-- Hemileia -->
      <g transform="translate(771.417812 603.756562)rotate(-90)scale(0.22 -0.22)">
       <use xlink:href="#DejaVuSerif-72"/>
       <use x="87.207031" xlink:href="#DejaVuSerif-101"/>
       <use x="146.386719" xlink:href="#DejaVuSerif-109"/>
       <use x="241.210938" xlink:href="#DejaVuSerif-105"/>
       <use x="273.193359" xlink:href="#DejaVuSerif-108"/>
       <use x="305.175781" xlink:href="#DejaVuSerif-101"/>
       <use x="364.355469" xlink:href="#DejaVuSerif-105"/>
       <use x="396.337891" xlink:href="#DejaVuSerif-97"/>
      </g>
     </g>
    </g>
    <g id="xtick_26">
     <g id="line2d_26">
      <g>
       <use style="stroke:#000000;stroke-width:0.8;" x="793.247187" xlink:href="#mafd70a2acf" y="496.44"/>
      </g>
     </g>
     <g id="text_26">
      <!-- Uromycladium -->
      <g transform="translate(799.161406 667.659688)rotate(-90)scale(0.22 -0.22)">
       <use xlink:href="#DejaVuSerif-85"/>
       <use x="84.277344" xlink:href="#DejaVuSerif-114"/>
       <use x="132.080078" xlink:href="#DejaVuSerif-111"/>
       <use x="192.285156" xlink:href="#DejaVuSerif-109"/>
       <use x="287.109375" xlink:href="#DejaVuSerif-121"/>
       <use x="343.603516" xlink:href="#DejaVuSerif-99"/>
       <use x="399.609375" xlink:href="#DejaVuSerif-108"/>
       <use x="431.591797" xlink:href="#DejaVuSerif-97"/>
       <use x="491.210938" xlink:href="#DejaVuSerif-100"/>
       <use x="555.224609" xlink:href="#DejaVuSerif-105"/>
       <use x="587.207031" xlink:href="#DejaVuSerif-117"/>
       <use x="651.611328" xlink:href="#DejaVuSerif-109"/>
      </g>
     </g>
    </g>
    <g id="xtick_27">
     <g id="line2d_27">
      <g>
       <use style="stroke:#000000;stroke-width:0.8;" x="821.147187" xlink:href="#mafd70a2acf" y="496.44"/>
      </g>
     </g>
     <g id="text_27">
      <!-- Dasyspora -->
      <defs>
       <path d="M 24.703125 5.171875 
L 33.796875 5.171875 
Q 48 5.171875 55.59375 13.28125 
Q 63.1875 21.390625 63.1875 36.53125 
Q 63.1875 51.65625 55.609375 59.65625 
Q 48.046875 67.671875 33.796875 67.671875 
L 24.703125 67.671875 
z
M 5.515625 0 
L 5.515625 5.171875 
L 14.796875 5.171875 
L 14.796875 67.671875 
L 5.515625 67.671875 
L 5.515625 72.90625 
L 34.515625 72.90625 
Q 53.375 72.90625 63.890625 63.28125 
Q 74.421875 53.65625 74.421875 36.53125 
Q 74.421875 19.34375 63.875 9.671875 
Q 53.328125 0 34.515625 0 
z
" id="DejaVuSerif-68"/>
      </defs>
      <g transform="translate(826.905 620.16375)rotate(-90)scale(0.22 -0.22)">
       <use xlink:href="#DejaVuSerif-68"/>
       <use x="80.175781" xlink:href="#DejaVuSerif-97"/>
       <use x="139.794922" xlink:href="#DejaVuSerif-115"/>
       <use x="191.113281" xlink:href="#DejaVuSerif-121"/>
       <use x="247.607422" xlink:href="#DejaVuSerif-115"/>
       <use x="298.925781" xlink:href="#DejaVuSerif-112"/>
       <use x="362.939453" xlink:href="#DejaVuSerif-111"/>
       <use x="423.144531" xlink:href="#DejaVuSerif-114"/>
       <use x="470.947266" xlink:href="#DejaVuSerif-97"/>
      </g>
     </g>
    </g>
    <g id="xtick_28">
     <g id="line2d_28">
      <g>
       <use style="stroke:#000000;stroke-width:0.8;" x="849.047187" xlink:href="#mafd70a2acf" y="496.44"/>
      </g>
     </g>
     <g id="text_28">
      <!-- Coleosporium -->
      <g transform="translate(855.117812 658.020938)rotate(-90)scale(0.22 -0.22)">
       <use xlink:href="#DejaVuSerif-67"/>
       <use x="76.513672" xlink:href="#DejaVuSerif-111"/>
       <use x="136.71875" xlink:href="#DejaVuSerif-108"/>
       <use x="168.701172" xlink:href="#DejaVuSerif-101"/>
       <use x="227.880859" xlink:href="#DejaVuSerif-111"/>
       <use x="288.085938" xlink:href="#DejaVuSerif-115"/>
       <use x="339.404297" xlink:href="#DejaVuSerif-112"/>
       <use x="403.417969" xlink:href="#DejaVuSerif-111"/>
       <use x="463.623047" xlink:href="#DejaVuSerif-114"/>
       <use x="511.425781" xlink:href="#DejaVuSerif-105"/>
       <use x="543.408203" xlink:href="#DejaVuSerif-117"/>
       <use x="607.8125" xlink:href="#DejaVuSerif-109"/>
      </g>
     </g>
    </g>
    <g id="xtick_29">
     <g id="line2d_29">
      <g>
       <use style="stroke:#000000;stroke-width:0.8;" x="876.947187" xlink:href="#mafd70a2acf" y="496.44"/>
      </g>
     </g>
     <g id="text_29">
      <!-- Pucciniastrum -->
      <g transform="translate(883.017812 664.088125)rotate(-90)scale(0.22 -0.22)">
       <use xlink:href="#DejaVuSerif-80"/>
       <use x="67.285156" xlink:href="#DejaVuSerif-117"/>
       <use x="131.689453" xlink:href="#DejaVuSerif-99"/>
       <use x="187.695312" xlink:href="#DejaVuSerif-99"/>
       <use x="243.701172" xlink:href="#DejaVuSerif-105"/>
       <use x="275.683594" xlink:href="#DejaVuSerif-110"/>
       <use x="340.087891" xlink:href="#DejaVuSerif-105"/>
       <use x="372.070312" xlink:href="#DejaVuSerif-97"/>
       <use x="431.689453" xlink:href="#DejaVuSerif-115"/>
       <use x="483.007812" xlink:href="#DejaVuSerif-116"/>
       <use x="523.193359" xlink:href="#DejaVuSerif-114"/>
       <use x="570.996094" xlink:href="#DejaVuSerif-117"/>
       <use x="635.400391" xlink:href="#DejaVuSerif-109"/>
      </g>
     </g>
    </g>
    <g id="xtick_30">
     <g id="line2d_30">
      <g>
       <use style="stroke:#000000;stroke-width:0.8;" x="904.847187" xlink:href="#mafd70a2acf" y="496.44"/>
      </g>
     </g>
     <g id="text_30">
      <!-- Endocronartium -->
      <g transform="translate(910.917812 685.789062)rotate(-90)scale(0.22 -0.22)">
       <use xlink:href="#DejaVuSerif-69"/>
       <use x="72.998047" xlink:href="#DejaVuSerif-110"/>
       <use x="137.402344" xlink:href="#DejaVuSerif-100"/>
       <use x="201.416016" xlink:href="#DejaVuSerif-111"/>
       <use x="261.621094" xlink:href="#DejaVuSerif-99"/>
       <use x="317.626953" xlink:href="#DejaVuSerif-114"/>
       <use x="365.429688" xlink:href="#DejaVuSerif-111"/>
       <use x="425.634766" xlink:href="#DejaVuSerif-110"/>
       <use x="490.039062" xlink:href="#DejaVuSerif-97"/>
       <use x="549.658203" xlink:href="#DejaVuSerif-114"/>
       <use x="597.460938" xlink:href="#DejaVuSerif-116"/>
       <use x="637.646484" xlink:href="#DejaVuSerif-105"/>
       <use x="669.628906" xlink:href="#DejaVuSerif-117"/>
       <use x="734.033203" xlink:href="#DejaVuSerif-109"/>
      </g>
     </g>
    </g>
    <g id="text_31">
     <!-- Species -->
     <g transform="translate(457.376562 735.009375)scale(0.22 -0.22)">
      <use xlink:href="#DejaVuSerif-83"/>
      <use x="68.505859" xlink:href="#DejaVuSerif-112"/>
      <use x="132.519531" xlink:href="#DejaVuSerif-101"/>
      <use x="191.699219" xlink:href="#DejaVuSerif-99"/>
      <use x="247.705078" xlink:href="#DejaVuSerif-105"/>
      <use x="279.6875" xlink:href="#DejaVuSerif-101"/>
      <use x="338.867188" xlink:href="#DejaVuSerif-115"/>
     </g>
    </g>
   </g>
   <g id="matplotlib.axis_2">
    <g id="ytick_1">
     <g id="line2d_31">
      <defs>
       <path d="M 0 0 
L -3.5 0 
" id="mfe8e7af2eb" style="stroke:#000000;stroke-width:0.8;"/>
      </defs>
      <g>
       <use style="stroke:#000000;stroke-width:0.8;" x="81.797188" xlink:href="#mfe8e7af2eb" y="496.44"/>
      </g>
     </g>
     <g id="text_32">
      <!-- 0 -->
      <defs>
       <path d="M 31.78125 3.421875 
Q 39.265625 3.421875 42.96875 11.625 
Q 46.6875 19.828125 46.6875 36.375 
Q 46.6875 52.984375 42.96875 61.1875 
Q 39.265625 69.390625 31.78125 69.390625 
Q 24.3125 69.390625 20.59375 61.1875 
Q 16.890625 52.984375 16.890625 36.375 
Q 16.890625 19.828125 20.59375 11.625 
Q 24.3125 3.421875 31.78125 3.421875 
z
M 31.78125 -1.421875 
Q 19.921875 -1.421875 13.25 8.53125 
Q 6.59375 18.5 6.59375 36.375 
Q 6.59375 54.296875 13.25 64.25 
Q 19.921875 74.21875 31.78125 74.21875 
Q 43.703125 74.21875 50.34375 64.25 
Q 56.984375 54.296875 56.984375 36.375 
Q 56.984375 18.5 50.34375 8.53125 
Q 43.703125 -1.421875 31.78125 -1.421875 
z
" id="DejaVuSerif-48"/>
      </defs>
      <g transform="translate(60.799688 504.798281)scale(0.22 -0.22)">
       <use xlink:href="#DejaVuSerif-48"/>
      </g>
     </g>
    </g>
    <g id="ytick_2">
     <g id="line2d_32">
      <g>
       <use style="stroke:#000000;stroke-width:0.8;" x="81.797188" xlink:href="#mfe8e7af2eb" y="403.251429"/>
      </g>
     </g>
     <g id="text_33">
      <!-- 20 -->
      <defs>
       <path d="M 12.796875 55.515625 
L 7.328125 55.515625 
L 7.328125 68.5 
Q 12.546875 71.296875 17.84375 72.75 
Q 23.140625 74.21875 28.21875 74.21875 
Q 39.59375 74.21875 46.1875 68.703125 
Q 52.78125 63.1875 52.78125 53.71875 
Q 52.78125 43.015625 37.84375 28.125 
Q 36.671875 27 36.078125 26.421875 
L 17.671875 8.015625 
L 48.09375 8.015625 
L 48.09375 17 
L 53.8125 17 
L 53.8125 0 
L 6.78125 0 
L 6.78125 5.328125 
L 28.90625 27.390625 
Q 36.234375 34.71875 39.359375 40.84375 
Q 42.484375 46.96875 42.484375 53.71875 
Q 42.484375 61.078125 38.640625 65.234375 
Q 34.8125 69.390625 28.078125 69.390625 
Q 21.09375 69.390625 17.28125 65.921875 
Q 13.484375 62.453125 12.796875 55.515625 
z
" id="DejaVuSerif-50"/>
      </defs>
      <g transform="translate(46.802188 411.60971)scale(0.22 -0.22)">
       <use xlink:href="#DejaVuSerif-50"/>
       <use x="63.623047" xlink:href="#DejaVuSerif-48"/>
      </g>
     </g>
    </g>
    <g id="ytick_3">
     <g id="line2d_33">
      <g>
       <use style="stroke:#000000;stroke-width:0.8;" x="81.797188" xlink:href="#mfe8e7af2eb" y="310.062857"/>
      </g>
     </g>
     <g id="text_34">
      <!-- 40 -->
      <defs>
       <path d="M 34.90625 24.703125 
L 34.90625 63.484375 
L 10.015625 24.703125 
z
M 56.390625 0 
L 23.1875 0 
L 23.1875 5.171875 
L 34.90625 5.171875 
L 34.90625 19.484375 
L 3.078125 19.484375 
L 3.078125 24.8125 
L 35.015625 74.21875 
L 44.671875 74.21875 
L 44.671875 24.703125 
L 58.59375 24.703125 
L 58.59375 19.484375 
L 44.671875 19.484375 
L 44.671875 5.171875 
L 56.390625 5.171875 
z
" id="DejaVuSerif-52"/>
      </defs>
      <g transform="translate(46.802188 318.421138)scale(0.22 -0.22)">
       <use xlink:href="#DejaVuSerif-52"/>
       <use x="63.623047" xlink:href="#DejaVuSerif-48"/>
      </g>
     </g>
    </g>
    <g id="ytick_4">
     <g id="line2d_34">
      <g>
       <use style="stroke:#000000;stroke-width:0.8;" x="81.797188" xlink:href="#mfe8e7af2eb" y="216.874286"/>
      </g>
     </g>
     <g id="text_35">
      <!-- 60 -->
      <defs>
       <path d="M 32.71875 3.421875 
Q 39.59375 3.421875 43.296875 8.46875 
Q 47.015625 13.53125 47.015625 23 
Q 47.015625 32.46875 43.296875 37.515625 
Q 39.59375 42.578125 32.71875 42.578125 
Q 25.734375 42.578125 22.0625 37.6875 
Q 18.40625 32.8125 18.40625 23.578125 
Q 18.40625 13.875 22.109375 8.640625 
Q 25.828125 3.421875 32.71875 3.421875 
z
M 16.796875 40.140625 
Q 20.125 43.796875 24.3125 45.59375 
Q 28.515625 47.40625 33.796875 47.40625 
Q 44.671875 47.40625 51 40.859375 
Q 57.328125 34.328125 57.328125 23 
Q 57.328125 11.921875 50.515625 5.25 
Q 43.703125 -1.421875 32.328125 -1.421875 
Q 19.96875 -1.421875 13.328125 7.78125 
Q 6.6875 17 6.6875 34.078125 
Q 6.6875 53.21875 14.546875 63.71875 
Q 22.40625 74.21875 36.71875 74.21875 
Q 40.578125 74.21875 44.828125 73.484375 
Q 49.078125 72.75 53.515625 71.296875 
L 53.515625 59.28125 
L 48 59.28125 
Q 47.40625 64.203125 44.234375 66.796875 
Q 41.0625 69.390625 35.6875 69.390625 
Q 26.21875 69.390625 21.578125 62.203125 
Q 16.9375 55.03125 16.796875 40.140625 
z
" id="DejaVuSerif-54"/>
      </defs>
      <g transform="translate(46.802188 225.232567)scale(0.22 -0.22)">
       <use xlink:href="#DejaVuSerif-54"/>
       <use x="63.623047" xlink:href="#DejaVuSerif-48"/>
      </g>
     </g>
    </g>
    <g id="ytick_5">
     <g id="line2d_35">
      <g>
       <use style="stroke:#000000;stroke-width:0.8;" x="81.797188" xlink:href="#mfe8e7af2eb" y="123.685714"/>
      </g>
     </g>
     <g id="text_36">
      <!-- 80 -->
      <defs>
       <path d="M 46.578125 19.921875 
Q 46.578125 27.734375 42.6875 32.046875 
Q 38.8125 36.375 31.78125 36.375 
Q 24.75 36.375 20.875 32.046875 
Q 17 27.734375 17 19.921875 
Q 17 12.0625 20.875 7.734375 
Q 24.75 3.421875 31.78125 3.421875 
Q 38.8125 3.421875 42.6875 7.734375 
Q 46.578125 12.0625 46.578125 19.921875 
z
M 44.578125 55.328125 
Q 44.578125 61.96875 41.203125 65.671875 
Q 37.84375 69.390625 31.78125 69.390625 
Q 25.78125 69.390625 22.390625 65.671875 
Q 19 61.96875 19 55.328125 
Q 19 48.640625 22.390625 44.921875 
Q 25.78125 41.21875 31.78125 41.21875 
Q 37.84375 41.21875 41.203125 44.921875 
Q 44.578125 48.640625 44.578125 55.328125 
z
M 39.3125 38.8125 
Q 47.609375 37.703125 52.25 32.6875 
Q 56.890625 27.6875 56.890625 19.921875 
Q 56.890625 9.671875 50.390625 4.125 
Q 43.890625 -1.421875 31.78125 -1.421875 
Q 19.734375 -1.421875 13.203125 4.125 
Q 6.6875 9.671875 6.6875 19.921875 
Q 6.6875 27.6875 11.328125 32.6875 
Q 15.96875 37.703125 24.3125 38.8125 
Q 16.9375 40.140625 13 44.40625 
Q 9.078125 48.6875 9.078125 55.328125 
Q 9.078125 64.109375 15.125 69.15625 
Q 21.1875 74.21875 31.78125 74.21875 
Q 42.390625 74.21875 48.4375 69.15625 
Q 54.5 64.109375 54.5 55.328125 
Q 54.5 48.6875 50.5625 44.40625 
Q 46.625 40.140625 39.3125 38.8125 
z
" id="DejaVuSerif-56"/>
      </defs>
      <g transform="translate(46.802188 132.043996)scale(0.22 -0.22)">
       <use xlink:href="#DejaVuSerif-56"/>
       <use x="63.623047" xlink:href="#DejaVuSerif-48"/>
      </g>
     </g>
    </g>
    <g id="ytick_6">
     <g id="line2d_36">
      <g>
       <use style="stroke:#000000;stroke-width:0.8;" x="81.797188" xlink:href="#mfe8e7af2eb" y="30.497143"/>
      </g>
     </g>
     <g id="text_37">
      <!-- 100 -->
      <defs>
       <path d="M 14.203125 0 
L 14.203125 5.171875 
L 26.90625 5.171875 
L 26.90625 65.828125 
L 12.203125 56.296875 
L 12.203125 62.703125 
L 29.984375 74.21875 
L 36.71875 74.21875 
L 36.71875 5.171875 
L 49.421875 5.171875 
L 49.421875 0 
z
" id="DejaVuSerif-49"/>
      </defs>
      <g transform="translate(32.804688 38.855424)scale(0.22 -0.22)">
       <use xlink:href="#DejaVuSerif-49"/>
       <use x="63.623047" xlink:href="#DejaVuSerif-48"/>
       <use x="127.246094" xlink:href="#DejaVuSerif-48"/>
      </g>
     </g>
    </g>
    <g id="text_38">
     <!-- Removed Samples Percentage (%) -->
     <defs>
      <path d="M 47.90625 36.1875 
Q 51.3125 35.25 53.78125 33.03125 
Q 56.25 30.8125 58.203125 26.8125 
L 68.796875 5.171875 
L 77.6875 5.171875 
L 77.6875 0 
L 60.5 0 
L 49.125 23.1875 
Q 45.84375 29.9375 43.109375 31.90625 
Q 40.375 33.890625 35.59375 33.890625 
L 24.703125 33.890625 
L 24.703125 5.171875 
L 35.015625 5.171875 
L 35.015625 0 
L 5.515625 0 
L 5.515625 5.171875 
L 14.796875 5.171875 
L 14.796875 67.671875 
L 5.515625 67.671875 
L 5.515625 72.90625 
L 42.484375 72.90625 
Q 53.125 72.90625 58.90625 67.828125 
Q 64.703125 62.75 64.703125 53.421875 
Q 64.703125 45.90625 60.46875 41.578125 
Q 56.25 37.25 47.90625 36.1875 
z
M 24.703125 39.109375 
L 39.109375 39.109375 
Q 46.484375 39.109375 50 42.59375 
Q 53.515625 46.09375 53.515625 53.421875 
Q 53.515625 60.75 50 64.203125 
Q 46.484375 67.671875 39.109375 67.671875 
L 24.703125 67.671875 
z
" id="DejaVuSerif-82"/>
      <path d="M 24.703125 0 
L 5.609375 46.6875 
L -0.296875 46.6875 
L -0.296875 51.90625 
L 23.578125 51.90625 
L 23.578125 46.6875 
L 15.28125 46.6875 
L 29.890625 10.984375 
L 44.484375 46.6875 
L 36.71875 46.6875 
L 36.71875 51.90625 
L 56.203125 51.90625 
L 56.203125 46.6875 
L 50.390625 46.6875 
L 31.296875 0 
z
" id="DejaVuSerif-118"/>
      <path id="DejaVuSerif-32"/>
      <path d="M 31.890625 -15.578125 
Q 20.015625 -10.25 13.953125 1.296875 
Q 7.90625 12.84375 7.90625 30.171875 
Q 7.90625 47.5625 13.953125 59.109375 
Q 20.015625 70.65625 31.890625 75.984375 
L 31.890625 71.1875 
Q 24.359375 66.015625 21.09375 56.609375 
Q 17.828125 47.21875 17.828125 30.171875 
Q 17.828125 13.1875 21.09375 3.78125 
Q 24.359375 -5.609375 31.890625 -10.796875 
z
" id="DejaVuSerif-40"/>
      <path d="M 22.40625 69.671875 
Q 18.109375 69.671875 15.6875 65.625 
Q 13.28125 61.578125 13.28125 54.296875 
Q 13.28125 47.125 15.75 43.015625 
Q 18.21875 38.921875 22.40625 38.921875 
Q 26.5625 38.921875 28.96875 43 
Q 31.390625 47.078125 31.390625 54.296875 
Q 31.390625 61.53125 28.96875 65.59375 
Q 26.5625 69.671875 22.40625 69.671875 
z
M 72.703125 33.890625 
Q 68.453125 33.890625 66.03125 29.78125 
Q 63.625 25.6875 63.625 18.40625 
Q 63.625 11.234375 66.0625 7.15625 
Q 68.5 3.078125 72.703125 3.078125 
Q 76.90625 3.078125 79.296875 7.15625 
Q 81.6875 11.234375 81.6875 18.40625 
Q 81.6875 25.640625 79.265625 29.765625 
Q 76.859375 33.890625 72.703125 33.890625 
z
M 72.703125 38.28125 
Q 80.421875 38.28125 84.953125 32.90625 
Q 89.5 27.546875 89.5 18.40625 
Q 89.5 9.28125 84.9375 3.921875 
Q 80.375 -1.421875 72.703125 -1.421875 
Q 64.890625 -1.421875 60.34375 3.921875 
Q 55.8125 9.28125 55.8125 18.40625 
Q 55.8125 27.59375 60.375 32.9375 
Q 64.9375 38.28125 72.703125 38.28125 
z
M 66.609375 74.21875 
L 74.03125 74.21875 
L 28.421875 -1.421875 
L 21 -1.421875 
z
M 22.3125 74.21875 
Q 30.03125 74.21875 34.609375 68.875 
Q 39.203125 63.53125 39.203125 54.390625 
Q 39.203125 45.171875 34.640625 39.84375 
Q 30.078125 34.515625 22.3125 34.515625 
Q 14.546875 34.515625 10.03125 39.859375 
Q 5.515625 45.21875 5.515625 54.390625 
Q 5.515625 63.484375 10.046875 68.84375 
Q 14.59375 74.21875 22.3125 74.21875 
z
" id="DejaVuSerif-37"/>
      <path d="M 7.078125 -15.578125 
L 7.078125 -10.796875 
Q 14.59375 -5.609375 17.890625 3.78125 
Q 21.1875 13.1875 21.1875 30.171875 
Q 21.1875 47.21875 17.890625 56.609375 
Q 14.59375 66.015625 7.078125 71.1875 
L 7.078125 75.984375 
Q 19 70.65625 25.046875 59.109375 
Q 31.109375 47.5625 31.109375 30.171875 
Q 31.109375 12.84375 25.046875 1.296875 
Q 19 -10.25 7.078125 -15.578125 
z
" id="DejaVuSerif-41"/>
     </defs>
     <g transform="translate(23.916563 443.158125)rotate(-90)scale(0.22 -0.22)">
      <use xlink:href="#DejaVuSerif-82"/>
      <use x="75.292969" xlink:href="#DejaVuSerif-101"/>
      <use x="134.472656" xlink:href="#DejaVuSerif-109"/>
      <use x="229.296875" xlink:href="#DejaVuSerif-111"/>
      <use x="289.501953" xlink:href="#DejaVuSerif-118"/>
      <use x="345.996094" xlink:href="#DejaVuSerif-101"/>
      <use x="405.175781" xlink:href="#DejaVuSerif-100"/>
      <use x="469.189453" xlink:href="#DejaVuSerif-32"/>
      <use x="500.976562" xlink:href="#DejaVuSerif-83"/>
      <use x="569.482422" xlink:href="#DejaVuSerif-97"/>
      <use x="629.101562" xlink:href="#DejaVuSerif-109"/>
      <use x="723.925781" xlink:href="#DejaVuSerif-112"/>
      <use x="787.939453" xlink:href="#DejaVuSerif-108"/>
      <use x="819.921875" xlink:href="#DejaVuSerif-101"/>
      <use x="879.101562" xlink:href="#DejaVuSerif-115"/>
      <use x="930.419922" xlink:href="#DejaVuSerif-32"/>
      <use x="962.207031" xlink:href="#DejaVuSerif-80"/>
      <use x="1024.992188" xlink:href="#DejaVuSerif-101"/>
      <use x="1084.171875" xlink:href="#DejaVuSerif-114"/>
      <use x="1131.974609" xlink:href="#DejaVuSerif-99"/>
      <use x="1187.980469" xlink:href="#DejaVuSerif-101"/>
      <use x="1247.160156" xlink:href="#DejaVuSerif-110"/>
      <use x="1311.564453" xlink:href="#DejaVuSerif-116"/>
      <use x="1351.75" xlink:href="#DejaVuSerif-97"/>
      <use x="1411.369141" xlink:href="#DejaVuSerif-103"/>
      <use x="1475.382812" xlink:href="#DejaVuSerif-101"/>
      <use x="1534.5625" xlink:href="#DejaVuSerif-32"/>
      <use x="1566.349609" xlink:href="#DejaVuSerif-40"/>
      <use x="1605.363281" xlink:href="#DejaVuSerif-37"/>
      <use x="1700.382812" xlink:href="#DejaVuSerif-41"/>
     </g>
    </g>
   </g>
   <g id="patch_33">
    <path d="M 81.797188 496.44 
L 81.797188 7.2 
" style="fill:none;stroke:#000000;stroke-linecap:square;stroke-linejoin:miter;stroke-width:0.8;"/>
   </g>
   <g id="patch_34">
    <path d="M 918.797188 496.44 
L 918.797188 7.2 
" style="fill:none;stroke:#000000;stroke-linecap:square;stroke-linejoin:miter;stroke-width:0.8;"/>
   </g>
   <g id="patch_35">
    <path d="M 81.797188 496.44 
L 918.797187 496.44 
" style="fill:none;stroke:#000000;stroke-linecap:square;stroke-linejoin:miter;stroke-width:0.8;"/>
   </g>
   <g id="patch_36">
    <path d="M 81.797188 7.2 
L 918.797187 7.2 
" style="fill:none;stroke:#000000;stroke-linecap:square;stroke-linejoin:miter;stroke-width:0.8;"/>
   </g>
  </g>
 </g>
 <defs>
  <clipPath id="p9c7af83e43">
   <rect height="489.24" width="837" x="81.797188" y="7.2"/>
  </clipPath>
 </defs>
 <defs>
  <pattern height="72" id="h8e4e752b8b" patternUnits="userSpaceOnUse" width="72" x="0" y="0">
   <rect fill="#ffffff" height="73" width="73" x="0" y="0"/>
   <path d="M -36 36 
L 36 -36 
M -30 42 
L 42 -30 
M -24 48 
L 48 -24 
M -18 54 
L 54 -18 
M -12 60 
L 60 -12 
M -6 66 
L 66 -6 
M 0 72 
L 72 0 
M 6 78 
L 78 6 
M 12 84 
L 84 12 
M 18 90 
L 90 18 
M 24 96 
L 96 24 
M 30 102 
L 102 30 
M 36 108 
L 108 36 
M -36 36 
L 36 108 
M -30 30 
L 42 102 
M -24 24 
L 48 96 
M -18 18 
L 54 90 
M -12 12 
L 60 84 
M -6 6 
L 66 78 
M 0 0 
L 72 72 
M 6 -6 
L 78 66 
M 12 -12 
L 84 60 
M 18 -18 
L 90 54 
M 24 -24 
L 96 48 
M 30 -30 
L 102 42 
M 36 -36 
L 108 36 
" style="fill:#000000;stroke:#000000;stroke-linecap:butt;stroke-linejoin:miter;stroke-width:1.0;"/>
  </pattern>
 </defs>
</svg>
