<?xml version="1.0" encoding="utf-8" standalone="no"?>
<!DOCTYPE svg PUBLIC "-//W3C//DTD SVG 1.1//EN"
  "http://www.w3.org/Graphics/SVG/1.1/DTD/svg11.dtd">
<!-- Created with matplotlib (https://matplotlib.org/) -->
<svg height="390.210156pt" version="1.1" viewBox="0 0 653.67625 390.210156" width="653.67625pt" xmlns="http://www.w3.org/2000/svg" xmlns:xlink="http://www.w3.org/1999/xlink">
 <defs>
  <style type="text/css">
*{stroke-linecap:butt;stroke-linejoin:round;}
  </style>
 </defs>
 <g id="figure_1">
  <g id="patch_1">
   <path d="M 0 390.210156 
L 653.67625 390.210156 
L 653.67625 0 
L 0 0 
z
" style="fill:#ffffff;"/>
  </g>
  <g id="axes_1">
   <g id="patch_2">
    <path d="M 88.47625 370.076562 
L 646.47625 370.076562 
L 646.47625 43.916562 
L 88.47625 43.916562 
z
" style="fill:#ffffff;"/>
   </g>
   <g id="patch_3">
    <path clip-path="url(#pc99b054d87)" d="M 113.839886 370.076562 
L 119.807801 370.076562 
L 119.807801 366.798161 
L 113.839886 366.798161 
z
" style="fill:#808080;"/>
   </g>
   <g id="patch_4">
    <path clip-path="url(#pc99b054d87)" d="M 117.818496 370.076562 
L 123.78641 370.076562 
L 123.78641 367.617761 
L 117.818496 367.617761 
z
" style="fill:#808080;"/>
   </g>
   <g id="patch_5">
    <path clip-path="url(#pc99b054d87)" d="M 121.797106 370.076562 
L 127.76502 370.076562 
L 127.76502 365.97856 
L 121.797106 365.97856 
z
" style="fill:#808080;"/>
   </g>
   <g id="patch_6">
    <path clip-path="url(#pc99b054d87)" d="M 125.775715 370.076562 
L 131.74363 370.076562 
L 131.74363 369.256962 
L 125.775715 369.256962 
z
" style="fill:#808080;"/>
   </g>
   <g id="patch_7">
    <path clip-path="url(#pc99b054d87)" d="M 129.754325 370.076562 
L 135.722239 370.076562 
L 135.722239 369.256962 
L 129.754325 369.256962 
z
" style="fill:#808080;"/>
   </g>
   <g id="patch_8">
    <path clip-path="url(#pc99b054d87)" d="M 133.732934 370.076562 
L 139.700849 370.076562 
L 139.700849 325.818138 
L 133.732934 325.818138 
z
" style="fill:#808080;"/>
   </g>
   <g id="patch_9">
    <path clip-path="url(#pc99b054d87)" d="M 137.711544 370.076562 
L 143.679459 370.076562 
L 143.679459 346.308149 
L 137.711544 346.308149 
z
" style="fill:#808080;"/>
   </g>
   <g id="patch_10">
    <path clip-path="url(#pc99b054d87)" d="M 141.690154 370.076562 
L 147.658068 370.076562 
L 147.658068 347.94735 
L 141.690154 347.94735 
z
" style="fill:#808080;"/>
   </g>
   <g id="patch_11">
    <path clip-path="url(#pc99b054d87)" d="M 145.668763 370.076562 
L 151.636678 370.076562 
L 151.636678 365.97856 
L 145.668763 365.97856 
z
" style="fill:#808080;"/>
   </g>
   <g id="patch_12">
    <path clip-path="url(#pc99b054d87)" d="M 149.647373 370.076562 
L 155.615287 370.076562 
L 155.615287 345.488549 
L 149.647373 345.488549 
z
" style="fill:#808080;"/>
   </g>
   <g id="patch_13">
    <path clip-path="url(#pc99b054d87)" d="M 153.625983 370.076562 
L 159.593897 370.076562 
L 159.593897 367.617761 
L 153.625983 367.617761 
z
" style="fill:#808080;"/>
   </g>
   <g id="patch_14">
    <path clip-path="url(#pc99b054d87)" d="M 157.604592 370.076562 
L 163.572507 370.076562 
L 163.572507 365.97856 
L 157.604592 365.97856 
z
" style="fill:#808080;"/>
   </g>
   <g id="patch_15">
    <path clip-path="url(#pc99b054d87)" d="M 161.583202 370.076562 
L 167.551116 370.076562 
L 167.551116 358.602156 
L 161.583202 358.602156 
z
" style="fill:#808080;"/>
   </g>
   <g id="patch_16">
    <path clip-path="url(#pc99b054d87)" d="M 165.561811 370.076562 
L 171.529726 370.076562 
L 171.529726 361.880558 
L 165.561811 361.880558 
z
" style="fill:#808080;"/>
   </g>
   <g id="patch_17">
    <path clip-path="url(#pc99b054d87)" d="M 169.540421 370.076562 
L 175.508336 370.076562 
L 175.508336 369.256962 
L 169.540421 369.256962 
z
" style="fill:#808080;"/>
   </g>
   <g id="patch_18">
    <path clip-path="url(#pc99b054d87)" d="M 173.519031 370.076562 
L 179.486945 370.076562 
L 179.486945 365.97856 
L 173.519031 365.97856 
z
" style="fill:#808080;"/>
   </g>
   <g id="patch_19">
    <path clip-path="url(#pc99b054d87)" d="M 177.49764 370.076562 
L 183.465555 370.076562 
L 183.465555 366.798161 
L 177.49764 366.798161 
z
" style="fill:#808080;"/>
   </g>
   <g id="patch_20">
    <path clip-path="url(#pc99b054d87)" d="M 181.47625 370.076562 
L 187.444164 370.076562 
L 187.444164 358.602156 
L 181.47625 358.602156 
z
" style="fill:#808080;"/>
   </g>
   <g id="patch_21">
    <path clip-path="url(#pc99b054d87)" d="M 185.45486 370.076562 
L 191.422774 370.076562 
L 191.422774 155.341244 
L 185.45486 155.341244 
z
" style="fill:#808080;"/>
   </g>
   <g id="patch_22">
    <path clip-path="url(#pc99b054d87)" d="M 189.433469 370.076562 
L 195.401384 370.076562 
L 195.401384 59.447991 
L 189.433469 59.447991 
z
" style="fill:#808080;"/>
   </g>
   <g id="patch_23">
    <path clip-path="url(#pc99b054d87)" d="M 193.412079 370.076562 
L 199.379993 370.076562 
L 199.379993 368.437362 
L 193.412079 368.437362 
z
" style="fill:#808080;"/>
   </g>
   <g id="patch_24">
    <path clip-path="url(#pc99b054d87)" d="M 197.390689 370.076562 
L 203.358603 370.076562 
L 203.358603 320.900535 
L 197.390689 320.900535 
z
" style="fill:#808080;"/>
   </g>
   <g id="patch_25">
    <path clip-path="url(#pc99b054d87)" d="M 201.369298 370.076562 
L 207.337213 370.076562 
L 207.337213 344.668948 
L 201.369298 344.668948 
z
" style="fill:#808080;"/>
   </g>
   <g id="patch_26">
    <path clip-path="url(#pc99b054d87)" d="M 205.347908 370.076562 
L 211.315822 370.076562 
L 211.315822 362.700158 
L 205.347908 362.700158 
z
" style="fill:#808080;"/>
   </g>
   <g id="patch_27">
    <path clip-path="url(#pc99b054d87)" d="M 209.326517 370.076562 
L 215.294432 370.076562 
L 215.294432 187.305662 
L 209.326517 187.305662 
z
" style="fill:#808080;"/>
   </g>
   <g id="patch_28">
    <path clip-path="url(#pc99b054d87)" d="M 213.305127 370.076562 
L 219.273041 370.076562 
L 219.273041 300.410524 
L 213.305127 300.410524 
z
" style="fill:#808080;"/>
   </g>
   <g id="patch_29">
    <path clip-path="url(#pc99b054d87)" d="M 217.283737 370.076562 
L 223.251651 370.076562 
L 223.251651 315.163332 
L 217.283737 315.163332 
z
" style="fill:#808080;"/>
   </g>
   <g id="patch_30">
    <path clip-path="url(#pc99b054d87)" d="M 221.262346 370.076562 
L 227.230261 370.076562 
L 227.230261 361.880558 
L 221.262346 361.880558 
z
" style="fill:#808080;"/>
   </g>
   <g id="patch_31">
    <path clip-path="url(#pc99b054d87)" d="M 225.240956 370.076562 
L 231.20887 370.076562 
L 231.20887 365.97856 
L 225.240956 365.97856 
z
" style="fill:#808080;"/>
   </g>
   <g id="patch_32">
    <path clip-path="url(#pc99b054d87)" d="M 229.219566 370.076562 
L 235.18748 370.076562 
L 235.18748 365.97856 
L 229.219566 365.97856 
z
" style="fill:#808080;"/>
   </g>
   <g id="patch_33">
    <path clip-path="url(#pc99b054d87)" d="M 233.198175 370.076562 
L 239.16609 370.076562 
L 239.16609 362.700158 
L 233.198175 362.700158 
z
" style="fill:#808080;"/>
   </g>
   <g id="patch_34">
    <path clip-path="url(#pc99b054d87)" d="M 237.176785 370.076562 
L 243.144699 370.076562 
L 243.144699 369.256962 
L 237.176785 369.256962 
z
" style="fill:#808080;"/>
   </g>
   <g id="patch_35">
    <path clip-path="url(#pc99b054d87)" d="M 241.155394 370.076562 
L 247.123309 370.076562 
L 247.123309 306.147727 
L 241.155394 306.147727 
z
" style="fill:#808080;"/>
   </g>
   <g id="patch_36">
    <path clip-path="url(#pc99b054d87)" d="M 245.134004 370.076562 
L 251.101918 370.076562 
L 251.101918 369.256962 
L 245.134004 369.256962 
z
" style="fill:#808080;"/>
   </g>
   <g id="patch_37">
    <path clip-path="url(#pc99b054d87)" d="M 249.112614 370.076562 
L 255.080528 370.076562 
L 255.080528 356.962955 
L 249.112614 356.962955 
z
" style="fill:#808080;"/>
   </g>
   <g id="patch_38">
    <path clip-path="url(#pc99b054d87)" d="M 253.091223 370.076562 
L 259.059138 370.076562 
L 259.059138 353.684553 
L 253.091223 353.684553 
z
" style="fill:#808080;"/>
   </g>
   <g id="patch_39">
    <path clip-path="url(#pc99b054d87)" d="M 257.069833 370.076562 
L 263.037747 370.076562 
L 263.037747 353.684553 
L 257.069833 353.684553 
z
" style="fill:#808080;"/>
   </g>
   <g id="patch_40">
    <path clip-path="url(#pc99b054d87)" d="M 261.048443 370.076562 
L 267.016357 370.076562 
L 267.016357 365.15896 
L 261.048443 365.15896 
z
" style="fill:#808080;"/>
   </g>
   <g id="patch_41">
    <path clip-path="url(#pc99b054d87)" d="M 265.027052 370.076562 
L 270.994967 370.076562 
L 270.994967 367.617761 
L 265.027052 367.617761 
z
" style="fill:#808080;"/>
   </g>
   <g id="patch_42">
    <path clip-path="url(#pc99b054d87)" d="M 269.005662 370.076562 
L 274.973576 370.076562 
L 274.973576 330.735741 
L 269.005662 330.735741 
z
" style="fill:#808080;"/>
   </g>
   <g id="patch_43">
    <path clip-path="url(#pc99b054d87)" d="M 272.984271 370.076562 
L 278.952186 370.076562 
L 278.952186 369.256962 
L 272.984271 369.256962 
z
" style="fill:#808080;"/>
   </g>
   <g id="patch_44">
    <path clip-path="url(#pc99b054d87)" d="M 276.962881 370.076562 
L 282.930795 370.076562 
L 282.930795 358.602156 
L 276.962881 358.602156 
z
" style="fill:#808080;"/>
   </g>
   <g id="patch_45">
    <path clip-path="url(#pc99b054d87)" d="M 280.941491 370.076562 
L 286.909405 370.076562 
L 286.909405 323.359337 
L 280.941491 323.359337 
z
" style="fill:#808080;"/>
   </g>
   <g id="patch_46">
    <path clip-path="url(#pc99b054d87)" d="M 284.9201 370.076562 
L 290.888015 370.076562 
L 290.888015 358.602156 
L 284.9201 358.602156 
z
" style="fill:#808080;"/>
   </g>
   <g id="patch_47">
    <path clip-path="url(#pc99b054d87)" d="M 288.89871 370.076562 
L 294.866624 370.076562 
L 294.866624 369.256962 
L 288.89871 369.256962 
z
" style="fill:#808080;"/>
   </g>
   <g id="patch_48">
    <path clip-path="url(#pc99b054d87)" d="M 292.87732 370.076562 
L 298.845234 370.076562 
L 298.845234 367.617761 
L 292.87732 367.617761 
z
" style="fill:#808080;"/>
   </g>
   <g id="patch_49">
    <path clip-path="url(#pc99b054d87)" d="M 296.855929 370.076562 
L 302.823844 370.076562 
L 302.823844 369.256962 
L 296.855929 369.256962 
z
" style="fill:#808080;"/>
   </g>
   <g id="patch_50">
    <path clip-path="url(#pc99b054d87)" d="M 300.834539 370.076562 
L 306.802453 370.076562 
L 306.802453 350.406152 
L 300.834539 350.406152 
z
" style="fill:#808080;"/>
   </g>
   <g id="patch_51">
    <path clip-path="url(#pc99b054d87)" d="M 304.813148 370.076562 
L 310.781063 370.076562 
L 310.781063 368.437362 
L 304.813148 368.437362 
z
" style="fill:#808080;"/>
   </g>
   <g id="patch_52">
    <path clip-path="url(#pc99b054d87)" d="M 308.791758 370.076562 
L 314.759672 370.076562 
L 314.759672 369.256962 
L 308.791758 369.256962 
z
" style="fill:#808080;"/>
   </g>
   <g id="patch_53">
    <path clip-path="url(#pc99b054d87)" d="M 312.770368 370.076562 
L 318.738282 370.076562 
L 318.738282 368.437362 
L 312.770368 368.437362 
z
" style="fill:#808080;"/>
   </g>
   <g id="patch_54">
    <path clip-path="url(#pc99b054d87)" d="M 316.748977 370.076562 
L 322.716892 370.076562 
L 322.716892 356.962955 
L 316.748977 356.962955 
z
" style="fill:#808080;"/>
   </g>
   <g id="patch_55">
    <path clip-path="url(#pc99b054d87)" d="M 320.727587 370.076562 
L 326.695501 370.076562 
L 326.695501 369.256962 
L 320.727587 369.256962 
z
" style="fill:#808080;"/>
   </g>
   <g id="patch_56">
    <path clip-path="url(#pc99b054d87)" d="M 324.706197 370.076562 
L 330.674111 370.076562 
L 330.674111 270.904908 
L 324.706197 270.904908 
z
" style="fill:#808080;"/>
   </g>
   <g id="patch_57">
    <path clip-path="url(#pc99b054d87)" d="M 328.684806 370.076562 
L 334.652721 370.076562 
L 334.652721 352.045353 
L 328.684806 352.045353 
z
" style="fill:#808080;"/>
   </g>
   <g id="patch_58">
    <path clip-path="url(#pc99b054d87)" d="M 332.663416 370.076562 
L 338.63133 370.076562 
L 338.63133 359.421757 
L 332.663416 359.421757 
z
" style="fill:#808080;"/>
   </g>
   <g id="patch_59">
    <path clip-path="url(#pc99b054d87)" d="M 336.642025 370.076562 
L 342.60994 370.076562 
L 342.60994 367.617761 
L 336.642025 367.617761 
z
" style="fill:#808080;"/>
   </g>
   <g id="patch_60">
    <path clip-path="url(#pc99b054d87)" d="M 340.620635 370.076562 
L 346.588549 370.076562 
L 346.588549 368.437362 
L 340.620635 368.437362 
z
" style="fill:#808080;"/>
   </g>
   <g id="patch_61">
    <path clip-path="url(#pc99b054d87)" d="M 344.599245 370.076562 
L 350.567159 370.076562 
L 350.567159 367.617761 
L 344.599245 367.617761 
z
" style="fill:#808080;"/>
   </g>
   <g id="patch_62">
    <path clip-path="url(#pc99b054d87)" d="M 348.577854 370.076562 
L 354.545769 370.076562 
L 354.545769 368.437362 
L 348.577854 368.437362 
z
" style="fill:#808080;"/>
   </g>
   <g id="patch_63">
    <path clip-path="url(#pc99b054d87)" d="M 352.556464 370.076562 
L 358.524378 370.076562 
L 358.524378 361.880558 
L 352.556464 361.880558 
z
" style="fill:#808080;"/>
   </g>
   <g id="patch_64">
    <path clip-path="url(#pc99b054d87)" d="M 356.535074 370.076562 
L 362.502988 370.076562 
L 362.502988 368.437362 
L 356.535074 368.437362 
z
" style="fill:#808080;"/>
   </g>
   <g id="patch_65">
    <path clip-path="url(#pc99b054d87)" d="M 360.513683 370.076562 
L 366.481598 370.076562 
L 366.481598 366.798161 
L 360.513683 366.798161 
z
" style="fill:#808080;"/>
   </g>
   <g id="patch_66">
    <path clip-path="url(#pc99b054d87)" d="M 364.492293 370.076562 
L 370.460207 370.076562 
L 370.460207 365.97856 
L 364.492293 365.97856 
z
" style="fill:#808080;"/>
   </g>
   <g id="patch_67">
    <path clip-path="url(#pc99b054d87)" d="M 368.470902 370.076562 
L 374.438817 370.076562 
L 374.438817 367.617761 
L 368.470902 367.617761 
z
" style="fill:#808080;"/>
   </g>
   <g id="patch_68">
    <path clip-path="url(#pc99b054d87)" d="M 372.449512 370.076562 
L 378.417426 370.076562 
L 378.417426 369.256962 
L 372.449512 369.256962 
z
" style="fill:#808080;"/>
   </g>
   <g id="patch_69">
    <path clip-path="url(#pc99b054d87)" d="M 376.428122 370.076562 
L 382.396036 370.076562 
L 382.396036 364.339359 
L 376.428122 364.339359 
z
" style="fill:#808080;"/>
   </g>
   <g id="patch_70">
    <path clip-path="url(#pc99b054d87)" d="M 380.406731 370.076562 
L 386.374646 370.076562 
L 386.374646 368.437362 
L 380.406731 368.437362 
z
" style="fill:#808080;"/>
   </g>
   <g id="patch_71">
    <path clip-path="url(#pc99b054d87)" d="M 384.385341 370.076562 
L 390.353255 370.076562 
L 390.353255 365.97856 
L 384.385341 365.97856 
z
" style="fill:#808080;"/>
   </g>
   <g id="patch_72">
    <path clip-path="url(#pc99b054d87)" d="M 388.363951 370.076562 
L 394.331865 370.076562 
L 394.331865 362.700158 
L 388.363951 362.700158 
z
" style="fill:#808080;"/>
   </g>
   <g id="patch_73">
    <path clip-path="url(#pc99b054d87)" d="M 392.34256 370.076562 
L 398.310475 370.076562 
L 398.310475 369.256962 
L 392.34256 369.256962 
z
" style="fill:#808080;"/>
   </g>
   <g id="patch_74">
    <path clip-path="url(#pc99b054d87)" d="M 396.32117 370.076562 
L 402.289084 370.076562 
L 402.289084 292.21452 
L 396.32117 292.21452 
z
" style="fill:#808080;"/>
   </g>
   <g id="patch_75">
    <path clip-path="url(#pc99b054d87)" d="M 400.299779 370.076562 
L 406.267694 370.076562 
L 406.267694 369.256962 
L 400.299779 369.256962 
z
" style="fill:#808080;"/>
   </g>
   <g id="patch_76">
    <path clip-path="url(#pc99b054d87)" d="M 404.278389 370.076562 
L 410.246303 370.076562 
L 410.246303 352.045353 
L 404.278389 352.045353 
z
" style="fill:#808080;"/>
   </g>
   <g id="patch_77">
    <path clip-path="url(#pc99b054d87)" d="M 408.256999 370.076562 
L 414.224913 370.076562 
L 414.224913 361.060958 
L 408.256999 361.060958 
z
" style="fill:#808080;"/>
   </g>
   <g id="patch_78">
    <path clip-path="url(#pc99b054d87)" d="M 412.235608 370.076562 
L 418.203523 370.076562 
L 418.203523 319.261334 
L 412.235608 319.261334 
z
" style="fill:#808080;"/>
   </g>
   <g id="patch_79">
    <path clip-path="url(#pc99b054d87)" d="M 416.214218 370.076562 
L 422.182132 370.076562 
L 422.182132 358.602156 
L 416.214218 358.602156 
z
" style="fill:#808080;"/>
   </g>
   <g id="patch_80">
    <path clip-path="url(#pc99b054d87)" d="M 420.192828 370.076562 
L 426.160742 370.076562 
L 426.160742 365.15896 
L 420.192828 365.15896 
z
" style="fill:#808080;"/>
   </g>
   <g id="patch_81">
    <path clip-path="url(#pc99b054d87)" d="M 424.171437 370.076562 
L 430.139352 370.076562 
L 430.139352 369.256962 
L 424.171437 369.256962 
z
" style="fill:#808080;"/>
   </g>
   <g id="patch_82">
    <path clip-path="url(#pc99b054d87)" d="M 428.150047 370.076562 
L 434.117961 370.076562 
L 434.117961 318.441734 
L 428.150047 318.441734 
z
" style="fill:#808080;"/>
   </g>
   <g id="patch_83">
    <path clip-path="url(#pc99b054d87)" d="M 432.128656 370.076562 
L 438.096571 370.076562 
L 438.096571 135.670833 
L 432.128656 135.670833 
z
" style="fill:#808080;"/>
   </g>
   <g id="patch_84">
    <path clip-path="url(#pc99b054d87)" d="M 436.107266 370.076562 
L 442.07518 370.076562 
L 442.07518 334.014143 
L 436.107266 334.014143 
z
" style="fill:#808080;"/>
   </g>
   <g id="patch_85">
    <path clip-path="url(#pc99b054d87)" d="M 440.085876 370.076562 
L 446.05379 370.076562 
L 446.05379 369.256962 
L 440.085876 369.256962 
z
" style="fill:#808080;"/>
   </g>
   <g id="patch_86">
    <path clip-path="url(#pc99b054d87)" d="M 444.064485 370.076562 
L 450.0324 370.076562 
L 450.0324 369.256962 
L 444.064485 369.256962 
z
" style="fill:#808080;"/>
   </g>
   <g id="patch_87">
    <path clip-path="url(#pc99b054d87)" d="M 448.043095 370.076562 
L 454.011009 370.076562 
L 454.011009 367.617761 
L 448.043095 367.617761 
z
" style="fill:#808080;"/>
   </g>
   <g id="patch_88">
    <path clip-path="url(#pc99b054d87)" d="M 452.021705 370.076562 
L 457.989619 370.076562 
L 457.989619 367.617761 
L 452.021705 367.617761 
z
" style="fill:#808080;"/>
   </g>
   <g id="patch_89">
    <path clip-path="url(#pc99b054d87)" d="M 456.000314 370.076562 
L 461.968229 370.076562 
L 461.968229 257.791301 
L 456.000314 257.791301 
z
" style="fill:#808080;"/>
   </g>
   <g id="patch_90">
    <path clip-path="url(#pc99b054d87)" d="M 459.978924 370.076562 
L 465.946838 370.076562 
L 465.946838 364.339359 
L 459.978924 364.339359 
z
" style="fill:#808080;"/>
   </g>
   <g id="patch_91">
    <path clip-path="url(#pc99b054d87)" d="M 463.957533 370.076562 
L 469.925448 370.076562 
L 469.925448 369.256962 
L 463.957533 369.256962 
z
" style="fill:#808080;"/>
   </g>
   <g id="patch_92">
    <path clip-path="url(#pc99b054d87)" d="M 467.936143 370.076562 
L 473.904057 370.076562 
L 473.904057 360.241357 
L 467.936143 360.241357 
z
" style="fill:#808080;"/>
   </g>
   <g id="patch_93">
    <path clip-path="url(#pc99b054d87)" d="M 471.914753 370.076562 
L 477.882667 370.076562 
L 477.882667 364.339359 
L 471.914753 364.339359 
z
" style="fill:#808080;"/>
   </g>
   <g id="patch_94">
    <path clip-path="url(#pc99b054d87)" d="M 475.893362 370.076562 
L 481.861277 370.076562 
L 481.861277 368.437362 
L 475.893362 368.437362 
z
" style="fill:#808080;"/>
   </g>
   <g id="patch_95">
    <path clip-path="url(#pc99b054d87)" d="M 479.871972 370.076562 
L 485.839886 370.076562 
L 485.839886 368.437362 
L 479.871972 368.437362 
z
" style="fill:#808080;"/>
   </g>
   <g id="patch_96">
    <path clip-path="url(#pc99b054d87)" d="M 483.850582 370.076562 
L 489.818496 370.076562 
L 489.818496 369.256962 
L 483.850582 369.256962 
z
" style="fill:#808080;"/>
   </g>
   <g id="patch_97">
    <path clip-path="url(#pc99b054d87)" d="M 487.829191 370.076562 
L 493.797106 370.076562 
L 493.797106 365.97856 
L 487.829191 365.97856 
z
" style="fill:#808080;"/>
   </g>
   <g id="patch_98">
    <path clip-path="url(#pc99b054d87)" d="M 491.807801 370.076562 
L 497.775715 370.076562 
L 497.775715 369.256962 
L 491.807801 369.256962 
z
" style="fill:#808080;"/>
   </g>
   <g id="patch_99">
    <path clip-path="url(#pc99b054d87)" d="M 495.78641 370.076562 
L 501.754325 370.076562 
L 501.754325 369.256962 
L 495.78641 369.256962 
z
" style="fill:#808080;"/>
   </g>
   <g id="patch_100">
    <path clip-path="url(#pc99b054d87)" d="M 499.76502 370.076562 
L 505.732934 370.076562 
L 505.732934 293.03412 
L 499.76502 293.03412 
z
" style="fill:#808080;"/>
   </g>
   <g id="patch_101">
    <path clip-path="url(#pc99b054d87)" d="M 503.74363 370.076562 
L 509.711544 370.076562 
L 509.711544 367.617761 
L 503.74363 367.617761 
z
" style="fill:#808080;"/>
   </g>
   <g id="patch_102">
    <path clip-path="url(#pc99b054d87)" d="M 507.722239 370.076562 
L 513.690154 370.076562 
L 513.690154 365.97856 
L 507.722239 365.97856 
z
" style="fill:#808080;"/>
   </g>
   <g id="patch_103">
    <path clip-path="url(#pc99b054d87)" d="M 511.700849 370.076562 
L 517.668763 370.076562 
L 517.668763 362.700158 
L 511.700849 362.700158 
z
" style="fill:#808080;"/>
   </g>
   <g id="patch_104">
    <path clip-path="url(#pc99b054d87)" d="M 515.679459 370.076562 
L 521.647373 370.076562 
L 521.647373 247.956095 
L 515.679459 247.956095 
z
" style="fill:#808080;"/>
   </g>
   <g id="patch_105">
    <path clip-path="url(#pc99b054d87)" d="M 519.658068 370.076562 
L 525.625983 370.076562 
L 525.625983 365.15896 
L 519.658068 365.15896 
z
" style="fill:#808080;"/>
   </g>
   <g id="patch_106">
    <path clip-path="url(#pc99b054d87)" d="M 523.636678 370.076562 
L 529.604592 370.076562 
L 529.604592 334.833743 
L 523.636678 334.833743 
z
" style="fill:#808080;"/>
   </g>
   <g id="patch_107">
    <path clip-path="url(#pc99b054d87)" d="M 527.615287 370.076562 
L 533.583202 370.076562 
L 533.583202 369.256962 
L 527.615287 369.256962 
z
" style="fill:#808080;"/>
   </g>
   <g id="patch_108">
    <path clip-path="url(#pc99b054d87)" d="M 531.593897 370.076562 
L 537.561811 370.076562 
L 537.561811 334.014143 
L 531.593897 334.014143 
z
" style="fill:#808080;"/>
   </g>
   <g id="patch_109">
    <path clip-path="url(#pc99b054d87)" d="M 535.572507 370.076562 
L 541.540421 370.076562 
L 541.540421 365.97856 
L 535.572507 365.97856 
z
" style="fill:#808080;"/>
   </g>
   <g id="patch_110">
    <path clip-path="url(#pc99b054d87)" d="M 539.551116 370.076562 
L 545.519031 370.076562 
L 545.519031 369.256962 
L 539.551116 369.256962 
z
" style="fill:#808080;"/>
   </g>
   <g id="patch_111">
    <path clip-path="url(#pc99b054d87)" d="M 543.529726 370.076562 
L 549.49764 370.076562 
L 549.49764 364.339359 
L 543.529726 364.339359 
z
" style="fill:#808080;"/>
   </g>
   <g id="patch_112">
    <path clip-path="url(#pc99b054d87)" d="M 547.508336 370.076562 
L 553.47625 370.076562 
L 553.47625 368.437362 
L 547.508336 368.437362 
z
" style="fill:#808080;"/>
   </g>
   <g id="patch_113">
    <path clip-path="url(#pc99b054d87)" d="M 551.486945 370.076562 
L 557.45486 370.076562 
L 557.45486 364.339359 
L 551.486945 364.339359 
z
" style="fill:#808080;"/>
   </g>
   <g id="patch_114">
    <path clip-path="url(#pc99b054d87)" d="M 555.465555 370.076562 
L 561.433469 370.076562 
L 561.433469 361.060958 
L 555.465555 361.060958 
z
" style="fill:#808080;"/>
   </g>
   <g id="patch_115">
    <path clip-path="url(#pc99b054d87)" d="M 559.444164 370.076562 
L 565.412079 370.076562 
L 565.412079 363.519759 
L 559.444164 363.519759 
z
" style="fill:#808080;"/>
   </g>
   <g id="patch_116">
    <path clip-path="url(#pc99b054d87)" d="M 563.422774 370.076562 
L 569.390689 370.076562 
L 569.390689 365.97856 
L 563.422774 365.97856 
z
" style="fill:#808080;"/>
   </g>
   <g id="patch_117">
    <path clip-path="url(#pc99b054d87)" d="M 567.401384 370.076562 
L 573.369298 370.076562 
L 573.369298 366.798161 
L 567.401384 366.798161 
z
" style="fill:#808080;"/>
   </g>
   <g id="patch_118">
    <path clip-path="url(#pc99b054d87)" d="M 571.379993 370.076562 
L 577.347908 370.076562 
L 577.347908 326.637739 
L 571.379993 326.637739 
z
" style="fill:#808080;"/>
   </g>
   <g id="patch_119">
    <path clip-path="url(#pc99b054d87)" d="M 575.358603 370.076562 
L 581.326517 370.076562 
L 581.326517 320.080935 
L 575.358603 320.080935 
z
" style="fill:#808080;"/>
   </g>
   <g id="patch_120">
    <path clip-path="url(#pc99b054d87)" d="M 579.337213 370.076562 
L 585.305127 370.076562 
L 585.305127 365.15896 
L 579.337213 365.15896 
z
" style="fill:#808080;"/>
   </g>
   <g id="patch_121">
    <path clip-path="url(#pc99b054d87)" d="M 583.315822 370.076562 
L 589.283737 370.076562 
L 589.283737 365.15896 
L 583.315822 365.15896 
z
" style="fill:#808080;"/>
   </g>
   <g id="patch_122">
    <path clip-path="url(#pc99b054d87)" d="M 587.294432 370.076562 
L 593.262346 370.076562 
L 593.262346 215.991677 
L 587.294432 215.991677 
z
" style="fill:#808080;"/>
   </g>
   <g id="patch_123">
    <path clip-path="url(#pc99b054d87)" d="M 591.273041 370.076562 
L 597.240956 370.076562 
L 597.240956 369.256962 
L 591.273041 369.256962 
z
" style="fill:#808080;"/>
   </g>
   <g id="patch_124">
    <path clip-path="url(#pc99b054d87)" d="M 595.251651 370.076562 
L 601.219566 370.076562 
L 601.219566 363.519759 
L 595.251651 363.519759 
z
" style="fill:#808080;"/>
   </g>
   <g id="patch_125">
    <path clip-path="url(#pc99b054d87)" d="M 599.230261 370.076562 
L 605.198175 370.076562 
L 605.198175 369.256962 
L 599.230261 369.256962 
z
" style="fill:#808080;"/>
   </g>
   <g id="patch_126">
    <path clip-path="url(#pc99b054d87)" d="M 603.20887 370.076562 
L 609.176785 370.076562 
L 609.176785 332.374942 
L 603.20887 332.374942 
z
" style="fill:#808080;"/>
   </g>
   <g id="patch_127">
    <path clip-path="url(#pc99b054d87)" d="M 607.18748 370.076562 
L 613.155394 370.076562 
L 613.155394 368.437362 
L 607.18748 368.437362 
z
" style="fill:#808080;"/>
   </g>
   <g id="patch_128">
    <path clip-path="url(#pc99b054d87)" d="M 611.16609 370.076562 
L 617.134004 370.076562 
L 617.134004 222.548481 
L 611.16609 222.548481 
z
" style="fill:#808080;"/>
   </g>
   <g id="patch_129">
    <path clip-path="url(#pc99b054d87)" d="M 615.144699 370.076562 
L 621.112614 370.076562 
L 621.112614 369.256962 
L 615.144699 369.256962 
z
" style="fill:#808080;"/>
   </g>
   <g id="matplotlib.axis_1"/>
   <g id="matplotlib.axis_2">
    <g id="ytick_1">
     <g id="line2d_1">
      <defs>
       <path d="M 0 0 
L -3.5 0 
" id="m557f0b015a" style="stroke:#000000;stroke-width:0.8;"/>
      </defs>
      <g>
       <use style="stroke:#000000;stroke-width:0.8;" x="88.47625" xlink:href="#m557f0b015a" y="370.076562"/>
      </g>
     </g>
     <g id="text_1">
      <!-- 0.00 -->
      <defs>
       <path d="M 31.78125 3.421875 
Q 39.265625 3.421875 42.96875 11.625 
Q 46.6875 19.828125 46.6875 36.375 
Q 46.6875 52.984375 42.96875 61.1875 
Q 39.265625 69.390625 31.78125 69.390625 
Q 24.3125 69.390625 20.59375 61.1875 
Q 16.890625 52.984375 16.890625 36.375 
Q 16.890625 19.828125 20.59375 11.625 
Q 24.3125 3.421875 31.78125 3.421875 
z
M 31.78125 -1.421875 
Q 19.921875 -1.421875 13.25 8.53125 
Q 6.59375 18.5 6.59375 36.375 
Q 6.59375 54.296875 13.25 64.25 
Q 19.921875 74.21875 31.78125 74.21875 
Q 43.703125 74.21875 50.34375 64.25 
Q 56.984375 54.296875 56.984375 36.375 
Q 56.984375 18.5 50.34375 8.53125 
Q 43.703125 -1.421875 31.78125 -1.421875 
z
" id="DejaVuSerif-48"/>
       <path d="M 9.421875 5.078125 
Q 9.421875 7.8125 11.28125 9.71875 
Q 13.140625 11.625 15.921875 11.625 
Q 18.609375 11.625 20.5 9.71875 
Q 22.40625 7.8125 22.40625 5.078125 
Q 22.40625 2.390625 20.5 0.484375 
Q 18.609375 -1.421875 15.921875 -1.421875 
Q 13.140625 -1.421875 11.28125 0.453125 
Q 9.421875 2.34375 9.421875 5.078125 
z
" id="DejaVuSerif-46"/>
      </defs>
      <g transform="translate(32.491875 378.434844)scale(0.22 -0.22)">
       <use xlink:href="#DejaVuSerif-48"/>
       <use x="63.623047" xlink:href="#DejaVuSerif-46"/>
       <use x="95.410156" xlink:href="#DejaVuSerif-48"/>
       <use x="159.033203" xlink:href="#DejaVuSerif-48"/>
      </g>
     </g>
    </g>
    <g id="ytick_2">
     <g id="line2d_2">
      <g>
       <use style="stroke:#000000;stroke-width:0.8;" x="88.47625" xlink:href="#m557f0b015a" y="310.196553"/>
      </g>
     </g>
     <g id="text_2">
      <!-- 0.02 -->
      <defs>
       <path d="M 12.796875 55.515625 
L 7.328125 55.515625 
L 7.328125 68.5 
Q 12.546875 71.296875 17.84375 72.75 
Q 23.140625 74.21875 28.21875 74.21875 
Q 39.59375 74.21875 46.1875 68.703125 
Q 52.78125 63.1875 52.78125 53.71875 
Q 52.78125 43.015625 37.84375 28.125 
Q 36.671875 27 36.078125 26.421875 
L 17.671875 8.015625 
L 48.09375 8.015625 
L 48.09375 17 
L 53.8125 17 
L 53.8125 0 
L 6.78125 0 
L 6.78125 5.328125 
L 28.90625 27.390625 
Q 36.234375 34.71875 39.359375 40.84375 
Q 42.484375 46.96875 42.484375 53.71875 
Q 42.484375 61.078125 38.640625 65.234375 
Q 34.8125 69.390625 28.078125 69.390625 
Q 21.09375 69.390625 17.28125 65.921875 
Q 13.484375 62.453125 12.796875 55.515625 
z
" id="DejaVuSerif-50"/>
      </defs>
      <g transform="translate(32.491875 318.554835)scale(0.22 -0.22)">
       <use xlink:href="#DejaVuSerif-48"/>
       <use x="63.623047" xlink:href="#DejaVuSerif-46"/>
       <use x="95.410156" xlink:href="#DejaVuSerif-48"/>
       <use x="159.033203" xlink:href="#DejaVuSerif-50"/>
      </g>
     </g>
    </g>
    <g id="ytick_3">
     <g id="line2d_3">
      <g>
       <use style="stroke:#000000;stroke-width:0.8;" x="88.47625" xlink:href="#m557f0b015a" y="250.316544"/>
      </g>
     </g>
     <g id="text_3">
      <!-- 0.04 -->
      <defs>
       <path d="M 34.90625 24.703125 
L 34.90625 63.484375 
L 10.015625 24.703125 
z
M 56.390625 0 
L 23.1875 0 
L 23.1875 5.171875 
L 34.90625 5.171875 
L 34.90625 19.484375 
L 3.078125 19.484375 
L 3.078125 24.8125 
L 35.015625 74.21875 
L 44.671875 74.21875 
L 44.671875 24.703125 
L 58.59375 24.703125 
L 58.59375 19.484375 
L 44.671875 19.484375 
L 44.671875 5.171875 
L 56.390625 5.171875 
z
" id="DejaVuSerif-52"/>
      </defs>
      <g transform="translate(32.491875 258.674826)scale(0.22 -0.22)">
       <use xlink:href="#DejaVuSerif-48"/>
       <use x="63.623047" xlink:href="#DejaVuSerif-46"/>
       <use x="95.410156" xlink:href="#DejaVuSerif-48"/>
       <use x="159.033203" xlink:href="#DejaVuSerif-52"/>
      </g>
     </g>
    </g>
    <g id="ytick_4">
     <g id="line2d_4">
      <g>
       <use style="stroke:#000000;stroke-width:0.8;" x="88.47625" xlink:href="#m557f0b015a" y="190.436535"/>
      </g>
     </g>
     <g id="text_4">
      <!-- 0.06 -->
      <defs>
       <path d="M 32.71875 3.421875 
Q 39.59375 3.421875 43.296875 8.46875 
Q 47.015625 13.53125 47.015625 23 
Q 47.015625 32.46875 43.296875 37.515625 
Q 39.59375 42.578125 32.71875 42.578125 
Q 25.734375 42.578125 22.0625 37.6875 
Q 18.40625 32.8125 18.40625 23.578125 
Q 18.40625 13.875 22.109375 8.640625 
Q 25.828125 3.421875 32.71875 3.421875 
z
M 16.796875 40.140625 
Q 20.125 43.796875 24.3125 45.59375 
Q 28.515625 47.40625 33.796875 47.40625 
Q 44.671875 47.40625 51 40.859375 
Q 57.328125 34.328125 57.328125 23 
Q 57.328125 11.921875 50.515625 5.25 
Q 43.703125 -1.421875 32.328125 -1.421875 
Q 19.96875 -1.421875 13.328125 7.78125 
Q 6.6875 17 6.6875 34.078125 
Q 6.6875 53.21875 14.546875 63.71875 
Q 22.40625 74.21875 36.71875 74.21875 
Q 40.578125 74.21875 44.828125 73.484375 
Q 49.078125 72.75 53.515625 71.296875 
L 53.515625 59.28125 
L 48 59.28125 
Q 47.40625 64.203125 44.234375 66.796875 
Q 41.0625 69.390625 35.6875 69.390625 
Q 26.21875 69.390625 21.578125 62.203125 
Q 16.9375 55.03125 16.796875 40.140625 
z
" id="DejaVuSerif-54"/>
      </defs>
      <g transform="translate(32.491875 198.794817)scale(0.22 -0.22)">
       <use xlink:href="#DejaVuSerif-48"/>
       <use x="63.623047" xlink:href="#DejaVuSerif-46"/>
       <use x="95.410156" xlink:href="#DejaVuSerif-48"/>
       <use x="159.033203" xlink:href="#DejaVuSerif-54"/>
      </g>
     </g>
    </g>
    <g id="ytick_5">
     <g id="line2d_5">
      <g>
       <use style="stroke:#000000;stroke-width:0.8;" x="88.47625" xlink:href="#m557f0b015a" y="130.556526"/>
      </g>
     </g>
     <g id="text_5">
      <!-- 0.08 -->
      <defs>
       <path d="M 46.578125 19.921875 
Q 46.578125 27.734375 42.6875 32.046875 
Q 38.8125 36.375 31.78125 36.375 
Q 24.75 36.375 20.875 32.046875 
Q 17 27.734375 17 19.921875 
Q 17 12.0625 20.875 7.734375 
Q 24.75 3.421875 31.78125 3.421875 
Q 38.8125 3.421875 42.6875 7.734375 
Q 46.578125 12.0625 46.578125 19.921875 
z
M 44.578125 55.328125 
Q 44.578125 61.96875 41.203125 65.671875 
Q 37.84375 69.390625 31.78125 69.390625 
Q 25.78125 69.390625 22.390625 65.671875 
Q 19 61.96875 19 55.328125 
Q 19 48.640625 22.390625 44.921875 
Q 25.78125 41.21875 31.78125 41.21875 
Q 37.84375 41.21875 41.203125 44.921875 
Q 44.578125 48.640625 44.578125 55.328125 
z
M 39.3125 38.8125 
Q 47.609375 37.703125 52.25 32.6875 
Q 56.890625 27.6875 56.890625 19.921875 
Q 56.890625 9.671875 50.390625 4.125 
Q 43.890625 -1.421875 31.78125 -1.421875 
Q 19.734375 -1.421875 13.203125 4.125 
Q 6.6875 9.671875 6.6875 19.921875 
Q 6.6875 27.6875 11.328125 32.6875 
Q 15.96875 37.703125 24.3125 38.8125 
Q 16.9375 40.140625 13 44.40625 
Q 9.078125 48.6875 9.078125 55.328125 
Q 9.078125 64.109375 15.125 69.15625 
Q 21.1875 74.21875 31.78125 74.21875 
Q 42.390625 74.21875 48.4375 69.15625 
Q 54.5 64.109375 54.5 55.328125 
Q 54.5 48.6875 50.5625 44.40625 
Q 46.625 40.140625 39.3125 38.8125 
z
" id="DejaVuSerif-56"/>
      </defs>
      <g transform="translate(32.491875 138.914808)scale(0.22 -0.22)">
       <use xlink:href="#DejaVuSerif-48"/>
       <use x="63.623047" xlink:href="#DejaVuSerif-46"/>
       <use x="95.410156" xlink:href="#DejaVuSerif-48"/>
       <use x="159.033203" xlink:href="#DejaVuSerif-56"/>
      </g>
     </g>
    </g>
    <g id="ytick_6">
     <g id="line2d_6">
      <g>
       <use style="stroke:#000000;stroke-width:0.8;" x="88.47625" xlink:href="#m557f0b015a" y="70.676517"/>
      </g>
     </g>
     <g id="text_6">
      <!-- 0.10 -->
      <defs>
       <path d="M 14.203125 0 
L 14.203125 5.171875 
L 26.90625 5.171875 
L 26.90625 65.828125 
L 12.203125 56.296875 
L 12.203125 62.703125 
L 29.984375 74.21875 
L 36.71875 74.21875 
L 36.71875 5.171875 
L 49.421875 5.171875 
L 49.421875 0 
z
" id="DejaVuSerif-49"/>
      </defs>
      <g transform="translate(32.491875 79.034799)scale(0.22 -0.22)">
       <use xlink:href="#DejaVuSerif-48"/>
       <use x="63.623047" xlink:href="#DejaVuSerif-46"/>
       <use x="95.410156" xlink:href="#DejaVuSerif-49"/>
       <use x="159.033203" xlink:href="#DejaVuSerif-48"/>
      </g>
     </g>
    </g>
    <g id="text_7">
     <!-- Frequency -->
     <defs>
      <path d="M 5.515625 0 
L 5.515625 5.171875 
L 14.796875 5.171875 
L 14.796875 67.671875 
L 5.515625 67.671875 
L 5.515625 72.90625 
L 65.1875 72.90625 
L 65.1875 56.6875 
L 59.1875 56.6875 
L 59.1875 66.890625 
L 24.703125 66.890625 
L 24.703125 42.484375 
L 49.609375 42.484375 
L 49.609375 51.609375 
L 55.609375 51.609375 
L 55.609375 27.390625 
L 49.609375 27.390625 
L 49.609375 36.53125 
L 24.703125 36.53125 
L 24.703125 5.171875 
L 36.375 5.171875 
L 36.375 0 
z
" id="DejaVuSerif-70"/>
      <path d="M 47.796875 52 
L 47.796875 39.015625 
L 42.625 39.015625 
Q 42.390625 42.875 40.484375 44.78125 
Q 38.578125 46.6875 34.90625 46.6875 
Q 28.265625 46.6875 24.71875 42.09375 
Q 21.1875 37.5 21.1875 28.90625 
L 21.1875 5.171875 
L 31.59375 5.171875 
L 31.59375 0 
L 4.109375 0 
L 4.109375 5.171875 
L 12.203125 5.171875 
L 12.203125 46.78125 
L 3.609375 46.78125 
L 3.609375 51.90625 
L 21.1875 51.90625 
L 21.1875 42.671875 
Q 23.828125 48.09375 27.96875 50.703125 
Q 32.125 53.328125 38.09375 53.328125 
Q 40.28125 53.328125 42.703125 52.984375 
Q 45.125 52.640625 47.796875 52 
z
" id="DejaVuSerif-114"/>
      <path d="M 54.203125 25 
L 15.484375 25 
L 15.484375 24.609375 
Q 15.484375 14.109375 19.4375 8.765625 
Q 23.390625 3.421875 31.109375 3.421875 
Q 37.015625 3.421875 40.796875 6.515625 
Q 44.578125 9.625 46.09375 15.71875 
L 53.328125 15.71875 
Q 51.171875 7.171875 45.375 2.875 
Q 39.59375 -1.421875 30.171875 -1.421875 
Q 18.796875 -1.421875 11.890625 6.078125 
Q 4.984375 13.578125 4.984375 25.984375 
Q 4.984375 38.28125 11.765625 45.796875 
Q 18.5625 53.328125 29.59375 53.328125 
Q 41.359375 53.328125 47.65625 46.0625 
Q 53.953125 38.8125 54.203125 25 
z
M 43.609375 30.171875 
Q 43.3125 39.265625 39.765625 43.875 
Q 36.234375 48.484375 29.59375 48.484375 
Q 23.390625 48.484375 19.828125 43.84375 
Q 16.265625 39.203125 15.484375 30.171875 
z
" id="DejaVuSerif-101"/>
      <path d="M 52.484375 46.6875 
L 52.484375 -15.578125 
L 61.078125 -15.578125 
L 61.078125 -20.796875 
L 35.015625 -20.796875 
L 35.015625 -15.578125 
L 43.5 -15.578125 
L 43.5 8.109375 
Q 40.875 3.21875 36.796875 0.890625 
Q 32.71875 -1.421875 26.703125 -1.421875 
Q 17.140625 -1.421875 11.0625 6.171875 
Q 4.984375 13.765625 4.984375 25.984375 
Q 4.984375 38.1875 11.03125 45.75 
Q 17.09375 53.328125 26.703125 53.328125 
Q 32.71875 53.328125 36.796875 51 
Q 40.875 48.6875 43.5 43.796875 
L 43.5 51.90625 
L 61.078125 51.90625 
L 61.078125 46.6875 
z
M 43.5 28.515625 
Q 43.5 37.84375 39.90625 42.765625 
Q 36.328125 47.703125 29.5 47.703125 
Q 22.5625 47.703125 19.015625 42.234375 
Q 15.484375 36.765625 15.484375 25.984375 
Q 15.484375 15.234375 19.015625 9.71875 
Q 22.5625 4.203125 29.5 4.203125 
Q 36.328125 4.203125 39.90625 9.109375 
Q 43.5 14.015625 43.5 23.390625 
z
" id="DejaVuSerif-113"/>
      <path d="M 35.40625 51.90625 
L 52.203125 51.90625 
L 52.203125 5.171875 
L 60.6875 5.171875 
L 60.6875 0 
L 43.21875 0 
L 43.21875 9.1875 
Q 40.71875 4 36.765625 1.28125 
Q 32.8125 -1.421875 27.59375 -1.421875 
Q 18.953125 -1.421875 14.875 3.484375 
Q 10.796875 8.40625 10.796875 18.890625 
L 10.796875 46.6875 
L 2.6875 46.6875 
L 2.6875 51.90625 
L 19.828125 51.90625 
L 19.828125 21.6875 
Q 19.828125 12.203125 22.140625 8.6875 
Q 24.46875 5.171875 30.421875 5.171875 
Q 36.671875 5.171875 39.9375 9.765625 
Q 43.21875 14.359375 43.21875 23.09375 
L 43.21875 46.6875 
L 35.40625 46.6875 
z
" id="DejaVuSerif-117"/>
      <path d="M 4.109375 0 
L 4.109375 5.171875 
L 12.203125 5.171875 
L 12.203125 46.6875 
L 3.609375 46.6875 
L 3.609375 51.90625 
L 21.1875 51.90625 
L 21.1875 42.671875 
Q 23.6875 47.953125 27.65625 50.640625 
Q 31.640625 53.328125 36.921875 53.328125 
Q 45.515625 53.328125 49.5625 48.390625 
Q 53.609375 43.453125 53.609375 33.015625 
L 53.609375 5.171875 
L 61.625 5.171875 
L 61.625 0 
L 36.8125 0 
L 36.8125 5.171875 
L 44.578125 5.171875 
L 44.578125 30.171875 
Q 44.578125 39.703125 42.234375 43.234375 
Q 39.890625 46.78125 33.984375 46.78125 
Q 27.734375 46.78125 24.453125 42.203125 
Q 21.1875 37.640625 21.1875 28.90625 
L 21.1875 5.171875 
L 29 5.171875 
L 29 0 
z
" id="DejaVuSerif-110"/>
      <path d="M 51.421875 15.578125 
Q 49.515625 7.28125 44.09375 2.921875 
Q 38.671875 -1.421875 30.078125 -1.421875 
Q 18.75 -1.421875 11.859375 6.078125 
Q 4.984375 13.578125 4.984375 25.984375 
Q 4.984375 38.421875 11.859375 45.875 
Q 18.75 53.328125 30.078125 53.328125 
Q 35.015625 53.328125 39.890625 52.171875 
Q 44.78125 51.03125 49.703125 48.6875 
L 49.703125 35.40625 
L 44.484375 35.40625 
Q 43.453125 42.234375 40.015625 45.359375 
Q 36.578125 48.484375 30.171875 48.484375 
Q 22.90625 48.484375 19.1875 42.84375 
Q 15.484375 37.203125 15.484375 25.984375 
Q 15.484375 14.75 19.171875 9.078125 
Q 22.859375 3.421875 30.171875 3.421875 
Q 35.984375 3.421875 39.453125 6.4375 
Q 42.921875 9.46875 44.1875 15.578125 
z
" id="DejaVuSerif-99"/>
      <path d="M 21.578125 -9.515625 
L 25 -0.875 
L 5.609375 46.6875 
L -0.296875 46.6875 
L -0.296875 51.90625 
L 23.578125 51.90625 
L 23.578125 46.6875 
L 15.28125 46.6875 
L 29.890625 10.984375 
L 44.484375 46.6875 
L 36.71875 46.6875 
L 36.71875 51.90625 
L 56.203125 51.90625 
L 56.203125 46.6875 
L 50.390625 46.6875 
L 26.609375 -11.71875 
Q 24.171875 -17.78125 21.1875 -20 
Q 18.21875 -22.21875 12.796875 -22.21875 
Q 10.5 -22.21875 8.078125 -21.828125 
Q 5.671875 -21.4375 3.21875 -20.703125 
L 3.21875 -10.796875 
L 7.8125 -10.796875 
Q 8.109375 -14.109375 9.5 -15.546875 
Q 10.890625 -17 13.8125 -17 
Q 16.5 -17 18.140625 -15.5 
Q 19.78125 -14.015625 21.578125 -9.515625 
z
" id="DejaVuSerif-121"/>
     </defs>
     <g transform="translate(23.60375 266.494531)rotate(-90)scale(0.22 -0.22)">
      <use xlink:href="#DejaVuSerif-70"/>
      <use x="69.384766" xlink:href="#DejaVuSerif-114"/>
      <use x="117.1875" xlink:href="#DejaVuSerif-101"/>
      <use x="176.367188" xlink:href="#DejaVuSerif-113"/>
      <use x="240.380859" xlink:href="#DejaVuSerif-117"/>
      <use x="304.785156" xlink:href="#DejaVuSerif-101"/>
      <use x="363.964844" xlink:href="#DejaVuSerif-110"/>
      <use x="428.369141" xlink:href="#DejaVuSerif-99"/>
      <use x="484.375" xlink:href="#DejaVuSerif-121"/>
     </g>
    </g>
   </g>
   <g id="patch_130">
    <path d="M 88.47625 370.076562 
L 88.47625 43.916562 
" style="fill:none;stroke:#000000;stroke-linecap:square;stroke-linejoin:miter;stroke-width:0.8;"/>
   </g>
   <g id="patch_131">
    <path d="M 646.47625 370.076562 
L 646.47625 43.916562 
" style="fill:none;stroke:#000000;stroke-linecap:square;stroke-linejoin:miter;stroke-width:0.8;"/>
   </g>
   <g id="patch_132">
    <path d="M 88.47625 370.076562 
L 646.47625 370.076562 
" style="fill:none;stroke:#000000;stroke-linecap:square;stroke-linejoin:miter;stroke-width:0.8;"/>
   </g>
   <g id="patch_133">
    <path d="M 88.47625 43.916562 
L 646.47625 43.916562 
" style="fill:none;stroke:#000000;stroke-linecap:square;stroke-linejoin:miter;stroke-width:0.8;"/>
   </g>
   <g id="text_8">
    <!-- Rodentia Species Distribution -->
    <defs>
     <path d="M 47.90625 36.1875 
Q 51.3125 35.25 53.78125 33.03125 
Q 56.25 30.8125 58.203125 26.8125 
L 68.796875 5.171875 
L 77.6875 5.171875 
L 77.6875 0 
L 60.5 0 
L 49.125 23.1875 
Q 45.84375 29.9375 43.109375 31.90625 
Q 40.375 33.890625 35.59375 33.890625 
L 24.703125 33.890625 
L 24.703125 5.171875 
L 35.015625 5.171875 
L 35.015625 0 
L 5.515625 0 
L 5.515625 5.171875 
L 14.796875 5.171875 
L 14.796875 67.671875 
L 5.515625 67.671875 
L 5.515625 72.90625 
L 42.484375 72.90625 
Q 53.125 72.90625 58.90625 67.828125 
Q 64.703125 62.75 64.703125 53.421875 
Q 64.703125 45.90625 60.46875 41.578125 
Q 56.25 37.25 47.90625 36.1875 
z
M 24.703125 39.109375 
L 39.109375 39.109375 
Q 46.484375 39.109375 50 42.59375 
Q 53.515625 46.09375 53.515625 53.421875 
Q 53.515625 60.75 50 64.203125 
Q 46.484375 67.671875 39.109375 67.671875 
L 24.703125 67.671875 
z
" id="DejaVuSerif-82"/>
     <path d="M 30.078125 3.421875 
Q 37.3125 3.421875 40.984375 9.125 
Q 44.671875 14.84375 44.671875 25.984375 
Q 44.671875 37.109375 40.984375 42.796875 
Q 37.3125 48.484375 30.078125 48.484375 
Q 22.859375 48.484375 19.171875 42.796875 
Q 15.484375 37.109375 15.484375 25.984375 
Q 15.484375 14.84375 19.1875 9.125 
Q 22.90625 3.421875 30.078125 3.421875 
z
M 30.078125 -1.421875 
Q 18.75 -1.421875 11.859375 6.078125 
Q 4.984375 13.578125 4.984375 25.984375 
Q 4.984375 38.375 11.84375 45.84375 
Q 18.703125 53.328125 30.078125 53.328125 
Q 41.453125 53.328125 48.3125 45.84375 
Q 55.171875 38.375 55.171875 25.984375 
Q 55.171875 13.578125 48.3125 6.078125 
Q 41.453125 -1.421875 30.078125 -1.421875 
z
" id="DejaVuSerif-111"/>
     <path d="M 52.484375 5.171875 
L 61.078125 5.171875 
L 61.078125 0 
L 43.5 0 
L 43.5 8.109375 
Q 40.875 3.21875 36.796875 0.890625 
Q 32.71875 -1.421875 26.703125 -1.421875 
Q 17.140625 -1.421875 11.0625 6.171875 
Q 4.984375 13.765625 4.984375 25.984375 
Q 4.984375 38.1875 11.03125 45.75 
Q 17.09375 53.328125 26.703125 53.328125 
Q 32.71875 53.328125 36.796875 51 
Q 40.875 48.6875 43.5 43.796875 
L 43.5 70.796875 
L 35.015625 70.796875 
L 35.015625 75.984375 
L 52.484375 75.984375 
z
M 43.5 23.390625 
L 43.5 28.515625 
Q 43.5 37.84375 39.90625 42.765625 
Q 36.328125 47.703125 29.5 47.703125 
Q 22.5625 47.703125 19.015625 42.234375 
Q 15.484375 36.765625 15.484375 25.984375 
Q 15.484375 15.234375 19.015625 9.71875 
Q 22.5625 4.203125 29.5 4.203125 
Q 36.328125 4.203125 39.90625 9.109375 
Q 43.5 14.015625 43.5 23.390625 
z
" id="DejaVuSerif-100"/>
     <path d="M 10.796875 46.6875 
L 2.875 46.6875 
L 2.875 51.90625 
L 10.796875 51.90625 
L 10.796875 68.015625 
L 19.828125 68.015625 
L 19.828125 51.90625 
L 36.71875 51.90625 
L 36.71875 46.6875 
L 19.828125 46.6875 
L 19.828125 13.71875 
Q 19.828125 7.125 21.09375 5.265625 
Q 22.359375 3.421875 25.78125 3.421875 
Q 29.296875 3.421875 30.90625 5.484375 
Q 32.515625 7.5625 32.625 12.203125 
L 39.40625 12.203125 
Q 39.015625 5.125 35.546875 1.84375 
Q 32.078125 -1.421875 25 -1.421875 
Q 17.234375 -1.421875 14.015625 2.015625 
Q 10.796875 5.46875 10.796875 13.71875 
z
" id="DejaVuSerif-116"/>
     <path d="M 9.71875 68.015625 
Q 9.71875 70.265625 11.34375 71.921875 
Q 12.984375 73.578125 15.28125 73.578125 
Q 17.53125 73.578125 19.15625 71.921875 
Q 20.796875 70.265625 20.796875 68.015625 
Q 20.796875 65.71875 19.1875 64.109375 
Q 17.578125 62.5 15.28125 62.5 
Q 12.984375 62.5 11.34375 64.109375 
Q 9.71875 65.71875 9.71875 68.015625 
z
M 21.1875 5.171875 
L 29.6875 5.171875 
L 29.6875 0 
L 3.609375 0 
L 3.609375 5.171875 
L 12.203125 5.171875 
L 12.203125 46.6875 
L 3.609375 46.6875 
L 3.609375 51.90625 
L 21.1875 51.90625 
z
" id="DejaVuSerif-105"/>
     <path d="M 39.796875 16.3125 
L 39.796875 27.296875 
L 28.21875 27.296875 
Q 21.53125 27.296875 18.25 24.40625 
Q 14.984375 21.53125 14.984375 15.578125 
Q 14.984375 10.15625 18.296875 6.984375 
Q 21.625 3.8125 27.296875 3.8125 
Q 32.90625 3.8125 36.34375 7.28125 
Q 39.796875 10.75 39.796875 16.3125 
z
M 48.78125 32.421875 
L 48.78125 5.171875 
L 56.78125 5.171875 
L 56.78125 0 
L 39.796875 0 
L 39.796875 5.609375 
Q 36.8125 2 32.90625 0.28125 
Q 29 -1.421875 23.78125 -1.421875 
Q 15.140625 -1.421875 10.0625 3.171875 
Q 4.984375 7.765625 4.984375 15.578125 
Q 4.984375 23.640625 10.796875 28.078125 
Q 16.609375 32.515625 27.203125 32.515625 
L 39.796875 32.515625 
L 39.796875 36.078125 
Q 39.796875 42 36.203125 45.234375 
Q 32.625 48.484375 26.125 48.484375 
Q 20.75 48.484375 17.578125 46.046875 
Q 14.40625 43.609375 13.625 38.8125 
L 8.984375 38.8125 
L 8.984375 49.3125 
Q 13.671875 51.3125 18.09375 52.3125 
Q 22.515625 53.328125 26.703125 53.328125 
Q 37.5 53.328125 43.140625 47.96875 
Q 48.78125 42.625 48.78125 32.421875 
z
" id="DejaVuSerif-97"/>
     <path id="DejaVuSerif-32"/>
     <path d="M 9.28125 3.515625 
L 9.28125 20.125 
L 14.890625 20.0625 
Q 15.140625 11.765625 19.703125 7.78125 
Q 24.265625 3.8125 33.59375 3.8125 
Q 42.28125 3.8125 46.84375 7.25 
Q 51.421875 10.6875 51.421875 17.28125 
Q 51.421875 22.5625 48.65625 25.390625 
Q 45.90625 28.21875 37.015625 30.90625 
L 27.390625 33.796875 
Q 16.9375 36.96875 12.671875 41.703125 
Q 8.40625 46.4375 8.40625 54.6875 
Q 8.40625 63.96875 14.984375 69.09375 
Q 21.578125 74.21875 33.5 74.21875 
Q 38.578125 74.21875 44.625 73.109375 
Q 50.6875 72.015625 57.515625 69.921875 
L 57.515625 54.390625 
L 52 54.390625 
Q 51.171875 62.109375 46.84375 65.546875 
Q 42.53125 69 33.6875 69 
Q 25.984375 69 21.953125 65.84375 
Q 17.921875 62.703125 17.921875 56.6875 
Q 17.921875 51.46875 20.9375 48.484375 
Q 23.96875 45.515625 33.796875 42.578125 
L 42.828125 39.890625 
Q 52.734375 36.921875 56.953125 32.296875 
Q 61.1875 27.6875 61.1875 19.921875 
Q 61.1875 9.328125 54.390625 3.953125 
Q 47.609375 -1.421875 34.1875 -1.421875 
Q 28.171875 -1.421875 21.9375 -0.1875 
Q 15.71875 1.03125 9.28125 3.515625 
z
" id="DejaVuSerif-83"/>
     <path d="M 20.515625 28.515625 
L 20.515625 23.390625 
Q 20.515625 14.015625 24.09375 9.109375 
Q 27.6875 4.203125 34.515625 4.203125 
Q 41.40625 4.203125 44.9375 9.71875 
Q 48.484375 15.234375 48.484375 25.984375 
Q 48.484375 36.765625 44.9375 42.234375 
Q 41.40625 47.703125 34.515625 47.703125 
Q 27.6875 47.703125 24.09375 42.765625 
Q 20.515625 37.84375 20.515625 28.515625 
z
M 11.53125 46.6875 
L 2.875 46.6875 
L 2.875 51.90625 
L 20.515625 51.90625 
L 20.515625 43.796875 
Q 23.140625 48.6875 27.21875 51 
Q 31.296875 53.328125 37.3125 53.328125 
Q 46.875 53.328125 52.921875 45.75 
Q 58.984375 38.1875 58.984375 25.984375 
Q 58.984375 13.765625 52.921875 6.171875 
Q 46.875 -1.421875 37.3125 -1.421875 
Q 31.296875 -1.421875 27.21875 0.890625 
Q 23.140625 3.21875 20.515625 8.109375 
L 20.515625 -15.578125 
L 29 -15.578125 
L 29 -20.796875 
L 2.875 -20.796875 
L 2.875 -15.578125 
L 11.53125 -15.578125 
z
" id="DejaVuSerif-112"/>
     <path d="M 5.609375 2.875 
L 5.609375 14.984375 
L 10.796875 14.984375 
Q 10.984375 9.1875 14.421875 6.296875 
Q 17.875 3.421875 24.609375 3.421875 
Q 30.671875 3.421875 33.84375 5.6875 
Q 37.015625 7.953125 37.015625 12.3125 
Q 37.015625 15.71875 34.6875 17.8125 
Q 32.375 19.921875 24.90625 22.3125 
L 18.40625 24.515625 
Q 11.71875 26.65625 8.71875 29.875 
Q 5.71875 33.109375 5.71875 38.09375 
Q 5.71875 45.21875 10.9375 49.265625 
Q 16.15625 53.328125 25.390625 53.328125 
Q 29.5 53.328125 34.03125 52.25 
Q 38.578125 51.171875 43.40625 49.125 
L 43.40625 37.796875 
L 38.234375 37.796875 
Q 38.03125 42.828125 34.703125 45.65625 
Q 31.390625 48.484375 25.6875 48.484375 
Q 20.015625 48.484375 17.109375 46.484375 
Q 14.203125 44.484375 14.203125 40.484375 
Q 14.203125 37.203125 16.40625 35.21875 
Q 18.609375 33.25 25.203125 31.203125 
L 32.328125 29 
Q 39.703125 26.703125 42.9375 23.265625 
Q 46.1875 19.828125 46.1875 14.40625 
Q 46.1875 7.03125 40.546875 2.796875 
Q 34.90625 -1.421875 25 -1.421875 
Q 19.96875 -1.421875 15.1875 -0.34375 
Q 10.40625 0.734375 5.609375 2.875 
z
" id="DejaVuSerif-115"/>
     <path d="M 24.703125 5.171875 
L 33.796875 5.171875 
Q 48 5.171875 55.59375 13.28125 
Q 63.1875 21.390625 63.1875 36.53125 
Q 63.1875 51.65625 55.609375 59.65625 
Q 48.046875 67.671875 33.796875 67.671875 
L 24.703125 67.671875 
z
M 5.515625 0 
L 5.515625 5.171875 
L 14.796875 5.171875 
L 14.796875 67.671875 
L 5.515625 67.671875 
L 5.515625 72.90625 
L 34.515625 72.90625 
Q 53.375 72.90625 63.890625 63.28125 
Q 74.421875 53.65625 74.421875 36.53125 
Q 74.421875 19.34375 63.875 9.671875 
Q 53.328125 0 34.515625 0 
z
" id="DejaVuSerif-68"/>
     <path d="M 11.53125 5.171875 
L 11.53125 70.796875 
L 2.875 70.796875 
L 2.875 75.984375 
L 20.515625 75.984375 
L 20.515625 43.796875 
Q 23.140625 48.6875 27.21875 51 
Q 31.296875 53.328125 37.3125 53.328125 
Q 46.875 53.328125 52.921875 45.75 
Q 58.984375 38.1875 58.984375 25.984375 
Q 58.984375 13.765625 52.921875 6.171875 
Q 46.875 -1.421875 37.3125 -1.421875 
Q 31.296875 -1.421875 27.21875 0.890625 
Q 23.140625 3.21875 20.515625 8.109375 
L 20.515625 0 
L 2.875 0 
L 2.875 5.171875 
z
M 20.515625 23.390625 
Q 20.515625 14.015625 24.09375 9.109375 
Q 27.6875 4.203125 34.515625 4.203125 
Q 41.40625 4.203125 44.9375 9.71875 
Q 48.484375 15.234375 48.484375 25.984375 
Q 48.484375 36.765625 44.9375 42.234375 
Q 41.40625 47.703125 34.515625 47.703125 
Q 27.6875 47.703125 24.09375 42.765625 
Q 20.515625 37.84375 20.515625 28.515625 
z
" id="DejaVuSerif-98"/>
    </defs>
    <g transform="translate(200.573594 23.916562)scale(0.22 -0.22)">
     <use xlink:href="#DejaVuSerif-82"/>
     <use x="75.292969" xlink:href="#DejaVuSerif-111"/>
     <use x="135.498047" xlink:href="#DejaVuSerif-100"/>
     <use x="199.511719" xlink:href="#DejaVuSerif-101"/>
     <use x="258.691406" xlink:href="#DejaVuSerif-110"/>
     <use x="323.095703" xlink:href="#DejaVuSerif-116"/>
     <use x="363.28125" xlink:href="#DejaVuSerif-105"/>
     <use x="395.263672" xlink:href="#DejaVuSerif-97"/>
     <use x="454.882812" xlink:href="#DejaVuSerif-32"/>
     <use x="486.669922" xlink:href="#DejaVuSerif-83"/>
     <use x="555.175781" xlink:href="#DejaVuSerif-112"/>
     <use x="619.189453" xlink:href="#DejaVuSerif-101"/>
     <use x="678.369141" xlink:href="#DejaVuSerif-99"/>
     <use x="734.375" xlink:href="#DejaVuSerif-105"/>
     <use x="766.357422" xlink:href="#DejaVuSerif-101"/>
     <use x="825.537109" xlink:href="#DejaVuSerif-115"/>
     <use x="876.855469" xlink:href="#DejaVuSerif-32"/>
     <use x="908.642578" xlink:href="#DejaVuSerif-68"/>
     <use x="988.818359" xlink:href="#DejaVuSerif-105"/>
     <use x="1020.800781" xlink:href="#DejaVuSerif-115"/>
     <use x="1072.119141" xlink:href="#DejaVuSerif-116"/>
     <use x="1112.304688" xlink:href="#DejaVuSerif-114"/>
     <use x="1160.107422" xlink:href="#DejaVuSerif-105"/>
     <use x="1192.089844" xlink:href="#DejaVuSerif-98"/>
     <use x="1256.103516" xlink:href="#DejaVuSerif-117"/>
     <use x="1320.507812" xlink:href="#DejaVuSerif-116"/>
     <use x="1360.693359" xlink:href="#DejaVuSerif-105"/>
     <use x="1392.675781" xlink:href="#DejaVuSerif-111"/>
     <use x="1452.880859" xlink:href="#DejaVuSerif-110"/>
    </g>
   </g>
  </g>
 </g>
 <defs>
  <clipPath id="pc99b054d87">
   <rect height="326.16" width="558" x="88.47625" y="43.916562"/>
  </clipPath>
 </defs>
</svg>
