<?xml version="1.0" encoding="utf-8" standalone="no"?>
<!DOCTYPE svg PUBLIC "-//W3C//DTD SVG 1.1//EN"
  "http://www.w3.org/Graphics/SVG/1.1/DTD/svg11.dtd">
<!-- Created with matplotlib (https://matplotlib.org/) -->
<svg height="694.713437pt" version="1.1" viewBox="0 0 911.999687 694.713437" width="911.999687pt" xmlns="http://www.w3.org/2000/svg" xmlns:xlink="http://www.w3.org/1999/xlink">
 <defs>
  <style type="text/css">
*{stroke-linecap:butt;stroke-linejoin:round;}
  </style>
 </defs>
 <g id="figure_1">
  <g id="patch_1">
   <path d="M 0 694.713437 
L 911.999687 694.713437 
L 911.999687 0 
L 0 0 
z
" style="fill:#ffffff;"/>
  </g>
  <g id="axes_1">
   <g id="patch_2">
    <path d="M 67.799688 496.44 
L 904.799688 496.44 
L 904.799688 7.2 
L 67.799688 7.2 
z
" style="fill:#ffffff;"/>
   </g>
   <g id="patch_3">
    <path clip-path="url(#pf5ca02254f)" d="M 74.774688 496.44 
L 88.724688 496.44 
L 88.724688 30.497143 
L 74.774688 30.497143 
z
" style="fill:url(#hca8359fc43);stroke:#000000;stroke-linejoin:miter;"/>
   </g>
   <g id="patch_4">
    <path clip-path="url(#pf5ca02254f)" d="M 102.674688 496.44 
L 116.624688 496.44 
L 116.624688 80.675604 
L 102.674688 80.675604 
z
" style="fill:url(#hca8359fc43);stroke:#000000;stroke-linejoin:miter;"/>
   </g>
   <g id="patch_5">
    <path clip-path="url(#pf5ca02254f)" d="M 130.574688 496.44 
L 144.524687 496.44 
L 144.524687 173.864176 
L 130.574688 173.864176 
z
" style="fill:url(#hca8359fc43);stroke:#000000;stroke-linejoin:miter;"/>
   </g>
   <g id="patch_6">
    <path clip-path="url(#pf5ca02254f)" d="M 158.474688 496.44 
L 172.424688 496.44 
L 172.424688 209.705934 
L 158.474688 209.705934 
z
" style="fill:url(#hca8359fc43);stroke:#000000;stroke-linejoin:miter;"/>
   </g>
   <g id="patch_7">
    <path clip-path="url(#pf5ca02254f)" d="M 186.374688 496.44 
L 200.324688 496.44 
L 200.324688 216.874286 
L 186.374688 216.874286 
z
" style="fill:url(#hca8359fc43);stroke:#000000;stroke-linejoin:miter;"/>
   </g>
   <g id="patch_8">
    <path clip-path="url(#pf5ca02254f)" d="M 214.274688 496.44 
L 228.224688 496.44 
L 228.224688 238.379341 
L 214.274688 238.379341 
z
" style="fill:url(#hca8359fc43);stroke:#000000;stroke-linejoin:miter;"/>
   </g>
   <g id="patch_9">
    <path clip-path="url(#pf5ca02254f)" d="M 242.174688 496.44 
L 256.124687 496.44 
L 256.124687 267.052747 
L 242.174688 267.052747 
z
" style="fill:url(#hca8359fc43);stroke:#000000;stroke-linejoin:miter;"/>
   </g>
   <g id="patch_10">
    <path clip-path="url(#pf5ca02254f)" d="M 270.074687 496.44 
L 284.024687 496.44 
L 284.024687 324.39956 
L 270.074687 324.39956 
z
" style="fill:url(#hca8359fc43);stroke:#000000;stroke-linejoin:miter;"/>
   </g>
   <g id="patch_11">
    <path clip-path="url(#pf5ca02254f)" d="M 297.974688 496.44 
L 311.924688 496.44 
L 311.924688 338.736264 
L 297.974688 338.736264 
z
" style="fill:url(#hca8359fc43);stroke:#000000;stroke-linejoin:miter;"/>
   </g>
   <g id="patch_12">
    <path clip-path="url(#pf5ca02254f)" d="M 325.874688 496.44 
L 339.824688 496.44 
L 339.824688 374.578022 
L 325.874688 374.578022 
z
" style="fill:url(#hca8359fc43);stroke:#000000;stroke-linejoin:miter;"/>
   </g>
   <g id="patch_13">
    <path clip-path="url(#pf5ca02254f)" d="M 353.774688 496.44 
L 367.724688 496.44 
L 367.724688 381.746374 
L 353.774688 381.746374 
z
" style="fill:url(#hca8359fc43);stroke:#000000;stroke-linejoin:miter;"/>
   </g>
   <g id="patch_14">
    <path clip-path="url(#pf5ca02254f)" d="M 381.674688 496.44 
L 395.624687 496.44 
L 395.624687 403.251429 
L 381.674688 403.251429 
z
" style="fill:url(#hca8359fc43);stroke:#000000;stroke-linejoin:miter;"/>
   </g>
   <g id="patch_15">
    <path clip-path="url(#pf5ca02254f)" d="M 409.574687 496.44 
L 423.524687 496.44 
L 423.524687 417.588132 
L 409.574687 417.588132 
z
" style="fill:url(#hca8359fc43);stroke:#000000;stroke-linejoin:miter;"/>
   </g>
   <g id="patch_16">
    <path clip-path="url(#pf5ca02254f)" d="M 437.474687 496.44 
L 451.424687 496.44 
L 451.424687 439.093187 
L 437.474687 439.093187 
z
" style="fill:url(#hca8359fc43);stroke:#000000;stroke-linejoin:miter;"/>
   </g>
   <g id="patch_17">
    <path clip-path="url(#pf5ca02254f)" d="M 465.374688 496.44 
L 479.324688 496.44 
L 479.324688 439.093187 
L 465.374688 439.093187 
z
" style="fill:url(#hca8359fc43);stroke:#000000;stroke-linejoin:miter;"/>
   </g>
   <g id="patch_18">
    <path clip-path="url(#pf5ca02254f)" d="M 493.274688 496.44 
L 507.224688 496.44 
L 507.224688 453.42989 
L 493.274688 453.42989 
z
" style="fill:url(#hca8359fc43);stroke:#000000;stroke-linejoin:miter;"/>
   </g>
   <g id="patch_19">
    <path clip-path="url(#pf5ca02254f)" d="M 521.174688 496.44 
L 535.124688 496.44 
L 535.124688 460.598242 
L 521.174688 460.598242 
z
" style="fill:url(#hca8359fc43);stroke:#000000;stroke-linejoin:miter;"/>
   </g>
   <g id="patch_20">
    <path clip-path="url(#pf5ca02254f)" d="M 549.074687 496.44 
L 563.024688 496.44 
L 563.024688 467.766593 
L 549.074687 467.766593 
z
" style="fill:url(#hca8359fc43);stroke:#000000;stroke-linejoin:miter;"/>
   </g>
   <g id="patch_21">
    <path clip-path="url(#pf5ca02254f)" d="M 576.974687 496.44 
L 590.924688 496.44 
L 590.924688 467.766593 
L 576.974687 467.766593 
z
" style="fill:url(#hca8359fc43);stroke:#000000;stroke-linejoin:miter;"/>
   </g>
   <g id="patch_22">
    <path clip-path="url(#pf5ca02254f)" d="M 604.874688 496.44 
L 618.824688 496.44 
L 618.824688 474.934945 
L 604.874688 474.934945 
z
" style="fill:url(#hca8359fc43);stroke:#000000;stroke-linejoin:miter;"/>
   </g>
   <g id="patch_23">
    <path clip-path="url(#pf5ca02254f)" d="M 632.774688 496.44 
L 646.724688 496.44 
L 646.724688 474.934945 
L 632.774688 474.934945 
z
" style="fill:url(#hca8359fc43);stroke:#000000;stroke-linejoin:miter;"/>
   </g>
   <g id="patch_24">
    <path clip-path="url(#pf5ca02254f)" d="M 660.674688 496.44 
L 674.624688 496.44 
L 674.624688 474.934945 
L 660.674688 474.934945 
z
" style="fill:url(#hca8359fc43);stroke:#000000;stroke-linejoin:miter;"/>
   </g>
   <g id="patch_25">
    <path clip-path="url(#pf5ca02254f)" d="M 688.574687 496.44 
L 702.524688 496.44 
L 702.524688 482.103297 
L 688.574687 482.103297 
z
" style="fill:url(#hca8359fc43);stroke:#000000;stroke-linejoin:miter;"/>
   </g>
   <g id="patch_26">
    <path clip-path="url(#pf5ca02254f)" d="M 716.474688 496.44 
L 730.424688 496.44 
L 730.424688 482.103297 
L 716.474688 482.103297 
z
" style="fill:url(#hca8359fc43);stroke:#000000;stroke-linejoin:miter;"/>
   </g>
   <g id="patch_27">
    <path clip-path="url(#pf5ca02254f)" d="M 744.374688 496.44 
L 758.324688 496.44 
L 758.324688 482.103297 
L 744.374688 482.103297 
z
" style="fill:url(#hca8359fc43);stroke:#000000;stroke-linejoin:miter;"/>
   </g>
   <g id="patch_28">
    <path clip-path="url(#pf5ca02254f)" d="M 772.274688 496.44 
L 786.224688 496.44 
L 786.224688 482.103297 
L 772.274688 482.103297 
z
" style="fill:url(#hca8359fc43);stroke:#000000;stroke-linejoin:miter;"/>
   </g>
   <g id="patch_29">
    <path clip-path="url(#pf5ca02254f)" d="M 800.174688 496.44 
L 814.124688 496.44 
L 814.124688 489.271648 
L 800.174688 489.271648 
z
" style="fill:url(#hca8359fc43);stroke:#000000;stroke-linejoin:miter;"/>
   </g>
   <g id="patch_30">
    <path clip-path="url(#pf5ca02254f)" d="M 828.074687 496.44 
L 842.024688 496.44 
L 842.024688 489.271648 
L 828.074687 489.271648 
z
" style="fill:url(#hca8359fc43);stroke:#000000;stroke-linejoin:miter;"/>
   </g>
   <g id="patch_31">
    <path clip-path="url(#pf5ca02254f)" d="M 855.974687 496.44 
L 869.924688 496.44 
L 869.924688 489.271648 
L 855.974687 489.271648 
z
" style="fill:url(#hca8359fc43);stroke:#000000;stroke-linejoin:miter;"/>
   </g>
   <g id="patch_32">
    <path clip-path="url(#pf5ca02254f)" d="M 883.874688 496.44 
L 897.824688 496.44 
L 897.824688 489.271648 
L 883.874688 489.271648 
z
" style="fill:url(#hca8359fc43);stroke:#000000;stroke-linejoin:miter;"/>
   </g>
   <g id="matplotlib.axis_1">
    <g id="xtick_1">
     <g id="line2d_1">
      <defs>
       <path d="M 0 0 
L 0 3.5 
" id="m683de98736" style="stroke:#000000;stroke-width:0.8;"/>
      </defs>
      <g>
       <use style="stroke:#000000;stroke-width:0.8;" x="81.749688" xlink:href="#m683de98736" y="496.44"/>
      </g>
     </g>
     <g id="text_1">
      <!-- Praomys -->
      <defs>
       <path d="M 24.703125 37.109375 
L 37.59375 37.109375 
Q 44.875 37.109375 48.671875 41.03125 
Q 52.484375 44.96875 52.484375 52.390625 
Q 52.484375 59.859375 48.671875 63.765625 
Q 44.875 67.671875 37.59375 67.671875 
L 24.703125 67.671875 
z
M 5.515625 0 
L 5.515625 5.171875 
L 14.796875 5.171875 
L 14.796875 67.671875 
L 5.515625 67.671875 
L 5.515625 72.90625 
L 39.984375 72.90625 
Q 50.921875 72.90625 57.3125 67.359375 
Q 63.71875 61.8125 63.71875 52.390625 
Q 63.71875 43.015625 57.3125 37.453125 
Q 50.921875 31.890625 39.984375 31.890625 
L 24.703125 31.890625 
L 24.703125 5.171875 
L 35.984375 5.171875 
L 35.984375 0 
z
" id="DejaVuSerif-80"/>
       <path d="M 47.796875 52 
L 47.796875 39.015625 
L 42.625 39.015625 
Q 42.390625 42.875 40.484375 44.78125 
Q 38.578125 46.6875 34.90625 46.6875 
Q 28.265625 46.6875 24.71875 42.09375 
Q 21.1875 37.5 21.1875 28.90625 
L 21.1875 5.171875 
L 31.59375 5.171875 
L 31.59375 0 
L 4.109375 0 
L 4.109375 5.171875 
L 12.203125 5.171875 
L 12.203125 46.78125 
L 3.609375 46.78125 
L 3.609375 51.90625 
L 21.1875 51.90625 
L 21.1875 42.671875 
Q 23.828125 48.09375 27.96875 50.703125 
Q 32.125 53.328125 38.09375 53.328125 
Q 40.28125 53.328125 42.703125 52.984375 
Q 45.125 52.640625 47.796875 52 
z
" id="DejaVuSerif-114"/>
       <path d="M 39.796875 16.3125 
L 39.796875 27.296875 
L 28.21875 27.296875 
Q 21.53125 27.296875 18.25 24.40625 
Q 14.984375 21.53125 14.984375 15.578125 
Q 14.984375 10.15625 18.296875 6.984375 
Q 21.625 3.8125 27.296875 3.8125 
Q 32.90625 3.8125 36.34375 7.28125 
Q 39.796875 10.75 39.796875 16.3125 
z
M 48.78125 32.421875 
L 48.78125 5.171875 
L 56.78125 5.171875 
L 56.78125 0 
L 39.796875 0 
L 39.796875 5.609375 
Q 36.8125 2 32.90625 0.28125 
Q 29 -1.421875 23.78125 -1.421875 
Q 15.140625 -1.421875 10.0625 3.171875 
Q 4.984375 7.765625 4.984375 15.578125 
Q 4.984375 23.640625 10.796875 28.078125 
Q 16.609375 32.515625 27.203125 32.515625 
L 39.796875 32.515625 
L 39.796875 36.078125 
Q 39.796875 42 36.203125 45.234375 
Q 32.625 48.484375 26.125 48.484375 
Q 20.75 48.484375 17.578125 46.046875 
Q 14.40625 43.609375 13.625 38.8125 
L 8.984375 38.8125 
L 8.984375 49.3125 
Q 13.671875 51.3125 18.09375 52.3125 
Q 22.515625 53.328125 26.703125 53.328125 
Q 37.5 53.328125 43.140625 47.96875 
Q 48.78125 42.625 48.78125 32.421875 
z
" id="DejaVuSerif-97"/>
       <path d="M 30.078125 3.421875 
Q 37.3125 3.421875 40.984375 9.125 
Q 44.671875 14.84375 44.671875 25.984375 
Q 44.671875 37.109375 40.984375 42.796875 
Q 37.3125 48.484375 30.078125 48.484375 
Q 22.859375 48.484375 19.171875 42.796875 
Q 15.484375 37.109375 15.484375 25.984375 
Q 15.484375 14.84375 19.1875 9.125 
Q 22.90625 3.421875 30.078125 3.421875 
z
M 30.078125 -1.421875 
Q 18.75 -1.421875 11.859375 6.078125 
Q 4.984375 13.578125 4.984375 25.984375 
Q 4.984375 38.375 11.84375 45.84375 
Q 18.703125 53.328125 30.078125 53.328125 
Q 41.453125 53.328125 48.3125 45.84375 
Q 55.171875 38.375 55.171875 25.984375 
Q 55.171875 13.578125 48.3125 6.078125 
Q 41.453125 -1.421875 30.078125 -1.421875 
z
" id="DejaVuSerif-111"/>
       <path d="M 51.8125 41.796875 
Q 54.390625 47.515625 58.421875 50.421875 
Q 62.453125 53.328125 67.828125 53.328125 
Q 75.984375 53.328125 79.984375 48.265625 
Q 83.984375 43.21875 83.984375 33.015625 
L 83.984375 5.171875 
L 92.09375 5.171875 
L 92.09375 0 
L 67.1875 0 
L 67.1875 5.171875 
L 75 5.171875 
L 75 31.984375 
Q 75 39.9375 72.65625 43.3125 
Q 70.3125 46.6875 64.890625 46.6875 
Q 58.890625 46.6875 55.734375 42.140625 
Q 52.59375 37.59375 52.59375 28.90625 
L 52.59375 5.171875 
L 60.40625 5.171875 
L 60.40625 0 
L 35.796875 0 
L 35.796875 5.171875 
L 43.609375 5.171875 
L 43.609375 32.328125 
Q 43.609375 40.09375 41.265625 43.390625 
Q 38.921875 46.6875 33.5 46.6875 
Q 27.484375 46.6875 24.328125 42.140625 
Q 21.1875 37.59375 21.1875 28.90625 
L 21.1875 5.171875 
L 29 5.171875 
L 29 0 
L 4.109375 0 
L 4.109375 5.171875 
L 12.203125 5.171875 
L 12.203125 46.78125 
L 3.609375 46.78125 
L 3.609375 51.90625 
L 21.1875 51.90625 
L 21.1875 42.671875 
Q 23.6875 47.859375 27.53125 50.59375 
Q 31.390625 53.328125 36.28125 53.328125 
Q 42.328125 53.328125 46.375 50.3125 
Q 50.4375 47.3125 51.8125 41.796875 
z
" id="DejaVuSerif-109"/>
       <path d="M 21.578125 -9.515625 
L 25 -0.875 
L 5.609375 46.6875 
L -0.296875 46.6875 
L -0.296875 51.90625 
L 23.578125 51.90625 
L 23.578125 46.6875 
L 15.28125 46.6875 
L 29.890625 10.984375 
L 44.484375 46.6875 
L 36.71875 46.6875 
L 36.71875 51.90625 
L 56.203125 51.90625 
L 56.203125 46.6875 
L 50.390625 46.6875 
L 26.609375 -11.71875 
Q 24.171875 -17.78125 21.1875 -20 
Q 18.21875 -22.21875 12.796875 -22.21875 
Q 10.5 -22.21875 8.078125 -21.828125 
Q 5.671875 -21.4375 3.21875 -20.703125 
L 3.21875 -10.796875 
L 7.8125 -10.796875 
Q 8.109375 -14.109375 9.5 -15.546875 
Q 10.890625 -17 13.8125 -17 
Q 16.5 -17 18.140625 -15.5 
Q 19.78125 -14.015625 21.578125 -9.515625 
z
" id="DejaVuSerif-121"/>
       <path d="M 5.609375 2.875 
L 5.609375 14.984375 
L 10.796875 14.984375 
Q 10.984375 9.1875 14.421875 6.296875 
Q 17.875 3.421875 24.609375 3.421875 
Q 30.671875 3.421875 33.84375 5.6875 
Q 37.015625 7.953125 37.015625 12.3125 
Q 37.015625 15.71875 34.6875 17.8125 
Q 32.375 19.921875 24.90625 22.3125 
L 18.40625 24.515625 
Q 11.71875 26.65625 8.71875 29.875 
Q 5.71875 33.109375 5.71875 38.09375 
Q 5.71875 45.21875 10.9375 49.265625 
Q 16.15625 53.328125 25.390625 53.328125 
Q 29.5 53.328125 34.03125 52.25 
Q 38.578125 51.171875 43.40625 49.125 
L 43.40625 37.796875 
L 38.234375 37.796875 
Q 38.03125 42.828125 34.703125 45.65625 
Q 31.390625 48.484375 25.6875 48.484375 
Q 20.015625 48.484375 17.109375 46.484375 
Q 14.203125 44.484375 14.203125 40.484375 
Q 14.203125 37.203125 16.40625 35.21875 
Q 18.609375 33.25 25.203125 31.203125 
L 32.328125 29 
Q 39.703125 26.703125 42.9375 23.265625 
Q 46.1875 19.828125 46.1875 14.40625 
Q 46.1875 7.03125 40.546875 2.796875 
Q 34.90625 -1.421875 25 -1.421875 
Q 19.96875 -1.421875 15.1875 -0.34375 
Q 10.40625 0.734375 5.609375 2.875 
z
" id="DejaVuSerif-115"/>
      </defs>
      <g transform="translate(87.5075 599.700312)rotate(-90)scale(0.22 -0.22)">
       <use xlink:href="#DejaVuSerif-80"/>
       <use x="67.285156" xlink:href="#DejaVuSerif-114"/>
       <use x="115.087891" xlink:href="#DejaVuSerif-97"/>
       <use x="174.707031" xlink:href="#DejaVuSerif-111"/>
       <use x="234.912109" xlink:href="#DejaVuSerif-109"/>
       <use x="329.736328" xlink:href="#DejaVuSerif-121"/>
       <use x="386.230469" xlink:href="#DejaVuSerif-115"/>
      </g>
     </g>
    </g>
    <g id="xtick_2">
     <g id="line2d_2">
      <g>
       <use style="stroke:#000000;stroke-width:0.8;" x="109.649688" xlink:href="#m683de98736" y="496.44"/>
      </g>
     </g>
     <g id="text_2">
      <!-- Rattus -->
      <defs>
       <path d="M 47.90625 36.1875 
Q 51.3125 35.25 53.78125 33.03125 
Q 56.25 30.8125 58.203125 26.8125 
L 68.796875 5.171875 
L 77.6875 5.171875 
L 77.6875 0 
L 60.5 0 
L 49.125 23.1875 
Q 45.84375 29.9375 43.109375 31.90625 
Q 40.375 33.890625 35.59375 33.890625 
L 24.703125 33.890625 
L 24.703125 5.171875 
L 35.015625 5.171875 
L 35.015625 0 
L 5.515625 0 
L 5.515625 5.171875 
L 14.796875 5.171875 
L 14.796875 67.671875 
L 5.515625 67.671875 
L 5.515625 72.90625 
L 42.484375 72.90625 
Q 53.125 72.90625 58.90625 67.828125 
Q 64.703125 62.75 64.703125 53.421875 
Q 64.703125 45.90625 60.46875 41.578125 
Q 56.25 37.25 47.90625 36.1875 
z
M 24.703125 39.109375 
L 39.109375 39.109375 
Q 46.484375 39.109375 50 42.59375 
Q 53.515625 46.09375 53.515625 53.421875 
Q 53.515625 60.75 50 64.203125 
Q 46.484375 67.671875 39.109375 67.671875 
L 24.703125 67.671875 
z
" id="DejaVuSerif-82"/>
       <path d="M 10.796875 46.6875 
L 2.875 46.6875 
L 2.875 51.90625 
L 10.796875 51.90625 
L 10.796875 68.015625 
L 19.828125 68.015625 
L 19.828125 51.90625 
L 36.71875 51.90625 
L 36.71875 46.6875 
L 19.828125 46.6875 
L 19.828125 13.71875 
Q 19.828125 7.125 21.09375 5.265625 
Q 22.359375 3.421875 25.78125 3.421875 
Q 29.296875 3.421875 30.90625 5.484375 
Q 32.515625 7.5625 32.625 12.203125 
L 39.40625 12.203125 
Q 39.015625 5.125 35.546875 1.84375 
Q 32.078125 -1.421875 25 -1.421875 
Q 17.234375 -1.421875 14.015625 2.015625 
Q 10.796875 5.46875 10.796875 13.71875 
z
" id="DejaVuSerif-116"/>
       <path d="M 35.40625 51.90625 
L 52.203125 51.90625 
L 52.203125 5.171875 
L 60.6875 5.171875 
L 60.6875 0 
L 43.21875 0 
L 43.21875 9.1875 
Q 40.71875 4 36.765625 1.28125 
Q 32.8125 -1.421875 27.59375 -1.421875 
Q 18.953125 -1.421875 14.875 3.484375 
Q 10.796875 8.40625 10.796875 18.890625 
L 10.796875 46.6875 
L 2.6875 46.6875 
L 2.6875 51.90625 
L 19.828125 51.90625 
L 19.828125 21.6875 
Q 19.828125 12.203125 22.140625 8.6875 
Q 24.46875 5.171875 30.421875 5.171875 
Q 36.671875 5.171875 39.9375 9.765625 
Q 43.21875 14.359375 43.21875 23.09375 
L 43.21875 46.6875 
L 35.40625 46.6875 
z
" id="DejaVuSerif-117"/>
      </defs>
      <g transform="translate(115.720313 576.758437)rotate(-90)scale(0.22 -0.22)">
       <use xlink:href="#DejaVuSerif-82"/>
       <use x="77.542969" xlink:href="#DejaVuSerif-97"/>
       <use x="137.162109" xlink:href="#DejaVuSerif-116"/>
       <use x="177.347656" xlink:href="#DejaVuSerif-116"/>
       <use x="217.533203" xlink:href="#DejaVuSerif-117"/>
       <use x="281.9375" xlink:href="#DejaVuSerif-115"/>
      </g>
     </g>
    </g>
    <g id="xtick_3">
     <g id="line2d_3">
      <g>
       <use style="stroke:#000000;stroke-width:0.8;" x="137.549688" xlink:href="#m683de98736" y="496.44"/>
      </g>
     </g>
     <g id="text_3">
      <!-- Hylomyscus -->
      <defs>
       <path d="M 5.515625 0 
L 5.515625 5.171875 
L 14.796875 5.171875 
L 14.796875 67.671875 
L 5.515625 67.671875 
L 5.515625 72.90625 
L 33.984375 72.90625 
L 33.984375 67.671875 
L 24.703125 67.671875 
L 24.703125 42.484375 
L 62.5 42.484375 
L 62.5 67.671875 
L 53.21875 67.671875 
L 53.21875 72.90625 
L 81.6875 72.90625 
L 81.6875 67.671875 
L 72.40625 67.671875 
L 72.40625 5.171875 
L 81.6875 5.171875 
L 81.6875 0 
L 53.21875 0 
L 53.21875 5.171875 
L 62.5 5.171875 
L 62.5 36.53125 
L 24.703125 36.53125 
L 24.703125 5.171875 
L 33.984375 5.171875 
L 33.984375 0 
z
" id="DejaVuSerif-72"/>
       <path d="M 20.515625 5.171875 
L 29 5.171875 
L 29 0 
L 2.875 0 
L 2.875 5.171875 
L 11.53125 5.171875 
L 11.53125 70.796875 
L 2.875 70.796875 
L 2.875 75.984375 
L 20.515625 75.984375 
z
" id="DejaVuSerif-108"/>
       <path d="M 51.421875 15.578125 
Q 49.515625 7.28125 44.09375 2.921875 
Q 38.671875 -1.421875 30.078125 -1.421875 
Q 18.75 -1.421875 11.859375 6.078125 
Q 4.984375 13.578125 4.984375 25.984375 
Q 4.984375 38.421875 11.859375 45.875 
Q 18.75 53.328125 30.078125 53.328125 
Q 35.015625 53.328125 39.890625 52.171875 
Q 44.78125 51.03125 49.703125 48.6875 
L 49.703125 35.40625 
L 44.484375 35.40625 
Q 43.453125 42.234375 40.015625 45.359375 
Q 36.578125 48.484375 30.171875 48.484375 
Q 22.90625 48.484375 19.1875 42.84375 
Q 15.484375 37.203125 15.484375 25.984375 
Q 15.484375 14.75 19.171875 9.078125 
Q 22.859375 3.421875 30.171875 3.421875 
Q 35.984375 3.421875 39.453125 6.4375 
Q 42.921875 9.46875 44.1875 15.578125 
z
" id="DejaVuSerif-99"/>
      </defs>
      <g transform="translate(143.463906 637.695)rotate(-90)scale(0.22 -0.22)">
       <use xlink:href="#DejaVuSerif-72"/>
       <use x="87.207031" xlink:href="#DejaVuSerif-121"/>
       <use x="143.701172" xlink:href="#DejaVuSerif-108"/>
       <use x="175.683594" xlink:href="#DejaVuSerif-111"/>
       <use x="235.888672" xlink:href="#DejaVuSerif-109"/>
       <use x="330.712891" xlink:href="#DejaVuSerif-121"/>
       <use x="387.207031" xlink:href="#DejaVuSerif-115"/>
       <use x="438.525391" xlink:href="#DejaVuSerif-99"/>
       <use x="494.53125" xlink:href="#DejaVuSerif-117"/>
       <use x="558.935547" xlink:href="#DejaVuSerif-115"/>
      </g>
     </g>
    </g>
    <g id="xtick_4">
     <g id="line2d_4">
      <g>
       <use style="stroke:#000000;stroke-width:0.8;" x="165.449688" xlink:href="#m683de98736" y="496.44"/>
      </g>
     </g>
     <g id="text_4">
      <!-- Cricetulus -->
      <defs>
       <path d="M 70.515625 19.28125 
Q 67.28125 9.078125 59.6875 3.828125 
Q 52.09375 -1.421875 40.484375 -1.421875 
Q 33.34375 -1.421875 27.234375 1.015625 
Q 21.140625 3.46875 16.40625 8.203125 
Q 10.9375 13.671875 8.265625 20.625 
Q 5.609375 27.59375 5.609375 36.375 
Q 5.609375 53.375 15.421875 63.796875 
Q 25.25 74.21875 41.3125 74.21875 
Q 47.265625 74.21875 54 72.65625 
Q 60.75 71.09375 68.5 67.921875 
L 68.5 51.125 
L 62.984375 51.125 
Q 61.1875 60.296875 55.734375 64.640625 
Q 50.296875 69 40.484375 69 
Q 28.8125 69 22.796875 60.71875 
Q 16.796875 52.4375 16.796875 36.375 
Q 16.796875 20.359375 22.796875 12.078125 
Q 28.8125 3.8125 40.484375 3.8125 
Q 48.640625 3.8125 53.90625 7.6875 
Q 59.1875 11.578125 61.53125 19.28125 
z
" id="DejaVuSerif-67"/>
       <path d="M 9.71875 68.015625 
Q 9.71875 70.265625 11.34375 71.921875 
Q 12.984375 73.578125 15.28125 73.578125 
Q 17.53125 73.578125 19.15625 71.921875 
Q 20.796875 70.265625 20.796875 68.015625 
Q 20.796875 65.71875 19.1875 64.109375 
Q 17.578125 62.5 15.28125 62.5 
Q 12.984375 62.5 11.34375 64.109375 
Q 9.71875 65.71875 9.71875 68.015625 
z
M 21.1875 5.171875 
L 29.6875 5.171875 
L 29.6875 0 
L 3.609375 0 
L 3.609375 5.171875 
L 12.203125 5.171875 
L 12.203125 46.6875 
L 3.609375 46.6875 
L 3.609375 51.90625 
L 21.1875 51.90625 
z
" id="DejaVuSerif-105"/>
       <path d="M 54.203125 25 
L 15.484375 25 
L 15.484375 24.609375 
Q 15.484375 14.109375 19.4375 8.765625 
Q 23.390625 3.421875 31.109375 3.421875 
Q 37.015625 3.421875 40.796875 6.515625 
Q 44.578125 9.625 46.09375 15.71875 
L 53.328125 15.71875 
Q 51.171875 7.171875 45.375 2.875 
Q 39.59375 -1.421875 30.171875 -1.421875 
Q 18.796875 -1.421875 11.890625 6.078125 
Q 4.984375 13.578125 4.984375 25.984375 
Q 4.984375 38.28125 11.765625 45.796875 
Q 18.5625 53.328125 29.59375 53.328125 
Q 41.359375 53.328125 47.65625 46.0625 
Q 53.953125 38.8125 54.203125 25 
z
M 43.609375 30.171875 
Q 43.3125 39.265625 39.765625 43.875 
Q 36.234375 48.484375 29.59375 48.484375 
Q 23.390625 48.484375 19.828125 43.84375 
Q 16.265625 39.203125 15.484375 30.171875 
z
" id="DejaVuSerif-101"/>
      </defs>
      <g transform="translate(171.520313 618.671875)rotate(-90)scale(0.22 -0.22)">
       <use xlink:href="#DejaVuSerif-67"/>
       <use x="76.513672" xlink:href="#DejaVuSerif-114"/>
       <use x="124.316406" xlink:href="#DejaVuSerif-105"/>
       <use x="156.298828" xlink:href="#DejaVuSerif-99"/>
       <use x="212.304688" xlink:href="#DejaVuSerif-101"/>
       <use x="271.484375" xlink:href="#DejaVuSerif-116"/>
       <use x="311.669922" xlink:href="#DejaVuSerif-117"/>
       <use x="376.074219" xlink:href="#DejaVuSerif-108"/>
       <use x="408.056641" xlink:href="#DejaVuSerif-117"/>
       <use x="472.460938" xlink:href="#DejaVuSerif-115"/>
      </g>
     </g>
    </g>
    <g id="xtick_5">
     <g id="line2d_5">
      <g>
       <use style="stroke:#000000;stroke-width:0.8;" x="193.349688" xlink:href="#m683de98736" y="496.44"/>
      </g>
     </g>
     <g id="text_5">
      <!-- Apodemus -->
      <defs>
       <path d="M 20.015625 26.421875 
L 46.78125 26.421875 
L 33.40625 61.078125 
z
M -0.59375 0 
L -0.59375 5.171875 
L 5.8125 5.171875 
L 31.78125 72.90625 
L 39.984375 72.90625 
L 66.015625 5.171875 
L 73.1875 5.171875 
L 73.1875 0 
L 46.6875 0 
L 46.6875 5.171875 
L 54.78125 5.171875 
L 48.6875 21.1875 
L 18.015625 21.1875 
L 11.921875 5.171875 
L 19.921875 5.171875 
L 19.921875 0 
z
" id="DejaVuSerif-65"/>
       <path d="M 20.515625 28.515625 
L 20.515625 23.390625 
Q 20.515625 14.015625 24.09375 9.109375 
Q 27.6875 4.203125 34.515625 4.203125 
Q 41.40625 4.203125 44.9375 9.71875 
Q 48.484375 15.234375 48.484375 25.984375 
Q 48.484375 36.765625 44.9375 42.234375 
Q 41.40625 47.703125 34.515625 47.703125 
Q 27.6875 47.703125 24.09375 42.765625 
Q 20.515625 37.84375 20.515625 28.515625 
z
M 11.53125 46.6875 
L 2.875 46.6875 
L 2.875 51.90625 
L 20.515625 51.90625 
L 20.515625 43.796875 
Q 23.140625 48.6875 27.21875 51 
Q 31.296875 53.328125 37.3125 53.328125 
Q 46.875 53.328125 52.921875 45.75 
Q 58.984375 38.1875 58.984375 25.984375 
Q 58.984375 13.765625 52.921875 6.171875 
Q 46.875 -1.421875 37.3125 -1.421875 
Q 31.296875 -1.421875 27.21875 0.890625 
Q 23.140625 3.21875 20.515625 8.109375 
L 20.515625 -15.578125 
L 29 -15.578125 
L 29 -20.796875 
L 2.875 -20.796875 
L 2.875 -15.578125 
L 11.53125 -15.578125 
z
" id="DejaVuSerif-112"/>
       <path d="M 52.484375 5.171875 
L 61.078125 5.171875 
L 61.078125 0 
L 43.5 0 
L 43.5 8.109375 
Q 40.875 3.21875 36.796875 0.890625 
Q 32.71875 -1.421875 26.703125 -1.421875 
Q 17.140625 -1.421875 11.0625 6.171875 
Q 4.984375 13.765625 4.984375 25.984375 
Q 4.984375 38.1875 11.03125 45.75 
Q 17.09375 53.328125 26.703125 53.328125 
Q 32.71875 53.328125 36.796875 51 
Q 40.875 48.6875 43.5 43.796875 
L 43.5 70.796875 
L 35.015625 70.796875 
L 35.015625 75.984375 
L 52.484375 75.984375 
z
M 43.5 23.390625 
L 43.5 28.515625 
Q 43.5 37.84375 39.90625 42.765625 
Q 36.328125 47.703125 29.5 47.703125 
Q 22.5625 47.703125 19.015625 42.234375 
Q 15.484375 36.765625 15.484375 25.984375 
Q 15.484375 15.234375 19.015625 9.71875 
Q 22.5625 4.203125 29.5 4.203125 
Q 36.328125 4.203125 39.90625 9.109375 
Q 43.5 14.015625 43.5 23.390625 
z
" id="DejaVuSerif-100"/>
      </defs>
      <g transform="translate(199.420313 620.08125)rotate(-90)scale(0.22 -0.22)">
       <use xlink:href="#DejaVuSerif-65"/>
       <use x="72.216797" xlink:href="#DejaVuSerif-112"/>
       <use x="136.230469" xlink:href="#DejaVuSerif-111"/>
       <use x="196.435547" xlink:href="#DejaVuSerif-100"/>
       <use x="260.449219" xlink:href="#DejaVuSerif-101"/>
       <use x="319.628906" xlink:href="#DejaVuSerif-109"/>
       <use x="414.453125" xlink:href="#DejaVuSerif-117"/>
       <use x="478.857422" xlink:href="#DejaVuSerif-115"/>
      </g>
     </g>
    </g>
    <g id="xtick_6">
     <g id="line2d_6">
      <g>
       <use style="stroke:#000000;stroke-width:0.8;" x="221.249688" xlink:href="#m683de98736" y="496.44"/>
      </g>
     </g>
     <g id="text_6">
      <!-- Ctenomys -->
      <defs>
       <path d="M 4.109375 0 
L 4.109375 5.171875 
L 12.203125 5.171875 
L 12.203125 46.6875 
L 3.609375 46.6875 
L 3.609375 51.90625 
L 21.1875 51.90625 
L 21.1875 42.671875 
Q 23.6875 47.953125 27.65625 50.640625 
Q 31.640625 53.328125 36.921875 53.328125 
Q 45.515625 53.328125 49.5625 48.390625 
Q 53.609375 43.453125 53.609375 33.015625 
L 53.609375 5.171875 
L 61.625 5.171875 
L 61.625 0 
L 36.8125 0 
L 36.8125 5.171875 
L 44.578125 5.171875 
L 44.578125 30.171875 
Q 44.578125 39.703125 42.234375 43.234375 
Q 39.890625 46.78125 33.984375 46.78125 
Q 27.734375 46.78125 24.453125 42.203125 
Q 21.1875 37.640625 21.1875 28.90625 
L 21.1875 5.171875 
L 29 5.171875 
L 29 0 
z
" id="DejaVuSerif-110"/>
      </defs>
      <g transform="translate(227.0075 614.130937)rotate(-90)scale(0.22 -0.22)">
       <use xlink:href="#DejaVuSerif-67"/>
       <use x="76.513672" xlink:href="#DejaVuSerif-116"/>
       <use x="116.699219" xlink:href="#DejaVuSerif-101"/>
       <use x="175.878906" xlink:href="#DejaVuSerif-110"/>
       <use x="240.283203" xlink:href="#DejaVuSerif-111"/>
       <use x="300.488281" xlink:href="#DejaVuSerif-109"/>
       <use x="395.3125" xlink:href="#DejaVuSerif-121"/>
       <use x="451.806641" xlink:href="#DejaVuSerif-115"/>
      </g>
     </g>
    </g>
    <g id="xtick_7">
     <g id="line2d_7">
      <g>
       <use style="stroke:#000000;stroke-width:0.8;" x="249.149687" xlink:href="#m683de98736" y="496.44"/>
      </g>
     </g>
     <g id="text_7">
      <!-- Mastomys -->
      <defs>
       <path d="M 5.515625 0 
L 5.515625 5.171875 
L 14.796875 5.171875 
L 14.796875 67.671875 
L 4.984375 67.671875 
L 4.984375 72.90625 
L 26.21875 72.90625 
L 51.8125 21 
L 77.390625 72.90625 
L 97.3125 72.90625 
L 97.3125 67.671875 
L 87.59375 67.671875 
L 87.59375 5.171875 
L 96.921875 5.171875 
L 96.921875 0 
L 68.40625 0 
L 68.40625 5.171875 
L 77.6875 5.171875 
L 77.6875 61.53125 
L 52.6875 10.6875 
L 45.796875 10.6875 
L 20.796875 61.53125 
L 20.796875 5.171875 
L 30.078125 5.171875 
L 30.078125 0 
z
" id="DejaVuSerif-77"/>
      </defs>
      <g transform="translate(254.9075 617.039062)rotate(-90)scale(0.22 -0.22)">
       <use xlink:href="#DejaVuSerif-77"/>
       <use x="102.392578" xlink:href="#DejaVuSerif-97"/>
       <use x="162.011719" xlink:href="#DejaVuSerif-115"/>
       <use x="213.330078" xlink:href="#DejaVuSerif-116"/>
       <use x="253.515625" xlink:href="#DejaVuSerif-111"/>
       <use x="313.720703" xlink:href="#DejaVuSerif-109"/>
       <use x="408.544922" xlink:href="#DejaVuSerif-121"/>
       <use x="465.039062" xlink:href="#DejaVuSerif-115"/>
      </g>
     </g>
    </g>
    <g id="xtick_8">
     <g id="line2d_8">
      <g>
       <use style="stroke:#000000;stroke-width:0.8;" x="277.049688" xlink:href="#m683de98736" y="496.44"/>
      </g>
     </g>
     <g id="text_8">
      <!-- Niviventer -->
      <defs>
       <path d="M 4.890625 0 
L 4.890625 5.171875 
L 14.703125 5.171875 
L 14.703125 67.671875 
L 4.890625 67.671875 
L 4.890625 72.90625 
L 23.578125 72.90625 
L 67.28125 15.375 
L 67.28125 67.671875 
L 57.515625 67.671875 
L 57.515625 72.90625 
L 83.109375 72.90625 
L 83.109375 67.671875 
L 73.296875 67.671875 
L 73.296875 -1.421875 
L 67.390625 -1.421875 
L 20.703125 60.015625 
L 20.703125 5.171875 
L 30.515625 5.171875 
L 30.515625 0 
z
" id="DejaVuSerif-78"/>
       <path d="M 24.703125 0 
L 5.609375 46.6875 
L -0.296875 46.6875 
L -0.296875 51.90625 
L 23.578125 51.90625 
L 23.578125 46.6875 
L 15.28125 46.6875 
L 29.890625 10.984375 
L 44.484375 46.6875 
L 36.71875 46.6875 
L 36.71875 51.90625 
L 56.203125 51.90625 
L 56.203125 46.6875 
L 50.390625 46.6875 
L 31.296875 0 
z
" id="DejaVuSerif-118"/>
      </defs>
      <g transform="translate(283.120313 621.191562)rotate(-90)scale(0.22 -0.22)">
       <use xlink:href="#DejaVuSerif-78"/>
       <use x="87.5" xlink:href="#DejaVuSerif-105"/>
       <use x="119.482422" xlink:href="#DejaVuSerif-118"/>
       <use x="175.976562" xlink:href="#DejaVuSerif-105"/>
       <use x="207.958984" xlink:href="#DejaVuSerif-118"/>
       <use x="264.453125" xlink:href="#DejaVuSerif-101"/>
       <use x="323.632812" xlink:href="#DejaVuSerif-110"/>
       <use x="388.037109" xlink:href="#DejaVuSerif-116"/>
       <use x="428.222656" xlink:href="#DejaVuSerif-101"/>
       <use x="487.402344" xlink:href="#DejaVuSerif-114"/>
      </g>
     </g>
    </g>
    <g id="xtick_9">
     <g id="line2d_9">
      <g>
       <use style="stroke:#000000;stroke-width:0.8;" x="304.949687" xlink:href="#m683de98736" y="496.44"/>
      </g>
     </g>
     <g id="text_9">
      <!-- Neodon -->
      <g transform="translate(311.020312 590.453437)rotate(-90)scale(0.22 -0.22)">
       <use xlink:href="#DejaVuSerif-78"/>
       <use x="87.5" xlink:href="#DejaVuSerif-101"/>
       <use x="146.679688" xlink:href="#DejaVuSerif-111"/>
       <use x="206.884766" xlink:href="#DejaVuSerif-100"/>
       <use x="270.898438" xlink:href="#DejaVuSerif-111"/>
       <use x="331.103516" xlink:href="#DejaVuSerif-110"/>
      </g>
     </g>
    </g>
    <g id="xtick_10">
     <g id="line2d_10">
      <g>
       <use style="stroke:#000000;stroke-width:0.8;" x="332.849688" xlink:href="#m683de98736" y="496.44"/>
      </g>
     </g>
     <g id="text_10">
      <!-- Myodes -->
      <g transform="translate(338.763906 590.034062)rotate(-90)scale(0.22 -0.22)">
       <use xlink:href="#DejaVuSerif-77"/>
       <use x="102.392578" xlink:href="#DejaVuSerif-121"/>
       <use x="158.886719" xlink:href="#DejaVuSerif-111"/>
       <use x="219.091797" xlink:href="#DejaVuSerif-100"/>
       <use x="283.105469" xlink:href="#DejaVuSerif-101"/>
       <use x="342.285156" xlink:href="#DejaVuSerif-115"/>
      </g>
     </g>
    </g>
    <g id="xtick_11">
     <g id="line2d_11">
      <g>
       <use style="stroke:#000000;stroke-width:0.8;" x="360.749688" xlink:href="#m683de98736" y="496.44"/>
      </g>
     </g>
     <g id="text_11">
      <!-- Mus -->
      <g transform="translate(366.820313 551.424062)rotate(-90)scale(0.22 -0.22)">
       <use xlink:href="#DejaVuSerif-77"/>
       <use x="102.392578" xlink:href="#DejaVuSerif-117"/>
       <use x="166.796875" xlink:href="#DejaVuSerif-115"/>
      </g>
     </g>
    </g>
    <g id="xtick_12">
     <g id="line2d_12">
      <g>
       <use style="stroke:#000000;stroke-width:0.8;" x="388.649688" xlink:href="#m683de98736" y="496.44"/>
      </g>
     </g>
     <g id="text_12">
      <!-- Allactaga -->
      <defs>
       <path d="M 52.484375 46.6875 
L 52.484375 1.125 
Q 52.484375 -10.0625 46.328125 -16.140625 
Q 40.1875 -22.21875 28.8125 -22.21875 
Q 23.6875 -22.21875 19 -21.28125 
Q 14.3125 -20.359375 10.015625 -18.5 
L 10.015625 -7.625 
L 14.703125 -7.625 
Q 15.578125 -12.703125 18.84375 -15.046875 
Q 22.125 -17.390625 28.21875 -17.390625 
Q 36.140625 -17.390625 39.8125 -12.921875 
Q 43.5 -8.453125 43.5 1.125 
L 43.5 8.109375 
Q 40.875 3.21875 36.796875 0.890625 
Q 32.71875 -1.421875 26.703125 -1.421875 
Q 17.140625 -1.421875 11.0625 6.171875 
Q 4.984375 13.765625 4.984375 25.984375 
Q 4.984375 38.1875 11.03125 45.75 
Q 17.09375 53.328125 26.703125 53.328125 
Q 32.71875 53.328125 36.796875 51 
Q 40.875 48.6875 43.5 43.796875 
L 43.5 51.90625 
L 61.078125 51.90625 
L 61.078125 46.6875 
z
M 43.5 28.515625 
Q 43.5 37.84375 39.90625 42.765625 
Q 36.328125 47.703125 29.5 47.703125 
Q 22.5625 47.703125 19.015625 42.234375 
Q 15.484375 36.765625 15.484375 25.984375 
Q 15.484375 15.234375 19.015625 9.71875 
Q 22.5625 4.203125 29.5 4.203125 
Q 36.328125 4.203125 39.90625 9.109375 
Q 43.5 14.015625 43.5 23.390625 
z
" id="DejaVuSerif-103"/>
      </defs>
      <g transform="translate(394.563906 607.998437)rotate(-90)scale(0.22 -0.22)">
       <use xlink:href="#DejaVuSerif-65"/>
       <use x="72.216797" xlink:href="#DejaVuSerif-108"/>
       <use x="104.199219" xlink:href="#DejaVuSerif-108"/>
       <use x="136.181641" xlink:href="#DejaVuSerif-97"/>
       <use x="195.800781" xlink:href="#DejaVuSerif-99"/>
       <use x="251.806641" xlink:href="#DejaVuSerif-116"/>
       <use x="291.992188" xlink:href="#DejaVuSerif-97"/>
       <use x="351.611328" xlink:href="#DejaVuSerif-103"/>
       <use x="415.625" xlink:href="#DejaVuSerif-97"/>
      </g>
     </g>
    </g>
    <g id="xtick_13">
     <g id="line2d_13">
      <g>
       <use style="stroke:#000000;stroke-width:0.8;" x="416.549688" xlink:href="#m683de98736" y="496.44"/>
      </g>
     </g>
     <g id="text_13">
      <!-- Microtus -->
      <g transform="translate(422.620313 603.381875)rotate(-90)scale(0.22 -0.22)">
       <use xlink:href="#DejaVuSerif-77"/>
       <use x="102.392578" xlink:href="#DejaVuSerif-105"/>
       <use x="134.375" xlink:href="#DejaVuSerif-99"/>
       <use x="190.380859" xlink:href="#DejaVuSerif-114"/>
       <use x="238.183594" xlink:href="#DejaVuSerif-111"/>
       <use x="298.388672" xlink:href="#DejaVuSerif-116"/>
       <use x="338.574219" xlink:href="#DejaVuSerif-117"/>
       <use x="402.978516" xlink:href="#DejaVuSerif-115"/>
      </g>
     </g>
    </g>
    <g id="xtick_14">
     <g id="line2d_14">
      <g>
       <use style="stroke:#000000;stroke-width:0.8;" x="444.449687" xlink:href="#m683de98736" y="496.44"/>
      </g>
     </g>
     <g id="text_14">
      <!-- Phodopus -->
      <defs>
       <path d="M 4.109375 0 
L 4.109375 5.171875 
L 12.203125 5.171875 
L 12.203125 70.796875 
L 3.609375 70.796875 
L 3.609375 75.984375 
L 21.1875 75.984375 
L 21.1875 42.671875 
Q 23.6875 47.953125 27.65625 50.640625 
Q 31.640625 53.328125 36.921875 53.328125 
Q 45.515625 53.328125 49.5625 48.390625 
Q 53.609375 43.453125 53.609375 33.015625 
L 53.609375 5.171875 
L 61.625 5.171875 
L 61.625 0 
L 36.8125 0 
L 36.8125 5.171875 
L 44.578125 5.171875 
L 44.578125 30.171875 
Q 44.578125 39.703125 42.25 43.1875 
Q 39.9375 46.6875 33.984375 46.6875 
Q 27.734375 46.6875 24.453125 42.140625 
Q 21.1875 37.59375 21.1875 28.90625 
L 21.1875 5.171875 
L 29 5.171875 
L 29 0 
z
" id="DejaVuSerif-104"/>
      </defs>
      <g transform="translate(450.520312 612.525625)rotate(-90)scale(0.22 -0.22)">
       <use xlink:href="#DejaVuSerif-80"/>
       <use x="67.285156" xlink:href="#DejaVuSerif-104"/>
       <use x="131.689453" xlink:href="#DejaVuSerif-111"/>
       <use x="191.894531" xlink:href="#DejaVuSerif-100"/>
       <use x="255.908203" xlink:href="#DejaVuSerif-111"/>
       <use x="316.113281" xlink:href="#DejaVuSerif-112"/>
       <use x="380.126953" xlink:href="#DejaVuSerif-117"/>
       <use x="444.53125" xlink:href="#DejaVuSerif-115"/>
      </g>
     </g>
    </g>
    <g id="xtick_15">
     <g id="line2d_15">
      <g>
       <use style="stroke:#000000;stroke-width:0.8;" x="472.349687" xlink:href="#m683de98736" y="496.44"/>
      </g>
     </g>
     <g id="text_15">
      <!-- Heimyscus -->
      <g transform="translate(478.1075 625.041562)rotate(-90)scale(0.22 -0.22)">
       <use xlink:href="#DejaVuSerif-72"/>
       <use x="87.207031" xlink:href="#DejaVuSerif-101"/>
       <use x="146.386719" xlink:href="#DejaVuSerif-105"/>
       <use x="178.369141" xlink:href="#DejaVuSerif-109"/>
       <use x="273.193359" xlink:href="#DejaVuSerif-121"/>
       <use x="329.6875" xlink:href="#DejaVuSerif-115"/>
       <use x="381.005859" xlink:href="#DejaVuSerif-99"/>
       <use x="437.011719" xlink:href="#DejaVuSerif-117"/>
       <use x="501.416016" xlink:href="#DejaVuSerif-115"/>
      </g>
     </g>
    </g>
    <g id="xtick_16">
     <g id="line2d_16">
      <g>
       <use style="stroke:#000000;stroke-width:0.8;" x="500.249688" xlink:href="#m683de98736" y="496.44"/>
      </g>
     </g>
     <g id="text_16">
      <!-- Eospalax -->
      <defs>
       <path d="M 5.515625 0 
L 5.515625 5.171875 
L 14.796875 5.171875 
L 14.796875 67.671875 
L 5.515625 67.671875 
L 5.515625 72.90625 
L 64.203125 72.90625 
L 64.203125 56.6875 
L 58.203125 56.6875 
L 58.203125 66.890625 
L 24.703125 66.890625 
L 24.703125 42.484375 
L 48.578125 42.484375 
L 48.578125 51.609375 
L 54.59375 51.609375 
L 54.59375 27.390625 
L 48.578125 27.390625 
L 48.578125 36.53125 
L 24.703125 36.53125 
L 24.703125 6 
L 58.984375 6 
L 58.984375 16.21875 
L 64.984375 16.21875 
L 64.984375 0 
z
" id="DejaVuSerif-69"/>
       <path d="M 29.109375 31.6875 
L 39.984375 46.6875 
L 33.015625 46.6875 
L 33.015625 51.90625 
L 52.984375 51.90625 
L 52.984375 46.6875 
L 46.09375 46.6875 
L 32.171875 27.484375 
L 48.390625 5.171875 
L 55.171875 5.171875 
L 55.171875 0 
L 31.203125 0 
L 31.203125 5.171875 
L 37.796875 5.171875 
L 26.515625 20.703125 
L 15.1875 5.171875 
L 21.921875 5.171875 
L 21.921875 0 
L 2.203125 0 
L 2.203125 5.171875 
L 9.078125 5.171875 
L 23.390625 24.90625 
L 7.625 46.6875 
L 1.21875 46.6875 
L 1.21875 51.90625 
L 24.421875 51.90625 
L 24.421875 46.6875 
L 18.21875 46.6875 
z
" id="DejaVuSerif-120"/>
      </defs>
      <g transform="translate(506.320313 603.794375)rotate(-90)scale(0.22 -0.22)">
       <use xlink:href="#DejaVuSerif-69"/>
       <use x="72.998047" xlink:href="#DejaVuSerif-111"/>
       <use x="133.203125" xlink:href="#DejaVuSerif-115"/>
       <use x="184.521484" xlink:href="#DejaVuSerif-112"/>
       <use x="248.535156" xlink:href="#DejaVuSerif-97"/>
       <use x="308.154297" xlink:href="#DejaVuSerif-108"/>
       <use x="340.136719" xlink:href="#DejaVuSerif-97"/>
       <use x="399.755859" xlink:href="#DejaVuSerif-120"/>
      </g>
     </g>
    </g>
    <g id="xtick_17">
     <g id="line2d_17">
      <g>
       <use style="stroke:#000000;stroke-width:0.8;" x="528.149688" xlink:href="#m683de98736" y="496.44"/>
      </g>
     </g>
     <g id="text_17">
      <!-- Lasiopodomys -->
      <defs>
       <path d="M 5.515625 0 
L 5.515625 5.171875 
L 14.796875 5.171875 
L 14.796875 67.671875 
L 5.515625 67.671875 
L 5.515625 72.90625 
L 33.984375 72.90625 
L 33.984375 67.671875 
L 24.703125 67.671875 
L 24.703125 6 
L 58.015625 6 
L 58.015625 18.21875 
L 64.015625 18.21875 
L 64.015625 0 
z
" id="DejaVuSerif-76"/>
      </defs>
      <g transform="translate(534.063906 661.974062)rotate(-90)scale(0.22 -0.22)">
       <use xlink:href="#DejaVuSerif-76"/>
       <use x="66.40625" xlink:href="#DejaVuSerif-97"/>
       <use x="126.025391" xlink:href="#DejaVuSerif-115"/>
       <use x="177.34375" xlink:href="#DejaVuSerif-105"/>
       <use x="209.326172" xlink:href="#DejaVuSerif-111"/>
       <use x="269.53125" xlink:href="#DejaVuSerif-112"/>
       <use x="333.544922" xlink:href="#DejaVuSerif-111"/>
       <use x="393.75" xlink:href="#DejaVuSerif-100"/>
       <use x="457.763672" xlink:href="#DejaVuSerif-111"/>
       <use x="517.96875" xlink:href="#DejaVuSerif-109"/>
       <use x="612.792969" xlink:href="#DejaVuSerif-121"/>
       <use x="669.287109" xlink:href="#DejaVuSerif-115"/>
      </g>
     </g>
    </g>
    <g id="xtick_18">
     <g id="line2d_18">
      <g>
       <use style="stroke:#000000;stroke-width:0.8;" x="556.049688" xlink:href="#m683de98736" y="496.44"/>
      </g>
     </g>
     <g id="text_18">
      <!-- Meriones -->
      <g transform="translate(562.120312 608.263125)rotate(-90)scale(0.22 -0.22)">
       <use xlink:href="#DejaVuSerif-77"/>
       <use x="102.392578" xlink:href="#DejaVuSerif-101"/>
       <use x="161.572266" xlink:href="#DejaVuSerif-114"/>
       <use x="209.375" xlink:href="#DejaVuSerif-105"/>
       <use x="241.357422" xlink:href="#DejaVuSerif-111"/>
       <use x="301.5625" xlink:href="#DejaVuSerif-110"/>
       <use x="365.966797" xlink:href="#DejaVuSerif-101"/>
       <use x="425.146484" xlink:href="#DejaVuSerif-115"/>
      </g>
     </g>
    </g>
    <g id="xtick_19">
     <g id="line2d_19">
      <g>
       <use style="stroke:#000000;stroke-width:0.8;" x="583.949687" xlink:href="#m683de98736" y="496.44"/>
      </g>
     </g>
     <g id="text_19">
      <!-- Dipus -->
      <defs>
       <path d="M 24.703125 5.171875 
L 33.796875 5.171875 
Q 48 5.171875 55.59375 13.28125 
Q 63.1875 21.390625 63.1875 36.53125 
Q 63.1875 51.65625 55.609375 59.65625 
Q 48.046875 67.671875 33.796875 67.671875 
L 24.703125 67.671875 
z
M 5.515625 0 
L 5.515625 5.171875 
L 14.796875 5.171875 
L 14.796875 67.671875 
L 5.515625 67.671875 
L 5.515625 72.90625 
L 34.515625 72.90625 
Q 53.375 72.90625 63.890625 63.28125 
Q 74.421875 53.65625 74.421875 36.53125 
Q 74.421875 19.34375 63.875 9.671875 
Q 53.328125 0 34.515625 0 
z
" id="DejaVuSerif-68"/>
      </defs>
      <g transform="translate(590.020312 567.655937)rotate(-90)scale(0.22 -0.22)">
       <use xlink:href="#DejaVuSerif-68"/>
       <use x="80.175781" xlink:href="#DejaVuSerif-105"/>
       <use x="112.158203" xlink:href="#DejaVuSerif-112"/>
       <use x="176.171875" xlink:href="#DejaVuSerif-117"/>
       <use x="240.576172" xlink:href="#DejaVuSerif-115"/>
      </g>
     </g>
    </g>
    <g id="xtick_20">
     <g id="line2d_20">
      <g>
       <use style="stroke:#000000;stroke-width:0.8;" x="611.849688" xlink:href="#m683de98736" y="496.44"/>
      </g>
     </g>
     <g id="text_20">
      <!-- Eothenomys -->
      <g transform="translate(617.763906 640.771562)rotate(-90)scale(0.22 -0.22)">
       <use xlink:href="#DejaVuSerif-69"/>
       <use x="72.998047" xlink:href="#DejaVuSerif-111"/>
       <use x="133.203125" xlink:href="#DejaVuSerif-116"/>
       <use x="173.388672" xlink:href="#DejaVuSerif-104"/>
       <use x="237.792969" xlink:href="#DejaVuSerif-101"/>
       <use x="296.972656" xlink:href="#DejaVuSerif-110"/>
       <use x="361.376953" xlink:href="#DejaVuSerif-111"/>
       <use x="421.582031" xlink:href="#DejaVuSerif-109"/>
       <use x="516.40625" xlink:href="#DejaVuSerif-121"/>
       <use x="572.900391" xlink:href="#DejaVuSerif-115"/>
      </g>
     </g>
    </g>
    <g id="xtick_21">
     <g id="line2d_21">
      <g>
       <use style="stroke:#000000;stroke-width:0.8;" x="639.749688" xlink:href="#m683de98736" y="496.44"/>
      </g>
     </g>
     <g id="text_21">
      <!-- Colomys -->
      <g transform="translate(645.663906 598.380312)rotate(-90)scale(0.22 -0.22)">
       <use xlink:href="#DejaVuSerif-67"/>
       <use x="76.513672" xlink:href="#DejaVuSerif-111"/>
       <use x="136.71875" xlink:href="#DejaVuSerif-108"/>
       <use x="168.701172" xlink:href="#DejaVuSerif-111"/>
       <use x="228.90625" xlink:href="#DejaVuSerif-109"/>
       <use x="323.730469" xlink:href="#DejaVuSerif-121"/>
       <use x="380.224609" xlink:href="#DejaVuSerif-115"/>
      </g>
     </g>
    </g>
    <g id="xtick_22">
     <g id="line2d_22">
      <g>
       <use style="stroke:#000000;stroke-width:0.8;" x="667.649688" xlink:href="#m683de98736" y="496.44"/>
      </g>
     </g>
     <g id="text_22">
      <!-- Micromys -->
      <g transform="translate(673.4075 613.663437)rotate(-90)scale(0.22 -0.22)">
       <use xlink:href="#DejaVuSerif-77"/>
       <use x="102.392578" xlink:href="#DejaVuSerif-105"/>
       <use x="134.375" xlink:href="#DejaVuSerif-99"/>
       <use x="190.380859" xlink:href="#DejaVuSerif-114"/>
       <use x="238.183594" xlink:href="#DejaVuSerif-111"/>
       <use x="298.388672" xlink:href="#DejaVuSerif-109"/>
       <use x="393.212891" xlink:href="#DejaVuSerif-121"/>
       <use x="449.707031" xlink:href="#DejaVuSerif-115"/>
      </g>
     </g>
    </g>
    <g id="xtick_23">
     <g id="line2d_23">
      <g>
       <use style="stroke:#000000;stroke-width:0.8;" x="695.549688" xlink:href="#m683de98736" y="496.44"/>
      </g>
     </g>
     <g id="text_23">
      <!-- Euryoryzomys -->
      <defs>
       <path d="M 4 0 
L 4 4.203125 
L 36.53125 46.6875 
L 10.796875 46.6875 
L 10.796875 37.703125 
L 5.609375 37.703125 
L 5.609375 51.90625 
L 48.09375 51.90625 
L 48.09375 47.703125 
L 15.578125 5.171875 
L 43.796875 5.171875 
L 43.796875 14.59375 
L 49.03125 14.59375 
L 49.03125 0 
z
" id="DejaVuSerif-122"/>
      </defs>
      <g transform="translate(701.3075 662.221562)rotate(-90)scale(0.22 -0.22)">
       <use xlink:href="#DejaVuSerif-69"/>
       <use x="72.998047" xlink:href="#DejaVuSerif-117"/>
       <use x="137.402344" xlink:href="#DejaVuSerif-114"/>
       <use x="185.205078" xlink:href="#DejaVuSerif-121"/>
       <use x="241.699219" xlink:href="#DejaVuSerif-111"/>
       <use x="301.904297" xlink:href="#DejaVuSerif-114"/>
       <use x="349.707031" xlink:href="#DejaVuSerif-121"/>
       <use x="406.201172" xlink:href="#DejaVuSerif-122"/>
       <use x="458.886719" xlink:href="#DejaVuSerif-111"/>
       <use x="519.091797" xlink:href="#DejaVuSerif-109"/>
       <use x="613.916016" xlink:href="#DejaVuSerif-121"/>
       <use x="670.410156" xlink:href="#DejaVuSerif-115"/>
      </g>
     </g>
    </g>
    <g id="xtick_24">
     <g id="line2d_24">
      <g>
       <use style="stroke:#000000;stroke-width:0.8;" x="723.449687" xlink:href="#m683de98736" y="496.44"/>
      </g>
     </g>
     <g id="text_24">
      <!-- Caryomys -->
      <g transform="translate(729.2075 614.161875)rotate(-90)scale(0.22 -0.22)">
       <use xlink:href="#DejaVuSerif-67"/>
       <use x="76.513672" xlink:href="#DejaVuSerif-97"/>
       <use x="136.132812" xlink:href="#DejaVuSerif-114"/>
       <use x="183.935547" xlink:href="#DejaVuSerif-121"/>
       <use x="240.429688" xlink:href="#DejaVuSerif-111"/>
       <use x="300.634766" xlink:href="#DejaVuSerif-109"/>
       <use x="395.458984" xlink:href="#DejaVuSerif-121"/>
       <use x="451.953125" xlink:href="#DejaVuSerif-115"/>
      </g>
     </g>
    </g>
    <g id="xtick_25">
     <g id="line2d_25">
      <g>
       <use style="stroke:#000000;stroke-width:0.8;" x="751.349687" xlink:href="#m683de98736" y="496.44"/>
      </g>
     </g>
     <g id="text_25">
      <!-- Leopoldamys -->
      <g transform="translate(757.263906 650.461875)rotate(-90)scale(0.22 -0.22)">
       <use xlink:href="#DejaVuSerif-76"/>
       <use x="66.40625" xlink:href="#DejaVuSerif-101"/>
       <use x="125.585938" xlink:href="#DejaVuSerif-111"/>
       <use x="185.791016" xlink:href="#DejaVuSerif-112"/>
       <use x="249.804688" xlink:href="#DejaVuSerif-111"/>
       <use x="310.009766" xlink:href="#DejaVuSerif-108"/>
       <use x="341.992188" xlink:href="#DejaVuSerif-100"/>
       <use x="406.005859" xlink:href="#DejaVuSerif-97"/>
       <use x="465.625" xlink:href="#DejaVuSerif-109"/>
       <use x="560.449219" xlink:href="#DejaVuSerif-121"/>
       <use x="616.943359" xlink:href="#DejaVuSerif-115"/>
      </g>
     </g>
    </g>
    <g id="xtick_26">
     <g id="line2d_26">
      <g>
       <use style="stroke:#000000;stroke-width:0.8;" x="779.249688" xlink:href="#m683de98736" y="496.44"/>
      </g>
     </g>
     <g id="text_26">
      <!-- Juliomys -->
      <defs>
       <path d="M -8.40625 -17.484375 
L -8.40625 -6 
L -2.828125 -6 
Q -2.6875 -10.84375 -0.53125 -13.203125 
Q 1.609375 -15.578125 5.90625 -15.578125 
Q 11.71875 -15.578125 14.015625 -11.90625 
Q 16.3125 -8.25 16.3125 2.390625 
L 16.3125 67.671875 
L 4.984375 67.671875 
L 4.984375 72.90625 
L 35.5 72.90625 
L 35.5 67.671875 
L 26.21875 67.671875 
L 26.21875 2 
Q 26.21875 -10.0625 21.375 -15.421875 
Q 16.546875 -20.796875 5.8125 -20.796875 
Q 2.34375 -20.796875 -1.234375 -19.96875 
Q -4.828125 -19.140625 -8.40625 -17.484375 
z
" id="DejaVuSerif-74"/>
      </defs>
      <g transform="translate(785.163906 598.32875)rotate(-90)scale(0.22 -0.22)">
       <use xlink:href="#DejaVuSerif-74"/>
       <use x="40.087891" xlink:href="#DejaVuSerif-117"/>
       <use x="104.492188" xlink:href="#DejaVuSerif-108"/>
       <use x="136.474609" xlink:href="#DejaVuSerif-105"/>
       <use x="168.457031" xlink:href="#DejaVuSerif-111"/>
       <use x="228.662109" xlink:href="#DejaVuSerif-109"/>
       <use x="323.486328" xlink:href="#DejaVuSerif-121"/>
       <use x="379.980469" xlink:href="#DejaVuSerif-115"/>
      </g>
     </g>
    </g>
    <g id="xtick_27">
     <g id="line2d_27">
      <g>
       <use style="stroke:#000000;stroke-width:0.8;" x="807.149688" xlink:href="#m683de98736" y="496.44"/>
      </g>
     </g>
     <g id="text_27">
      <!-- Tamias -->
      <defs>
       <path d="M 19.09375 0 
L 19.09375 5.171875 
L 28.421875 5.171875 
L 28.421875 67.09375 
L 6.984375 67.09375 
L 6.984375 55.71875 
L 0.984375 55.71875 
L 0.984375 72.90625 
L 65.71875 72.90625 
L 65.71875 55.71875 
L 59.71875 55.71875 
L 59.71875 67.09375 
L 38.28125 67.09375 
L 38.28125 5.171875 
L 47.609375 5.171875 
L 47.609375 0 
z
" id="DejaVuSerif-84"/>
      </defs>
      <g transform="translate(813.220312 581.832187)rotate(-90)scale(0.22 -0.22)">
       <use xlink:href="#DejaVuSerif-84"/>
       <use x="58.949219" xlink:href="#DejaVuSerif-97"/>
       <use x="118.568359" xlink:href="#DejaVuSerif-109"/>
       <use x="213.392578" xlink:href="#DejaVuSerif-105"/>
       <use x="245.375" xlink:href="#DejaVuSerif-97"/>
       <use x="304.994141" xlink:href="#DejaVuSerif-115"/>
      </g>
     </g>
    </g>
    <g id="xtick_28">
     <g id="line2d_28">
      <g>
       <use style="stroke:#000000;stroke-width:0.8;" x="835.049688" xlink:href="#m683de98736" y="496.44"/>
      </g>
     </g>
     <g id="text_28">
      <!-- Chaetodipus -->
      <g transform="translate(841.120312 643.329062)rotate(-90)scale(0.22 -0.22)">
       <use xlink:href="#DejaVuSerif-67"/>
       <use x="76.513672" xlink:href="#DejaVuSerif-104"/>
       <use x="140.917969" xlink:href="#DejaVuSerif-97"/>
       <use x="200.537109" xlink:href="#DejaVuSerif-101"/>
       <use x="259.716797" xlink:href="#DejaVuSerif-116"/>
       <use x="299.902344" xlink:href="#DejaVuSerif-111"/>
       <use x="360.107422" xlink:href="#DejaVuSerif-100"/>
       <use x="424.121094" xlink:href="#DejaVuSerif-105"/>
       <use x="456.103516" xlink:href="#DejaVuSerif-112"/>
       <use x="520.117188" xlink:href="#DejaVuSerif-117"/>
       <use x="584.521484" xlink:href="#DejaVuSerif-115"/>
      </g>
     </g>
    </g>
    <g id="xtick_29">
     <g id="line2d_29">
      <g>
       <use style="stroke:#000000;stroke-width:0.8;" x="862.949687" xlink:href="#m683de98736" y="496.44"/>
      </g>
     </g>
     <g id="text_29">
      <!-- Mesocricetus -->
      <g transform="translate(869.020312 653.033125)rotate(-90)scale(0.22 -0.22)">
       <use xlink:href="#DejaVuSerif-77"/>
       <use x="102.392578" xlink:href="#DejaVuSerif-101"/>
       <use x="161.572266" xlink:href="#DejaVuSerif-115"/>
       <use x="212.890625" xlink:href="#DejaVuSerif-111"/>
       <use x="273.095703" xlink:href="#DejaVuSerif-99"/>
       <use x="329.101562" xlink:href="#DejaVuSerif-114"/>
       <use x="376.904297" xlink:href="#DejaVuSerif-105"/>
       <use x="408.886719" xlink:href="#DejaVuSerif-99"/>
       <use x="464.892578" xlink:href="#DejaVuSerif-101"/>
       <use x="524.072266" xlink:href="#DejaVuSerif-116"/>
       <use x="564.257812" xlink:href="#DejaVuSerif-117"/>
       <use x="628.662109" xlink:href="#DejaVuSerif-115"/>
      </g>
     </g>
    </g>
    <g id="xtick_30">
     <g id="line2d_30">
      <g>
       <use style="stroke:#000000;stroke-width:0.8;" x="890.849687" xlink:href="#m683de98736" y="496.44"/>
      </g>
     </g>
     <g id="text_30">
      <!-- Pteromys -->
      <g transform="translate(896.6075 608.445312)rotate(-90)scale(0.22 -0.22)">
       <use xlink:href="#DejaVuSerif-80"/>
       <use x="67.285156" xlink:href="#DejaVuSerif-116"/>
       <use x="107.470703" xlink:href="#DejaVuSerif-101"/>
       <use x="166.650391" xlink:href="#DejaVuSerif-114"/>
       <use x="214.453125" xlink:href="#DejaVuSerif-111"/>
       <use x="274.658203" xlink:href="#DejaVuSerif-109"/>
       <use x="369.482422" xlink:href="#DejaVuSerif-121"/>
       <use x="425.976562" xlink:href="#DejaVuSerif-115"/>
      </g>
     </g>
    </g>
    <g id="text_31">
     <!-- Species -->
     <defs>
      <path d="M 9.28125 3.515625 
L 9.28125 20.125 
L 14.890625 20.0625 
Q 15.140625 11.765625 19.703125 7.78125 
Q 24.265625 3.8125 33.59375 3.8125 
Q 42.28125 3.8125 46.84375 7.25 
Q 51.421875 10.6875 51.421875 17.28125 
Q 51.421875 22.5625 48.65625 25.390625 
Q 45.90625 28.21875 37.015625 30.90625 
L 27.390625 33.796875 
Q 16.9375 36.96875 12.671875 41.703125 
Q 8.40625 46.4375 8.40625 54.6875 
Q 8.40625 63.96875 14.984375 69.09375 
Q 21.578125 74.21875 33.5 74.21875 
Q 38.578125 74.21875 44.625 73.109375 
Q 50.6875 72.015625 57.515625 69.921875 
L 57.515625 54.390625 
L 52 54.390625 
Q 51.171875 62.109375 46.84375 65.546875 
Q 42.53125 69 33.6875 69 
Q 25.984375 69 21.953125 65.84375 
Q 17.921875 62.703125 17.921875 56.6875 
Q 17.921875 51.46875 20.9375 48.484375 
Q 23.96875 45.515625 33.796875 42.578125 
L 42.828125 39.890625 
Q 52.734375 36.921875 56.953125 32.296875 
Q 61.1875 27.6875 61.1875 19.921875 
Q 61.1875 9.328125 54.390625 3.953125 
Q 47.609375 -1.421875 34.1875 -1.421875 
Q 28.171875 -1.421875 21.9375 -0.1875 
Q 15.71875 1.03125 9.28125 3.515625 
z
" id="DejaVuSerif-83"/>
     </defs>
     <g transform="translate(443.379063 682.938125)scale(0.22 -0.22)">
      <use xlink:href="#DejaVuSerif-83"/>
      <use x="68.505859" xlink:href="#DejaVuSerif-112"/>
      <use x="132.519531" xlink:href="#DejaVuSerif-101"/>
      <use x="191.699219" xlink:href="#DejaVuSerif-99"/>
      <use x="247.705078" xlink:href="#DejaVuSerif-105"/>
      <use x="279.6875" xlink:href="#DejaVuSerif-101"/>
      <use x="338.867188" xlink:href="#DejaVuSerif-115"/>
     </g>
    </g>
   </g>
   <g id="matplotlib.axis_2">
    <g id="ytick_1">
     <g id="line2d_31">
      <defs>
       <path d="M 0 0 
L -3.5 0 
" id="m97c4e2bf32" style="stroke:#000000;stroke-width:0.8;"/>
      </defs>
      <g>
       <use style="stroke:#000000;stroke-width:0.8;" x="67.799688" xlink:href="#m97c4e2bf32" y="496.44"/>
      </g>
     </g>
     <g id="text_32">
      <!-- 0 -->
      <defs>
       <path d="M 31.78125 3.421875 
Q 39.265625 3.421875 42.96875 11.625 
Q 46.6875 19.828125 46.6875 36.375 
Q 46.6875 52.984375 42.96875 61.1875 
Q 39.265625 69.390625 31.78125 69.390625 
Q 24.3125 69.390625 20.59375 61.1875 
Q 16.890625 52.984375 16.890625 36.375 
Q 16.890625 19.828125 20.59375 11.625 
Q 24.3125 3.421875 31.78125 3.421875 
z
M 31.78125 -1.421875 
Q 19.921875 -1.421875 13.25 8.53125 
Q 6.59375 18.5 6.59375 36.375 
Q 6.59375 54.296875 13.25 64.25 
Q 19.921875 74.21875 31.78125 74.21875 
Q 43.703125 74.21875 50.34375 64.25 
Q 56.984375 54.296875 56.984375 36.375 
Q 56.984375 18.5 50.34375 8.53125 
Q 43.703125 -1.421875 31.78125 -1.421875 
z
" id="DejaVuSerif-48"/>
      </defs>
      <g transform="translate(46.802188 504.798281)scale(0.22 -0.22)">
       <use xlink:href="#DejaVuSerif-48"/>
      </g>
     </g>
    </g>
    <g id="ytick_2">
     <g id="line2d_32">
      <g>
       <use style="stroke:#000000;stroke-width:0.8;" x="67.799688" xlink:href="#m97c4e2bf32" y="424.756484"/>
      </g>
     </g>
     <g id="text_33">
      <!-- 10 -->
      <defs>
       <path d="M 14.203125 0 
L 14.203125 5.171875 
L 26.90625 5.171875 
L 26.90625 65.828125 
L 12.203125 56.296875 
L 12.203125 62.703125 
L 29.984375 74.21875 
L 36.71875 74.21875 
L 36.71875 5.171875 
L 49.421875 5.171875 
L 49.421875 0 
z
" id="DejaVuSerif-49"/>
      </defs>
      <g transform="translate(32.804688 433.114765)scale(0.22 -0.22)">
       <use xlink:href="#DejaVuSerif-49"/>
       <use x="63.623047" xlink:href="#DejaVuSerif-48"/>
      </g>
     </g>
    </g>
    <g id="ytick_3">
     <g id="line2d_33">
      <g>
       <use style="stroke:#000000;stroke-width:0.8;" x="67.799688" xlink:href="#m97c4e2bf32" y="353.072967"/>
      </g>
     </g>
     <g id="text_34">
      <!-- 20 -->
      <defs>
       <path d="M 12.796875 55.515625 
L 7.328125 55.515625 
L 7.328125 68.5 
Q 12.546875 71.296875 17.84375 72.75 
Q 23.140625 74.21875 28.21875 74.21875 
Q 39.59375 74.21875 46.1875 68.703125 
Q 52.78125 63.1875 52.78125 53.71875 
Q 52.78125 43.015625 37.84375 28.125 
Q 36.671875 27 36.078125 26.421875 
L 17.671875 8.015625 
L 48.09375 8.015625 
L 48.09375 17 
L 53.8125 17 
L 53.8125 0 
L 6.78125 0 
L 6.78125 5.328125 
L 28.90625 27.390625 
Q 36.234375 34.71875 39.359375 40.84375 
Q 42.484375 46.96875 42.484375 53.71875 
Q 42.484375 61.078125 38.640625 65.234375 
Q 34.8125 69.390625 28.078125 69.390625 
Q 21.09375 69.390625 17.28125 65.921875 
Q 13.484375 62.453125 12.796875 55.515625 
z
" id="DejaVuSerif-50"/>
      </defs>
      <g transform="translate(32.804688 361.431248)scale(0.22 -0.22)">
       <use xlink:href="#DejaVuSerif-50"/>
       <use x="63.623047" xlink:href="#DejaVuSerif-48"/>
      </g>
     </g>
    </g>
    <g id="ytick_4">
     <g id="line2d_34">
      <g>
       <use style="stroke:#000000;stroke-width:0.8;" x="67.799688" xlink:href="#m97c4e2bf32" y="281.389451"/>
      </g>
     </g>
     <g id="text_35">
      <!-- 30 -->
      <defs>
       <path d="M 9.71875 69.828125 
Q 15.4375 71.96875 20.671875 73.09375 
Q 25.921875 74.21875 30.515625 74.21875 
Q 41.21875 74.21875 47.21875 69.59375 
Q 53.21875 64.984375 53.21875 56.78125 
Q 53.21875 50.203125 49.0625 45.78125 
Q 44.921875 41.359375 37.3125 39.796875 
Q 46.296875 38.53125 51.25 33.28125 
Q 56.203125 28.03125 56.203125 19.671875 
Q 56.203125 9.46875 49.34375 4.015625 
Q 42.484375 -1.421875 29.59375 -1.421875 
Q 23.875 -1.421875 18.421875 -0.1875 
Q 12.984375 1.03125 7.625 3.515625 
L 7.625 17.671875 
L 13.09375 17.671875 
Q 13.578125 10.640625 17.828125 7.03125 
Q 22.078125 3.421875 29.78125 3.421875 
Q 37.25 3.421875 41.578125 7.734375 
Q 45.90625 12.0625 45.90625 19.578125 
Q 45.90625 28.171875 41.453125 32.59375 
Q 37.015625 37.015625 28.421875 37.015625 
L 23.78125 37.015625 
L 23.78125 42 
L 26.21875 42 
Q 34.765625 42 39.03125 45.53125 
Q 43.3125 49.078125 43.3125 56.203125 
Q 43.3125 62.59375 39.796875 65.984375 
Q 36.28125 69.390625 29.6875 69.390625 
Q 23.09375 69.390625 19.453125 66.265625 
Q 15.828125 63.140625 15.1875 56.984375 
L 9.71875 56.984375 
z
" id="DejaVuSerif-51"/>
      </defs>
      <g transform="translate(32.804688 289.747732)scale(0.22 -0.22)">
       <use xlink:href="#DejaVuSerif-51"/>
       <use x="63.623047" xlink:href="#DejaVuSerif-48"/>
      </g>
     </g>
    </g>
    <g id="ytick_5">
     <g id="line2d_35">
      <g>
       <use style="stroke:#000000;stroke-width:0.8;" x="67.799688" xlink:href="#m97c4e2bf32" y="209.705934"/>
      </g>
     </g>
     <g id="text_36">
      <!-- 40 -->
      <defs>
       <path d="M 34.90625 24.703125 
L 34.90625 63.484375 
L 10.015625 24.703125 
z
M 56.390625 0 
L 23.1875 0 
L 23.1875 5.171875 
L 34.90625 5.171875 
L 34.90625 19.484375 
L 3.078125 19.484375 
L 3.078125 24.8125 
L 35.015625 74.21875 
L 44.671875 74.21875 
L 44.671875 24.703125 
L 58.59375 24.703125 
L 58.59375 19.484375 
L 44.671875 19.484375 
L 44.671875 5.171875 
L 56.390625 5.171875 
z
" id="DejaVuSerif-52"/>
      </defs>
      <g transform="translate(32.804688 218.064215)scale(0.22 -0.22)">
       <use xlink:href="#DejaVuSerif-52"/>
       <use x="63.623047" xlink:href="#DejaVuSerif-48"/>
      </g>
     </g>
    </g>
    <g id="ytick_6">
     <g id="line2d_36">
      <g>
       <use style="stroke:#000000;stroke-width:0.8;" x="67.799688" xlink:href="#m97c4e2bf32" y="138.022418"/>
      </g>
     </g>
     <g id="text_37">
      <!-- 50 -->
      <defs>
       <path d="M 50.296875 72.90625 
L 50.296875 64.890625 
L 16.890625 64.890625 
L 16.890625 44 
Q 19.4375 45.75 22.828125 46.625 
Q 26.21875 47.515625 30.421875 47.515625 
Q 42.234375 47.515625 49.0625 40.96875 
Q 55.90625 34.421875 55.90625 23.09375 
Q 55.90625 11.53125 49 5.046875 
Q 42.09375 -1.421875 29.59375 -1.421875 
Q 24.5625 -1.421875 19.28125 -0.1875 
Q 14.015625 1.03125 8.5 3.515625 
L 8.5 17.671875 
L 14.015625 17.671875 
Q 14.453125 10.75 18.421875 7.078125 
Q 22.40625 3.421875 29.59375 3.421875 
Q 37.3125 3.421875 41.453125 8.5 
Q 45.609375 13.578125 45.609375 23.09375 
Q 45.609375 32.5625 41.484375 37.609375 
Q 37.359375 42.671875 29.59375 42.671875 
Q 25.203125 42.671875 21.84375 41.109375 
Q 18.5 39.546875 15.921875 36.28125 
L 11.71875 36.28125 
L 11.71875 72.90625 
z
" id="DejaVuSerif-53"/>
      </defs>
      <g transform="translate(32.804688 146.380699)scale(0.22 -0.22)">
       <use xlink:href="#DejaVuSerif-53"/>
       <use x="63.623047" xlink:href="#DejaVuSerif-48"/>
      </g>
     </g>
    </g>
    <g id="ytick_7">
     <g id="line2d_37">
      <g>
       <use style="stroke:#000000;stroke-width:0.8;" x="67.799688" xlink:href="#m97c4e2bf32" y="66.338901"/>
      </g>
     </g>
     <g id="text_38">
      <!-- 60 -->
      <defs>
       <path d="M 32.71875 3.421875 
Q 39.59375 3.421875 43.296875 8.46875 
Q 47.015625 13.53125 47.015625 23 
Q 47.015625 32.46875 43.296875 37.515625 
Q 39.59375 42.578125 32.71875 42.578125 
Q 25.734375 42.578125 22.0625 37.6875 
Q 18.40625 32.8125 18.40625 23.578125 
Q 18.40625 13.875 22.109375 8.640625 
Q 25.828125 3.421875 32.71875 3.421875 
z
M 16.796875 40.140625 
Q 20.125 43.796875 24.3125 45.59375 
Q 28.515625 47.40625 33.796875 47.40625 
Q 44.671875 47.40625 51 40.859375 
Q 57.328125 34.328125 57.328125 23 
Q 57.328125 11.921875 50.515625 5.25 
Q 43.703125 -1.421875 32.328125 -1.421875 
Q 19.96875 -1.421875 13.328125 7.78125 
Q 6.6875 17 6.6875 34.078125 
Q 6.6875 53.21875 14.546875 63.71875 
Q 22.40625 74.21875 36.71875 74.21875 
Q 40.578125 74.21875 44.828125 73.484375 
Q 49.078125 72.75 53.515625 71.296875 
L 53.515625 59.28125 
L 48 59.28125 
Q 47.40625 64.203125 44.234375 66.796875 
Q 41.0625 69.390625 35.6875 69.390625 
Q 26.21875 69.390625 21.578125 62.203125 
Q 16.9375 55.03125 16.796875 40.140625 
z
" id="DejaVuSerif-54"/>
      </defs>
      <g transform="translate(32.804688 74.697182)scale(0.22 -0.22)">
       <use xlink:href="#DejaVuSerif-54"/>
       <use x="63.623047" xlink:href="#DejaVuSerif-48"/>
      </g>
     </g>
    </g>
    <g id="text_39">
     <!-- Removed Samples Percentage (%) -->
     <defs>
      <path id="DejaVuSerif-32"/>
      <path d="M 31.890625 -15.578125 
Q 20.015625 -10.25 13.953125 1.296875 
Q 7.90625 12.84375 7.90625 30.171875 
Q 7.90625 47.5625 13.953125 59.109375 
Q 20.015625 70.65625 31.890625 75.984375 
L 31.890625 71.1875 
Q 24.359375 66.015625 21.09375 56.609375 
Q 17.828125 47.21875 17.828125 30.171875 
Q 17.828125 13.1875 21.09375 3.78125 
Q 24.359375 -5.609375 31.890625 -10.796875 
z
" id="DejaVuSerif-40"/>
      <path d="M 22.40625 69.671875 
Q 18.109375 69.671875 15.6875 65.625 
Q 13.28125 61.578125 13.28125 54.296875 
Q 13.28125 47.125 15.75 43.015625 
Q 18.21875 38.921875 22.40625 38.921875 
Q 26.5625 38.921875 28.96875 43 
Q 31.390625 47.078125 31.390625 54.296875 
Q 31.390625 61.53125 28.96875 65.59375 
Q 26.5625 69.671875 22.40625 69.671875 
z
M 72.703125 33.890625 
Q 68.453125 33.890625 66.03125 29.78125 
Q 63.625 25.6875 63.625 18.40625 
Q 63.625 11.234375 66.0625 7.15625 
Q 68.5 3.078125 72.703125 3.078125 
Q 76.90625 3.078125 79.296875 7.15625 
Q 81.6875 11.234375 81.6875 18.40625 
Q 81.6875 25.640625 79.265625 29.765625 
Q 76.859375 33.890625 72.703125 33.890625 
z
M 72.703125 38.28125 
Q 80.421875 38.28125 84.953125 32.90625 
Q 89.5 27.546875 89.5 18.40625 
Q 89.5 9.28125 84.9375 3.921875 
Q 80.375 -1.421875 72.703125 -1.421875 
Q 64.890625 -1.421875 60.34375 3.921875 
Q 55.8125 9.28125 55.8125 18.40625 
Q 55.8125 27.59375 60.375 32.9375 
Q 64.9375 38.28125 72.703125 38.28125 
z
M 66.609375 74.21875 
L 74.03125 74.21875 
L 28.421875 -1.421875 
L 21 -1.421875 
z
M 22.3125 74.21875 
Q 30.03125 74.21875 34.609375 68.875 
Q 39.203125 63.53125 39.203125 54.390625 
Q 39.203125 45.171875 34.640625 39.84375 
Q 30.078125 34.515625 22.3125 34.515625 
Q 14.546875 34.515625 10.03125 39.859375 
Q 5.515625 45.21875 5.515625 54.390625 
Q 5.515625 63.484375 10.046875 68.84375 
Q 14.59375 74.21875 22.3125 74.21875 
z
" id="DejaVuSerif-37"/>
      <path d="M 7.078125 -15.578125 
L 7.078125 -10.796875 
Q 14.59375 -5.609375 17.890625 3.78125 
Q 21.1875 13.1875 21.1875 30.171875 
Q 21.1875 47.21875 17.890625 56.609375 
Q 14.59375 66.015625 7.078125 71.1875 
L 7.078125 75.984375 
Q 19 70.65625 25.046875 59.109375 
Q 31.109375 47.5625 31.109375 30.171875 
Q 31.109375 12.84375 25.046875 1.296875 
Q 19 -10.25 7.078125 -15.578125 
z
" id="DejaVuSerif-41"/>
     </defs>
     <g transform="translate(23.916563 443.158125)rotate(-90)scale(0.22 -0.22)">
      <use xlink:href="#DejaVuSerif-82"/>
      <use x="75.292969" xlink:href="#DejaVuSerif-101"/>
      <use x="134.472656" xlink:href="#DejaVuSerif-109"/>
      <use x="229.296875" xlink:href="#DejaVuSerif-111"/>
      <use x="289.501953" xlink:href="#DejaVuSerif-118"/>
      <use x="345.996094" xlink:href="#DejaVuSerif-101"/>
      <use x="405.175781" xlink:href="#DejaVuSerif-100"/>
      <use x="469.189453" xlink:href="#DejaVuSerif-32"/>
      <use x="500.976562" xlink:href="#DejaVuSerif-83"/>
      <use x="569.482422" xlink:href="#DejaVuSerif-97"/>
      <use x="629.101562" xlink:href="#DejaVuSerif-109"/>
      <use x="723.925781" xlink:href="#DejaVuSerif-112"/>
      <use x="787.939453" xlink:href="#DejaVuSerif-108"/>
      <use x="819.921875" xlink:href="#DejaVuSerif-101"/>
      <use x="879.101562" xlink:href="#DejaVuSerif-115"/>
      <use x="930.419922" xlink:href="#DejaVuSerif-32"/>
      <use x="962.207031" xlink:href="#DejaVuSerif-80"/>
      <use x="1024.992188" xlink:href="#DejaVuSerif-101"/>
      <use x="1084.171875" xlink:href="#DejaVuSerif-114"/>
      <use x="1131.974609" xlink:href="#DejaVuSerif-99"/>
      <use x="1187.980469" xlink:href="#DejaVuSerif-101"/>
      <use x="1247.160156" xlink:href="#DejaVuSerif-110"/>
      <use x="1311.564453" xlink:href="#DejaVuSerif-116"/>
      <use x="1351.75" xlink:href="#DejaVuSerif-97"/>
      <use x="1411.369141" xlink:href="#DejaVuSerif-103"/>
      <use x="1475.382812" xlink:href="#DejaVuSerif-101"/>
      <use x="1534.5625" xlink:href="#DejaVuSerif-32"/>
      <use x="1566.349609" xlink:href="#DejaVuSerif-40"/>
      <use x="1605.363281" xlink:href="#DejaVuSerif-37"/>
      <use x="1700.382812" xlink:href="#DejaVuSerif-41"/>
     </g>
    </g>
   </g>
   <g id="patch_33">
    <path d="M 67.799688 496.44 
L 67.799688 7.2 
" style="fill:none;stroke:#000000;stroke-linecap:square;stroke-linejoin:miter;stroke-width:0.8;"/>
   </g>
   <g id="patch_34">
    <path d="M 904.799688 496.44 
L 904.799688 7.2 
" style="fill:none;stroke:#000000;stroke-linecap:square;stroke-linejoin:miter;stroke-width:0.8;"/>
   </g>
   <g id="patch_35">
    <path d="M 67.799688 496.44 
L 904.799688 496.44 
" style="fill:none;stroke:#000000;stroke-linecap:square;stroke-linejoin:miter;stroke-width:0.8;"/>
   </g>
   <g id="patch_36">
    <path d="M 67.799688 7.2 
L 904.799688 7.2 
" style="fill:none;stroke:#000000;stroke-linecap:square;stroke-linejoin:miter;stroke-width:0.8;"/>
   </g>
  </g>
 </g>
 <defs>
  <clipPath id="pf5ca02254f">
   <rect height="489.24" width="837" x="67.799688" y="7.2"/>
  </clipPath>
 </defs>
 <defs>
  <pattern height="72" id="hca8359fc43" patternUnits="userSpaceOnUse" width="72" x="0" y="0">
   <rect fill="#ffffff" height="73" width="73" x="0" y="0"/>
   <path d="M -36 36 
L 36 -36 
M -30 42 
L 42 -30 
M -24 48 
L 48 -24 
M -18 54 
L 54 -18 
M -12 60 
L 60 -12 
M -6 66 
L 66 -6 
M 0 72 
L 72 0 
M 6 78 
L 78 6 
M 12 84 
L 84 12 
M 18 90 
L 90 18 
M 24 96 
L 96 24 
M 30 102 
L 102 30 
M 36 108 
L 108 36 
M -36 36 
L 36 108 
M -30 30 
L 42 102 
M -24 24 
L 48 96 
M -18 18 
L 54 90 
M -12 12 
L 60 84 
M -6 6 
L 66 78 
M 0 0 
L 72 72 
M 6 -6 
L 78 66 
M 12 -12 
L 84 60 
M 18 -18 
L 90 54 
M 24 -24 
L 96 48 
M 30 -30 
L 102 42 
M 36 -36 
L 108 36 
" style="fill:#000000;stroke:#000000;stroke-linecap:butt;stroke-linejoin:miter;stroke-width:1.0;"/>
  </pattern>
 </defs>
</svg>
